#VRML V1.0 ascii

Separator {
	Info { string "Virtus 3D Website Builder 1.0
	VRML Export Filter
	Virtus Corporation
	114 MacKenan Drive, Suite 100
	Cary, NC 27511
	919-467-9700"}

	DEF BackgroundColor Info{  # Sky color
		string " 0.3 0.8 1.0 "
	}

	DirectionalLight {
		on         TRUE          # SFBool
		intensity  1.0           # SFFloat
		color      0.4 0.4 0.4   # SFColor
		direction  0 0 0   # SFVec3f
	}

	DirectionalLight {
		on         TRUE          # SFBool
		intensity  1.0           # SFFloat
		color      0.5 0.5 0.5   # SFColor
		direction  34 -247 -57   # SFVec3f
	}

	DirectionalLight {
		on         TRUE          # SFBool
		intensity  1.0           # SFFloat
		color      0.4 0.4 0.4   # SFColor
		direction  -209 -104 105   # SFVec3f
	}

	DirectionalLight {
		on         TRUE          # SFBool
		intensity  1.0           # SFFloat
		color      0.5 0.5 0.5   # SFColor
		direction  5 119 -226   # SFVec3f
	}

	PerspectiveCamera {
		position -9.5504 1.8288 -0.0000          #SFVec3f 
		orientation 0 1 0  4.9348     #SFRotation 
		focalDistance  5            #SFFloat 
		heightAngle 2.1726 
	}

	ShapeHints {
		vertexOrdering	CLOCKWISE
		shapeType	SOLID
	}

	Transform {
		translation 0 0 0
		scaleFactor 1.0 1.0 1.0
	}

Separator { #Polyhedron
	DEF COORD0 Coordinate3 {
		point [
		 -8.3663 3.6576 -1.4736,
		 -8.3663 3.6576 1.6252,
		 -10.9571 3.6576 1.6252,
		 -10.9571 3.6576 -1.4736,
		 -8.3663 0.0000 -1.4736,
		 -8.3663 0.0000 1.6252,
		 -10.9571 0.0000 1.6252,
		 -10.9571 0.0000 -1.4736,
		 -8.3707 0.0000 -1.4646,
		 -8.3707 3.6576 -1.4646,
		 -8.3663 3.6576 -1.4736
		]
	} #Coordinate3
	Material {
		ambientColor      0.2500 0.2500 0.2500  #ambientColor
		diffuseColor      1.0000 1.0000 1.0000  #diffuseColor
		transparency      0.0000                #transparency
	} #Material

	IndexedFaceSet {
		coordIndex [ 
		 0, 1, 2, 3,-1,
		 3, 2, 1, 0,-1,
		 0, 3, 7, 4,-1,
		 4, 7, 3, 0,-1,
		]
	} #IndexedFaceSet
	Material {
		ambientColor      0.2500 0.2500 0.2500  #ambientColor
		diffuseColor      1.0000 1.0000 1.0000  #diffuseColor
		transparency      1.0000                #transparency
	} #Material

	IndexedFaceSet {
		coordIndex [ 
		 8, 9, 10, 4,-1,
		 5, 4, 0, 1,-1,
		]
	} #IndexedFaceSet
	Material {
		ambientColor      0.2500 0.2500 0.2500  #ambientColor
		diffuseColor      1.0000 1.0000 1.0000  #diffuseColor
		transparency      0.0000                #transparency
	} #Material

	IndexedFaceSet {
		coordIndex [ 
		 2, 1, 5, 6,-1,
		 6, 5, 1, 2,-1,
		 3, 2, 6, 7,-1,
		 7, 6, 2, 3,-1,
		 7, 6, 5, 4,-1,
		 4, 5, 6, 7,-1,
		]
	} #IndexedFaceSet
} #Polyhedron
Separator { #Polyhedron
	DEF COORD1 Coordinate3 {
		point [
		 -10.9302 0.0000 -1.2191,
		 -10.9302 2.4384 -1.1155,
		 -10.9302 3.3528 -0.7010,
		 -10.9302 3.2004 0.9570,
		 -10.9302 1.0668 1.2679,
		 -10.9302 0.0000 1.3715,
		 -10.1830 0.0000 -1.2191,
		 -10.1830 2.4384 -1.1155,
		 -10.1830 3.3528 -0.7010,
		 -10.1830 3.2004 0.9570,
		 -10.1830 1.0668 1.2679,
		 -10.1830 0.0000 1.3715,
		 -10.1830 0.4572 -1.1997,
		 -10.2469 2.4384 -1.1155,
		 -10.2764 3.3528 -0.7010,
		 -10.2715 3.2004 0.9570,
		 -10.2026 1.0668 1.2679,
		 -10.1830 0.4572 1.3271,
		 -10.2746 3.2993 -0.1184,
		 -10.3640 3.2004 0.9570,
		 -10.2191 1.5782 1.1934
		]
	} #Coordinate3
	Material {
		ambientColor      0.2431 0.2431 0.2431  #ambientColor
		diffuseColor      0.9725 0.9725 0.9725  #diffuseColor
		transparency      0.0000                #transparency
	} #Material

	Texture2 {
		filename ""  #filename
		wrapS REPEAT 
		wrapT REPEAT 
	} #Texture2

	IndexedFaceSet {
		coordIndex [ 
		 0, 1, 2, 3, 4, 5,-1,
		 5, 4, 3, 2, 1, 0,-1,
		 0, 5, 11, 6,-1,
		 6, 11, 5, 0,-1,
		 1, 0, 6, 12, 13,-1,
		 13, 12, 6, 0, 1,-1,
		 2, 1, 13, 14,-1,
		 14, 13, 1, 2,-1,
		 3, 2, 14, 18, 19,-1,
		 19, 18, 14, 2, 3,-1,
		 4, 3, 19, 20, 16,-1,
		 16, 20, 19, 3, 4,-1,
		 5, 4, 16, 17, 11,-1,
		 11, 17, 16, 4, 5,-1,
		 11, 17, 12, 6,-1,
		 6, 12, 17, 11,-1,
		 13, 12, 17, 16, 20, 18, 14,-1,
		 14, 18, 20, 16, 17, 12, 13,-1,
		 19, 18, 20,-1,
		 20, 18, 19,-1,
		]
	} #IndexedFaceSet
} #Polyhedron
Separator { #Polyhedron
	DEF COORD2 Coordinate3 {
		point [
		 -8.8392 0.0508 -0.9144,
		 -8.8392 0.0508 -0.3048,
		 -9.4488 0.0508 -0.0000,
		 -9.7536 0.0508 -0.6096,
		 -9.4488 0.0508 -0.9144,
		 -8.8392 0.0000 -0.9144,
		 -8.8392 0.0000 -0.3048,
		 -9.4488 0.0000 -0.0000,
		 -9.7536 0.0000 -0.6096,
		 -9.4488 0.0000 -0.9144
		]
	} #Coordinate3
	Material {
		ambientColor      0.2088 0.2088 0.2088  #ambientColor
		diffuseColor      0.8353 0.8353 0.8353  #diffuseColor
		transparency      0.0000                #transparency
	} #Material

	IndexedFaceSet {
		coordIndex [ 
		 0, 1, 2, 3, 4,-1,
		 4, 3, 2, 1, 0,-1,
		 0, 4, 9, 5,-1,
		 5, 9, 4, 0,-1,
		 1, 0, 5, 6,-1,
		 6, 5, 0, 1,-1,
		 2, 1, 6, 7,-1,
		 7, 6, 1, 2,-1,
		 3, 2, 7, 8,-1,
		 8, 7, 2, 3,-1,
		 4, 3, 8, 9,-1,
		 9, 8, 3, 4,-1,
		 9, 8, 7, 6, 5,-1,
		 5, 6, 7, 8, 9,-1,
		]
	} #IndexedFaceSet
} #Polyhedron
Separator { #Polyhedron
	DEF COORD3 Coordinate3 {
		point [
		 -1.9228 3.6576 -7.9632,
		 1.2861 3.6576 -7.9701,
		 4.2533 3.6576 -6.7440,
		 6.5272 3.6576 -4.4716,
		 7.7615 3.6576 -1.4990,
		 7.7684 3.6576 1.7214,
		 6.5467 3.6576 4.6993,
		 4.2825 3.6576 6.9813,
		 1.3205 3.6576 8.2200,
		 -1.8884 3.6576 8.2269,
		 -4.8557 3.6576 7.0008,
		 -7.1295 3.6576 4.7284,
		 -8.3638 3.6576 1.7558,
		 -8.3707 3.6576 -1.4646,
		 -7.1490 3.6576 -4.4425,
		 -4.8848 3.6576 -6.7245,
		 -1.9228 0.0000 -7.9632,
		 1.2861 0.0000 -7.9701,
		 4.2533 0.0000 -6.7440,
		 6.5272 0.0000 -4.4716,
		 7.7615 0.0000 -1.4990,
		 7.7684 0.0000 1.7214,
		 6.5467 0.0000 4.6993,
		 4.2825 0.0000 6.9813,
		 1.3205 0.0000 8.2200,
		 -1.8884 0.0000 8.2269,
		 -4.8557 0.0000 7.0008,
		 -7.1295 0.0000 4.7284,
		 -8.3638 0.0000 1.7558,
		 -8.3707 0.0000 -1.4646,
		 -7.1490 0.0000 -4.4425,
		 -4.8848 0.0000 -6.7245,
		 1.6324 3.6576 8.0896,
		 -2.2207 3.6576 8.0896,
		 -4.8369 3.6576 6.8747,
		 -1.8590 3.6576 8.0896,
		 -4.9819 3.6576 6.8747,
		 -7.1248 3.6576 4.6085,
		 -7.1793 3.6576 4.6085,
		 -8.3640 3.6576 1.6611,
		 6.5754 3.6576 4.5181,
		 7.7681 3.6576 1.5738,
		 6.6211 3.6576 4.5181,
		 4.3173 3.6576 6.8142,
		 4.4483 3.6576 6.8142,
		 1.3556 3.6576 8.0683,
		 1.6832 3.6576 8.0683,
		 1.6324 3.6576 8.0896,
		 -2.2207 3.6576 8.0896,
		 1.6324 3.6576 8.0896,
		 -4.9819 3.6576 6.8747,
		 -7.1793 3.6576 4.6085,
		 -8.3640 3.6576 1.6611,
		 6.6211 3.6576 4.5181,
		 7.7681 3.6576 1.5738,
		 4.4483 3.6576 6.8142,
		 1.6832 3.6576 8.0683,
		 1.6324 3.6576 8.0896,
		 -8.3663 0.0000 1.6252,
		 -8.3663 3.6576 1.6252,
		 1.3066 0.0000 -7.9616,
		 -1.9267 0.0000 -7.9616,
		 1.4935 0.0000 -7.8844,
		 -0.2669 0.0000 -7.9616,
		 1.2551 0.0000 -7.8844,
		 2.7170 0.0000 -7.3788,
		 1.5956 0.0000 -7.3788,
		 3.7408 0.0000 -6.9558,
		 1.5132 0.0000 -6.9558,
		 4.3822 0.0000 -6.6152,
		 1.0076 0.0000 -6.6152,
		 4.6405 0.0000 -6.3571,
		 0.0790 0.0000 -6.3571,
		 5.2342 0.0000 -5.7638,
		 4.6405 0.0000 -6.3571,
		 0.0790 0.0000 -6.3571,
		 -0.2562 0.0000 -5.7638,
		 -5.8381 0.0000 -5.7638,
		 -5.8944 0.0000 -5.7070,
		 5.2910 0.0000 -5.7070,
		 5.2342 0.0000 -5.7638,
		 -5.7562 0.0000 -5.8463,
		 -0.6793 0.0000 -5.8463,
		 -5.2494 0.0000 -6.3571,
		 -1.3427 0.0000 -6.3571,
		 -5.1728 0.0000 -6.4343,
		 -1.3427 0.0000 -6.3571,
		 -1.4430 0.0000 -6.4343,
		 -4.9986 0.0000 -6.6099,
		 -1.4087 0.0000 -6.6099,
		 -3.9500 0.0000 -7.1155,
		 -1.4087 0.0000 -6.6099,
		 -1.3102 0.0000 -7.1155,
		 -0.3826 0.0000 -7.3683,
		 -1.9267 0.0000 -7.9616,
		 -3.3456 0.0000 -7.3683,
		 -0.4319 0.0000 -7.1155,
		 -0.6022 0.0000 -7.3683,
		 -0.4319 0.0000 -7.1155,
		 -3.5555 0.0000 -7.2805,
		 -1.3102 0.0000 -7.1155,
		 -1.2780 0.0000 -7.2805,
		 -3.3456 0.0000 -7.3683,
		 5.8068 0.0000 -5.1915,
		 3.0263 0.0000 -5.7070,
		 3.8041 0.0000 -5.1915,
		 6.6080 0.0000 -4.2771,
		 3.9896 0.0000 -4.2771,
		 6.9310 0.0000 -3.4993,
		 3.4742 0.0000 -3.4993,
		 7.0080 0.0000 -3.3138,
		 2.5597 0.0000 -3.3138,
		 7.2612 0.0000 -2.7039,
		 7.0080 0.0000 -3.3138,
		 -3.7865 0.0000 -3.3138,
		 -3.7072 0.0000 -2.7039,
		 7.5783 0.0000 -1.9403,
		 -4.2953 0.0000 -1.9403,
		 -8.1755 0.0000 -1.9403,
		 -8.2214 0.0000 -1.8285,
		 7.6247 0.0000 -1.8285,
		 7.5783 0.0000 -1.9403,
		 -8.0740 0.0000 -2.1878,
		 -5.5645 0.0000 -2.1878,
		 -7.7629 0.0000 -2.9462,
		 -6.0753 0.0000 -2.9462,
		 -7.6121 0.0000 -3.3138,
		 -5.9242 0.0000 -3.3138,
		 2.4601 0.0000 -3.3798,
		 1.7819 0.0000 -3.8293,
		 -3.9580 0.0000 -3.8293,
		 -3.7950 0.0000 -3.3798,
		 -3.7865 0.0000 -3.3138,
		 -7.4006 0.0000 -3.8293,
		 -5.9242 0.0000 -3.3138,
		 -5.7124 0.0000 -3.8293,
		 1.6513 0.0000 -4.4731,
		 1.5964 0.0000 -4.7438,
		 -6.8501 0.0000 -4.7438,
		 -7.1187 0.0000 -4.4731,
		 1.6899 0.0000 -4.2831,
		 -4.8999 0.0000 -4.4731,
		 -4.1226 0.0000 -4.2831,
		 1.7819 0.0000 -3.8293,
		 -3.9580 0.0000 -3.8293,
		 -7.3459 0.0000 -3.9626,
		 -5.7124 0.0000 -3.8293,
		 -5.6576 0.0000 -3.9626,
		 -7.1187 0.0000 -4.4731,
		 -6.0784 0.0000 -5.5215,
		 2.1119 0.0000 -5.5215,
		 -5.8944 0.0000 -5.7070,
		 7.6824 0.0000 -1.6895,
		 0.0008 0.0000 -1.8285,
		 0.6997 0.0000 -1.6895,
		 7.6825 0.0000 -1.6894,
		 0.6995 0.0000 -1.6894,
		 7.7620 0.0000 -1.2931,
		 0.6999 0.0000 -1.6894,
		 1.2930 0.0000 -1.2931,
		 7.7620 0.0000 -1.2931,
		 1.2928 0.0000 -1.2931,
		 7.7632 0.0000 -0.6999,
		 1.2930 0.0000 -1.2931,
		 1.6894 0.0000 -0.6999,
		 7.7647 0.0000 -0.0002,
		 1.6894 0.0000 -0.6999,
		 1.8286 0.0000 -0.0002,
		 1.6892 0.0000 -0.6999,
		 7.7647 0.0000 -0.0001,
		 1.8285 0.0000 -0.0002,
		 1.8287 0.0000 -0.0001,
		 7.7662 0.0000 0.6996,
		 1.6895 0.0000 0.6996,
		 7.7662 0.0000 0.6997,
		 1.6894 0.0000 0.6996,
		 1.6895 0.0000 0.6997,
		 7.7667 0.0000 0.9203,
		 1.5421 0.0000 0.9203,
		 7.7675 0.0000 1.2928,
		 1.6849 0.0000 0.9203,
		 2.7696 0.0000 1.2928,
		 1.5421 0.0000 0.9203,
		 1.3911 0.0000 1.1464,
		 7.7675 0.0000 1.2930,
		 2.7696 0.0000 1.2928,
		 2.7701 0.0000 1.2930,
		 7.7681 0.0000 1.5723,
		 2.7701 0.0000 1.2930,
		 3.5833 0.0000 1.5723,
		 7.7683 0.0000 1.6892,
		 3.5605 0.0000 1.6892,
		 7.7683 0.0000 1.6894,
		 7.7683 0.0000 1.6892,
		 3.5605 0.0000 1.6892,
		 3.5605 0.0000 1.6894,
		 7.7244 0.0000 1.8285,
		 7.7683 0.0000 1.6894,
		 3.5605 0.0000 1.6894,
		 3.5334 0.0000 1.8285,
		 7.7107 0.0000 1.8620,
		 7.7244 0.0000 1.8285,
		 3.5334 0.0000 1.8285,
		 3.5268 0.0000 1.8620,
		 -3.9893 0.0000 1.8285,
		 -3.9387 0.0000 1.8620,
		 -1.0387 0.0000 1.8620,
		 -0.9651 0.0000 1.8285,
		 7.3355 0.0000 2.7765,
		 7.7107 0.0000 1.8620,
		 3.5268 0.0000 1.8620,
		 3.3486 0.0000 2.7765,
		 -3.8895 0.0000 2.1042,
		 -3.7532 0.0000 2.7765,
		 -1.7017 0.0000 2.7765,
		 -1.5706 0.0000 2.1042,
		 -1.0387 0.0000 1.8620,
		 7.3089 0.0000 2.8415,
		 7.3355 0.0000 2.7765,
		 3.3486 0.0000 2.7765,
		 3.3359 0.0000 2.8415,
		 7.0164 0.0000 3.5543,
		 2.2778 0.0000 3.5543,
		 -4.2034 0.0000 3.4560,
		 -4.2686 0.0000 3.5543,
		 -1.4707 0.0000 3.5543,
		 -1.3950 0.0000 3.4560,
		 -3.8684 0.0000 2.9504,
		 -1.3950 0.0000 3.4560,
		 -1.7356 0.0000 2.9504,
		 -3.8649 0.0000 2.9451,
		 -1.7345 0.0000 2.9451,
		 -1.7345 0.0000 2.9451,
		 -1.7017 0.0000 2.7765,
		 6.9404 0.0000 3.7398,
		 7.0164 0.0000 3.5543,
		 2.2778 0.0000 3.5543,
		 2.0024 0.0000 3.7398,
		 -5.1831 0.0000 3.7398,
		 -1.6135 0.0000 3.7398,
		 -1.4707 0.0000 3.5543,
		 6.8199 0.0000 4.0335,
		 6.9404 0.0000 3.7398,
		 2.0024 0.0000 3.7398,
		 1.5665 0.0000 4.0335,
		 6.8199 0.0000 4.0335,
		 6.8199 0.0000 4.0335,
		 0.0965 0.0000 4.0335,
		 1.5665 0.0000 4.0335,
		 6.7478 0.0000 4.2090,
		 0.2148 0.0000 4.2090,
		 6.6081 0.0000 4.5496,
		 6.7478 0.0000 4.2090,
		 0.2148 0.0000 4.2090,
		 -0.2907 0.0000 4.5496,
		 6.5721 0.0000 4.6374,
		 -0.9666 0.0000 4.6374,
		 -7.1673 0.0000 4.6374,
		 6.5721 0.0000 4.6374,
		 -7.3408 0.0000 4.2196,
		 -1.9830 0.0000 4.2196,
		 -7.3452 0.0000 4.2090,
		 -1.9749 0.0000 4.2090,
		 -7.4181 0.0000 4.0335,
		 -1.9749 0.0000 4.2090,
		 -1.8397 0.0000 4.0335,
		 -7.5400 0.0000 3.7398,
		 -1.8397 0.0000 4.0335,
		 -1.6135 0.0000 3.7398,
		 -7.7541 0.0000 3.2243,
		 -5.9609 0.0000 3.2243,
		 -8.1338 0.0000 2.3098,
		 -6.1464 0.0000 2.3098,
		 -8.3336 0.0000 1.8285,
		 -5.8274 0.0000 1.8285,
		 -0.5454 0.0000 1.7202,
		 -0.6997 0.0000 1.6895,
		 -4.1990 0.0000 1.6895,
		 -4.1527 0.0000 1.7202,
		 -0.4833 0.0000 1.7326,
		 -0.7272 0.0000 1.7202,
		 -4.1527 0.0000 1.7202,
		 -3.9907 0.0000 1.8276,
		 -0.9630 0.0000 1.8276,
		 -3.9907 0.0000 1.8276,
		 -3.9893 0.0000 1.8285,
		 -0.9651 0.0000 1.8285,
		 -0.9630 0.0000 1.8276,
		 -8.3640 0.0000 1.6895,
		 -8.3336 0.0000 1.8285,
		 -5.8274 0.0000 1.8285,
		 -5.7353 0.0000 1.6895,
		 -0.6996 0.0000 1.6894,
		 -4.1992 0.0000 1.6894,
		 -4.1990 0.0000 1.6895,
		 -8.3640 0.0000 1.6894,
		 -8.3640 0.0000 1.6895,
		 -5.7353 0.0000 1.6895,
		 -5.7352 0.0000 1.6894,
		 -1.2131 0.0000 1.3465,
		 -1.2930 0.0000 1.2931,
		 -4.7714 0.0000 1.2931,
		 -4.9635 0.0000 1.3465,
		 -8.3648 0.0000 1.2931,
		 -8.3647 0.0000 1.3465,
		 -6.0822 0.0000 1.3465,
		 -6.2121 0.0000 1.2931,
		 -0.6999 0.0000 1.6894,
		 -4.7165 0.0000 1.3465,
		 -4.1992 0.0000 1.6894,
		 -8.3643 0.0000 1.5320,
		 -8.3640 0.0000 1.6894,
		 -5.7352 0.0000 1.6894,
		 -5.6309 0.0000 1.5320,
		 -4.7165 0.0000 1.3465,
		 -4.9635 0.0000 1.3465,
		 -8.3647 0.0000 1.3465,
		 -5.6309 0.0000 1.5320,
		 -6.0822 0.0000 1.3465,
		 -1.2930 0.0000 1.2931,
		 -1.2929 0.0000 1.2931,
		 -4.7712 0.0000 1.2931,
		 -4.7714 0.0000 1.2931,
		 -8.3648 0.0000 1.2931,
		 -6.2121 0.0000 1.2931,
		 -6.2122 0.0000 1.2931,
		 -1.3058 0.0000 1.2740,
		 -1.6894 0.0000 0.6999,
		 -4.3780 0.0000 0.6999,
		 -4.7023 0.0000 1.2740,
		 -1.2930 0.0000 1.2931,
		 -4.7712 0.0000 1.2931,
		 -8.3652 0.0000 1.1142,
		 -6.2122 0.0000 1.2931,
		 -6.6474 0.0000 1.1142,
		 -8.3661 0.0000 0.6999,
		 -6.5666 0.0000 0.6999,
		 -1.6893 0.0000 0.6999,
		 -1.6894 0.0000 0.6999,
		 -1.8103 0.0000 0.0925,
		 -1.8287 0.0000 0.0002,
		 -5.6042 0.0000 0.0002,
		 -5.1307 0.0000 0.0925,
		 -1.6933 0.0000 0.6806,
		 -4.3671 0.0000 0.6806,
		 -4.3780 0.0000 0.6999,
		 -8.3661 0.0000 0.6999,
		 -6.5666 0.0000 0.6999,
		 -8.3661 0.0000 0.6912,
		 -6.5649 0.0000 0.6912,
		 -8.3676 0.0000 0.0002,
		 -6.0328 0.0000 0.0002,
		 -1.8286 0.0000 0.0002,
		 -1.8287 0.0000 0.0001,
		 -5.6046 0.0000 0.0001,
		 -5.6042 0.0000 0.0002,
		 -8.3676 0.0000 0.0001,
		 -8.3676 0.0000 0.0002,
		 -6.0328 0.0000 0.0002,
		 -6.0328 0.0000 0.0001,
		 -1.8142 0.0000 -0.0725,
		 -1.6895 0.0000 -0.6995,
		 -8.3691 0.0000 -0.6995,
		 -8.3677 0.0000 -0.0725,
		 -5.9769 0.0000 -0.0725,
		 -5.6046 0.0000 0.0001,
		 -8.3677 0.0000 -0.0725,
		 -8.3676 0.0000 0.0001,
		 -6.0328 0.0000 0.0001,
		 -8.3691 0.0000 -0.6997,
		 -1.6895 0.0000 -0.6995,
		 -1.6895 0.0000 -0.6997,
		 -8.3703 0.0000 -1.2928,
		 -1.2933 0.0000 -1.2928,
		 -8.3703 0.0000 -1.2930,
		 -1.2932 0.0000 -1.2928,
		 -1.2931 0.0000 -1.2930,
		 -8.2785 0.0000 -1.6892,
		 -0.7002 0.0000 -1.6892,
		 -8.2785 0.0000 -1.6894,
		 -0.7000 0.0000 -1.6892,
		 -0.6999 0.0000 -1.6894,
		 -8.2214 0.0000 -1.8285,
		 -0.0010 0.0000 -1.8285,
		 0.7092 0.0000 1.6709,
		 0.0334 0.0000 1.7587,
		 -0.6367 0.0000 2.9451,
		 0.7092 0.0000 1.6709,
		 0.0334 0.0000 1.7587,
		 -0.6367 0.0000 2.9451,
		 -0.6367 0.0000 2.9451,
		 -1.9267 0.0000 -7.9616,
		 1.3066 0.0000 -7.9616,
		 1.4935 0.0000 -7.8844,
		 2.7170 0.0000 -7.3788,
		 3.7408 0.0000 -6.9558,
		 4.3822 0.0000 -6.6152,
		 4.6405 0.0000 -6.3571,
		 4.6405 0.0000 -6.3571,
		 5.2342 0.0000 -5.7638,
		 5.2342 0.0000 -5.7638,
		 5.2910 0.0000 -5.7070,
		 -5.8944 0.0000 -5.7070,
		 -5.8381 0.0000 -5.7638,
		 -5.7562 0.0000 -5.8463,
		 -1.3427 0.0000 -6.3571,
		 -5.2494 0.0000 -6.3571,
		 -1.3427 0.0000 -6.3571,
		 -5.1728 0.0000 -6.4343,
		 -1.4087 0.0000 -6.6099,
		 -4.9986 0.0000 -6.6099,
		 -1.3102 0.0000 -7.1155,
		 -1.4087 0.0000 -6.6099,
		 -3.9500 0.0000 -7.1155,
		 -3.3456 0.0000 -7.3683,
		 -1.9267 0.0000 -7.9616,
		 -0.3826 0.0000 -7.3683,
		 -0.4319 0.0000 -7.1155,
		 -1.3102 0.0000 -7.1155,
		 -3.5555 0.0000 -7.2805,
		 -3.3456 0.0000 -7.3683,
		 5.8068 0.0000 -5.1915,
		 6.6080 0.0000 -4.2771,
		 6.9310 0.0000 -3.4993,
		 7.0080 0.0000 -3.3138,
		 -3.7865 0.0000 -3.3138,
		 7.0080 0.0000 -3.3138,
		 7.2612 0.0000 -2.7039,
		 7.5783 0.0000 -1.9403,
		 7.5783 0.0000 -1.9403,
		 7.6246 0.0000 -1.8287,
		 -8.2213 0.0000 -1.8287,
		 -8.1755 0.0000 -1.9403,
		 -8.0740 0.0000 -2.1878,
		 -7.7629 0.0000 -2.9462,
		 -5.9242 0.0000 -3.3138,
		 -7.6121 0.0000 -3.3138,
		 -3.9580 0.0000 -3.8293,
		 1.7819 0.0000 -3.8293,
		 2.4601 0.0000 -3.3798,
		 -3.7865 0.0000 -3.3138,
		 -5.7124 0.0000 -3.8293,
		 -5.9242 0.0000 -3.3138,
		 -7.4006 0.0000 -3.8293,
		 -7.1187 0.0000 -4.4731,
		 -6.8501 0.0000 -4.7438,
		 1.6513 0.0000 -4.4731,
		 1.6899 0.0000 -4.2831,
		 -3.9580 0.0000 -3.8293,
		 -5.7124 0.0000 -3.8293,
		 -7.3459 0.0000 -3.9626,
		 -7.1187 0.0000 -4.4731,
		 -6.0784 0.0000 -5.5215,
		 -5.8944 0.0000 -5.7070,
		 -0.0001 0.0000 -1.8287,
		 7.6824 0.0000 -1.6895,
		 7.7620 0.0000 -1.2931,
		 7.7632 0.0000 -0.6999,
		 7.7647 0.0000 -0.0001,
		 7.7662 0.0000 0.6997,
		 1.5421 0.0000 0.9203,
		 7.7667 0.0000 0.9203,
		 2.7701 0.0000 1.2930,
		 7.7675 0.0000 1.2930,
		 1.3911 0.0000 1.1464,
		 1.5421 0.0000 0.9203,
		 2.7701 0.0000 1.2930,
		 7.7681 0.0000 1.5723,
		 3.5605 0.0000 1.6894,
		 7.7683 0.0000 1.6894,
		 3.5333 0.0000 1.8287,
		 3.5605 0.0000 1.6894,
		 7.7683 0.0000 1.6894,
		 7.7244 0.0000 1.8287,
		 3.5268 0.0000 1.8620,
		 3.5333 0.0000 1.8287,
		 7.7244 0.0000 1.8287,
		 7.7107 0.0000 1.8620,
		 -0.9654 0.0000 1.8287,
		 -1.0387 0.0000 1.8620,
		 -3.9890 0.0000 1.8287,
		 3.3486 0.0000 2.7765,
		 3.5268 0.0000 1.8620,
		 7.7107 0.0000 1.8620,
		 7.3355 0.0000 2.7765,
		 -1.7017 0.0000 2.7765,
		 -3.8895 0.0000 2.1042,
		 -1.0387 0.0000 1.8620,
		 3.3486 0.0000 2.7765,
		 7.3355 0.0000 2.7765,
		 7.3089 0.0000 2.8415,
		 2.2778 0.0000 3.5543,
		 7.0164 0.0000 3.5543,
		 -1.4707 0.0000 3.5543,
		 -4.2034 0.0000 3.4560,
		 -3.8684 0.0000 2.9504,
		 -1.7345 0.0000 2.9451,
		 -3.8649 0.0000 2.9451,
		 -1.7017 0.0000 2.7765,
		 -1.7345 0.0000 2.9451,
		 2.0024 0.0000 3.7398,
		 2.2778 0.0000 3.5543,
		 7.0164 0.0000 3.5543,
		 6.9404 0.0000 3.7398,
		 -1.4707 0.0000 3.5543,
		 -1.6135 0.0000 3.7398,
		 2.0024 0.0000 3.7398,
		 6.9404 0.0000 3.7398,
		 6.8199 0.0000 4.0335,
		 0.0965 0.0000 4.0335,
		 6.8199 0.0000 4.0335,
		 6.8199 0.0000 4.0335,
		 6.7478 0.0000 4.2090,
		 6.7478 0.0000 4.2090,
		 6.6081 0.0000 4.5496,
		 6.5721 0.0000 4.6374,
		 6.5721 0.0000 4.6374,
		 -7.1673 0.0000 4.6374,
		 -7.3408 0.0000 4.2196,
		 -1.9749 0.0000 4.2090,
		 -7.3452 0.0000 4.2090,
		 -1.8397 0.0000 4.0335,
		 -1.9749 0.0000 4.2090,
		 -7.4181 0.0000 4.0335,
		 -1.6135 0.0000 3.7398,
		 -1.8397 0.0000 4.0335,
		 -7.5400 0.0000 3.7398,
		 -7.7541 0.0000 3.2243,
		 -8.1338 0.0000 2.3098,
		 -5.8275 0.0000 1.8287,
		 -8.3336 0.0000 1.8287,
		 -4.1527 0.0000 1.7202,
		 -4.1990 0.0000 1.6895,
		 -0.5454 0.0000 1.7202,
		 -0.4833 0.0000 1.7326,
		 -0.9630 0.0000 1.8276,
		 -3.9907 0.0000 1.8276,
		 -4.1527 0.0000 1.7202,
		 -0.9630 0.0000 1.8276,
		 -0.9654 0.0000 1.8287,
		 -3.9890 0.0000 1.8287,
		 -3.9907 0.0000 1.8276,
		 -5.7353 0.0000 1.6895,
		 -5.8275 0.0000 1.8287,
		 -8.3336 0.0000 1.8287,
		 -8.3640 0.0000 1.6895,
		 -4.9635 0.0000 1.3465,
		 -4.7714 0.0000 1.2931,
		 -1.2930 0.0000 1.2931,
		 -1.2131 0.0000 1.3465,
		 -6.2121 0.0000 1.2931,
		 -6.0822 0.0000 1.3465,
		 -8.3647 0.0000 1.3465,
		 -8.3648 0.0000 1.2931,
		 -4.1990 0.0000 1.6895,
		 -5.7353 0.0000 1.6895,
		 -8.3640 0.0000 1.6895,
		 -8.3643 0.0000 1.5320,
		 -4.9635 0.0000 1.3465,
		 -4.7165 0.0000 1.3465,
		 -6.0822 0.0000 1.3465,
		 -8.3647 0.0000 1.3465,
		 -4.3780 0.0000 0.6999,
		 -1.3058 0.0000 1.2740,
		 -4.7714 0.0000 1.2931,
		 -6.2121 0.0000 1.2931,
		 -8.3652 0.0000 1.1142,
		 -6.5666 0.0000 0.6999,
		 -8.3661 0.0000 0.6999,
		 -5.6046 0.0000 0.0001,
		 -1.8103 0.0000 0.0925,
		 -1.6933 0.0000 0.6806,
		 -4.3780 0.0000 0.6999,
		 -6.5666 0.0000 0.6999,
		 -8.3661 0.0000 0.6999,
		 -8.3661 0.0000 0.6912,
		 -6.0328 0.0000 0.0001,
		 -8.3676 0.0000 0.0001,
		 -8.3677 0.0000 -0.0725,
		 -8.3691 0.0000 -0.6997,
		 -1.8142 0.0000 -0.0725,
		 -5.6046 0.0000 0.0001,
		 -6.0328 0.0000 0.0001,
		 -8.3676 0.0000 0.0001,
		 -8.3677 0.0000 -0.0725,
		 -8.3703 0.0000 -1.2930,
		 -8.2785 0.0000 -1.6894,
		 -8.2213 0.0000 -1.8287
		]
	} #Coordinate3
	Material {
		ambientColor      0.2500 0.2500 0.2500  #ambientColor
		diffuseColor      1.0000 1.0000 1.0000  #diffuseColor
		transparency      0.0000                #transparency
	} #Material

	IndexedFaceSet {
		coordIndex [ 
		 32, 8, 9, 33,-1,
		 34, 35, 33, 10, 36,-1,
		 37, 34, 36, 11, 38,-1,
		 39, 37, 38, 12,-1,
		 40, 41, 5, 42,-1,
		 43, 40, 42, 6, 44,-1,
		 45, 43, 44, 7, 46,-1,
		 35, 45, 46, 47,-1,
		 48, 9, 8, 49,-1,
		 50, 10, 48, 35, 34,-1,
		 51, 11, 50, 34, 37,-1,
		 12, 51, 37, 52,-1,
		 53, 5, 54, 40,-1,
		 55, 6, 53, 40, 43,-1,
		 56, 7, 55, 43, 45,-1,
		 57, 56, 45, 35,-1,
		 0, 15, 31, 16,-1,
		 16, 31, 15, 0,-1,
		 1, 0, 16, 17,-1,
		 17, 16, 0, 1,-1,
		 2, 1, 17, 18,-1,
		 18, 17, 1, 2,-1,
		 3, 2, 18, 19,-1,
		 19, 18, 2, 3,-1,
		 4, 3, 19, 20,-1,
		 20, 19, 3, 4,-1,
		 5, 4, 20, 21,-1,
		 21, 20, 4, 5,-1,
		 6, 5, 21, 22,-1,
		 22, 21, 5, 6,-1,
		 7, 6, 22, 23,-1,
		 23, 22, 6, 7,-1,
		 8, 7, 23, 24,-1,
		 24, 23, 7, 8,-1,
		 9, 8, 24, 25,-1,
		 25, 24, 8, 9,-1,
		 10, 9, 25, 26,-1,
		 26, 25, 9, 10,-1,
		 11, 10, 26, 27,-1,
		 27, 26, 10, 11,-1,
		 12, 11, 27, 28,-1,
		 28, 27, 11, 12,-1,
		 12, 28, 58, 59,-1,
		 59, 58, 28, 12,-1,
		 14, 13, 29, 30,-1,
		 30, 29, 13, 14,-1,
		 15, 14, 30, 31,-1,
		 31, 30, 14, 15,-1,
		 60, 17, 16, 61,-1,
		 62, 60, 63, 64,-1,
		 65, 62, 64, 66,-1,
		 67, 65, 66, 68,-1,
		 69, 18, 67, 68, 70,-1,
		 71, 69, 70, 72,-1,
		 73, 74, 75, 76,-1,
		 77, 78, 79, 80,-1,
		 81, 77, 76, 82,-1,
		 83, 81, 82, 84,-1,
		 85, 83, 86, 87,-1,
		 88, 85, 87, 89,-1,
		 90, 31, 88, 91, 92,-1,
		 93, 63, 94, 95,-1,
		 96, 93, 97, 98,-1,
		 99, 90, 100, 101,-1,
		 102, 99, 101, 97,-1,
		 103, 79, 104, 105,-1,
		 106, 19, 103, 105, 107,-1,
		 108, 106, 107, 109,-1,
		 110, 108, 109, 111,-1,
		 112, 113, 114, 115,-1,
		 116, 112, 115, 117,-1,
		 118, 119, 120, 121,-1,
		 122, 118, 117, 123,-1,
		 124, 122, 123, 125,-1,
		 126, 124, 125, 127,-1,
		 128, 129, 130, 131,-1,
		 111, 128, 131, 132,-1,
		 133, 126, 134, 135,-1,
		 136, 137, 138, 139,-1,
		 140, 136, 141, 142,-1,
		 143, 140, 142, 144,-1,
		 145, 133, 146, 147,-1,
		 148, 30, 145, 147, 141,-1,
		 149, 138, 137, 150,-1,
		 151, 149, 150, 104,-1,
		 152, 120, 153, 154,-1,
		 155, 152, 154, 156,-1,
		 157, 20, 155, 158, 159,-1,
		 160, 157, 159, 161,-1,
		 162, 160, 163, 164,-1,
		 165, 162, 166, 167,-1,
		 162, 168, 166,-1,
		 169, 165, 170, 171,-1,
		 172, 169, 171, 173,-1,
		 174, 172, 175, 176,-1,
		 177, 174, 176, 178,-1,
		 179, 177, 180, 181,-1,
		 182, 183, 180,-1,
		 184, 179, 185, 186,-1,
		 187, 184, 188, 189,-1,
		 190, 187, 189, 191,-1,
		 192, 193, 194, 195,-1,
		 196, 21, 197, 198, 199,-1,
		 200, 201, 202, 203,-1,
		 204, 205, 206, 207,-1,
		 208, 209, 210, 211,-1,
		 212, 213, 214, 215,-1,
		 205, 212, 215, 216,-1,
		 217, 218, 219, 220,-1,
		 221, 217, 220, 222,-1,
		 223, 224, 225, 226,-1,
		 227, 223, 228, 229,-1,
		 230, 227, 229, 231,-1,
		 213, 230, 232, 233,-1,
		 234, 235, 236, 237,-1,
		 224, 238, 239, 240,-1,
		 241, 242, 243, 244,-1,
		 245, 246, 247, 248,-1,
		 249, 245, 248, 250,-1,
		 251, 252, 253, 254,-1,
		 255, 251, 254, 256,-1,
		 257, 27, 26, 25, 24, 23, 22, 258,-1,
		 259, 257, 256, 260,-1,
		 261, 259, 260, 262,-1,
		 263, 261, 264, 265,-1,
		 266, 263, 267, 268,-1,
		 269, 266, 238, 270,-1,
		 271, 269, 270, 272,-1,
		 273, 271, 272, 274,-1,
		 275, 276, 277, 278,-1,
		 279, 275, 280,-1,
		 281, 282, 283, 280,-1,
		 284, 285, 286, 287,-1,
		 288, 28, 289, 290, 291,-1,
		 276, 292, 293, 294,-1,
		 295, 296, 297, 298,-1,
		 299, 300, 301, 302,-1,
		 303, 304, 305, 306,-1,
		 307, 299, 308, 309,-1,
		 310, 311, 312, 313,-1,
		 313, 314, 315,-1,
		 316, 310, 317, 318,-1,
		 319, 320, 321, 322,-1,
		 323, 303, 324, 325,-1,
		 326, 327, 328, 329,-1,
		 330, 326, 329, 331,-1,
		 332, 323, 333, 334,-1,
		 335, 332, 334, 336,-1,
		 335, 337, 338,-1,
		 339, 340, 341, 342,-1,
		 343, 339, 342, 344,-1,
		 338, 343, 344, 345,-1,
		 346, 335, 347,-1,
		 348, 346, 347, 349,-1,
		 350, 348, 349, 351,-1,
		 352, 353, 354, 355,-1,
		 356, 357, 358, 359,-1,
		 360, 361, 362, 363,-1,
		 353, 360, 364, 365,-1,
		 366, 367, 368, 364,-1,
		 369, 362, 370, 371,-1,
		 372, 369, 371, 373,-1,
		 374, 372, 375, 376,-1,
		 377, 29, 374, 376, 378,-1,
		 379, 377, 380, 381,-1,
		 382, 379, 381, 383,-1,
		]
	} #IndexedFaceSet
	Material {
		ambientColor      0.0000 0.0000 0.2500  #ambientColor
		diffuseColor      0.0000 0.0000 1.0000  #diffuseColor
		transparency      0.0000                #transparency
	} #Material

	IndexedFaceSet {
		coordIndex [ 
		 137, 143, 111, 109, 107, 105, 104, 150,-1,
		 63, 96, 72, 70, 68, 66, 64,-1,
		 97, 101, 87, 82, 76, 75,-1,
		 142, 141, 147, 125, 123, 117, 115, 131,-1,
		 272, 270, 238, 224, 213, 205, 308, 313,-1,
		 329, 344, 342, 364, 349, 334, 317,-1,
		 384, 244, 220, 189, 180,-1,
		 385, 386, 250, 248, 387,-1,
		 388, 280, 215, 229, 228, 389,-1,
		 226, 260, 256, 254, 253, 390,-1,
		]
	} #IndexedFaceSet
	Material {
		ambientColor      0.2500 0.2500 0.2500  #ambientColor
		diffuseColor      1.0000 1.0000 1.0000  #diffuseColor
		transparency      0.0000                #transparency
	} #Material

	IndexedFaceSet {
		coordIndex [ 
		 391, 16, 17, 392,-1,
		 64, 63, 392, 393,-1,
		 66, 64, 393, 394,-1,
		 68, 66, 394, 395,-1,
		 70, 68, 395, 18, 396,-1,
		 72, 70, 396, 397,-1,
		 76, 75, 398, 399,-1,
		 400, 401, 402, 403,-1,
		 82, 76, 403, 404,-1,
		 405, 82, 404, 406,-1,
		 87, 407, 406, 408,-1,
		 409, 87, 408, 410,-1,
		 411, 412, 410, 31, 413,-1,
		 414, 415, 63, 416,-1,
		 417, 97, 416, 96,-1,
		 101, 418, 413, 419,-1,
		 97, 101, 419, 420,-1,
		 105, 104, 401, 421,-1,
		 107, 105, 421, 19, 422,-1,
		 109, 107, 422, 423,-1,
		 111, 109, 423, 424,-1,
		 115, 425, 426, 427,-1,
		 117, 115, 427, 428,-1,
		 429, 430, 431, 432,-1,
		 123, 117, 432, 433,-1,
		 125, 123, 433, 434,-1,
		 435, 125, 434, 436,-1,
		 131, 437, 438, 439,-1,
		 440, 131, 439, 111,-1,
		 441, 442, 436, 443,-1,
		 444, 445, 137, 446,-1,
		 142, 141, 446, 447,-1,
		 448, 142, 447, 143,-1,
		 147, 449, 443, 450,-1,
		 141, 147, 450, 30, 451,-1,
		 150, 137, 445, 452,-1,
		 104, 150, 452, 453,-1,
		 154, 454, 430, 455,-1,
		 159, 154, 455, 20, 456,-1,
		 166, 159, 456, 457,-1,
		 171, 166, 457, 458,-1,
		 176, 171, 458, 459,-1,
		 460, 176, 459, 461,-1,
		 462, 180, 461, 463,-1,
		 180, 464, 465,-1,
		 189, 466, 463, 467,-1,
		 468, 189, 467, 469,-1,
		 470, 471, 472, 21, 473,-1,
		 474, 475, 476, 477,-1,
		 478, 479, 205, 480,-1,
		 481, 482, 483, 484,-1,
		 215, 485, 213, 486,-1,
		 487, 215, 486, 205,-1,
		 220, 488, 489, 490,-1,
		 491, 220, 490, 492,-1,
		 226, 493, 224, 494,-1,
		 229, 228, 494, 495,-1,
		 496, 229, 495, 497,-1,
		 498, 499, 497, 213,-1,
		 500, 501, 502, 503,-1,
		 504, 505, 238, 224,-1,
		 244, 506, 507, 508,-1,
		 248, 509, 510, 511,-1,
		 250, 248, 511, 512,-1,
		 254, 253, 513, 514,-1,
		 256, 254, 514, 515,-1,
		 516, 22, 23, 24, 25, 26, 27, 517,-1,
		 260, 256, 517, 518,-1,
		 519, 260, 518, 520,-1,
		 521, 522, 520, 523,-1,
		 524, 525, 523, 526,-1,
		 270, 238, 526, 527,-1,
		 272, 270, 527, 528,-1,
		 529, 272, 528, 530,-1,
		 531, 532, 276, 533,-1,
		 280, 533, 534,-1,
		 280, 535, 536, 537,-1,
		 538, 539, 540, 541,-1,
		 542, 543, 544, 28, 545,-1,
		 546, 547, 548, 549,-1,
		 550, 551, 552, 553,-1,
		 554, 308, 549, 276,-1,
		 313, 555, 556, 557,-1,
		 558, 559, 313,-1,
		 560, 317, 557, 561,-1,
		 329, 562, 338, 563,-1,
		 564, 329, 563, 319,-1,
		 334, 565, 553, 566,-1,
		 567, 334, 566, 568,-1,
		 342, 569, 353, 570,-1,
		 344, 342, 570, 571,-1,
		 572, 344, 571, 338,-1,
		 349, 573, 574, 575,-1,
		 576, 349, 575, 577,-1,
		 578, 579, 371, 580,-1,
		 581, 364, 580, 353,-1,
		 364, 582, 583, 584,-1,
		 376, 371, 579, 585,-1,
		 381, 376, 585, 29, 586,-1,
		 454, 381, 586, 587,-1,
		]
	} #IndexedFaceSet
	Material {
		ambientColor      0.0000 0.0000 0.2500  #ambientColor
		diffuseColor      0.0000 0.0000 1.0000  #diffuseColor
		transparency      0.0000                #transparency
	} #Material

	IndexedFaceSet {
		coordIndex [ 
		 150, 104, 105, 107, 109, 111, 143, 137,-1,
		 64, 66, 68, 70, 72, 96, 63,-1,
		 75, 76, 82, 87, 101, 97,-1,
		 131, 115, 117, 123, 125, 147, 141, 142,-1,
		 313, 308, 205, 213, 224, 238, 270, 272,-1,
		 317, 334, 349, 364, 342, 344, 329,-1,
		 180, 189, 220, 244, 384,-1,
		 387, 248, 250, 386, 385,-1,
		 389, 228, 229, 215, 280, 388,-1,
		 390, 253, 254, 256, 260, 226,-1,
		]
	} #IndexedFaceSet
} #Polyhedron
Separator { #Polyhedron
	DEF COORD4 Coordinate3 {
		point [
		 0.6997 1.2192 -1.6895,
		 1.2930 1.2192 -1.2931,
		 1.6894 1.2192 -0.6999,
		 1.8287 1.2192 -0.0001,
		 1.6895 1.2192 0.6997,
		 1.2931 1.2192 1.2930,
		 0.6999 1.2192 1.6894,
		 0.0001 1.2192 1.8287,
		 -0.6997 1.2192 1.6895,
		 -1.2930 1.2192 1.2931,
		 -1.6894 1.2192 0.6999,
		 -1.8287 1.2192 0.0001,
		 -1.6895 1.2192 -0.6997,
		 -1.2931 1.2192 -1.2930,
		 -0.6999 1.2192 -1.6894,
		 -0.0001 1.2192 -1.8287,
		 0.6997 0.0000 -1.6895,
		 1.2930 0.0000 -1.2931,
		 1.6894 0.0000 -0.6999,
		 1.8287 0.0000 -0.0001,
		 1.6895 0.0000 0.6997,
		 1.2931 0.0000 1.2930,
		 0.6999 0.0000 1.6894,
		 0.0001 0.0000 1.8287,
		 -0.6997 0.0000 1.6895,
		 -1.2930 0.0000 1.2931,
		 -1.6894 0.0000 0.6999,
		 -1.8287 0.0000 0.0001,
		 -1.6895 0.0000 -0.6997,
		 -1.2931 0.0000 -1.2930,
		 -0.6999 0.0000 -1.6894,
		 -0.0001 0.0000 -1.8287,
		 1.1757 1.2192 1.3715,
		 -1.1758 1.2192 1.3715,
		 -0.3839 1.2192 1.3254,
		 0.1526 1.2192 1.3715,
		 -1.2447 1.2192 1.3254,
		 -0.8620 1.2192 1.0776,
		 -1.4371 1.2192 1.0776,
		 -1.2087 1.2192 0.6656,
		 -1.6963 1.2192 0.6656,
		 -1.3715 1.2192 0.1524,
		 -1.7984 1.2192 0.1524,
		 -1.3255 1.2192 -0.3841,
		 -1.7523 1.2192 -0.3841,
		 -1.0776 1.2192 -0.8621,
		 -1.5810 1.2192 -0.8621,
		 -0.6657 1.2192 -1.2089,
		 -1.3493 1.2192 -1.2089,
		 -0.1524 1.2192 -1.3717,
		 -1.1754 1.2192 -1.3717,
		 -1.1754 1.2192 -1.3717,
		 1.1754 1.2192 -1.3717,
		 0.3841 1.2192 -1.3256,
		 1.2444 1.2192 -1.3256,
		 0.8621 1.2192 -1.0778,
		 1.4369 1.2192 -1.0778,
		 1.2089 1.2192 -0.6659,
		 1.6962 1.2192 -0.6659,
		 1.3716 1.2192 -0.1526,
		 1.7983 1.2192 -0.1526,
		 1.3256 1.2192 0.3839,
		 1.7523 1.2192 0.3839,
		 1.0777 1.2192 0.8619,
		 1.5811 1.2192 0.8619,
		 0.6658 1.2192 1.2087,
		 1.3494 1.2192 1.2087,
		 1.1757 1.2192 1.3715,
		 -1.1758 1.2192 1.3715,
		 1.1757 1.2192 1.3715,
		 -1.2447 1.2192 1.3254,
		 -1.4371 1.2192 1.0776,
		 -1.6963 1.2192 0.6656,
		 -1.7984 1.2192 0.1524,
		 -1.7523 1.2192 -0.3841,
		 -1.5810 1.2192 -0.8621,
		 -1.3493 1.2192 -1.2089,
		 -1.1754 1.2192 -1.3717,
		 1.1754 1.2192 -1.3717,
		 -1.1754 1.2192 -1.3717,
		 1.2444 1.2192 -1.3256,
		 1.4369 1.2192 -1.0778,
		 1.6962 1.2192 -0.6659,
		 1.7983 1.2192 -0.1526,
		 1.7523 1.2192 0.3839,
		 1.5811 1.2192 0.8619,
		 1.3494 1.2192 1.2087,
		 1.1757 1.2192 1.3715
		]
	} #Coordinate3
	Material {
		ambientColor      0.1392 0.1392 0.1392  #ambientColor
		diffuseColor      0.5569 0.5569 0.5569  #diffuseColor
		transparency      0.0000                #transparency
	} #Material

	Texture2 {
		filename ""  #filename
		wrapS REPEAT 
		wrapT REPEAT 
	} #Texture2

	IndexedFaceSet {
		coordIndex [ 
		 32, 6, 7, 8, 33,-1,
		 34, 35, 33, 36,-1,
		 37, 34, 36, 9, 38,-1,
		 39, 37, 38, 10, 40,-1,
		 41, 39, 40, 42,-1,
		 43, 41, 42, 11, 44,-1,
		 45, 43, 44, 12, 46,-1,
		 47, 45, 46, 48,-1,
		 49, 47, 48, 13, 50,-1,
		 51, 14, 15, 0, 52,-1,
		 53, 49, 52, 54,-1,
		 55, 53, 54, 1, 56,-1,
		 57, 55, 56, 2, 58,-1,
		 59, 57, 58, 60,-1,
		 61, 59, 60, 3, 62,-1,
		 63, 61, 62, 4, 64,-1,
		 65, 63, 64, 66,-1,
		 35, 65, 66, 5, 67,-1,
		 68, 8, 7, 6, 69,-1,
		 70, 68, 35, 34,-1,
		 71, 9, 70, 34, 37,-1,
		 72, 10, 71, 37, 39,-1,
		 73, 72, 39, 41,-1,
		 74, 11, 73, 41, 43,-1,
		 75, 12, 74, 43, 45,-1,
		 76, 75, 45, 47,-1,
		 77, 13, 76, 47, 49,-1,
		 78, 0, 15, 14, 79,-1,
		 80, 78, 49, 53,-1,
		 81, 1, 80, 53, 55,-1,
		 82, 2, 81, 55, 57,-1,
		 83, 82, 57, 59,-1,
		 84, 3, 83, 59, 61,-1,
		 85, 4, 84, 61, 63,-1,
		 86, 85, 63, 65,-1,
		 87, 5, 86, 65, 35,-1,
		 0, 15, 31, 16,-1,
		 16, 31, 15, 0,-1,
		 1, 0, 16, 17,-1,
		 17, 16, 0, 1,-1,
		 2, 1, 17, 18,-1,
		 18, 17, 1, 2,-1,
		 3, 2, 18, 19,-1,
		 19, 18, 2, 3,-1,
		 4, 3, 19, 20,-1,
		 20, 19, 3, 4,-1,
		 5, 4, 20, 21,-1,
		 21, 20, 4, 5,-1,
		 6, 5, 21, 22,-1,
		 22, 21, 5, 6,-1,
		 7, 6, 22, 23,-1,
		 23, 22, 6, 7,-1,
		 8, 7, 23, 24,-1,
		 24, 23, 7, 8,-1,
		 9, 8, 24, 25,-1,
		 25, 24, 8, 9,-1,
		 10, 9, 25, 26,-1,
		 26, 25, 9, 10,-1,
		 11, 10, 26, 27,-1,
		 27, 26, 10, 11,-1,
		 12, 11, 27, 28,-1,
		 28, 27, 11, 12,-1,
		 13, 12, 28, 29,-1,
		 29, 28, 12, 13,-1,
		 14, 13, 29, 30,-1,
		 30, 29, 13, 14,-1,
		 15, 14, 30, 31,-1,
		 31, 30, 14, 15,-1,
		]
	} #IndexedFaceSet
	Material {
		ambientColor      0.1392 0.1392 0.1392  #ambientColor
		diffuseColor      0.5569 0.5569 0.5569  #diffuseColor
		transparency      1.0000                #transparency
	} #Material

	IndexedFaceSet {
		coordIndex [ 
		 16, 17, 18, 19, 20, 21, 22, 23, 24, 25, 26, 27, 28, 29, 30, 31,-1,
		]
	} #IndexedFaceSet
} #Polyhedron
Separator { #Polyhedron
	DEF COORD5 Coordinate3 {
		point [
		 -1.2638 3.0480 -1.4793,
		 -1.2192 3.0480 -1.3716,
		 -1.2638 3.0480 -1.2638,
		 -1.3716 3.0480 -1.2192,
		 -1.4793 3.0480 -1.2638,
		 -1.5239 3.0480 -1.3715,
		 -1.4793 3.0480 -1.4793,
		 -1.3716 3.0480 -1.5239,
		 -1.2638 0.0000 -1.4793,
		 -1.2192 0.0000 -1.3716,
		 -1.2638 0.0000 -1.2638,
		 -1.3716 0.0000 -1.2192,
		 -1.4793 0.0000 -1.2638,
		 -1.5239 0.0000 -1.3715,
		 -1.4793 0.0000 -1.4793,
		 -1.3716 0.0000 -1.5239
		]
	} #Coordinate3
	Material {
		ambientColor      0.1735 0.1735 0.1735  #ambientColor
		diffuseColor      0.6941 0.6941 0.6941  #diffuseColor
		transparency      0.0000                #transparency
	} #Material

	IndexedFaceSet {
		coordIndex [ 
		 0, 1, 2, 3, 4, 5, 6, 7,-1,
		 7, 6, 5, 4, 3, 2, 1, 0,-1,
		 0, 7, 15, 8,-1,
		 8, 15, 7, 0,-1,
		 1, 0, 8, 9,-1,
		 9, 8, 0, 1,-1,
		 2, 1, 9, 10,-1,
		 10, 9, 1, 2,-1,
		 3, 2, 10, 11,-1,
		 11, 10, 2, 3,-1,
		 4, 3, 11, 12,-1,
		 12, 11, 3, 4,-1,
		 5, 4, 12, 13,-1,
		 13, 12, 4, 5,-1,
		 6, 5, 13, 14,-1,
		 14, 13, 5, 6,-1,
		 7, 6, 14, 15,-1,
		 15, 14, 6, 7,-1,
		 15, 14, 13, 12, 11, 10, 9, 8,-1,
		 8, 9, 10, 11, 12, 13, 14, 15,-1,
		]
	} #IndexedFaceSet
} #Polyhedron
Separator { #Polyhedron
	DEF COORD6 Coordinate3 {
		point [
		 1.4869 3.0480 -1.2561,
		 1.3716 3.0480 -1.2083,
		 1.2562 3.0480 -1.2561,
		 1.2084 3.0480 -1.3715,
		 1.2562 3.0480 -1.4868,
		 1.3716 3.0480 -1.5346,
		 1.4869 3.0480 -1.4868,
		 1.5347 3.0480 -1.3715,
		 1.4869 0.0000 -1.2561,
		 1.3716 0.0000 -1.2083,
		 1.2562 0.0000 -1.2561,
		 1.2084 0.0000 -1.3715,
		 1.2562 0.0000 -1.4868,
		 1.3716 0.0000 -1.5346,
		 1.4869 0.0000 -1.4868,
		 1.5347 0.0000 -1.3715
		]
	} #Coordinate3
	Material {
		ambientColor      0.1735 0.1735 0.1735  #ambientColor
		diffuseColor      0.6941 0.6941 0.6941  #diffuseColor
		transparency      0.0000                #transparency
	} #Material

	IndexedFaceSet {
		coordIndex [ 
		 0, 1, 2, 3, 4, 5, 6, 7,-1,
		 7, 6, 5, 4, 3, 2, 1, 0,-1,
		 0, 7, 15, 8,-1,
		 8, 15, 7, 0,-1,
		 1, 0, 8, 9,-1,
		 9, 8, 0, 1,-1,
		 2, 1, 9, 10,-1,
		 10, 9, 1, 2,-1,
		 3, 2, 10, 11,-1,
		 11, 10, 2, 3,-1,
		 4, 3, 11, 12,-1,
		 12, 11, 3, 4,-1,
		 5, 4, 12, 13,-1,
		 13, 12, 4, 5,-1,
		 6, 5, 13, 14,-1,
		 14, 13, 5, 6,-1,
		 7, 6, 14, 15,-1,
		 15, 14, 6, 7,-1,
		 15, 14, 13, 12, 11, 10, 9, 8,-1,
		 8, 9, 10, 11, 12, 13, 14, 15,-1,
		]
	} #IndexedFaceSet
} #Polyhedron
Separator { #Polyhedron
	DEF COORD7 Coordinate3 {
		point [
		 1.4869 3.0480 1.4870,
		 1.3715 3.0480 1.5348,
		 1.2562 3.0480 1.4870,
		 1.2084 3.0480 1.3717,
		 1.2561 3.0480 1.2563,
		 1.3715 3.0480 1.2086,
		 1.4868 3.0480 1.2563,
		 1.5346 3.0480 1.3717,
		 1.4869 0.0000 1.4870,
		 1.3715 0.0000 1.5348,
		 1.2562 0.0000 1.4870,
		 1.2084 0.0000 1.3717,
		 1.2561 0.0000 1.2563,
		 1.3715 0.0000 1.2086,
		 1.4868 0.0000 1.2563,
		 1.5346 0.0000 1.3717
		]
	} #Coordinate3
	Material {
		ambientColor      0.1735 0.1735 0.1735  #ambientColor
		diffuseColor      0.6941 0.6941 0.6941  #diffuseColor
		transparency      0.0000                #transparency
	} #Material

	IndexedFaceSet {
		coordIndex [ 
		 0, 1, 2, 3, 4, 5, 6, 7,-1,
		 7, 6, 5, 4, 3, 2, 1, 0,-1,
		 0, 7, 15, 8,-1,
		 8, 15, 7, 0,-1,
		 1, 0, 8, 9,-1,
		 9, 8, 0, 1,-1,
		 2, 1, 9, 10,-1,
		 10, 9, 1, 2,-1,
		 3, 2, 10, 11,-1,
		 11, 10, 2, 3,-1,
		 4, 3, 11, 12,-1,
		 12, 11, 3, 4,-1,
		 5, 4, 12, 13,-1,
		 13, 12, 4, 5,-1,
		 6, 5, 13, 14,-1,
		 14, 13, 5, 6,-1,
		 7, 6, 14, 15,-1,
		 15, 14, 6, 7,-1,
		 15, 14, 13, 12, 11, 10, 9, 8,-1,
		 8, 9, 10, 11, 12, 13, 14, 15,-1,
		]
	} #IndexedFaceSet
} #Polyhedron
Separator { #Polyhedron
	DEF COORD8 Coordinate3 {
		point [
		 -1.3017 3.0480 1.5450,
		 -1.4170 3.0480 1.5927,
		 -1.5324 3.0480 1.5450,
		 -1.5801 3.0480 1.4297,
		 -1.5324 3.0480 1.3143,
		 -1.4171 3.0480 1.2666,
		 -1.3018 3.0480 1.3143,
		 -1.2540 3.0480 1.4296,
		 -1.3017 0.0000 1.5450,
		 -1.4170 0.0000 1.5927,
		 -1.5324 0.0000 1.5450,
		 -1.5801 0.0000 1.4297,
		 -1.5324 0.0000 1.3143,
		 -1.4171 0.0000 1.2666,
		 -1.3018 0.0000 1.3143,
		 -1.2540 0.0000 1.4296
		]
	} #Coordinate3
	Material {
		ambientColor      0.1735 0.1735 0.1735  #ambientColor
		diffuseColor      0.6941 0.6941 0.6941  #diffuseColor
		transparency      0.0000                #transparency
	} #Material

	IndexedFaceSet {
		coordIndex [ 
		 0, 1, 2, 3, 4, 5, 6, 7,-1,
		 7, 6, 5, 4, 3, 2, 1, 0,-1,
		 0, 7, 15, 8,-1,
		 8, 15, 7, 0,-1,
		 1, 0, 8, 9,-1,
		 9, 8, 0, 1,-1,
		 2, 1, 9, 10,-1,
		 10, 9, 1, 2,-1,
		 3, 2, 10, 11,-1,
		 11, 10, 2, 3,-1,
		 4, 3, 11, 12,-1,
		 12, 11, 3, 4,-1,
		 5, 4, 12, 13,-1,
		 13, 12, 4, 5,-1,
		 6, 5, 13, 14,-1,
		 14, 13, 5, 6,-1,
		 7, 6, 14, 15,-1,
		 15, 14, 6, 7,-1,
		 15, 14, 13, 12, 11, 10, 9, 8,-1,
		 8, 9, 10, 11, 12, 13, 14, 15,-1,
		]
	} #IndexedFaceSet
} #Polyhedron
Separator { #Polyhedron
	DEF COORD9 Coordinate3 {
		point [
		 1.0668 3.2004 -1.0668,
		 1.6761 3.2004 -1.6762,
		 1.6764 3.2004 1.6762,
		 1.0668 3.2004 1.0668,
		 1.0668 3.0480 -1.0668,
		 1.6761 3.0480 -1.6762,
		 1.6764 3.0480 1.6762,
		 1.0668 3.0480 1.0668
		]
	} #Coordinate3
	Material {
		ambientColor      0.1735 0.1735 0.1735  #ambientColor
		diffuseColor      0.6941 0.6941 0.6941  #diffuseColor
		transparency      0.0000                #transparency
	} #Material

	IndexedFaceSet {
		coordIndex [ 
		 0, 1, 2, 3,-1,
		 3, 2, 1, 0,-1,
		 0, 3, 7, 4,-1,
		 4, 7, 3, 0,-1,
		 1, 0, 4, 5,-1,
		 5, 4, 0, 1,-1,
		 2, 1, 5, 6,-1,
		 6, 5, 1, 2,-1,
		 7, 6, 5, 4,-1,
		 4, 5, 6, 7,-1,
		]
	} #IndexedFaceSet
} #Polyhedron
Separator { #Polyhedron
	DEF COORD10 Coordinate3 {
		point [
		 -1.0541 3.2004 -1.0806,
		 -1.6633 3.2004 -1.6899,
		 1.6884 3.2004 -1.6899,
		 1.0791 3.2004 -1.0805,
		 -1.0541 3.0480 -1.0806,
		 -1.6633 3.0480 -1.6899,
		 1.6884 3.0480 -1.6899,
		 1.0791 3.0480 -1.0805
		]
	} #Coordinate3
	Material {
		ambientColor      0.1735 0.1735 0.1735  #ambientColor
		diffuseColor      0.6941 0.6941 0.6941  #diffuseColor
		transparency      0.0000                #transparency
	} #Material

	IndexedFaceSet {
		coordIndex [ 
		 0, 1, 2, 3,-1,
		 3, 2, 1, 0,-1,
		 0, 3, 7, 4,-1,
		 4, 7, 3, 0,-1,
		 1, 0, 4, 5,-1,
		 5, 4, 0, 1,-1,
		 2, 1, 5, 6,-1,
		 6, 5, 1, 2,-1,
		 7, 6, 5, 4,-1,
		 4, 5, 6, 7,-1,
		]
	} #IndexedFaceSet
} #Polyhedron
Separator { #Polyhedron
	DEF COORD11 Coordinate3 {
		point [
		 -1.0553 3.2004 1.0326,
		 -1.6634 3.2004 1.6388,
		 -1.6736 3.2004 -1.7074,
		 -1.0617 3.2004 -1.0970,
		 -1.0553 3.0480 1.0326,
		 -1.6634 3.0480 1.6388,
		 -1.6736 3.0480 -1.7074,
		 -1.0617 3.0480 -1.0970
		]
	} #Coordinate3
	Material {
		ambientColor      0.1735 0.1735 0.1735  #ambientColor
		diffuseColor      0.6941 0.6941 0.6941  #diffuseColor
		transparency      0.0000                #transparency
	} #Material

	IndexedFaceSet {
		coordIndex [ 
		 0, 1, 2, 3,-1,
		 3, 2, 1, 0,-1,
		 0, 3, 7, 4,-1,
		 4, 7, 3, 0,-1,
		 1, 0, 4, 5,-1,
		 5, 4, 0, 1,-1,
		 2, 1, 5, 6,-1,
		 6, 5, 1, 2,-1,
		 3, 2, 6, 7,-1,
		 7, 6, 2, 3,-1,
		 7, 6, 5, 4,-1,
		 4, 5, 6, 7,-1,
		]
	} #IndexedFaceSet
} #Polyhedron
Separator { #Polyhedron
	DEF COORD12 Coordinate3 {
		point [
		 1.0669 3.2004 1.0492,
		 1.6754 3.2004 1.6612,
		 -1.6653 3.2004 1.6515,
		 -1.0592 3.2004 1.0428,
		 1.0669 3.0480 1.0492,
		 1.6754 3.0480 1.6612,
		 -1.6653 3.0480 1.6515,
		 -1.0592 3.0480 1.0428
		]
	} #Coordinate3
	Material {
		ambientColor      0.1735 0.1735 0.1735  #ambientColor
		diffuseColor      0.6941 0.6941 0.6941  #diffuseColor
		transparency      0.0000                #transparency
	} #Material

	IndexedFaceSet {
		coordIndex [ 
		 0, 1, 2, 3,-1,
		 3, 2, 1, 0,-1,
		 0, 3, 7, 4,-1,
		 4, 7, 3, 0,-1,
		 1, 0, 4, 5,-1,
		 5, 4, 0, 1,-1,
		 2, 1, 5, 6,-1,
		 6, 5, 1, 2,-1,
		 3, 2, 6, 7,-1,
		 7, 6, 2, 3,-1,
		 7, 6, 5, 4,-1,
		 4, 5, 6, 7,-1,
		]
	} #IndexedFaceSet
} #Polyhedron
Separator { #Polyhedron
	DEF COORD13 Coordinate3 {
		point [
		 -7.6197 0.0508 0.3048,
		 -7.0102 0.0508 0.9143,
		 -7.9245 0.0508 1.5239,
		 -8.8388 0.0508 1.2192,
		 -9.4484 0.0508 0.6097,
		 -8.5341 0.0508 0.3048,
		 -7.6197 0.0000 0.3048,
		 -7.0102 0.0000 0.9143,
		 -7.9245 0.0000 1.5239,
		 -8.8388 0.0000 1.2192,
		 -9.4484 0.0000 0.6097,
		 -8.5341 0.0000 0.3048
		]
	} #Coordinate3
	Material {
		ambientColor      0.1804 0.1804 0.1804  #ambientColor
		diffuseColor      0.7216 0.7216 0.7216  #diffuseColor
		transparency      0.0000                #transparency
	} #Material

	IndexedFaceSet {
		coordIndex [ 
		 0, 1, 2, 3, 4, 5,-1,
		 5, 4, 3, 2, 1, 0,-1,
		 0, 5, 11, 6,-1,
		 6, 11, 5, 0,-1,
		 1, 0, 6, 7,-1,
		 7, 6, 0, 1,-1,
		 2, 1, 7, 8,-1,
		 8, 7, 1, 2,-1,
		 3, 2, 8, 9,-1,
		 9, 8, 2, 3,-1,
		 4, 3, 9, 10,-1,
		 10, 9, 3, 4,-1,
		 5, 4, 10, 11,-1,
		 11, 10, 4, 5,-1,
		 11, 10, 9, 8, 7, 6,-1,
		 6, 7, 8, 9, 10, 11,-1,
		]
	} #IndexedFaceSet
} #Polyhedron
Separator { #Polyhedron
	DEF COORD14 Coordinate3 {
		point [
		 -1.7116 3.6576 -7.7485,
		 -1.6128 3.6576 -7.6824,
		 -1.5467 3.6576 -7.5836,
		 -1.5235 3.6576 -7.4670,
		 -1.5467 3.6576 -7.3504,
		 -1.6127 3.6576 -7.2515,
		 -1.7116 3.6576 -7.1854,
		 -1.8282 3.6576 -7.1622,
		 -1.9448 3.6576 -7.1854,
		 -2.0437 3.6576 -7.2515,
		 -2.1097 3.6576 -7.3503,
		 -2.1329 3.6576 -7.4669,
		 -2.1097 3.6576 -7.5835,
		 -2.0437 3.6576 -7.6824,
		 -1.9449 3.6576 -7.7485,
		 -1.8282 3.6576 -7.7717,
		 -1.7116 0.0000 -7.7485,
		 -1.6128 0.0000 -7.6824,
		 -1.5467 0.0000 -7.5836,
		 -1.5235 0.0000 -7.4670,
		 -1.5467 0.0000 -7.3504,
		 -1.6127 0.0000 -7.2515,
		 -1.7116 0.0000 -7.1854,
		 -1.8282 0.0000 -7.1622,
		 -1.9448 0.0000 -7.1854,
		 -2.0437 0.0000 -7.2515,
		 -2.1097 0.0000 -7.3503,
		 -2.1329 0.0000 -7.4669,
		 -2.1097 0.0000 -7.5835,
		 -2.0437 0.0000 -7.6824,
		 -1.9449 0.0000 -7.7485,
		 -1.8282 0.0000 -7.7717
		]
	} #Coordinate3
	Material {
		ambientColor      0.2225 0.2225 0.2225  #ambientColor
		diffuseColor      0.8902 0.8902 0.8902  #diffuseColor
		transparency      0.0000                #transparency
	} #Material

	IndexedFaceSet {
		coordIndex [ 
		 0, 1, 2, 3, 4, 5, 6, 7, 8, 9, 10, 11, 12, 13, 14, 15,-1,
		 15, 14, 13, 12, 11, 10, 9, 8, 7, 6, 5, 4, 3, 2, 1, 0,-1,
		 0, 15, 31, 16,-1,
		 16, 31, 15, 0,-1,
		 1, 0, 16, 17,-1,
		 17, 16, 0, 1,-1,
		 2, 1, 17, 18,-1,
		 18, 17, 1, 2,-1,
		 3, 2, 18, 19,-1,
		 19, 18, 2, 3,-1,
		 4, 3, 19, 20,-1,
		 20, 19, 3, 4,-1,
		 5, 4, 20, 21,-1,
		 21, 20, 4, 5,-1,
		 6, 5, 21, 22,-1,
		 22, 21, 5, 6,-1,
		 7, 6, 22, 23,-1,
		 23, 22, 6, 7,-1,
		 8, 7, 23, 24,-1,
		 24, 23, 7, 8,-1,
		 9, 8, 24, 25,-1,
		 25, 24, 8, 9,-1,
		 10, 9, 25, 26,-1,
		 26, 25, 9, 10,-1,
		 11, 10, 26, 27,-1,
		 27, 26, 10, 11,-1,
		 12, 11, 27, 28,-1,
		 28, 27, 11, 12,-1,
		 13, 12, 28, 29,-1,
		 29, 28, 12, 13,-1,
		 14, 13, 29, 30,-1,
		 30, 29, 13, 14,-1,
		 15, 14, 30, 31,-1,
		 31, 30, 14, 15,-1,
		 31, 30, 29, 28, 27, 26, 25, 24, 23, 22, 21, 20, 19, 18, 17, 16,-1,
		 16, 17, 18, 19, 20, 21, 22, 23, 24, 25, 26, 27, 28, 29, 30, 31,-1,
		]
	} #IndexedFaceSet
} #Polyhedron
Separator { #Polyhedron
	DEF COORD15 Coordinate3 {
		point [
		 1.2183 3.6576 -7.8054,
		 1.3171 3.6576 -7.7394,
		 1.3831 3.6576 -7.6406,
		 1.4063 3.6576 -7.5240,
		 1.3832 3.6576 -7.4074,
		 1.3172 3.6576 -7.3086,
		 1.2183 3.6576 -7.2426,
		 1.1018 3.6576 -7.2194,
		 0.9852 3.6576 -7.2425,
		 0.8864 3.6576 -7.3086,
		 0.8203 3.6576 -7.4074,
		 0.7971 3.6576 -7.5240,
		 0.8203 3.6576 -7.6405,
		 0.8863 3.6576 -7.7394,
		 0.9851 3.6576 -7.8054,
		 1.1017 3.6576 -7.8286,
		 1.2183 0.0000 -7.8054,
		 1.3171 0.0000 -7.7394,
		 1.3831 0.0000 -7.6406,
		 1.4063 0.0000 -7.5240,
		 1.3832 0.0000 -7.4074,
		 1.3172 0.0000 -7.3086,
		 1.2183 0.0000 -7.2426,
		 1.1018 0.0000 -7.2194,
		 0.9852 0.0000 -7.2425,
		 0.8864 0.0000 -7.3086,
		 0.8203 0.0000 -7.4074,
		 0.7971 0.0000 -7.5240,
		 0.8203 0.0000 -7.6405,
		 0.8863 0.0000 -7.7394,
		 0.9851 0.0000 -7.8054,
		 1.1017 0.0000 -7.8286
		]
	} #Coordinate3
	Material {
		ambientColor      0.2225 0.2225 0.2225  #ambientColor
		diffuseColor      0.8902 0.8902 0.8902  #diffuseColor
		transparency      0.0000                #transparency
	} #Material

	IndexedFaceSet {
		coordIndex [ 
		 0, 1, 2, 3, 4, 5, 6, 7, 8, 9, 10, 11, 12, 13, 14, 15,-1,
		 15, 14, 13, 12, 11, 10, 9, 8, 7, 6, 5, 4, 3, 2, 1, 0,-1,
		 0, 15, 31, 16,-1,
		 16, 31, 15, 0,-1,
		 1, 0, 16, 17,-1,
		 17, 16, 0, 1,-1,
		 2, 1, 17, 18,-1,
		 18, 17, 1, 2,-1,
		 3, 2, 18, 19,-1,
		 19, 18, 2, 3,-1,
		 4, 3, 19, 20,-1,
		 20, 19, 3, 4,-1,
		 5, 4, 20, 21,-1,
		 21, 20, 4, 5,-1,
		 6, 5, 21, 22,-1,
		 22, 21, 5, 6,-1,
		 7, 6, 22, 23,-1,
		 23, 22, 6, 7,-1,
		 8, 7, 23, 24,-1,
		 24, 23, 7, 8,-1,
		 9, 8, 24, 25,-1,
		 25, 24, 8, 9,-1,
		 10, 9, 25, 26,-1,
		 26, 25, 9, 10,-1,
		 11, 10, 26, 27,-1,
		 27, 26, 10, 11,-1,
		 12, 11, 27, 28,-1,
		 28, 27, 11, 12,-1,
		 13, 12, 28, 29,-1,
		 29, 28, 12, 13,-1,
		 14, 13, 29, 30,-1,
		 30, 29, 13, 14,-1,
		 15, 14, 30, 31,-1,
		 31, 30, 14, 15,-1,
		 31, 30, 29, 28, 27, 26, 25, 24, 23, 22, 21, 20, 19, 18, 17, 16,-1,
		 16, 17, 18, 19, 20, 21, 22, 23, 24, 25, 26, 27, 28, 29, 30, 31,-1,
		]
	} #IndexedFaceSet
} #Polyhedron
Separator { #Polyhedron
	DEF COORD16 Coordinate3 {
		point [
		 7.2579 3.6576 -1.8635,
		 7.3567 3.6576 -1.7976,
		 7.4226 3.6576 -1.6989,
		 7.4458 3.6576 -1.5824,
		 7.4227 3.6576 -1.4659,
		 7.3567 3.6576 -1.3672,
		 7.2580 3.6576 -1.3013,
		 7.1416 3.6576 -1.2781,
		 7.0251 3.6576 -1.3013,
		 6.9264 3.6576 -1.3672,
		 6.8604 3.6576 -1.4659,
		 6.8372 3.6576 -1.5824,
		 6.8603 3.6576 -1.6989,
		 6.9263 3.6576 -1.7976,
		 7.0250 3.6576 -1.8635,
		 7.1414 3.6576 -1.8867,
		 7.2579 0.0000 -1.8635,
		 7.3567 0.0000 -1.7976,
		 7.4226 0.0000 -1.6989,
		 7.4458 0.0000 -1.5824,
		 7.4227 0.0000 -1.4659,
		 7.3567 0.0000 -1.3672,
		 7.2580 0.0000 -1.3013,
		 7.1416 0.0000 -1.2781,
		 7.0251 0.0000 -1.3013,
		 6.9264 0.0000 -1.3672,
		 6.8604 0.0000 -1.4659,
		 6.8372 0.0000 -1.5824,
		 6.8603 0.0000 -1.6989,
		 6.9263 0.0000 -1.7976,
		 7.0250 0.0000 -1.8635,
		 7.1414 0.0000 -1.8867
		]
	} #Coordinate3
	Material {
		ambientColor      0.2225 0.2225 0.2225  #ambientColor
		diffuseColor      0.8902 0.8902 0.8902  #diffuseColor
		transparency      0.0000                #transparency
	} #Material

	IndexedFaceSet {
		coordIndex [ 
		 0, 1, 2, 3, 4, 5, 6, 7, 8, 9, 10, 11, 12, 13, 14, 15,-1,
		 15, 14, 13, 12, 11, 10, 9, 8, 7, 6, 5, 4, 3, 2, 1, 0,-1,
		 0, 15, 31, 16,-1,
		 16, 31, 15, 0,-1,
		 1, 0, 16, 17,-1,
		 17, 16, 0, 1,-1,
		 2, 1, 17, 18,-1,
		 18, 17, 1, 2,-1,
		 3, 2, 18, 19,-1,
		 19, 18, 2, 3,-1,
		 4, 3, 19, 20,-1,
		 20, 19, 3, 4,-1,
		 5, 4, 20, 21,-1,
		 21, 20, 4, 5,-1,
		 6, 5, 21, 22,-1,
		 22, 21, 5, 6,-1,
		 7, 6, 22, 23,-1,
		 23, 22, 6, 7,-1,
		 8, 7, 23, 24,-1,
		 24, 23, 7, 8,-1,
		 9, 8, 24, 25,-1,
		 25, 24, 8, 9,-1,
		 10, 9, 25, 26,-1,
		 26, 25, 9, 10,-1,
		 11, 10, 26, 27,-1,
		 27, 26, 10, 11,-1,
		 12, 11, 27, 28,-1,
		 28, 27, 11, 12,-1,
		 13, 12, 28, 29,-1,
		 29, 28, 12, 13,-1,
		 14, 13, 29, 30,-1,
		 30, 29, 13, 14,-1,
		 15, 14, 30, 31,-1,
		 31, 30, 14, 15,-1,
		 31, 30, 29, 28, 27, 26, 25, 24, 23, 22, 21, 20, 19, 18, 17, 16,-1,
		 16, 17, 18, 19, 20, 21, 22, 23, 24, 25, 26, 27, 28, 29, 30, 31,-1,
		]
	} #IndexedFaceSet
} #Polyhedron
Separator { #Polyhedron
	DEF COORD17 Coordinate3 {
		point [
		 7.2323 3.6576 1.0591,
		 7.3308 3.6576 1.1249,
		 7.3967 3.6576 1.2234,
		 7.4198 3.6576 1.3396,
		 7.3967 3.6576 1.4559,
		 7.3310 3.6576 1.5544,
		 7.2325 3.6576 1.6202,
		 7.1163 3.6576 1.6434,
		 7.0001 3.6576 1.6203,
		 6.9015 3.6576 1.5544,
		 6.8357 3.6576 1.4559,
		 6.8125 3.6576 1.3397,
		 6.8356 3.6576 1.2235,
		 6.9014 3.6576 1.1249,
		 6.9999 3.6576 1.0591,
		 7.1161 3.6576 1.0360,
		 7.2323 0.0000 1.0591,
		 7.3308 0.0000 1.1249,
		 7.3967 0.0000 1.2234,
		 7.4198 0.0000 1.3396,
		 7.3967 0.0000 1.4559,
		 7.3310 0.0000 1.5544,
		 7.2325 0.0000 1.6202,
		 7.1163 0.0000 1.6434,
		 7.0001 0.0000 1.6203,
		 6.9015 0.0000 1.5544,
		 6.8357 0.0000 1.4559,
		 6.8125 0.0000 1.3397,
		 6.8356 0.0000 1.2235,
		 6.9014 0.0000 1.1249,
		 6.9999 0.0000 1.0591,
		 7.1161 0.0000 1.0360
		]
	} #Coordinate3
	Material {
		ambientColor      0.2225 0.2225 0.2225  #ambientColor
		diffuseColor      0.8902 0.8902 0.8902  #diffuseColor
		transparency      0.0000                #transparency
	} #Material

	IndexedFaceSet {
		coordIndex [ 
		 0, 1, 2, 3, 4, 5, 6, 7, 8, 9, 10, 11, 12, 13, 14, 15,-1,
		 15, 14, 13, 12, 11, 10, 9, 8, 7, 6, 5, 4, 3, 2, 1, 0,-1,
		 0, 15, 31, 16,-1,
		 16, 31, 15, 0,-1,
		 1, 0, 16, 17,-1,
		 17, 16, 0, 1,-1,
		 2, 1, 17, 18,-1,
		 18, 17, 1, 2,-1,
		 3, 2, 18, 19,-1,
		 19, 18, 2, 3,-1,
		 4, 3, 19, 20,-1,
		 20, 19, 3, 4,-1,
		 5, 4, 20, 21,-1,
		 21, 20, 4, 5,-1,
		 6, 5, 21, 22,-1,
		 22, 21, 5, 6,-1,
		 7, 6, 22, 23,-1,
		 23, 22, 6, 7,-1,
		 8, 7, 23, 24,-1,
		 24, 23, 7, 8,-1,
		 9, 8, 24, 25,-1,
		 25, 24, 8, 9,-1,
		 10, 9, 25, 26,-1,
		 26, 25, 9, 10,-1,
		 11, 10, 26, 27,-1,
		 27, 26, 10, 11,-1,
		 12, 11, 27, 28,-1,
		 28, 27, 11, 12,-1,
		 13, 12, 28, 29,-1,
		 29, 28, 12, 13,-1,
		 14, 13, 29, 30,-1,
		 30, 29, 13, 14,-1,
		 15, 14, 30, 31,-1,
		 31, 30, 14, 15,-1,
		 31, 30, 29, 28, 27, 26, 25, 24, 23, 22, 21, 20, 19, 18, 17, 16,-1,
		 16, 17, 18, 19, 20, 21, 22, 23, 24, 25, 26, 27, 28, 29, 30, 31,-1,
		]
	} #IndexedFaceSet
} #Polyhedron
Separator { #Polyhedron
	DEF COORD18 Coordinate3 {
		point [
		 1.3376 3.6576 7.2940,
		 1.4358 3.6576 7.3596,
		 1.5014 3.6576 7.4578,
		 1.5245 3.6576 7.5737,
		 1.5015 3.6576 7.6895,
		 1.4358 3.6576 7.7878,
		 1.3376 3.6576 7.8534,
		 1.2218 3.6576 7.8765,
		 1.1059 3.6576 7.8534,
		 1.0077 3.6576 7.7878,
		 0.9421 3.6576 7.6896,
		 0.9190 3.6576 7.5737,
		 0.9420 3.6576 7.4579,
		 1.0077 3.6576 7.3596,
		 1.1059 3.6576 7.2940,
		 1.2217 3.6576 7.2709,
		 1.3376 0.0000 7.2940,
		 1.4358 0.0000 7.3596,
		 1.5014 0.0000 7.4578,
		 1.5245 0.0000 7.5737,
		 1.5015 0.0000 7.6895,
		 1.4358 0.0000 7.7878,
		 1.3376 0.0000 7.8534,
		 1.2218 0.0000 7.8765,
		 1.1059 0.0000 7.8534,
		 1.0077 0.0000 7.7878,
		 0.9421 0.0000 7.6896,
		 0.9190 0.0000 7.5737,
		 0.9420 0.0000 7.4579,
		 1.0077 0.0000 7.3596,
		 1.1059 0.0000 7.2940,
		 1.2217 0.0000 7.2709
		]
	} #Coordinate3
	Material {
		ambientColor      0.2225 0.2225 0.2225  #ambientColor
		diffuseColor      0.8902 0.8902 0.8902  #diffuseColor
		transparency      0.0000                #transparency
	} #Material

	IndexedFaceSet {
		coordIndex [ 
		 0, 1, 2, 3, 4, 5, 6, 7, 8, 9, 10, 11, 12, 13, 14, 15,-1,
		 15, 14, 13, 12, 11, 10, 9, 8, 7, 6, 5, 4, 3, 2, 1, 0,-1,
		 0, 15, 31, 16,-1,
		 16, 31, 15, 0,-1,
		 1, 0, 16, 17,-1,
		 17, 16, 0, 1,-1,
		 2, 1, 17, 18,-1,
		 18, 17, 1, 2,-1,
		 3, 2, 18, 19,-1,
		 19, 18, 2, 3,-1,
		 4, 3, 19, 20,-1,
		 20, 19, 3, 4,-1,
		 5, 4, 20, 21,-1,
		 21, 20, 4, 5,-1,
		 6, 5, 21, 22,-1,
		 22, 21, 5, 6,-1,
		 7, 6, 22, 23,-1,
		 23, 22, 6, 7,-1,
		 8, 7, 23, 24,-1,
		 24, 23, 7, 8,-1,
		 9, 8, 24, 25,-1,
		 25, 24, 8, 9,-1,
		 10, 9, 25, 26,-1,
		 26, 25, 9, 10,-1,
		 11, 10, 26, 27,-1,
		 27, 26, 10, 11,-1,
		 12, 11, 27, 28,-1,
		 28, 27, 11, 12,-1,
		 13, 12, 28, 29,-1,
		 29, 28, 12, 13,-1,
		 14, 13, 29, 30,-1,
		 30, 29, 13, 14,-1,
		 15, 14, 30, 31,-1,
		 31, 30, 14, 15,-1,
		 31, 30, 29, 28, 27, 26, 25, 24, 23, 22, 21, 20, 19, 18, 17, 16,-1,
		 16, 17, 18, 19, 20, 21, 22, 23, 24, 25, 26, 27, 28, 29, 30, 31,-1,
		]
	} #IndexedFaceSet
} #Polyhedron
Separator { #Polyhedron
	DEF COORD19 Coordinate3 {
		point [
		 -1.7259 3.6576 7.3425,
		 -1.6280 3.6576 7.4079,
		 -1.5627 3.6576 7.5057,
		 -1.5397 3.6576 7.6211,
		 -1.5626 3.6576 7.7365,
		 -1.6280 3.6576 7.8344,
		 -1.7258 3.6576 7.8997,
		 -1.8412 3.6576 7.9227,
		 -1.9566 3.6576 7.8997,
		 -2.0544 3.6576 7.8343,
		 -2.1198 3.6576 7.7365,
		 -2.1428 3.6576 7.6211,
		 -2.1198 3.6576 7.5057,
		 -2.0545 3.6576 7.4079,
		 -1.9567 3.6576 7.3425,
		 -1.8413 3.6576 7.3196,
		 -1.7259 0.0000 7.3425,
		 -1.6280 0.0000 7.4079,
		 -1.5627 0.0000 7.5057,
		 -1.5397 0.0000 7.6211,
		 -1.5626 0.0000 7.7365,
		 -1.6280 0.0000 7.8344,
		 -1.7258 0.0000 7.8997,
		 -1.8412 0.0000 7.9227,
		 -1.9566 0.0000 7.8997,
		 -2.0544 0.0000 7.8343,
		 -2.1198 0.0000 7.7365,
		 -2.1428 0.0000 7.6211,
		 -2.1198 0.0000 7.5057,
		 -2.0545 0.0000 7.4079,
		 -1.9567 0.0000 7.3425,
		 -1.8413 0.0000 7.3196
		]
	} #Coordinate3
	Material {
		ambientColor      0.2225 0.2225 0.2225  #ambientColor
		diffuseColor      0.8902 0.8902 0.8902  #diffuseColor
		transparency      0.0000                #transparency
	} #Material

	IndexedFaceSet {
		coordIndex [ 
		 0, 1, 2, 3, 4, 5, 6, 7, 8, 9, 10, 11, 12, 13, 14, 15,-1,
		 15, 14, 13, 12, 11, 10, 9, 8, 7, 6, 5, 4, 3, 2, 1, 0,-1,
		 0, 15, 31, 16,-1,
		 16, 31, 15, 0,-1,
		 1, 0, 16, 17,-1,
		 17, 16, 0, 1,-1,
		 2, 1, 17, 18,-1,
		 18, 17, 1, 2,-1,
		 3, 2, 18, 19,-1,
		 19, 18, 2, 3,-1,
		 4, 3, 19, 20,-1,
		 20, 19, 3, 4,-1,
		 5, 4, 20, 21,-1,
		 21, 20, 4, 5,-1,
		 6, 5, 21, 22,-1,
		 22, 21, 5, 6,-1,
		 7, 6, 22, 23,-1,
		 23, 22, 6, 7,-1,
		 8, 7, 23, 24,-1,
		 24, 23, 7, 8,-1,
		 9, 8, 24, 25,-1,
		 25, 24, 8, 9,-1,
		 10, 9, 25, 26,-1,
		 26, 25, 9, 10,-1,
		 11, 10, 26, 27,-1,
		 27, 26, 10, 11,-1,
		 12, 11, 27, 28,-1,
		 28, 27, 11, 12,-1,
		 13, 12, 28, 29,-1,
		 29, 28, 12, 13,-1,
		 14, 13, 29, 30,-1,
		 30, 29, 13, 14,-1,
		 15, 14, 30, 31,-1,
		 31, 30, 14, 15,-1,
		 31, 30, 29, 28, 27, 26, 25, 24, 23, 22, 21, 20, 19, 18, 17, 16,-1,
		 16, 17, 18, 19, 20, 21, 22, 23, 24, 25, 26, 27, 28, 29, 30, 31,-1,
		]
	} #IndexedFaceSet
} #Polyhedron
Separator { #Polyhedron
	DEF COORD20 Coordinate3 {
		point [
		 -7.7123 3.6576 -1.9682,
		 -7.6149 3.6576 -1.9032,
		 -7.5499 3.6576 -1.8058,
		 -7.5270 3.6576 -1.6910,
		 -7.5498 3.6576 -1.5762,
		 -7.6148 3.6576 -1.4788,
		 -7.7121 3.6576 -1.4138,
		 -7.8269 3.6576 -1.3909,
		 -7.9417 3.6576 -1.4138,
		 -8.0391 3.6576 -1.4788,
		 -8.1041 3.6576 -1.5761,
		 -8.1270 3.6576 -1.6910,
		 -8.1042 3.6576 -1.8058,
		 -8.0392 3.6576 -1.9032,
		 -7.9419 3.6576 -1.9682,
		 -7.8271 3.6576 -1.9910,
		 -7.7123 0.0000 -1.9682,
		 -7.6149 0.0000 -1.9032,
		 -7.5499 0.0000 -1.8058,
		 -7.5270 0.0000 -1.6910,
		 -7.5498 0.0000 -1.5762,
		 -7.6148 0.0000 -1.4788,
		 -7.7121 0.0000 -1.4138,
		 -7.8269 0.0000 -1.3909,
		 -7.9417 0.0000 -1.4138,
		 -8.0391 0.0000 -1.4788,
		 -8.1041 0.0000 -1.5761,
		 -8.1270 0.0000 -1.6910,
		 -8.1042 0.0000 -1.8058,
		 -8.0392 0.0000 -1.9032,
		 -7.9419 0.0000 -1.9682,
		 -7.8271 0.0000 -1.9910
		]
	} #Coordinate3
	Material {
		ambientColor      0.2225 0.2225 0.2225  #ambientColor
		diffuseColor      0.8902 0.8902 0.8902  #diffuseColor
		transparency      0.0000                #transparency
	} #Material

	IndexedFaceSet {
		coordIndex [ 
		 0, 1, 2, 3, 4, 5, 6, 7, 8, 9, 10, 11, 12, 13, 14, 15,-1,
		 15, 14, 13, 12, 11, 10, 9, 8, 7, 6, 5, 4, 3, 2, 1, 0,-1,
		 0, 15, 31, 16,-1,
		 16, 31, 15, 0,-1,
		 1, 0, 16, 17,-1,
		 17, 16, 0, 1,-1,
		 2, 1, 17, 18,-1,
		 18, 17, 1, 2,-1,
		 3, 2, 18, 19,-1,
		 19, 18, 2, 3,-1,
		 4, 3, 19, 20,-1,
		 20, 19, 3, 4,-1,
		 5, 4, 20, 21,-1,
		 21, 20, 4, 5,-1,
		 6, 5, 21, 22,-1,
		 22, 21, 5, 6,-1,
		 7, 6, 22, 23,-1,
		 23, 22, 6, 7,-1,
		 8, 7, 23, 24,-1,
		 24, 23, 7, 8,-1,
		 9, 8, 24, 25,-1,
		 25, 24, 8, 9,-1,
		 10, 9, 25, 26,-1,
		 26, 25, 9, 10,-1,
		 11, 10, 26, 27,-1,
		 27, 26, 10, 11,-1,
		 12, 11, 27, 28,-1,
		 28, 27, 11, 12,-1,
		 13, 12, 28, 29,-1,
		 29, 28, 12, 13,-1,
		 14, 13, 29, 30,-1,
		 30, 29, 13, 14,-1,
		 15, 14, 30, 31,-1,
		 31, 30, 14, 15,-1,
		 31, 30, 29, 28, 27, 26, 25, 24, 23, 22, 21, 20, 19, 18, 17, 16,-1,
		 16, 17, 18, 19, 20, 21, 22, 23, 24, 25, 26, 27, 28, 29, 30, 31,-1,
		]
	} #IndexedFaceSet
} #Polyhedron
Separator { #Polyhedron
	DEF COORD21 Coordinate3 {
		point [
		 -7.7120 3.6576 1.5369,
		 -7.6146 3.6576 1.6020,
		 -7.5496 3.6576 1.6993,
		 -7.5267 3.6576 1.8141,
		 -7.5495 3.6576 1.9289,
		 -7.6145 3.6576 2.0263,
		 -7.7118 3.6576 2.0913,
		 -7.8266 3.6576 2.1142,
		 -7.9414 3.6576 2.0913,
		 -8.0387 3.6576 2.0263,
		 -8.1038 3.6576 1.9290,
		 -8.1266 3.6576 1.8142,
		 -8.1038 3.6576 1.6993,
		 -8.0388 3.6576 1.6020,
		 -7.9415 3.6576 1.5369,
		 -7.8268 3.6576 1.5141,
		 -7.7120 0.0000 1.5369,
		 -7.6146 0.0000 1.6020,
		 -7.5496 0.0000 1.6993,
		 -7.5267 0.0000 1.8141,
		 -7.5495 0.0000 1.9289,
		 -7.6145 0.0000 2.0263,
		 -7.7118 0.0000 2.0913,
		 -7.8266 0.0000 2.1142,
		 -7.9414 0.0000 2.0913,
		 -8.0387 0.0000 2.0263,
		 -8.1038 0.0000 1.9290,
		 -8.1266 0.0000 1.8142,
		 -8.1038 0.0000 1.6993,
		 -8.0388 0.0000 1.6020,
		 -7.9415 0.0000 1.5369,
		 -7.8268 0.0000 1.5141
		]
	} #Coordinate3
	Material {
		ambientColor      0.2225 0.2225 0.2225  #ambientColor
		diffuseColor      0.8902 0.8902 0.8902  #diffuseColor
		transparency      0.0000                #transparency
	} #Material

	IndexedFaceSet {
		coordIndex [ 
		 0, 1, 2, 3, 4, 5, 6, 7, 8, 9, 10, 11, 12, 13, 14, 15,-1,
		 15, 14, 13, 12, 11, 10, 9, 8, 7, 6, 5, 4, 3, 2, 1, 0,-1,
		 0, 15, 31, 16,-1,
		 16, 31, 15, 0,-1,
		 1, 0, 16, 17,-1,
		 17, 16, 0, 1,-1,
		 2, 1, 17, 18,-1,
		 18, 17, 1, 2,-1,
		 3, 2, 18, 19,-1,
		 19, 18, 2, 3,-1,
		 4, 3, 19, 20,-1,
		 20, 19, 3, 4,-1,
		 5, 4, 20, 21,-1,
		 21, 20, 4, 5,-1,
		 6, 5, 21, 22,-1,
		 22, 21, 5, 6,-1,
		 7, 6, 22, 23,-1,
		 23, 22, 6, 7,-1,
		 8, 7, 23, 24,-1,
		 24, 23, 7, 8,-1,
		 9, 8, 24, 25,-1,
		 25, 24, 8, 9,-1,
		 10, 9, 25, 26,-1,
		 26, 25, 9, 10,-1,
		 11, 10, 26, 27,-1,
		 27, 26, 10, 11,-1,
		 12, 11, 27, 28,-1,
		 28, 27, 11, 12,-1,
		 13, 12, 28, 29,-1,
		 29, 28, 12, 13,-1,
		 14, 13, 29, 30,-1,
		 30, 29, 13, 14,-1,
		 15, 14, 30, 31,-1,
		 31, 30, 14, 15,-1,
		 31, 30, 29, 28, 27, 26, 25, 24, 23, 22, 21, 20, 19, 18, 17, 16,-1,
		 16, 17, 18, 19, 20, 21, 22, 23, 24, 25, 26, 27, 28, 29, 30, 31,-1,
		]
	} #IndexedFaceSet
} #Polyhedron
Separator { #Polyhedron
	DEF COORD22 Coordinate3 {
		point [
		 0.6995 0.0000 -1.6894,
		 1.2928 0.0000 -1.2931,
		 1.6892 0.0000 -0.6999,
		 1.8285 0.0000 -0.0002,
		 1.6894 0.0000 0.6996,
		 1.2931 0.0000 1.2928,
		 0.6999 0.0000 1.6892,
		 0.0002 0.0000 1.8285,
		 -0.6996 0.0000 1.6894,
		 -1.2929 0.0000 1.2931,
		 -1.6893 0.0000 0.6999,
		 -1.8286 0.0000 0.0002,
		 -1.6895 0.0000 -0.6995,
		 -1.2932 0.0000 -1.2928,
		 -0.7000 0.0000 -1.6892,
		 -0.0002 0.0000 -1.8285,
		 0.6995 -4.5720 -1.6894,
		 1.2928 -4.5720 -1.2931,
		 1.6892 -4.5720 -0.6999,
		 1.8285 -4.5720 -0.0002,
		 1.6894 -4.5720 0.6996,
		 1.2931 -4.5720 1.2928,
		 0.6999 -4.5720 1.6892,
		 0.0002 -4.5720 1.8285,
		 -0.6996 -4.5720 1.6894,
		 -1.2929 -4.5720 1.2931,
		 -1.6893 -4.5720 0.6999,
		 -1.8286 -4.5720 0.0002,
		 -1.6895 -4.5720 -0.6995,
		 -1.2932 -4.5720 -1.2928,
		 -0.7000 -4.5720 -1.6892,
		 -0.0002 -4.5720 -1.8285
		]
	} #Coordinate3
	Material {
		ambientColor      0.1392 0.1392 0.1392  #ambientColor
		diffuseColor      0.5569 0.5569 0.5569  #diffuseColor
		transparency      0.0000                #transparency
	} #Material

	Texture2 {
		filename ""  #filename
		wrapS REPEAT 
		wrapT REPEAT 
	} #Texture2

	IndexedFaceSet {
		coordIndex [ 
		 0, 15, 31, 16,-1,
		 16, 31, 15, 0,-1,
		 1, 0, 16, 17,-1,
		 17, 16, 0, 1,-1,
		 2, 1, 17, 18,-1,
		 18, 17, 1, 2,-1,
		 3, 2, 18, 19,-1,
		 19, 18, 2, 3,-1,
		 4, 3, 19, 20,-1,
		 20, 19, 3, 4,-1,
		 5, 4, 20, 21,-1,
		 21, 20, 4, 5,-1,
		 6, 5, 21, 22,-1,
		 22, 21, 5, 6,-1,
		 7, 6, 22, 23,-1,
		 23, 22, 6, 7,-1,
		 8, 7, 23, 24,-1,
		 24, 23, 7, 8,-1,
		 9, 8, 24, 25,-1,
		 25, 24, 8, 9,-1,
		 10, 9, 25, 26,-1,
		 26, 25, 9, 10,-1,
		 11, 10, 26, 27,-1,
		 27, 26, 10, 11,-1,
		 12, 11, 27, 28,-1,
		 28, 27, 11, 12,-1,
		 13, 12, 28, 29,-1,
		 29, 28, 12, 13,-1,
		 14, 13, 29, 30,-1,
		 30, 29, 13, 14,-1,
		 15, 14, 30, 31,-1,
		 31, 30, 14, 15,-1,
		]
	} #IndexedFaceSet
	Material {
		ambientColor      0.1392 0.1392 0.1392  #ambientColor
		diffuseColor      0.5569 0.5569 0.5569  #diffuseColor
		transparency      1.0000                #transparency
	} #Material

	IndexedFaceSet {
		coordIndex [ 
		 31, 30, 29, 28, 27, 26, 25, 24, 23, 22, 21, 20, 19, 18, 17, 16,-1,
		 16, 17, 18, 19, 20, 21, 22, 23, 24, 25, 26, 27, 28, 29, 30, 31,-1,
		]
	} #IndexedFaceSet
} #Polyhedron
Separator { #Polyhedron
	DEF COORD23 Coordinate3 {
		point [
		 -0.3048 5.1816 -0.0301,
		 -4.3969 4.8768 2.7531,
		 -5.1467 4.8768 0.9697,
		 -5.1593 4.8768 -0.9659,
		 -4.4329 4.8768 -2.7591,
		 -3.0781 4.8768 -4.1367,
		 -1.3010 4.8768 -4.8892,
		 0.6277 4.8768 -4.9020,
		 2.4145 4.8768 -4.1730,
		 3.7872 4.8768 -2.8133,
		 4.5370 4.8768 -1.0299,
		 4.5497 4.8768 0.9057,
		 3.8233 4.8768 2.6988,
		 2.4685 4.8768 4.0765,
		 0.6914 4.8768 4.8290,
		 -1.2373 4.8768 4.8417,
		 -3.0241 4.8768 4.1128,
		 -5.7608 4.5720 3.6808,
		 -6.7606 4.5720 1.3030,
		 -6.7775 4.5720 -1.2778,
		 -5.8090 4.5720 -3.6687,
		 -4.0025 4.5720 -5.5056,
		 -1.6331 4.5720 -6.5089,
		 0.9385 4.5720 -6.5259,
		 3.3209 4.5720 -5.5540,
		 5.1512 4.5720 -3.7411,
		 6.1510 4.5720 -1.3632,
		 6.1679 4.5720 1.2176,
		 5.1994 4.5720 3.6084,
		 3.3929 4.5720 5.4454,
		 1.0235 4.5720 6.4487,
		 -1.5481 4.5720 6.4657,
		 -3.9305 4.5720 5.4937,
		 -6.5554 4.2672 4.2212,
		 -7.7007 4.2672 1.4971,
		 -7.7200 4.2672 -1.4595,
		 -6.6105 4.2672 -4.1985,
		 -4.5410 4.2672 -6.3030,
		 -1.8265 4.2672 -7.4524,
		 1.1196 4.2672 -7.4718,
		 3.8489 4.2672 -6.3584,
		 5.9458 4.2672 -4.2815,
		 7.0911 4.2672 -1.5573,
		 7.1104 4.2672 1.3993,
		 6.0009 4.2672 4.1383,
		 3.9314 4.2672 6.2427,
		 1.2169 4.2672 7.3922,
		 -1.7292 4.2672 7.4116,
		 -4.4585 4.2672 6.2981,
		 -6.9869 3.9624 4.5148,
		 -8.2113 3.9624 1.6026,
		 -8.2320 3.9624 -1.5582,
		 -7.0459 3.9624 -4.4863,
		 -4.8334 3.9624 -6.7361,
		 -1.9316 3.9624 -7.9648,
		 1.2179 3.9624 -7.9856,
		 4.1356 3.9624 -6.7953,
		 6.3773 3.9624 -4.5750,
		 7.6017 3.9624 -1.6628,
		 7.6224 3.9624 1.4980,
		 6.4363 3.9624 4.4261,
		 4.2238 3.9624 6.6758,
		 1.3220 3.9624 7.9046,
		 -1.8275 3.9624 7.9254,
		 -4.7452 3.9624 6.7351,
		 -7.1248 3.6576 4.6085,
		 -8.3745 3.6576 1.6362,
		 -8.3956 3.6576 -1.5897,
		 -7.1850 3.6576 -4.5783,
		 -4.9269 3.6576 -6.8744,
		 -1.9652 3.6576 -8.1286,
		 1.2494 3.6576 -8.1498,
		 4.2273 3.6576 -6.9349,
		 6.5152 3.6576 -4.6688,
		 7.7649 3.6576 -1.6965,
		 7.7860 3.6576 1.5295,
		 6.5754 3.6576 4.5181,
		 4.3173 3.6576 6.8142,
		 1.3556 3.6576 8.0683,
		 -1.8590 3.6576 8.0896,
		 -4.8369 3.6576 6.8747,
		 1.6899 3.6576 -7.9701,
		 -2.3395 3.6576 -7.9701,
		 4.4200 3.6576 -6.7440,
		 1.2861 3.6576 -7.9701,
		 4.2533 3.6576 -6.7440,
		 6.5981 3.6576 -4.4716,
		 6.5272 3.6576 -4.4716,
		 7.7662 3.6576 -1.4990,
		 7.7615 3.6576 -1.4990,
		 7.7681 3.6576 1.5738,
		 -8.3948 3.6576 -1.4646,
		 -8.3640 3.6576 1.6611,
		 -8.3707 3.6576 -1.4646,
		 -7.2400 3.6576 -4.4425,
		 -7.1490 3.6576 -4.4425,
		 -5.0743 3.6576 -6.7245,
		 -4.8848 3.6576 -6.7245,
		 -2.3556 3.6576 -7.9632,
		 -1.9228 3.6576 -7.9632,
		 -2.3395 3.6576 -7.9701
		]
	} #Coordinate3
	Material {
		ambientColor      0.2500 0.2500 0.2500  #ambientColor
		diffuseColor      1.0000 1.0000 1.0000  #diffuseColor
		transparency      0.0000                #transparency
	} #Material

	IndexedFaceSet {
		coordIndex [ 
		 0, 16, 1,-1,
		 1, 16, 0,-1,
		 0, 1, 2,-1,
		 2, 1, 0,-1,
		 0, 2, 3,-1,
		 3, 2, 0,-1,
		 0, 3, 4,-1,
		 4, 3, 0,-1,
		 0, 4, 5,-1,
		 5, 4, 0,-1,
		 0, 5, 6,-1,
		 6, 5, 0,-1,
		 0, 6, 7,-1,
		 7, 6, 0,-1,
		 0, 7, 8,-1,
		 8, 7, 0,-1,
		 0, 8, 9,-1,
		 9, 8, 0,-1,
		 0, 9, 10,-1,
		 10, 9, 0,-1,
		 0, 10, 11,-1,
		 11, 10, 0,-1,
		 0, 11, 12,-1,
		 12, 11, 0,-1,
		 0, 12, 13,-1,
		 13, 12, 0,-1,
		 0, 13, 14,-1,
		 14, 13, 0,-1,
		 0, 14, 15,-1,
		 15, 14, 0,-1,
		 0, 15, 16,-1,
		 16, 15, 0,-1,
		]
	} #IndexedFaceSet
	Material {
		ambientColor      0.1324 0.1324 0.1324  #ambientColor
		diffuseColor      0.5294 0.5294 0.5294  #diffuseColor
		transparency      0.0000                #transparency
	} #Material

	IndexedFaceSet {
		coordIndex [ 
		 1, 16, 32, 17,-1,
		 17, 32, 16, 1,-1,
		 2, 1, 17, 18,-1,
		 18, 17, 1, 2,-1,
		 3, 2, 18, 19,-1,
		 19, 18, 2, 3,-1,
		 4, 3, 19, 20,-1,
		 20, 19, 3, 4,-1,
		 5, 4, 20, 21,-1,
		 21, 20, 4, 5,-1,
		 6, 5, 21, 22,-1,
		 22, 21, 5, 6,-1,
		 7, 6, 22, 23,-1,
		 23, 22, 6, 7,-1,
		 8, 7, 23, 24,-1,
		 24, 23, 7, 8,-1,
		 9, 8, 24, 25,-1,
		 25, 24, 8, 9,-1,
		 10, 9, 25, 26,-1,
		 26, 25, 9, 10,-1,
		 11, 10, 26, 27,-1,
		 27, 26, 10, 11,-1,
		 12, 11, 27, 28,-1,
		 28, 27, 11, 12,-1,
		 13, 12, 28, 29,-1,
		 29, 28, 12, 13,-1,
		 14, 13, 29, 30,-1,
		 30, 29, 13, 14,-1,
		 15, 14, 30, 31,-1,
		 31, 30, 14, 15,-1,
		 16, 15, 31, 32,-1,
		 32, 31, 15, 16,-1,
		]
	} #IndexedFaceSet
	Material {
		ambientColor      0.2500 0.2500 0.2500  #ambientColor
		diffuseColor      1.0000 1.0000 1.0000  #diffuseColor
		transparency      0.0000                #transparency
	} #Material

	IndexedFaceSet {
		coordIndex [ 
		 17, 32, 48, 33,-1,
		 33, 48, 32, 17,-1,
		 18, 17, 33, 34,-1,
		 34, 33, 17, 18,-1,
		 19, 18, 34, 35,-1,
		 35, 34, 18, 19,-1,
		 20, 19, 35, 36,-1,
		 36, 35, 19, 20,-1,
		 21, 20, 36, 37,-1,
		 37, 36, 20, 21,-1,
		 22, 21, 37, 38,-1,
		 38, 37, 21, 22,-1,
		 23, 22, 38, 39,-1,
		 39, 38, 22, 23,-1,
		 24, 23, 39, 40,-1,
		 40, 39, 23, 24,-1,
		 25, 24, 40, 41,-1,
		 41, 40, 24, 25,-1,
		 26, 25, 41, 42,-1,
		 42, 41, 25, 26,-1,
		 27, 26, 42, 43,-1,
		 43, 42, 26, 27,-1,
		 28, 27, 43, 44,-1,
		 44, 43, 27, 28,-1,
		 29, 28, 44, 45,-1,
		 45, 44, 28, 29,-1,
		 30, 29, 45, 46,-1,
		 46, 45, 29, 30,-1,
		 31, 30, 46, 47,-1,
		 47, 46, 30, 31,-1,
		 32, 31, 47, 48,-1,
		 48, 47, 31, 32,-1,
		]
	} #IndexedFaceSet
	Material {
		ambientColor      0.1324 0.1324 0.1324  #ambientColor
		diffuseColor      0.5294 0.5294 0.5294  #diffuseColor
		transparency      0.0000                #transparency
	} #Material

	IndexedFaceSet {
		coordIndex [ 
		 33, 48, 64, 49,-1,
		 49, 64, 48, 33,-1,
		 34, 33, 49, 50,-1,
		 50, 49, 33, 34,-1,
		 35, 34, 50, 51,-1,
		 51, 50, 34, 35,-1,
		 36, 35, 51, 52,-1,
		 52, 51, 35, 36,-1,
		 37, 36, 52, 53,-1,
		 53, 52, 36, 37,-1,
		 38, 37, 53, 54,-1,
		 54, 53, 37, 38,-1,
		 39, 38, 54, 55,-1,
		 55, 54, 38, 39,-1,
		 40, 39, 55, 56,-1,
		 56, 55, 39, 40,-1,
		 41, 40, 56, 57,-1,
		 57, 56, 40, 41,-1,
		 42, 41, 57, 58,-1,
		 58, 57, 41, 42,-1,
		 43, 42, 58, 59,-1,
		 59, 58, 42, 43,-1,
		 44, 43, 59, 60,-1,
		 60, 59, 43, 44,-1,
		 45, 44, 60, 61,-1,
		 61, 60, 44, 45,-1,
		 46, 45, 61, 62,-1,
		 62, 61, 45, 46,-1,
		 47, 46, 62, 63,-1,
		 63, 62, 46, 47,-1,
		 48, 47, 63, 64,-1,
		 64, 63, 47, 48,-1,
		]
	} #IndexedFaceSet
	Material {
		ambientColor      0.2500 0.2500 0.2500  #ambientColor
		diffuseColor      1.0000 1.0000 1.0000  #diffuseColor
		transparency      0.0000                #transparency
	} #Material

	IndexedFaceSet {
		coordIndex [ 
		 49, 64, 80, 65,-1,
		 65, 80, 64, 49,-1,
		 50, 49, 65, 66,-1,
		 66, 65, 49, 50,-1,
		 51, 50, 66, 67,-1,
		 67, 66, 50, 51,-1,
		 52, 51, 67, 68,-1,
		 68, 67, 51, 52,-1,
		 53, 52, 68, 69,-1,
		 69, 68, 52, 53,-1,
		 54, 53, 69, 70,-1,
		 70, 69, 53, 54,-1,
		 55, 54, 70, 71,-1,
		 71, 70, 54, 55,-1,
		 56, 55, 71, 72,-1,
		 72, 71, 55, 56,-1,
		 57, 56, 72, 73,-1,
		 73, 72, 56, 57,-1,
		 58, 57, 73, 74,-1,
		 74, 73, 57, 58,-1,
		 59, 58, 74, 75,-1,
		 75, 74, 58, 59,-1,
		 60, 59, 75, 76,-1,
		 76, 75, 59, 60,-1,
		 61, 60, 76, 77,-1,
		 77, 76, 60, 61,-1,
		 62, 61, 77, 78,-1,
		 78, 77, 61, 62,-1,
		 63, 62, 78, 79,-1,
		 79, 78, 62, 63,-1,
		 64, 63, 79, 80,-1,
		 80, 79, 63, 64,-1,
		]
	} #IndexedFaceSet
	Material {
		ambientColor      0.2500 0.2500 0.2500  #ambientColor
		diffuseColor      1.0000 1.0000 1.0000  #diffuseColor
		transparency      1.0000                #transparency
	} #Material

	IndexedFaceSet {
		coordIndex [ 
		 81, 71, 70, 82,-1,
		 83, 72, 81, 84, 85,-1,
		 86, 73, 83, 85, 87,-1,
		 88, 74, 86, 87, 89,-1,
		 90, 75, 88, 89,-1,
		 91, 66, 92, 93,-1,
		 94, 67, 91, 93, 95,-1,
		 96, 68, 94, 95, 97,-1,
		 98, 69, 96, 97, 99,-1,
		 100, 98, 99, 84,-1,
		 65, 66, 67, 68, 69, 70, 71, 72, 73, 74, 75, 76, 77, 78, 79, 80,-1,
		]
	} #IndexedFaceSet
} #Polyhedron
}
