#VRML V1.0 ascii

Separator {
	Info { string "Virtus VRML 1.0.1
	VRML Export Filter
	Virtus Corporation
	114 MacKenan Drive, Suite 100
	Cary, NC 27511
	919-467-9700"}

	DEF BackgroundColor Info{  # Sky color
		string " 0.3 0.8 1.0 "
	}

	DirectionalLight {
		on         TRUE          # SFBool
		intensity  1.0           # SFFloat
		color      0.4 0.4 0.4   # SFColor
		direction  0 0 0   # SFVec3f
	}

	DirectionalLight {
		on         TRUE          # SFBool
		intensity  1.0           # SFFloat
		color      0.5 0.5 0.5   # SFColor
		direction  34 -247 -57   # SFVec3f
	}

	DirectionalLight {
		on         TRUE          # SFBool
		intensity  1.0           # SFFloat
		color      0.4 0.4 0.4   # SFColor
		direction  -209 -104 105   # SFVec3f
	}

	DirectionalLight {
		on         TRUE          # SFBool
		intensity  1.0           # SFFloat
		color      0.5 0.5 0.5   # SFColor
		direction  5 119 -226   # SFVec3f
	}

	PerspectiveCamera {
		position 0.0000 1.5240 0.0000          #SFVec3f 
		focalDistance  5            #SFFloat 
		heightAngle 1.9201 
	}

	ShapeHints {
		vertexOrdering	CLOCKWISE
		shapeType	SOLID
	}

	Transform {
		translation 0 0 0
		scaleFactor 1.0 1.0 1.0
	}

Separator { #Polyhedron
	DEF COORD0 Coordinate3 {
		point [
		 0.5038 0.7620 -5.4271,
		 0.5038 0.7789 -5.4060,
		 0.5038 0.7916 -5.4060,
		 0.5038 0.8086 -5.4229,
		 0.5038 0.8128 -5.4483,
		 0.5038 0.8128 -6.4135,
		 0.5038 0.7620 -6.4135,
		 0.0042 0.7620 -5.4271,
		 0.0042 0.7789 -5.4060,
		 0.0042 0.7916 -5.4060,
		 0.0042 0.8086 -5.4229,
		 0.0042 0.8128 -5.4483,
		 0.0042 0.8128 -6.4135,
		 0.0042 0.7620 -6.4135,
		 0.5038 0.8128 -5.6134,
		 0.0042 0.8128 -5.6134,
		 0.0804 0.8128 -6.0113,
		 0.0804 0.8128 -5.6134,
		 0.0042 0.8128 -6.0113,
		 0.0042 0.8128 -6.0113,
		 0.5038 0.8128 -6.0113,
		 0.4276 0.8128 -5.6134,
		 0.4276 0.8128 -6.0113,
		 0.5038 0.8128 -6.0113,
		 0.5038 0.8128 -5.6134,
		 0.0042 0.8128 -5.6134,
		 0.5038 0.8128 -5.6134,
		 0.0042 0.8128 -6.0113,
		 0.5038 0.8128 -6.0113,
		 0.0042 0.8128 -6.0113,
		 0.5038 0.8128 -5.6134,
		 0.5038 0.8128 -6.0113
		]
	} #Coordinate3
	Material {
		ambientColor      0.1108 0.1108 0.2500  #ambientColor
		diffuseColor      0.4431 0.4431 1.0000  #diffuseColor
		transparency      0.0000                #transparency
	} #Material

	IndexedFaceSet {
		coordIndex [ 
		 0, 1, 2, 3, 4, 5, 6,-1,
		 6, 5, 4, 3, 2, 1, 0,-1,
		 0, 6, 13, 7,-1,
		 7, 13, 6, 0,-1,
		 1, 0, 7, 8,-1,
		 8, 7, 0, 1,-1,
		 2, 1, 8, 9,-1,
		 9, 8, 1, 2,-1,
		 3, 2, 9, 10,-1,
		 10, 9, 2, 3,-1,
		 4, 3, 10, 11,-1,
		 11, 10, 3, 4,-1,
		 14, 4, 11, 15,-1,
		 16, 17, 15, 18,-1,
		 19, 12, 5, 20,-1,
		 21, 22, 23, 24,-1,
		]
	} #IndexedFaceSet
	Material {
		ambientColor      0.0833 0.0833 0.0833  #ambientColor
		diffuseColor      0.3333 0.3333 0.3333  #diffuseColor
		transparency      0.0000                #transparency
	} #Material

	IndexedFaceSet {
		coordIndex [ 
		 17, 16, 22, 21,-1,
		]
	} #IndexedFaceSet
	Material {
		ambientColor      0.1108 0.1108 0.2500  #ambientColor
		diffuseColor      0.4431 0.4431 1.0000  #diffuseColor
		transparency      0.0000                #transparency
	} #Material

	IndexedFaceSet {
		coordIndex [ 
		 25, 11, 4, 26,-1,
		 27, 25, 17, 16,-1,
		 28, 5, 12, 29,-1,
		 30, 31, 22, 21,-1,
		]
	} #IndexedFaceSet
	Material {
		ambientColor      0.0833 0.0833 0.0833  #ambientColor
		diffuseColor      0.3333 0.3333 0.3333  #diffuseColor
		transparency      0.0000                #transparency
	} #Material

	IndexedFaceSet {
		coordIndex [ 
		 21, 22, 16, 17,-1,
		]
	} #IndexedFaceSet
	Material {
		ambientColor      0.1108 0.1108 0.2500  #ambientColor
		diffuseColor      0.4431 0.4431 1.0000  #diffuseColor
		transparency      0.0000                #transparency
	} #Material

	IndexedFaceSet {
		coordIndex [ 
		 6, 5, 12, 13,-1,
		 13, 12, 5, 6,-1,
		 13, 12, 11, 10, 9, 8, 7,-1,
		 7, 8, 9, 10, 11, 12, 13,-1,
		]
	} #IndexedFaceSet
} #Polyhedron
Separator { #Polyhedron
	DEF COORD1 Coordinate3 {
		point [
		 0.5038 0.8848 -6.2738,
		 0.5038 0.9694 -6.3288,
		 0.5038 0.9694 -6.3669,
		 0.5038 0.8128 -6.3669,
		 0.5038 0.8128 -6.2738,
		 0.0000 0.8848 -6.2738,
		 0.0000 0.9694 -6.3288,
		 0.0000 0.9694 -6.3669,
		 0.0000 0.8128 -6.3669,
		 0.0000 0.8128 -6.2738
		]
	} #Coordinate3
	Material {
		ambientColor      0.1108 0.1108 0.2500  #ambientColor
		diffuseColor      0.4431 0.4431 1.0000  #diffuseColor
		transparency      0.0000                #transparency
	} #Material

	IndexedFaceSet {
		coordIndex [ 
		 0, 1, 2, 3, 4,-1,
		 4, 3, 2, 1, 0,-1,
		 0, 4, 9, 5,-1,
		 5, 9, 4, 0,-1,
		 1, 0, 5, 6,-1,
		 6, 5, 0, 1,-1,
		 2, 1, 6, 7,-1,
		 7, 6, 1, 2,-1,
		 3, 2, 7, 8,-1,
		 8, 7, 2, 3,-1,
		 4, 3, 8, 9,-1,
		 9, 8, 3, 4,-1,
		 9, 8, 7, 6, 5,-1,
		 5, 6, 7, 8, 9,-1,
		]
	} #IndexedFaceSet
} #Polyhedron
Separator { #Polyhedron
	DEF COORD2 Coordinate3 {
		point [
		 0.1686 0.8944 -6.1272,
		 0.1686 0.8944 -6.0718,
		 0.1143 0.8944 -6.0718,
		 0.1143 0.8944 -6.1272,
		 0.1686 0.8182 -6.1272,
		 0.1686 0.8182 -6.0718,
		 0.1143 0.8182 -6.0718,
		 0.1143 0.8182 -6.1272
		]
	} #Coordinate3
	Material {
		ambientColor      0.2294 0.2294 0.2294  #ambientColor
		diffuseColor      0.9176 0.9176 0.9176  #diffuseColor
		transparency      0.0000                #transparency
	} #Material

	IndexedFaceSet {
		coordIndex [ 
		 0, 1, 2, 3,-1,
		 3, 2, 1, 0,-1,
		 0, 3, 7, 4,-1,
		 4, 7, 3, 0,-1,
		 1, 0, 4, 5,-1,
		 5, 4, 0, 1,-1,
		 2, 1, 5, 6,-1,
		 6, 5, 1, 2,-1,
		 3, 2, 6, 7,-1,
		 7, 6, 2, 3,-1,
		 7, 6, 5, 4,-1,
		 4, 5, 6, 7,-1,
		]
	} #IndexedFaceSet
} #Polyhedron
Separator { #Polyhedron
	DEF COORD3 Coordinate3 {
		point [
		 0.3845 0.8944 -6.1272,
		 0.3845 0.8944 -6.0718,
		 0.3394 0.8944 -6.0718,
		 0.3394 0.8944 -6.1272,
		 0.3845 0.8182 -6.1272,
		 0.3845 0.8182 -6.0718,
		 0.3394 0.8182 -6.0718,
		 0.3394 0.8182 -6.1272
		]
	} #Coordinate3
	Material {
		ambientColor      0.2294 0.2294 0.2294  #ambientColor
		diffuseColor      0.9176 0.9176 0.9176  #diffuseColor
		transparency      0.0000                #transparency
	} #Material

	IndexedFaceSet {
		coordIndex [ 
		 0, 1, 2, 3,-1,
		 3, 2, 1, 0,-1,
		 0, 3, 7, 4,-1,
		 4, 7, 3, 0,-1,
		 1, 0, 4, 5,-1,
		 5, 4, 0, 1,-1,
		 2, 1, 5, 6,-1,
		 6, 5, 1, 2,-1,
		 3, 2, 6, 7,-1,
		 7, 6, 2, 3,-1,
		 7, 6, 5, 4,-1,
		 4, 5, 6, 7,-1,
		]
	} #IndexedFaceSet
} #Polyhedron
Separator { #Polyhedron
	DEF COORD4 Coordinate3 {
		point [
		 0.2901 0.9972 -5.9580,
		 0.3043 0.9972 -5.9238,
		 0.2901 0.9972 -5.8895,
		 0.2558 0.9972 -5.8753,
		 0.2216 0.9972 -5.8895,
		 0.2074 0.9972 -5.9238,
		 0.2216 0.9972 -5.9580,
		 0.2558 0.9972 -5.9722,
		 0.2901 0.8205 -6.1580,
		 0.3043 0.8205 -6.1237,
		 0.2901 0.8205 -6.0894,
		 0.2558 0.8205 -6.0752,
		 0.2216 0.8205 -6.0894,
		 0.2074 0.8205 -6.1237,
		 0.2216 0.8205 -6.1580,
		 0.2558 0.8205 -6.1722
		]
	} #Coordinate3
	Material {
		ambientColor      0.2294 0.2294 0.2294  #ambientColor
		diffuseColor      0.9176 0.9176 0.9176  #diffuseColor
		transparency      0.0000                #transparency
	} #Material

	IndexedFaceSet {
		coordIndex [ 
		 0, 1, 2, 3, 4, 5, 6, 7,-1,
		 7, 6, 5, 4, 3, 2, 1, 0,-1,
		 0, 7, 15, 8,-1,
		 8, 15, 7, 0,-1,
		 1, 0, 8, 9,-1,
		 9, 8, 0, 1,-1,
		 2, 1, 9, 10,-1,
		 10, 9, 1, 2,-1,
		 3, 2, 10, 11,-1,
		 11, 10, 2, 3,-1,
		 4, 3, 11, 12,-1,
		 12, 11, 3, 4,-1,
		 5, 4, 12, 13,-1,
		 13, 12, 4, 5,-1,
		 6, 5, 13, 14,-1,
		 14, 13, 5, 6,-1,
		 7, 6, 14, 15,-1,
		 15, 14, 6, 7,-1,
		 15, 14, 13, 12, 11, 10, 9, 8,-1,
		 8, 9, 10, 11, 12, 13, 14, 15,-1,
		]
	} #IndexedFaceSet
} #Polyhedron
Separator { #Polyhedron
	DEF COORD5 Coordinate3 {
		point [
		 0.0028 0.7620 -5.4377,
		 0.0028 0.7620 -6.4029,
		 0.5065 0.7620 -6.4029,
		 0.5065 0.7620 -5.4377,
		 0.0028 0.0000 -5.4377,
		 0.0028 0.0000 -6.4029,
		 0.5065 0.0000 -6.4029,
		 0.5065 0.0000 -5.4377,
		 0.0028 0.6204 -5.4377,
		 0.5065 0.6204 -5.4377,
		 0.0028 0.6178 -5.4377,
		 0.2695 0.6204 -5.4377,
		 0.2695 0.6178 -5.4377,
		 0.5065 0.6204 -5.4377,
		 0.5065 0.6178 -5.4377,
		 0.4600 0.6178 -5.4377,
		 0.4600 0.6204 -5.4377,
		 0.0028 0.0929 -5.4377,
		 0.0512 0.6178 -5.4377,
		 0.0512 0.0929 -5.4377,
		 0.5065 0.0929 -5.4377,
		 0.0028 0.0929 -5.4377,
		 0.2417 0.0954 -5.4377,
		 0.2417 0.6178 -5.4377,
		 0.2695 0.6178 -5.4377,
		 0.2695 0.0954 -5.4377,
		 0.5065 0.0954 -5.4377,
		 0.5065 0.0929 -5.4377,
		 0.2417 0.0929 -5.4377,
		 0.2417 0.0954 -5.4377,
		 0.5065 0.6178 -5.4377,
		 0.5065 0.0954 -5.4377,
		 0.4600 0.0954 -5.4377,
		 0.4600 0.6178 -5.4377,
		 0.0512 0.5281 -5.4377,
		 0.2417 0.5281 -5.4377,
		 0.0512 0.3836 -5.4377,
		 0.0512 0.5281 -5.4377,
		 0.1788 0.5281 -5.4377,
		 0.1788 0.3836 -5.4377,
		 0.2417 0.3836 -5.4377,
		 0.0512 0.3836 -5.4377,
		 0.2417 0.5281 -5.4377,
		 0.2130 0.3836 -5.4377,
		 0.2130 0.5281 -5.4377,
		 0.2695 0.5281 -5.4377,
		 0.4600 0.5281 -5.4377,
		 0.2695 0.3836 -5.4377,
		 0.2695 0.5281 -5.4377,
		 0.2984 0.5281 -5.4377,
		 0.2984 0.3836 -5.4377,
		 0.4600 0.3836 -5.4377,
		 0.2695 0.3836 -5.4377,
		 0.4600 0.5281 -5.4377,
		 0.3325 0.3836 -5.4377,
		 0.3325 0.5281 -5.4377,
		 0.5065 0.6204 -5.4377,
		 0.0028 0.6204 -5.4377,
		 0.2695 0.6178 -5.4377,
		 0.0028 0.6178 -5.4377,
		 0.4600 0.6178 -5.4377,
		 0.5065 0.6178 -5.4377,
		 0.5065 0.6204 -5.4377,
		 0.0028 0.0929 -5.4377,
		 0.0028 0.0929 -5.4377,
		 0.5065 0.0929 -5.4377,
		 0.2695 0.6178 -5.4377,
		 0.2417 0.0954 -5.4377,
		 0.2417 0.0954 -5.4377,
		 0.5065 0.0929 -5.4377,
		 0.5065 0.0954 -5.4377,
		 0.4600 0.6178 -5.4377,
		 0.5065 0.0954 -5.4377,
		 0.5065 0.6178 -5.4377,
		 0.2417 0.5281 -5.4377,
		 0.0512 0.5281 -5.4377,
		 0.0512 0.5281 -5.4377,
		 0.0512 0.3836 -5.4377,
		 0.0512 0.3836 -5.4377,
		 0.2417 0.3836 -5.4377,
		 0.2417 0.5281 -5.4377,
		 0.4600 0.5281 -5.4377,
		 0.2695 0.5281 -5.4377,
		 0.2695 0.5281 -5.4377,
		 0.2695 0.3836 -5.4377,
		 0.2695 0.3836 -5.4377,
		 0.4600 0.3836 -5.4377,
		 0.4600 0.5281 -5.4377
		]
	} #Coordinate3
	Material {
		ambientColor      0.1108 0.1108 0.2500  #ambientColor
		diffuseColor      0.4431 0.4431 1.0000  #diffuseColor
		transparency      0.0000                #transparency
	} #Material

	IndexedFaceSet {
		coordIndex [ 
		 0, 1, 2, 3,-1,
		 3, 2, 1, 0,-1,
		 8, 0, 3, 9,-1,
		 10, 8, 11, 12,-1,
		 13, 14, 15, 16,-1,
		 17, 10, 18, 19,-1,
		 20, 7, 4, 21,-1,
		 22, 23, 24, 25,-1,
		 26, 27, 28, 29,-1,
		 30, 31, 32, 33,-1,
		]
	} #IndexedFaceSet
	Material {
		ambientColor      0.0275 0.0275 0.2500  #ambientColor
		diffuseColor      0.1098 0.1098 1.0000  #diffuseColor
		transparency      0.0000                #transparency
	} #Material

	IndexedFaceSet {
		coordIndex [ 
		 34, 18, 23, 35,-1,
		 36, 37, 38, 39,-1,
		 40, 28, 19, 41,-1,
		 42, 40, 43, 44,-1,
		 45, 11, 16, 46,-1,
		 47, 48, 49, 50,-1,
		 51, 32, 25, 52,-1,
		 53, 51, 54, 55,-1,
		]
	} #IndexedFaceSet
	Material {
		ambientColor      0.1324 0.1324 0.1324  #ambientColor
		diffuseColor      0.5294 0.5294 0.5294  #diffuseColor
		transparency      0.0000                #transparency
	} #Material

	IndexedFaceSet {
		coordIndex [ 
		 44, 43, 39, 38,-1,
		 55, 54, 50, 49,-1,
		]
	} #IndexedFaceSet
	Material {
		ambientColor      0.1108 0.1108 0.2500  #ambientColor
		diffuseColor      0.4431 0.4431 1.0000  #diffuseColor
		transparency      0.0000                #transparency
	} #Material

	IndexedFaceSet {
		coordIndex [ 
		 56, 3, 0, 57,-1,
		 58, 11, 57, 59,-1,
		 16, 60, 61, 62,-1,
		 19, 18, 59, 63,-1,
		 64, 4, 7, 65,-1,
		 25, 66, 23, 67,-1,
		 68, 28, 69, 70,-1,
		 71, 32, 72, 73,-1,
		]
	} #IndexedFaceSet
	Material {
		ambientColor      0.0275 0.0275 0.2500  #ambientColor
		diffuseColor      0.1098 0.1098 1.0000  #diffuseColor
		transparency      0.0000                #transparency
	} #Material

	IndexedFaceSet {
		coordIndex [ 
		 74, 23, 18, 75,-1,
		 39, 38, 76, 77,-1,
		 78, 19, 28, 79,-1,
		 44, 43, 79, 80,-1,
		 81, 16, 11, 82,-1,
		 50, 49, 83, 84,-1,
		 85, 25, 32, 86,-1,
		 55, 54, 86, 87,-1,
		]
	} #IndexedFaceSet
	Material {
		ambientColor      0.1324 0.1324 0.1324  #ambientColor
		diffuseColor      0.5294 0.5294 0.5294  #diffuseColor
		transparency      0.0000                #transparency
	} #Material

	IndexedFaceSet {
		coordIndex [ 
		 38, 39, 43, 44,-1,
		 49, 50, 54, 55,-1,
		]
	} #IndexedFaceSet
	Material {
		ambientColor      0.1108 0.1108 0.2500  #ambientColor
		diffuseColor      0.4431 0.4431 1.0000  #diffuseColor
		transparency      0.0000                #transparency
	} #Material

	IndexedFaceSet {
		coordIndex [ 
		 1, 0, 4, 5,-1,
		 5, 4, 0, 1,-1,
		 2, 1, 5, 6,-1,
		 6, 5, 1, 2,-1,
		 3, 2, 6, 7,-1,
		 7, 6, 2, 3,-1,
		 7, 6, 5, 4,-1,
		 4, 5, 6, 7,-1,
		]
	} #IndexedFaceSet
} #Polyhedron
}
