#VRML V1.0 ascii

Separator {
	Info { string "Virtus VRML 1.0.1
	VRML Export Filter
	Virtus Corporation
	114 MacKenan Drive, Suite 100
	Cary, NC 27511
	919-467-9700"}

	DEF BackgroundColor Info{  # Sky color
		string " 0.3 0.8 1.0 "
	}

	DirectionalLight {
		on         TRUE          # SFBool
		intensity  1.0           # SFFloat
		color      0.4 0.4 0.4   # SFColor
		direction  0 0 0   # SFVec3f
	}

	DirectionalLight {
		on         TRUE          # SFBool
		intensity  1.0           # SFFloat
		color      0.5 0.5 0.5   # SFColor
		direction  34 -247 -57   # SFVec3f
	}

	DirectionalLight {
		on         TRUE          # SFBool
		intensity  1.0           # SFFloat
		color      0.4 0.4 0.4   # SFColor
		direction  -209 -104 105   # SFVec3f
	}

	DirectionalLight {
		on         TRUE          # SFBool
		intensity  1.0           # SFFloat
		color      0.5 0.5 0.5   # SFColor
		direction  5 119 -226   # SFVec3f
	}

	PerspectiveCamera {
		position 0.0000 1.6764 0.0000          #SFVec3f 
		focalDistance  5            #SFFloat 
		heightAngle 1.9201 
	}

	ShapeHints {
		vertexOrdering	CLOCKWISE
		shapeType	SOLID
	}

	Transform {
		translation 0 0 0
		scaleFactor 1.0 1.0 1.0
	}

Separator { #Polyhedron
	DEF COORD0 Coordinate3 {
		point [
		 0.0284 0.3425 -0.1509,
		 0.0237 0.3048 -0.1628,
		 0.0561 0.2016 -0.1955,
		 0.0786 0.2031 -0.1951,
		 0.0791 0.3152 -0.1595,
		 0.0688 0.3451 -0.1500,
		 0.0283 0.3224 0.2683,
		 0.0237 0.2847 0.2564,
		 0.0561 0.1815 0.2237,
		 0.0786 0.1830 0.2241,
		 0.0791 0.2951 0.2597,
		 0.0688 0.3250 0.2692,
		 0.0688 0.3338 0.0855,
		 0.0283 0.3312 0.0847,
		 0.0237 0.2932 0.0784,
		 0.0561 0.1893 0.0616,
		 0.0786 0.1907 0.0621,
		 0.0791 0.3037 0.0807,
		 0.0281 0.3294 0.0844,
		 0.0237 0.2935 0.0730,
		 0.0561 0.1903 0.0403,
		 0.0786 0.1918 0.0407,
		 0.0791 0.3039 0.0763,
		 0.0694 0.3321 0.0853,
		 0.0688 0.3341 0.0781,
		 0.0283 0.3315 0.0773,
		 0.0269 0.3192 0.0811,
		 0.0728 0.3222 0.0821,
		 0.0688 0.3378 0.0012,
		 0.0283 0.3352 0.0003,
		 0.0237 0.2981 -0.0236,
		 0.0561 0.1965 -0.0902,
		 0.0786 0.1980 -0.0897,
		 0.0791 0.3084 -0.0181,
		 0.0561 0.1928 -0.0129,
		 0.0244 0.2960 -0.0250,
		 0.0786 0.1943 -0.0124,
		 0.0791 0.2996 -0.0239,
		 0.0239 0.2952 0.0735,
		 0.0237 0.2935 0.0729,
		 0.0561 0.1906 0.0337,
		 0.0786 0.1921 0.0342,
		 0.0791 0.2988 0.0747
		]
	} #Coordinate3
	Material {
		ambientColor      0.2088 0.2088 0.0000  #ambientColor
		diffuseColor      0.8353 0.8353 0.0000  #diffuseColor
		transparency      0.0000                #transparency
	} #Material

	IndexedFaceSet {
		coordIndex [ 
		 28, 24, 25, 29,-1,
		 29, 25, 24, 28,-1,
		 29, 25, 26, 38, 39, 30,-1,
		 30, 39, 38, 26, 25, 29,-1,
		 30, 39, 40, 34, 35,-1,
		 35, 34, 40, 39, 30,-1,
		 34, 40, 41, 36,-1,
		 36, 41, 40, 34,-1,
		 36, 41, 42, 22, 33, 37,-1,
		 37, 33, 22, 42, 41, 36,-1,
		 33, 22, 27, 24, 28,-1,
		 28, 24, 27, 22, 33,-1,
		 38, 26, 27, 22, 42,-1,
		 42, 22, 27, 26, 38,-1,
		 25, 24, 27, 26,-1,
		 26, 27, 24, 25,-1,
		 28, 29, 30, 35, 37, 33,-1,
		 33, 37, 35, 30, 29, 28,-1,
		 35, 34, 36, 37,-1,
		 37, 36, 34, 35,-1,
		 39, 38, 42, 41, 40,-1,
		 40, 41, 42, 38, 39,-1,
		]
	} #IndexedFaceSet
} #Polyhedron
Separator { #Polyhedron
	DEF COORD1 Coordinate3 {
		point [
		 -0.0618 0.3414 -0.2267,
		 -0.0691 0.3039 -0.2335,
		 -0.0440 0.1993 -0.2524,
		 -0.0214 0.1999 -0.2522,
		 -0.0130 0.3121 -0.2320,
		 -0.0212 0.3424 -0.2265,
		 -0.0618 0.3300 0.1944,
		 -0.0691 0.2925 0.1876,
		 -0.0440 0.1879 0.1687,
		 -0.0214 0.1885 0.1689,
		 -0.0130 0.3007 0.1891,
		 -0.0212 0.3310 0.1946,
		 -0.0212 0.3360 0.0101,
		 -0.0618 0.3350 0.0099,
		 -0.0691 0.2973 0.0088,
		 -0.0440 0.1923 0.0059,
		 -0.0214 0.1929 0.0060,
		 -0.0130 0.3056 0.0093,
		 -0.0622 0.3333 0.0099,
		 -0.0691 0.2974 0.0034,
		 -0.0440 0.1929 -0.0155,
		 -0.0214 0.1935 -0.0154,
		 -0.0130 0.3057 0.0049,
		 -0.0207 0.3343 0.0100,
		 -0.0212 0.3362 0.0027,
		 -0.0618 0.3352 0.0025,
		 -0.0641 0.3230 0.0080,
		 -0.0180 0.3242 0.0082,
		 -0.0212 0.3383 -0.0746,
		 -0.0618 0.3373 -0.0748,
		 -0.0691 0.3001 -0.0937,
		 -0.0440 0.1965 -0.1465,
		 -0.0214 0.1971 -0.1464,
		 -0.0130 0.3083 -0.0900,
		 -0.0440 0.1944 -0.0689,
		 -0.0686 0.2979 -0.0948,
		 -0.0214 0.1950 -0.0687,
		 -0.0137 0.2994 -0.0945,
		 -0.0688 0.2992 0.0037,
		 -0.0691 0.2975 0.0033,
		 -0.0440 0.1931 -0.0221,
		 -0.0214 0.1937 -0.0220,
		 -0.0134 0.3006 0.0040
		]
	} #Coordinate3
	Material {
		ambientColor      0.2088 0.2088 0.0000  #ambientColor
		diffuseColor      0.8353 0.8353 0.0000  #diffuseColor
		transparency      0.0000                #transparency
	} #Material

	IndexedFaceSet {
		coordIndex [ 
		 28, 24, 25, 29,-1,
		 29, 25, 24, 28,-1,
		 29, 25, 26, 38, 39, 30,-1,
		 30, 39, 38, 26, 25, 29,-1,
		 30, 39, 40, 34, 35,-1,
		 35, 34, 40, 39, 30,-1,
		 34, 40, 41, 36,-1,
		 36, 41, 40, 34,-1,
		 36, 41, 42, 22, 33, 37,-1,
		 37, 33, 22, 42, 41, 36,-1,
		 33, 22, 27, 24, 28,-1,
		 28, 24, 27, 22, 33,-1,
		 38, 26, 27, 22, 42,-1,
		 42, 22, 27, 26, 38,-1,
		 25, 24, 27, 26,-1,
		 26, 27, 24, 25,-1,
		 28, 29, 30, 35, 37, 33,-1,
		 33, 37, 35, 30, 29, 28,-1,
		 35, 34, 36, 37,-1,
		 37, 36, 34, 35,-1,
		 39, 38, 42, 41, 40,-1,
		 40, 41, 42, 38, 39,-1,
		]
	} #IndexedFaceSet
} #Polyhedron
Separator { #Polyhedron
	DEF COORD2 Coordinate3 {
		point [
		 0.0673 0.4779 0.2140,
		 0.0683 0.3526 0.2593,
		 0.0233 0.3496 0.2597,
		 -0.0006 0.4768 0.2134,
		 0.0552 0.5042 0.2043,
		 0.0683 0.4637 -0.0473,
		 0.0693 0.3384 -0.0020,
		 0.0243 0.3355 -0.0016,
		 0.0004 0.4627 -0.0479,
		 0.0562 0.4900 -0.0569,
		 0.0561 0.4913 -0.0341,
		 0.0683 0.4640 -0.0418,
		 0.0684 0.4553 -0.0442,
		 0.0026 0.4510 -0.0436,
		 0.0004 0.4631 -0.0403,
		 0.0670 0.4669 -0.0410,
		 0.0683 0.4641 -0.0407,
		 0.0685 0.4383 -0.0381,
		 0.0057 0.4342 -0.0375,
		 0.0005 0.4625 -0.0404,
		 0.0685 0.4391 -0.0381,
		 0.0693 0.3389 0.0059,
		 0.0242 0.3359 0.0063,
		 0.0056 0.4350 -0.0376,
		 0.0690 0.3775 -0.0111,
		 0.0692 0.3393 0.0140,
		 0.0242 0.3364 0.0144,
		 0.0170 0.3741 -0.0107,
		 0.0555 0.4993 0.1133,
		 0.0676 0.4736 0.1339,
		 0.0684 0.3510 0.2298,
		 0.0234 0.3480 0.2302,
		 -0.0003 0.4724 0.1319,
		 0.0689 0.3443 0.1057,
		 0.0676 0.4705 0.1363,
		 0.0239 0.3413 0.1061,
		 0.0009 0.4661 0.1369,
		 0.0556 0.4987 0.1024,
		 0.0677 0.4728 0.1203,
		 0.0678 0.4547 0.1325,
		 -0.0002 0.4717 0.1186,
		 0.0038 0.4505 0.1330,
		 0.0556 0.4974 0.0786,
		 0.0677 0.4716 0.0970,
		 0.0680 0.4294 0.1263,
		 -0.0002 0.4704 0.0953,
		 0.0084 0.4255 0.1268,
		 0.0557 0.4972 0.0759,
		 0.0670 0.4732 0.0958,
		 -0.0002 0.4704 0.0951,
		 0.0002 0.4688 0.0964,
		 0.0690 0.3429 0.0800,
		 0.0679 0.4470 0.1141,
		 0.0240 0.3399 0.0804,
		 0.0051 0.4429 0.1146,
		 0.0561 0.4913 -0.0334,
		 0.0683 0.4643 -0.0377,
		 0.0684 0.4521 -0.0395,
		 0.0032 0.4478 -0.0389,
		 0.0003 0.4633 -0.0366,
		 0.0682 0.4188 0.1049,
		 0.0678 0.4599 0.1051,
		 0.0027 0.4556 0.1057,
		 0.0102 0.4150 0.1054,
		 -0.0000 0.4688 0.0653,
		 0.0125 0.4025 0.1012,
		 0.0108 0.4757 0.0913,
		 0.0160 0.4565 0.1055,
		 0.0126 0.4696 0.0963,
		 0.0146 0.4153 0.1053,
		 0.0679 0.4701 0.0703,
		 0.0576 0.4932 0.0793,
		 0.0682 0.4155 0.1038,
		 0.0556 0.4591 0.1052,
		 0.0560 0.4724 0.0959,
		 0.0669 0.4187 0.1049,
		 0.0117 0.4761 0.0910,
		 0.0105 0.4755 0.0907,
		 0.0308 0.4575 0.1054,
		 0.0192 0.4700 0.0963,
		 0.0153 0.4349 0.1054,
		 0.0331 0.4576 0.1054,
		 0.0541 0.4723 0.0960,
		 0.0561 0.4734 0.0952,
		 0.0592 0.4461 0.1051,
		 0.0172 0.3732 -0.0101,
		 0.0003 0.4636 -0.0305,
		 0.0030 0.4647 -0.0364,
		 0.0125 0.4355 -0.0377,
		 0.0093 0.4482 -0.0390,
		 0.0172 0.3741 -0.0107,
		 0.0647 0.4721 -0.0364,
		 0.0682 0.4647 -0.0298,
		 0.0689 0.3817 -0.0130,
		 0.0593 0.4385 -0.0381,
		 0.0600 0.4515 -0.0394,
		 0.0210 0.3531 0.0033,
		 0.0003 0.4641 -0.0217,
		 0.0069 0.4666 -0.0362,
		 0.0170 0.4357 -0.0377,
		 0.0138 0.4485 -0.0390,
		 0.0217 0.3744 -0.0107,
		 0.0001 0.4674 0.0392,
		 0.0126 0.4017 0.1009,
		 0.0046 0.4718 0.0765,
		 0.0126 0.4031 0.1014,
		 0.0163 0.3787 -0.0025,
		 0.0002 0.4650 -0.0043,
		 0.0060 0.4663 -0.0343,
		 0.0634 0.4750 -0.0360,
		 0.0681 0.4659 -0.0081,
		 0.0686 0.4264 -0.0220,
		 0.0637 0.4678 -0.0371,
		 0.0679 0.4689 0.0486,
		 0.0613 0.4848 0.0760,
		 0.0682 0.4259 0.0974
		]
	} #Coordinate3
	Material {
		ambientColor      0.2088 0.2088 0.0000  #ambientColor
		diffuseColor      0.8353 0.8353 0.0000  #diffuseColor
		transparency      0.0000                #transparency
	} #Material

	IndexedFaceSet {
		coordIndex [ 
		 47, 55, 109, 110, 113, 114, 71,-1,
		 71, 114, 113, 110, 109, 55, 47,-1,
		 113, 110, 111, 93, 24, 25, 51, 72, 115,-1,
		 115, 72, 51, 25, 24, 93, 111, 110, 113,-1,
		 51, 25, 26, 53,-1,
		 53, 26, 25, 51,-1,
		 53, 26, 96, 106, 107, 102, 103,-1,
		 103, 102, 107, 106, 96, 26, 53,-1,
		 102, 107, 108, 98, 55, 47, 76, 77, 104,-1,
		 104, 77, 76, 47, 55, 98, 108, 107, 102,-1,
		 99, 94, 95, 100,-1,
		 100, 95, 94, 99,-1,
		 24, 93, 94, 99, 101,-1,
		 101, 99, 94, 93, 24,-1,
		 25, 24, 101, 96, 26,-1,
		 26, 96, 101, 24, 25,-1,
		 81, 78, 79, 82,-1,
		 82, 79, 78, 81,-1,
		 47, 71, 83, 82, 79, 76,-1,
		 76, 79, 82, 83, 71, 47,-1,
		 72, 51, 53, 103, 105, 69, 75,-1,
		 75, 69, 105, 103, 53, 51, 72,-1,
		 109, 55, 98, 100, 95, 112,-1,
		 112, 95, 100, 98, 55, 109,-1,
		 75, 69, 80, 78, 81, 84,-1,
		 84, 81, 78, 80, 69, 75,-1,
		 104, 77, 80, 69, 105,-1,
		 105, 69, 80, 77, 104,-1,
		 71, 114, 115, 72, 75, 84, 83,-1,
		 83, 84, 75, 72, 115, 114, 71,-1,
		 77, 76, 79, 78, 80,-1,
		 80, 78, 79, 76, 77,-1,
		 81, 82, 83, 84,-1,
		 84, 83, 82, 81,-1,
		 112, 95, 94, 93, 111,-1,
		 111, 93, 94, 95, 112,-1,
		 106, 96, 101, 99, 100, 98, 108,-1,
		 108, 98, 100, 99, 101, 96, 106,-1,
		 103, 102, 104, 105,-1,
		 105, 104, 102, 103,-1,
		 107, 106, 108,-1,
		 108, 106, 107,-1,
		 110, 109, 112, 111,-1,
		 111, 112, 109, 110,-1,
		 114, 113, 115,-1,
		 115, 113, 114,-1,
		]
	} #IndexedFaceSet
} #Polyhedron
Separator { #Polyhedron
	DEF COORD3 Coordinate3 {
		point [
		 -0.0850 0.4768 -0.1911,
		 -0.0657 0.3527 -0.2419,
		 -0.0206 0.3539 -0.2417,
		 -0.0174 0.4819 -0.1895,
		 -0.0772 0.5039 -0.1801,
		 -0.0846 0.4608 0.0694,
		 -0.0653 0.3368 0.0186,
		 -0.0201 0.3379 0.0188,
		 -0.0170 0.4659 0.0711,
		 -0.0768 0.4879 0.0805,
		 -0.0768 0.4893 0.0576,
		 -0.0846 0.4611 0.0640,
		 -0.0833 0.4524 0.0660,
		 -0.0173 0.4541 0.0663,
		 -0.0170 0.4664 0.0635,
		 -0.0838 0.4641 0.0633,
		 -0.0846 0.4612 0.0629,
		 -0.0807 0.4356 0.0591,
		 -0.0177 0.4373 0.0594,
		 -0.0170 0.4658 0.0636,
		 -0.0808 0.4364 0.0592,
		 -0.0653 0.3372 0.0108,
		 -0.0202 0.3384 0.0111,
		 -0.0177 0.4380 0.0595,
		 -0.0713 0.3755 0.0295,
		 -0.0653 0.3377 0.0027,
		 -0.0202 0.3389 0.0029,
		 -0.0192 0.3768 0.0297,
		 -0.0771 0.4983 -0.0893,
		 -0.0849 0.4719 -0.1113,
		 -0.0657 0.3509 -0.2125,
		 -0.0205 0.3521 -0.2123,
		 -0.0173 0.4769 -0.1082,
		 -0.0655 0.3433 -0.0887,
		 -0.0844 0.4689 -0.1138,
		 -0.0203 0.3445 -0.0885,
		 -0.0175 0.4706 -0.1135,
		 -0.0770 0.4977 -0.0784,
		 -0.0848 0.4710 -0.0977,
		 -0.0820 0.4532 -0.1107,
		 -0.0173 0.4761 -0.0949,
		 -0.0178 0.4548 -0.1104,
		 -0.0770 0.4962 -0.0547,
		 -0.0848 0.4696 -0.0744,
		 -0.0782 0.4280 -0.1056,
		 -0.0172 0.4746 -0.0717,
		 -0.0184 0.4295 -0.1053,
		 -0.0770 0.4960 -0.0520,
		 -0.0843 0.4713 -0.0732,
		 -0.0172 0.4746 -0.0715,
		 -0.0173 0.4730 -0.0729,
		 -0.0654 0.3418 -0.0631,
		 -0.0810 0.4453 -0.0926,
		 -0.0203 0.3429 -0.0629,
		 -0.0180 0.4470 -0.0923,
		 -0.0768 0.4894 0.0570,
		 -0.0846 0.4614 0.0599,
		 -0.0828 0.4493 0.0611,
		 -0.0174 0.4510 0.0614,
		 -0.0170 0.4666 0.0598,
		 -0.0768 0.4173 -0.0846,
		 -0.0830 0.4581 -0.0830,
		 -0.0176 0.4598 -0.0827,
		 -0.0186 0.4188 -0.0843,
		 -0.0172 0.4734 -0.0505,
		 -0.0186 0.4173 -0.0839,
		 -0.0251 0.4774 -0.0689,
		 -0.0267 0.4596 -0.0828,
		 -0.0256 0.4728 -0.0729,
		 -0.0191 0.4188 -0.0843,
		 -0.0195 0.3653 0.0216,
		 -0.0170 0.4670 0.0537,
		 -0.0212 0.4682 0.0596,
		 -0.0291 0.4378 0.0595,
		 -0.0272 0.4507 0.0614,
		 -0.0227 0.3767 0.0297,
		 -0.0848 0.4691 -0.0667,
		 -0.0821 0.4787 -0.0668,
		 -0.0799 0.4382 -0.0838,
		 -0.0752 0.4583 -0.0830,
		 -0.0792 0.4714 -0.0732,
		 -0.0823 0.4695 0.0590,
		 -0.0846 0.4619 0.0520,
		 -0.0719 0.3796 0.0315,
		 -0.0715 0.4367 0.0593,
		 -0.0744 0.4495 0.0612,
		 -0.0287 0.4787 -0.0678,
		 -0.0231 0.4764 -0.0645,
		 -0.0369 0.4593 -0.0828,
		 -0.0318 0.4726 -0.0730,
		 -0.0209 0.4287 -0.0840,
		 -0.0829 0.4676 0.0573,
		 -0.0846 0.4629 0.0347,
		 -0.0818 0.4436 0.0475,
		 -0.0848 0.4681 -0.0489,
		 -0.0810 0.4825 -0.0636,
		 -0.0788 0.4305 -0.0841,
		 -0.0795 0.4721 -0.0726,
		 -0.0783 0.4453 -0.0835,
		 -0.0185 0.4066 0.0347,
		 -0.0171 0.4696 0.0103,
		 -0.0213 0.4682 0.0596,
		 -0.0213 0.4678 0.0597,
		 -0.0617 0.4587 -0.0829,
		 -0.0736 0.4716 -0.0732,
		 -0.0802 0.4769 -0.0684,
		 -0.0785 0.4394 -0.0838
		]
	} #Coordinate3
	Material {
		ambientColor      0.2088 0.2088 0.0000  #ambientColor
		diffuseColor      0.8353 0.8353 0.0000  #diffuseColor
		transparency      0.0000                #transparency
	} #Material

	IndexedFaceSet {
		coordIndex [ 
		 47, 55, 81, 91, 92, 94, 95,-1,
		 95, 94, 92, 91, 81, 55, 47,-1,
		 94, 92, 93, 83, 24, 25, 51, 60, 96,-1,
		 96, 60, 51, 25, 24, 83, 93, 92, 94,-1,
		 51, 25, 26, 53,-1,
		 53, 26, 25, 51,-1,
		 53, 26, 70, 99, 100, 64, 65,-1,
		 65, 64, 100, 99, 70, 26, 53,-1,
		 64, 100, 101, 55, 47, 86, 87,-1,
		 87, 86, 47, 55, 101, 100, 64,-1,
		 73, 84, 85, 74,-1,
		 74, 85, 84, 73,-1,
		 24, 83, 84, 73, 75,-1,
		 75, 73, 84, 83, 24,-1,
		 25, 24, 75, 70, 26,-1,
		 26, 70, 75, 24, 25,-1,
		 103, 88, 89, 104,-1,
		 104, 89, 88, 103,-1,
		 47, 95, 105, 104, 89, 86,-1,
		 86, 89, 104, 105, 95, 47,-1,
		 60, 51, 53, 65, 69,-1,
		 69, 65, 53, 51, 60,-1,
		 81, 55, 101, 102, 74, 85,-1,
		 85, 74, 102, 101, 55, 81,-1,
		 96, 60, 69, 90, 88, 103, 106,-1,
		 106, 103, 88, 90, 69, 60, 96,-1,
		 65, 64, 87, 90, 69,-1,
		 69, 90, 87, 64, 65,-1,
		 99, 70, 75, 73, 74, 102,-1,
		 102, 74, 73, 75, 70, 99,-1,
		 91, 81, 85, 84, 83, 93,-1,
		 93, 83, 84, 85, 81, 91,-1,
		 87, 86, 89, 88, 90,-1,
		 90, 88, 89, 86, 87,-1,
		 92, 91, 93,-1,
		 93, 91, 92,-1,
		 95, 94, 96, 106, 105,-1,
		 105, 106, 96, 94, 95,-1,
		 100, 99, 102, 101,-1,
		 101, 102, 99, 100,-1,
		 103, 104, 105, 106,-1,
		 106, 105, 104, 103,-1,
		]
	} #IndexedFaceSet
} #Polyhedron
Separator { #Polyhedron
	DEF COORD4 Coordinate3 {
		point [
		 0.0452 0.5373 0.0817,
		 0.0528 0.4854 0.0817,
		 -0.0081 0.4689 0.0817,
		 -0.0351 0.4707 0.0817,
		 -0.0822 0.4943 0.0817,
		 -0.0583 0.5440 0.0817,
		 0.0452 0.5373 -0.1821,
		 0.0528 0.4854 -0.1821,
		 -0.0081 0.4689 -0.1821,
		 -0.0351 0.4707 -0.1821,
		 -0.0822 0.4943 -0.1821,
		 -0.0583 0.5440 -0.1821,
		 0.0520 0.4906 0.0817,
		 -0.0799 0.4993 0.0817,
		 -0.0583 0.5440 0.0648,
		 0.0452 0.5373 0.0648,
		 0.0512 0.4967 0.0795,
		 0.0528 0.4854 0.0738,
		 -0.0081 0.4689 0.0632,
		 -0.0351 0.4707 0.0632,
		 -0.0822 0.4943 0.0738,
		 -0.0771 0.5051 0.0795,
		 -0.0583 0.5440 -0.0528,
		 0.0452 0.5373 -0.0528,
		 0.0528 0.4854 -0.0792,
		 -0.0081 0.4689 -0.0898,
		 -0.0351 0.4707 -0.0898,
		 -0.0822 0.4943 -0.0792,
		 0.0520 0.4906 -0.0766,
		 0.0528 0.4854 -0.0766,
		 -0.0081 0.4689 -0.0766,
		 -0.0351 0.4707 -0.0766,
		 -0.0822 0.4943 -0.0766,
		 -0.0799 0.4993 -0.0766,
		 -0.0081 0.4689 0.0619,
		 -0.0030 0.4703 0.0641,
		 -0.0351 0.4707 0.0619,
		 -0.0390 0.4726 0.0641,
		 0.0520 0.4906 -0.0766,
		 0.0528 0.4854 -0.0733,
		 -0.0081 0.4689 -0.0601,
		 -0.0351 0.4707 -0.0601,
		 -0.0822 0.4943 -0.0733,
		 -0.0799 0.4993 -0.0766,
		 0.0487 0.5133 0.0735,
		 0.0528 0.4854 0.0026,
		 0.0454 0.4834 0.0725,
		 0.0462 0.4970 0.0795,
		 0.0470 0.5249 0.0692,
		 0.0493 0.5095 0.0638,
		 0.0403 0.4820 0.0716,
		 0.0463 0.4837 0.0638,
		 0.0362 0.4976 0.0795,
		 -0.0822 0.4943 0.0553,
		 -0.0760 0.4912 0.0724,
		 -0.0720 0.5157 0.0755,
		 -0.0717 0.5047 0.0795,
		 -0.0822 0.4943 0.0114,
		 -0.0754 0.4909 0.0723,
		 -0.0723 0.5150 0.0749,
		 -0.0745 0.4959 0.0749,
		 0.0461 0.5312 0.0670,
		 0.0494 0.5085 0.0612,
		 0.0362 0.4809 0.0709,
		 0.0466 0.4837 0.0612,
		 0.0293 0.4981 0.0795,
		 0.0525 0.4873 0.0072,
		 0.0523 0.4853 0.0072,
		 0.0487 0.5133 -0.0650,
		 0.0528 0.4854 -0.0414,
		 0.0433 0.4828 -0.0712,
		 0.0426 0.4912 -0.0766,
		 -0.0714 0.4889 -0.0703,
		 -0.0822 0.4943 -0.0370,
		 -0.0695 0.5208 -0.0651,
		 -0.0681 0.4985 -0.0766,
		 -0.0758 0.4911 0.0685,
		 -0.0741 0.4902 0.0720,
		 -0.0697 0.5203 0.0737,
		 -0.0733 0.5129 0.0685,
		 -0.0686 0.5045 0.0795,
		 -0.0767 0.4915 0.0611,
		 -0.0675 0.4869 0.0705,
		 -0.0637 0.5329 0.0690,
		 -0.0744 0.5105 0.0611,
		 -0.0562 0.5037 0.0795
		]
	} #Coordinate3
	Material {
		ambientColor      0.2088 0.2088 0.0000  #ambientColor
		diffuseColor      0.8353 0.8353 0.0000  #diffuseColor
		transparency      0.0000                #transparency
	} #Material

	IndexedFaceSet {
		coordIndex [ 
		 14, 22, 23, 15,-1,
		 15, 23, 22, 14,-1,
		 61, 15, 23, 68, 69, 45, 66, 62,-1,
		 62, 66, 45, 69, 68, 23, 15, 61,-1,
		 45, 69, 70, 40, 34, 35, 63, 64, 67,-1,
		 67, 64, 63, 35, 34, 40, 70, 69, 45,-1,
		 34, 40, 41, 36,-1,
		 36, 41, 40, 34,-1,
		 36, 41, 72, 73, 57, 81, 82, 37,-1,
		 37, 82, 81, 57, 73, 72, 41, 36,-1,
		 57, 73, 74, 22, 14, 83, 84,-1,
		 84, 83, 14, 22, 74, 73, 57,-1,
		 83, 14, 15, 61, 65, 85,-1,
		 85, 65, 61, 15, 14, 83,-1,
		 63, 35, 37, 82, 85, 65,-1,
		 65, 85, 82, 37, 35, 63,-1,
		 23, 22, 74, 75, 71, 68,-1,
		 68, 71, 75, 74, 22, 23,-1,
		 35, 34, 36, 37,-1,
		 37, 36, 34, 35,-1,
		 71, 75, 72, 41, 40, 70,-1,
		 70, 40, 41, 72, 75, 71,-1,
		 62, 66, 67, 64,-1,
		 64, 67, 66, 62,-1,
		 81, 57, 84,-1,
		 84, 57, 81,-1,
		 61, 62, 64, 63, 65,-1,
		 65, 63, 64, 62, 61,-1,
		 66, 45, 67,-1,
		 67, 45, 66,-1,
		 69, 68, 71, 70,-1,
		 70, 71, 68, 69,-1,
		 73, 72, 75, 74,-1,
		 74, 75, 72, 73,-1,
		 82, 81, 84, 83, 85,-1,
		 85, 83, 84, 81, 82,-1,
		]
	} #IndexedFaceSet
} #Polyhedron
Separator { #Polyhedron
	DEF COORD5 Coordinate3 {
		point [
		 -0.0674 0.6746 -0.0972,
		 -0.0765 0.6304 -0.1052,
		 -0.0584 0.5488 -0.1199,
		 0.0456 0.5488 -0.1199,
		 0.0591 0.6304 -0.1052,
		 0.0501 0.6746 -0.0972,
		 -0.0674 0.6675 0.1660,
		 -0.0765 0.6234 0.1580,
		 -0.0584 0.5418 0.1433,
		 0.0456 0.5418 0.1433,
		 0.0591 0.6234 0.1580,
		 0.0501 0.6675 0.1660,
		 -0.0748 0.6389 -0.1036,
		 0.0574 0.6389 -0.1036,
		 0.0501 0.6741 -0.0788,
		 -0.0674 0.6741 -0.0788,
		 0.0501 0.6707 0.0475,
		 -0.0674 0.6707 0.0475,
		 -0.0765 0.6235 0.1536,
		 -0.0761 0.6217 0.1577,
		 0.0588 0.6217 0.1577,
		 0.0591 0.6235 0.1536,
		 -0.0685 0.6653 0.0598,
		 -0.0765 0.6242 0.1248,
		 -0.0725 0.6053 0.1548,
		 0.0561 0.6053 0.1548,
		 0.0591 0.6242 0.1248,
		 0.0511 0.6653 0.0598,
		 -0.0718 0.6482 0.0868,
		 -0.0765 0.6250 0.0963,
		 -0.0584 0.5421 0.1301,
		 0.0456 0.5421 0.1301,
		 0.0591 0.6250 0.0963,
		 0.0545 0.6482 0.0868,
		 -0.0697 0.5938 0.1090,
		 -0.0584 0.5426 0.1118,
		 0.0456 0.5426 0.1118,
		 0.0540 0.5938 0.1090,
		 -0.0646 0.5706 0.1103,
		 -0.0584 0.5431 0.0951,
		 0.0456 0.5431 0.0951,
		 0.0502 0.5706 0.1103,
		 -0.0731 0.6095 0.1026,
		 -0.0584 0.5432 0.0907,
		 0.0456 0.5432 0.0907,
		 0.0566 0.6095 0.1026,
		 -0.0734 0.6107 0.1021,
		 -0.0584 0.5438 0.0682,
		 0.0456 0.5438 0.0682,
		 0.0568 0.6107 0.1021,
		 -0.0729 0.6480 -0.0972,
		 -0.0765 0.6301 -0.0927,
		 -0.0584 0.5476 -0.0724,
		 0.0456 0.5476 -0.0724,
		 0.0591 0.6301 -0.0927,
		 0.0555 0.6480 -0.0972,
		 -0.0714 0.6551 -0.0922,
		 -0.0765 0.6298 -0.0819,
		 -0.0584 0.5469 -0.0480,
		 0.0456 0.5469 -0.0480,
		 0.0591 0.6298 -0.0819,
		 0.0540 0.6551 -0.0922,
		 0.0501 0.6739 -0.0709,
		 -0.0674 0.6739 -0.0709,
		 -0.0765 0.6297 -0.0789,
		 -0.0754 0.6246 -0.0798,
		 0.0591 0.6297 -0.0789,
		 0.0583 0.6246 -0.0798,
		 0.0501 0.6735 -0.0577,
		 -0.0674 0.6735 -0.0577,
		 -0.0685 0.6688 -0.0718,
		 0.0511 0.6688 -0.0718,
		 0.0501 0.6733 -0.0511,
		 -0.0674 0.6733 -0.0511,
		 -0.0765 0.6297 -0.0781,
		 -0.0761 0.6280 -0.0792,
		 0.0591 0.6297 -0.0781,
		 0.0588 0.6280 -0.0792,
		 0.0501 0.6730 -0.0380,
		 -0.0674 0.6730 -0.0380,
		 -0.0706 0.6582 -0.0605,
		 0.0532 0.6582 -0.0605,
		 -0.0764 0.6244 0.0965,
		 -0.0678 0.5859 0.0896,
		 0.0526 0.5859 0.0896,
		 0.0590 0.6244 0.0965,
		 -0.0723 0.6063 0.0932,
		 -0.0584 0.5440 0.0598,
		 0.0456 0.5440 0.0598,
		 0.0560 0.6063 0.0932,
		 0.0501 0.6729 -0.0330,
		 -0.0674 0.6729 -0.0330,
		 -0.0724 0.6492 -0.0661,
		 0.0551 0.6492 -0.0661,
		 -0.0765 0.6296 -0.0756,
		 -0.0741 0.6414 -0.0709,
		 -0.0748 0.6219 -0.0786,
		 0.0591 0.6296 -0.0756,
		 0.0578 0.6219 -0.0786,
		 0.0567 0.6414 -0.0709,
		 -0.0268 0.6707 0.0475,
		 -0.0268 0.6729 -0.0330,
		 -0.0685 0.6651 0.0600,
		 -0.0685 0.6678 -0.0401,
		 -0.0674 0.6653 0.0598,
		 0.0132 0.6707 0.0475,
		 0.0132 0.6729 -0.0330,
		 0.0511 0.6653 0.0596,
		 0.0511 0.6680 -0.0398,
		 -0.0765 0.6289 -0.0490,
		 -0.0704 0.6587 -0.0528,
		 -0.0707 0.6031 -0.0710,
		 -0.0646 0.6219 -0.0786,
		 -0.0651 0.6414 -0.0709,
		 -0.0661 0.6492 -0.0661,
		 0.0591 0.6293 -0.0650,
		 0.0560 0.6105 -0.0740,
		 0.0563 0.6433 -0.0697,
		 0.0533 0.6219 -0.0786,
		 0.0559 0.6414 -0.0709,
		 -0.0697 0.5985 -0.0691,
		 -0.0723 0.6105 -0.0647,
		 -0.0506 0.6219 -0.0786,
		 -0.0558 0.6414 -0.0709,
		 -0.0602 0.6492 -0.0661,
		 -0.0684 0.6543 -0.0589,
		 0.0591 0.6292 -0.0592,
		 0.0539 0.5976 -0.0687,
		 0.0544 0.6525 -0.0614,
		 0.0419 0.6219 -0.0786,
		 0.0469 0.6414 -0.0709,
		 0.0505 0.6492 -0.0661,
		 0.0522 0.6010 -0.0701,
		 0.0305 0.6219 -0.0786,
		 0.0398 0.6414 -0.0709,
		 0.0467 0.6492 -0.0661,
		 0.0543 0.6525 -0.0615,
		 0.0591 0.6288 -0.0442,
		 0.0520 0.5861 -0.0640,
		 0.0535 0.6567 -0.0556,
		 0.0482 0.6048 -0.0717,
		 0.0501 0.6507 -0.0640,
		 -0.0765 0.6285 -0.0360,
		 -0.0697 0.6623 -0.0477,
		 -0.0694 0.5971 -0.0685,
		 -0.0688 0.5995 -0.0695,
		 -0.0666 0.6532 -0.0605,
		 0.0510 0.5763 0.0771,
		 0.0591 0.6255 0.0761,
		 0.0548 0.6465 0.0875,
		 0.0455 0.6244 0.0965,
		 0.0449 0.6063 0.0932,
		 -0.0712 0.6515 0.0816,
		 -0.0765 0.6259 0.0615,
		 -0.0672 0.5834 0.0809,
		 -0.0692 0.6482 0.0868,
		 -0.0644 0.6244 0.0965,
		 -0.0644 0.6063 0.0932,
		 -0.0674 0.5845 0.0805,
		 -0.0670 0.5824 0.0804,
		 -0.0539 0.6244 0.0965,
		 -0.0674 0.6394 0.0904,
		 -0.0539 0.6063 0.0932,
		 0.0495 0.5672 0.0722,
		 0.0591 0.6257 0.0717,
		 0.0539 0.6511 0.0823,
		 0.0495 0.6482 0.0868,
		 0.0372 0.6244 0.0965,
		 0.0372 0.6063 0.0932
		]
	} #Coordinate3
	Material {
		ambientColor      0.2088 0.2088 0.0000  #ambientColor
		diffuseColor      0.8353 0.8353 0.0000  #diffuseColor
		transparency      0.0000                #transparency
	} #Material

	IndexedFaceSet {
		coordIndex [ 
		 105, 100, 101, 106,-1,
		 106, 101, 100, 105,-1,
		 102, 152, 153, 142, 143, 103,-1,
		 103, 143, 142, 153, 152, 102,-1,
		 142, 153, 158, 159, 87, 58, 144,-1,
		 144, 58, 87, 159, 158, 153, 142,-1,
		 58, 87, 88, 59,-1,
		 59, 88, 87, 58,-1,
		 59, 88, 163, 164, 137, 138,-1,
		 138, 137, 164, 163, 88, 59,-1,
		 137, 164, 165, 27, 107, 108, 139,-1,
		 139, 108, 107, 27, 165, 164, 137,-1,
		 100, 105, 107, 27, 104,-1,
		 104, 27, 107, 105, 100,-1,
		 152, 102, 104, 27, 165, 166, 155,-1,
		 155, 166, 165, 27, 104, 102, 152,-1,
		 155, 166, 167, 160, 161,-1,
		 161, 160, 167, 166, 155,-1,
		 144, 58, 59, 138, 140, 133, 122, 145,-1,
		 145, 122, 133, 140, 138, 59, 58, 144,-1,
		 123, 134, 135, 124,-1,
		 124, 135, 134, 123,-1,
		 160, 167, 168, 162,-1,
		 162, 168, 167, 160,-1,
		 87, 159, 162, 168, 163, 88,-1,
		 88, 163, 168, 162, 159, 87,-1,
		 106, 101, 103, 143, 146, 124, 135, 141, 139, 108,-1,
		 108, 139, 141, 135, 124, 146, 143, 103, 101, 106,-1,
		 122, 133, 134, 123,-1,
		 123, 134, 133, 122,-1,
		 101, 100, 104, 102, 103,-1,
		 103, 102, 104, 100, 101,-1,
		 105, 106, 108, 107,-1,
		 107, 108, 106, 105,-1,
		 145, 122, 123, 124, 146,-1,
		 146, 124, 123, 122, 145,-1,
		 133, 140, 141, 135, 134,-1,
		 134, 135, 141, 140, 133,-1,
		 138, 137, 139, 141, 140,-1,
		 140, 141, 139, 137, 138,-1,
		 143, 142, 144, 145, 146,-1,
		 146, 145, 144, 142, 143,-1,
		 153, 152, 155, 161, 158,-1,
		 158, 161, 155, 152, 153,-1,
		 159, 158, 161, 160, 162,-1,
		 162, 160, 161, 158, 159,-1,
		 164, 163, 168, 167, 166, 165,-1,
		 165, 166, 167, 168, 163, 164,-1,
		]
	} #IndexedFaceSet
} #Polyhedron
Separator { #Polyhedron
	DEF COORD6 Coordinate3 {
		point [
		 -0.0630 0.6717 0.0334,
		 -0.0877 0.6278 0.0334,
		 -0.1176 0.6374 0.0334,
		 -0.1174 0.6447 0.0334,
		 -0.0847 0.6749 0.0334,
		 -0.0630 0.6717 -0.0634,
		 -0.0877 0.6278 -0.0634,
		 -0.1176 0.6374 -0.0634,
		 -0.1174 0.6447 -0.0634,
		 -0.0847 0.6749 -0.0634,
		 -0.0847 0.6749 -0.0544,
		 -0.0630 0.6717 -0.0522,
		 -0.0718 0.6560 -0.0634,
		 -0.0966 0.6639 -0.0634,
		 -0.0738 0.6524 0.0334,
		 -0.1000 0.6608 0.0334,
		 -0.0847 0.6749 0.0217,
		 -0.0630 0.6717 0.0195,
		 -0.0684 0.6621 -0.0590,
		 -0.0877 0.6278 -0.0432,
		 -0.1176 0.6374 -0.0432,
		 -0.1174 0.6447 -0.0461,
		 -0.0908 0.6693 -0.0590,
		 -0.0674 0.6638 0.0251,
		 -0.0877 0.6278 0.0214,
		 -0.1176 0.6374 0.0214,
		 -0.1174 0.6447 0.0221,
		 -0.0892 0.6708 0.0251,
		 -0.0847 0.6749 0.0096,
		 -0.0630 0.6717 0.0062,
		 -0.0723 0.6550 0.0242,
		 -0.0975 0.6631 0.0242,
		 -0.0877 0.6278 0.0121,
		 -0.0814 0.6390 0.0226,
		 -0.1176 0.6374 0.0121,
		 -0.1174 0.6447 0.0180,
		 -0.1127 0.6490 0.0226,
		 -0.0655 0.6673 -0.0553,
		 -0.0729 0.6541 -0.0553,
		 -0.0984 0.6623 -0.0553,
		 -0.0859 0.6738 -0.0553,
		 -0.0847 0.6749 -0.0476,
		 -0.0630 0.6717 -0.0454,
		 -0.0709 0.6576 -0.0553,
		 -0.0951 0.6653 -0.0553,
		 -0.1174 0.6447 -0.0024,
		 -0.1175 0.6406 0.0147,
		 -0.1107 0.6510 0.0228,
		 -0.1119 0.6488 0.0226,
		 -0.1175 0.6415 -0.0448,
		 -0.1174 0.6447 -0.0080,
		 -0.1135 0.6483 -0.0480,
		 -0.1175 0.6405 -0.0444,
		 -0.1175 0.6417 -0.0426,
		 -0.1141 0.6478 -0.0426,
		 -0.1078 0.6536 -0.0508,
		 -0.0956 0.6649 0.0220,
		 -0.1125 0.6493 0.0161,
		 -0.1052 0.6466 0.0226,
		 -0.0942 0.6620 0.0242,
		 -0.1165 0.6420 0.0161,
		 -0.0819 0.6381 0.0217,
		 -0.0711 0.6573 0.0217,
		 -0.0833 0.6396 0.0226,
		 -0.0782 0.6569 0.0242,
		 -0.0839 0.6345 0.0184,
		 -0.0693 0.6604 0.0184,
		 -0.0873 0.6409 0.0226,
		 -0.0806 0.6577 0.0242,
		 -0.0630 0.6717 0.0043,
		 -0.0633 0.6717 0.0063,
		 -0.0877 0.6278 0.0043,
		 -0.0889 0.6282 0.0121,
		 -0.0727 0.6596 0.0202,
		 -0.0853 0.6372 0.0202,
		 -0.0642 0.6719 -0.0455,
		 -0.0630 0.6717 -0.0247,
		 -0.0877 0.6278 -0.0247,
		 -0.0886 0.6281 -0.0432,
		 -0.0745 0.6546 -0.0553,
		 -0.0725 0.6581 -0.0553,
		 -0.0781 0.6558 -0.0553,
		 -0.0793 0.6457 -0.0512,
		 -0.0762 0.6593 -0.0553,
		 -0.0690 0.6639 -0.0512,
		 -0.1175 0.6416 0.0106,
		 -0.1176 0.6394 0.0137,
		 -0.1086 0.6528 0.0174,
		 -0.1139 0.6479 0.0106,
		 -0.1142 0.6430 0.0174
		]
	} #Coordinate3
	Material {
		ambientColor      0.2088 0.2088 0.0000  #ambientColor
		diffuseColor      0.8353 0.8353 0.0000  #diffuseColor
		transparency      0.0000                #transparency
	} #Material

	IndexedFaceSet {
		coordIndex [ 
		 28, 41, 75, 76, 69, 70,-1,
		 70, 69, 76, 75, 41, 28,-1,
		 69, 76, 77, 71,-1,
		 71, 77, 76, 69,-1,
		 71, 77, 78, 20, 34, 72,-1,
		 72, 34, 20, 78, 77, 71,-1,
		 34, 20, 52, 53, 50, 45, 85, 86,-1,
		 86, 85, 45, 50, 53, 52, 20, 34,-1,
		 45, 50, 54, 55, 39, 44, 41, 28, 56, 87, 88,-1,
		 88, 87, 56, 28, 41, 44, 39, 55, 54, 50, 45,-1,
		 81, 39, 55, 52, 20, 78, 82,-1,
		 82, 78, 20, 52, 55, 39, 81,-1,
		 67, 58, 59, 68,-1,
		 68, 59, 58, 67,-1,
		 28, 70, 73, 68, 59, 56,-1,
		 56, 59, 68, 73, 70, 28,-1,
		 72, 34, 86, 89, 58, 67, 74,-1,
		 74, 67, 58, 89, 86, 34, 72,-1,
		 83, 44, 39, 81,-1,
		 81, 39, 44, 83,-1,
		 75, 41, 44, 83, 84,-1,
		 84, 83, 44, 41, 75,-1,
		 85, 45, 88,-1,
		 88, 45, 85,-1,
		 50, 53, 54,-1,
		 54, 53, 50,-1,
		 53, 52, 55, 54,-1,
		 54, 55, 52, 53,-1,
		 87, 56, 59, 58, 89,-1,
		 89, 58, 59, 56, 87,-1,
		 74, 67, 68, 73,-1,
		 73, 68, 67, 74,-1,
		 70, 69, 71, 72, 74, 73,-1,
		 73, 74, 72, 71, 69, 70,-1,
		 76, 75, 84, 82, 78, 77,-1,
		 77, 78, 82, 84, 75, 76,-1,
		 81, 82, 84, 83,-1,
		 83, 84, 82, 81,-1,
		 86, 85, 88, 87, 89,-1,
		 89, 87, 88, 85, 86,-1,
		]
	} #IndexedFaceSet
} #Polyhedron
Separator { #Polyhedron
	DEF COORD7 Coordinate3 {
		point [
		 0.0405 0.6770 -0.0385,
		 0.0719 0.6361 -0.0555,
		 0.1001 0.6483 -0.0540,
		 0.0988 0.6555 -0.0514,
		 0.0616 0.6822 -0.0387,
		 0.0429 0.6721 0.0573,
		 0.0743 0.6312 0.0403,
		 0.1025 0.6434 0.0418,
		 0.1012 0.6506 0.0444,
		 0.0640 0.6773 0.0570,
		 0.0637 0.6778 0.0482,
		 0.0426 0.6726 0.0462,
		 0.0541 0.6575 0.0512,
		 0.0775 0.6676 0.0524,
		 0.0542 0.6590 -0.0459,
		 0.0790 0.6697 -0.0447,
		 0.0618 0.6816 -0.0272,
		 0.0408 0.6763 -0.0248,
		 0.0496 0.6634 0.0492,
		 0.0738 0.6322 0.0204,
		 0.1020 0.6445 0.0218,
		 0.1007 0.6515 0.0273,
		 0.0708 0.6726 0.0503,
		 0.0463 0.6692 -0.0334,
		 0.0722 0.6355 -0.0436,
		 0.1004 0.6477 -0.0422,
		 0.0990 0.6550 -0.0402,
		 0.0668 0.6782 -0.0323,
		 0.0621 0.6810 -0.0152,
		 0.0412 0.6756 -0.0116,
		 0.0526 0.6610 -0.0359,
		 0.0764 0.6713 -0.0347,
		 0.0724 0.6350 -0.0344,
		 0.0641 0.6460 -0.0405,
		 0.1006 0.6473 -0.0330,
		 0.0992 0.6548 -0.0362,
		 0.0937 0.6588 -0.0389,
		 0.0458 0.6684 0.0476,
		 0.0552 0.6561 0.0425,
		 0.0793 0.6666 0.0438,
		 0.0651 0.6768 0.0486,
		 0.0636 0.6781 0.0414,
		 0.0424 0.6730 0.0395,
		 0.0528 0.6593 0.0438,
		 0.0756 0.6692 0.0450,
		 0.0434 0.6732 0.0396,
		 0.0424 0.6730 0.0388,
		 0.0624 0.6469 0.0339,
		 0.0631 0.6595 0.0429,
		 0.0615 0.6631 0.0443,
		 0.0692 0.6393 -0.0368,
		 0.0513 0.6627 -0.0331,
		 0.0761 0.6512 -0.0398,
		 0.0591 0.6638 -0.0356,
		 0.0727 0.6344 -0.0223,
		 0.0455 0.6701 -0.0208,
		 0.0746 0.6360 -0.0343,
		 0.0541 0.6631 -0.0340,
		 0.0708 0.6421 -0.0375,
		 0.0440 0.6734 0.0396,
		 0.0423 0.6733 0.0336,
		 0.0710 0.6358 0.0237,
		 0.0626 0.6501 0.0362,
		 0.0449 0.6724 0.0400,
		 0.0996 0.6539 -0.0185,
		 0.0998 0.6513 -0.0347,
		 0.0928 0.6595 -0.0387,
		 0.0934 0.6587 -0.0389,
		 0.0792 0.6692 -0.0354,
		 0.0939 0.6585 -0.0353,
		 0.0851 0.6551 -0.0394,
		 0.0978 0.6537 -0.0361,
		 0.1011 0.6498 0.0259,
		 0.1002 0.6527 0.0041,
		 0.0980 0.6535 0.0294
		]
	} #Coordinate3
	Material {
		ambientColor      0.2088 0.2088 0.0000  #ambientColor
		diffuseColor      0.8353 0.8353 0.0000  #diffuseColor
		transparency      0.0000                #transparency
	} #Material

	IndexedFaceSet {
		coordIndex [ 
		 28, 41, 59, 60, 29,-1,
		 29, 60, 59, 41, 28,-1,
		 29, 60, 61, 19, 54, 55,-1,
		 55, 54, 19, 61, 60, 29,-1,
		 54, 19, 20, 34, 56,-1,
		 56, 34, 20, 19, 54,-1,
		 34, 20, 72, 73, 64, 65,-1,
		 65, 64, 73, 72, 20, 34,-1,
		 64, 73, 74, 39, 44, 41, 28, 31, 68, 69,-1,
		 69, 68, 31, 28, 41, 44, 39, 74, 73, 64,-1,
		 19, 61, 62, 48, 39, 74, 72, 20,-1,
		 20, 72, 74, 39, 48, 62, 61, 19,-1,
		 52, 70, 68, 31, 53,-1,
		 53, 31, 68, 70, 52,-1,
		 28, 29, 55, 57, 53, 31,-1,
		 31, 53, 57, 55, 29, 28,-1,
		 56, 34, 65, 71, 70, 52, 58,-1,
		 58, 52, 70, 71, 65, 34, 56,-1,
		 49, 44, 39, 48,-1,
		 48, 39, 44, 49,-1,
		 59, 41, 44, 49, 63,-1,
		 63, 49, 44, 41, 59,-1,
		 63, 49, 48, 62,-1,
		 62, 48, 49, 63,-1,
		 58, 52, 53, 57,-1,
		 57, 53, 52, 58,-1,
		 55, 54, 56, 58, 57,-1,
		 57, 58, 56, 54, 55,-1,
		 60, 59, 63, 62, 61,-1,
		 61, 62, 63, 59, 60,-1,
		 65, 64, 69, 71,-1,
		 71, 69, 64, 65,-1,
		 69, 68, 70, 71,-1,
		 71, 70, 68, 69,-1,
		 73, 72, 74,-1,
		 74, 72, 73,-1,
		]
	} #IndexedFaceSet
} #Polyhedron
Separator { #Polyhedron
	DEF COORD8 Coordinate3 {
		point [
		 0.0254 0.7128 0.0221,
		 0.0254 0.6934 0.0186,
		 0.0281 0.6927 0.0203,
		 0.0299 0.6934 0.0216,
		 0.0317 0.7127 0.0263,
		 0.0281 0.7135 0.0240,
		 0.0195 0.7119 0.0552,
		 0.0195 0.6926 0.0517,
		 0.0222 0.6918 0.0534,
		 0.0240 0.6925 0.0547,
		 0.0258 0.7118 0.0594,
		 0.0222 0.7126 0.0572,
		 0.0237 0.7128 0.0489,
		 0.0207 0.7121 0.0486,
		 0.0195 0.7090 0.0547,
		 0.0255 0.7088 0.0587,
		 0.0270 0.7120 0.0529,
		 0.0247 0.7130 0.0431,
		 0.0207 0.7121 0.0486,
		 0.0270 0.7120 0.0529,
		 0.0254 0.7125 0.0220,
		 0.0317 0.7124 0.0262,
		 0.0263 0.7132 0.0340,
		 0.0249 0.7127 0.0246,
		 0.0312 0.7126 0.0288,
		 0.0254 0.7089 0.0214,
		 0.0313 0.7087 0.0253,
		 0.0248 0.7127 0.0254,
		 0.0251 0.7128 0.0258,
		 0.0311 0.7126 0.0297,
		 0.0306 0.7127 0.0295,
		 0.0254 0.7062 0.0209,
		 0.0311 0.7061 0.0247,
		 0.0231 0.6931 0.0314,
		 0.0257 0.6923 0.0339,
		 0.0276 0.6930 0.0345,
		 0.0204 0.7113 0.0502,
		 0.0204 0.6927 0.0468,
		 0.0231 0.6919 0.0485,
		 0.0249 0.6926 0.0498,
		 0.0266 0.7112 0.0543,
		 0.0204 0.6943 0.0471,
		 0.0212 0.6928 0.0423,
		 0.0243 0.6921 0.0419,
		 0.0257 0.6927 0.0453,
		 0.0250 0.6942 0.0502,
		 0.0207 0.7121 0.0486,
		 0.0204 0.7091 0.0498,
		 0.0264 0.7090 0.0538,
		 0.0270 0.7120 0.0529,
		 0.0259 0.7061 0.0212,
		 0.0259 0.7088 0.0217,
		 0.0215 0.7123 0.0475,
		 0.0252 0.7128 0.0266,
		 0.0218 0.6927 0.0422,
		 0.0236 0.6929 0.0320,
		 0.0212 0.7121 0.0490,
		 0.0253 0.7128 0.0259,
		 0.0209 0.7091 0.0501,
		 0.0209 0.6943 0.0475
		]
	} #Coordinate3
	Material {
		ambientColor      0.2088 0.2088 0.0000  #ambientColor
		diffuseColor      0.8353 0.8353 0.0000  #diffuseColor
		transparency      0.0000                #transparency
	} #Material

	IndexedFaceSet {
		coordIndex [ 
		 50, 32, 26, 51,-1,
		 51, 26, 32, 50,-1,
		 22, 17, 52, 53,-1,
		 53, 52, 17, 22,-1,
		 54, 43, 34, 55,-1,
		 55, 34, 43, 54,-1,
		 34, 43, 44, 35,-1,
		 35, 44, 43, 34,-1,
		 26, 32, 35, 44, 45, 48, 16, 29,-1,
		 29, 16, 48, 45, 44, 35, 32, 26,-1,
		 29, 16, 49, 17, 22, 30,-1,
		 30, 22, 17, 49, 16, 29,-1,
		 52, 17, 49, 56,-1,
		 56, 49, 17, 52,-1,
		 30, 22, 53, 57,-1,
		 57, 53, 22, 30,-1,
		 51, 26, 29, 30, 57,-1,
		 57, 30, 29, 26, 51,-1,
		 32, 50, 55, 34, 35,-1,
		 35, 34, 55, 50, 32,-1,
		 58, 48, 45, 59,-1,
		 59, 45, 48, 58,-1,
		 59, 45, 44, 43, 54,-1,
		 54, 43, 44, 45, 59,-1,
		 56, 49, 16, 48, 58,-1,
		 58, 48, 16, 49, 56,-1,
		 50, 51, 57, 53, 52, 56, 58, 59, 54, 55,-1,
		 55, 54, 59, 58, 56, 52, 53, 57, 51, 50,-1,
		]
	} #IndexedFaceSet
} #Polyhedron
Separator { #Polyhedron
	DEF COORD9 Coordinate3 {
		point [
		 -0.0429 0.7147 -0.0320,
		 -0.0409 0.6947 -0.0343,
		 -0.0389 0.6936 -0.0332,
		 -0.0369 0.6946 -0.0316,
		 -0.0369 0.7146 -0.0280,
		 -0.0399 0.7157 -0.0298,
		 -0.0488 0.7138 0.0012,
		 -0.0468 0.6938 -0.0011,
		 -0.0448 0.6927 0.0000,
		 -0.0428 0.6937 0.0016,
		 -0.0428 0.7137 0.0052,
		 -0.0458 0.7148 0.0034,
		 -0.0426 0.7125 -0.0323,
		 -0.0369 0.7124 -0.0284,
		 -0.0410 0.7156 -0.0236,
		 -0.0436 0.7146 -0.0279,
		 -0.0376 0.7145 -0.0239,
		 -0.0423 0.7154 -0.0160,
		 -0.0439 0.7145 -0.0265,
		 -0.0435 0.7143 -0.0283,
		 -0.0379 0.7144 -0.0225,
		 -0.0375 0.7142 -0.0244,
		 -0.0448 0.7150 -0.0022,
		 -0.0484 0.7138 -0.0007,
		 -0.0487 0.7132 0.0011,
		 -0.0428 0.7131 0.0051,
		 -0.0425 0.7137 0.0033,
		 -0.0423 0.7091 -0.0326,
		 -0.0369 0.7090 -0.0290,
		 -0.0432 0.7136 -0.0299,
		 -0.0373 0.7135 -0.0259,
		 -0.0420 0.7062 -0.0330,
		 -0.0369 0.7061 -0.0295,
		 -0.0440 0.6942 -0.0166,
		 -0.0423 0.6930 -0.0138,
		 -0.0400 0.6942 -0.0140,
		 -0.0438 0.6928 -0.0055,
		 -0.0438 0.6941 -0.0163,
		 -0.0403 0.6940 -0.0139,
		 -0.0469 0.6949 -0.0010,
		 -0.0464 0.6939 -0.0029,
		 -0.0441 0.6928 -0.0036,
		 -0.0425 0.6938 -0.0003,
		 -0.0428 0.6948 0.0018
		]
	} #Coordinate3
	Material {
		ambientColor      0.2088 0.2088 0.0000  #ambientColor
		diffuseColor      0.8353 0.8353 0.0000  #diffuseColor
		transparency      0.0000                #transparency
	} #Material

	IndexedFaceSet {
		coordIndex [ 
		 27, 31, 32, 28,-1,
		 28, 32, 31, 27,-1,
		 17, 22, 23, 18,-1,
		 18, 23, 22, 17,-1,
		 31, 27, 29, 19, 18, 23, 24, 39, 40, 33,-1,
		 33, 40, 39, 24, 23, 18, 19, 29, 27, 31,-1,
		 33, 40, 41, 36, 37,-1,
		 37, 36, 41, 40, 33,-1,
		 36, 41, 42, 35, 38,-1,
		 38, 35, 42, 41, 36,-1,
		 28, 32, 35, 42, 43, 25, 26, 20, 21, 30,-1,
		 30, 21, 20, 26, 25, 43, 42, 35, 32, 28,-1,
		 20, 26, 22, 17,-1,
		 17, 22, 26, 20,-1,
		 25, 43, 39, 24,-1,
		 24, 39, 43, 25,-1,
		 30, 21, 19, 29,-1,
		 29, 19, 21, 30,-1,
		 17, 18, 19, 21, 20,-1,
		 20, 21, 19, 18, 17,-1,
		 23, 22, 26, 25, 24,-1,
		 24, 25, 26, 22, 23,-1,
		 27, 28, 30, 29,-1,
		 29, 30, 28, 27,-1,
		 32, 31, 33, 37, 38, 35,-1,
		 35, 38, 37, 33, 31, 32,-1,
		 37, 36, 38,-1,
		 38, 36, 37,-1,
		 40, 39, 43, 42, 41,-1,
		 41, 42, 43, 39, 40,-1,
		]
	} #IndexedFaceSet
} #Polyhedron
Separator { #Polyhedron
	DEF COORD10 Coordinate3 {
		point [
		 -0.0123 0.7111 0.1014,
		 -0.0117 0.6927 0.0946,
		 -0.0146 0.6921 0.1110,
		 -0.0158 0.6925 0.1183,
		 -0.0163 0.6941 0.1216,
		 -0.0163 0.6950 0.1218,
		 -0.0162 0.6963 0.1210,
		 -0.0158 0.6980 0.1193,
		 -0.0294 0.7114 0.0900,
		 -0.0288 0.6930 0.0832,
		 -0.0317 0.6924 0.0996,
		 -0.0329 0.6928 0.1069,
		 -0.0334 0.6944 0.1102,
		 -0.0334 0.6953 0.1104,
		 -0.0333 0.6966 0.1096,
		 -0.0329 0.6983 0.1079,
		 -0.0291 0.6982 0.1104,
		 -0.0242 0.7113 0.0935,
		 -0.0255 0.6929 0.0854,
		 -0.0285 0.6923 0.1018,
		 -0.0296 0.6928 0.1091,
		 -0.0300 0.6944 0.1125,
		 -0.0299 0.6952 0.1127,
		 -0.0296 0.6965 0.1120,
		 -0.0188 0.6980 0.1173,
		 -0.0176 0.7112 0.0979,
		 -0.0135 0.6927 0.0934,
		 -0.0164 0.6921 0.1098,
		 -0.0178 0.6926 0.1170,
		 -0.0186 0.6942 0.1201,
		 -0.0188 0.6950 0.1202,
		 -0.0188 0.6963 0.1192,
		 -0.0152 0.6927 0.0923,
		 -0.0139 0.6943 0.0938,
		 -0.0182 0.6921 0.1086,
		 -0.0189 0.6926 0.1162,
		 -0.0183 0.6936 0.1190,
		 -0.0255 0.6939 0.0858,
		 -0.0235 0.6929 0.0867,
		 -0.0261 0.6923 0.1033,
		 -0.0286 0.6928 0.1098,
		 -0.0298 0.6933 0.1101,
		 -0.0260 0.7065 0.0996,
		 -0.0232 0.7113 0.0941,
		 -0.0245 0.7068 0.0915,
		 -0.0186 0.7112 0.0972,
		 -0.0178 0.7088 0.1015,
		 -0.0171 0.7089 0.0973,
		 -0.0187 0.7112 0.0972,
		 -0.0182 0.7048 0.1073,
		 -0.0163 0.7051 0.0964
		]
	} #Coordinate3
	Material {
		ambientColor      0.2088 0.2088 0.0000  #ambientColor
		diffuseColor      0.8353 0.8353 0.0000  #diffuseColor
		transparency      0.0000                #transparency
	} #Material

	IndexedFaceSet {
		coordIndex [ 
		 24, 16, 42, 43, 48, 49,-1,
		 49, 48, 43, 42, 16, 24,-1,
		 48, 43, 44, 37, 38, 32, 33, 50,-1,
		 50, 33, 32, 38, 37, 44, 43, 48,-1,
		 32, 38, 39, 34,-1,
		 34, 39, 38, 32,-1,
		 34, 39, 40, 35,-1,
		 35, 40, 39, 34,-1,
		 35, 40, 41, 21, 29, 36,-1,
		 36, 29, 21, 41, 40, 35,-1,
		 29, 21, 22, 30,-1,
		 30, 22, 21, 29,-1,
		 30, 22, 23, 31,-1,
		 31, 23, 22, 30,-1,
		 31, 23, 16, 24,-1,
		 24, 16, 23, 31,-1,
		 42, 16, 23, 22, 21, 41, 37, 44,-1,
		 44, 37, 41, 21, 22, 23, 16, 42,-1,
		 24, 49, 50, 33, 36, 29, 30, 31,-1,
		 31, 30, 29, 36, 33, 50, 49, 24,-1,
		 33, 32, 34, 35, 36,-1,
		 36, 35, 34, 32, 33,-1,
		 38, 37, 41, 40, 39,-1,
		 39, 40, 41, 37, 38,-1,
		 43, 42, 44,-1,
		 44, 42, 43,-1,
		 49, 48, 50,-1,
		 50, 48, 49,-1,
		]
	} #IndexedFaceSet
} #Polyhedron
Separator { #Polyhedron
	DEF COORD11 Coordinate3 {
		point [
		 -0.0460 0.7060 0.0110,
		 -0.0427 0.7275 0.0511,
		 -0.0434 0.7153 0.0552,
		 -0.0430 0.6915 0.0478,
		 -0.0416 0.6829 0.0338,
		 -0.0352 0.6843 -0.0217,
		 -0.0335 0.6997 -0.0345,
		 -0.0331 0.7102 -0.0357,
		 -0.0335 0.7221 -0.0304,
		 -0.0352 0.7292 -0.0136,
		 -0.0377 0.7301 0.0082,
		 -0.0409 0.7294 0.0360,
		 -0.0370 0.7346 0.0669,
		 -0.0379 0.7184 0.0723,
		 -0.0374 0.6866 0.0624,
		 -0.0355 0.6751 0.0438,
		 -0.0270 0.6770 -0.0302,
		 -0.0246 0.6975 -0.0472,
		 -0.0242 0.7116 -0.0488,
		 -0.0246 0.7274 -0.0418,
		 -0.0270 0.7368 -0.0194,
		 -0.0303 0.7381 0.0097,
		 -0.0346 0.7371 0.0467,
		 -0.0307 0.7386 0.0777,
		 -0.0318 0.7201 0.0838,
		 -0.0312 0.6837 0.0725,
		 -0.0291 0.6705 0.0512,
		 -0.0193 0.6728 -0.0336,
		 -0.0166 0.6962 -0.0531,
		 -0.0160 0.7123 -0.0549,
		 -0.0166 0.7305 -0.0469,
		 -0.0193 0.7413 -0.0213,
		 -0.0231 0.7427 0.0121,
		 -0.0280 0.7416 0.0545,
		 -0.0241 0.7408 0.0852,
		 -0.0253 0.7210 0.0917,
		 -0.0247 0.6821 0.0797,
		 -0.0224 0.6680 0.0569,
		 -0.0119 0.6704 -0.0338,
		 -0.0090 0.6955 -0.0546,
		 -0.0084 0.7127 -0.0566,
		 -0.0090 0.7321 -0.0480,
		 -0.0119 0.7436 -0.0206,
		 -0.0160 0.7451 0.0151,
		 -0.0212 0.7439 0.0604,
		 -0.0172 0.7415 0.0901,
		 -0.0184 0.7213 0.0967,
		 -0.0178 0.6815 0.0844,
		 -0.0155 0.6671 0.0612,
		 -0.0048 0.6696 -0.0314,
		 -0.0018 0.6952 -0.0526,
		 -0.0012 0.7127 -0.0546,
		 -0.0018 0.7325 -0.0459,
		 -0.0048 0.7443 -0.0179,
		 -0.0090 0.7459 0.0185,
		 -0.0143 0.7446 0.0648,
		 -0.0101 0.7406 0.0925,
		 -0.0113 0.7209 0.0990,
		 -0.0107 0.6819 0.0870,
		 -0.0084 0.6678 0.0642,
		 0.0021 0.6702 -0.0265,
		 0.0050 0.6953 -0.0473,
		 0.0055 0.7125 -0.0493,
		 0.0050 0.7319 -0.0407,
		 0.0021 0.7434 -0.0133,
		 -0.0020 0.7449 0.0224,
		 -0.0072 0.7437 0.0677,
		 -0.0027 0.7383 0.0923,
		 -0.0038 0.7198 0.0984,
		 -0.0033 0.6834 0.0871,
		 -0.0011 0.6702 0.0658,
		 0.0087 0.6724 -0.0190,
		 0.0114 0.6958 -0.0385,
		 0.0119 0.7120 -0.0403,
		 0.0114 0.7301 -0.0323,
		 0.0086 0.7409 -0.0067,
		 0.0048 0.7423 0.0267,
		 -0.0000 0.7412 0.0691,
		 0.0050 0.7340 0.0889,
		 0.0040 0.7178 0.0942,
		 0.0045 0.6861 0.0844,
		 0.0064 0.6745 0.0658,
		 0.0149 0.6765 -0.0083,
		 0.0173 0.6970 -0.0253,
		 0.0178 0.7110 -0.0269,
		 0.0173 0.7269 -0.0199,
		 0.0149 0.7363 0.0025,
		 0.0116 0.7375 0.0316,
		 0.0073 0.7365 0.0687,
		 0.0132 0.7267 0.0804,
		 0.0125 0.7146 0.0844,
		 0.0128 0.6908 0.0770,
		 0.0143 0.6821 0.0631,
		 0.0207 0.6836 0.0075,
		 0.0224 0.6989 -0.0052,
		 0.0228 0.7095 -0.0064,
		 0.0224 0.7214 -0.0012,
		 0.0207 0.7284 0.0156,
		 0.0182 0.7294 0.0375,
		 0.0150 0.7286 0.0652,
		 0.0239 0.7051 0.0476,
		 0.0197 0.7163 0.0560,
		 0.0188 0.7154 0.0632,
		 0.0185 0.7096 0.0651,
		 0.0186 0.6983 0.0616,
		 0.0193 0.6941 0.0550,
		 0.0224 0.6948 0.0285,
		 0.0232 0.7021 0.0224,
		 0.0234 0.7072 0.0219,
		 0.0232 0.7128 0.0244,
		 0.0224 0.7162 0.0324,
		 0.0212 0.7166 0.0428,
		 -0.0436 0.7171 0.0229,
		 -0.0444 0.7162 0.0301,
		 -0.0447 0.7104 0.0321,
		 -0.0446 0.6991 0.0285,
		 -0.0439 0.6950 0.0219,
		 -0.0408 0.6957 -0.0046,
		 -0.0400 0.7030 -0.0106,
		 -0.0398 0.7080 -0.0112,
		 -0.0400 0.7137 -0.0087,
		 -0.0408 0.7170 -0.0007,
		 -0.0420 0.7175 0.0097,
		 -0.0257 0.7423 0.0565,
		 -0.0232 0.7418 0.0775,
		 -0.0132 0.7441 -0.0096,
		 -0.0207 0.7435 0.0131,
		 -0.0092 0.7416 0.0848,
		 0.0008 0.7439 -0.0023,
		 -0.0024 0.7420 0.0687,
		 0.0026 0.7432 0.0253,
		 -0.0073 0.7417 0.0802,
		 -0.0016 0.7396 0.0821,
		 0.0070 0.7415 0.0080,
		 0.0013 0.7437 0.0056,
		 0.0046 0.7382 0.0688,
		 0.0091 0.7393 0.0298,
		 -0.0337 0.7377 0.0477,
		 -0.0298 0.7396 0.0699,
		 -0.0206 0.7417 -0.0101,
		 -0.0294 0.7386 0.0100,
		 -0.0239 0.7419 0.0715,
		 -0.0153 0.7439 -0.0031,
		 -0.0306 0.7387 0.0772,
		 -0.0308 0.7386 0.0775,
		 -0.0307 0.7385 0.0777,
		 -0.0239 0.7419 0.0719,
		 -0.0244 0.7363 0.0867,
		 -0.0176 0.7355 0.0920,
		 -0.0104 0.7361 0.0940,
		 -0.0074 0.7417 0.0805,
		 -0.0027 0.7383 0.0918,
		 -0.0028 0.7381 0.0923,
		 -0.0026 0.7382 0.0922,
		 -0.0116 0.7422 -0.0240,
		 -0.0151 0.7426 -0.0209,
		 -0.0155 0.7439 -0.0033,
		 -0.0042 0.7418 -0.0238,
		 0.0024 0.7420 -0.0167,
		 0.0049 0.7423 -0.0104,
		 0.0015 0.7436 0.0057,
		 -0.0154 0.7439 -0.0026,
		 0.0012 0.7437 0.0061,
		 -0.0249 0.7365 0.0859,
		 -0.0244 0.7356 0.0869,
		 -0.0178 0.7324 0.0931,
		 -0.0104 0.7354 0.0942,
		 -0.0097 0.7363 0.0938,
		 -0.0304 0.7390 0.0749,
		 -0.0317 0.7380 0.0759,
		 -0.0308 0.7368 0.0783,
		 -0.0268 0.7405 0.0741,
		 -0.0246 0.7329 0.0878,
		 -0.0178 0.7316 0.0933,
		 -0.0106 0.7327 0.0951,
		 -0.0024 0.7386 0.0895,
		 -0.0054 0.7403 0.0854,
		 -0.0029 0.7364 0.0929,
		 -0.0015 0.7376 0.0917,
		 -0.0300 0.7394 0.0720,
		 -0.0315 0.7381 0.0757,
		 -0.0288 0.7400 0.0702,
		 -0.0033 0.7402 0.0816,
		 -0.0021 0.7390 0.0866,
		 -0.0016 0.7378 0.0914,
		 -0.0232 0.7421 0.0651,
		 -0.0066 0.7419 0.0738,
		 -0.0308 0.7368 0.0782,
		 -0.0320 0.7201 0.0835,
		 -0.0318 0.7197 0.0837,
		 -0.0251 0.7134 0.0894,
		 -0.0183 0.7113 0.0936,
		 -0.0112 0.7132 0.0967,
		 -0.0038 0.7194 0.0983,
		 -0.0028 0.7365 0.0929,
		 -0.0036 0.7197 0.0983,
		 -0.0298 0.7396 0.0698,
		 -0.0345 0.7362 0.0712,
		 -0.0313 0.7292 0.0806,
		 -0.0018 0.7393 0.0844,
		 -0.0029 0.7398 0.0833,
		 0.0019 0.7357 0.0902,
		 -0.0032 0.7288 0.0954,
		 -0.0285 0.7401 0.0699
		]
	} #Coordinate3
	Material {
		ambientColor      0.2088 0.2088 0.0000  #ambientColor
		diffuseColor      0.8353 0.8353 0.0000  #diffuseColor
		transparency      0.0000                #transparency
	} #Material

	IndexedFaceSet {
		coordIndex [ 
		 112, 11, 1, 113,-1,
		 113, 1, 11, 112,-1,
		 113, 1, 2, 114,-1,
		 114, 2, 1, 113,-1,
		 114, 2, 3, 115,-1,
		 115, 3, 2, 114,-1,
		 115, 3, 4, 116,-1,
		 116, 4, 3, 115,-1,
		 116, 4, 5, 117,-1,
		 117, 5, 4, 116,-1,
		 117, 5, 6, 118,-1,
		 118, 6, 5, 117,-1,
		 118, 6, 7, 119,-1,
		 119, 7, 6, 118,-1,
		 119, 7, 8, 120,-1,
		 120, 8, 7, 119,-1,
		 120, 8, 9, 121,-1,
		 121, 9, 8, 120,-1,
		 121, 9, 10, 122,-1,
		 122, 10, 9, 121,-1,
		 122, 10, 11, 112,-1,
		 112, 11, 10, 122,-1,
		 1, 11, 22, 12,-1,
		 12, 22, 11, 1,-1,
		 2, 1, 12, 13,-1,
		 13, 12, 1, 2,-1,
		 3, 2, 13, 14,-1,
		 14, 13, 2, 3,-1,
		 4, 3, 14, 15,-1,
		 15, 14, 3, 4,-1,
		 5, 4, 15, 16,-1,
		 16, 15, 4, 5,-1,
		 6, 5, 16, 17,-1,
		 17, 16, 5, 6,-1,
		 7, 6, 17, 18,-1,
		 18, 17, 6, 7,-1,
		 8, 7, 18, 19,-1,
		 19, 18, 7, 8,-1,
		 9, 8, 19, 20,-1,
		 20, 19, 8, 9,-1,
		 10, 9, 20, 21,-1,
		 21, 20, 9, 10,-1,
		 11, 10, 21, 22,-1,
		 22, 21, 10, 11,-1,
		 12, 22, 137, 196, 197,-1,
		 197, 196, 137, 22, 12,-1,
		 13, 12, 197, 198, 188,-1,
		 188, 198, 197, 12, 13,-1,
		 14, 13, 188, 189, 25,-1,
		 25, 189, 188, 13, 14,-1,
		 15, 14, 25, 26,-1,
		 26, 25, 14, 15,-1,
		 16, 15, 26, 27,-1,
		 27, 26, 15, 16,-1,
		 17, 16, 27, 28,-1,
		 28, 27, 16, 17,-1,
		 18, 17, 28, 29,-1,
		 29, 28, 17, 18,-1,
		 19, 18, 29, 30,-1,
		 30, 29, 18, 19,-1,
		 20, 19, 30, 31,-1,
		 31, 30, 19, 20,-1,
		 21, 20, 31, 139, 140,-1,
		 140, 139, 31, 20, 21,-1,
		 22, 21, 140, 137,-1,
		 137, 140, 21, 22,-1,
		 25, 189, 190, 36,-1,
		 36, 190, 189, 25,-1,
		 26, 25, 36, 37,-1,
		 37, 36, 25, 26,-1,
		 27, 26, 37, 38,-1,
		 38, 37, 26, 27,-1,
		 28, 27, 38, 39,-1,
		 39, 38, 27, 28,-1,
		 29, 28, 39, 40,-1,
		 40, 39, 28, 29,-1,
		 30, 29, 40, 41,-1,
		 41, 40, 29, 30,-1,
		 31, 30, 41, 154, 155,-1,
		 155, 154, 41, 30, 31,-1,
		 139, 31, 155, 156,-1,
		 156, 155, 31, 139,-1,
		 36, 190, 191, 47,-1,
		 47, 191, 190, 36,-1,
		 37, 36, 47, 48,-1,
		 48, 47, 36, 37,-1,
		 38, 37, 48, 49,-1,
		 49, 48, 37, 38,-1,
		 39, 38, 49, 50,-1,
		 50, 49, 38, 39,-1,
		 40, 39, 50, 51,-1,
		 51, 50, 39, 40,-1,
		 41, 40, 51, 52,-1,
		 52, 51, 40, 41,-1,
		 154, 41, 52, 157,-1,
		 157, 52, 41, 154,-1,
		 47, 191, 192, 58,-1,
		 58, 192, 191, 47,-1,
		 48, 47, 58, 59,-1,
		 59, 58, 47, 48,-1,
		 49, 48, 59, 60,-1,
		 60, 59, 48, 49,-1,
		 50, 49, 60, 61,-1,
		 61, 60, 49, 50,-1,
		 51, 50, 61, 62,-1,
		 62, 61, 50, 51,-1,
		 52, 51, 62, 63,-1,
		 63, 62, 51, 52,-1,
		 157, 52, 63, 158,-1,
		 158, 63, 52, 157,-1,
		 182, 132, 199, 200,-1,
		 200, 199, 132, 182,-1,
		 58, 192, 193, 69,-1,
		 69, 193, 192, 58,-1,
		 59, 58, 69, 70,-1,
		 70, 69, 58, 59,-1,
		 60, 59, 70, 71,-1,
		 71, 70, 59, 60,-1,
		 61, 60, 71, 72,-1,
		 72, 71, 60, 61,-1,
		 62, 61, 72, 73,-1,
		 73, 72, 61, 62,-1,
		 63, 62, 73, 74,-1,
		 74, 73, 62, 63,-1,
		 158, 63, 74, 75, 159,-1,
		 159, 75, 74, 63, 158,-1,
		 159, 75, 133, 160,-1,
		 160, 133, 75, 159,-1,
		 199, 132, 135, 88, 78, 201,-1,
		 201, 78, 88, 135, 132, 199,-1,
		 201, 78, 79, 195, 202,-1,
		 202, 195, 79, 78, 201,-1,
		 69, 193, 195, 79, 80,-1,
		 80, 79, 195, 193, 69,-1,
		 70, 69, 80, 81,-1,
		 81, 80, 69, 70,-1,
		 71, 70, 81, 82,-1,
		 82, 81, 70, 71,-1,
		 72, 71, 82, 83,-1,
		 83, 82, 71, 72,-1,
		 73, 72, 83, 84,-1,
		 84, 83, 72, 73,-1,
		 74, 73, 84, 85,-1,
		 85, 84, 73, 74,-1,
		 75, 74, 85, 86,-1,
		 86, 85, 74, 75,-1,
		 133, 75, 86, 87, 136,-1,
		 136, 87, 86, 75, 133,-1,
		 136, 87, 88, 135,-1,
		 135, 88, 87, 136,-1,
		 78, 88, 99, 89,-1,
		 89, 99, 88, 78,-1,
		 79, 78, 89, 90,-1,
		 90, 89, 78, 79,-1,
		 80, 79, 90, 91,-1,
		 91, 90, 79, 80,-1,
		 81, 80, 91, 92,-1,
		 92, 91, 80, 81,-1,
		 82, 81, 92, 93,-1,
		 93, 92, 81, 82,-1,
		 83, 82, 93, 94,-1,
		 94, 93, 82, 83,-1,
		 84, 83, 94, 95,-1,
		 95, 94, 83, 84,-1,
		 85, 84, 95, 96,-1,
		 96, 95, 84, 85,-1,
		 86, 85, 96, 97,-1,
		 97, 96, 85, 86,-1,
		 87, 86, 97, 98,-1,
		 98, 97, 86, 87,-1,
		 88, 87, 98, 99,-1,
		 99, 98, 87, 88,-1,
		 89, 99, 101, 102,-1,
		 102, 101, 99, 89,-1,
		 90, 89, 102, 103,-1,
		 103, 102, 89, 90,-1,
		 91, 90, 103, 104,-1,
		 104, 103, 90, 91,-1,
		 92, 91, 104, 105,-1,
		 105, 104, 91, 92,-1,
		 93, 92, 105, 106,-1,
		 106, 105, 92, 93,-1,
		 94, 93, 106, 107,-1,
		 107, 106, 93, 94,-1,
		 95, 94, 107, 108,-1,
		 108, 107, 94, 95,-1,
		 96, 95, 108, 109,-1,
		 109, 108, 95, 96,-1,
		 97, 96, 109, 110,-1,
		 110, 109, 96, 97,-1,
		 98, 97, 110, 111,-1,
		 111, 110, 97, 98,-1,
		 99, 98, 111, 101,-1,
		 101, 111, 98, 99,-1,
		 102, 101, 111, 110, 109, 108, 107, 106, 105, 104, 103,-1,
		 103, 104, 105, 106, 107, 108, 109, 110, 111, 101, 102,-1,
		 112, 113, 114, 115, 116, 117, 118, 119, 120, 121, 122,-1,
		 122, 121, 120, 119, 118, 117, 116, 115, 114, 113, 112,-1,
		 185, 161, 162, 186,-1,
		 186, 162, 161, 185,-1,
		 132, 182, 186, 162, 160, 133, 136, 135,-1,
		 135, 136, 133, 160, 162, 186, 182, 132,-1,
		 196, 137, 140, 139, 156, 161, 185, 203,-1,
		 203, 185, 161, 156, 139, 140, 137, 196,-1,
		 155, 154, 157, 158, 159, 160, 162, 161, 156,-1,
		 156, 161, 162, 160, 159, 158, 157, 154, 155,-1,
		 203, 185, 186, 182, 200,-1,
		 200, 182, 186, 185, 203,-1,
		 188, 198, 202, 195, 193, 192, 191, 190, 189,-1,
		 189, 190, 191, 192, 193, 195, 202, 198, 188,-1,
		 197, 196, 203, 200, 199, 201, 202, 198,-1,
		 198, 202, 201, 199, 200, 203, 196, 197,-1,
		]
	} #IndexedFaceSet
} #Polyhedron
Separator { #Polyhedron
	DEF COORD12 Coordinate3 {
		point [
		 -0.0981 0.1648 -0.1852,
		 0.0616 0.1648 -0.2003,
		 0.1852 0.1648 -0.0981,
		 0.2003 0.1648 0.0616,
		 0.0981 0.1648 0.1852,
		 -0.0616 0.1648 0.2003,
		 -0.1852 0.1648 0.0981,
		 -0.2003 0.1648 -0.0616,
		 -0.0981 0.0000 -0.1852,
		 0.0616 0.0000 -0.2003,
		 0.1852 0.0000 -0.0981,
		 0.2003 0.0000 0.0616,
		 0.0981 0.0000 0.1852,
		 -0.0616 0.0000 0.2003,
		 -0.1852 0.0000 0.0981,
		 -0.2003 0.0000 -0.0616,
		 -0.0616 0.1413 0.2003,
		 0.0981 0.1413 0.1852,
		 -0.0616 0.0236 0.2003,
		 -0.0616 0.1413 0.2003,
		 -0.0382 0.1413 0.1981,
		 -0.0382 0.0236 0.1981,
		 0.0981 0.0236 0.1852,
		 -0.0616 0.0236 0.2003,
		 0.0981 0.1413 0.1852,
		 0.0790 0.0236 0.1870,
		 0.0790 0.1413 0.1870,
		 0.0981 0.1413 0.1852,
		 -0.0616 0.1413 0.2003,
		 -0.0616 0.1413 0.2003,
		 -0.0616 0.0236 0.2003,
		 -0.0616 0.0236 0.2003,
		 0.0981 0.0236 0.1852,
		 0.0981 0.1413 0.1852
		]
	} #Coordinate3
	Material {
		ambientColor      0.0412 0.0412 0.0412  #ambientColor
		diffuseColor      0.1647 0.1647 0.1647  #diffuseColor
		transparency      0.0000                #transparency
	} #Material

	IndexedFaceSet {
		coordIndex [ 
		 0, 1, 2, 3, 4, 5, 6, 7,-1,
		 7, 6, 5, 4, 3, 2, 1, 0,-1,
		 0, 7, 15, 8,-1,
		 8, 15, 7, 0,-1,
		 1, 0, 8, 9,-1,
		 9, 8, 0, 1,-1,
		 2, 1, 9, 10,-1,
		 10, 9, 1, 2,-1,
		 3, 2, 10, 11,-1,
		 11, 10, 2, 3,-1,
		 4, 3, 11, 12,-1,
		 12, 11, 3, 4,-1,
		 16, 5, 4, 17,-1,
		 18, 19, 20, 21,-1,
		 22, 12, 13, 23,-1,
		 24, 22, 25, 26,-1,
		]
	} #IndexedFaceSet
	Material {
		ambientColor      0.2088 0.2088 0.0000  #ambientColor
		diffuseColor      0.8353 0.8353 0.0000  #diffuseColor
		transparency      0.0000                #transparency
	} #Material

	IndexedFaceSet {
		coordIndex [ 
		 26, 25, 21, 20,-1,
		]
	} #IndexedFaceSet
	Material {
		ambientColor      0.0412 0.0412 0.0412  #ambientColor
		diffuseColor      0.1647 0.1647 0.1647  #diffuseColor
		transparency      0.0000                #transparency
	} #Material

	IndexedFaceSet {
		coordIndex [ 
		 27, 4, 5, 28,-1,
		 21, 20, 29, 30,-1,
		 31, 13, 12, 32,-1,
		 26, 25, 32, 33,-1,
		]
	} #IndexedFaceSet
	Material {
		ambientColor      0.2088 0.2088 0.0000  #ambientColor
		diffuseColor      0.8353 0.8353 0.0000  #diffuseColor
		transparency      0.0000                #transparency
	} #Material

	IndexedFaceSet {
		coordIndex [ 
		 20, 21, 25, 26,-1,
		]
	} #IndexedFaceSet
	Material {
		ambientColor      0.0412 0.0412 0.0412  #ambientColor
		diffuseColor      0.1647 0.1647 0.1647  #diffuseColor
		transparency      0.0000                #transparency
	} #Material

	IndexedFaceSet {
		coordIndex [ 
		 6, 5, 13, 14,-1,
		 14, 13, 5, 6,-1,
		 7, 6, 14, 15,-1,
		 15, 14, 6, 7,-1,
		 15, 14, 13, 12, 11, 10, 9, 8,-1,
		 8, 9, 10, 11, 12, 13, 14, 15,-1,
		]
	} #IndexedFaceSet
} #Polyhedron
Separator { #Polyhedron
	DEF COORD13 Coordinate3 {
		point [
		 0.0884 0.1898 -0.0093,
		 0.0884 0.1737 -0.0261,
		 0.0895 0.1659 -0.0082,
		 0.0971 0.1672 0.1582,
		 0.0971 0.1752 0.1666,
		 0.0904 0.1901 0.0345,
		 0.0479 0.1888 -0.0023,
		 0.0479 0.1727 -0.0191,
		 0.0490 0.1649 -0.0012,
		 0.0566 0.1662 0.1652,
		 0.0566 0.1742 0.1736,
		 0.0499 0.1891 0.0415,
		 0.0884 0.1833 -0.0161,
		 0.0931 0.1841 0.0879,
		 0.0777 0.1898 0.0367,
		 0.0757 0.1894 -0.0071,
		 0.0582 0.1893 0.0401,
		 0.0562 0.1890 -0.0037,
		 0.0479 0.1850 -0.0062,
		 0.0515 0.1856 0.0726,
		 0.0971 0.1749 0.1662,
		 0.0919 0.1839 0.0618,
		 0.0966 0.1752 0.1667,
		 0.0877 0.1861 0.0699,
		 0.0598 0.1893 0.0398,
		 0.0578 0.1892 0.0325,
		 0.0566 0.1732 0.1725,
		 0.0591 0.1743 0.1731,
		 0.0498 0.1853 0.0345,
		 0.0561 0.1661 0.1542,
		 0.0599 0.1663 0.1646,
		 0.0566 0.1732 0.1725,
		 0.0566 0.1732 0.1724,
		 0.0946 0.1668 0.1036,
		 0.0953 0.1781 0.1289,
		 0.0915 0.1671 0.1591,
		 0.0925 0.1751 0.1674,
		 0.0944 0.1779 0.1431,
		 0.0555 0.1660 0.1422,
		 0.0627 0.1663 0.1641,
		 0.0594 0.1743 0.1731,
		 0.0591 0.1744 0.1724,
		 0.0561 0.1741 0.1629,
		 0.0522 0.1870 -0.0049,
		 0.0562 0.1729 -0.0205,
		 0.0487 0.1675 -0.0073,
		 0.0483 0.1850 0.0022,
		 0.0888 0.1707 -0.0192,
		 0.0893 0.1834 0.0044,
		 0.0788 0.1879 -0.0093,
		 0.0834 0.1736 -0.0252,
		 0.0485 0.1751 -0.0032,
		 0.0549 0.1762 0.1382,
		 0.0521 0.1864 0.0339,
		 0.0505 0.1862 -0.0019
		]
	} #Coordinate3
	Material {
		ambientColor      0.2088 0.2088 0.0000  #ambientColor
		diffuseColor      0.8353 0.8353 0.0000  #diffuseColor
		transparency      0.0000                #transparency
	} #Material

	IndexedFaceSet {
		coordIndex [ 
		 47, 2, 33, 34, 21, 48,-1,
		 48, 21, 34, 33, 2, 47,-1,
		 14, 24, 25, 17, 15,-1,
		 15, 17, 25, 24, 14,-1,
		 49, 15, 17, 43, 44, 50,-1,
		 50, 44, 43, 17, 15, 49,-1,
		 2, 47, 50, 44, 45, 8,-1,
		 8, 45, 44, 50, 47, 2,-1,
		 33, 2, 8, 38, 39, 35,-1,
		 35, 39, 38, 8, 2, 33,-1,
		 35, 39, 40, 36,-1,
		 36, 40, 39, 35,-1,
		 36, 40, 41, 24, 14, 23, 37,-1,
		 37, 23, 14, 24, 41, 40, 36,-1,
		 38, 8, 45, 51, 52, 42,-1,
		 42, 52, 51, 45, 8, 38,-1,
		 48, 21, 23, 14, 15, 49,-1,
		 49, 15, 14, 23, 21, 48,-1,
		 17, 25, 53, 54, 43,-1,
		 43, 54, 53, 25, 17,-1,
		 21, 34, 37, 23,-1,
		 23, 37, 34, 21,-1,
		 25, 24, 41, 42, 52, 53,-1,
		 53, 52, 42, 41, 24, 25,-1,
		 34, 33, 35, 36, 37,-1,
		 37, 36, 35, 33, 34,-1,
		 39, 38, 42, 41, 40,-1,
		 40, 41, 42, 38, 39,-1,
		 44, 43, 54, 51, 45,-1,
		 45, 51, 54, 43, 44,-1,
		 47, 48, 49, 50,-1,
		 50, 49, 48, 47,-1,
		 52, 51, 54, 53,-1,
		 53, 54, 51, 52,-1,
		]
	} #IndexedFaceSet
} #Polyhedron
Separator { #Polyhedron
	DEF COORD14 Coordinate3 {
		point [
		 -0.0125 0.1926 -0.0622,
		 -0.0110 0.1772 -0.0825,
		 -0.0114 0.1688 -0.0665,
		 -0.0188 0.1642 0.0995,
		 -0.0196 0.1719 0.1097,
		 -0.0145 0.1914 -0.0185,
		 -0.0530 0.1917 -0.0692,
		 -0.0515 0.1763 -0.0896,
		 -0.0519 0.1679 -0.0735,
		 -0.0593 0.1633 0.0925,
		 -0.0601 0.1710 0.1026,
		 -0.0549 0.1905 -0.0256,
		 -0.0119 0.1864 -0.0704,
		 -0.0165 0.1835 0.0334,
		 -0.0272 0.1911 -0.0207,
		 -0.0252 0.1923 -0.0644,
		 -0.0467 0.1907 -0.0241,
		 -0.0447 0.1919 -0.0678,
		 -0.0526 0.1881 -0.0740,
		 -0.0562 0.1859 0.0047,
		 -0.0196 0.1716 0.1093,
		 -0.0154 0.1842 0.0073,
		 -0.0202 0.1719 0.1096,
		 -0.0203 0.1862 0.0143,
		 -0.0451 0.1907 -0.0238,
		 -0.0464 0.1909 -0.0317,
		 -0.0600 0.1700 0.1014,
		 -0.0576 0.1711 0.1031,
		 -0.0545 0.1869 -0.0333,
		 -0.0588 0.1636 0.0815,
		 -0.0561 0.1634 0.0930,
		 -0.0600 0.1700 0.1014,
		 -0.0600 0.1700 0.1013,
		 -0.0164 0.1657 0.0451,
		 -0.0181 0.1761 0.0728,
		 -0.0244 0.1641 0.0986,
		 -0.0242 0.1718 0.1089,
		 -0.0202 0.1753 0.0864,
		 -0.0583 0.1640 0.0695,
		 -0.0532 0.1635 0.0935,
		 -0.0573 0.1711 0.1031,
		 -0.0576 0.1712 0.1023,
		 -0.0596 0.1712 0.0920,
		 -0.0486 0.1900 -0.0708,
		 -0.0431 0.1765 -0.0881,
		 -0.0517 0.1708 -0.0790,
		 -0.0530 0.1878 -0.0656,
		 -0.0111 0.1739 -0.0763,
		 -0.0128 0.1858 -0.0500,
		 -0.0220 0.1909 -0.0659,
		 -0.0160 0.1771 -0.0834,
		 -0.0523 0.1782 -0.0732,
		 -0.0586 0.1742 0.0679,
		 -0.0521 0.1881 -0.0329,
		 -0.0505 0.1891 -0.0686
		]
	} #Coordinate3
	Material {
		ambientColor      0.2088 0.2088 0.0000  #ambientColor
		diffuseColor      0.8353 0.8353 0.0000  #diffuseColor
		transparency      0.0000                #transparency
	} #Material

	IndexedFaceSet {
		coordIndex [ 
		 47, 2, 33, 34, 21, 48,-1,
		 48, 21, 34, 33, 2, 47,-1,
		 14, 24, 25, 17, 15,-1,
		 15, 17, 25, 24, 14,-1,
		 49, 15, 17, 43, 44, 50,-1,
		 50, 44, 43, 17, 15, 49,-1,
		 2, 47, 50, 44, 45, 8,-1,
		 8, 45, 44, 50, 47, 2,-1,
		 33, 2, 8, 38, 39, 35,-1,
		 35, 39, 38, 8, 2, 33,-1,
		 35, 39, 40, 36,-1,
		 36, 40, 39, 35,-1,
		 36, 40, 41, 24, 14, 23, 37,-1,
		 37, 23, 14, 24, 41, 40, 36,-1,
		 38, 8, 45, 51, 52, 42,-1,
		 42, 52, 51, 45, 8, 38,-1,
		 48, 21, 23, 14, 15, 49,-1,
		 49, 15, 14, 23, 21, 48,-1,
		 17, 25, 53, 54, 43,-1,
		 43, 54, 53, 25, 17,-1,
		 21, 34, 37, 23,-1,
		 23, 37, 34, 21,-1,
		 25, 24, 41, 42, 52, 53,-1,
		 53, 52, 42, 41, 24, 25,-1,
		 34, 33, 35, 36, 37,-1,
		 37, 36, 35, 33, 34,-1,
		 39, 38, 42, 41, 40,-1,
		 40, 41, 42, 38, 39,-1,
		 44, 43, 54, 51, 45,-1,
		 45, 51, 54, 43, 44,-1,
		 47, 48, 49, 50,-1,
		 50, 49, 48, 47,-1,
		 52, 51, 54, 53,-1,
		 53, 54, 51, 52,-1,
		]
	} #IndexedFaceSet
} #Polyhedron
}
