#VRML V1.0 ascii

Separator {
	Info { string "Virtus VRML 1.0.1
	VRML Export Filter
	Virtus Corporation
	114 MacKenan Drive, Suite 100
	Cary, NC 27511
	919-467-9700"}

	DEF BackgroundColor Info{  # Sky color
		string " 0.3 0.8 1.0 "
	}

	DirectionalLight {
		on         TRUE          # SFBool
		intensity  1.0           # SFFloat
		color      0.4 0.4 0.4   # SFColor
		direction  0 0 0   # SFVec3f
	}

	DirectionalLight {
		on         TRUE          # SFBool
		intensity  1.0           # SFFloat
		color      0.5 0.5 0.5   # SFColor
		direction  34 -247 -57   # SFVec3f
	}

	DirectionalLight {
		on         TRUE          # SFBool
		intensity  1.0           # SFFloat
		color      0.4 0.4 0.4   # SFColor
		direction  -209 -104 105   # SFVec3f
	}

	DirectionalLight {
		on         TRUE          # SFBool
		intensity  1.0           # SFFloat
		color      0.5 0.5 0.5   # SFColor
		direction  5 119 -226   # SFVec3f
	}

	PerspectiveCamera {
		position 0.0000 1.5240 0.0000          #SFVec3f 
		focalDistance  5            #SFFloat 
		heightAngle 1.9201 
	}

	ShapeHints {
		vertexOrdering	CLOCKWISE
		shapeType	SOLID
	}

	Transform {
		translation 0 0 0
		scaleFactor 1.0 1.0 1.0
	}

Separator { #Polyhedron
	DEF COORD0 Coordinate3 {
		point [
		 -0.0042 0.6096 -7.8147,
		 -0.0042 0.6350 -7.8147,
		 -0.0042 0.6604 -7.9925,
		 -0.0042 0.6096 -7.9925,
		 -0.4868 0.6096 -7.8147,
		 -0.4868 0.6350 -7.8147,
		 -0.4868 0.6604 -7.9925,
		 -0.4868 0.6096 -7.9925,
		 -0.0042 0.6386 -7.8399,
		 -0.4868 0.6386 -7.8399,
		 -0.4614 0.6494 -7.9153,
		 -0.4614 0.6387 -7.8399,
		 -0.4868 0.6494 -7.9153,
		 -0.1312 0.6530 -7.9405,
		 -0.1312 0.6494 -7.9153,
		 -0.4868 0.6494 -7.9153,
		 -0.4868 0.6530 -7.9405,
		 -0.0296 0.6494 -7.9153,
		 -0.0296 0.6530 -7.9405,
		 -0.0042 0.6530 -7.9405,
		 -0.0042 0.6494 -7.9153,
		 -0.4614 0.6566 -7.9656,
		 -0.4614 0.6530 -7.9405,
		 -0.4868 0.6566 -7.9656,
		 -0.4868 0.6566 -7.9656,
		 -0.0042 0.6566 -7.9656,
		 -0.1312 0.6566 -7.9656,
		 -0.1312 0.6530 -7.9405,
		 -0.1609 0.6530 -7.9405,
		 -0.1609 0.6566 -7.9656,
		 -0.0296 0.6530 -7.9405,
		 -0.0296 0.6566 -7.9656,
		 -0.0042 0.6566 -7.9656,
		 -0.0042 0.6530 -7.9405,
		 -0.1312 0.6494 -7.9153,
		 -0.1312 0.6387 -7.8399,
		 -0.1651 0.6387 -7.8399,
		 -0.1651 0.6494 -7.9153,
		 -0.0296 0.6387 -7.8399,
		 -0.0296 0.6494 -7.9153,
		 -0.0042 0.6494 -7.9153,
		 -0.0042 0.6386 -7.8399,
		 -0.1651 0.6387 -7.8399,
		 -0.1609 0.6530 -7.9405,
		 -0.4868 0.6386 -7.8399,
		 -0.0042 0.6386 -7.8399,
		 -0.4868 0.6494 -7.9153,
		 -0.4868 0.6530 -7.9405,
		 -0.4868 0.6494 -7.9153,
		 -0.1312 0.6494 -7.9153,
		 -0.1312 0.6530 -7.9405,
		 -0.0042 0.6494 -7.9153,
		 -0.0042 0.6530 -7.9405,
		 -0.0296 0.6530 -7.9405,
		 -0.0296 0.6494 -7.9153,
		 -0.4868 0.6566 -7.9656,
		 -0.0042 0.6566 -7.9656,
		 -0.4868 0.6566 -7.9656,
		 -0.1609 0.6530 -7.9405,
		 -0.1312 0.6530 -7.9405,
		 -0.0042 0.6530 -7.9405,
		 -0.0042 0.6566 -7.9656,
		 -0.0296 0.6530 -7.9405,
		 -0.1651 0.6387 -7.8399,
		 -0.1312 0.6494 -7.9153,
		 -0.0042 0.6386 -7.8399,
		 -0.0042 0.6494 -7.9153,
		 -0.0296 0.6494 -7.9153
		]
	} #Coordinate3
	Material {
		ambientColor      0.2020 0.2020 0.2020  #ambientColor
		diffuseColor      0.8078 0.8078 0.8078  #diffuseColor
		transparency      0.0000                #transparency
	} #Material

	IndexedFaceSet {
		coordIndex [ 
		 0, 1, 2, 3,-1,
		 3, 2, 1, 0,-1,
		 0, 3, 7, 4,-1,
		 4, 7, 3, 0,-1,
		 1, 0, 4, 5,-1,
		 5, 4, 0, 1,-1,
		 8, 1, 5, 9,-1,
		 10, 11, 9, 12,-1,
		 13, 14, 15, 16,-1,
		 17, 18, 19, 20,-1,
		 21, 22, 16, 23,-1,
		 24, 6, 2, 25,-1,
		 26, 27, 28, 29,-1,
		 30, 31, 32, 33,-1,
		 34, 35, 36, 37,-1,
		 38, 39, 40, 41,-1,
		]
	} #IndexedFaceSet
	Material {
		ambientColor      0.1392 0.1392 0.1392  #ambientColor
		diffuseColor      0.5569 0.5569 0.5569  #diffuseColor
		transparency      0.0000                #transparency
	} #Material

	IndexedFaceSet {
		coordIndex [ 
		 11, 10, 37, 42,-1,
		 22, 21, 29, 43,-1,
		 31, 38, 35, 26,-1,
		]
	} #IndexedFaceSet
	Material {
		ambientColor      0.2020 0.2020 0.2020  #ambientColor
		diffuseColor      0.8078 0.8078 0.8078  #diffuseColor
		transparency      0.0000                #transparency
	} #Material

	IndexedFaceSet {
		coordIndex [ 
		 44, 5, 1, 45,-1,
		 46, 44, 11, 10,-1,
		 47, 48, 49, 50,-1,
		 51, 52, 53, 54,-1,
		 55, 47, 22, 21,-1,
		 56, 2, 6, 57,-1,
		 29, 58, 59, 26,-1,
		 60, 61, 31, 62,-1,
		 37, 63, 35, 64,-1,
		 65, 66, 67, 38,-1,
		]
	} #IndexedFaceSet
	Material {
		ambientColor      0.1392 0.1392 0.1392  #ambientColor
		diffuseColor      0.5569 0.5569 0.5569  #diffuseColor
		transparency      0.0000                #transparency
	} #Material

	IndexedFaceSet {
		coordIndex [ 
		 42, 37, 10, 11,-1,
		 43, 29, 21, 22,-1,
		 26, 35, 38, 31,-1,
		]
	} #IndexedFaceSet
	Material {
		ambientColor      0.2020 0.2020 0.2020  #ambientColor
		diffuseColor      0.8078 0.8078 0.8078  #diffuseColor
		transparency      0.0000                #transparency
	} #Material

	IndexedFaceSet {
		coordIndex [ 
		 3, 2, 6, 7,-1,
		 7, 6, 2, 3,-1,
		 7, 6, 5, 4,-1,
		 4, 5, 6, 7,-1,
		]
	} #IndexedFaceSet
} #Polyhedron
Separator { #Polyhedron
	DEF COORD1 Coordinate3 {
		point [
		 -0.0301 0.7874 -8.4972,
		 -0.0301 0.9398 -8.4972,
		 -0.4767 0.9398 -8.4972,
		 -0.4767 0.7874 -8.4972,
		 -0.0301 0.7874 -8.0518,
		 -0.0301 0.9398 -8.0518,
		 -0.4767 0.9398 -8.0518,
		 -0.4767 0.7874 -8.0518,
		 -0.4767 0.8043 -8.4972,
		 -0.0301 0.8043 -8.4972,
		 -0.0639 0.9144 -8.4972,
		 -0.0639 0.8043 -8.4972,
		 -0.0301 0.9144 -8.4972,
		 -0.0301 0.9144 -8.4972,
		 -0.4767 0.9144 -8.4972,
		 -0.4767 0.8080 -8.4972,
		 -0.4767 0.8043 -8.4972,
		 -0.1105 0.8043 -8.4972,
		 -0.1105 0.8080 -8.4972,
		 -0.1456 0.9138 -8.4972,
		 -0.1456 0.8080 -8.4972,
		 -0.1105 0.9138 -8.4972,
		 -0.1105 0.9138 -8.4972,
		 -0.1105 0.9144 -8.4972,
		 -0.4767 0.9144 -8.4972,
		 -0.4767 0.9138 -8.4972,
		 -0.2218 0.9138 -8.4972,
		 -0.2218 0.8080 -8.4972,
		 -0.1879 0.8080 -8.4972,
		 -0.1879 0.9138 -8.4972,
		 -0.2641 0.8080 -8.4972,
		 -0.2641 0.9138 -8.4972,
		 -0.4767 0.9138 -8.4972,
		 -0.4767 0.8080 -8.4972,
		 -0.0301 0.8043 -8.4972,
		 -0.4767 0.8043 -8.4972,
		 -0.0301 0.9144 -8.4972,
		 -0.4767 0.9144 -8.4972,
		 -0.0301 0.9144 -8.4972,
		 -0.1105 0.8080 -8.4972,
		 -0.4767 0.8043 -8.4972,
		 -0.4767 0.8080 -8.4972,
		 -0.1105 0.9138 -8.4972,
		 -0.4767 0.9138 -8.4972,
		 -0.4767 0.9144 -8.4972,
		 -0.1105 0.9138 -8.4972,
		 -0.4767 0.8080 -8.4972,
		 -0.4767 0.9138 -8.4972,
		 -0.4767 0.8750 -8.0518,
		 -0.0301 0.8750 -8.0518,
		 -0.4767 0.8495 -8.0518,
		 -0.2219 0.8750 -8.0518,
		 -0.2219 0.8495 -8.0518,
		 -0.4767 0.8409 -8.0518,
		 -0.4767 0.8495 -8.0518,
		 -0.0301 0.8495 -8.0518,
		 -0.0301 0.8409 -8.0518,
		 -0.4767 0.8382 -8.0518,
		 -0.4337 0.8409 -8.0518,
		 -0.4426 0.8382 -8.0518,
		 -0.4767 0.8304 -8.0518,
		 -0.4476 0.8304 -8.0518,
		 -0.4767 0.8215 -8.0518,
		 -0.4449 0.8215 -8.0518,
		 -0.4767 0.8165 -8.0518,
		 -0.4371 0.8165 -8.0518,
		 -0.0301 0.8165 -8.0518,
		 -0.4767 0.8165 -8.0518,
		 -0.0301 0.8192 -8.0518,
		 -0.4282 0.8192 -8.0518,
		 -0.0301 0.8270 -8.0518,
		 -0.4232 0.8270 -8.0518,
		 -0.0301 0.8359 -8.0518,
		 -0.4259 0.8359 -8.0518,
		 -0.0301 0.8409 -8.0518,
		 -0.0301 0.8750 -8.0518,
		 -0.0301 0.8495 -8.0518,
		 -0.0712 0.8495 -8.0518,
		 -0.0712 0.8750 -8.0518,
		 -0.0301 0.8750 -8.0518,
		 -0.4767 0.8750 -8.0518,
		 -0.4767 0.8495 -8.0518,
		 -0.0301 0.8409 -8.0518,
		 -0.0301 0.8495 -8.0518,
		 -0.4767 0.8495 -8.0518,
		 -0.4767 0.8409 -8.0518,
		 -0.4767 0.8382 -8.0518,
		 -0.4767 0.8304 -8.0518,
		 -0.4767 0.8215 -8.0518,
		 -0.4767 0.8165 -8.0518,
		 -0.4767 0.8165 -8.0518,
		 -0.0301 0.8165 -8.0518,
		 -0.0301 0.8192 -8.0518,
		 -0.0301 0.8270 -8.0518,
		 -0.0301 0.8359 -8.0518,
		 -0.0301 0.8409 -8.0518,
		 -0.0301 0.8495 -8.0518,
		 -0.0301 0.8750 -8.0518
		]
	} #Coordinate3
	Material {
		ambientColor      0.2020 0.2020 0.2020  #ambientColor
		diffuseColor      0.8078 0.8078 0.8078  #diffuseColor
		transparency      0.0000                #transparency
	} #Material

	IndexedFaceSet {
		coordIndex [ 
		 8, 3, 0, 9,-1,
		 10, 11, 9, 12,-1,
		 13, 1, 2, 14,-1,
		 15, 16, 17, 18,-1,
		 19, 20, 18, 21,-1,
		 22, 23, 24, 25,-1,
		 26, 27, 28, 29,-1,
		 30, 31, 32, 33,-1,
		]
	} #IndexedFaceSet
	Material {
		ambientColor      0.0000 0.0000 0.0000  #ambientColor
		diffuseColor      0.0000 0.0000 0.0000  #diffuseColor
		transparency      0.0000                #transparency
	} #Material

	IndexedFaceSet {
		coordIndex [ 
		 11, 10, 23, 17,-1,
		 20, 19, 29, 28,-1,
		 27, 26, 31, 30,-1,
		]
	} #IndexedFaceSet
	Material {
		ambientColor      0.2020 0.2020 0.2020  #ambientColor
		diffuseColor      0.8078 0.8078 0.8078  #diffuseColor
		transparency      0.0000                #transparency
	} #Material

	IndexedFaceSet {
		coordIndex [ 
		 34, 0, 3, 35,-1,
		 36, 34, 11, 10,-1,
		 37, 2, 1, 38,-1,
		 39, 17, 40, 41,-1,
		 42, 39, 20, 19,-1,
		 43, 44, 23, 45,-1,
		 29, 28, 27, 26,-1,
		 46, 47, 31, 30,-1,
		]
	} #IndexedFaceSet
	Material {
		ambientColor      0.0000 0.0000 0.0000  #ambientColor
		diffuseColor      0.0000 0.0000 0.0000  #diffuseColor
		transparency      0.0000                #transparency
	} #Material

	IndexedFaceSet {
		coordIndex [ 
		 17, 23, 10, 11,-1,
		 28, 29, 19, 20,-1,
		 30, 31, 26, 27,-1,
		]
	} #IndexedFaceSet
	Material {
		ambientColor      0.2020 0.2020 0.2020  #ambientColor
		diffuseColor      0.8078 0.8078 0.8078  #diffuseColor
		transparency      0.0000                #transparency
	} #Material

	IndexedFaceSet {
		coordIndex [ 
		 0, 3, 7, 4,-1,
		 4, 7, 3, 0,-1,
		 1, 0, 4, 5,-1,
		 5, 4, 0, 1,-1,
		 2, 1, 5, 6,-1,
		 6, 5, 1, 2,-1,
		 3, 2, 6, 7,-1,
		 7, 6, 2, 3,-1,
		 48, 6, 5, 49,-1,
		 50, 48, 51, 52,-1,
		 53, 54, 55, 56,-1,
		 57, 53, 58, 59,-1,
		 60, 57, 59, 61,-1,
		 62, 60, 61, 63,-1,
		 64, 62, 63, 65,-1,
		 66, 4, 7, 67,-1,
		 68, 66, 65, 69,-1,
		 70, 68, 69, 71,-1,
		 72, 70, 71, 73,-1,
		 74, 72, 73, 58,-1,
		 75, 76, 77, 78,-1,
		]
	} #IndexedFaceSet
	Material {
		ambientColor      0.0000 0.0000 0.0000  #ambientColor
		diffuseColor      0.0000 0.0000 0.0000  #diffuseColor
		transparency      0.0000                #transparency
	} #Material

	IndexedFaceSet {
		coordIndex [ 
		 52, 51, 78, 77,-1,
		]
	} #IndexedFaceSet
	Material {
		ambientColor      0.2500 0.0500 0.0500  #ambientColor
		diffuseColor      1.0000 0.2000 0.2000  #diffuseColor
		transparency      0.0000                #transparency
	} #Material

	IndexedFaceSet {
		coordIndex [ 
		 65, 63, 61, 59, 58, 73, 71, 69,-1,
		]
	} #IndexedFaceSet
	Material {
		ambientColor      0.2020 0.2020 0.2020  #ambientColor
		diffuseColor      0.8078 0.8078 0.8078  #diffuseColor
		transparency      0.0000                #transparency
	} #Material

	IndexedFaceSet {
		coordIndex [ 
		 79, 5, 6, 80,-1,
		 52, 51, 80, 81,-1,
		 82, 83, 84, 85,-1,
		 59, 58, 85, 86,-1,
		 61, 59, 86, 87,-1,
		 63, 61, 87, 88,-1,
		 65, 63, 88, 89,-1,
		 90, 7, 4, 91,-1,
		 69, 65, 91, 92,-1,
		 71, 69, 92, 93,-1,
		 73, 71, 93, 94,-1,
		 58, 73, 94, 95,-1,
		 78, 77, 96, 97,-1,
		]
	} #IndexedFaceSet
	Material {
		ambientColor      0.0000 0.0000 0.0000  #ambientColor
		diffuseColor      0.0000 0.0000 0.0000  #diffuseColor
		transparency      0.0000                #transparency
	} #Material

	IndexedFaceSet {
		coordIndex [ 
		 77, 78, 51, 52,-1,
		]
	} #IndexedFaceSet
	Material {
		ambientColor      0.2500 0.0500 0.0500  #ambientColor
		diffuseColor      1.0000 0.2000 0.2000  #diffuseColor
		transparency      0.0000                #transparency
	} #Material

	IndexedFaceSet {
		coordIndex [ 
		 69, 71, 73, 58, 59, 61, 63, 65,-1,
		]
	} #IndexedFaceSet
} #Polyhedron
Separator { #Polyhedron
	DEF COORD2 Coordinate3 {
		point [
		 -0.4428 1.3267 -8.2145,
		 -0.4428 1.3267 -8.4948,
		 -0.0576 1.3267 -8.4948,
		 -0.0576 1.3267 -8.2145,
		 -0.4428 0.9398 -8.2145,
		 -0.4428 0.9398 -8.4948,
		 -0.0576 0.9398 -8.4948,
		 -0.0576 0.9398 -8.2145
		]
	} #Coordinate3
	Material {
		ambientColor      0.2020 0.2020 0.2020  #ambientColor
		diffuseColor      0.8078 0.8078 0.8078  #diffuseColor
		transparency      0.0000                #transparency
	} #Material

	IndexedFaceSet {
		coordIndex [ 
		 0, 1, 2, 3,-1,
		 3, 2, 1, 0,-1,
		 0, 3, 7, 4,-1,
		 4, 7, 3, 0,-1,
		 1, 0, 4, 5,-1,
		 5, 4, 0, 1,-1,
		 2, 1, 5, 6,-1,
		 6, 5, 1, 2,-1,
		 3, 2, 6, 7,-1,
		 7, 6, 2, 3,-1,
		 7, 6, 5, 4,-1,
		 4, 5, 6, 7,-1,
		]
	} #IndexedFaceSet
} #Polyhedron
Separator { #Polyhedron
	DEF COORD3 Coordinate3 {
		point [
		 -0.5148 1.3818 -8.0010,
		 -0.5148 1.3818 -8.2144,
		 0.0085 1.3818 -8.2144,
		 0.0085 1.3818 -8.0010,
		 -0.5148 0.9398 -8.0010,
		 -0.5148 0.9398 -8.2144,
		 0.0085 0.9398 -8.2144,
		 0.0085 0.9398 -8.0010,
		 -0.5148 1.2912 -8.0010,
		 0.0085 1.2912 -8.0010,
		 -0.5148 1.0245 -8.0010,
		 -0.4386 1.2912 -8.0010,
		 -0.4386 1.0245 -8.0010,
		 -0.5148 1.0015 -8.0010,
		 -0.5148 1.0245 -8.0010,
		 0.0085 1.0245 -8.0010,
		 0.0085 1.0015 -8.0010,
		 -0.5148 0.9580 -8.0010,
		 -0.4894 1.0015 -8.0010,
		 -0.4894 0.9580 -8.0010,
		 0.0085 0.9580 -8.0010,
		 -0.5148 0.9580 -8.0010,
		 0.0085 1.0015 -8.0010,
		 0.0085 0.9580 -8.0010,
		 -0.4458 0.9580 -8.0010,
		 -0.4458 1.0015 -8.0010,
		 0.0085 1.2912 -8.0010,
		 0.0085 1.0245 -8.0010,
		 -0.0533 1.0245 -8.0010,
		 -0.0533 1.2912 -8.0010,
		 -0.4386 1.2652 -8.0010,
		 -0.0533 1.2652 -8.0010,
		 -0.4386 1.0535 -8.0010,
		 -0.4041 1.2652 -8.0010,
		 -0.4041 1.0535 -8.0010,
		 -0.0533 1.0535 -8.0010,
		 -0.4386 1.0535 -8.0010,
		 -0.0533 1.2652 -8.0010,
		 -0.0533 1.0535 -8.0010,
		 -0.0866 1.0535 -8.0010,
		 -0.0866 1.2652 -8.0010,
		 0.0085 1.2912 -8.0010,
		 -0.5148 1.2912 -8.0010,
		 -0.5148 1.0245 -8.0010,
		 0.0085 1.0015 -8.0010,
		 0.0085 1.0245 -8.0010,
		 -0.5148 1.0245 -8.0010,
		 -0.5148 1.0015 -8.0010,
		 -0.5148 0.9580 -8.0010,
		 -0.5148 0.9580 -8.0010,
		 0.0085 0.9580 -8.0010,
		 0.0085 0.9580 -8.0010,
		 0.0085 1.0015 -8.0010,
		 0.0085 1.0245 -8.0010,
		 0.0085 1.2912 -8.0010,
		 -0.0533 1.2652 -8.0010,
		 -0.4386 1.2652 -8.0010,
		 -0.4386 1.0535 -8.0010,
		 -0.4386 1.0535 -8.0010,
		 -0.0533 1.0535 -8.0010,
		 -0.0533 1.0535 -8.0010,
		 -0.0533 1.2652 -8.0010
		]
	} #Coordinate3
	Material {
		ambientColor      0.2020 0.2020 0.2020  #ambientColor
		diffuseColor      0.8078 0.8078 0.8078  #diffuseColor
		transparency      0.0000                #transparency
	} #Material

	IndexedFaceSet {
		coordIndex [ 
		 0, 1, 2, 3,-1,
		 3, 2, 1, 0,-1,
		 8, 0, 3, 9,-1,
		 10, 8, 11, 12,-1,
		 13, 14, 15, 16,-1,
		 17, 13, 18, 19,-1,
		 20, 7, 4, 21,-1,
		 22, 23, 24, 25,-1,
		 26, 27, 28, 29,-1,
		]
	} #IndexedFaceSet
	Material {
		ambientColor      0.0000 0.0000 0.0000  #ambientColor
		diffuseColor      0.0000 0.0000 0.0000  #diffuseColor
		transparency      0.0000                #transparency
	} #Material

	IndexedFaceSet {
		coordIndex [ 
		 30, 11, 29, 31,-1,
		 32, 30, 33, 34,-1,
		 35, 28, 12, 36,-1,
		 37, 38, 39, 40,-1,
		]
	} #IndexedFaceSet
	Material {
		ambientColor      0.1000 0.1000 0.2500  #ambientColor
		diffuseColor      0.4000 0.4000 1.0000  #diffuseColor
		transparency      0.0000                #transparency
	} #Material

	IndexedFaceSet {
		coordIndex [ 
		 34, 33, 40, 39,-1,
		]
	} #IndexedFaceSet
	Material {
		ambientColor      0.2500 0.0500 0.0500  #ambientColor
		diffuseColor      1.0000 0.2000 0.2000  #diffuseColor
		transparency      0.0000                #transparency
	} #Material

	IndexedFaceSet {
		coordIndex [ 
		 19, 18, 25, 24,-1,
		]
	} #IndexedFaceSet
	Material {
		ambientColor      0.2020 0.2020 0.2020  #ambientColor
		diffuseColor      0.8078 0.8078 0.8078  #diffuseColor
		transparency      0.0000                #transparency
	} #Material

	IndexedFaceSet {
		coordIndex [ 
		 41, 3, 0, 42,-1,
		 12, 11, 42, 43,-1,
		 44, 45, 46, 47,-1,
		 19, 18, 47, 48,-1,
		 49, 4, 7, 50,-1,
		 25, 24, 51, 52,-1,
		 29, 28, 53, 54,-1,
		]
	} #IndexedFaceSet
	Material {
		ambientColor      0.0000 0.0000 0.0000  #ambientColor
		diffuseColor      0.0000 0.0000 0.0000  #diffuseColor
		transparency      0.0000                #transparency
	} #Material

	IndexedFaceSet {
		coordIndex [ 
		 55, 29, 11, 56,-1,
		 34, 33, 56, 57,-1,
		 58, 12, 28, 59,-1,
		 40, 39, 60, 61,-1,
		]
	} #IndexedFaceSet
	Material {
		ambientColor      0.1000 0.1000 0.2500  #ambientColor
		diffuseColor      0.4000 0.4000 1.0000  #diffuseColor
		transparency      0.0000                #transparency
	} #Material

	IndexedFaceSet {
		coordIndex [ 
		 39, 40, 33, 34,-1,
		]
	} #IndexedFaceSet
	Material {
		ambientColor      0.2500 0.0500 0.0500  #ambientColor
		diffuseColor      1.0000 0.2000 0.2000  #diffuseColor
		transparency      0.0000                #transparency
	} #Material

	IndexedFaceSet {
		coordIndex [ 
		 24, 25, 18, 19,-1,
		]
	} #IndexedFaceSet
	Material {
		ambientColor      0.2020 0.2020 0.2020  #ambientColor
		diffuseColor      0.8078 0.8078 0.8078  #diffuseColor
		transparency      0.0000                #transparency
	} #Material

	IndexedFaceSet {
		coordIndex [ 
		 1, 0, 4, 5,-1,
		 5, 4, 0, 1,-1,
		 2, 1, 5, 6,-1,
		 6, 5, 1, 2,-1,
		 3, 2, 6, 7,-1,
		 7, 6, 2, 3,-1,
		 7, 6, 5, 4,-1,
		 4, 5, 6, 7,-1,
		]
	} #IndexedFaceSet
} #Polyhedron
Separator { #Polyhedron
	DEF COORD4 Coordinate3 {
		point [
		 0.1016 0.7620 -7.9502,
		 0.1016 0.7620 -8.5090,
		 0.5842 0.7620 -8.5090,
		 0.5842 0.7620 -7.9502,
		 0.1016 0.1016 -7.9502,
		 0.1016 0.1016 -8.5090,
		 0.5842 0.1016 -8.5090,
		 0.5842 0.1016 -7.9502,
		 0.1016 0.7620 -7.9502,
		 0.5842 0.7620 -7.9502,
		 0.1016 0.2794 -7.9502,
		 0.1016 0.2794 -7.9502,
		 0.5842 0.2794 -7.9502,
		 0.1016 0.1016 -7.9502,
		 0.5842 0.1016 -7.9502,
		 0.1016 0.5588 -7.9502,
		 0.1016 0.6096 -7.9502,
		 0.5842 0.6096 -7.9502,
		 0.5842 0.5588 -7.9502,
		 0.1016 0.5334 -7.9502,
		 0.3302 0.5588 -7.9502,
		 0.2794 0.5334 -7.9502,
		 0.1016 0.5080 -7.9502,
		 0.3302 0.5080 -7.9502,
		 0.5842 0.5080 -7.9502,
		 0.5842 0.4572 -7.9502,
		 0.1016 0.4572 -7.9502,
		 0.1016 0.5080 -7.9502,
		 0.5842 0.5334 -7.9502,
		 0.3810 0.5334 -7.9502,
		 0.5842 0.5588 -7.9502,
		 0.1016 0.7112 -7.9502,
		 0.1016 0.7620 -7.9502,
		 0.5842 0.7112 -7.9502,
		 0.1016 0.6858 -7.9502,
		 0.3302 0.7112 -7.9502,
		 0.2794 0.6858 -7.9502,
		 0.1016 0.6604 -7.9502,
		 0.3302 0.6604 -7.9502,
		 0.5842 0.6604 -7.9502,
		 0.5842 0.6096 -7.9502,
		 0.1016 0.6096 -7.9502,
		 0.1016 0.6604 -7.9502,
		 0.5842 0.6858 -7.9502,
		 0.3810 0.6858 -7.9502,
		 0.5842 0.7112 -7.9502,
		 0.1016 0.4064 -7.9502,
		 0.1016 0.4572 -7.9502,
		 0.5842 0.4572 -7.9502,
		 0.5842 0.4064 -7.9502,
		 0.1016 0.3810 -7.9502,
		 0.3302 0.4064 -7.9502,
		 0.2794 0.3810 -7.9502,
		 0.1016 0.3556 -7.9502,
		 0.3302 0.3556 -7.9502,
		 0.5842 0.3556 -7.9502,
		 0.5842 0.2794 -7.9502,
		 0.1016 0.2794 -7.9502,
		 0.1016 0.3556 -7.9502,
		 0.5842 0.3810 -7.9502,
		 0.3810 0.3810 -7.9502,
		 0.5842 0.4064 -7.9502,
		 0.1016 0.2286 -7.9502,
		 0.1016 0.2794 -7.9502,
		 0.5842 0.2286 -7.9502,
		 0.1016 0.2032 -7.9502,
		 0.3302 0.2286 -7.9502,
		 0.2794 0.2032 -7.9502,
		 0.1016 0.1778 -7.9502,
		 0.3302 0.1778 -7.9502,
		 0.5842 0.1778 -7.9502,
		 0.1016 0.1778 -7.9502,
		 0.5842 0.2032 -7.9502,
		 0.3810 0.2032 -7.9502,
		 0.5842 0.2286 -7.9502,
		 0.1016 0.7620 -7.9502,
		 0.1016 0.2794 -7.9502,
		 0.1016 0.2794 -7.9502,
		 0.5842 0.5588 -7.9502,
		 0.1016 0.5588 -7.9502,
		 0.1016 0.5334 -7.9502,
		 0.1016 0.5080 -7.9502,
		 0.1016 0.5080 -7.9502,
		 0.5842 0.5080 -7.9502,
		 0.5842 0.5334 -7.9502,
		 0.5842 0.5588 -7.9502,
		 0.5842 0.7112 -7.9502,
		 0.1016 0.7112 -7.9502,
		 0.1016 0.6858 -7.9502,
		 0.1016 0.6604 -7.9502,
		 0.1016 0.6604 -7.9502,
		 0.5842 0.6604 -7.9502,
		 0.5842 0.6858 -7.9502,
		 0.5842 0.7112 -7.9502,
		 0.5842 0.4064 -7.9502,
		 0.1016 0.4064 -7.9502,
		 0.1016 0.3810 -7.9502,
		 0.1016 0.3556 -7.9502,
		 0.1016 0.3556 -7.9502,
		 0.5842 0.3556 -7.9502,
		 0.5842 0.3810 -7.9502,
		 0.5842 0.4064 -7.9502,
		 0.5842 0.2286 -7.9502,
		 0.1016 0.2286 -7.9502,
		 0.1016 0.2032 -7.9502,
		 0.1016 0.1778 -7.9502,
		 0.1016 0.1778 -7.9502,
		 0.5842 0.1778 -7.9502,
		 0.5842 0.2032 -7.9502,
		 0.5842 0.2286 -7.9502
		]
	} #Coordinate3
	Material {
		ambientColor      0.1824 0.0559 0.0118  #ambientColor
		diffuseColor      0.7294 0.2235 0.0471  #diffuseColor
		transparency      0.0000                #transparency
	} #Material

	IndexedFaceSet {
		coordIndex [ 
		 0, 1, 2, 3,-1,
		 3, 2, 1, 0,-1,
		 8, 0, 9,-1,
		 10, 11, 12,-1,
		 7, 4, 13, 14,-1,
		 15, 16, 17, 18,-1,
		 19, 15, 20, 21,-1,
		 22, 19, 21, 23,-1,
		 24, 25, 26, 27,-1,
		 28, 24, 23, 29,-1,
		 30, 28, 29, 20,-1,
		 31, 32, 9, 33,-1,
		 34, 31, 35, 36,-1,
		 37, 34, 36, 38,-1,
		 39, 40, 41, 42,-1,
		 43, 39, 38, 44,-1,
		 45, 43, 44, 35,-1,
		]
	} #IndexedFaceSet
	Material {
		ambientColor      0.2500 0.1500 0.0000  #ambientColor
		diffuseColor      1.0000 0.6000 0.0000  #diffuseColor
		transparency      0.0000                #transparency
	} #Material

	IndexedFaceSet {
		coordIndex [ 
		 36, 35, 44, 38,-1,
		 21, 20, 29, 23,-1,
		]
	} #IndexedFaceSet
	Material {
		ambientColor      0.1824 0.0559 0.0118  #ambientColor
		diffuseColor      0.7294 0.2235 0.0471  #diffuseColor
		transparency      0.0000                #transparency
	} #Material

	IndexedFaceSet {
		coordIndex [ 
		 46, 47, 48, 49,-1,
		 50, 46, 51, 52,-1,
		 53, 50, 52, 54,-1,
		 55, 56, 57, 58,-1,
		 59, 55, 54, 60,-1,
		 61, 59, 60, 51,-1,
		 62, 63, 12, 64,-1,
		 65, 62, 66, 67,-1,
		 68, 65, 67, 69,-1,
		 70, 14, 13, 71,-1,
		 72, 70, 69, 73,-1,
		 74, 72, 73, 66,-1,
		]
	} #IndexedFaceSet
	Material {
		ambientColor      0.2500 0.1500 0.0000  #ambientColor
		diffuseColor      1.0000 0.6000 0.0000  #diffuseColor
		transparency      0.0000                #transparency
	} #Material

	IndexedFaceSet {
		coordIndex [ 
		 52, 51, 60, 54,-1,
		 67, 66, 73, 69,-1,
		]
	} #IndexedFaceSet
	Material {
		ambientColor      0.1824 0.0559 0.0118  #ambientColor
		diffuseColor      0.7294 0.2235 0.0471  #diffuseColor
		transparency      0.0000                #transparency
	} #Material

	IndexedFaceSet {
		coordIndex [ 
		 9, 0, 75,-1,
		 12, 76, 77,-1,
		 14, 13, 4, 7,-1,
		 78, 17, 16, 79,-1,
		 21, 20, 79, 80,-1,
		 23, 21, 80, 81,-1,
		 82, 26, 25, 83,-1,
		 29, 23, 83, 84,-1,
		 20, 29, 84, 85,-1,
		 86, 9, 32, 87,-1,
		 36, 35, 87, 88,-1,
		 38, 36, 88, 89,-1,
		 90, 41, 40, 91,-1,
		 44, 38, 91, 92,-1,
		 35, 44, 92, 93,-1,
		]
	} #IndexedFaceSet
	Material {
		ambientColor      0.2500 0.1500 0.0000  #ambientColor
		diffuseColor      1.0000 0.6000 0.0000  #diffuseColor
		transparency      0.0000                #transparency
	} #Material

	IndexedFaceSet {
		coordIndex [ 
		 38, 44, 35, 36,-1,
		 23, 29, 20, 21,-1,
		]
	} #IndexedFaceSet
	Material {
		ambientColor      0.1824 0.0559 0.0118  #ambientColor
		diffuseColor      0.7294 0.2235 0.0471  #diffuseColor
		transparency      0.0000                #transparency
	} #Material

	IndexedFaceSet {
		coordIndex [ 
		 94, 48, 47, 95,-1,
		 52, 51, 95, 96,-1,
		 54, 52, 96, 97,-1,
		 98, 57, 56, 99,-1,
		 60, 54, 99, 100,-1,
		 51, 60, 100, 101,-1,
		 102, 12, 63, 103,-1,
		 67, 66, 103, 104,-1,
		 69, 67, 104, 105,-1,
		 106, 13, 14, 107,-1,
		 73, 69, 107, 108,-1,
		 66, 73, 108, 109,-1,
		]
	} #IndexedFaceSet
	Material {
		ambientColor      0.2500 0.1500 0.0000  #ambientColor
		diffuseColor      1.0000 0.6000 0.0000  #diffuseColor
		transparency      0.0000                #transparency
	} #Material

	IndexedFaceSet {
		coordIndex [ 
		 54, 60, 51, 52,-1,
		 69, 73, 66, 67,-1,
		]
	} #IndexedFaceSet
	Material {
		ambientColor      0.1824 0.0559 0.0118  #ambientColor
		diffuseColor      0.7294 0.2235 0.0471  #diffuseColor
		transparency      0.0000                #transparency
	} #Material

	IndexedFaceSet {
		coordIndex [ 
		 1, 0, 4, 5,-1,
		 5, 4, 0, 1,-1,
		 2, 1, 5, 6,-1,
		 6, 5, 1, 2,-1,
		 3, 2, 6, 7,-1,
		 7, 6, 2, 3,-1,
		 7, 6, 5, 4,-1,
		 4, 5, 6, 7,-1,
		]
	} #IndexedFaceSet
} #Polyhedron
Separator { #Polyhedron
	DEF COORD5 Coordinate3 {
		point [
		 -0.5588 0.6096 -7.7724,
		 -0.5588 0.6096 -8.5090,
		 0.1016 0.6096 -8.5090,
		 0.1016 0.6096 -7.7724,
		 -0.5588 0.5842 -7.7724,
		 -0.5588 0.5842 -8.5090,
		 0.1016 0.5842 -8.5090,
		 0.1016 0.5842 -7.7724
		]
	} #Coordinate3
	Material {
		ambientColor      0.1824 0.0559 0.0118  #ambientColor
		diffuseColor      0.7294 0.2235 0.0471  #diffuseColor
		transparency      0.0000                #transparency
	} #Material

	IndexedFaceSet {
		coordIndex [ 
		 0, 1, 2, 3,-1,
		 3, 2, 1, 0,-1,
		 0, 3, 7, 4,-1,
		 4, 7, 3, 0,-1,
		 1, 0, 4, 5,-1,
		 5, 4, 0, 1,-1,
		 2, 1, 5, 6,-1,
		 6, 5, 1, 2,-1,
		 3, 2, 6, 7,-1,
		 7, 6, 2, 3,-1,
		 7, 6, 5, 4,-1,
		 4, 5, 6, 7,-1,
		]
	} #IndexedFaceSet
} #Polyhedron
Separator { #Polyhedron
	DEF COORD6 Coordinate3 {
		point [
		 0.6096 0.1016 -8.5344,
		 0.6096 0.1016 -7.9248,
		 0.0762 0.1016 -7.9248,
		 0.0762 0.1016 -8.5344,
		 0.6096 0.0000 -8.5344,
		 0.6096 0.0000 -7.9248,
		 0.0762 0.0000 -7.9248,
		 0.0762 0.0000 -8.5344,
		 0.1016 0.1016 -7.9248,
		 0.1016 0.1016 -8.5344,
		 0.0762 0.0762 -8.5344,
		 0.0762 0.0762 -7.9248,
		 0.5842 0.1016 -7.9248,
		 0.5842 0.1016 -8.5344,
		 0.6096 0.0762 -8.5344,
		 0.6096 0.0762 -7.9248,
		 0.1016 0.1016 -8.5090,
		 0.5842 0.1016 -8.5090,
		 0.0762 0.0762 -8.5344,
		 0.6096 0.0762 -8.5344,
		 0.6096 0.0762 -8.5344,
		 0.0762 0.0762 -8.5344,
		 0.1016 0.1016 -7.9502,
		 0.5842 0.1016 -7.9502,
		 0.6096 0.0762 -7.9248,
		 0.6096 0.0762 -7.9248,
		 0.0762 0.0762 -7.9248,
		 0.0762 0.0762 -7.9248
		]
	} #Coordinate3
	Material {
		ambientColor      0.1824 0.0559 0.0118  #ambientColor
		diffuseColor      0.7294 0.2235 0.0471  #diffuseColor
		transparency      0.0000                #transparency
	} #Material

	IndexedFaceSet {
		coordIndex [ 
		 22, 16, 17, 23,-1,
		 23, 17, 16, 22,-1,
		 18, 7, 4, 19,-1,
		 19, 4, 7, 18,-1,
		 19, 4, 5, 24, 25, 20,-1,
		 20, 25, 24, 5, 4, 19,-1,
		 24, 5, 6, 26,-1,
		 26, 6, 5, 24,-1,
		 26, 6, 7, 18, 21, 27,-1,
		 27, 21, 18, 7, 6, 26,-1,
		 7, 6, 5, 4,-1,
		 4, 5, 6, 7,-1,
		]
	} #IndexedFaceSet
} #Polyhedron
Separator { #Polyhedron
	DEF COORD7 Coordinate3 {
		point [
		 -0.5588 0.1016 -8.5344,
		 -0.5588 0.1016 -7.9248,
		 -0.6096 0.1016 -7.9248,
		 -0.6096 0.1016 -8.5344,
		 -0.5588 0.0000 -8.5344,
		 -0.5588 0.0000 -7.9248,
		 -0.6096 0.0000 -7.9248,
		 -0.6096 0.0000 -8.5344,
		 -0.5842 0.1016 -7.9248,
		 -0.5842 0.1016 -8.5344,
		 -0.6096 0.0762 -8.5344,
		 -0.6096 0.0762 -7.9248,
		 -0.5588 0.1016 -8.5090,
		 -0.5842 0.1016 -8.5090,
		 -0.6096 0.0762 -8.5344,
		 -0.5588 0.0762 -8.5344,
		 -0.6096 0.0762 -8.5344,
		 -0.5588 0.1016 -7.9502,
		 -0.5842 0.1016 -7.9502,
		 -0.5588 0.0762 -7.9248,
		 -0.6096 0.0762 -7.9248,
		 -0.6096 0.0762 -7.9248
		]
	} #Coordinate3
	Material {
		ambientColor      0.1824 0.0559 0.0118  #ambientColor
		diffuseColor      0.7294 0.2235 0.0471  #diffuseColor
		transparency      0.0000                #transparency
	} #Material

	IndexedFaceSet {
		coordIndex [ 
		 12, 17, 18, 13,-1,
		 13, 18, 17, 12,-1,
		 14, 7, 4, 15,-1,
		 15, 4, 7, 14,-1,
		 17, 12, 15, 4, 5, 19,-1,
		 19, 5, 4, 15, 12, 17,-1,
		 19, 5, 6, 20,-1,
		 20, 6, 5, 19,-1,
		 20, 6, 7, 14, 16, 21,-1,
		 21, 16, 14, 7, 6, 20,-1,
		 7, 6, 5, 4,-1,
		 4, 5, 6, 7,-1,
		]
	} #IndexedFaceSet
} #Polyhedron
Separator { #Polyhedron
	DEF COORD8 Coordinate3 {
		point [
		 0.6096 0.7874 -8.5344,
		 0.6096 0.7874 -7.9248,
		 -0.6096 0.7874 -7.9248,
		 -0.6096 0.7874 -8.5344,
		 0.6096 0.7620 -8.5344,
		 0.6096 0.7620 -7.9248,
		 -0.6096 0.7620 -7.9248,
		 -0.6096 0.7620 -8.5344
		]
	} #Coordinate3
	Material {
		ambientColor      0.1824 0.0559 0.0118  #ambientColor
		diffuseColor      0.7294 0.2235 0.0471  #diffuseColor
		transparency      0.0000                #transparency
	} #Material

	IndexedFaceSet {
		coordIndex [ 
		 0, 1, 2, 3,-1,
		 3, 2, 1, 0,-1,
		 0, 3, 7, 4,-1,
		 4, 7, 3, 0,-1,
		 1, 0, 4, 5,-1,
		 5, 4, 0, 1,-1,
		 2, 1, 5, 6,-1,
		 6, 5, 1, 2,-1,
		 3, 2, 6, 7,-1,
		 7, 6, 2, 3,-1,
		 7, 6, 5, 4,-1,
		 4, 5, 6, 7,-1,
		]
	} #IndexedFaceSet
} #Polyhedron
Separator { #Polyhedron
	DEF COORD9 Coordinate3 {
		point [
		 -0.5588 0.7620 -8.5090,
		 -0.5588 0.7620 -7.9502,
		 -0.5842 0.7620 -7.9502,
		 -0.5842 0.7620 -8.5090,
		 -0.5588 0.1016 -8.5090,
		 -0.5588 0.1016 -7.9502,
		 -0.5842 0.1016 -7.9502,
		 -0.5842 0.1016 -8.5090
		]
	} #Coordinate3
	Material {
		ambientColor      0.1824 0.0559 0.0118  #ambientColor
		diffuseColor      0.7294 0.2235 0.0471  #diffuseColor
		transparency      0.0000                #transparency
	} #Material

	IndexedFaceSet {
		coordIndex [ 
		 0, 1, 2, 3,-1,
		 3, 2, 1, 0,-1,
		 0, 3, 7, 4,-1,
		 4, 7, 3, 0,-1,
		 1, 0, 4, 5,-1,
		 5, 4, 0, 1,-1,
		 2, 1, 5, 6,-1,
		 6, 5, 1, 2,-1,
		 3, 2, 6, 7,-1,
		 7, 6, 2, 3,-1,
		 7, 6, 5, 4,-1,
		 4, 5, 6, 7,-1,
		]
	} #IndexedFaceSet
} #Polyhedron
Separator { #Polyhedron
	DEF COORD10 Coordinate3 {
		point [
		 0.5842 0.7620 -8.5344,
		 0.5842 0.7620 -8.5090,
		 -0.5588 0.7620 -8.5090,
		 -0.5588 0.7620 -8.5344,
		 0.5842 0.1016 -8.5344,
		 0.5842 0.1016 -8.5090,
		 -0.5588 0.1016 -8.5090,
		 -0.5588 0.1016 -8.5344
		]
	} #Coordinate3
	Material {
		ambientColor      0.1824 0.0559 0.0118  #ambientColor
		diffuseColor      0.7294 0.2235 0.0471  #diffuseColor
		transparency      0.0000                #transparency
	} #Material

	IndexedFaceSet {
		coordIndex [ 
		 0, 1, 2, 3,-1,
		 3, 2, 1, 0,-1,
		 0, 3, 7, 4,-1,
		 4, 7, 3, 0,-1,
		 1, 0, 4, 5,-1,
		 5, 4, 0, 1,-1,
		 2, 1, 5, 6,-1,
		 6, 5, 1, 2,-1,
		 3, 2, 6, 7,-1,
		 7, 6, 2, 3,-1,
		 7, 6, 5, 4,-1,
		 4, 5, 6, 7,-1,
		]
	} #IndexedFaceSet
} #Polyhedron
Separator { #Polyhedron
	DEF COORD11 Coordinate3 {
		point [
		 0.1016 0.1270 -8.5090,
		 0.1016 0.1270 -8.3058,
		 -0.5588 0.1270 -8.3058,
		 -0.5588 0.1270 -8.5090,
		 0.1016 0.1016 -8.5090,
		 0.1016 0.1016 -8.3058,
		 -0.5588 0.1016 -8.3058,
		 -0.5588 0.1016 -8.5090
		]
	} #Coordinate3
	Material {
		ambientColor      0.1824 0.0559 0.0118  #ambientColor
		diffuseColor      0.7294 0.2235 0.0471  #diffuseColor
		transparency      0.0000                #transparency
	} #Material

	IndexedFaceSet {
		coordIndex [ 
		 0, 1, 2, 3,-1,
		 3, 2, 1, 0,-1,
		 0, 3, 7, 4,-1,
		 4, 7, 3, 0,-1,
		 1, 0, 4, 5,-1,
		 5, 4, 0, 1,-1,
		 2, 1, 5, 6,-1,
		 6, 5, 1, 2,-1,
		 3, 2, 6, 7,-1,
		 7, 6, 2, 3,-1,
		 7, 6, 5, 4,-1,
		 4, 5, 6, 7,-1,
		]
	} #IndexedFaceSet
} #Polyhedron
}
