#VRML V1.0 ascii

Separator {
	Info { string "Virtus VRML 1.0.1
	VRML Export Filter
	Virtus Corporation
	114 MacKenan Drive, Suite 100
	Cary, NC 27511
	919-467-9700"}

	DEF BackgroundColor Info{  # Sky color
		string " 0.3 0.8 1.0 "
	}

	DirectionalLight {
		on         TRUE          # SFBool
		intensity  1.0           # SFFloat
		color      0.4 0.4 0.4   # SFColor
		direction  0 0 0   # SFVec3f
	}

	DirectionalLight {
		on         TRUE          # SFBool
		intensity  1.0           # SFFloat
		color      0.5 0.5 0.5   # SFColor
		direction  34 -247 -57   # SFVec3f
	}

	DirectionalLight {
		on         TRUE          # SFBool
		intensity  1.0           # SFFloat
		color      0.4 0.4 0.4   # SFColor
		direction  -209 -104 105   # SFVec3f
	}

	DirectionalLight {
		on         TRUE          # SFBool
		intensity  1.0           # SFFloat
		color      0.5 0.5 0.5   # SFColor
		direction  5 119 -226   # SFVec3f
	}

	PerspectiveCamera {
		position 0.0000 1.5240 0.0000          #SFVec3f 
		focalDistance  5            #SFFloat 
		heightAngle 1.9201 
	}

	ShapeHints {
		vertexOrdering	CLOCKWISE
		shapeType	SOLID
	}

	Transform {
		translation 0 0 0
		scaleFactor 1.0 1.0 1.0
	}

Separator { #Polyhedron
	DEF COORD0 Coordinate3 {
		point [
		 -0.1159 0.3873 -4.1031,
		 -0.1073 0.3873 -4.0944,
		 -0.1026 0.3873 -4.0831,
		 -0.1025 0.3873 -4.0708,
		 -0.1072 0.3873 -4.0595,
		 -0.1159 0.3873 -4.0508,
		 -0.1272 0.3873 -4.0461,
		 -0.1395 0.3873 -4.0461,
		 -0.1508 0.3873 -4.0508,
		 -0.1595 0.3873 -4.0595,
		 -0.1642 0.3873 -4.0708,
		 -0.1642 0.3873 -4.0830,
		 -0.1595 0.3873 -4.0944,
		 -0.1509 0.3873 -4.1031,
		 -0.1395 0.3873 -4.1078,
		 -0.1273 0.3873 -4.1078,
		 -0.1159 0.1190 -4.1031,
		 -0.1073 0.1190 -4.0944,
		 -0.1026 0.1190 -4.0831,
		 -0.1025 0.1190 -4.0708,
		 -0.1072 0.1190 -4.0595,
		 -0.1159 0.1190 -4.0508,
		 -0.1272 0.1190 -4.0461,
		 -0.1395 0.1190 -4.0461,
		 -0.1508 0.1190 -4.0508,
		 -0.1595 0.1190 -4.0595,
		 -0.1642 0.1190 -4.0708,
		 -0.1642 0.1190 -4.0830,
		 -0.1595 0.1190 -4.0944,
		 -0.1509 0.1190 -4.1031,
		 -0.1395 0.1190 -4.1078,
		 -0.1273 0.1190 -4.1078
		]
	} #Coordinate3
	Material {
		ambientColor      0.0069 0.0069 0.0069  #ambientColor
		diffuseColor      0.0275 0.0275 0.0275  #diffuseColor
		transparency      0.0000                #transparency
	} #Material

	IndexedFaceSet {
		coordIndex [ 
		 0, 1, 2, 3, 4, 5, 6, 7, 8, 9, 10, 11, 12, 13, 14, 15,-1,
		 15, 14, 13, 12, 11, 10, 9, 8, 7, 6, 5, 4, 3, 2, 1, 0,-1,
		 0, 15, 31, 16,-1,
		 16, 31, 15, 0,-1,
		 1, 0, 16, 17,-1,
		 17, 16, 0, 1,-1,
		 2, 1, 17, 18,-1,
		 18, 17, 1, 2,-1,
		 3, 2, 18, 19,-1,
		 19, 18, 2, 3,-1,
		 4, 3, 19, 20,-1,
		 20, 19, 3, 4,-1,
		 5, 4, 20, 21,-1,
		 21, 20, 4, 5,-1,
		 6, 5, 21, 22,-1,
		 22, 21, 5, 6,-1,
		 7, 6, 22, 23,-1,
		 23, 22, 6, 7,-1,
		 8, 7, 23, 24,-1,
		 24, 23, 7, 8,-1,
		 9, 8, 24, 25,-1,
		 25, 24, 8, 9,-1,
		 10, 9, 25, 26,-1,
		 26, 25, 9, 10,-1,
		 11, 10, 26, 27,-1,
		 27, 26, 10, 11,-1,
		 12, 11, 27, 28,-1,
		 28, 27, 11, 12,-1,
		 13, 12, 28, 29,-1,
		 29, 28, 12, 13,-1,
		 14, 13, 29, 30,-1,
		 30, 29, 13, 14,-1,
		 15, 14, 30, 31,-1,
		 31, 30, 14, 15,-1,
		 31, 30, 29, 28, 27, 26, 25, 24, 23, 22, 21, 20, 19, 18, 17, 16,-1,
		 16, 17, 18, 19, 20, 21, 22, 23, 24, 25, 26, 27, 28, 29, 30, 31,-1,
		]
	} #IndexedFaceSet
} #Polyhedron
Separator { #Polyhedron
	DEF COORD1 Coordinate3 {
		point [
		 0.2005 0.0150 -4.1025,
		 0.2303 0.0000 -4.1025,
		 0.2621 0.0105 -4.1025,
		 0.2770 0.0404 -4.1025,
		 0.2665 0.0721 -4.1025,
		 0.2366 0.0871 -4.1025,
		 0.2049 0.0765 -4.1025,
		 0.1899 0.0467 -4.1025,
		 0.2005 0.0150 -4.0494,
		 0.2303 0.0000 -4.0494,
		 0.2621 0.0105 -4.0494,
		 0.2770 0.0404 -4.0494,
		 0.2665 0.0721 -4.0494,
		 0.2366 0.0871 -4.0494,
		 0.2049 0.0765 -4.0494,
		 0.1899 0.0467 -4.0494
		]
	} #Coordinate3
	Material {
		ambientColor      0.0069 0.0069 0.0069  #ambientColor
		diffuseColor      0.0275 0.0275 0.0275  #diffuseColor
		transparency      0.0000                #transparency
	} #Material

	IndexedFaceSet {
		coordIndex [ 
		 0, 1, 2, 3, 4, 5, 6, 7,-1,
		 7, 6, 5, 4, 3, 2, 1, 0,-1,
		 0, 7, 15, 8,-1,
		 8, 15, 7, 0,-1,
		 1, 0, 8, 9,-1,
		 9, 8, 0, 1,-1,
		 2, 1, 9, 10,-1,
		 10, 9, 1, 2,-1,
		 3, 2, 10, 11,-1,
		 11, 10, 2, 3,-1,
		 4, 3, 11, 12,-1,
		 12, 11, 3, 4,-1,
		 5, 4, 12, 13,-1,
		 13, 12, 4, 5,-1,
		 6, 5, 13, 14,-1,
		 14, 13, 5, 6,-1,
		 7, 6, 14, 15,-1,
		 15, 14, 6, 7,-1,
		 15, 14, 13, 12, 11, 10, 9, 8,-1,
		 8, 9, 10, 11, 12, 13, 14, 15,-1,
		]
	} #IndexedFaceSet
} #Polyhedron
Separator { #Polyhedron
	DEF COORD2 Coordinate3 {
		point [
		 -0.1011 0.1757 -4.0954,
		 -0.1011 0.1234 -4.0954,
		 0.2651 0.0885 -4.0954,
		 0.2651 0.1234 -4.0954,
		 -0.1011 0.1757 -4.0562,
		 -0.1011 0.1234 -4.0562,
		 0.2651 0.0885 -4.0562,
		 0.2651 0.1234 -4.0562
		]
	} #Coordinate3
	Material {
		ambientColor      0.0069 0.0069 0.0069  #ambientColor
		diffuseColor      0.0275 0.0275 0.0275  #diffuseColor
		transparency      0.0000                #transparency
	} #Material

	IndexedFaceSet {
		coordIndex [ 
		 0, 1, 2, 3,-1,
		 3, 2, 1, 0,-1,
		]
	} #IndexedFaceSet
	Material {
		ambientColor      0.2020 0.2020 0.2020  #ambientColor
		diffuseColor      0.8078 0.8078 0.8078  #diffuseColor
		transparency      0.0000                #transparency
	} #Material

	IndexedFaceSet {
		coordIndex [ 
		 0, 3, 7, 4,-1,
		 4, 7, 3, 0,-1,
		]
	} #IndexedFaceSet
	Material {
		ambientColor      0.0069 0.0069 0.0069  #ambientColor
		diffuseColor      0.0275 0.0275 0.0275  #diffuseColor
		transparency      0.0000                #transparency
	} #Material

	IndexedFaceSet {
		coordIndex [ 
		 1, 0, 4, 5,-1,
		 5, 4, 0, 1,-1,
		 2, 1, 5, 6,-1,
		 6, 5, 1, 2,-1,
		 3, 2, 6, 7,-1,
		 7, 6, 2, 3,-1,
		 7, 6, 5, 4,-1,
		 4, 5, 6, 7,-1,
		]
	} #IndexedFaceSet
} #Polyhedron
Separator { #Polyhedron
	DEF COORD3 Coordinate3 {
		point [
		 -0.0539 0.0150 -4.4020,
		 -0.0446 0.0000 -4.4305,
		 -0.0349 0.0105 -4.4606,
		 -0.0302 0.0404 -4.4748,
		 -0.0335 0.0721 -4.4648,
		 -0.0427 0.0871 -4.4364,
		 -0.0525 0.0765 -4.4063,
		 -0.0571 0.0467 -4.3920,
		 -0.0034 0.0150 -4.3856,
		 0.0059 0.0000 -4.4140,
		 0.0157 0.0105 -4.4442,
		 0.0203 0.0404 -4.4584,
		 0.0170 0.0721 -4.4484,
		 0.0078 0.0871 -4.4200,
		 -0.0020 0.0765 -4.3898,
		 -0.0066 0.0467 -4.3756
		]
	} #Coordinate3
	Material {
		ambientColor      0.0069 0.0069 0.0069  #ambientColor
		diffuseColor      0.0275 0.0275 0.0275  #diffuseColor
		transparency      0.0000                #transparency
	} #Material

	IndexedFaceSet {
		coordIndex [ 
		 0, 1, 2, 3, 4, 5, 6, 7,-1,
		 7, 6, 5, 4, 3, 2, 1, 0,-1,
		 0, 7, 15, 8,-1,
		 8, 15, 7, 0,-1,
		 1, 0, 8, 9,-1,
		 9, 8, 0, 1,-1,
		 2, 1, 9, 10,-1,
		 10, 9, 1, 2,-1,
		 3, 2, 10, 11,-1,
		 11, 10, 2, 3,-1,
		 4, 3, 11, 12,-1,
		 12, 11, 3, 4,-1,
		 5, 4, 12, 13,-1,
		 13, 12, 4, 5,-1,
		 6, 5, 13, 14,-1,
		 14, 13, 5, 6,-1,
		 7, 6, 14, 15,-1,
		 15, 14, 6, 7,-1,
		 15, 14, 13, 12, 11, 10, 9, 8,-1,
		 8, 9, 10, 11, 12, 13, 14, 15,-1,
		]
	} #IndexedFaceSet
} #Polyhedron
Separator { #Polyhedron
	DEF COORD4 Coordinate3 {
		point [
		 -0.1403 0.1757 -4.1131,
		 -0.1403 0.1234 -4.1131,
		 -0.0272 0.0885 -4.4613,
		 -0.0272 0.1234 -4.4613,
		 -0.1030 0.1757 -4.1010,
		 -0.1030 0.1234 -4.1010,
		 0.0101 0.0885 -4.4492,
		 0.0101 0.1234 -4.4492
		]
	} #Coordinate3
	Material {
		ambientColor      0.0069 0.0069 0.0069  #ambientColor
		diffuseColor      0.0275 0.0275 0.0275  #diffuseColor
		transparency      0.0000                #transparency
	} #Material

	IndexedFaceSet {
		coordIndex [ 
		 0, 1, 2, 3,-1,
		 3, 2, 1, 0,-1,
		]
	} #IndexedFaceSet
	Material {
		ambientColor      0.2020 0.2020 0.2020  #ambientColor
		diffuseColor      0.8078 0.8078 0.8078  #diffuseColor
		transparency      0.0000                #transparency
	} #Material

	IndexedFaceSet {
		coordIndex [ 
		 0, 3, 7, 4,-1,
		 4, 7, 3, 0,-1,
		]
	} #IndexedFaceSet
	Material {
		ambientColor      0.0069 0.0069 0.0069  #ambientColor
		diffuseColor      0.0275 0.0275 0.0275  #diffuseColor
		transparency      0.0000                #transparency
	} #Material

	IndexedFaceSet {
		coordIndex [ 
		 1, 0, 4, 5,-1,
		 5, 4, 0, 1,-1,
		 2, 1, 5, 6,-1,
		 6, 5, 1, 2,-1,
		 3, 2, 6, 7,-1,
		 7, 6, 2, 3,-1,
		 7, 6, 5, 4,-1,
		 4, 5, 6, 7,-1,
		]
	} #IndexedFaceSet
} #Polyhedron
Separator { #Polyhedron
	DEF COORD5 Coordinate3 {
		point [
		 -0.4191 0.0150 -4.2505,
		 -0.4433 0.0000 -4.2681,
		 -0.4690 0.0105 -4.2867,
		 -0.4811 0.0404 -4.2955,
		 -0.4725 0.0721 -4.2893,
		 -0.4484 0.0871 -4.2718,
		 -0.4227 0.0765 -4.2531,
		 -0.4106 0.0467 -4.2443,
		 -0.3879 0.0150 -4.2935,
		 -0.4121 0.0000 -4.3111,
		 -0.4377 0.0105 -4.3297,
		 -0.4498 0.0404 -4.3385,
		 -0.4413 0.0721 -4.3323,
		 -0.4171 0.0871 -4.3147,
		 -0.3915 0.0765 -4.2961,
		 -0.3794 0.0467 -4.2873
		]
	} #Coordinate3
	Material {
		ambientColor      0.0069 0.0069 0.0069  #ambientColor
		diffuseColor      0.0275 0.0275 0.0275  #diffuseColor
		transparency      0.0000                #transparency
	} #Material

	IndexedFaceSet {
		coordIndex [ 
		 0, 1, 2, 3, 4, 5, 6, 7,-1,
		 7, 6, 5, 4, 3, 2, 1, 0,-1,
		 0, 7, 15, 8,-1,
		 8, 15, 7, 0,-1,
		 1, 0, 8, 9,-1,
		 9, 8, 0, 1,-1,
		 2, 1, 9, 10,-1,
		 10, 9, 1, 2,-1,
		 3, 2, 10, 11,-1,
		 11, 10, 2, 3,-1,
		 4, 3, 11, 12,-1,
		 12, 11, 3, 4,-1,
		 5, 4, 12, 13,-1,
		 13, 12, 4, 5,-1,
		 6, 5, 13, 14,-1,
		 14, 13, 5, 6,-1,
		 7, 6, 14, 15,-1,
		 15, 14, 6, 7,-1,
		 15, 14, 13, 12, 11, 10, 9, 8,-1,
		 8, 9, 10, 11, 12, 13, 14, 15,-1,
		]
	} #IndexedFaceSet
} #Polyhedron
Separator { #Polyhedron
	DEF COORD6 Coordinate3 {
		point [
		 -0.1711 0.1757 -4.0790,
		 -0.1711 0.1234 -4.0790,
		 -0.4672 0.0885 -4.2942,
		 -0.4672 0.1234 -4.2942,
		 -0.1480 0.1757 -4.1107,
		 -0.1480 0.1234 -4.1107,
		 -0.4442 0.0885 -4.3259,
		 -0.4442 0.1234 -4.3259
		]
	} #Coordinate3
	Material {
		ambientColor      0.0069 0.0069 0.0069  #ambientColor
		diffuseColor      0.0275 0.0275 0.0275  #diffuseColor
		transparency      0.0000                #transparency
	} #Material

	IndexedFaceSet {
		coordIndex [ 
		 0, 1, 2, 3,-1,
		 3, 2, 1, 0,-1,
		]
	} #IndexedFaceSet
	Material {
		ambientColor      0.2020 0.2020 0.2020  #ambientColor
		diffuseColor      0.8078 0.8078 0.8078  #diffuseColor
		transparency      0.0000                #transparency
	} #Material

	IndexedFaceSet {
		coordIndex [ 
		 0, 3, 7, 4,-1,
		 4, 7, 3, 0,-1,
		]
	} #IndexedFaceSet
	Material {
		ambientColor      0.0069 0.0069 0.0069  #ambientColor
		diffuseColor      0.0275 0.0275 0.0275  #diffuseColor
		transparency      0.0000                #transparency
	} #Material

	IndexedFaceSet {
		coordIndex [ 
		 1, 0, 4, 5,-1,
		 5, 4, 0, 1,-1,
		 2, 1, 5, 6,-1,
		 6, 5, 1, 2,-1,
		 3, 2, 6, 7,-1,
		 7, 6, 2, 3,-1,
		 7, 6, 5, 4,-1,
		 4, 5, 6, 7,-1,
		]
	} #IndexedFaceSet
} #Polyhedron
Separator { #Polyhedron
	DEF COORD7 Coordinate3 {
		point [
		 -0.0030 0.0150 -3.7688,
		 0.0062 0.0000 -3.7404,
		 0.0160 0.0105 -3.7102,
		 0.0206 0.0404 -3.6960,
		 0.0174 0.0721 -3.7060,
		 0.0081 0.0871 -3.7344,
		 -0.0017 0.0765 -3.7646,
		 -0.0063 0.0467 -3.7788,
		 -0.0535 0.0150 -3.7524,
		 -0.0443 0.0000 -3.7240,
		 -0.0345 0.0105 -3.6938,
		 -0.0299 0.0404 -3.6796,
		 -0.0331 0.0721 -3.6896,
		 -0.0424 0.0871 -3.7180,
		 -0.0522 0.0765 -3.7482,
		 -0.0568 0.0467 -3.7624
		]
	} #Coordinate3
	Material {
		ambientColor      0.0069 0.0069 0.0069  #ambientColor
		diffuseColor      0.0275 0.0275 0.0275  #diffuseColor
		transparency      0.0000                #transparency
	} #Material

	IndexedFaceSet {
		coordIndex [ 
		 0, 1, 2, 3, 4, 5, 6, 7,-1,
		 7, 6, 5, 4, 3, 2, 1, 0,-1,
		 0, 7, 15, 8,-1,
		 8, 15, 7, 0,-1,
		 1, 0, 8, 9,-1,
		 9, 8, 0, 1,-1,
		 2, 1, 9, 10,-1,
		 10, 9, 1, 2,-1,
		 3, 2, 10, 11,-1,
		 11, 10, 2, 3,-1,
		 4, 3, 11, 12,-1,
		 12, 11, 3, 4,-1,
		 5, 4, 12, 13,-1,
		 13, 12, 4, 5,-1,
		 6, 5, 13, 14,-1,
		 14, 13, 5, 6,-1,
		 7, 6, 14, 15,-1,
		 15, 14, 6, 7,-1,
		 15, 14, 13, 12, 11, 10, 9, 8,-1,
		 8, 9, 10, 11, 12, 13, 14, 15,-1,
		]
	} #IndexedFaceSet
} #Polyhedron
Separator { #Polyhedron
	DEF COORD8 Coordinate3 {
		point [
		 -0.1029 0.1757 -4.0534,
		 -0.1029 0.1234 -4.0534,
		 0.0102 0.0885 -3.7052,
		 0.0102 0.1234 -3.7052,
		 -0.1402 0.1757 -4.0412,
		 -0.1402 0.1234 -4.0412,
		 -0.0271 0.0885 -3.6931,
		 -0.0271 0.1234 -3.6931
		]
	} #Coordinate3
	Material {
		ambientColor      0.0069 0.0069 0.0069  #ambientColor
		diffuseColor      0.0275 0.0275 0.0275  #diffuseColor
		transparency      0.0000                #transparency
	} #Material

	IndexedFaceSet {
		coordIndex [ 
		 0, 1, 2, 3,-1,
		 3, 2, 1, 0,-1,
		]
	} #IndexedFaceSet
	Material {
		ambientColor      0.2020 0.2020 0.2020  #ambientColor
		diffuseColor      0.8078 0.8078 0.8078  #diffuseColor
		transparency      0.0000                #transparency
	} #Material

	IndexedFaceSet {
		coordIndex [ 
		 0, 3, 7, 4,-1,
		 4, 7, 3, 0,-1,
		]
	} #IndexedFaceSet
	Material {
		ambientColor      0.0069 0.0069 0.0069  #ambientColor
		diffuseColor      0.0275 0.0275 0.0275  #diffuseColor
		transparency      0.0000                #transparency
	} #Material

	IndexedFaceSet {
		coordIndex [ 
		 1, 0, 4, 5,-1,
		 5, 4, 0, 1,-1,
		 2, 1, 5, 6,-1,
		 6, 5, 1, 2,-1,
		 3, 2, 6, 7,-1,
		 7, 6, 2, 3,-1,
		 7, 6, 5, 4,-1,
		 4, 5, 6, 7,-1,
		]
	} #IndexedFaceSet
} #Polyhedron
Separator { #Polyhedron
	DEF COORD9 Coordinate3 {
		point [
		 -0.3862 0.0150 -3.8569,
		 -0.4103 0.0000 -3.8394,
		 -0.4360 0.0105 -3.8207,
		 -0.4481 0.0404 -3.8119,
		 -0.4395 0.0721 -3.8181,
		 -0.4154 0.0871 -3.8357,
		 -0.3897 0.0765 -3.8543,
		 -0.3776 0.0467 -3.8631,
		 -0.4174 0.0150 -3.8999,
		 -0.4415 0.0000 -3.8823,
		 -0.4672 0.0105 -3.8637,
		 -0.4793 0.0404 -3.8549,
		 -0.4708 0.0721 -3.8611,
		 -0.4466 0.0871 -3.8786,
		 -0.4210 0.0765 -3.8973,
		 -0.4089 0.0467 -3.9061
		]
	} #Coordinate3
	Material {
		ambientColor      0.0069 0.0069 0.0069  #ambientColor
		diffuseColor      0.0275 0.0275 0.0275  #diffuseColor
		transparency      0.0000                #transparency
	} #Material

	IndexedFaceSet {
		coordIndex [ 
		 0, 1, 2, 3, 4, 5, 6, 7,-1,
		 7, 6, 5, 4, 3, 2, 1, 0,-1,
		 0, 7, 15, 8,-1,
		 8, 15, 7, 0,-1,
		 1, 0, 8, 9,-1,
		 9, 8, 0, 1,-1,
		 2, 1, 9, 10,-1,
		 10, 9, 1, 2,-1,
		 3, 2, 10, 11,-1,
		 11, 10, 2, 3,-1,
		 4, 3, 11, 12,-1,
		 12, 11, 3, 4,-1,
		 5, 4, 12, 13,-1,
		 13, 12, 4, 5,-1,
		 6, 5, 13, 14,-1,
		 14, 13, 5, 6,-1,
		 7, 6, 14, 15,-1,
		 15, 14, 6, 7,-1,
		 15, 14, 13, 12, 11, 10, 9, 8,-1,
		 8, 9, 10, 11, 12, 13, 14, 15,-1,
		]
	} #IndexedFaceSet
} #Polyhedron
Separator { #Polyhedron
	DEF COORD10 Coordinate3 {
		point [
		 -0.1464 0.1757 -4.0399,
		 -0.1464 0.1234 -4.0399,
		 -0.4426 0.0885 -3.8247,
		 -0.4426 0.1234 -3.8247,
		 -0.1694 0.1757 -4.0716,
		 -0.1694 0.1234 -4.0716,
		 -0.4656 0.0885 -3.8564,
		 -0.4656 0.1234 -3.8564
		]
	} #Coordinate3
	Material {
		ambientColor      0.0069 0.0069 0.0069  #ambientColor
		diffuseColor      0.0275 0.0275 0.0275  #diffuseColor
		transparency      0.0000                #transparency
	} #Material

	IndexedFaceSet {
		coordIndex [ 
		 0, 1, 2, 3,-1,
		 3, 2, 1, 0,-1,
		]
	} #IndexedFaceSet
	Material {
		ambientColor      0.2020 0.2020 0.2020  #ambientColor
		diffuseColor      0.8078 0.8078 0.8078  #diffuseColor
		transparency      0.0000                #transparency
	} #Material

	IndexedFaceSet {
		coordIndex [ 
		 0, 3, 7, 4,-1,
		 4, 7, 3, 0,-1,
		]
	} #IndexedFaceSet
	Material {
		ambientColor      0.0069 0.0069 0.0069  #ambientColor
		diffuseColor      0.0275 0.0275 0.0275  #diffuseColor
		transparency      0.0000                #transparency
	} #Material

	IndexedFaceSet {
		coordIndex [ 
		 1, 0, 4, 5,-1,
		 5, 4, 0, 1,-1,
		 2, 1, 5, 6,-1,
		 6, 5, 1, 2,-1,
		 3, 2, 6, 7,-1,
		 7, 6, 2, 3,-1,
		 7, 6, 5, 4,-1,
		 4, 5, 6, 7,-1,
		]
	} #IndexedFaceSet
} #Polyhedron
Separator { #Polyhedron
	DEF COORD11 Coordinate3 {
		point [
		 -0.3913 0.5440 -3.7130,
		 -0.3913 0.5440 -4.3225,
		 0.1421 0.5440 -4.3225,
		 0.1421 0.5440 -3.7130,
		 -0.3913 0.3884 -3.7130,
		 -0.3913 0.3884 -4.3225,
		 0.1421 0.3884 -4.3225,
		 0.1421 0.3884 -3.7130,
		 -0.3913 0.5440 -3.7797,
		 0.1421 0.5440 -3.7797,
		 0.1421 0.4995 -3.7130,
		 -0.3913 0.4995 -3.7130,
		 0.1421 0.4202 -3.7130,
		 -0.3913 0.4202 -3.7130,
		 -0.3913 0.3884 -3.7765,
		 0.1421 0.3884 -3.7765,
		 -0.3468 0.4202 -3.7130,
		 -0.3468 0.4995 -3.7130,
		 -0.3913 0.5440 -3.7797,
		 -0.3913 0.3884 -3.7797,
		 -0.3892 0.3884 -3.7765,
		 0.1421 0.5440 -3.7797,
		 0.1421 0.5440 -3.7797,
		 0.0976 0.4202 -3.7130,
		 0.0976 0.4995 -3.7130,
		 0.1421 0.3884 -3.7797,
		 0.1400 0.3884 -3.7765
		]
	} #Coordinate3
	Material {
		ambientColor      0.1500 0.0000 0.0500  #ambientColor
		diffuseColor      0.6000 0.0000 0.2000  #diffuseColor
		transparency      0.0000                #transparency
	} #Material

	IndexedFaceSet {
		coordIndex [ 
		 8, 1, 2, 21, 22,-1,
		 22, 21, 2, 1, 8,-1,
		 23, 16, 17, 24,-1,
		 24, 17, 16, 23,-1,
		 1, 8, 18, 19, 5,-1,
		 5, 19, 18, 8, 1,-1,
		 2, 1, 5, 6,-1,
		 6, 5, 1, 2,-1,
		 21, 2, 6, 25,-1,
		 25, 6, 2, 21,-1,
		 25, 6, 5, 19, 20, 26,-1,
		 26, 20, 19, 5, 6, 25,-1,
		 8, 22, 24, 17, 18,-1,
		 18, 17, 24, 22, 8,-1,
		 16, 23, 26, 20,-1,
		 20, 26, 23, 16,-1,
		 17, 16, 20, 19, 18,-1,
		 18, 19, 20, 16, 17,-1,
		 22, 21, 25, 26, 23, 24,-1,
		 24, 23, 26, 25, 21, 22,-1,
		]
	} #IndexedFaceSet
} #Polyhedron
Separator { #Polyhedron
	DEF COORD12 Coordinate3 {
		point [
		 -0.4992 0.5027 -4.3225,
		 -0.4484 0.4837 -4.3225,
		 -0.3913 0.4964 -4.3225,
		 -0.3913 0.6551 -4.3225,
		 -0.4103 0.6805 -4.3225,
		 -0.4484 0.6932 -4.3225,
		 -0.4802 0.6805 -4.3225,
		 -0.4992 0.6551 -4.3225,
		 -0.4992 0.5027 -3.7892,
		 -0.4484 0.4837 -3.7892,
		 -0.3913 0.4964 -3.7892,
		 -0.3913 0.6551 -3.7892,
		 -0.4103 0.6805 -3.7892,
		 -0.4484 0.6932 -3.7892,
		 -0.4802 0.6805 -3.7892,
		 -0.4992 0.6551 -3.7892
		]
	} #Coordinate3
	Material {
		ambientColor      0.1500 0.0000 0.0500  #ambientColor
		diffuseColor      0.6000 0.0000 0.2000  #diffuseColor
		transparency      0.0000                #transparency
	} #Material

	IndexedFaceSet {
		coordIndex [ 
		 0, 1, 2, 3, 4, 5, 6, 7,-1,
		 7, 6, 5, 4, 3, 2, 1, 0,-1,
		 0, 7, 15, 8,-1,
		 8, 15, 7, 0,-1,
		 1, 0, 8, 9,-1,
		 9, 8, 0, 1,-1,
		 2, 1, 9, 10,-1,
		 10, 9, 1, 2,-1,
		 3, 2, 10, 11,-1,
		 11, 10, 2, 3,-1,
		 4, 3, 11, 12,-1,
		 12, 11, 3, 4,-1,
		 5, 4, 12, 13,-1,
		 13, 12, 4, 5,-1,
		 6, 5, 13, 14,-1,
		 14, 13, 5, 6,-1,
		 7, 6, 14, 15,-1,
		 15, 14, 6, 7,-1,
		 15, 14, 13, 12, 11, 10, 9, 8,-1,
		 8, 9, 10, 11, 12, 13, 14, 15,-1,
		]
	} #IndexedFaceSet
} #Polyhedron
Separator { #Polyhedron
	DEF COORD13 Coordinate3 {
		point [
		 0.1421 0.5027 -4.3225,
		 0.1929 0.4837 -4.3225,
		 0.2500 0.4964 -4.3225,
		 0.2500 0.6551 -4.3225,
		 0.2310 0.6805 -4.3225,
		 0.1929 0.6932 -4.3225,
		 0.1611 0.6805 -4.3225,
		 0.1421 0.6551 -4.3225,
		 0.1421 0.5027 -3.7892,
		 0.1929 0.4837 -3.7892,
		 0.2500 0.4964 -3.7892,
		 0.2500 0.6551 -3.7892,
		 0.2310 0.6805 -3.7892,
		 0.1929 0.6932 -3.7892,
		 0.1611 0.6805 -3.7892,
		 0.1421 0.6551 -3.7892
		]
	} #Coordinate3
	Material {
		ambientColor      0.1500 0.0000 0.0500  #ambientColor
		diffuseColor      0.6000 0.0000 0.2000  #diffuseColor
		transparency      0.0000                #transparency
	} #Material

	IndexedFaceSet {
		coordIndex [ 
		 0, 1, 2, 3, 4, 5, 6, 7,-1,
		 7, 6, 5, 4, 3, 2, 1, 0,-1,
		 0, 7, 15, 8,-1,
		 8, 15, 7, 0,-1,
		 1, 0, 8, 9,-1,
		 9, 8, 0, 1,-1,
		 2, 1, 9, 10,-1,
		 10, 9, 1, 2,-1,
		 3, 2, 10, 11,-1,
		 11, 10, 2, 3,-1,
		 4, 3, 11, 12,-1,
		 12, 11, 3, 4,-1,
		 5, 4, 12, 13,-1,
		 13, 12, 4, 5,-1,
		 6, 5, 13, 14,-1,
		 14, 13, 5, 6,-1,
		 7, 6, 14, 15,-1,
		 15, 14, 6, 7,-1,
		 15, 14, 13, 12, 11, 10, 9, 8,-1,
		 8, 9, 10, 11, 12, 13, 14, 15,-1,
		]
	} #IndexedFaceSet
} #Polyhedron
Separator { #Polyhedron
	DEF COORD14 Coordinate3 {
		point [
		 0.2564 0.6865 -4.3225,
		 -0.5056 0.6865 -4.3225,
		 -0.3913 0.6865 -4.4368,
		 0.1294 0.6865 -4.4368,
		 0.2564 0.4964 -4.3225,
		 -0.5056 0.4964 -4.3225,
		 -0.3913 0.4964 -4.4368,
		 0.1294 0.4964 -4.4368,
		 -0.4781 0.6865 -4.3225,
		 -0.4781 0.6865 -4.3500,
		 -0.5056 0.6669 -4.3225,
		 0.2377 0.6865 -4.3225,
		 0.2377 0.6865 -4.3393,
		 0.2564 0.6716 -4.3225
		]
	} #Coordinate3
	Material {
		ambientColor      0.1500 0.0000 0.0500  #ambientColor
		diffuseColor      0.6000 0.0000 0.2000  #diffuseColor
		transparency      0.0000                #transparency
	} #Material

	IndexedFaceSet {
		coordIndex [ 
		 11, 8, 9, 2, 3, 12,-1,
		 12, 3, 2, 9, 8, 11,-1,
		 12, 3, 7, 4, 13,-1,
		 13, 4, 7, 3, 12,-1,
		 8, 11, 13, 4, 5, 10,-1,
		 10, 5, 4, 13, 11, 8,-1,
		 3, 2, 6, 7,-1,
		 7, 6, 2, 3,-1,
		 7, 6, 5, 4,-1,
		 4, 5, 6, 7,-1,
		 9, 8, 10,-1,
		 10, 8, 9,-1,
		 11, 12, 13,-1,
		 13, 12, 11,-1,
		]
	} #IndexedFaceSet
} #Polyhedron
Separator { #Polyhedron
	DEF COORD15 Coordinate3 {
		point [
		 0.2575 0.8780 -4.3225,
		 -0.5044 0.8780 -4.3225,
		 -0.3901 0.8780 -4.4368,
		 0.1305 0.8780 -4.4368,
		 0.2575 0.6878 -4.3225,
		 -0.5044 0.6878 -4.3225,
		 -0.3901 0.6878 -4.4368,
		 0.1305 0.6878 -4.4368,
		 -0.4752 0.8780 -4.3225,
		 -0.4752 0.8780 -4.3517,
		 -0.5044 0.6957 -4.3225,
		 0.2244 0.8780 -4.3225,
		 0.2244 0.8780 -4.3524,
		 0.2575 0.7469 -4.3225,
		 0.2258 0.6878 -4.3511,
		 0.2575 0.7090 -4.3225,
		 0.2258 0.6878 -4.3225,
		 -0.4790 0.6878 -4.3225,
		 -0.5020 0.7108 -4.3225,
		 -0.5020 0.7108 -4.3250,
		 -0.4790 0.6878 -4.3479,
		 0.1989 0.8780 -4.3225,
		 0.1989 0.8780 -4.3753,
		 0.2311 0.8516 -4.3464,
		 0.2311 0.8516 -4.3225,
		 -0.4450 0.8780 -4.3225,
		 -0.4450 0.8780 -4.3819,
		 -0.4798 0.8498 -4.3225,
		 -0.4798 0.8498 -4.3472
		]
	} #Coordinate3
	Material {
		ambientColor      0.1500 0.0000 0.0500  #ambientColor
		diffuseColor      0.6000 0.0000 0.2000  #diffuseColor
		transparency      0.0000                #transparency
	} #Material

	IndexedFaceSet {
		coordIndex [ 
		 21, 25, 26, 2, 3, 22,-1,
		 22, 3, 2, 26, 25, 21,-1,
		 22, 3, 7, 14, 15, 13, 23,-1,
		 23, 13, 15, 14, 7, 3, 22,-1,
		 25, 21, 24, 13, 15, 16, 17, 18, 27,-1,
		 27, 18, 17, 16, 15, 13, 24, 21, 25,-1,
		 3, 2, 6, 7,-1,
		 7, 6, 2, 3,-1,
		 7, 6, 20, 17, 16, 14,-1,
		 14, 16, 17, 20, 6, 7,-1,
		 27, 18, 19, 28,-1,
		 28, 19, 18, 27,-1,
		 23, 13, 24,-1,
		 24, 13, 23,-1,
		 15, 14, 16,-1,
		 16, 14, 15,-1,
		 18, 17, 20, 19,-1,
		 19, 20, 17, 18,-1,
		 21, 22, 23, 24,-1,
		 24, 23, 22, 21,-1,
		 26, 25, 27, 28,-1,
		 28, 27, 25, 26,-1,
		]
	} #IndexedFaceSet
} #Polyhedron
Separator { #Polyhedron
	DEF COORD16 Coordinate3 {
		point [
		 0.2626 1.1754 -4.3225,
		 -0.4993 1.1754 -4.3225,
		 -0.3850 1.1754 -4.4368,
		 0.1356 1.1754 -4.4368,
		 0.2626 0.8757 -4.3225,
		 -0.4993 0.8757 -4.3225,
		 -0.3850 0.8757 -4.4368,
		 0.1356 0.8757 -4.4368,
		 -0.4401 1.1754 -4.3225,
		 -0.4401 1.1754 -4.3818,
		 -0.4727 0.8757 -4.3225,
		 -0.4727 0.8757 -4.3492,
		 0.2097 1.1754 -4.3225,
		 0.2097 1.1754 -4.3701,
		 0.2316 0.8757 -4.3504,
		 0.2316 0.8757 -4.3225,
		 0.2026 0.8757 -4.3766,
		 0.2297 0.9028 -4.3522,
		 0.2297 0.9028 -4.3225,
		 0.2026 0.8757 -4.3225,
		 -0.4493 0.8757 -4.3225,
		 -0.4695 0.9048 -4.3225,
		 -0.4695 0.9048 -4.3523,
		 -0.4493 0.8757 -4.3726,
		 0.1845 1.1754 -4.3225,
		 0.1845 1.1754 -4.3929,
		 0.2135 1.1246 -4.3668,
		 0.2135 1.1246 -4.3225,
		 -0.4133 1.1754 -4.3225,
		 -0.4133 1.1754 -4.4085,
		 -0.4449 1.1311 -4.3225,
		 -0.4449 1.1311 -4.3770
		]
	} #Coordinate3
	Material {
		ambientColor      0.1500 0.0000 0.0500  #ambientColor
		diffuseColor      0.6000 0.0000 0.2000  #diffuseColor
		transparency      0.0000                #transparency
	} #Material

	IndexedFaceSet {
		coordIndex [ 
		 24, 28, 29, 2, 3, 25,-1,
		 25, 3, 2, 29, 28, 24,-1,
		 25, 3, 7, 16, 17, 26,-1,
		 26, 17, 16, 7, 3, 25,-1,
		 28, 24, 27, 18, 19, 20, 21, 30,-1,
		 30, 21, 20, 19, 18, 27, 24, 28,-1,
		 3, 2, 6, 7,-1,
		 7, 6, 2, 3,-1,
		 7, 6, 23, 20, 19, 16,-1,
		 16, 19, 20, 23, 6, 7,-1,
		 30, 21, 22, 31,-1,
		 31, 22, 21, 30,-1,
		 26, 17, 18, 27,-1,
		 27, 18, 17, 26,-1,
		 17, 16, 19, 18,-1,
		 18, 19, 16, 17,-1,
		 21, 20, 23, 22,-1,
		 22, 23, 20, 21,-1,
		 24, 25, 26, 27,-1,
		 27, 26, 25, 24,-1,
		 29, 28, 30, 31,-1,
		 31, 30, 28, 29,-1,
		]
	} #IndexedFaceSet
} #Polyhedron
}
