#VRML V1.0 ascii

Separator {
	Info { string "Virtus VRML 1.0.1
	VRML Export Filter
	Virtus Corporation
	114 MacKenan Drive, Suite 100
	Cary, NC 27511
	919-467-9700"}

	DEF BackgroundColor Info{  # Sky color
		string " 0.3 0.8 1.0 "
	}

	DirectionalLight {
		on         TRUE          # SFBool
		intensity  1.0           # SFFloat
		color      0.4 0.4 0.4   # SFColor
		direction  0 0 0   # SFVec3f
	}

	DirectionalLight {
		on         TRUE          # SFBool
		intensity  1.0           # SFFloat
		color      0.5 0.5 0.5   # SFColor
		direction  34 -247 -57   # SFVec3f
	}

	DirectionalLight {
		on         TRUE          # SFBool
		intensity  1.0           # SFFloat
		color      0.4 0.4 0.4   # SFColor
		direction  -209 -104 105   # SFVec3f
	}

	DirectionalLight {
		on         TRUE          # SFBool
		intensity  1.0           # SFFloat
		color      0.5 0.5 0.5   # SFColor
		direction  5 119 -226   # SFVec3f
	}

	PerspectiveCamera {
		position 0.0000 1.5240 0.0000          #SFVec3f 
		focalDistance  5            #SFFloat 
		heightAngle 1.9201 
	}

	ShapeHints {
		vertexOrdering	CLOCKWISE
		shapeType	SOLID
	}

	Transform {
		translation 0 0 0
		scaleFactor 1.0 1.0 1.0
	}

Separator { #Polyhedron
	DEF COORD0 Coordinate3 {
		point [
		 0.4782 2.0229 -17.0723,
		 0.4782 2.0229 -16.0932,
		 -2.5871 2.0229 -16.0932,
		 -2.5871 2.0229 -17.0723,
		 0.4782 0.5885 -17.0723,
		 0.4782 0.5885 -16.0932,
		 -2.5871 0.5885 -16.0932,
		 -2.5871 0.5885 -17.0723,
		 0.4782 0.5885 -16.2564,
		 0.4782 0.7280 -16.0932,
		 -2.5871 0.7280 -16.0932,
		 -2.5871 0.5885 -16.2564,
		 -2.5871 0.7629 -17.0723,
		 0.4782 0.7629 -17.0723,
		 0.4782 0.5885 -16.9091,
		 -2.5871 0.5885 -16.9091
		]
	} #Coordinate3
	Material {
		ambientColor      0.1667 0.0000 0.0000  #ambientColor
		diffuseColor      0.6667 0.0000 0.0000  #diffuseColor
		transparency      0.0000                #transparency
	} #Material

	IndexedFaceSet {
		coordIndex [ 
		 0, 1, 2, 3,-1,
		 3, 2, 1, 0,-1,
		 0, 3, 12, 13,-1,
		 13, 12, 3, 0,-1,
		 1, 0, 13, 14, 8, 9,-1,
		 9, 8, 14, 13, 0, 1,-1,
		 2, 1, 9, 10,-1,
		 10, 9, 1, 2,-1,
		 3, 2, 10, 11, 15, 12,-1,
		 12, 15, 11, 10, 2, 3,-1,
		 15, 11, 8, 14,-1,
		 14, 8, 11, 15,-1,
		 9, 8, 11, 10,-1,
		 10, 11, 8, 9,-1,
		 13, 12, 15, 14,-1,
		 14, 15, 12, 13,-1,
		]
	} #IndexedFaceSet
} #Polyhedron
Separator { #Polyhedron
	DEF COORD1 Coordinate3 {
		point [
		 0.4783 1.6643 -16.9324,
		 1.1936 1.6643 -16.9324,
		 1.4235 1.6643 -16.8159,
		 1.5256 1.6643 -16.6993,
		 1.5512 1.6643 -16.5827,
		 1.5256 1.6643 -16.4429,
		 1.4235 1.6643 -16.3496,
		 1.1936 1.6643 -16.2330,
		 0.4783 1.6643 -16.2330,
		 0.4783 1.1862 -16.9324,
		 1.1936 1.1862 -16.9324,
		 1.4235 1.1862 -16.8159,
		 1.5256 1.1862 -16.6993,
		 1.5512 1.1862 -16.5827,
		 1.5256 1.1862 -16.4429,
		 1.4235 1.1862 -16.3496,
		 1.1936 1.1862 -16.2330,
		 0.4783 1.1862 -16.2330
		]
	} #Coordinate3
	Material {
		ambientColor      0.1667 0.0000 0.0000  #ambientColor
		diffuseColor      0.6667 0.0000 0.0000  #diffuseColor
		transparency      0.0000                #transparency
	} #Material

	IndexedFaceSet {
		coordIndex [ 
		 0, 1, 2, 3, 4, 5, 6, 7, 8,-1,
		 8, 7, 6, 5, 4, 3, 2, 1, 0,-1,
		 0, 8, 17, 9,-1,
		 9, 17, 8, 0,-1,
		 1, 0, 9, 10,-1,
		 10, 9, 0, 1,-1,
		 2, 1, 10, 11,-1,
		 11, 10, 1, 2,-1,
		 3, 2, 11, 12,-1,
		 12, 11, 2, 3,-1,
		 4, 3, 12, 13,-1,
		 13, 12, 3, 4,-1,
		 5, 4, 13, 14,-1,
		 14, 13, 4, 5,-1,
		 6, 5, 14, 15,-1,
		 15, 14, 5, 6,-1,
		 7, 6, 15, 16,-1,
		 16, 15, 6, 7,-1,
		 8, 7, 16, 17,-1,
		 17, 16, 7, 8,-1,
		 17, 16, 15, 14, 13, 12, 11, 10, 9,-1,
		 9, 10, 11, 12, 13, 14, 15, 16, 17,-1,
		]
	} #IndexedFaceSet
} #Polyhedron
Separator { #Polyhedron
	DEF COORD2 Coordinate3 {
		point [
		 -1.0545 2.3815 -16.5827,
		 -0.1348 2.3098 -16.8765,
		 -0.1348 2.3098 -16.2890,
		 -1.9741 2.3098 -16.2890,
		 -1.9741 2.3098 -16.8765,
		 0.1717 2.2381 -16.9744,
		 0.1717 2.2381 -16.1911,
		 -2.2806 2.2381 -16.1911,
		 -2.2806 2.2381 -16.9744,
		 0.3502 2.1663 -17.0314,
		 0.3502 2.1663 -16.1340,
		 -2.4592 2.1663 -16.1340,
		 -2.4592 2.1663 -17.0314,
		 0.4472 2.0946 -17.0624,
		 0.4472 2.0946 -16.1031,
		 -2.5561 2.0946 -16.1031,
		 -2.5561 2.0946 -17.0624,
		 0.4782 2.0229 -17.0723,
		 0.4782 2.0229 -16.0932,
		 -2.5871 2.0229 -16.0932,
		 -2.5871 2.0229 -17.0723,
		 -1.8208 2.3217 -16.8275,
		 -0.2881 2.3217 -16.8275,
		 -0.2881 2.3217 -16.3380,
		 -1.8208 2.3217 -16.3380
		]
	} #Coordinate3
	Material {
		ambientColor      0.1667 0.0000 0.0000  #ambientColor
		diffuseColor      0.6667 0.0000 0.0000  #diffuseColor
		transparency      0.0000                #transparency
	} #Material

	IndexedFaceSet {
		coordIndex [ 
		 21, 4, 1, 22,-1,
		 22, 1, 4, 21,-1,
		 22, 1, 2, 23,-1,
		 23, 2, 1, 22,-1,
		 23, 2, 3, 24,-1,
		 24, 3, 2, 23,-1,
		 24, 3, 4, 21,-1,
		 21, 4, 3, 24,-1,
		 1, 4, 8, 5,-1,
		 5, 8, 4, 1,-1,
		 2, 1, 5, 6,-1,
		 6, 5, 1, 2,-1,
		 3, 2, 6, 7,-1,
		 7, 6, 2, 3,-1,
		 4, 3, 7, 8,-1,
		 8, 7, 3, 4,-1,
		 5, 8, 12, 9,-1,
		 9, 12, 8, 5,-1,
		 6, 5, 9, 10,-1,
		 10, 9, 5, 6,-1,
		 7, 6, 10, 11,-1,
		 11, 10, 6, 7,-1,
		 8, 7, 11, 12,-1,
		 12, 11, 7, 8,-1,
		 9, 12, 16, 13,-1,
		 13, 16, 12, 9,-1,
		 10, 9, 13, 14,-1,
		 14, 13, 9, 10,-1,
		 11, 10, 14, 15,-1,
		 15, 14, 10, 11,-1,
		 12, 11, 15, 16,-1,
		 16, 15, 11, 12,-1,
		 13, 16, 20, 17,-1,
		 17, 20, 16, 13,-1,
		 14, 13, 17, 18,-1,
		 18, 17, 13, 14,-1,
		 15, 14, 18, 19,-1,
		 19, 18, 14, 15,-1,
		 16, 15, 19, 20,-1,
		 20, 19, 15, 16,-1,
		 20, 19, 18, 17,-1,
		 17, 18, 19, 20,-1,
		 21, 22, 23, 24,-1,
		 24, 23, 22, 21,-1,
		]
	} #IndexedFaceSet
} #Polyhedron
Separator { #Polyhedron
	DEF COORD3 Coordinate3 {
		point [
		 -2.5872 2.0628 -17.0723,
		 -2.5872 0.8276 -17.0723,
		 -2.5872 0.8276 -16.0932,
		 -2.5872 2.0628 -16.0932,
		 -2.6872 2.0499 -17.0624,
		 -2.6872 0.8397 -17.0624,
		 -2.6872 0.8397 -16.1031,
		 -2.6872 2.0499 -16.1031,
		 -2.7872 2.0095 -17.0314,
		 -2.7872 0.8775 -17.0314,
		 -2.7872 0.8775 -16.1340,
		 -2.7872 2.0095 -16.1340,
		 -2.8871 1.9353 -16.9744,
		 -2.8871 0.9471 -16.9744,
		 -2.8871 0.9471 -16.1911,
		 -2.8871 1.9353 -16.1911,
		 -2.9871 1.8078 -16.8765,
		 -2.9871 1.0667 -16.8765,
		 -2.9871 1.0667 -16.2890,
		 -2.9871 1.8078 -16.2890,
		 -3.0871 1.4253 -16.5827,
		 -2.8937 1.9268 -16.1975,
		 -2.8937 1.9268 -16.9679,
		 -2.8937 0.9550 -16.9679,
		 -2.8937 0.9550 -16.1975,
		 -2.8937 1.8714 -16.9679,
		 -2.8937 1.8714 -16.1975,
		 -2.8937 1.8116 -16.9679,
		 -2.8937 1.8714 -16.9679,
		 -2.8937 1.8714 -16.8980,
		 -2.8937 1.8116 -16.8980,
		 -2.8937 1.7718 -16.9679,
		 -2.8937 1.8116 -16.9679,
		 -2.8937 1.8116 -16.1975,
		 -2.8937 1.7718 -16.1975,
		 -2.8937 1.7121 -16.9679,
		 -2.8937 1.7718 -16.9679,
		 -2.8937 1.7718 -16.8980,
		 -2.8937 1.7121 -16.8980,
		 -2.8937 1.6722 -16.9679,
		 -2.8937 1.7121 -16.9679,
		 -2.8937 1.7121 -16.1975,
		 -2.8937 1.6722 -16.1975,
		 -2.8937 1.6125 -16.9679,
		 -2.8937 1.6722 -16.9679,
		 -2.8937 1.6722 -16.8980,
		 -2.8937 1.6125 -16.8980,
		 -2.8937 1.5726 -16.9679,
		 -2.8937 1.6125 -16.9679,
		 -2.8937 1.6125 -16.1975,
		 -2.8937 1.5726 -16.1975,
		 -2.8937 1.5129 -16.9679,
		 -2.8937 1.5726 -16.9679,
		 -2.8937 1.5726 -16.8980,
		 -2.8937 1.5129 -16.8980,
		 -2.8937 1.4730 -16.9679,
		 -2.8937 1.5129 -16.9679,
		 -2.8937 1.5129 -16.1975,
		 -2.8937 1.4730 -16.1975,
		 -2.8937 1.4133 -16.9679,
		 -2.8937 1.4730 -16.9679,
		 -2.8937 1.4730 -16.8980,
		 -2.8937 1.4133 -16.8980,
		 -2.8937 1.3734 -16.9679,
		 -2.8937 1.4133 -16.9679,
		 -2.8937 1.4133 -16.1975,
		 -2.8937 1.3734 -16.1975,
		 -2.8937 1.3137 -16.9679,
		 -2.8937 1.3734 -16.9679,
		 -2.8937 1.3734 -16.8980,
		 -2.8937 1.3137 -16.8980,
		 -2.8937 1.2738 -16.9679,
		 -2.8937 1.3137 -16.9679,
		 -2.8937 1.3137 -16.1975,
		 -2.8937 1.2738 -16.1975,
		 -2.8937 1.2141 -16.9679,
		 -2.8937 1.2738 -16.9679,
		 -2.8937 1.2738 -16.8980,
		 -2.8937 1.2141 -16.8980,
		 -2.8937 1.1742 -16.9679,
		 -2.8937 1.2141 -16.9679,
		 -2.8937 1.2141 -16.1975,
		 -2.8937 1.1742 -16.1975,
		 -2.8937 1.1145 -16.9679,
		 -2.8937 1.1742 -16.9679,
		 -2.8937 1.1742 -16.8980,
		 -2.8937 1.1145 -16.8980,
		 -2.8937 1.0746 -16.9679,
		 -2.8937 1.1145 -16.9679,
		 -2.8937 1.1145 -16.1975,
		 -2.8937 1.0746 -16.1975,
		 -2.8937 1.0149 -16.9679,
		 -2.8937 1.0746 -16.9679,
		 -2.8937 1.0746 -16.8980,
		 -2.8937 1.0149 -16.8980,
		 -2.8937 1.0149 -16.1975,
		 -2.8937 1.0149 -16.9679,
		 -2.8937 1.0746 -16.1975,
		 -2.8937 1.0149 -16.2686,
		 -2.8937 1.0746 -16.2686,
		 -2.8937 1.1742 -16.1975,
		 -2.8937 1.1145 -16.2686,
		 -2.8937 1.1742 -16.2686,
		 -2.8937 1.2738 -16.1975,
		 -2.8937 1.2141 -16.2686,
		 -2.8937 1.2738 -16.2686,
		 -2.8937 1.3734 -16.1975,
		 -2.8937 1.3137 -16.2686,
		 -2.8937 1.3734 -16.2686,
		 -2.8937 1.4730 -16.1975,
		 -2.8937 1.4133 -16.2686,
		 -2.8937 1.4730 -16.2686,
		 -2.8937 1.5726 -16.1975,
		 -2.8937 1.5129 -16.2686,
		 -2.8937 1.5726 -16.2686,
		 -2.8937 1.6722 -16.1975,
		 -2.8937 1.6125 -16.2686,
		 -2.8937 1.6722 -16.2686,
		 -2.8937 1.7718 -16.1975,
		 -2.8937 1.7121 -16.2686,
		 -2.8937 1.7718 -16.2686,
		 -2.8937 1.8714 -16.1975,
		 -2.8937 1.8116 -16.2686,
		 -2.8937 1.8714 -16.2686,
		 -2.8937 1.8714 -16.1975,
		 -2.8937 1.8714 -16.9679,
		 -2.8937 1.8714 -16.9679,
		 -2.8937 1.8116 -16.9679,
		 -2.8937 1.7718 -16.1975,
		 -2.8937 1.8116 -16.1975,
		 -2.8937 1.8116 -16.9679,
		 -2.8937 1.7718 -16.9679,
		 -2.8937 1.7718 -16.9679,
		 -2.8937 1.7121 -16.9679,
		 -2.8937 1.6722 -16.1975,
		 -2.8937 1.7121 -16.1975,
		 -2.8937 1.7121 -16.9679,
		 -2.8937 1.6722 -16.9679,
		 -2.8937 1.6722 -16.9679,
		 -2.8937 1.6125 -16.9679,
		 -2.8937 1.5726 -16.1975,
		 -2.8937 1.6125 -16.1975,
		 -2.8937 1.6125 -16.9679,
		 -2.8937 1.5726 -16.9679,
		 -2.8937 1.5726 -16.9679,
		 -2.8937 1.5129 -16.9679,
		 -2.8937 1.4730 -16.1975,
		 -2.8937 1.5129 -16.1975,
		 -2.8937 1.5129 -16.9679,
		 -2.8937 1.4730 -16.9679,
		 -2.8937 1.4730 -16.9679,
		 -2.8937 1.4133 -16.9679,
		 -2.8937 1.3734 -16.1975,
		 -2.8937 1.4133 -16.1975,
		 -2.8937 1.4133 -16.9679,
		 -2.8937 1.3734 -16.9679,
		 -2.8937 1.3734 -16.9679,
		 -2.8937 1.3137 -16.9679,
		 -2.8937 1.2738 -16.1975,
		 -2.8937 1.3137 -16.1975,
		 -2.8937 1.3137 -16.9679,
		 -2.8937 1.2738 -16.9679,
		 -2.8937 1.2738 -16.9679,
		 -2.8937 1.2141 -16.9679,
		 -2.8937 1.1742 -16.1975,
		 -2.8937 1.2141 -16.1975,
		 -2.8937 1.2141 -16.9679,
		 -2.8937 1.1742 -16.9679,
		 -2.8937 1.1742 -16.9679,
		 -2.8937 1.1145 -16.9679,
		 -2.8937 1.0746 -16.1975,
		 -2.8937 1.1145 -16.1975,
		 -2.8937 1.1145 -16.9679,
		 -2.8937 1.0746 -16.9679,
		 -2.8937 1.0746 -16.9679,
		 -2.8937 1.0149 -16.9679,
		 -2.8937 1.0149 -16.9679,
		 -2.8937 1.0149 -16.1975,
		 -2.8937 1.0746 -16.1975,
		 -2.8937 1.1742 -16.1975,
		 -2.8937 1.2738 -16.1975,
		 -2.8937 1.3734 -16.1975,
		 -2.8937 1.4730 -16.1975,
		 -2.8937 1.5726 -16.1975,
		 -2.8937 1.6722 -16.1975,
		 -2.8937 1.7718 -16.1975,
		 -2.8937 1.8714 -16.1975
		]
	} #Coordinate3
	Material {
		ambientColor      0.1667 0.0000 0.0000  #ambientColor
		diffuseColor      0.6667 0.0000 0.0000  #diffuseColor
		transparency      0.0000                #transparency
	} #Material

	IndexedFaceSet {
		coordIndex [ 
		 0, 1, 2, 3,-1,
		 3, 2, 1, 0,-1,
		 0, 3, 7, 4,-1,
		 4, 7, 3, 0,-1,
		 1, 0, 4, 5,-1,
		 5, 4, 0, 1,-1,
		 2, 1, 5, 6,-1,
		 6, 5, 1, 2,-1,
		 3, 2, 6, 7,-1,
		 7, 6, 2, 3,-1,
		 4, 7, 11, 8,-1,
		 8, 11, 7, 4,-1,
		 5, 4, 8, 9,-1,
		 9, 8, 4, 5,-1,
		 6, 5, 9, 10,-1,
		 10, 9, 5, 6,-1,
		 7, 6, 10, 11,-1,
		 11, 10, 6, 7,-1,
		 8, 11, 15, 12,-1,
		 12, 15, 11, 8,-1,
		 9, 8, 12, 13,-1,
		 13, 12, 8, 9,-1,
		 10, 9, 13, 14,-1,
		 14, 13, 9, 10,-1,
		 11, 10, 14, 15,-1,
		 15, 14, 10, 11,-1,
		 12, 15, 21, 22,-1,
		 22, 21, 15, 12,-1,
		 13, 12, 22, 23,-1,
		 23, 22, 12, 13,-1,
		 14, 13, 23, 24,-1,
		 24, 23, 13, 14,-1,
		 15, 14, 24, 21,-1,
		 21, 24, 14, 15,-1,
		]
	} #IndexedFaceSet
	Material {
		ambientColor      0.2500 0.0696 0.0696  #ambientColor
		diffuseColor      1.0000 0.2784 0.2784  #diffuseColor
		transparency      0.0000                #transparency
	} #Material

	IndexedFaceSet {
		coordIndex [ 
		 25, 22, 21, 26,-1,
		 27, 28, 29, 30,-1,
		 31, 32, 33, 34,-1,
		 35, 36, 37, 38,-1,
		 39, 40, 41, 42,-1,
		 43, 44, 45, 46,-1,
		 47, 48, 49, 50,-1,
		 51, 52, 53, 54,-1,
		 55, 56, 57, 58,-1,
		 59, 60, 61, 62,-1,
		 63, 64, 65, 66,-1,
		 67, 68, 69, 70,-1,
		 71, 72, 73, 74,-1,
		 75, 76, 77, 78,-1,
		 79, 80, 81, 82,-1,
		 83, 84, 85, 86,-1,
		 87, 88, 89, 90,-1,
		 91, 92, 93, 94,-1,
		 95, 24, 23, 96,-1,
		 97, 95, 98, 99,-1,
		 100, 89, 101, 102,-1,
		 103, 81, 104, 105,-1,
		 106, 73, 107, 108,-1,
		 109, 65, 110, 111,-1,
		 112, 57, 113, 114,-1,
		 115, 49, 116, 117,-1,
		 118, 41, 119, 120,-1,
		 121, 33, 122, 123,-1,
		]
	} #IndexedFaceSet
	Material {
		ambientColor      0.1176 0.1176 0.1176  #ambientColor
		diffuseColor      0.4706 0.4706 0.4706  #diffuseColor
		transparency      0.0000                #transparency
	} #Material

	IndexedFaceSet {
		coordIndex [ 
		 123, 122, 30, 29,-1,
		 120, 119, 38, 37,-1,
		 117, 116, 46, 45,-1,
		 114, 113, 54, 53,-1,
		 111, 110, 62, 61,-1,
		 108, 107, 70, 69,-1,
		 105, 104, 78, 77,-1,
		 102, 101, 86, 85,-1,
		 99, 98, 94, 93,-1,
		]
	} #IndexedFaceSet
	Material {
		ambientColor      0.2500 0.0696 0.0696  #ambientColor
		diffuseColor      1.0000 0.2784 0.2784  #diffuseColor
		transparency      0.0000                #transparency
	} #Material

	IndexedFaceSet {
		coordIndex [ 
		 124, 21, 22, 125,-1,
		 30, 29, 126, 127,-1,
		 128, 129, 130, 131,-1,
		 38, 37, 132, 133,-1,
		 134, 135, 136, 137,-1,
		 46, 45, 138, 139,-1,
		 140, 141, 142, 143,-1,
		 54, 53, 144, 145,-1,
		 146, 147, 148, 149,-1,
		 62, 61, 150, 151,-1,
		 152, 153, 154, 155,-1,
		 70, 69, 156, 157,-1,
		 158, 159, 160, 161,-1,
		 78, 77, 162, 163,-1,
		 164, 165, 166, 167,-1,
		 86, 85, 168, 169,-1,
		 170, 171, 172, 173,-1,
		 94, 93, 174, 175,-1,
		 176, 23, 24, 177,-1,
		 99, 98, 177, 178,-1,
		 102, 101, 171, 179,-1,
		 105, 104, 165, 180,-1,
		 108, 107, 159, 181,-1,
		 111, 110, 153, 182,-1,
		 114, 113, 147, 183,-1,
		 117, 116, 141, 184,-1,
		 120, 119, 135, 185,-1,
		 123, 122, 129, 186,-1,
		]
	} #IndexedFaceSet
	Material {
		ambientColor      0.1176 0.1176 0.1176  #ambientColor
		diffuseColor      0.4706 0.4706 0.4706  #diffuseColor
		transparency      0.0000                #transparency
	} #Material

	IndexedFaceSet {
		coordIndex [ 
		 29, 30, 122, 123,-1,
		 37, 38, 119, 120,-1,
		 45, 46, 116, 117,-1,
		 53, 54, 113, 114,-1,
		 61, 62, 110, 111,-1,
		 69, 70, 107, 108,-1,
		 77, 78, 104, 105,-1,
		 85, 86, 101, 102,-1,
		 93, 94, 98, 99,-1,
		]
	} #IndexedFaceSet
} #Polyhedron
Separator { #Polyhedron
	DEF COORD4 Coordinate3 {
		point [
		 2.0514 2.3815 -15.9999,
		 1.5328 2.3272 -15.9999,
		 1.0747 2.0809 -15.9999,
		 0.7469 1.6803 -15.9999,
		 0.5993 1.1862 -15.9999,
		 0.6543 0.6739 -15.9999,
		 0.9036 0.2215 -15.9999,
		 1.3092 -0.1023 -15.9999,
		 1.8094 -0.2482 -15.9999,
		 2.3280 -0.1938 -15.9999,
		 2.7860 0.0524 -15.9999,
		 3.1138 0.4531 -15.9999,
		 3.2615 0.9472 -15.9999,
		 3.2064 1.4594 -15.9999,
		 2.9572 1.9119 -15.9999,
		 2.5516 2.2357 -15.9999,
		 2.0514 2.3815 -15.4870,
		 1.5328 2.3272 -15.4870,
		 1.0747 2.0809 -15.4870,
		 0.7469 1.6803 -15.4870,
		 0.5993 1.1862 -15.4870,
		 0.6543 0.6739 -15.4870,
		 0.9036 0.2215 -15.4870,
		 1.3092 -0.1023 -15.4870,
		 1.8094 -0.2482 -15.4870,
		 2.3280 -0.1938 -15.4870,
		 2.7860 0.0524 -15.4870,
		 3.1138 0.4531 -15.4870,
		 3.2615 0.9472 -15.4870,
		 3.2064 1.4594 -15.4870,
		 2.9572 1.9119 -15.4870,
		 2.5516 2.2357 -15.4870,
		 1.0274 2.0230 -15.4870,
		 2.8179 2.0230 -15.4870,
		 0.9678 1.9502 -15.4870,
		 1.9304 2.0230 -15.4870,
		 1.5599 1.9502 -15.4870,
		 0.7982 1.7429 -15.4870,
		 1.2458 1.7429 -15.4870,
		 0.6730 1.4327 -15.4870,
		 1.0359 1.4327 -15.4870,
		 0.6121 1.0667 -15.4870,
		 0.9622 1.0667 -15.4870,
		 0.6514 0.7007 -15.4870,
		 1.0359 0.7007 -15.4870,
		 0.8105 0.3905 -15.4870,
		 1.2458 0.3905 -15.4870,
		 0.9516 0.1831 -15.4870,
		 1.5599 0.1831 -15.4870,
		 1.0428 0.1103 -15.4870,
		 1.9304 0.1103 -15.4870,
		 2.8334 0.1103 -15.4870,
		 1.0428 0.1103 -15.4870,
		 2.8930 0.1831 -15.4870,
		 2.3009 0.1831 -15.4870,
		 3.0626 0.3905 -15.4870,
		 2.6150 0.3905 -15.4870,
		 3.1878 0.7007 -15.4870,
		 2.8249 0.7007 -15.4870,
		 3.2486 1.0667 -15.4870,
		 2.8986 1.0667 -15.4870,
		 3.2093 1.4327 -15.4870,
		 2.8249 1.4327 -15.4870,
		 3.0502 1.7429 -15.4870,
		 2.6150 1.7429 -15.4870,
		 2.9091 1.9502 -15.4870,
		 2.3009 1.9502 -15.4870,
		 2.8179 2.0230 -15.4870,
		 1.0103 1.3057 -15.4870,
		 2.8504 1.3057 -15.4870,
		 0.9962 1.2357 -15.4870,
		 1.9304 1.3057 -15.4870,
		 1.7593 1.2357 -15.4870,
		 1.6884 1.0667 -15.4870,
		 0.9962 0.8977 -15.4870,
		 1.7593 0.8977 -15.4870,
		 1.0103 0.8276 -15.4870,
		 1.9304 0.8276 -15.4870,
		 2.8504 0.8276 -15.4870,
		 1.0103 0.8276 -15.4870,
		 2.8645 0.8977 -15.4870,
		 2.1015 0.8977 -15.4870,
		 2.1724 1.0667 -15.4870,
		 2.8645 1.2357 -15.4870,
		 2.1015 1.2357 -15.4870,
		 2.8504 1.3057 -15.4870,
		 2.8179 2.0230 -15.4870,
		 1.0274 2.0230 -15.4870,
		 0.9678 1.9502 -15.4870,
		 0.7982 1.7429 -15.4870,
		 0.6730 1.4327 -15.4870,
		 0.6121 1.0667 -15.4870,
		 0.6514 0.7007 -15.4870,
		 0.8105 0.3905 -15.4870,
		 0.9516 0.1831 -15.4870,
		 1.0428 0.1103 -15.4870,
		 1.0428 0.1103 -15.4870,
		 2.8334 0.1103 -15.4870,
		 2.8930 0.1831 -15.4870,
		 3.0626 0.3905 -15.4870,
		 3.1878 0.7007 -15.4870,
		 3.2486 1.0667 -15.4870,
		 3.2093 1.4327 -15.4870,
		 3.0502 1.7429 -15.4870,
		 2.9091 1.9502 -15.4870,
		 2.8179 2.0230 -15.4870,
		 2.8504 1.3057 -15.4870,
		 1.0103 1.3057 -15.4870,
		 0.9962 1.2357 -15.4870,
		 0.9962 0.8977 -15.4870,
		 1.0103 0.8276 -15.4870,
		 1.0103 0.8276 -15.4870,
		 2.8504 0.8276 -15.4870,
		 2.8645 0.8977 -15.4870,
		 2.8645 1.2357 -15.4870,
		 2.8504 1.3057 -15.4870
		]
	} #Coordinate3
	Material {
		ambientColor      0.0412 0.0412 0.0412  #ambientColor
		diffuseColor      0.1647 0.1647 0.1647  #diffuseColor
		transparency      0.0000                #transparency
	} #Material

	IndexedFaceSet {
		coordIndex [ 
		 0, 1, 2, 3, 4, 5, 6, 7, 8, 9, 10, 11, 12, 13, 14, 15,-1,
		 15, 14, 13, 12, 11, 10, 9, 8, 7, 6, 5, 4, 3, 2, 1, 0,-1,
		 0, 15, 31, 16,-1,
		 16, 31, 15, 0,-1,
		 1, 0, 16, 17,-1,
		 17, 16, 0, 1,-1,
		 2, 1, 17, 18,-1,
		 18, 17, 1, 2,-1,
		 3, 2, 18, 19,-1,
		 19, 18, 2, 3,-1,
		 4, 3, 19, 20,-1,
		 20, 19, 3, 4,-1,
		 5, 4, 20, 21,-1,
		 21, 20, 4, 5,-1,
		 6, 5, 21, 22,-1,
		 22, 21, 5, 6,-1,
		 7, 6, 22, 23,-1,
		 23, 22, 6, 7,-1,
		 8, 7, 23, 24,-1,
		 24, 23, 7, 8,-1,
		 9, 8, 24, 25,-1,
		 25, 24, 8, 9,-1,
		 10, 9, 25, 26,-1,
		 26, 25, 9, 10,-1,
		 11, 10, 26, 27,-1,
		 27, 26, 10, 11,-1,
		 12, 11, 27, 28,-1,
		 28, 27, 11, 12,-1,
		 13, 12, 28, 29,-1,
		 29, 28, 12, 13,-1,
		 14, 13, 29, 30,-1,
		 30, 29, 13, 14,-1,
		 15, 14, 30, 31,-1,
		 31, 30, 14, 15,-1,
		 32, 18, 17, 16, 31, 33,-1,
		 34, 32, 35, 36,-1,
		 37, 34, 36, 38,-1,
		 39, 19, 37, 38, 40,-1,
		 41, 20, 39, 40, 42,-1,
		 43, 41, 42, 44,-1,
		 45, 21, 43, 44, 46,-1,
		 47, 22, 45, 46, 48,-1,
		 49, 47, 48, 50,-1,
		 51, 26, 25, 24, 23, 52,-1,
		 53, 51, 50, 54,-1,
		 55, 53, 54, 56,-1,
		 57, 27, 55, 56, 58,-1,
		 59, 28, 57, 58, 60,-1,
		 61, 59, 60, 62,-1,
		 63, 29, 61, 62, 64,-1,
		 65, 30, 63, 64, 66,-1,
		 67, 65, 66, 35,-1,
		]
	} #IndexedFaceSet
	Material {
		ambientColor      0.1039 0.1039 0.1039  #ambientColor
		diffuseColor      0.4157 0.4157 0.4157  #diffuseColor
		transparency      0.0000                #transparency
	} #Material

	IndexedFaceSet {
		coordIndex [ 
		 68, 40, 38, 36, 35, 66, 64, 62, 69,-1,
		 70, 68, 71, 72,-1,
		 42, 70, 72, 73,-1,
		 74, 42, 73, 75,-1,
		 76, 74, 75, 77,-1,
		 78, 58, 56, 54, 50, 48, 46, 44, 79,-1,
		 80, 78, 77, 81,-1,
		 60, 80, 81, 82,-1,
		 83, 60, 82, 84,-1,
		 85, 83, 84, 71,-1,
		]
	} #IndexedFaceSet
	Material {
		ambientColor      0.1176 0.1176 0.1176  #ambientColor
		diffuseColor      0.4706 0.4706 0.4706  #diffuseColor
		transparency      0.0000                #transparency
	} #Material

	IndexedFaceSet {
		coordIndex [ 
		 84, 82, 81, 77, 75, 73, 72, 71,-1,
		]
	} #IndexedFaceSet
	Material {
		ambientColor      0.0412 0.0412 0.0412  #ambientColor
		diffuseColor      0.1647 0.1647 0.1647  #diffuseColor
		transparency      0.0000                #transparency
	} #Material

	IndexedFaceSet {
		coordIndex [ 
		 86, 31, 16, 17, 18, 87,-1,
		 36, 35, 87, 88,-1,
		 38, 36, 88, 89,-1,
		 40, 38, 89, 19, 90,-1,
		 42, 40, 90, 20, 91,-1,
		 44, 42, 91, 92,-1,
		 46, 44, 92, 21, 93,-1,
		 48, 46, 93, 22, 94,-1,
		 50, 48, 94, 95,-1,
		 96, 23, 24, 25, 26, 97,-1,
		 54, 50, 97, 98,-1,
		 56, 54, 98, 99,-1,
		 58, 56, 99, 27, 100,-1,
		 60, 58, 100, 28, 101,-1,
		 62, 60, 101, 102,-1,
		 64, 62, 102, 29, 103,-1,
		 66, 64, 103, 30, 104,-1,
		 35, 66, 104, 105,-1,
		]
	} #IndexedFaceSet
	Material {
		ambientColor      0.1039 0.1039 0.1039  #ambientColor
		diffuseColor      0.4157 0.4157 0.4157  #diffuseColor
		transparency      0.0000                #transparency
	} #Material

	IndexedFaceSet {
		coordIndex [ 
		 106, 62, 64, 66, 35, 36, 38, 40, 107,-1,
		 72, 71, 107, 108,-1,
		 73, 72, 108, 42,-1,
		 75, 73, 42, 109,-1,
		 77, 75, 109, 110,-1,
		 111, 44, 46, 48, 50, 54, 56, 58, 112,-1,
		 81, 77, 112, 113,-1,
		 82, 81, 113, 60,-1,
		 84, 82, 60, 114,-1,
		 71, 84, 114, 115,-1,
		]
	} #IndexedFaceSet
	Material {
		ambientColor      0.1176 0.1176 0.1176  #ambientColor
		diffuseColor      0.4706 0.4706 0.4706  #diffuseColor
		transparency      0.0000                #transparency
	} #Material

	IndexedFaceSet {
		coordIndex [ 
		 71, 72, 73, 75, 77, 81, 82, 84,-1,
		]
	} #IndexedFaceSet
} #Polyhedron
Separator { #Polyhedron
	DEF COORD5 Coordinate3 {
		point [
		 2.0514 2.3814 -17.1656,
		 1.5328 2.3271 -17.1656,
		 1.0748 2.0808 -17.1656,
		 0.7470 1.6802 -17.1656,
		 0.5994 1.1862 -17.1656,
		 0.6544 0.6740 -17.1656,
		 0.9037 0.2215 -17.1656,
		 1.3093 -0.1023 -17.1656,
		 1.8094 -0.2481 -17.1656,
		 2.3279 -0.1937 -17.1656,
		 2.7860 0.0525 -17.1656,
		 3.1137 0.4531 -17.1656,
		 3.2613 0.9472 -17.1656,
		 3.2063 1.4594 -17.1656,
		 2.9571 1.9118 -17.1656,
		 2.5515 2.2356 -17.1656,
		 2.0514 2.3814 -17.6784,
		 1.5328 2.3271 -17.6784,
		 1.0748 2.0808 -17.6784,
		 0.7470 1.6802 -17.6784,
		 0.5994 1.1862 -17.6784,
		 0.6544 0.6740 -17.6784,
		 0.9037 0.2215 -17.6784,
		 1.3093 -0.1023 -17.6784,
		 1.8094 -0.2481 -17.6784,
		 2.3279 -0.1937 -17.6784,
		 2.7860 0.0525 -17.6784,
		 3.1137 0.4531 -17.6784,
		 3.2613 0.9472 -17.6784,
		 3.2063 1.4594 -17.6784,
		 2.9571 1.9118 -17.6784,
		 2.5515 2.2356 -17.6784,
		 1.0429 0.1104 -17.6784,
		 2.8333 0.1104 -17.6784,
		 2.3009 0.1832 -17.6784,
		 1.9304 0.1104 -17.6784,
		 2.8929 0.1832 -17.6784,
		 2.6149 0.3905 -17.6784,
		 3.0625 0.3905 -17.6784,
		 2.8248 0.7007 -17.6784,
		 3.1877 0.7007 -17.6784,
		 2.8985 1.0667 -17.6784,
		 3.2485 1.0667 -17.6784,
		 2.8248 1.4326 -17.6784,
		 3.2092 1.4326 -17.6784,
		 2.6149 1.7429 -17.6784,
		 3.0501 1.7429 -17.6784,
		 2.3009 1.9502 -17.6784,
		 2.9090 1.9502 -17.6784,
		 1.9304 2.0230 -17.6784,
		 2.8178 2.0230 -17.6784,
		 2.8178 2.0230 -17.6784,
		 1.0275 2.0230 -17.6784,
		 1.5599 1.9502 -17.6784,
		 0.9679 1.9502 -17.6784,
		 1.2458 1.7429 -17.6784,
		 0.7983 1.7429 -17.6784,
		 1.0360 1.4326 -17.6784,
		 0.6731 1.4326 -17.6784,
		 0.9623 1.0667 -17.6784,
		 0.6123 1.0667 -17.6784,
		 1.0360 0.7007 -17.6784,
		 0.6516 0.7007 -17.6784,
		 1.2458 0.3905 -17.6784,
		 0.8106 0.3905 -17.6784,
		 1.5599 0.1832 -17.6784,
		 0.9517 0.1832 -17.6784,
		 1.0429 0.1104 -17.6784,
		 1.0104 0.8277 -17.6784,
		 2.8503 0.8277 -17.6784,
		 2.1015 0.8977 -17.6784,
		 1.9304 0.8277 -17.6784,
		 2.8644 0.8977 -17.6784,
		 2.1724 1.0667 -17.6784,
		 2.1015 1.2357 -17.6784,
		 2.8644 1.2357 -17.6784,
		 1.9304 1.3057 -17.6784,
		 2.8503 1.3057 -17.6784,
		 2.8503 1.3057 -17.6784,
		 1.0104 1.3057 -17.6784,
		 1.7593 1.2357 -17.6784,
		 0.9963 1.2357 -17.6784,
		 1.6884 1.0667 -17.6784,
		 1.7593 0.8977 -17.6784,
		 0.9963 0.8977 -17.6784,
		 1.0104 0.8277 -17.6784,
		 2.8333 0.1104 -17.6784,
		 1.0429 0.1104 -17.6784,
		 2.8929 0.1832 -17.6784,
		 3.0625 0.3905 -17.6784,
		 3.1877 0.7007 -17.6784,
		 3.2485 1.0667 -17.6784,
		 3.2092 1.4326 -17.6784,
		 3.0501 1.7429 -17.6784,
		 2.9090 1.9502 -17.6784,
		 2.8178 2.0230 -17.6784,
		 1.0275 2.0230 -17.6784,
		 2.8178 2.0230 -17.6784,
		 0.9679 1.9502 -17.6784,
		 0.7983 1.7429 -17.6784,
		 0.6731 1.4326 -17.6784,
		 0.6123 1.0667 -17.6784,
		 0.6516 0.7007 -17.6784,
		 0.8106 0.3905 -17.6784,
		 0.9517 0.1832 -17.6784,
		 1.0429 0.1104 -17.6784,
		 2.8503 0.8277 -17.6784,
		 1.0104 0.8277 -17.6784,
		 2.8644 0.8977 -17.6784,
		 2.8644 1.2357 -17.6784,
		 2.8503 1.3057 -17.6784,
		 1.0104 1.3057 -17.6784,
		 2.8503 1.3057 -17.6784,
		 0.9963 1.2357 -17.6784,
		 0.9963 0.8977 -17.6784,
		 1.0104 0.8277 -17.6784
		]
	} #Coordinate3
	Material {
		ambientColor      0.0412 0.0412 0.0412  #ambientColor
		diffuseColor      0.1647 0.1647 0.1647  #diffuseColor
		transparency      0.0000                #transparency
	} #Material

	IndexedFaceSet {
		coordIndex [ 
		 15, 14, 13, 12, 11, 10, 9, 8, 7, 6, 5, 4, 3, 2, 1, 0,-1,
		 0, 1, 2, 3, 4, 5, 6, 7, 8, 9, 10, 11, 12, 13, 14, 15,-1,
		 16, 31, 15, 0,-1,
		 0, 15, 31, 16,-1,
		 17, 16, 0, 1,-1,
		 1, 0, 16, 17,-1,
		 18, 17, 1, 2,-1,
		 2, 1, 17, 18,-1,
		 19, 18, 2, 3,-1,
		 3, 2, 18, 19,-1,
		 20, 19, 3, 4,-1,
		 4, 3, 19, 20,-1,
		 21, 20, 4, 5,-1,
		 5, 4, 20, 21,-1,
		 22, 21, 5, 6,-1,
		 6, 5, 21, 22,-1,
		 23, 22, 6, 7,-1,
		 7, 6, 22, 23,-1,
		 24, 23, 7, 8,-1,
		 8, 7, 23, 24,-1,
		 25, 24, 8, 9,-1,
		 9, 8, 24, 25,-1,
		 26, 25, 9, 10,-1,
		 10, 9, 25, 26,-1,
		 27, 26, 10, 11,-1,
		 11, 10, 26, 27,-1,
		 28, 27, 11, 12,-1,
		 12, 11, 27, 28,-1,
		 29, 28, 12, 13,-1,
		 13, 12, 28, 29,-1,
		 30, 29, 13, 14,-1,
		 14, 13, 29, 30,-1,
		 31, 30, 14, 15,-1,
		 15, 14, 30, 31,-1,
		 32, 23, 24, 25, 26, 33,-1,
		 34, 35, 33, 36,-1,
		 37, 34, 36, 38,-1,
		 39, 37, 38, 27, 40,-1,
		 41, 39, 40, 28, 42,-1,
		 43, 41, 42, 44,-1,
		 45, 43, 44, 29, 46,-1,
		 47, 45, 46, 30, 48,-1,
		 49, 47, 48, 50,-1,
		 51, 31, 16, 17, 18, 52,-1,
		 53, 49, 52, 54,-1,
		 55, 53, 54, 56,-1,
		 57, 55, 56, 19, 58,-1,
		 59, 57, 58, 20, 60,-1,
		 61, 59, 60, 62,-1,
		 63, 61, 62, 21, 64,-1,
		 65, 63, 64, 22, 66,-1,
		 35, 65, 66, 67,-1,
		]
	} #IndexedFaceSet
	Material {
		ambientColor      0.1039 0.1039 0.1039  #ambientColor
		diffuseColor      0.4157 0.4157 0.4157  #diffuseColor
		transparency      0.0000                #transparency
	} #Material

	IndexedFaceSet {
		coordIndex [ 
		 68, 61, 63, 65, 35, 34, 37, 39, 69,-1,
		 70, 71, 69, 72,-1,
		 73, 70, 72, 41,-1,
		 74, 73, 41, 75,-1,
		 76, 74, 75, 77,-1,
		 78, 43, 45, 47, 49, 53, 55, 57, 79,-1,
		 80, 76, 79, 81,-1,
		 82, 80, 81, 59,-1,
		 83, 82, 59, 84,-1,
		 71, 83, 84, 85,-1,
		]
	} #IndexedFaceSet
	Material {
		ambientColor      0.1176 0.1176 0.1176  #ambientColor
		diffuseColor      0.4706 0.4706 0.4706  #diffuseColor
		transparency      0.0000                #transparency
	} #Material

	IndexedFaceSet {
		coordIndex [ 
		 76, 80, 82, 83, 71, 70, 73, 74,-1,
		]
	} #IndexedFaceSet
	Material {
		ambientColor      0.0412 0.0412 0.0412  #ambientColor
		diffuseColor      0.1647 0.1647 0.1647  #diffuseColor
		transparency      0.0000                #transparency
	} #Material

	IndexedFaceSet {
		coordIndex [ 
		 86, 26, 25, 24, 23, 87,-1,
		 88, 86, 35, 34,-1,
		 89, 88, 34, 37,-1,
		 90, 27, 89, 37, 39,-1,
		 91, 28, 90, 39, 41,-1,
		 92, 91, 41, 43,-1,
		 93, 29, 92, 43, 45,-1,
		 94, 30, 93, 45, 47,-1,
		 95, 94, 47, 49,-1,
		 96, 18, 17, 16, 31, 97,-1,
		 98, 96, 49, 53,-1,
		 99, 98, 53, 55,-1,
		 100, 19, 99, 55, 57,-1,
		 101, 20, 100, 57, 59,-1,
		 102, 101, 59, 61,-1,
		 103, 21, 102, 61, 63,-1,
		 104, 22, 103, 63, 65,-1,
		 105, 104, 65, 35,-1,
		]
	} #IndexedFaceSet
	Material {
		ambientColor      0.1039 0.1039 0.1039  #ambientColor
		diffuseColor      0.4157 0.4157 0.4157  #diffuseColor
		transparency      0.0000                #transparency
	} #Material

	IndexedFaceSet {
		coordIndex [ 
		 106, 39, 37, 34, 35, 65, 63, 61, 107,-1,
		 108, 106, 71, 70,-1,
		 41, 108, 70, 73,-1,
		 109, 41, 73, 74,-1,
		 110, 109, 74, 76,-1,
		 111, 57, 55, 53, 49, 47, 45, 43, 112,-1,
		 113, 111, 76, 80,-1,
		 59, 113, 80, 82,-1,
		 114, 59, 82, 83,-1,
		 115, 114, 83, 71,-1,
		]
	} #IndexedFaceSet
	Material {
		ambientColor      0.1176 0.1176 0.1176  #ambientColor
		diffuseColor      0.4706 0.4706 0.4706  #diffuseColor
		transparency      0.0000                #transparency
	} #Material

	IndexedFaceSet {
		coordIndex [ 
		 74, 73, 70, 71, 83, 82, 80, 76,-1,
		]
	} #IndexedFaceSet
} #Polyhedron
Separator { #Polyhedron
	DEF COORD6 Coordinate3 {
		point [
		 1.5674 1.3057 -17.1656,
		 1.5674 0.7081 -17.1656,
		 2.4144 0.7081 -17.1656,
		 2.4144 1.3057 -17.1656,
		 1.5674 1.3057 -15.9999,
		 1.5674 0.7081 -15.9999,
		 2.4144 0.7081 -15.9999,
		 2.4144 1.3057 -15.9999
		]
	} #Coordinate3
	Material {
		ambientColor      0.2088 0.0000 0.0000  #ambientColor
		diffuseColor      0.8353 0.0000 0.0000  #diffuseColor
		transparency      0.0000                #transparency
	} #Material

	IndexedFaceSet {
		coordIndex [ 
		 0, 1, 2, 3,-1,
		 3, 2, 1, 0,-1,
		 0, 3, 7, 4,-1,
		 4, 7, 3, 0,-1,
		 1, 0, 4, 5,-1,
		 5, 4, 0, 1,-1,
		 2, 1, 5, 6,-1,
		 6, 5, 1, 2,-1,
		 3, 2, 6, 7,-1,
		 7, 6, 2, 3,-1,
		 7, 6, 5, 4,-1,
		 4, 5, 6, 7,-1,
		]
	} #IndexedFaceSet
} #Polyhedron
Separator { #Polyhedron
	DEF COORD7 Coordinate3 {
		point [
		 -2.6880 0.9471 -16.0465,
		 -2.4287 0.9224 -16.0465,
		 -2.1997 0.8105 -16.0465,
		 -2.0358 0.6284 -16.0465,
		 -1.9620 0.4038 -16.0465,
		 -1.9895 0.1710 -16.0465,
		 -2.1142 -0.0347 -16.0465,
		 -2.3170 -0.1819 -16.0465,
		 -2.5670 -0.2481 -16.0465,
		 -2.8263 -0.2234 -16.0465,
		 -3.0554 -0.1115 -16.0465,
		 -3.2193 0.0706 -16.0465,
		 -3.2931 0.2952 -16.0465,
		 -3.2656 0.5280 -16.0465,
		 -3.1409 0.7337 -16.0465,
		 -2.9381 0.8809 -16.0465,
		 -2.6880 0.9471 -15.6269,
		 -2.4287 0.9224 -15.6269,
		 -2.1997 0.8105 -15.6269,
		 -2.0358 0.6284 -15.6269,
		 -1.9620 0.4038 -15.6269,
		 -1.9895 0.1710 -15.6269,
		 -2.1142 -0.0347 -15.6269,
		 -2.3170 -0.1819 -15.6269,
		 -2.5670 -0.2481 -15.6269,
		 -2.8263 -0.2234 -15.6269,
		 -3.0554 -0.1115 -15.6269,
		 -3.2193 0.0706 -15.6269,
		 -3.2931 0.2952 -15.6269,
		 -3.2656 0.5280 -15.6269,
		 -3.1409 0.7337 -15.6269,
		 -2.9381 0.8809 -15.6269,
		 -3.0713 0.7842 -15.6269,
		 -2.1760 0.7842 -15.6269,
		 -3.1169 0.7511 -15.6269,
		 -2.6275 0.7842 -15.6269,
		 -2.8128 0.7511 -15.6269,
		 -3.1875 0.6569 -15.6269,
		 -2.9698 0.6569 -15.6269,
		 -3.2670 0.5159 -15.6269,
		 -3.0748 0.5159 -15.6269,
		 -3.2867 0.3495 -15.6269,
		 -3.1116 0.3495 -15.6269,
		 -3.2563 0.1832 -15.6269,
		 -3.0748 0.1832 -15.6269,
		 -3.1936 0.0421 -15.6269,
		 -2.9698 0.0421 -15.6269,
		 -3.1088 -0.0521 -15.6269,
		 -2.8128 -0.0521 -15.6269,
		 -3.0791 -0.0852 -15.6269,
		 -2.6275 -0.0852 -15.6269,
		 -2.1838 -0.0852 -15.6269,
		 -3.0791 -0.0852 -15.6269,
		 -2.1382 -0.0521 -15.6269,
		 -2.4423 -0.0521 -15.6269,
		 -2.0676 0.0421 -15.6269,
		 -2.2852 0.0421 -15.6269,
		 -1.9881 0.1832 -15.6269,
		 -2.1803 0.1832 -15.6269,
		 -1.9684 0.3495 -15.6269,
		 -2.1435 0.3495 -15.6269,
		 -1.9988 0.5159 -15.6269,
		 -2.1803 0.5159 -15.6269,
		 -2.0615 0.6569 -15.6269,
		 -2.2852 0.6569 -15.6269,
		 -2.1463 0.7511 -15.6269,
		 -2.4423 0.7511 -15.6269,
		 -2.1760 0.7842 -15.6269,
		 -3.0876 0.4582 -15.6269,
		 -2.1675 0.4582 -15.6269,
		 -3.0946 0.4263 -15.6269,
		 -2.6275 0.4582 -15.6269,
		 -2.7131 0.4263 -15.6269,
		 -2.7486 0.3495 -15.6269,
		 -3.0946 0.2727 -15.6269,
		 -2.7131 0.2727 -15.6269,
		 -3.0876 0.2409 -15.6269,
		 -2.6275 0.2409 -15.6269,
		 -2.1675 0.2409 -15.6269,
		 -3.0876 0.2409 -15.6269,
		 -2.1605 0.2727 -15.6269,
		 -2.5420 0.2727 -15.6269,
		 -2.5065 0.3495 -15.6269,
		 -2.1605 0.4263 -15.6269,
		 -2.5420 0.4263 -15.6269,
		 -2.1675 0.4582 -15.6269,
		 -2.1760 0.7842 -15.6269,
		 -3.0713 0.7842 -15.6269,
		 -3.1169 0.7511 -15.6269,
		 -3.1875 0.6569 -15.6269,
		 -3.2670 0.5159 -15.6269,
		 -3.2867 0.3495 -15.6269,
		 -3.2563 0.1832 -15.6269,
		 -3.1936 0.0421 -15.6269,
		 -3.1088 -0.0521 -15.6269,
		 -3.0791 -0.0852 -15.6269,
		 -3.0791 -0.0852 -15.6269,
		 -2.1838 -0.0852 -15.6269,
		 -2.1382 -0.0521 -15.6269,
		 -2.0676 0.0421 -15.6269,
		 -1.9881 0.1832 -15.6269,
		 -1.9684 0.3495 -15.6269,
		 -1.9988 0.5159 -15.6269,
		 -2.0615 0.6569 -15.6269,
		 -2.1463 0.7511 -15.6269,
		 -2.1760 0.7842 -15.6269,
		 -2.1675 0.4582 -15.6269,
		 -3.0876 0.4582 -15.6269,
		 -3.0946 0.4263 -15.6269,
		 -3.0946 0.2727 -15.6269,
		 -3.0876 0.2409 -15.6269,
		 -3.0876 0.2409 -15.6269,
		 -2.1675 0.2409 -15.6269,
		 -2.1605 0.2727 -15.6269,
		 -2.1605 0.4263 -15.6269,
		 -2.1675 0.4582 -15.6269
		]
	} #Coordinate3
	Material {
		ambientColor      0.0412 0.0412 0.0412  #ambientColor
		diffuseColor      0.1647 0.1647 0.1647  #diffuseColor
		transparency      0.0000                #transparency
	} #Material

	IndexedFaceSet {
		coordIndex [ 
		 15, 14, 13, 12, 11, 10, 9, 8, 7, 6, 5, 4, 3, 2, 1, 0,-1,
		 0, 1, 2, 3, 4, 5, 6, 7, 8, 9, 10, 11, 12, 13, 14, 15,-1,
		 16, 31, 15, 0,-1,
		 0, 15, 31, 16,-1,
		 17, 16, 0, 1,-1,
		 1, 0, 16, 17,-1,
		 18, 17, 1, 2,-1,
		 2, 1, 17, 18,-1,
		 19, 18, 2, 3,-1,
		 3, 2, 18, 19,-1,
		 20, 19, 3, 4,-1,
		 4, 3, 19, 20,-1,
		 21, 20, 4, 5,-1,
		 5, 4, 20, 21,-1,
		 22, 21, 5, 6,-1,
		 6, 5, 21, 22,-1,
		 23, 22, 6, 7,-1,
		 7, 6, 22, 23,-1,
		 24, 23, 7, 8,-1,
		 8, 7, 23, 24,-1,
		 25, 24, 8, 9,-1,
		 9, 8, 24, 25,-1,
		 26, 25, 9, 10,-1,
		 10, 9, 25, 26,-1,
		 27, 26, 10, 11,-1,
		 11, 10, 26, 27,-1,
		 28, 27, 11, 12,-1,
		 12, 11, 27, 28,-1,
		 29, 28, 12, 13,-1,
		 13, 12, 28, 29,-1,
		 30, 29, 13, 14,-1,
		 14, 13, 29, 30,-1,
		 31, 30, 14, 15,-1,
		 15, 14, 30, 31,-1,
		 32, 31, 16, 17, 18, 33,-1,
		 34, 32, 35, 36,-1,
		 37, 30, 34, 36, 38,-1,
		 39, 29, 37, 38, 40,-1,
		 41, 39, 40, 42,-1,
		 43, 28, 41, 42, 44,-1,
		 45, 27, 43, 44, 46,-1,
		 47, 45, 46, 48,-1,
		 49, 47, 48, 50,-1,
		 51, 23, 24, 25, 26, 52,-1,
		 53, 51, 50, 54,-1,
		 55, 22, 53, 54, 56,-1,
		 57, 21, 55, 56, 58,-1,
		 59, 57, 58, 60,-1,
		 61, 20, 59, 60, 62,-1,
		 63, 19, 61, 62, 64,-1,
		 65, 63, 64, 66,-1,
		 67, 65, 66, 35,-1,
		]
	} #IndexedFaceSet
	Material {
		ambientColor      0.1039 0.1039 0.1039  #ambientColor
		diffuseColor      0.4157 0.4157 0.4157  #diffuseColor
		transparency      0.0000                #transparency
	} #Material

	IndexedFaceSet {
		coordIndex [ 
		 68, 40, 38, 36, 35, 66, 64, 62, 69,-1,
		 70, 68, 71, 72,-1,
		 42, 70, 72, 73,-1,
		 74, 42, 73, 75,-1,
		 76, 74, 75, 77,-1,
		 78, 58, 56, 54, 50, 48, 46, 44, 79,-1,
		 80, 78, 77, 81,-1,
		 60, 80, 81, 82,-1,
		 83, 60, 82, 84,-1,
		 85, 83, 84, 71,-1,
		]
	} #IndexedFaceSet
	Material {
		ambientColor      0.1176 0.1176 0.1176  #ambientColor
		diffuseColor      0.4706 0.4706 0.4706  #diffuseColor
		transparency      0.0000                #transparency
	} #Material

	IndexedFaceSet {
		coordIndex [ 
		 71, 84, 82, 81, 77, 75, 73, 72,-1,
		]
	} #IndexedFaceSet
	Material {
		ambientColor      0.0412 0.0412 0.0412  #ambientColor
		diffuseColor      0.1647 0.1647 0.1647  #diffuseColor
		transparency      0.0000                #transparency
	} #Material

	IndexedFaceSet {
		coordIndex [ 
		 86, 18, 17, 16, 31, 87,-1,
		 36, 35, 87, 88,-1,
		 38, 36, 88, 30, 89,-1,
		 40, 38, 89, 29, 90,-1,
		 42, 40, 90, 91,-1,
		 44, 42, 91, 28, 92,-1,
		 46, 44, 92, 27, 93,-1,
		 48, 46, 93, 94,-1,
		 50, 48, 94, 95,-1,
		 96, 26, 25, 24, 23, 97,-1,
		 54, 50, 97, 98,-1,
		 56, 54, 98, 22, 99,-1,
		 58, 56, 99, 21, 100,-1,
		 60, 58, 100, 101,-1,
		 62, 60, 101, 20, 102,-1,
		 64, 62, 102, 19, 103,-1,
		 66, 64, 103, 104,-1,
		 35, 66, 104, 105,-1,
		]
	} #IndexedFaceSet
	Material {
		ambientColor      0.1039 0.1039 0.1039  #ambientColor
		diffuseColor      0.4157 0.4157 0.4157  #diffuseColor
		transparency      0.0000                #transparency
	} #Material

	IndexedFaceSet {
		coordIndex [ 
		 106, 62, 64, 66, 35, 36, 38, 40, 107,-1,
		 72, 71, 107, 108,-1,
		 73, 72, 108, 42,-1,
		 75, 73, 42, 109,-1,
		 77, 75, 109, 110,-1,
		 111, 44, 46, 48, 50, 54, 56, 58, 112,-1,
		 81, 77, 112, 113,-1,
		 82, 81, 113, 60,-1,
		 84, 82, 60, 114,-1,
		 71, 84, 114, 115,-1,
		]
	} #IndexedFaceSet
	Material {
		ambientColor      0.1176 0.1176 0.1176  #ambientColor
		diffuseColor      0.4706 0.4706 0.4706  #diffuseColor
		transparency      0.0000                #transparency
	} #Material

	IndexedFaceSet {
		coordIndex [ 
		 72, 73, 75, 77, 81, 82, 84, 71,-1,
		]
	} #IndexedFaceSet
} #Polyhedron
Separator { #Polyhedron
	DEF COORD8 Coordinate3 {
		point [
		 -2.6880 0.9471 -17.1190,
		 -2.4287 0.9224 -17.1190,
		 -2.1997 0.8105 -17.1190,
		 -2.0358 0.6284 -17.1190,
		 -1.9620 0.4038 -17.1190,
		 -1.9895 0.1710 -17.1190,
		 -2.1142 -0.0347 -17.1190,
		 -2.3170 -0.1819 -17.1190,
		 -2.5670 -0.2481 -17.1190,
		 -2.8263 -0.2234 -17.1190,
		 -3.0554 -0.1115 -17.1190,
		 -3.2193 0.0706 -17.1190,
		 -3.2931 0.2952 -17.1190,
		 -3.2656 0.5280 -17.1190,
		 -3.1409 0.7337 -17.1190,
		 -2.9381 0.8809 -17.1190,
		 -2.6880 0.9471 -17.5385,
		 -2.4287 0.9224 -17.5385,
		 -2.1997 0.8105 -17.5385,
		 -2.0358 0.6284 -17.5385,
		 -1.9620 0.4038 -17.5385,
		 -1.9895 0.1710 -17.5385,
		 -2.1142 -0.0347 -17.5385,
		 -2.3170 -0.1819 -17.5385,
		 -2.5670 -0.2481 -17.5385,
		 -2.8263 -0.2234 -17.5385,
		 -3.0554 -0.1115 -17.5385,
		 -3.2193 0.0706 -17.5385,
		 -3.2931 0.2952 -17.5385,
		 -3.2656 0.5280 -17.5385,
		 -3.1409 0.7337 -17.5385,
		 -2.9381 0.8809 -17.5385,
		 -3.0791 -0.0852 -17.5385,
		 -2.1838 -0.0852 -17.5385,
		 -2.4423 -0.0521 -17.5385,
		 -2.6275 -0.0852 -17.5385,
		 -2.1382 -0.0521 -17.5385,
		 -2.2852 0.0421 -17.5385,
		 -2.0676 0.0421 -17.5385,
		 -2.1803 0.1832 -17.5385,
		 -1.9881 0.1832 -17.5385,
		 -2.1435 0.3495 -17.5385,
		 -1.9684 0.3495 -17.5385,
		 -2.1803 0.5159 -17.5385,
		 -1.9988 0.5159 -17.5385,
		 -2.2852 0.6569 -17.5385,
		 -2.0615 0.6569 -17.5385,
		 -2.4423 0.7511 -17.5385,
		 -2.1463 0.7511 -17.5385,
		 -2.6275 0.7842 -17.5385,
		 -2.1760 0.7842 -17.5385,
		 -2.1760 0.7842 -17.5385,
		 -3.0713 0.7842 -17.5385,
		 -2.8128 0.7511 -17.5385,
		 -3.1169 0.7511 -17.5385,
		 -2.9698 0.6569 -17.5385,
		 -3.1875 0.6569 -17.5385,
		 -3.0748 0.5159 -17.5385,
		 -3.2670 0.5159 -17.5385,
		 -3.1116 0.3495 -17.5385,
		 -3.2867 0.3495 -17.5385,
		 -3.0748 0.1832 -17.5385,
		 -3.2563 0.1832 -17.5385,
		 -2.9698 0.0421 -17.5385,
		 -3.1937 0.0421 -17.5385,
		 -2.8128 -0.0521 -17.5385,
		 -3.1088 -0.0521 -17.5385,
		 -3.0791 -0.0852 -17.5385,
		 -3.0876 0.2408 -17.5385,
		 -2.1675 0.2408 -17.5385,
		 -2.5420 0.2727 -17.5385,
		 -2.6275 0.2408 -17.5385,
		 -2.1605 0.2727 -17.5385,
		 -2.5065 0.3495 -17.5385,
		 -2.5420 0.4263 -17.5385,
		 -2.1605 0.4263 -17.5385,
		 -2.6275 0.4582 -17.5385,
		 -2.1675 0.4582 -17.5385,
		 -2.1675 0.4582 -17.5385,
		 -3.0876 0.4582 -17.5385,
		 -2.7131 0.4263 -17.5385,
		 -3.0946 0.4263 -17.5385,
		 -2.7486 0.3495 -17.5385,
		 -2.7131 0.2727 -17.5385,
		 -3.0946 0.2727 -17.5385,
		 -3.0876 0.2408 -17.5385,
		 -2.1838 -0.0852 -17.5385,
		 -3.0791 -0.0852 -17.5385,
		 -2.1382 -0.0521 -17.5385,
		 -2.0676 0.0421 -17.5385,
		 -1.9881 0.1832 -17.5385,
		 -1.9684 0.3495 -17.5385,
		 -1.9988 0.5159 -17.5385,
		 -2.0615 0.6569 -17.5385,
		 -2.1463 0.7511 -17.5385,
		 -2.1760 0.7842 -17.5385,
		 -3.0713 0.7842 -17.5385,
		 -2.1760 0.7842 -17.5385,
		 -3.1169 0.7511 -17.5385,
		 -3.1875 0.6569 -17.5385,
		 -3.2670 0.5159 -17.5385,
		 -3.2867 0.3495 -17.5385,
		 -3.2563 0.1832 -17.5385,
		 -3.1937 0.0421 -17.5385,
		 -3.1088 -0.0521 -17.5385,
		 -3.0791 -0.0852 -17.5385,
		 -2.1675 0.2408 -17.5385,
		 -3.0876 0.2408 -17.5385,
		 -2.1605 0.2727 -17.5385,
		 -2.1605 0.4263 -17.5385,
		 -2.1675 0.4582 -17.5385,
		 -3.0876 0.4582 -17.5385,
		 -2.1675 0.4582 -17.5385,
		 -3.0946 0.4263 -17.5385,
		 -3.0946 0.2727 -17.5385,
		 -3.0876 0.2408 -17.5385
		]
	} #Coordinate3
	Material {
		ambientColor      0.0412 0.0412 0.0412  #ambientColor
		diffuseColor      0.1647 0.1647 0.1647  #diffuseColor
		transparency      0.0000                #transparency
	} #Material

	IndexedFaceSet {
		coordIndex [ 
		 0, 1, 2, 3, 4, 5, 6, 7, 8, 9, 10, 11, 12, 13, 14, 15,-1,
		 15, 14, 13, 12, 11, 10, 9, 8, 7, 6, 5, 4, 3, 2, 1, 0,-1,
		 0, 15, 31, 16,-1,
		 16, 31, 15, 0,-1,
		 1, 0, 16, 17,-1,
		 17, 16, 0, 1,-1,
		 2, 1, 17, 18,-1,
		 18, 17, 1, 2,-1,
		 3, 2, 18, 19,-1,
		 19, 18, 2, 3,-1,
		 4, 3, 19, 20,-1,
		 20, 19, 3, 4,-1,
		 5, 4, 20, 21,-1,
		 21, 20, 4, 5,-1,
		 6, 5, 21, 22,-1,
		 22, 21, 5, 6,-1,
		 7, 6, 22, 23,-1,
		 23, 22, 6, 7,-1,
		 8, 7, 23, 24,-1,
		 24, 23, 7, 8,-1,
		 9, 8, 24, 25,-1,
		 25, 24, 8, 9,-1,
		 10, 9, 25, 26,-1,
		 26, 25, 9, 10,-1,
		 11, 10, 26, 27,-1,
		 27, 26, 10, 11,-1,
		 12, 11, 27, 28,-1,
		 28, 27, 11, 12,-1,
		 13, 12, 28, 29,-1,
		 29, 28, 12, 13,-1,
		 14, 13, 29, 30,-1,
		 30, 29, 13, 14,-1,
		 15, 14, 30, 31,-1,
		 31, 30, 14, 15,-1,
		 32, 26, 25, 24, 23, 33,-1,
		 34, 35, 33, 36,-1,
		 37, 34, 36, 22, 38,-1,
		 39, 37, 38, 21, 40,-1,
		 41, 39, 40, 42,-1,
		 43, 41, 42, 20, 44,-1,
		 45, 43, 44, 19, 46,-1,
		 47, 45, 46, 48,-1,
		 49, 47, 48, 50,-1,
		 51, 18, 17, 16, 31, 52,-1,
		 53, 49, 52, 54,-1,
		 55, 53, 54, 30, 56,-1,
		 57, 55, 56, 29, 58,-1,
		 59, 57, 58, 60,-1,
		 61, 59, 60, 28, 62,-1,
		 63, 61, 62, 27, 64,-1,
		 65, 63, 64, 66,-1,
		 35, 65, 66, 67,-1,
		]
	} #IndexedFaceSet
	Material {
		ambientColor      0.1039 0.1039 0.1039  #ambientColor
		diffuseColor      0.4157 0.4157 0.4157  #diffuseColor
		transparency      0.0000                #transparency
	} #Material

	IndexedFaceSet {
		coordIndex [ 
		 68, 61, 63, 65, 35, 34, 37, 39, 69,-1,
		 70, 71, 69, 72,-1,
		 73, 70, 72, 41,-1,
		 74, 73, 41, 75,-1,
		 76, 74, 75, 77,-1,
		 78, 43, 45, 47, 49, 53, 55, 57, 79,-1,
		 80, 76, 79, 81,-1,
		 82, 80, 81, 59,-1,
		 83, 82, 59, 84,-1,
		 71, 83, 84, 85,-1,
		]
	} #IndexedFaceSet
	Material {
		ambientColor      0.1176 0.1176 0.1176  #ambientColor
		diffuseColor      0.4706 0.4706 0.4706  #diffuseColor
		transparency      0.0000                #transparency
	} #Material

	IndexedFaceSet {
		coordIndex [ 
		 80, 82, 83, 71, 70, 73, 74, 76,-1,
		]
	} #IndexedFaceSet
	Material {
		ambientColor      0.0412 0.0412 0.0412  #ambientColor
		diffuseColor      0.1647 0.1647 0.1647  #diffuseColor
		transparency      0.0000                #transparency
	} #Material

	IndexedFaceSet {
		coordIndex [ 
		 86, 23, 24, 25, 26, 87,-1,
		 88, 86, 35, 34,-1,
		 89, 22, 88, 34, 37,-1,
		 90, 21, 89, 37, 39,-1,
		 91, 90, 39, 41,-1,
		 92, 20, 91, 41, 43,-1,
		 93, 19, 92, 43, 45,-1,
		 94, 93, 45, 47,-1,
		 95, 94, 47, 49,-1,
		 96, 31, 16, 17, 18, 97,-1,
		 98, 96, 49, 53,-1,
		 99, 30, 98, 53, 55,-1,
		 100, 29, 99, 55, 57,-1,
		 101, 100, 57, 59,-1,
		 102, 28, 101, 59, 61,-1,
		 103, 27, 102, 61, 63,-1,
		 104, 103, 63, 65,-1,
		 105, 104, 65, 35,-1,
		]
	} #IndexedFaceSet
	Material {
		ambientColor      0.1039 0.1039 0.1039  #ambientColor
		diffuseColor      0.4157 0.4157 0.4157  #diffuseColor
		transparency      0.0000                #transparency
	} #Material

	IndexedFaceSet {
		coordIndex [ 
		 106, 39, 37, 34, 35, 65, 63, 61, 107,-1,
		 108, 106, 71, 70,-1,
		 41, 108, 70, 73,-1,
		 109, 41, 73, 74,-1,
		 110, 109, 74, 76,-1,
		 111, 57, 55, 53, 49, 47, 45, 43, 112,-1,
		 113, 111, 76, 80,-1,
		 59, 113, 80, 82,-1,
		 114, 59, 82, 83,-1,
		 115, 114, 83, 71,-1,
		]
	} #IndexedFaceSet
	Material {
		ambientColor      0.1176 0.1176 0.1176  #ambientColor
		diffuseColor      0.4706 0.4706 0.4706  #diffuseColor
		transparency      0.0000                #transparency
	} #Material

	IndexedFaceSet {
		coordIndex [ 
		 76, 74, 73, 70, 71, 83, 82, 80,-1,
		]
	} #IndexedFaceSet
} #Polyhedron
Separator { #Polyhedron
	DEF COORD9 Coordinate3 {
		point [
		 -2.7889 0.5885 -17.1189,
		 -2.7889 0.1105 -17.1189,
		 -2.4259 0.1105 -17.1189,
		 -2.4259 0.5885 -17.1189,
		 -2.7889 0.5885 -16.0465,
		 -2.7889 0.1105 -16.0465,
		 -2.4259 0.1105 -16.0465,
		 -2.4259 0.5885 -16.0465
		]
	} #Coordinate3
	Material {
		ambientColor      0.2088 0.0000 0.0000  #ambientColor
		diffuseColor      0.8353 0.0000 0.0000  #diffuseColor
		transparency      0.0000                #transparency
	} #Material

	IndexedFaceSet {
		coordIndex [ 
		 0, 1, 2, 3,-1,
		 3, 2, 1, 0,-1,
		 0, 3, 7, 4,-1,
		 4, 7, 3, 0,-1,
		 1, 0, 4, 5,-1,
		 5, 4, 0, 1,-1,
		 2, 1, 5, 6,-1,
		 6, 5, 1, 2,-1,
		 3, 2, 6, 7,-1,
		 7, 6, 2, 3,-1,
		 7, 6, 5, 4,-1,
		 4, 5, 6, 7,-1,
		]
	} #IndexedFaceSet
} #Polyhedron
Separator { #Polyhedron
	DEF COORD10 Coordinate3 {
		point [
		 1.4483 2.0404 -16.3065,
		 0.9080 2.0404 -16.3065,
		 0.9080 2.0404 -16.8663,
		 1.4483 2.0404 -16.8663,
		 1.4483 1.9864 -16.3065,
		 0.9080 1.9864 -16.3065,
		 0.9080 1.9864 -16.8663,
		 1.4483 1.9864 -16.8663,
		 1.4048 2.0404 -16.8663,
		 1.4483 2.0404 -16.8060,
		 1.4483 1.9864 -16.8060,
		 1.4048 1.9864 -16.8663,
		 1.3919 2.0404 -16.3065,
		 1.4483 2.0404 -16.3611,
		 1.4483 1.9864 -16.3611,
		 1.3919 1.9864 -16.3065,
		 0.9645 2.0404 -16.3065,
		 0.9080 2.0404 -16.3681,
		 0.9645 1.9864 -16.3065,
		 0.9080 1.9864 -16.3681,
		 0.9080 2.0404 -16.8290,
		 0.9556 2.0404 -16.8663,
		 0.9080 1.9864 -16.8290,
		 0.9556 1.9864 -16.8663,
		 1.4483 1.9864 -16.6150,
		 0.9080 1.9864 -16.6150,
		 1.4483 1.9864 -16.5959,
		 1.2252 1.9864 -16.6150,
		 1.2506 1.9864 -16.5959,
		 1.4483 1.9864 -16.5642,
		 1.2442 1.9864 -16.5642,
		 0.9080 1.9864 -16.5642,
		 1.4483 1.9864 -16.5642,
		 0.9080 1.9864 -16.5959,
		 1.2125 1.9864 -16.5642,
		 1.1998 1.9864 -16.5959,
		 0.9080 1.9864 -16.6150
		]
	} #Coordinate3
	Material {
		ambientColor      0.2500 0.0549 0.0549  #ambientColor
		diffuseColor      1.0000 0.2196 0.2196  #diffuseColor
		transparency      0.0000                #transparency
	} #Material

	IndexedFaceSet {
		coordIndex [ 
		 12, 16, 17, 20, 21, 8, 9, 13,-1,
		 13, 9, 8, 21, 20, 17, 16, 12,-1,
		 13, 9, 10, 14,-1,
		 14, 10, 9, 13,-1,
		 16, 12, 15, 18,-1,
		 18, 15, 12, 16,-1,
		 20, 17, 19, 22,-1,
		 22, 19, 17, 20,-1,
		 8, 21, 23, 11,-1,
		 11, 23, 21, 8,-1,
		 24, 10, 11, 23, 22, 25,-1,
		 26, 24, 27, 28,-1,
		 29, 26, 28, 30,-1,
		 31, 19, 18, 15, 14, 32,-1,
		 33, 31, 34, 35,-1,
		 36, 33, 35, 27,-1,
		 10, 14, 15, 18, 19, 22, 23, 11,-1,
		 9, 8, 11, 10,-1,
		 10, 11, 8, 9,-1,
		 12, 13, 14, 15,-1,
		 15, 14, 13, 12,-1,
		 17, 16, 18, 19,-1,
		 19, 18, 16, 17,-1,
		 21, 20, 22, 23,-1,
		 23, 22, 20, 21,-1,
		]
	} #IndexedFaceSet
} #Polyhedron
Separator { #Polyhedron
	DEF COORD11 Coordinate3 {
		point [
		 0.9621 1.9860 -16.2640,
		 0.9521 2.1855 -16.2640,
		 0.9947 2.2173 -16.2640,
		 1.3920 2.2173 -16.2640,
		 1.3049 1.9860 -16.2640,
		 0.9621 1.9860 -16.3061,
		 0.9521 2.1855 -16.3061,
		 0.9947 2.2173 -16.3061,
		 1.3920 2.2173 -16.3061,
		 1.3049 1.9860 -16.3061,
		 1.3387 2.0758 -16.3061,
		 1.3387 2.0758 -16.2640
		]
	} #Coordinate3
	Material {
		ambientColor      0.2500 0.0549 0.0549  #ambientColor
		diffuseColor      1.0000 0.2196 0.2196  #diffuseColor
		transparency      0.0000                #transparency
	} #Material

	IndexedFaceSet {
		coordIndex [ 
		 0, 1, 2, 3, 4,-1,
		 4, 3, 2, 1, 0,-1,
		 0, 4, 9, 5,-1,
		 5, 9, 4, 0,-1,
		 1, 0, 5, 6,-1,
		 6, 5, 0, 1,-1,
		 2, 1, 6, 7,-1,
		 7, 6, 1, 2,-1,
		 3, 2, 7, 8,-1,
		 8, 7, 2, 3,-1,
		 10, 9, 4, 11,-1,
		 9, 8, 3, 4,-1,
		 9, 8, 7, 6, 5,-1,
		 5, 6, 7, 8, 9,-1,
		]
	} #IndexedFaceSet
} #Polyhedron
Separator { #Polyhedron
	DEF COORD12 Coordinate3 {
		point [
		 0.9620 1.9860 -16.8662,
		 0.9520 2.1855 -16.8662,
		 0.9946 2.2173 -16.8662,
		 1.3919 2.2173 -16.8662,
		 1.3048 1.9860 -16.8662,
		 0.9620 1.9860 -16.9084,
		 0.9520 2.1855 -16.9084,
		 0.9946 2.2173 -16.9084,
		 1.3919 2.2173 -16.9084,
		 1.3048 1.9860 -16.9084
		]
	} #Coordinate3
	Material {
		ambientColor      0.2500 0.0549 0.0549  #ambientColor
		diffuseColor      1.0000 0.2196 0.2196  #diffuseColor
		transparency      0.0000                #transparency
	} #Material

	IndexedFaceSet {
		coordIndex [ 
		 0, 1, 2, 3, 4,-1,
		 4, 3, 2, 1, 0,-1,
		 0, 4, 9, 5,-1,
		 5, 9, 4, 0,-1,
		 1, 0, 5, 6,-1,
		 6, 5, 0, 1,-1,
		 2, 1, 6, 7,-1,
		 7, 6, 1, 2,-1,
		 3, 2, 7, 8,-1,
		 8, 7, 2, 3,-1,
		 4, 3, 8, 9,-1,
		 9, 8, 3, 4,-1,
		 9, 8, 7, 6, 5,-1,
		 5, 6, 7, 8, 9,-1,
		]
	} #IndexedFaceSet
} #Polyhedron
Separator { #Polyhedron
	DEF COORD13 Coordinate3 {
		point [
		 1.5138 2.3830 -16.3309,
		 1.5460 2.4682 -16.4807,
		 1.5460 2.4682 -16.6598,
		 1.5172 2.3921 -16.8161,
		 1.4758 2.2825 -16.9079,
		 1.3458 1.9383 -16.9079,
		 1.3458 1.9383 -16.2603,
		 1.4781 2.2886 -16.2603,
		 1.4621 2.4025 -16.3309,
		 1.4943 2.4878 -16.4807,
		 1.4943 2.4878 -16.6598,
		 1.4655 2.4116 -16.8161,
		 1.4241 2.3020 -16.9079,
		 1.2940 1.9578 -16.9079,
		 1.2940 1.9578 -16.2603,
		 1.4264 2.3081 -16.2603,
		 1.3903 2.0563 -16.9079,
		 1.3903 2.0563 -16.2603,
		 1.3386 2.0758 -16.9079,
		 1.3386 2.0758 -16.2603,
		 1.3921 2.2173 -16.9079,
		 1.3921 2.2173 -16.2603,
		 1.3920 2.2173 -16.3061,
		 1.3387 2.0758 -16.3061,
		 1.3921 2.2173 -16.2603,
		 1.3386 2.0758 -16.2603,
		 1.3387 2.0758 -16.2640,
		 1.3920 2.2173 -16.2640
		]
	} #Coordinate3
	Material {
		ambientColor      0.2500 0.0549 0.0549  #ambientColor
		diffuseColor      1.0000 0.2196 0.2196  #diffuseColor
		transparency      0.0000                #transparency
	} #Material

	IndexedFaceSet {
		coordIndex [ 
		 0, 1, 2, 3, 4, 16, 17, 7,-1,
		 7, 17, 16, 4, 3, 2, 1, 0,-1,
		 0, 7, 15, 8,-1,
		 8, 15, 7, 0,-1,
		 1, 0, 8, 9,-1,
		 9, 8, 0, 1,-1,
		 2, 1, 9, 10,-1,
		 10, 9, 1, 2,-1,
		 3, 2, 10, 11,-1,
		 11, 10, 2, 3,-1,
		 4, 3, 11, 12,-1,
		 12, 11, 3, 4,-1,
		 16, 4, 12, 18,-1,
		 18, 12, 4, 16,-1,
		 7, 17, 19, 15,-1,
		 15, 19, 17, 7,-1,
		 20, 12, 11, 10, 9, 8, 15, 21,-1,
		 18, 20, 22, 23,-1,
		 24, 25, 26, 27,-1,
		 8, 9, 10, 11, 12, 18, 19, 15,-1,
		 17, 16, 18, 19,-1,
		 19, 18, 16, 17,-1,
		]
	} #IndexedFaceSet
} #Polyhedron
Separator { #Polyhedron
	DEF COORD14 Coordinate3 {
		point [
		 1.2252 1.9864 -16.6150,
		 1.2506 1.9864 -16.5959,
		 1.2442 1.9864 -16.5642,
		 1.2125 1.9864 -16.5642,
		 1.1998 1.9864 -16.5959,
		 1.2252 1.6880 -16.6150,
		 1.2506 1.6880 -16.5959,
		 1.2442 1.6880 -16.5642,
		 1.2125 1.6880 -16.5642,
		 1.1998 1.6880 -16.5959
		]
	} #Coordinate3
	Material {
		ambientColor      0.2500 0.0549 0.0549  #ambientColor
		diffuseColor      1.0000 0.2196 0.2196  #diffuseColor
		transparency      0.0000                #transparency
	} #Material

	IndexedFaceSet {
		coordIndex [ 
		 4, 3, 2, 1, 0,-1,
		 0, 4, 9, 5,-1,
		 5, 9, 4, 0,-1,
		 1, 0, 5, 6,-1,
		 6, 5, 0, 1,-1,
		 2, 1, 6, 7,-1,
		 7, 6, 1, 2,-1,
		 3, 2, 7, 8,-1,
		 8, 7, 2, 3,-1,
		 4, 3, 8, 9,-1,
		 9, 8, 3, 4,-1,
		 9, 8, 7, 6, 5,-1,
		 5, 6, 7, 8, 9,-1,
		]
	} #IndexedFaceSet
} #Polyhedron
Separator { #Polyhedron
	DEF COORD15 Coordinate3 {
		point [
		 -1.7019 3.7080 -16.6335,
		 -1.7558 3.7080 -16.6558,
		 -1.7781 3.7080 -16.7097,
		 -1.7558 3.7080 -16.7636,
		 -1.7019 3.7080 -16.7859,
		 -1.6480 3.7080 -16.7636,
		 -1.6257 3.7080 -16.7097,
		 -1.6480 3.7080 -16.6559,
		 -1.7019 2.3239 -16.6335,
		 -1.7558 2.3239 -16.6558,
		 -1.7781 2.3239 -16.7097,
		 -1.7558 2.3239 -16.7636,
		 -1.7019 2.3239 -16.7859,
		 -1.6480 2.3239 -16.7636,
		 -1.6257 2.3239 -16.7097,
		 -1.6480 2.3239 -16.6559,
		 -1.6480 3.4446 -16.6559,
		 -1.7019 3.4985 -16.6335,
		 -1.7558 3.5524 -16.6558,
		 -1.7781 3.5747 -16.7097,
		 -1.7558 3.5524 -16.7636,
		 -1.7019 3.4985 -16.7859,
		 -1.6480 3.4446 -16.7636,
		 -1.6257 3.4223 -16.7097
		]
	} #Coordinate3
	Material {
		ambientColor      0.1176 0.1176 0.1176  #ambientColor
		diffuseColor      0.4706 0.4706 0.4706  #diffuseColor
		transparency      0.0000                #transparency
	} #Material

	IndexedFaceSet {
		coordIndex [ 
		 16, 15, 8, 17,-1,
		 17, 8, 15, 16,-1,
		 17, 8, 9, 18,-1,
		 18, 9, 8, 17,-1,
		 18, 9, 10, 19,-1,
		 19, 10, 9, 18,-1,
		 19, 10, 11, 20,-1,
		 20, 11, 10, 19,-1,
		 20, 11, 12, 21,-1,
		 21, 12, 11, 20,-1,
		 21, 12, 13, 22,-1,
		 22, 13, 12, 21,-1,
		 22, 13, 14, 23,-1,
		 23, 14, 13, 22,-1,
		 23, 14, 15, 16,-1,
		 16, 15, 14, 23,-1,
		 15, 14, 13, 12, 11, 10, 9, 8,-1,
		 8, 9, 10, 11, 12, 13, 14, 15,-1,
		]
	} #IndexedFaceSet
} #Polyhedron
}
