#VRML V1.0 ascii

Separator {
	Info { string "Virtus VRML 1.0.1
	VRML Export Filter
	Virtus Corporation
	114 MacKenan Drive, Suite 100
	Cary, NC 27511
	919-467-9700"}

	DEF BackgroundColor Info{  # Sky color
		string " 0.3 0.8 1.0 "
	}

	DirectionalLight {
		on         TRUE          # SFBool
		intensity  1.0           # SFFloat
		color      0.4 0.4 0.4   # SFColor
		direction  0 0 0   # SFVec3f
	}

	DirectionalLight {
		on         TRUE          # SFBool
		intensity  1.0           # SFFloat
		color      0.5 0.5 0.5   # SFColor
		direction  34 -247 -57   # SFVec3f
	}

	DirectionalLight {
		on         TRUE          # SFBool
		intensity  1.0           # SFFloat
		color      0.4 0.4 0.4   # SFColor
		direction  -209 -104 105   # SFVec3f
	}

	DirectionalLight {
		on         TRUE          # SFBool
		intensity  1.0           # SFFloat
		color      0.5 0.5 0.5   # SFColor
		direction  5 119 -226   # SFVec3f
	}

	PerspectiveCamera {
		position 0.0000 1.5240 0.0000          #SFVec3f 
		focalDistance  5            #SFFloat 
		heightAngle 1.9201 
	}

	ShapeHints {
		vertexOrdering	CLOCKWISE
		shapeType	SOLID
	}

	Transform {
		translation 0 0 0
		scaleFactor 1.0 1.0 1.0
	}

Separator { #Polyhedron
	DEF COORD0 Coordinate3 {
		point [
		 0.0000 0.3778 -10.0838,
		 0.0000 0.3778 -10.4140,
		 0.7620 0.3778 -10.4140,
		 0.7620 0.3778 -10.0838,
		 0.0000 0.0000 -10.0838,
		 0.0000 0.0000 -10.4140,
		 0.7620 0.0000 -10.4140,
		 0.7620 0.0000 -10.0838,
		 0.0000 0.2794 -10.0838,
		 0.7620 0.2794 -10.0838,
		 0.7620 0.0508 -10.0838,
		 0.0000 0.0508 -10.0838,
		 0.7620 0.2794 -10.0838,
		 0.5712 0.0508 -10.0838,
		 0.5712 0.2794 -10.0838,
		 0.7620 0.2476 -10.0838,
		 0.0000 0.2476 -10.0838,
		 0.0759 0.0889 -10.0838,
		 0.0759 0.2476 -10.0838,
		 0.0000 0.2476 -10.0838,
		 0.0000 0.0889 -10.0838,
		 0.0000 0.0889 -10.0838,
		 0.7620 0.0889 -10.0838,
		 0.5268 0.2476 -10.0838,
		 0.5268 0.0889 -10.0838,
		 0.7620 0.2476 -10.0838
		]
	} #Coordinate3
	Material {
		ambientColor      0.0343 0.0343 0.0343  #ambientColor
		diffuseColor      0.1373 0.1373 0.1373  #diffuseColor
		transparency      0.0000                #transparency
	} #Material

	IndexedFaceSet {
		coordIndex [ 
		 0, 1, 2, 3,-1,
		 3, 2, 1, 0,-1,
		 8, 0, 3, 9,-1,
		 10, 7, 4, 11,-1,
		 12, 10, 13, 14,-1,
		 15, 3, 0, 16,-1,
		 17, 18, 19, 20,-1,
		 21, 4, 7, 22,-1,
		 23, 24, 22, 25,-1,
		 1, 0, 4, 5,-1,
		 5, 4, 0, 1,-1,
		 2, 1, 5, 6,-1,
		 6, 5, 1, 2,-1,
		 3, 2, 6, 7,-1,
		 7, 6, 2, 3,-1,
		 7, 6, 5, 4,-1,
		 4, 5, 6, 7,-1,
		]
	} #IndexedFaceSet
} #Polyhedron
Separator { #Polyhedron
	DEF COORD1 Coordinate3 {
		point [
		 0.7620 0.3810 -10.0838,
		 0.7620 0.2794 -10.0838,
		 0.7620 0.2794 -10.0584,
		 0.0000 0.3810 -10.0838,
		 0.0000 0.2794 -10.0838,
		 0.0000 0.2794 -10.0584
		]
	} #Coordinate3
	Material {
		ambientColor      0.0343 0.0343 0.0343  #ambientColor
		diffuseColor      0.1373 0.1373 0.1373  #diffuseColor
		transparency      0.0000                #transparency
	} #Material

	IndexedFaceSet {
		coordIndex [ 
		 0, 1, 2,-1,
		 2, 1, 0,-1,
		 0, 2, 5, 3,-1,
		 3, 5, 2, 0,-1,
		 1, 0, 3, 4,-1,
		 4, 3, 0, 1,-1,
		 2, 1, 4, 5,-1,
		 5, 4, 1, 2,-1,
		 5, 4, 3,-1,
		 3, 4, 5,-1,
		]
	} #IndexedFaceSet
} #Polyhedron
Separator { #Polyhedron
	DEF COORD2 Coordinate3 {
		point [
		 0.5712 0.2794 -10.0838,
		 0.5712 0.0508 -10.0838,
		 0.5712 0.0508 -10.0584,
		 0.5712 0.2794 -10.0584,
		 -0.0003 0.2794 -10.0838,
		 -0.0003 0.0508 -10.0838,
		 -0.0003 0.0508 -10.0584,
		 -0.0003 0.2794 -10.0584,
		 0.0000 0.0508 -10.0838,
		 0.0000 0.2794 -10.0838,
		 -0.0003 0.2794 -10.0838,
		 0.0759 0.2476 -10.0838,
		 0.0759 0.0889 -10.0838,
		 0.5268 0.0889 -10.0838,
		 0.5268 0.2476 -10.0838,
		 0.5712 0.0889 -10.0838,
		 -0.0003 0.0889 -10.0838,
		 0.5712 0.2476 -10.0838,
		 0.5712 0.0889 -10.0838,
		 -0.0003 0.2476 -10.0838,
		 0.5712 0.2476 -10.0838,
		 -0.0003 0.0889 -10.0838,
		 -0.0003 0.2477 -10.0584,
		 0.5712 0.2477 -10.0584,
		 -0.0003 0.0889 -10.0584,
		 -0.0003 0.2477 -10.0584,
		 0.0759 0.2477 -10.0584,
		 0.0759 0.0889 -10.0584,
		 0.5712 0.0889 -10.0584,
		 -0.0003 0.0889 -10.0584,
		 0.5712 0.2477 -10.0584,
		 0.5268 0.0889 -10.0584,
		 0.5268 0.2477 -10.0584,
		 0.5712 0.2477 -10.0584,
		 -0.0003 0.2477 -10.0584,
		 -0.0003 0.2477 -10.0584,
		 -0.0003 0.0889 -10.0584,
		 -0.0003 0.0889 -10.0584,
		 0.5712 0.0889 -10.0584,
		 0.5712 0.2477 -10.0584
		]
	} #Coordinate3
	Material {
		ambientColor      0.0000 0.0000 0.0000  #ambientColor
		diffuseColor      0.0000 0.0000 0.0000  #diffuseColor
		transparency      0.0000                #transparency
	} #Material

	IndexedFaceSet {
		coordIndex [ 
		 0, 1, 2, 3,-1,
		 3, 2, 1, 0,-1,
		 0, 3, 7, 4,-1,
		 4, 7, 3, 0,-1,
		 8, 9, 10, 5,-1,
		]
	} #IndexedFaceSet
	Material {
		ambientColor      0.2500 0.2000 0.0500  #ambientColor
		diffuseColor      1.0000 0.8000 0.2000  #diffuseColor
		transparency      0.4980                #transparency
	} #Material

	IndexedFaceSet {
		coordIndex [ 
		 11, 12, 13, 14,-1,
		]
	} #IndexedFaceSet
	Material {
		ambientColor      0.0000 0.0000 0.0000  #ambientColor
		diffuseColor      0.0000 0.0000 0.0000  #diffuseColor
		transparency      0.0000                #transparency
	} #Material

	IndexedFaceSet {
		coordIndex [ 
		 15, 1, 5, 16,-1,
		 17, 18, 13, 14,-1,
		 19, 4, 0, 20,-1,
		 21, 19, 11, 12,-1,
		]
	} #IndexedFaceSet
	Material {
		ambientColor      0.2500 0.2000 0.0500  #ambientColor
		diffuseColor      1.0000 0.8000 0.2000  #diffuseColor
		transparency      0.4980                #transparency
	} #Material

	IndexedFaceSet {
		coordIndex [ 
		 14, 13, 12, 11,-1,
		]
	} #IndexedFaceSet
	Material {
		ambientColor      0.0000 0.0000 0.0000  #ambientColor
		diffuseColor      0.0000 0.0000 0.0000  #diffuseColor
		transparency      0.0000                #transparency
	} #Material

	IndexedFaceSet {
		coordIndex [ 
		 2, 1, 5, 6,-1,
		 6, 5, 1, 2,-1,
		 22, 7, 3, 23,-1,
		 24, 25, 26, 27,-1,
		 28, 2, 6, 29,-1,
		 30, 28, 31, 32,-1,
		]
	} #IndexedFaceSet
	Material {
		ambientColor      0.2500 0.2000 0.0500  #ambientColor
		diffuseColor      1.0000 0.8000 0.2000  #diffuseColor
		transparency      0.4980                #transparency
	} #Material

	IndexedFaceSet {
		coordIndex [ 
		 32, 31, 27, 26,-1,
		]
	} #IndexedFaceSet
	Material {
		ambientColor      0.0000 0.0000 0.0000  #ambientColor
		diffuseColor      0.0000 0.0000 0.0000  #diffuseColor
		transparency      0.0000                #transparency
	} #Material

	IndexedFaceSet {
		coordIndex [ 
		 33, 3, 7, 34,-1,
		 27, 26, 35, 36,-1,
		 37, 6, 2, 38,-1,
		 32, 31, 38, 39,-1,
		]
	} #IndexedFaceSet
	Material {
		ambientColor      0.2500 0.2000 0.0500  #ambientColor
		diffuseColor      1.0000 0.8000 0.2000  #diffuseColor
		transparency      0.4980                #transparency
	} #Material

	IndexedFaceSet {
		coordIndex [ 
		 26, 27, 31, 32,-1,
		]
	} #IndexedFaceSet
	Material {
		ambientColor      0.0000 0.0000 0.0000  #ambientColor
		diffuseColor      0.0000 0.0000 0.0000  #diffuseColor
		transparency      0.0000                #transparency
	} #Material

	IndexedFaceSet {
		coordIndex [ 
		 7, 6, 5, 4,-1,
		 4, 5, 6, 7,-1,
		]
	} #IndexedFaceSet
} #Polyhedron
Separator { #Polyhedron
	DEF COORD3 Coordinate3 {
		point [
		 0.7620 0.0508 -10.0838,
		 0.7620 0.0000 -10.0838,
		 0.7620 0.0508 -10.0584,
		 0.0000 0.0508 -10.0838,
		 0.0000 0.0000 -10.0838,
		 0.0000 0.0508 -10.0584
		]
	} #Coordinate3
	Material {
		ambientColor      0.0343 0.0343 0.0343  #ambientColor
		diffuseColor      0.1373 0.1373 0.1373  #diffuseColor
		transparency      0.0000                #transparency
	} #Material

	IndexedFaceSet {
		coordIndex [ 
		 0, 1, 2,-1,
		 2, 1, 0,-1,
		 0, 2, 5, 3,-1,
		 3, 5, 2, 0,-1,
		 1, 0, 3, 4,-1,
		 4, 3, 0, 1,-1,
		 2, 1, 4, 5,-1,
		 5, 4, 1, 2,-1,
		 5, 4, 3,-1,
		 3, 4, 5,-1,
		]
	} #IndexedFaceSet
} #Polyhedron
Separator { #Polyhedron
	DEF COORD4 Coordinate3 {
		point [
		 0.7620 0.2794 -10.0838,
		 0.7620 0.0508 -10.0838,
		 0.7620 0.0508 -10.0584,
		 0.7620 0.2794 -10.0584,
		 0.5842 0.2794 -10.0838,
		 0.5842 0.0508 -10.0838,
		 0.5842 0.0508 -10.0584,
		 0.5842 0.2794 -10.0584,
		 0.5842 0.2540 -10.0584,
		 0.7620 0.2540 -10.0584,
		 0.5842 0.2286 -10.0584,
		 0.5842 0.2540 -10.0584,
		 0.6096 0.2540 -10.0584,
		 0.6096 0.2286 -10.0584,
		 0.5842 0.1969 -10.0584,
		 0.5842 0.2286 -10.0584,
		 0.7620 0.2286 -10.0584,
		 0.7620 0.1969 -10.0584,
		 0.5842 0.0826 -10.0584,
		 0.5842 0.1969 -10.0584,
		 0.6096 0.1969 -10.0584,
		 0.6096 0.0826 -10.0584,
		 0.7620 0.0826 -10.0584,
		 0.5842 0.0826 -10.0584,
		 0.7620 0.1969 -10.0584,
		 0.7303 0.0826 -10.0584,
		 0.7303 0.1969 -10.0584,
		 0.7620 0.2540 -10.0584,
		 0.7366 0.2286 -10.0584,
		 0.7366 0.2540 -10.0584,
		 0.7620 0.2540 -10.0584,
		 0.5842 0.2540 -10.0584,
		 0.5842 0.2540 -10.0584,
		 0.5842 0.2286 -10.0584,
		 0.7620 0.1969 -10.0584,
		 0.7620 0.2286 -10.0584,
		 0.5842 0.2286 -10.0584,
		 0.5842 0.1969 -10.0584,
		 0.5842 0.1969 -10.0584,
		 0.5842 0.0826 -10.0584,
		 0.5842 0.0826 -10.0584,
		 0.7620 0.0826 -10.0584,
		 0.7620 0.1969 -10.0584,
		 0.7620 0.2540 -10.0584
		]
	} #Coordinate3
	Material {
		ambientColor      0.0343 0.0343 0.0343  #ambientColor
		diffuseColor      0.1373 0.1373 0.1373  #diffuseColor
		transparency      0.0000                #transparency
	} #Material

	IndexedFaceSet {
		coordIndex [ 
		 0, 1, 2, 3,-1,
		 3, 2, 1, 0,-1,
		 0, 3, 7, 4,-1,
		 4, 7, 3, 0,-1,
		 1, 0, 4, 5,-1,
		 5, 4, 0, 1,-1,
		 2, 1, 5, 6,-1,
		 6, 5, 1, 2,-1,
		 8, 7, 3, 9,-1,
		 10, 11, 12, 13,-1,
		 14, 15, 16, 17,-1,
		 18, 19, 20, 21,-1,
		 22, 2, 6, 23,-1,
		 24, 22, 25, 26,-1,
		 27, 16, 28, 29,-1,
		]
	} #IndexedFaceSet
	Material {
		ambientColor      0.1667 0.1667 0.0000  #ambientColor
		diffuseColor      0.6667 0.6667 0.0000  #diffuseColor
		transparency      0.0000                #transparency
	} #Material

	IndexedFaceSet {
		coordIndex [ 
		 29, 28, 13, 12,-1,
		]
	} #IndexedFaceSet
	Material {
		ambientColor      0.1873 0.1873 0.1873  #ambientColor
		diffuseColor      0.7490 0.7490 0.7490  #diffuseColor
		transparency      0.0000                #transparency
	} #Material

	IndexedFaceSet {
		coordIndex [ 
		 26, 25, 21, 20,-1,
		]
	} #IndexedFaceSet
	Material {
		ambientColor      0.0343 0.0343 0.0343  #ambientColor
		diffuseColor      0.1373 0.1373 0.1373  #diffuseColor
		transparency      0.0000                #transparency
	} #Material

	IndexedFaceSet {
		coordIndex [ 
		 30, 3, 7, 31,-1,
		 13, 12, 32, 33,-1,
		 34, 35, 36, 37,-1,
		 21, 20, 38, 39,-1,
		 40, 6, 2, 41,-1,
		 26, 25, 41, 42,-1,
		 29, 28, 35, 43,-1,
		]
	} #IndexedFaceSet
	Material {
		ambientColor      0.1667 0.1667 0.0000  #ambientColor
		diffuseColor      0.6667 0.6667 0.0000  #diffuseColor
		transparency      0.0000                #transparency
	} #Material

	IndexedFaceSet {
		coordIndex [ 
		 12, 13, 28, 29,-1,
		]
	} #IndexedFaceSet
	Material {
		ambientColor      0.1873 0.1873 0.1873  #ambientColor
		diffuseColor      0.7490 0.7490 0.7490  #diffuseColor
		transparency      0.0000                #transparency
	} #Material

	IndexedFaceSet {
		coordIndex [ 
		 20, 21, 25, 26,-1,
		]
	} #IndexedFaceSet
	Material {
		ambientColor      0.0343 0.0343 0.0343  #ambientColor
		diffuseColor      0.1373 0.1373 0.1373  #diffuseColor
		transparency      0.0000                #transparency
	} #Material

	IndexedFaceSet {
		coordIndex [ 
		 7, 6, 5, 4,-1,
		 4, 5, 6, 7,-1,
		]
	} #IndexedFaceSet
} #Polyhedron
}
