#VRML V1.0 ascii

Separator {
	Info { string "Virtus VRML 1.0.1
	VRML Export Filter
	Virtus Corporation
	114 MacKenan Drive, Suite 100
	Cary, NC 27511
	919-467-9700"}

	DEF BackgroundColor Info{  # Sky color
		string " 0.3 0.8 1.0 "
	}

	DirectionalLight {
		on         TRUE          # SFBool
		intensity  1.0           # SFFloat
		color      0.4 0.4 0.4   # SFColor
		direction  0 0 0   # SFVec3f
	}

	DirectionalLight {
		on         TRUE          # SFBool
		intensity  1.0           # SFFloat
		color      0.5 0.5 0.5   # SFColor
		direction  34 -247 -57   # SFVec3f
	}

	DirectionalLight {
		on         TRUE          # SFBool
		intensity  1.0           # SFFloat
		color      0.4 0.4 0.4   # SFColor
		direction  -209 -104 105   # SFVec3f
	}

	DirectionalLight {
		on         TRUE          # SFBool
		intensity  1.0           # SFFloat
		color      0.5 0.5 0.5   # SFColor
		direction  5 119 -226   # SFVec3f
	}

	PerspectiveCamera {
		position -2.1082 0.1524 5.5372          #SFVec3f 
		orientation 0 1 0  0.6138     #SFRotation 
		focalDistance  5            #SFFloat 
		heightAngle 1.9201 
	}

	ShapeHints {
		vertexOrdering	CLOCKWISE
		shapeType	SOLID
	}

	Transform {
		translation 0 0 0
		scaleFactor 1.0 1.0 1.0
	}

Separator { #Polyhedron
	DEF COORD0 Coordinate3 {
		point [
		 -6.2288 0.6623 -0.3056,
		 -6.2237 0.6481 -0.3056,
		 -6.0117 0.5592 -0.3056,
		 -6.0118 0.5734 -0.3056,
		 -6.2288 0.6623 -0.0262,
		 -6.2237 0.6481 -0.0262,
		 -6.0117 0.5592 -0.0262,
		 -6.0118 0.5734 -0.0262
		]
	} #Coordinate3
	Material {
		ambientColor      0.0500 0.1500 0.1500  #ambientColor
		diffuseColor      0.2000 0.6000 0.6000  #diffuseColor
		transparency      0.0000                #transparency
	} #Material

	IndexedFaceSet {
		coordIndex [ 
		 0, 1, 2, 3,-1,
		 3, 2, 1, 0,-1,
		 0, 3, 7, 4,-1,
		 4, 7, 3, 0,-1,
		 1, 0, 4, 5,-1,
		 5, 4, 0, 1,-1,
		 2, 1, 5, 6,-1,
		 6, 5, 1, 2,-1,
		 3, 2, 6, 7,-1,
		 7, 6, 2, 3,-1,
		 7, 6, 5, 4,-1,
		 4, 5, 6, 7,-1,
		]
	} #IndexedFaceSet
} #Polyhedron
Separator { #Polyhedron
	DEF COORD1 Coordinate3 {
		point [
		 -6.0425 0.8164 0.0500,
		 -6.0425 0.8164 -0.4072,
		 -5.4393 0.8164 -0.4072,
		 -5.4393 0.8164 0.0500,
		 -6.0425 0.6096 0.0500,
		 -6.0425 0.6096 -0.4072,
		 -5.4393 0.6096 -0.4072,
		 -5.4393 0.6096 0.0500,
		 -5.4393 0.6683 0.0500,
		 -5.5339 0.6096 0.0500,
		 -5.5339 0.6096 -0.4072,
		 -5.4393 0.6683 -0.4072,
		 -6.0425 0.8003 0.0500,
		 -5.4393 0.8003 0.0500,
		 -6.0425 0.7958 0.0500,
		 -5.9261 0.8003 0.0500,
		 -5.9386 0.7958 0.0500,
		 -6.0425 0.7853 0.0500,
		 -5.9439 0.7853 0.0500,
		 -6.0425 0.7748 0.0500,
		 -5.9385 0.7748 0.0500,
		 -6.0425 0.7703 0.0500,
		 -5.9261 0.7703 0.0500,
		 -5.4393 0.7703 0.0500,
		 -5.4393 0.7620 0.0500,
		 -6.0425 0.7620 0.0500,
		 -6.0425 0.7703 0.0500,
		 -5.4393 0.7748 0.0500,
		 -5.9137 0.7748 0.0500,
		 -5.4393 0.7853 0.0500,
		 -5.9083 0.7853 0.0500,
		 -5.4393 0.7958 0.0500,
		 -5.9137 0.7958 0.0500,
		 -5.4393 0.8003 0.0500,
		 -5.4393 0.7451 0.0500,
		 -5.4393 0.7127 0.0500,
		 -6.0425 0.7127 0.0500,
		 -6.0425 0.7451 0.0500,
		 -6.0425 0.6547 0.0500,
		 -6.0102 0.7127 0.0500,
		 -6.0102 0.6547 0.0500,
		 -6.0425 0.6350 0.0500,
		 -6.0425 0.6547 0.0500,
		 -5.7668 0.6547 0.0500,
		 -5.7668 0.6350 0.0500,
		 -5.4929 0.6350 0.0500,
		 -6.0425 0.6350 0.0500,
		 -5.4612 0.6547 0.0500,
		 -5.5853 0.6350 0.0500,
		 -5.5853 0.6547 0.0500,
		 -5.8647 0.6749 0.0500,
		 -5.8647 0.7127 0.0500,
		 -5.4393 0.7127 0.0500,
		 -5.4393 0.6749 0.0500,
		 -5.8647 0.6547 0.0500,
		 -5.8647 0.6749 0.0500,
		 -5.7668 0.6749 0.0500,
		 -5.7668 0.6547 0.0500,
		 -5.4393 0.6749 0.0500,
		 -5.4612 0.6547 0.0500,
		 -5.5853 0.6547 0.0500,
		 -5.5853 0.6749 0.0500,
		 -6.0425 0.7451 0.0500,
		 -6.0425 0.7620 0.0500,
		 -5.9897 0.7620 0.0500,
		 -5.9897 0.7451 0.0500,
		 -5.4393 0.7620 0.0500,
		 -5.4393 0.7451 0.0500,
		 -5.9546 0.7451 0.0500,
		 -5.9546 0.7620 0.0500,
		 -5.4393 0.8003 0.0500,
		 -6.0425 0.8003 0.0500,
		 -6.0425 0.7958 0.0500,
		 -6.0425 0.7853 0.0500,
		 -6.0425 0.7748 0.0500,
		 -6.0425 0.7703 0.0500,
		 -6.0425 0.7703 0.0500,
		 -6.0425 0.7620 0.0500,
		 -5.4393 0.7620 0.0500,
		 -5.4393 0.7703 0.0500,
		 -5.4393 0.7748 0.0500,
		 -5.4393 0.7853 0.0500,
		 -5.4393 0.7958 0.0500,
		 -5.4393 0.8003 0.0500,
		 -6.0425 0.7451 0.0500,
		 -6.0425 0.7127 0.0500,
		 -5.4393 0.7127 0.0500,
		 -5.4393 0.7451 0.0500,
		 -6.0425 0.6547 0.0500,
		 -5.7668 0.6547 0.0500,
		 -6.0425 0.6547 0.0500,
		 -6.0425 0.6350 0.0500,
		 -6.0425 0.6350 0.0500,
		 -5.4929 0.6350 0.0500,
		 -5.5853 0.6547 0.0500,
		 -5.4612 0.6547 0.0500,
		 -5.4393 0.6749 0.0500,
		 -5.4393 0.7127 0.0500,
		 -5.8647 0.6749 0.0500,
		 -5.7668 0.6547 0.0500,
		 -5.8647 0.6749 0.0500,
		 -5.5853 0.6547 0.0500,
		 -5.4612 0.6547 0.0500,
		 -5.4393 0.6749 0.0500,
		 -5.4393 0.7451 0.0500,
		 -5.4393 0.6864 -0.4072,
		 -5.4393 0.6864 0.0500,
		 -5.4393 0.7336 0.0282,
		 -5.4393 0.6864 0.0282,
		 -5.4393 0.7336 0.0500,
		 -5.4393 0.7336 0.0500,
		 -5.4393 0.7554 0.0500,
		 -5.4393 0.7554 -0.4072,
		 -5.4393 0.7336 -0.4072,
		 -5.4393 0.6864 -0.3854,
		 -5.4393 0.7336 -0.3854,
		 -5.4393 0.7336 -0.4072,
		 -5.4393 0.6864 -0.4072,
		 -5.4393 0.7989 0.0282,
		 -5.4393 0.7554 0.0282,
		 -5.4393 0.7989 0.0500,
		 -5.4393 0.7989 0.0500,
		 -5.4393 0.7989 -0.4072,
		 -5.4393 0.7554 -0.3854,
		 -5.4393 0.7989 -0.3854,
		 -5.4393 0.7989 -0.4072,
		 -5.4393 0.7554 -0.4072,
		 -5.4393 0.6864 0.0500,
		 -5.4393 0.6864 -0.4072,
		 -5.4393 0.7336 0.0500,
		 -5.4393 0.7336 -0.4072,
		 -5.4393 0.7554 -0.4072,
		 -5.4393 0.7554 0.0500,
		 -5.4393 0.7336 0.0500,
		 -5.4393 0.6864 -0.4072,
		 -5.4393 0.7336 -0.4072,
		 -5.4393 0.7989 0.0500,
		 -5.4393 0.7989 -0.4072,
		 -5.4393 0.7989 0.0500,
		 -5.4393 0.7554 -0.4072,
		 -5.4393 0.7989 -0.4072
		]
	} #Coordinate3
	Material {
		ambientColor      0.2088 0.2088 0.2088  #ambientColor
		diffuseColor      0.8353 0.8353 0.8353  #diffuseColor
		transparency      0.0000                #transparency
	} #Material

	IndexedFaceSet {
		coordIndex [ 
		 0, 1, 2, 3,-1,
		 3, 2, 1, 0,-1,
		 12, 0, 3, 13,-1,
		 14, 12, 15, 16,-1,
		 17, 14, 16, 18,-1,
		 19, 17, 18, 20,-1,
		 21, 19, 20, 22,-1,
		 23, 24, 25, 26,-1,
		 27, 23, 22, 28,-1,
		 29, 27, 28, 30,-1,
		 31, 29, 30, 32,-1,
		 33, 31, 32, 15,-1,
		 34, 35, 36, 37,-1,
		 38, 36, 39, 40,-1,
		 41, 42, 43, 44,-1,
		 45, 9, 4, 46,-1,
		 47, 45, 48, 49,-1,
		 50, 51, 52, 53,-1,
		 54, 55, 56, 57,-1,
		 58, 8, 59, 60, 61,-1,
		]
	} #IndexedFaceSet
	Material {
		ambientColor      0.2500 0.2500 0.2500  #ambientColor
		diffuseColor      1.0000 1.0000 1.0000  #diffuseColor
		transparency      0.0000                #transparency
	} #Material

	IndexedFaceSet {
		coordIndex [ 
		 40, 39, 51, 54,-1,
		]
	} #IndexedFaceSet
	Material {
		ambientColor      0.0549 0.0549 0.0549  #ambientColor
		diffuseColor      0.2196 0.2196 0.2196  #diffuseColor
		transparency      0.0000                #transparency
	} #Material

	IndexedFaceSet {
		coordIndex [ 
		 62, 63, 64, 65,-1,
		 66, 67, 68, 69,-1,
		]
	} #IndexedFaceSet
	Material {
		ambientColor      0.0000 0.1500 0.0000  #ambientColor
		diffuseColor      0.0000 0.6000 0.0000  #diffuseColor
		transparency      0.0000                #transparency
	} #Material

	IndexedFaceSet {
		coordIndex [ 
		 65, 64, 69, 68,-1,
		]
	} #IndexedFaceSet
	Material {
		ambientColor      0.2500 0.0500 0.0000  #ambientColor
		diffuseColor      1.0000 0.2000 0.0000  #diffuseColor
		transparency      0.0000                #transparency
	} #Material

	IndexedFaceSet {
		coordIndex [ 
		 22, 20, 18, 16, 15, 32, 30, 28,-1,
		]
	} #IndexedFaceSet
	Material {
		ambientColor      0.2500 0.2500 0.2500  #ambientColor
		diffuseColor      1.0000 1.0000 1.0000  #diffuseColor
		transparency      0.0000                #transparency
	} #Material

	IndexedFaceSet {
		coordIndex [ 
		 61, 48, 44, 56,-1,
		]
	} #IndexedFaceSet
	Material {
		ambientColor      0.2088 0.2088 0.2088  #ambientColor
		diffuseColor      0.8353 0.8353 0.8353  #diffuseColor
		transparency      0.0000                #transparency
	} #Material

	IndexedFaceSet {
		coordIndex [ 
		 70, 3, 0, 71,-1,
		 16, 15, 71, 72,-1,
		 18, 16, 72, 73,-1,
		 20, 18, 73, 74,-1,
		 22, 20, 74, 75,-1,
		 76, 77, 78, 79,-1,
		 28, 22, 79, 80,-1,
		 30, 28, 80, 81,-1,
		 32, 30, 81, 82,-1,
		 15, 32, 82, 83,-1,
		 84, 85, 86, 87,-1,
		 40, 39, 85, 88,-1,
		 44, 89, 90, 91,-1,
		 92, 4, 9, 93,-1,
		 94, 48, 93, 95,-1,
		 96, 97, 51, 98,-1,
		 99, 56, 100, 54,-1,
		 61, 101, 102, 8, 103,-1,
		]
	} #IndexedFaceSet
	Material {
		ambientColor      0.2500 0.2500 0.2500  #ambientColor
		diffuseColor      1.0000 1.0000 1.0000  #diffuseColor
		transparency      0.0000                #transparency
	} #Material

	IndexedFaceSet {
		coordIndex [ 
		 54, 51, 39, 40,-1,
		]
	} #IndexedFaceSet
	Material {
		ambientColor      0.0549 0.0549 0.0549  #ambientColor
		diffuseColor      0.2196 0.2196 0.2196  #diffuseColor
		transparency      0.0000                #transparency
	} #Material

	IndexedFaceSet {
		coordIndex [ 
		 65, 64, 63, 62,-1,
		 69, 68, 104, 66,-1,
		]
	} #IndexedFaceSet
	Material {
		ambientColor      0.0000 0.1500 0.0000  #ambientColor
		diffuseColor      0.0000 0.6000 0.0000  #diffuseColor
		transparency      0.0000                #transparency
	} #Material

	IndexedFaceSet {
		coordIndex [ 
		 68, 69, 64, 65,-1,
		]
	} #IndexedFaceSet
	Material {
		ambientColor      0.2500 0.0500 0.0000  #ambientColor
		diffuseColor      1.0000 0.2000 0.0000  #diffuseColor
		transparency      0.0000                #transparency
	} #Material

	IndexedFaceSet {
		coordIndex [ 
		 28, 30, 32, 15, 16, 18, 20, 22,-1,
		]
	} #IndexedFaceSet
	Material {
		ambientColor      0.2500 0.2500 0.2500  #ambientColor
		diffuseColor      1.0000 1.0000 1.0000  #diffuseColor
		transparency      0.0000                #transparency
	} #Material

	IndexedFaceSet {
		coordIndex [ 
		 56, 44, 48, 61,-1,
		]
	} #IndexedFaceSet
	Material {
		ambientColor      0.2088 0.2088 0.2088  #ambientColor
		diffuseColor      0.8353 0.8353 0.8353  #diffuseColor
		transparency      0.0000                #transparency
	} #Material

	IndexedFaceSet {
		coordIndex [ 
		 1, 0, 4, 5,-1,
		 5, 4, 0, 1,-1,
		 2, 1, 5, 10, 11,-1,
		 11, 10, 5, 1, 2,-1,
		 105, 11, 8, 106,-1,
		 107, 108, 106, 109,-1,
		 110, 111, 112, 113,-1,
		 114, 115, 116, 117,-1,
		 118, 119, 111, 120,-1,
		 121, 3, 2, 122,-1,
		 123, 124, 125, 126,-1,
		]
	} #IndexedFaceSet
	Material {
		ambientColor      0.2500 0.2500 0.2500  #ambientColor
		diffuseColor      1.0000 1.0000 1.0000  #diffuseColor
		transparency      0.0000                #transparency
	} #Material

	IndexedFaceSet {
		coordIndex [ 
		 119, 118, 124, 123,-1,
		 108, 107, 115, 114,-1,
		]
	} #IndexedFaceSet
	Material {
		ambientColor      0.2088 0.2088 0.2088  #ambientColor
		diffuseColor      0.8353 0.8353 0.8353  #diffuseColor
		transparency      0.0000                #transparency
	} #Material

	IndexedFaceSet {
		coordIndex [ 
		 127, 8, 11, 128,-1,
		 129, 127, 108, 107,-1,
		 130, 131, 132, 133,-1,
		 134, 135, 115, 114,-1,
		 136, 132, 119, 118,-1,
		 137, 2, 3, 138,-1,
		 139, 140, 124, 123,-1,
		]
	} #IndexedFaceSet
	Material {
		ambientColor      0.2500 0.2500 0.2500  #ambientColor
		diffuseColor      1.0000 1.0000 1.0000  #diffuseColor
		transparency      0.0000                #transparency
	} #Material

	IndexedFaceSet {
		coordIndex [ 
		 123, 124, 118, 119,-1,
		 114, 115, 107, 108,-1,
		]
	} #IndexedFaceSet
	Material {
		ambientColor      0.2088 0.2088 0.2088  #ambientColor
		diffuseColor      0.8353 0.8353 0.8353  #diffuseColor
		transparency      0.0000                #transparency
	} #Material

	IndexedFaceSet {
		coordIndex [ 
		 10, 5, 4, 9,-1,
		 9, 4, 5, 10,-1,
		 9, 8, 11, 10,-1,
		 10, 11, 8, 9,-1,
		]
	} #IndexedFaceSet
} #Polyhedron
Separator { #Polyhedron
	DEF COORD2 Coordinate3 {
		point [
		 -6.0124 0.6096 0.0246,
		 -6.0124 0.6096 -0.3818,
		 -5.4996 0.6096 -0.3818,
		 -5.4996 0.6096 0.0246,
		 -6.0124 0.4572 0.0246,
		 -6.0124 0.4572 -0.3818,
		 -5.4996 0.4572 -0.3818,
		 -5.4996 0.4572 0.0246,
		 -6.0124 0.5842 0.0246,
		 -5.4996 0.5842 0.0246,
		 -6.0124 0.4790 0.0246,
		 -5.9477 0.5842 0.0246,
		 -5.9477 0.4790 0.0246,
		 -5.4996 0.4790 0.0246,
		 -6.0124 0.4790 0.0246,
		 -5.4996 0.5842 0.0246,
		 -5.4996 0.4790 0.0246,
		 -5.5341 0.4790 0.0246,
		 -5.5341 0.5842 0.0246,
		 -5.4996 0.5842 0.0246,
		 -6.0124 0.5842 0.0246,
		 -6.0124 0.4790 0.0246,
		 -6.0124 0.4790 0.0246,
		 -5.4996 0.4790 0.0246,
		 -5.4996 0.4790 0.0246,
		 -5.4996 0.5842 0.0246
		]
	} #Coordinate3
	Material {
		ambientColor      0.1461 0.1461 0.1461  #ambientColor
		diffuseColor      0.5843 0.5843 0.5843  #diffuseColor
		transparency      0.0000                #transparency
	} #Material

	IndexedFaceSet {
		coordIndex [ 
		 0, 1, 2, 3,-1,
		 3, 2, 1, 0,-1,
		 8, 0, 3, 9,-1,
		 10, 8, 11, 12,-1,
		 13, 7, 4, 14,-1,
		 15, 16, 17, 18,-1,
		]
	} #IndexedFaceSet
	Material {
		ambientColor      0.2500 0.2500 0.2500  #ambientColor
		diffuseColor      1.0000 1.0000 1.0000  #diffuseColor
		transparency      0.0000                #transparency
	} #Material

	IndexedFaceSet {
		coordIndex [ 
		 12, 11, 18, 17,-1,
		]
	} #IndexedFaceSet
	Material {
		ambientColor      0.1461 0.1461 0.1461  #ambientColor
		diffuseColor      0.5843 0.5843 0.5843  #diffuseColor
		transparency      0.0000                #transparency
	} #Material

	IndexedFaceSet {
		coordIndex [ 
		 19, 3, 0, 20,-1,
		 12, 11, 20, 21,-1,
		 22, 4, 7, 23,-1,
		 18, 17, 24, 25,-1,
		]
	} #IndexedFaceSet
	Material {
		ambientColor      0.2500 0.2500 0.2500  #ambientColor
		diffuseColor      1.0000 1.0000 1.0000  #diffuseColor
		transparency      0.0000                #transparency
	} #Material

	IndexedFaceSet {
		coordIndex [ 
		 17, 18, 11, 12,-1,
		]
	} #IndexedFaceSet
	Material {
		ambientColor      0.1461 0.1461 0.1461  #ambientColor
		diffuseColor      0.5843 0.5843 0.5843  #diffuseColor
		transparency      0.0000                #transparency
	} #Material

	IndexedFaceSet {
		coordIndex [ 
		 1, 0, 4, 5,-1,
		 5, 4, 0, 1,-1,
		 2, 1, 5, 6,-1,
		 6, 5, 1, 2,-1,
		 3, 2, 6, 7,-1,
		 7, 6, 2, 3,-1,
		 7, 6, 5, 4,-1,
		 4, 5, 6, 7,-1,
		]
	} #IndexedFaceSet
} #Polyhedron
Separator { #Polyhedron
	DEF COORD3 Coordinate3 {
		point [
		 -6.0042 0.4572 -0.0799,
		 -6.0042 0.0000 -0.0799,
		 -5.9534 0.0000 -0.0799,
		 -5.9534 0.4572 -0.0799,
		 -6.0042 0.4572 0.0217,
		 -6.0042 0.0000 0.0217,
		 -5.9534 0.0000 0.0217,
		 -5.9534 0.4572 0.0217
		]
	} #Coordinate3
	Material {
		ambientColor      0.2088 0.2088 0.2088  #ambientColor
		diffuseColor      0.8353 0.8353 0.8353  #diffuseColor
		transparency      0.0000                #transparency
	} #Material

	IndexedFaceSet {
		coordIndex [ 
		 0, 1, 2, 3,-1,
		 3, 2, 1, 0,-1,
		 0, 3, 7, 4,-1,
		 4, 7, 3, 0,-1,
		 1, 0, 4, 5,-1,
		 5, 4, 0, 1,-1,
		 2, 1, 5, 6,-1,
		 6, 5, 1, 2,-1,
		 3, 2, 6, 7,-1,
		 7, 6, 2, 3,-1,
		 7, 6, 5, 4,-1,
		 4, 5, 6, 7,-1,
		]
	} #IndexedFaceSet
} #Polyhedron
Separator { #Polyhedron
	DEF COORD4 Coordinate3 {
		point [
		 -5.5724 0.4572 -0.0810,
		 -5.5724 0.0000 -0.0810,
		 -5.5216 0.0000 -0.0810,
		 -5.5216 0.4572 -0.0810,
		 -5.5724 0.4572 0.0206,
		 -5.5724 0.0000 0.0206,
		 -5.5216 0.0000 0.0206,
		 -5.5216 0.4572 0.0206,
		 -5.5724 0.2540 -0.0810,
		 -5.5724 0.2540 0.0206,
		 -5.5724 0.2032 0.0206,
		 -5.5724 0.2032 -0.0810,
		 -5.5724 0.2540 0.0206,
		 -5.5724 0.2032 -0.0164,
		 -5.5724 0.2540 -0.0164
		]
	} #Coordinate3
	Material {
		ambientColor      0.2088 0.2088 0.2088  #ambientColor
		diffuseColor      0.8353 0.8353 0.8353  #diffuseColor
		transparency      0.0000                #transparency
	} #Material

	IndexedFaceSet {
		coordIndex [ 
		 0, 1, 2, 3,-1,
		 3, 2, 1, 0,-1,
		 0, 3, 7, 4,-1,
		 4, 7, 3, 0,-1,
		 8, 0, 4, 9,-1,
		 10, 5, 1, 11,-1,
		 12, 10, 13, 14,-1,
		 5, 4, 0, 1,-1,
		 2, 1, 5, 6,-1,
		 6, 5, 1, 2,-1,
		 3, 2, 6, 7,-1,
		 7, 6, 2, 3,-1,
		 7, 6, 5, 4,-1,
		 4, 5, 6, 7,-1,
		]
	} #IndexedFaceSet
} #Polyhedron
Separator { #Polyhedron
	DEF COORD5 Coordinate3 {
		point [
		 -5.5727 0.4572 -0.3815,
		 -5.5727 0.0000 -0.3815,
		 -5.5219 0.0000 -0.3815,
		 -5.5219 0.4572 -0.3815,
		 -5.5727 0.4572 -0.2799,
		 -5.5727 0.0000 -0.2799,
		 -5.5219 0.0000 -0.2799,
		 -5.5219 0.4572 -0.2799
		]
	} #Coordinate3
	Material {
		ambientColor      0.2088 0.2088 0.2088  #ambientColor
		diffuseColor      0.8353 0.8353 0.8353  #diffuseColor
		transparency      0.0000                #transparency
	} #Material

	IndexedFaceSet {
		coordIndex [ 
		 0, 1, 2, 3,-1,
		 3, 2, 1, 0,-1,
		 0, 3, 7, 4,-1,
		 4, 7, 3, 0,-1,
		 1, 0, 4, 5,-1,
		 5, 4, 0, 1,-1,
		 2, 1, 5, 6,-1,
		 6, 5, 1, 2,-1,
		 3, 2, 6, 7,-1,
		 7, 6, 2, 3,-1,
		 7, 6, 5, 4,-1,
		 4, 5, 6, 7,-1,
		]
	} #IndexedFaceSet
} #Polyhedron
Separator { #Polyhedron
	DEF COORD6 Coordinate3 {
		point [
		 -6.0042 0.4572 -0.3847,
		 -6.0042 0.0000 -0.3847,
		 -5.9534 0.0000 -0.3847,
		 -5.9534 0.4572 -0.3847,
		 -6.0042 0.4572 -0.2831,
		 -6.0042 0.0000 -0.2831,
		 -5.9534 0.0000 -0.2831,
		 -5.9534 0.4572 -0.2831
		]
	} #Coordinate3
	Material {
		ambientColor      0.2088 0.2088 0.2088  #ambientColor
		diffuseColor      0.8353 0.8353 0.8353  #diffuseColor
		transparency      0.0000                #transparency
	} #Material

	IndexedFaceSet {
		coordIndex [ 
		 0, 1, 2, 3,-1,
		 3, 2, 1, 0,-1,
		 0, 3, 7, 4,-1,
		 4, 7, 3, 0,-1,
		 1, 0, 4, 5,-1,
		 5, 4, 0, 1,-1,
		 2, 1, 5, 6,-1,
		 6, 5, 1, 2,-1,
		 3, 2, 6, 7,-1,
		 7, 6, 2, 3,-1,
		 7, 6, 5, 4,-1,
		 4, 5, 6, 7,-1,
		]
	} #IndexedFaceSet
} #Polyhedron
Separator { #Polyhedron
	DEF COORD7 Coordinate3 {
		point [
		 -5.5724 0.2540 -0.3466,
		 -5.5724 0.2540 -0.0164,
		 -5.9534 0.2540 -0.0164,
		 -5.9534 0.2540 -0.3466,
		 -5.5724 0.2032 -0.3466,
		 -5.5724 0.2032 -0.0164,
		 -5.9534 0.2032 -0.0164,
		 -5.9534 0.2032 -0.3466,
		 -5.5724 0.2032 -0.0810,
		 -5.5724 0.2540 -0.0810,
		 -5.5724 0.2540 -0.3466
		]
	} #Coordinate3
	Material {
		ambientColor      0.2088 0.2088 0.2088  #ambientColor
		diffuseColor      0.8353 0.8353 0.8353  #diffuseColor
		transparency      0.0000                #transparency
	} #Material

	IndexedFaceSet {
		coordIndex [ 
		 0, 1, 2, 3,-1,
		 3, 2, 1, 0,-1,
		 0, 3, 7, 4,-1,
		 4, 7, 3, 0,-1,
		 8, 9, 10, 4,-1,
		 5, 4, 0, 1,-1,
		 2, 1, 5, 6,-1,
		 6, 5, 1, 2,-1,
		 3, 2, 6, 7,-1,
		 7, 6, 2, 3,-1,
		 7, 6, 5, 4,-1,
		 4, 5, 6, 7,-1,
		]
	} #IndexedFaceSet
} #Polyhedron
Separator { #Polyhedron
	DEF COORD8 Coordinate3 {
		point [
		 -6.2498 0.7225 -0.2958,
		 -6.2498 0.7225 -0.0672,
		 -6.2487 0.7252 -0.0672,
		 -6.2487 0.7252 -0.2958,
		 -6.0456 0.5938 -0.2958,
		 -6.0456 0.5938 -0.0672,
		 -6.0445 0.5964 -0.0672,
		 -6.0445 0.5964 -0.2958
		]
	} #Coordinate3
	Material {
		ambientColor      0.2363 0.2363 0.2363  #ambientColor
		diffuseColor      0.9451 0.9451 0.9451  #diffuseColor
		transparency      0.0000                #transparency
	} #Material

	IndexedFaceSet {
		coordIndex [ 
		 3, 2, 1, 0,-1,
		 0, 1, 2, 3,-1,
		 4, 7, 3, 0,-1,
		 0, 3, 7, 4,-1,
		 5, 4, 0, 1,-1,
		 1, 0, 4, 5,-1,
		 6, 5, 1, 2,-1,
		 2, 1, 5, 6,-1,
		 7, 6, 2, 3,-1,
		 3, 2, 6, 7,-1,
		 4, 5, 6, 7,-1,
		 7, 6, 5, 4,-1,
		]
	} #IndexedFaceSet
} #Polyhedron
Separator { #Polyhedron
	DEF COORD9 Coordinate3 {
		point [
		 -6.3685 0.5154 -0.2958,
		 -6.3685 0.5154 -0.0672,
		 -6.3712 0.5164 -0.0672,
		 -6.3712 0.5164 -0.2958,
		 -6.2506 0.7261 -0.2958,
		 -6.2506 0.7261 -0.0672,
		 -6.2533 0.7270 -0.0672,
		 -6.2533 0.7270 -0.2958
		]
	} #Coordinate3
	Material {
		ambientColor      0.2363 0.2363 0.2363  #ambientColor
		diffuseColor      0.9451 0.9451 0.9451  #diffuseColor
		transparency      0.0000                #transparency
	} #Material

	IndexedFaceSet {
		coordIndex [ 
		 3, 2, 1, 0,-1,
		 0, 1, 2, 3,-1,
		 4, 7, 3, 0,-1,
		 0, 3, 7, 4,-1,
		 5, 4, 0, 1,-1,
		 1, 0, 4, 5,-1,
		 6, 5, 1, 2,-1,
		 2, 1, 5, 6,-1,
		 7, 6, 2, 3,-1,
		 3, 2, 6, 7,-1,
		 4, 5, 6, 7,-1,
		 7, 6, 5, 4,-1,
		]
	} #IndexedFaceSet
} #Polyhedron
Separator { #Polyhedron
	DEF COORD10 Coordinate3 {
		point [
		 -6.2907 0.2858 -0.2958,
		 -6.2907 0.2858 -0.0672,
		 -6.2932 0.2845 -0.0672,
		 -6.2932 0.2845 -0.2958,
		 -6.3683 0.5144 -0.2958,
		 -6.3683 0.5144 -0.0672,
		 -6.3708 0.5130 -0.0672,
		 -6.3708 0.5130 -0.2958
		]
	} #Coordinate3
	Material {
		ambientColor      0.2363 0.2363 0.2363  #ambientColor
		diffuseColor      0.9451 0.9451 0.9451  #diffuseColor
		transparency      0.0000                #transparency
	} #Material

	IndexedFaceSet {
		coordIndex [ 
		 3, 2, 1, 0,-1,
		 0, 1, 2, 3,-1,
		 4, 7, 3, 0,-1,
		 0, 3, 7, 4,-1,
		 5, 4, 0, 1,-1,
		 1, 0, 4, 5,-1,
		 6, 5, 1, 2,-1,
		 2, 1, 5, 6,-1,
		 7, 6, 2, 3,-1,
		 3, 2, 6, 7,-1,
		 4, 5, 6, 7,-1,
		 7, 6, 5, 4,-1,
		]
	} #IndexedFaceSet
} #Polyhedron
Separator { #Polyhedron
	DEF COORD11 Coordinate3 {
		point [
		 -6.3732 0.0576 -0.2958,
		 -6.3732 0.0576 -0.0672,
		 -6.3760 0.0581 -0.0672,
		 -6.3760 0.0581 -0.2958,
		 -6.2897 0.2841 -0.2958,
		 -6.2897 0.2841 -0.0672,
		 -6.2925 0.2846 -0.0672,
		 -6.2925 0.2846 -0.2958
		]
	} #Coordinate3
	Material {
		ambientColor      0.2363 0.2363 0.2363  #ambientColor
		diffuseColor      0.9451 0.9451 0.9451  #diffuseColor
		transparency      0.0000                #transparency
	} #Material

	IndexedFaceSet {
		coordIndex [ 
		 3, 2, 1, 0,-1,
		 0, 1, 2, 3,-1,
		 4, 7, 3, 0,-1,
		 0, 3, 7, 4,-1,
		 5, 4, 0, 1,-1,
		 1, 0, 4, 5,-1,
		 6, 5, 1, 2,-1,
		 2, 1, 5, 6,-1,
		 7, 6, 2, 3,-1,
		 3, 2, 6, 7,-1,
		 4, 5, 6, 7,-1,
		 7, 6, 5, 4,-1,
		]
	} #IndexedFaceSet
} #Polyhedron
}
