#VRML V1.0 ascii

Separator {
	Info { string "Virtus VRML 1.0.1
	VRML Export Filter
	Virtus Corporation
	114 MacKenan Drive, Suite 100
	Cary, NC 27511
	919-467-9700"}

	DEF BackgroundColor Info{  # Sky color
		string " 0.3 0.8 1.0 "
	}

	DirectionalLight {
		on         TRUE          # SFBool
		intensity  1.0           # SFFloat
		color      0.4 0.4 0.4   # SFColor
		direction  0 0 0   # SFVec3f
	}

	DirectionalLight {
		on         TRUE          # SFBool
		intensity  1.0           # SFFloat
		color      0.5 0.5 0.5   # SFColor
		direction  34 -247 -57   # SFVec3f
	}

	DirectionalLight {
		on         TRUE          # SFBool
		intensity  1.0           # SFFloat
		color      0.4 0.4 0.4   # SFColor
		direction  -209 -104 105   # SFVec3f
	}

	DirectionalLight {
		on         TRUE          # SFBool
		intensity  1.0           # SFFloat
		color      0.5 0.5 0.5   # SFColor
		direction  5 119 -226   # SFVec3f
	}

	PerspectiveCamera {
		position 47.5235 2.6924 -2.6416          #SFVec3f 
		orientation 1 0 0  6.1624     #SFRotation 
		orientation 0 1 0  1.5713     #SFRotation 
		focalDistance  5            #SFFloat 
		heightAngle 2.1726 
	}

	ShapeHints {
		vertexOrdering	CLOCKWISE
		shapeType	SOLID
	}

	Transform {
		translation 0 0 0
		scaleFactor 1.0 1.0 1.0
	}

Separator { #Polyhedron
	DEF COORD0 Coordinate3 {
		point [
		 0.0000 0.0000 -81.0770,
		 57.0253 0.0000 -57.2038,
		 80.4674 0.0000 0.0000,
		 56.5942 0.0000 57.0253,
		 -0.6096 0.0000 80.4674,
		 -57.6349 0.0000 56.5942,
		 -81.0770 0.0000 -0.6096,
		 -57.2038 0.0000 -57.6349,
		 0.0000 -0.9144 -81.0770,
		 57.0253 -0.9144 -57.2038,
		 80.4674 -0.9144 0.0000,
		 56.5942 -0.9144 57.0253,
		 -0.6096 -0.9144 80.4674,
		 -57.6349 -0.9144 56.5942,
		 -81.0770 -0.9144 -0.6096,
		 -57.2038 -0.9144 -57.6349,
		 80.2972 0.0000 0.4064,
		 -80.6606 0.0000 0.4064,
		 -78.0290 0.0000 -5.4864,
		 -78.0290 0.0000 0.4064,
		 -79.0353 0.0000 -5.4864,
		 -79.0353 0.0000 -5.4864,
		 78.2190 0.0000 -5.4864,
		 78.0290 0.0000 0.4064,
		 78.0290 0.0000 -5.4864,
		 78.2190 0.0000 -5.4864,
		 80.2972 0.0000 0.4064,
		 78.0290 0.0000 -2.4384,
		 -78.0290 0.0000 -2.4384,
		 -75.9462 0.0000 -2.7941,
		 -75.9462 0.0000 -2.4384,
		 -78.0290 0.0000 -2.7941,
		 -78.0290 0.0000 -2.7941,
		 78.0290 0.0000 -2.7941,
		 -71.0693 0.0000 -2.7941,
		 -71.0693 0.0000 -2.4384,
		 -73.4569 0.0000 -2.4384,
		 -73.4569 0.0000 -2.7941,
		 -66.1925 0.0000 -2.7941,
		 -66.1925 0.0000 -2.4384,
		 -68.5801 0.0000 -2.4384,
		 -68.5801 0.0000 -2.7941,
		 -61.3157 0.0000 -2.7941,
		 -61.3157 0.0000 -2.4384,
		 -63.7033 0.0000 -2.4384,
		 -63.7033 0.0000 -2.7941,
		 -56.4389 0.0000 -2.7941,
		 -56.4389 0.0000 -2.4384,
		 -58.8265 0.0000 -2.4384,
		 -58.8265 0.0000 -2.7941,
		 -51.5621 0.0000 -2.7941,
		 -51.5621 0.0000 -2.4384,
		 -53.9497 0.0000 -2.4384,
		 -53.9497 0.0000 -2.7941,
		 -46.6853 0.0000 -2.7941,
		 -46.6853 0.0000 -2.4384,
		 -49.0729 0.0000 -2.4384,
		 -49.0729 0.0000 -2.7941,
		 -41.8085 0.0000 -2.7941,
		 -41.8085 0.0000 -2.4384,
		 -44.1961 0.0000 -2.4384,
		 -44.1961 0.0000 -2.7941,
		 -36.9317 0.0000 -2.7941,
		 -36.9317 0.0000 -2.4384,
		 -39.3193 0.0000 -2.4384,
		 -39.3193 0.0000 -2.7941,
		 -32.0549 0.0000 -2.7941,
		 -32.0549 0.0000 -2.4384,
		 -34.4425 0.0000 -2.4384,
		 -34.4425 0.0000 -2.7941,
		 -27.1781 0.0000 -2.7941,
		 -27.1781 0.0000 -2.4384,
		 -29.5657 0.0000 -2.4384,
		 -29.5657 0.0000 -2.7941,
		 -22.3012 0.0000 -2.7941,
		 -22.3012 0.0000 -2.4384,
		 -24.6888 0.0000 -2.4384,
		 -24.6888 0.0000 -2.7941,
		 -17.4244 0.0000 -2.7941,
		 -17.4244 0.0000 -2.4384,
		 -19.8120 0.0000 -2.4384,
		 -19.8120 0.0000 -2.7941,
		 -12.5476 0.0000 -2.7941,
		 -12.5476 0.0000 -2.4384,
		 -14.9352 0.0000 -2.4384,
		 -14.9352 0.0000 -2.7941,
		 -7.6708 0.0000 -2.7941,
		 -7.6708 0.0000 -2.4384,
		 -10.0584 0.0000 -2.4384,
		 -10.0584 0.0000 -2.7941,
		 -2.7940 0.0000 -2.7941,
		 -2.7940 0.0000 -2.4384,
		 -5.1816 0.0000 -2.4384,
		 -5.1816 0.0000 -2.7941,
		 2.0828 0.0000 -2.7941,
		 2.0828 0.0000 -2.4384,
		 -0.3048 0.0000 -2.4384,
		 -0.3048 0.0000 -2.7941,
		 6.9596 0.0000 -2.7941,
		 6.9596 0.0000 -2.4384,
		 4.5720 0.0000 -2.4384,
		 4.5720 0.0000 -2.7941,
		 11.8364 0.0000 -2.7941,
		 11.8364 0.0000 -2.4384,
		 9.4488 0.0000 -2.4384,
		 9.4488 0.0000 -2.7941,
		 16.7132 0.0000 -2.7941,
		 16.7132 0.0000 -2.4384,
		 14.3256 0.0000 -2.4384,
		 14.3256 0.0000 -2.7941,
		 21.5900 0.0000 -2.7941,
		 21.5900 0.0000 -2.4384,
		 19.2024 0.0000 -2.4384,
		 19.2024 0.0000 -2.7941,
		 26.4669 0.0000 -2.7941,
		 26.4669 0.0000 -2.4384,
		 24.0792 0.0000 -2.4384,
		 24.0792 0.0000 -2.7941,
		 31.3437 0.0000 -2.7941,
		 31.3437 0.0000 -2.4384,
		 28.9561 0.0000 -2.4384,
		 28.9561 0.0000 -2.7941,
		 36.2205 0.0000 -2.7941,
		 36.2205 0.0000 -2.4384,
		 33.8329 0.0000 -2.4384,
		 33.8329 0.0000 -2.7941,
		 41.0973 0.0000 -2.7941,
		 41.0973 0.0000 -2.4384,
		 38.7097 0.0000 -2.4384,
		 38.7097 0.0000 -2.7941,
		 45.9741 0.0000 -2.7941,
		 45.9741 0.0000 -2.4384,
		 43.5865 0.0000 -2.4384,
		 43.5865 0.0000 -2.7941,
		 50.8509 0.0000 -2.7941,
		 50.8509 0.0000 -2.4384,
		 48.4633 0.0000 -2.4384,
		 48.4633 0.0000 -2.7941,
		 55.7277 0.0000 -2.7941,
		 55.7277 0.0000 -2.4384,
		 53.3401 0.0000 -2.4384,
		 53.3401 0.0000 -2.7941,
		 60.6045 0.0000 -2.7941,
		 60.6045 0.0000 -2.4384,
		 58.2169 0.0000 -2.4384,
		 58.2169 0.0000 -2.7941,
		 65.4813 0.0000 -2.7941,
		 65.4813 0.0000 -2.4384,
		 63.0937 0.0000 -2.4384,
		 63.0937 0.0000 -2.7941,
		 70.3581 0.0000 -2.7941,
		 70.3581 0.0000 -2.4384,
		 67.9705 0.0000 -2.4384,
		 67.9705 0.0000 -2.7941,
		 72.8473 0.0000 -2.4384,
		 72.8473 0.0000 -2.7941,
		 78.0290 0.0000 -2.7941,
		 78.0290 0.0000 -2.4384
		]
	} #Coordinate3
	Material {
		ambientColor      0.0000 0.1951 0.0000  #ambientColor
		diffuseColor      0.0000 0.7804 0.0000  #diffuseColor
		transparency      0.0000                #transparency
	} #Material

	IndexedFaceSet {
		coordIndex [ 
		 16, 3, 4, 5, 17,-1,
		 18, 19, 17, 6, 20,-1,
		 21, 7, 0, 1, 22,-1,
		 23, 24, 25, 2, 26,-1,
		]
	} #IndexedFaceSet
	Material {
		ambientColor      0.0833 0.0833 0.0833  #ambientColor
		diffuseColor      0.3333 0.3333 0.3333  #diffuseColor
		transparency      0.0000                #transparency
	} #Material

	IndexedFaceSet {
		coordIndex [ 
		 27, 23, 19, 28,-1,
		 29, 30, 28, 31,-1,
		 32, 18, 24, 33,-1,
		 34, 35, 36, 37,-1,
		 38, 39, 40, 41,-1,
		 42, 43, 44, 45,-1,
		 46, 47, 48, 49,-1,
		 50, 51, 52, 53,-1,
		 54, 55, 56, 57,-1,
		 58, 59, 60, 61,-1,
		 62, 63, 64, 65,-1,
		 66, 67, 68, 69,-1,
		 70, 71, 72, 73,-1,
		 74, 75, 76, 77,-1,
		 78, 79, 80, 81,-1,
		 82, 83, 84, 85,-1,
		 86, 87, 88, 89,-1,
		 90, 91, 92, 93,-1,
		 94, 95, 96, 97,-1,
		 98, 99, 100, 101,-1,
		 102, 103, 104, 105,-1,
		 106, 107, 108, 109,-1,
		 110, 111, 112, 113,-1,
		 114, 115, 116, 117,-1,
		 118, 119, 120, 121,-1,
		 122, 123, 124, 125,-1,
		 126, 127, 128, 129,-1,
		 130, 131, 132, 133,-1,
		 134, 135, 136, 137,-1,
		 138, 139, 140, 141,-1,
		 142, 143, 144, 145,-1,
		 146, 147, 148, 149,-1,
		 150, 151, 152, 153,-1,
		 154, 155, 156, 157,-1,
		]
	} #IndexedFaceSet
	Material {
		ambientColor      0.2500 0.2500 0.0000  #ambientColor
		diffuseColor      1.0000 1.0000 0.0000  #diffuseColor
		transparency      0.0000                #transparency
	} #Material

	IndexedFaceSet {
		coordIndex [ 
		 30, 29, 37, 36,-1,
		 35, 34, 41, 40,-1,
		 39, 38, 45, 44,-1,
		 43, 42, 49, 48,-1,
		 47, 46, 53, 52,-1,
		 51, 50, 57, 56,-1,
		 55, 54, 61, 60,-1,
		 59, 58, 65, 64,-1,
		 63, 62, 69, 68,-1,
		 67, 66, 73, 72,-1,
		 71, 70, 77, 76,-1,
		 75, 74, 81, 80,-1,
		 79, 78, 85, 84,-1,
		 83, 82, 89, 88,-1,
		 87, 86, 93, 92,-1,
		 91, 90, 97, 96,-1,
		 95, 94, 101, 100,-1,
		 99, 98, 105, 104,-1,
		 103, 102, 109, 108,-1,
		 107, 106, 113, 112,-1,
		 111, 110, 117, 116,-1,
		 115, 114, 121, 120,-1,
		 119, 118, 125, 124,-1,
		 123, 122, 129, 128,-1,
		 127, 126, 133, 132,-1,
		 131, 130, 137, 136,-1,
		 135, 134, 141, 140,-1,
		 139, 138, 145, 144,-1,
		 143, 142, 149, 148,-1,
		 147, 146, 153, 152,-1,
		 151, 150, 155, 154,-1,
		]
	} #IndexedFaceSet
	Material {
		ambientColor      0.0000 0.1951 0.0000  #ambientColor
		diffuseColor      0.0000 0.7804 0.0000  #diffuseColor
		transparency      0.0000                #transparency
	} #Material

	IndexedFaceSet {
		coordIndex [ 
		 7, 6, 5, 4, 3, 2, 1, 0,-1,
		 0, 7, 15, 8,-1,
		 8, 15, 7, 0,-1,
		 1, 0, 8, 9,-1,
		 9, 8, 0, 1,-1,
		 2, 1, 9, 10,-1,
		 10, 9, 1, 2,-1,
		 3, 2, 10, 11,-1,
		 11, 10, 2, 3,-1,
		 4, 3, 11, 12,-1,
		 12, 11, 3, 4,-1,
		 5, 4, 12, 13,-1,
		 13, 12, 4, 5,-1,
		 6, 5, 13, 14,-1,
		 14, 13, 5, 6,-1,
		 7, 6, 14, 15,-1,
		 15, 14, 6, 7,-1,
		 15, 14, 13, 12, 11, 10, 9, 8,-1,
		 8, 9, 10, 11, 12, 13, 14, 15,-1,
		]
	} #IndexedFaceSet
} #Polyhedron
Separator { #Polyhedron
	DEF COORD1 Coordinate3 {
		point [
		 -4.9558 0.2286 -0.2638,
		 -4.8691 0.1116 -0.2638,
		 -4.7321 0.0290 -0.2638,
		 -4.5706 0.0000 -0.2638,
		 -4.4090 0.0290 -0.2638,
		 -4.2720 0.1116 -0.2638,
		 -4.1850 0.2286 -0.2638,
		 -4.9558 0.2286 -0.1016,
		 -4.8691 0.1116 -0.1016,
		 -4.7321 0.0290 -0.1016,
		 -4.5706 0.0000 -0.1016,
		 -4.4090 0.0290 -0.1016,
		 -4.2720 0.1116 -0.1016,
		 -4.1850 0.2286 -0.1016
		]
	} #Coordinate3
	Material {
		ambientColor      0.0000 0.0000 0.0000  #ambientColor
		diffuseColor      0.0000 0.0000 0.0000  #diffuseColor
		transparency      0.0000                #transparency
	} #Material

	IndexedFaceSet {
		coordIndex [ 
		 0, 1, 2, 3, 4, 5, 6,-1,
		 6, 5, 4, 3, 2, 1, 0,-1,
		 0, 6, 13, 7,-1,
		 7, 13, 6, 0,-1,
		 1, 0, 7, 8,-1,
		 8, 7, 0, 1,-1,
		 2, 1, 8, 9,-1,
		 9, 8, 1, 2,-1,
		 3, 2, 9, 10,-1,
		 10, 9, 2, 3,-1,
		 4, 3, 10, 11,-1,
		 11, 10, 3, 4,-1,
		 5, 4, 11, 12,-1,
		 12, 11, 4, 5,-1,
		 6, 5, 12, 13,-1,
		 13, 12, 5, 6,-1,
		 13, 12, 11, 10, 9, 8, 7,-1,
		 7, 8, 9, 10, 11, 12, 13,-1,
		]
	} #IndexedFaceSet
} #Polyhedron
Separator { #Polyhedron
	DEF COORD2 Coordinate3 {
		point [
		 -4.5706 0.0000 -0.1016,
		 -4.4090 0.0290 -0.1016,
		 -4.2720 0.1116 -0.1016,
		 -4.1805 0.2352 -0.1016,
		 -4.1484 0.3810 -0.1016,
		 -4.1805 0.5268 -0.1016,
		 -4.2720 0.6504 -0.1016,
		 -4.4090 0.7330 -0.1016,
		 -4.5706 0.7620 -0.1016,
		 -4.7321 0.7330 -0.1016,
		 -4.8691 0.6504 -0.1016,
		 -4.9606 0.5268 -0.1016,
		 -4.9928 0.3810 -0.1016,
		 -4.9606 0.2352 -0.1016,
		 -4.8691 0.1116 -0.1016,
		 -4.7321 0.0290 -0.1016,
		 -4.5706 0.0000 -0.0611,
		 -4.4090 0.0290 -0.0611,
		 -4.2720 0.1116 -0.0611,
		 -4.1805 0.2352 -0.0611,
		 -4.1484 0.3810 -0.0611,
		 -4.1805 0.5268 -0.0611,
		 -4.2720 0.6504 -0.0611,
		 -4.4090 0.7330 -0.0611,
		 -4.5706 0.7620 -0.0611,
		 -4.7321 0.7330 -0.0611,
		 -4.8691 0.6504 -0.0611,
		 -4.9606 0.5268 -0.0611,
		 -4.9928 0.3810 -0.0611,
		 -4.9606 0.2352 -0.0611,
		 -4.8691 0.1116 -0.0611,
		 -4.7321 0.0290 -0.0611,
		 -4.9181 0.5842 -0.0611,
		 -4.2230 0.5842 -0.0611,
		 -4.9260 0.5736 -0.0611,
		 -4.5565 0.5842 -0.0611,
		 -4.6438 0.5736 -0.0611,
		 -4.9556 0.5336 -0.0611,
		 -4.7199 0.5336 -0.0611,
		 -4.9730 0.4705 -0.0611,
		 -4.7732 0.4705 -0.0611,
		 -4.9900 0.3937 -0.0611,
		 -4.7957 0.3937 -0.0611,
		 -4.9782 0.3149 -0.0611,
		 -4.7840 0.3149 -0.0611,
		 -4.9631 0.2463 -0.0611,
		 -4.7397 0.2463 -0.0611,
		 -4.9332 0.1981 -0.0611,
		 -4.6697 0.1981 -0.0611,
		 -4.9181 0.1778 -0.0611,
		 -4.5846 0.1778 -0.0611,
		 -4.2230 0.1778 -0.0611,
		 -4.9181 0.1778 -0.0611,
		 -4.2152 0.1884 -0.0611,
		 -4.4974 0.1884 -0.0611,
		 -4.1856 0.2283 -0.0611,
		 -4.4213 0.2283 -0.0611,
		 -4.1681 0.2915 -0.0611,
		 -4.3679 0.2915 -0.0611,
		 -4.1512 0.3683 -0.0611,
		 -4.3454 0.3683 -0.0611,
		 -4.1629 0.4470 -0.0611,
		 -4.3572 0.4470 -0.0611,
		 -4.1781 0.5157 -0.0611,
		 -4.4014 0.5157 -0.0611,
		 -4.2080 0.5639 -0.0611,
		 -4.4714 0.5639 -0.0611,
		 -4.2230 0.5842 -0.0611,
		 -4.2230 0.5842 -0.0611,
		 -4.9181 0.5842 -0.0611,
		 -4.9260 0.5736 -0.0611,
		 -4.9556 0.5336 -0.0611,
		 -4.9730 0.4705 -0.0611,
		 -4.9900 0.3937 -0.0611,
		 -4.9782 0.3149 -0.0611,
		 -4.9631 0.2463 -0.0611,
		 -4.9332 0.1981 -0.0611,
		 -4.9181 0.1778 -0.0611,
		 -4.9181 0.1778 -0.0611,
		 -4.2230 0.1778 -0.0611,
		 -4.2152 0.1884 -0.0611,
		 -4.1856 0.2283 -0.0611,
		 -4.1681 0.2915 -0.0611,
		 -4.1512 0.3683 -0.0611,
		 -4.1629 0.4470 -0.0611,
		 -4.1781 0.5157 -0.0611,
		 -4.2080 0.5639 -0.0611,
		 -4.2230 0.5842 -0.0611
		]
	} #Coordinate3
	Material {
		ambientColor      0.0000 0.0000 0.0000  #ambientColor
		diffuseColor      0.0000 0.0000 0.0000  #diffuseColor
		transparency      0.0000                #transparency
	} #Material

	IndexedFaceSet {
		coordIndex [ 
		 0, 1, 2, 3, 4, 5, 6, 7, 8, 9, 10, 11, 12, 13, 14, 15,-1,
		 15, 14, 13, 12, 11, 10, 9, 8, 7, 6, 5, 4, 3, 2, 1, 0,-1,
		 0, 15, 31, 16,-1,
		 16, 31, 15, 0,-1,
		 1, 0, 16, 17,-1,
		 17, 16, 0, 1,-1,
		 2, 1, 17, 18,-1,
		 18, 17, 1, 2,-1,
		 3, 2, 18, 19,-1,
		 19, 18, 2, 3,-1,
		 4, 3, 19, 20,-1,
		 20, 19, 3, 4,-1,
		 5, 4, 20, 21,-1,
		 21, 20, 4, 5,-1,
		 6, 5, 21, 22,-1,
		 22, 21, 5, 6,-1,
		 7, 6, 22, 23,-1,
		 23, 22, 6, 7,-1,
		 8, 7, 23, 24,-1,
		 24, 23, 7, 8,-1,
		 9, 8, 24, 25,-1,
		 25, 24, 8, 9,-1,
		 10, 9, 25, 26,-1,
		 26, 25, 9, 10,-1,
		 11, 10, 26, 27,-1,
		 27, 26, 10, 11,-1,
		 12, 11, 27, 28,-1,
		 28, 27, 11, 12,-1,
		 13, 12, 28, 29,-1,
		 29, 28, 12, 13,-1,
		 14, 13, 29, 30,-1,
		 30, 29, 13, 14,-1,
		 15, 14, 30, 31,-1,
		 31, 30, 14, 15,-1,
		 32, 26, 25, 24, 23, 22, 33,-1,
		 34, 32, 35, 36,-1,
		 37, 34, 36, 38,-1,
		 39, 27, 37, 38, 40,-1,
		 41, 39, 40, 42,-1,
		 43, 28, 41, 42, 44,-1,
		 45, 43, 44, 46,-1,
		 47, 29, 45, 46, 48,-1,
		 49, 47, 48, 50,-1,
		 51, 18, 17, 16, 31, 30, 52,-1,
		 53, 51, 50, 54,-1,
		 55, 53, 54, 56,-1,
		 57, 19, 55, 56, 58,-1,
		 59, 57, 58, 60,-1,
		 61, 20, 59, 60, 62,-1,
		 63, 61, 62, 64,-1,
		 65, 21, 63, 64, 66,-1,
		 67, 65, 66, 35,-1,
		]
	} #IndexedFaceSet
	Material {
		ambientColor      0.2088 0.2088 0.2088  #ambientColor
		diffuseColor      0.8353 0.8353 0.8353  #diffuseColor
		transparency      0.0000                #transparency
	} #Material

	IndexedFaceSet {
		coordIndex [ 
		 60, 58, 56, 54, 50, 48, 46, 44, 42, 40, 38, 36, 35, 66, 64, 62,-1,
		]
	} #IndexedFaceSet
	Material {
		ambientColor      0.0000 0.0000 0.0000  #ambientColor
		diffuseColor      0.0000 0.0000 0.0000  #diffuseColor
		transparency      0.0000                #transparency
	} #Material

	IndexedFaceSet {
		coordIndex [ 
		 68, 22, 23, 24, 25, 26, 69,-1,
		 36, 35, 69, 70,-1,
		 38, 36, 70, 71,-1,
		 40, 38, 71, 27, 72,-1,
		 42, 40, 72, 73,-1,
		 44, 42, 73, 28, 74,-1,
		 46, 44, 74, 75,-1,
		 48, 46, 75, 29, 76,-1,
		 50, 48, 76, 77,-1,
		 78, 30, 31, 16, 17, 18, 79,-1,
		 54, 50, 79, 80,-1,
		 56, 54, 80, 81,-1,
		 58, 56, 81, 19, 82,-1,
		 60, 58, 82, 83,-1,
		 62, 60, 83, 20, 84,-1,
		 64, 62, 84, 85,-1,
		 66, 64, 85, 21, 86,-1,
		 35, 66, 86, 87,-1,
		]
	} #IndexedFaceSet
	Material {
		ambientColor      0.2088 0.2088 0.2088  #ambientColor
		diffuseColor      0.8353 0.8353 0.8353  #diffuseColor
		transparency      0.0000                #transparency
	} #Material

	IndexedFaceSet {
		coordIndex [ 
		 62, 64, 66, 35, 36, 38, 40, 42, 44, 46, 48, 50, 54, 56, 58, 60,-1,
		]
	} #IndexedFaceSet
} #Polyhedron
Separator { #Polyhedron
	DEF COORD3 Coordinate3 {
		point [
		 -4.1854 0.2286 -1.6428,
		 -4.2720 0.1116 -1.6428,
		 -4.4090 0.0290 -1.6428,
		 -4.5706 0.0000 -1.6428,
		 -4.7321 0.0290 -1.6428,
		 -4.8691 0.1116 -1.6428,
		 -4.9561 0.2286 -1.6428,
		 -4.1854 0.2286 -1.8050,
		 -4.2720 0.1116 -1.8050,
		 -4.4090 0.0290 -1.8050,
		 -4.5706 0.0000 -1.8050,
		 -4.7321 0.0290 -1.8050,
		 -4.8691 0.1116 -1.8050,
		 -4.9561 0.2286 -1.8050
		]
	} #Coordinate3
	Material {
		ambientColor      0.0000 0.0000 0.0000  #ambientColor
		diffuseColor      0.0000 0.0000 0.0000  #diffuseColor
		transparency      0.0000                #transparency
	} #Material

	IndexedFaceSet {
		coordIndex [ 
		 0, 1, 2, 3, 4, 5, 6,-1,
		 6, 5, 4, 3, 2, 1, 0,-1,
		 0, 6, 13, 7,-1,
		 7, 13, 6, 0,-1,
		 1, 0, 7, 8,-1,
		 8, 7, 0, 1,-1,
		 2, 1, 8, 9,-1,
		 9, 8, 1, 2,-1,
		 3, 2, 9, 10,-1,
		 10, 9, 2, 3,-1,
		 4, 3, 10, 11,-1,
		 11, 10, 3, 4,-1,
		 5, 4, 11, 12,-1,
		 12, 11, 4, 5,-1,
		 6, 5, 12, 13,-1,
		 13, 12, 5, 6,-1,
		 13, 12, 11, 10, 9, 8, 7,-1,
		 7, 8, 9, 10, 11, 12, 13,-1,
		]
	} #IndexedFaceSet
} #Polyhedron
Separator { #Polyhedron
	DEF COORD4 Coordinate3 {
		point [
		 -1.1562 0.2286 -0.2638,
		 -1.0696 0.1116 -0.2638,
		 -0.9326 0.0290 -0.2638,
		 -0.7710 0.0000 -0.2638,
		 -0.6095 0.0290 -0.2638,
		 -0.4725 0.1116 -0.2638,
		 -0.3855 0.2286 -0.2638,
		 -1.1562 0.2286 -0.1016,
		 -1.0696 0.1116 -0.1016,
		 -0.9326 0.0290 -0.1016,
		 -0.7710 0.0000 -0.1016,
		 -0.6095 0.0290 -0.1016,
		 -0.4725 0.1116 -0.1016,
		 -0.3855 0.2286 -0.1016
		]
	} #Coordinate3
	Material {
		ambientColor      0.0000 0.0000 0.0000  #ambientColor
		diffuseColor      0.0000 0.0000 0.0000  #diffuseColor
		transparency      0.0000                #transparency
	} #Material

	IndexedFaceSet {
		coordIndex [ 
		 0, 1, 2, 3, 4, 5, 6,-1,
		 6, 5, 4, 3, 2, 1, 0,-1,
		 0, 6, 13, 7,-1,
		 7, 13, 6, 0,-1,
		 1, 0, 7, 8,-1,
		 8, 7, 0, 1,-1,
		 2, 1, 8, 9,-1,
		 9, 8, 1, 2,-1,
		 3, 2, 9, 10,-1,
		 10, 9, 2, 3,-1,
		 4, 3, 10, 11,-1,
		 11, 10, 3, 4,-1,
		 5, 4, 11, 12,-1,
		 12, 11, 4, 5,-1,
		 6, 5, 12, 13,-1,
		 13, 12, 5, 6,-1,
		 13, 12, 11, 10, 9, 8, 7,-1,
		 7, 8, 9, 10, 11, 12, 13,-1,
		]
	} #IndexedFaceSet
} #Polyhedron
Separator { #Polyhedron
	DEF COORD5 Coordinate3 {
		point [
		 -0.3858 0.2286 -1.6428,
		 -0.4725 0.1116 -1.6428,
		 -0.6095 0.0290 -1.6428,
		 -0.7710 0.0000 -1.6428,
		 -0.9326 0.0290 -1.6428,
		 -1.0696 0.1116 -1.6428,
		 -1.1566 0.2286 -1.6428,
		 -0.3858 0.2286 -1.8050,
		 -0.4725 0.1116 -1.8050,
		 -0.6095 0.0290 -1.8050,
		 -0.7710 0.0000 -1.8050,
		 -0.9326 0.0290 -1.8050,
		 -1.0696 0.1116 -1.8050,
		 -1.1566 0.2286 -1.8050
		]
	} #Coordinate3
	Material {
		ambientColor      0.0000 0.0000 0.0000  #ambientColor
		diffuseColor      0.0000 0.0000 0.0000  #diffuseColor
		transparency      0.0000                #transparency
	} #Material

	IndexedFaceSet {
		coordIndex [ 
		 0, 1, 2, 3, 4, 5, 6,-1,
		 6, 5, 4, 3, 2, 1, 0,-1,
		 0, 6, 13, 7,-1,
		 7, 13, 6, 0,-1,
		 1, 0, 7, 8,-1,
		 8, 7, 0, 1,-1,
		 2, 1, 8, 9,-1,
		 9, 8, 1, 2,-1,
		 3, 2, 9, 10,-1,
		 10, 9, 2, 3,-1,
		 4, 3, 10, 11,-1,
		 11, 10, 3, 4,-1,
		 5, 4, 11, 12,-1,
		 12, 11, 4, 5,-1,
		 6, 5, 12, 13,-1,
		 13, 12, 5, 6,-1,
		 13, 12, 11, 10, 9, 8, 7,-1,
		 7, 8, 9, 10, 11, 12, 13,-1,
		]
	} #IndexedFaceSet
} #Polyhedron
Separator { #Polyhedron
	DEF COORD6 Coordinate3 {
		point [
		 -4.5705 0.9906 -1.8050,
		 -6.0060 0.8382 -1.8050,
		 -6.0060 0.3048 -1.8050,
		 -5.0772 0.2286 -1.8050,
		 -4.5705 0.2286 -1.8050,
		 -4.5705 0.9906 -0.1016,
		 -6.0060 0.8382 -0.1016,
		 -6.0060 0.3048 -0.1016,
		 -5.0772 0.2286 -0.1016,
		 -4.5705 0.2286 -0.1016,
		 -5.0273 0.9421 -1.8050,
		 -6.0060 0.6477 -1.8050,
		 -5.0273 0.9421 -0.1016,
		 -6.0060 0.6477 -0.1016,
		 -6.0060 0.6095 -1.8050,
		 -6.0060 0.6095 -0.1016,
		 -6.0060 0.4952 -1.8050,
		 -6.0060 0.6095 -1.8050,
		 -6.0060 0.6095 -1.6293,
		 -6.0060 0.4952 -1.6293,
		 -6.0060 0.4191 -1.8050,
		 -6.0060 0.4952 -1.8050,
		 -6.0060 0.4952 -1.1156,
		 -6.0060 0.4191 -1.1156,
		 -6.0060 0.4191 -0.1016,
		 -6.0060 0.4191 -1.8050,
		 -6.0060 0.4952 -0.1016,
		 -6.0060 0.4191 -0.7911,
		 -6.0060 0.4952 -0.7911,
		 -6.0060 0.4952 -1.5076,
		 -6.0060 0.6095 -1.5076,
		 -6.0060 0.6095 -1.4670,
		 -6.0060 0.4952 -1.4670,
		 -6.0060 0.4952 -1.3454,
		 -6.0060 0.6095 -1.3454,
		 -6.0060 0.6095 -1.3454,
		 -6.0060 0.6095 -0.4396,
		 -6.0060 0.6095 -1.3454,
		 -6.0060 0.6095 -1.1156,
		 -6.0060 0.4952 -1.1156,
		 -6.0060 0.6095 -0.5613,
		 -6.0060 0.4952 -0.5613,
		 -6.0060 0.4952 -0.7911,
		 -6.0060 0.6095 -0.7911,
		 -6.0060 0.4952 -0.4396,
		 -6.0060 0.6095 -0.4396,
		 -6.0060 0.6095 -0.3991,
		 -6.0060 0.4952 -0.3991,
		 -6.0060 0.6095 -0.1016,
		 -6.0060 0.4952 -0.2774,
		 -6.0060 0.6095 -0.2774,
		 -6.0060 0.6095 -1.5076,
		 -6.0060 0.6095 -1.3454,
		 -6.0060 0.6095 -1.4670,
		 -6.0060 0.4952 -0.4396,
		 -6.0060 0.4952 -0.5613,
		 -6.0060 0.4952 -0.2774,
		 -6.0060 0.4952 -0.3991,
		 -6.0060 0.6095 -0.7911,
		 -6.0060 0.6095 -1.1156,
		 -6.0060 0.6095 -0.1016,
		 -6.0060 0.6095 -1.8050,
		 -6.0060 0.6095 -1.8050,
		 -6.0060 0.4952 -1.8050,
		 -6.0060 0.4952 -1.1156,
		 -6.0060 0.4952 -1.8050,
		 -6.0060 0.4191 -1.8050,
		 -6.0060 0.4191 -1.8050,
		 -6.0060 0.4191 -0.1016,
		 -6.0060 0.4952 -0.7911,
		 -6.0060 0.4952 -0.1016,
		 -6.0060 0.6095 -1.4670,
		 -6.0060 0.6095 -1.5076,
		 -6.0060 0.6095 -1.3454,
		 -6.0060 0.6095 -1.3454,
		 -6.0060 0.4952 -1.1156,
		 -6.0060 0.6095 -1.1156,
		 -6.0060 0.6095 -1.3454,
		 -6.0060 0.6095 -0.7911,
		 -6.0060 0.4952 -0.7911,
		 -6.0060 0.4952 -0.5613,
		 -6.0060 0.4952 -0.3991,
		 -6.0060 0.6095 -0.4396,
		 -6.0060 0.4952 -0.4396,
		 -6.0060 0.4952 -0.2774,
		 -6.0060 0.6095 -0.1016
		]
	} #Coordinate3
	Material {
		ambientColor      0.0696 0.0696 0.2500  #ambientColor
		diffuseColor      0.2784 0.2784 1.0000  #diffuseColor
		transparency      0.0000                #transparency
	} #Material

	IndexedFaceSet {
		coordIndex [ 
		 0, 10, 11, 2, 3, 4,-1,
		 4, 3, 2, 11, 10, 0,-1,
		 0, 4, 9, 5,-1,
		 5, 9, 4, 0,-1,
		 10, 0, 5, 12,-1,
		 12, 5, 0, 10,-1,
		 14, 11, 13, 15,-1,
		 16, 17, 18, 19,-1,
		 20, 21, 22, 23,-1,
		 24, 7, 2, 25,-1,
		 26, 24, 27, 28,-1,
		 29, 30, 31, 32,-1,
		 26, 29, 32, 33,-1,
		 34, 35, 36,-1,
		 33, 37, 38, 39,-1,
		 40, 41, 42, 43,-1,
		 44, 45, 46, 47,-1,
		 48, 26, 49, 50,-1,
		]
	} #IndexedFaceSet
	Material {
		ambientColor      0.2363 0.0000 0.0000  #ambientColor
		diffuseColor      0.9451 0.0000 0.0000  #diffuseColor
		transparency      0.0000                #transparency
	} #Material

	IndexedFaceSet {
		coordIndex [ 
		 51, 29, 19, 18,-1,
		 52, 33, 32, 53,-1,
		 36, 54, 55, 40,-1,
		 50, 56, 57, 46,-1,
		]
	} #IndexedFaceSet
	Material {
		ambientColor      0.0000 0.0000 0.1951  #ambientColor
		diffuseColor      0.0000 0.0000 0.7804  #diffuseColor
		transparency      0.0000                #transparency
	} #Material

	IndexedFaceSet {
		coordIndex [ 
		 58, 27, 23, 59,-1,
		]
	} #IndexedFaceSet
	Material {
		ambientColor      0.0696 0.0696 0.2500  #ambientColor
		diffuseColor      0.2784 0.2784 1.0000  #diffuseColor
		transparency      0.0000                #transparency
	} #Material

	IndexedFaceSet {
		coordIndex [ 
		 60, 13, 11, 61,-1,
		 19, 18, 62, 63,-1,
		 23, 64, 65, 66,-1,
		 67, 2, 7, 68,-1,
		 69, 27, 68, 70,-1,
		 32, 71, 72, 29,-1,
		 33, 32, 29, 70,-1,
		 36, 73, 74,-1,
		 75, 76, 77, 33,-1,
		 78, 79, 80, 40,-1,
		 81, 46, 82, 83,-1,
		 50, 84, 70, 85,-1,
		]
	} #IndexedFaceSet
	Material {
		ambientColor      0.2363 0.0000 0.0000  #ambientColor
		diffuseColor      0.9451 0.0000 0.0000  #diffuseColor
		transparency      0.0000                #transparency
	} #Material

	IndexedFaceSet {
		coordIndex [ 
		 18, 19, 29, 51,-1,
		 53, 32, 33, 52,-1,
		 40, 55, 54, 36,-1,
		 46, 57, 56, 50,-1,
		]
	} #IndexedFaceSet
	Material {
		ambientColor      0.0000 0.0000 0.1951  #ambientColor
		diffuseColor      0.0000 0.0000 0.7804  #diffuseColor
		transparency      0.0000                #transparency
	} #Material

	IndexedFaceSet {
		coordIndex [ 
		 59, 23, 27, 58,-1,
		]
	} #IndexedFaceSet
	Material {
		ambientColor      0.0696 0.0696 0.2500  #ambientColor
		diffuseColor      0.2784 0.2784 1.0000  #diffuseColor
		transparency      0.0000                #transparency
	} #Material

	IndexedFaceSet {
		coordIndex [ 
		 3, 2, 7, 8,-1,
		 8, 7, 2, 3,-1,
		 4, 3, 8, 9,-1,
		 9, 8, 3, 4,-1,
		 9, 8, 7, 13, 12, 5,-1,
		 5, 12, 13, 7, 8, 9,-1,
		 11, 10, 12, 13,-1,
		 13, 12, 10, 11,-1,
		]
	} #IndexedFaceSet
} #Polyhedron
Separator { #Polyhedron
	DEF COORD7 Coordinate3 {
		point [
		 -4.5706 0.2286 -1.8050,
		 -1.4465 0.2286 -1.8050,
		 -1.4465 0.9906 -1.8050,
		 -2.2064 1.6002 -1.8050,
		 -4.1484 1.6002 -1.8050,
		 -4.5706 0.9906 -1.8050,
		 -4.5706 0.2286 -0.1016,
		 -1.4465 0.2286 -0.1016,
		 -1.4465 0.9906 -0.1016,
		 -2.2064 1.6002 -0.1016,
		 -4.1484 1.6002 -0.1016,
		 -4.5706 0.9906 -0.1016,
		 -4.5706 0.9906 -0.1016,
		 -4.5706 0.9905 -0.1016,
		 -1.4465 0.9905 -0.1016,
		 -1.4465 0.9906 -0.1016,
		 -2.2064 1.6002 -0.2233,
		 -4.1484 1.6002 -0.2233,
		 -1.4465 0.9905 -1.8050,
		 -4.5706 0.9905 -1.8050,
		 -4.5706 0.9906 -1.8050,
		 -1.4465 0.9906 -1.8050,
		 -2.2064 1.6002 -1.6834,
		 -4.1484 1.6002 -1.6834,
		 -4.5706 0.3316 -1.8050,
		 -1.4465 0.3316 -1.8050,
		 -1.9943 0.9082 -1.8050,
		 -1.9943 0.3316 -1.8050,
		 -1.4465 0.3316 -1.8050,
		 -1.4465 0.9082 -1.8050,
		 -1.4465 0.9082 -1.8050,
		 -4.5706 0.9082 -1.8050,
		 -3.2676 0.9082 -1.8050,
		 -3.2676 0.3316 -1.8050,
		 -3.0439 0.3316 -1.8050,
		 -3.0439 0.9082 -1.8050,
		 -3.0439 0.9082 -1.8050,
		 -3.0439 0.9082 -1.8050,
		 -4.5706 0.9082 -1.8050,
		 -3.9522 0.3522 -1.8050,
		 -4.1575 0.9082 -1.8050,
		 -4.5706 0.9082 -1.8050,
		 -4.5706 0.3522 -1.8050,
		 -4.5706 0.3316 -1.8050,
		 -1.4465 0.9906 -0.1422,
		 -1.7001 1.1941 -0.1422,
		 -2.1718 1.5731 -0.2639,
		 -1.4465 0.9906 -0.1422,
		 -2.2064 1.6002 -0.2639,
		 -2.1718 1.5731 -1.6428,
		 -2.2064 1.6002 -1.6428,
		 -1.4465 0.9906 -1.7645,
		 -1.6998 1.1938 -1.7645,
		 -1.6998 1.1938 -1.7645,
		 -1.4465 0.9906 -1.7645,
		 -1.7001 1.1941 -0.1422,
		 -1.4465 0.9906 -0.1422,
		 -2.2064 1.6002 -0.2639,
		 -2.2064 1.6002 -1.6428,
		 -1.6998 1.1938 -1.7645,
		 -1.4465 0.9906 -1.7645,
		 -1.6998 1.1938 -1.7645,
		 -4.1679 1.5721 -1.6890,
		 -4.1679 1.5721 -0.2177,
		 -4.1678 1.5721 -1.6428,
		 -4.5687 0.9906 -1.7643,
		 -4.1679 1.5721 -0.2177,
		 -4.5706 0.9906 -0.1016,
		 -4.5687 0.9906 -0.1424,
		 -4.1678 1.5721 -0.2639,
		 -4.5692 0.9899 -1.7645,
		 -4.5692 0.9899 -0.1422,
		 -4.1679 1.5721 -0.2177,
		 -4.1679 1.5721 -1.6890,
		 -4.5687 0.9906 -1.7643,
		 -4.5687 0.9906 -0.1424,
		 -4.5706 0.9906 -0.1016,
		 -4.1679 1.5721 -0.2177,
		 -4.5706 0.9494 -0.1016,
		 -1.4465 0.9494 -0.1016,
		 -4.5706 0.9494 -0.1016,
		 -4.5706 0.9494 -0.1016,
		 -3.1557 0.9494 -0.1016,
		 -3.1557 0.9494 -0.1016,
		 -4.5706 0.9288 -0.1016,
		 -3.2698 0.9494 -0.1016,
		 -4.2055 0.9288 -0.1016,
		 -4.5706 0.3110 -0.1016,
		 -3.8742 0.3110 -0.1016,
		 -3.1557 0.9494 -0.1016,
		 -3.1557 0.3110 -0.1016,
		 -3.2698 0.3110 -0.1016,
		 -4.5706 0.2904 -0.1016,
		 -4.5706 0.3110 -0.1016,
		 -3.8742 0.3110 -0.1016,
		 -3.8632 0.2904 -0.1016,
		 -1.4465 0.2904 -0.1016,
		 -4.5706 0.2904 -0.1016,
		 -1.4465 0.3110 -0.1016,
		 -3.2698 0.2904 -0.1016,
		 -3.2698 0.3110 -0.1016,
		 -1.4465 0.9494 -0.1016,
		 -1.9691 0.3110 -0.1016,
		 -1.9691 0.9494 -0.1016,
		 -4.1730 1.5648 -0.2162,
		 -2.1622 1.5648 -0.2162,
		 -4.1730 1.5648 -0.2162,
		 -3.1774 1.5648 -0.2161,
		 -3.9233 1.5648 -0.2161,
		 -4.1625 0.9906 -0.1016,
		 -3.1774 1.5648 -0.2161,
		 -2.1622 1.5648 -0.2162,
		 -2.1622 1.5648 -0.2162,
		 -3.1774 1.5647 -0.2161,
		 -2.2064 1.5648 -0.2161,
		 -3.1493 1.5647 -0.2161,
		 -3.1774 0.9906 -0.1016,
		 -3.1493 0.9906 -0.1016,
		 -2.1622 1.5648 -0.2162,
		 -1.4465 0.9906 -0.1016,
		 -1.5028 0.9906 -0.1016,
		 -1.5027 0.9905 -0.1016,
		 -3.1493 0.9906 -0.1016,
		 -2.1622 1.5648 -0.2162,
		 -4.1730 1.5648 -0.2162,
		 -4.1730 1.5648 -0.2162,
		 -2.1622 1.5648 -0.2162,
		 -2.1622 1.5648 -0.2162,
		 -3.1774 1.5648 -0.2161,
		 -3.1774 1.5647 -0.2161,
		 -3.1493 0.9906 -0.1016,
		 -1.5028 0.9906 -0.1016,
		 -1.4465 0.9906 -0.1016,
		 -2.1622 1.5648 -0.2162,
		 -2.2206 1.5647 -1.6904,
		 -1.4888 0.9905 -1.8050,
		 -2.1622 1.5647 -1.6904,
		 -2.1622 1.5647 -1.6904,
		 -4.1730 1.5647 -1.6904,
		 -3.1352 1.5647 -1.6904,
		 -4.1730 1.5647 -1.6904,
		 -3.1774 1.5647 -1.6904,
		 -3.1774 0.9905 -1.8050,
		 -3.1352 0.9905 -1.8050,
		 -3.1352 1.5647 -1.6904,
		 -3.1352 1.5647 -1.6904,
		 -4.1730 1.5647 -1.6904,
		 -4.1484 0.9905 -1.8050,
		 -3.9233 1.5647 -1.6904,
		 -3.1352 0.9905 -1.8050,
		 -2.1622 1.5647 -1.6904,
		 -4.1730 1.5647 -1.6904,
		 -2.1622 1.5647 -1.6904,
		 -4.1730 1.5647 -1.6904,
		 -3.1352 1.5647 -1.6904,
		 -3.1352 0.9905 -1.8050,
		 -4.1730 1.5647 -1.6904,
		 -3.1352 1.5647 -1.6904
		]
	} #Coordinate3
	Material {
		ambientColor      0.0549 0.0549 0.2500  #ambientColor
		diffuseColor      0.2196 0.2196 1.0000  #diffuseColor
		transparency      0.0000                #transparency
	} #Material

	IndexedFaceSet {
		coordIndex [ 
		 24, 0, 1, 25,-1,
		 26, 27, 28, 29,-1,
		 30, 18, 19, 31,-1,
		 32, 33, 34, 35,-1,
		 36, 37, 31, 38,-1,
		 39, 40, 41, 42,-1,
		 33, 39, 42, 43,-1,
		]
	} #IndexedFaceSet
	Material {
		ambientColor      0.0971 0.0971 0.2500  #ambientColor
		diffuseColor      0.3882 0.3882 1.0000  #diffuseColor
		transparency      0.0000                #transparency
	} #Material

	IndexedFaceSet {
		coordIndex [ 
		 37, 34, 27, 26,-1,
		 33, 32, 40, 39,-1,
		]
	} #IndexedFaceSet
	Material {
		ambientColor      0.0549 0.0549 0.2500  #ambientColor
		diffuseColor      0.2196 0.2196 1.0000  #diffuseColor
		transparency      0.0000                #transparency
	} #Material

	IndexedFaceSet {
		coordIndex [ 
		 19, 18, 1, 0,-1,
		 0, 19, 20, 12, 13, 6,-1,
		 6, 13, 12, 20, 19, 0,-1,
		 1, 0, 6, 7,-1,
		 7, 6, 0, 1,-1,
		 18, 1, 7, 14, 15, 21,-1,
		 21, 15, 14, 7, 1, 18,-1,
		 44, 15, 45,-1,
		 46, 47, 45, 16, 48,-1,
		 49, 46, 48, 50,-1,
		 51, 49, 50, 22, 52,-1,
		 53, 21, 54,-1,
		]
	} #IndexedFaceSet
	Material {
		ambientColor      0.2500 0.2500 0.2500  #ambientColor
		diffuseColor      1.0000 1.0000 1.0000  #diffuseColor
		transparency      0.4980                #transparency
	} #Material

	IndexedFaceSet {
		coordIndex [ 
		 47, 46, 49, 51,-1,
		]
	} #IndexedFaceSet
	Material {
		ambientColor      0.0549 0.0549 0.2500  #ambientColor
		diffuseColor      0.2196 0.2196 1.0000  #diffuseColor
		transparency      0.0000                #transparency
	} #Material

	IndexedFaceSet {
		coordIndex [ 
		 55, 15, 56,-1,
		 57, 16, 55, 47, 46,-1,
		 58, 57, 46, 49,-1,
		 59, 22, 58, 49, 51,-1,
		 60, 21, 61,-1,
		]
	} #IndexedFaceSet
	Material {
		ambientColor      0.2500 0.2500 0.2500  #ambientColor
		diffuseColor      1.0000 1.0000 1.0000  #diffuseColor
		transparency      0.4980                #transparency
	} #Material

	IndexedFaceSet {
		coordIndex [ 
		 51, 49, 46, 47,-1,
		]
	} #IndexedFaceSet
	Material {
		ambientColor      0.0549 0.0549 0.2500  #ambientColor
		diffuseColor      0.2196 0.2196 1.0000  #diffuseColor
		transparency      0.0000                #transparency
	} #Material

	IndexedFaceSet {
		coordIndex [ 
		 22, 16, 17, 23,-1,
		 23, 17, 16, 22,-1,
		 62, 23, 17, 63,-1,
		 20, 62, 64, 65,-1,
		 66, 67, 68, 69,-1,
		]
	} #IndexedFaceSet
	Material {
		ambientColor      0.0971 0.0971 0.0971  #ambientColor
		diffuseColor      0.3882 0.3882 0.3882  #diffuseColor
		transparency      0.0000                #transparency
	} #Material

	IndexedFaceSet {
		coordIndex [ 
		 70, 64, 69, 71,-1,
		]
	} #IndexedFaceSet
	Material {
		ambientColor      0.0549 0.0549 0.2500  #ambientColor
		diffuseColor      0.2196 0.2196 1.0000  #diffuseColor
		transparency      0.0000                #transparency
	} #Material

	IndexedFaceSet {
		coordIndex [ 
		 72, 17, 23, 73,-1,
		 74, 64, 73, 20,-1,
		 69, 75, 76, 77,-1,
		]
	} #IndexedFaceSet
	Material {
		ambientColor      0.0971 0.0971 0.0971  #ambientColor
		diffuseColor      0.3882 0.3882 0.3882  #diffuseColor
		transparency      0.0000                #transparency
	} #Material

	IndexedFaceSet {
		coordIndex [ 
		 71, 69, 64, 70,-1,
		]
	} #IndexedFaceSet
	Material {
		ambientColor      0.0549 0.0549 0.2500  #ambientColor
		diffuseColor      0.2196 0.2196 1.0000  #diffuseColor
		transparency      0.0000                #transparency
	} #Material

	IndexedFaceSet {
		coordIndex [ 
		 78, 13, 14, 79,-1,
		 80, 81, 82, 83,-1,
		 84, 80, 85, 86,-1,
		 87, 84, 86, 88,-1,
		 89, 90, 91, 85,-1,
		 92, 93, 94, 95,-1,
		 96, 7, 6, 97,-1,
		 98, 96, 99, 100,-1,
		 101, 98, 102, 103,-1,
		]
	} #IndexedFaceSet
	Material {
		ambientColor      0.0833 0.0833 0.2500  #ambientColor
		diffuseColor      0.3333 0.3333 1.0000  #diffuseColor
		transparency      0.0000                #transparency
	} #Material

	IndexedFaceSet {
		coordIndex [ 
		 103, 102, 90, 82,-1,
		 85, 99, 95, 86,-1,
		]
	} #IndexedFaceSet
	Material {
		ambientColor      0.0549 0.0549 0.2500  #ambientColor
		diffuseColor      0.2196 0.2196 1.0000  #diffuseColor
		transparency      0.0000                #transparency
	} #Material

	IndexedFaceSet {
		coordIndex [ 
		 13, 6, 7, 14,-1,
		 104, 17, 16, 105,-1,
		 106, 104, 107, 108,-1,
		 13, 12, 106, 108, 109,-1,
		 110, 107, 111, 112,-1,
		 113, 110, 114, 115,-1,
		 116, 113, 115, 117,-1,
		 118, 15, 119, 120, 114,-1,
		]
	} #IndexedFaceSet
	Material {
		ambientColor      0.0971 0.0971 0.0971  #ambientColor
		diffuseColor      0.3882 0.3882 0.3882  #diffuseColor
		transparency      0.0000                #transparency
	} #Material

	IndexedFaceSet {
		coordIndex [ 
		 109, 108, 107, 116,-1,
		 114, 121, 122, 115,-1,
		]
	} #IndexedFaceSet
	Material {
		ambientColor      0.0549 0.0549 0.2500  #ambientColor
		diffuseColor      0.2196 0.2196 1.0000  #diffuseColor
		transparency      0.0000                #transparency
	} #Material

	IndexedFaceSet {
		coordIndex [ 
		 123, 16, 17, 124,-1,
		 108, 107, 124, 125,-1,
		 109, 108, 125, 12, 13,-1,
		 126, 127, 107, 128,-1,
		 115, 114, 128, 129,-1,
		 130, 115, 129, 116,-1,
		 114, 131, 132, 15, 133,-1,
		]
	} #IndexedFaceSet
	Material {
		ambientColor      0.0971 0.0971 0.0971  #ambientColor
		diffuseColor      0.3882 0.3882 0.3882  #diffuseColor
		transparency      0.0000                #transparency
	} #Material

	IndexedFaceSet {
		coordIndex [ 
		 116, 107, 108, 109,-1,
		 115, 122, 121, 114,-1,
		]
	} #IndexedFaceSet
	Material {
		ambientColor      0.0549 0.0549 0.2500  #ambientColor
		diffuseColor      0.2196 0.2196 1.0000  #diffuseColor
		transparency      0.0000                #transparency
	} #Material

	IndexedFaceSet {
		coordIndex [ 
		 134, 135, 18, 21, 136,-1,
		 137, 22, 23, 138,-1,
		 139, 134, 138, 140,-1,
		 141, 142, 143, 144,-1,
		 145, 139, 140, 146,-1,
		 147, 148, 146, 20, 19,-1,
		]
	} #IndexedFaceSet
	Material {
		ambientColor      0.0971 0.0971 0.0971  #ambientColor
		diffuseColor      0.3882 0.3882 0.3882  #diffuseColor
		transparency      0.0000                #transparency
	} #Material

	IndexedFaceSet {
		coordIndex [ 
		 135, 134, 139, 149,-1,
		 148, 147, 142, 141,-1,
		]
	} #IndexedFaceSet
	Material {
		ambientColor      0.0549 0.0549 0.2500  #ambientColor
		diffuseColor      0.2196 0.2196 1.0000  #diffuseColor
		transparency      0.0000                #transparency
	} #Material

	IndexedFaceSet {
		coordIndex [ 
		 150, 21, 18, 135, 134,-1,
		 151, 23, 22, 152,-1,
		 153, 151, 134, 139,-1,
		 154, 155, 142, 141,-1,
		 156, 153, 139, 157,-1,
		 19, 20, 156, 148, 147,-1,
		]
	} #IndexedFaceSet
	Material {
		ambientColor      0.0971 0.0971 0.0971  #ambientColor
		diffuseColor      0.3882 0.3882 0.3882  #diffuseColor
		transparency      0.0000                #transparency
	} #Material

	IndexedFaceSet {
		coordIndex [ 
		 149, 139, 134, 135,-1,
		 141, 142, 147, 148,-1,
		]
	} #IndexedFaceSet
} #Polyhedron
Separator { #Polyhedron
	DEF COORD8 Coordinate3 {
		point [
		 -1.4465 0.2286 -1.8050,
		 -0.0111 0.2286 -1.8050,
		 -0.0111 0.8382 -1.8050,
		 -1.4465 0.9906 -1.8050,
		 -1.4465 0.2286 -0.1016,
		 -0.0111 0.2286 -0.1016,
		 -0.0111 0.8382 -0.1016,
		 -1.4465 0.9906 -0.1016,
		 -0.0111 0.6913 -1.8050,
		 -1.4465 0.9529 -1.8050,
		 -1.4465 0.9529 -0.1016,
		 -0.0111 0.6913 -0.1016,
		 -1.4465 0.4953 -1.8050,
		 -0.0111 0.4953 -1.8050,
		 -0.0112 0.6223 -1.8050,
		 -0.0112 0.4953 -1.8050,
		 -0.0111 0.4953 -1.8050,
		 -0.0111 0.6223 -1.8050,
		 -0.0111 0.6223 -1.8050,
		 -1.4465 0.6223 -1.8050,
		 -0.1097 0.4953 -1.8050,
		 -0.1097 0.6223 -1.8050,
		 -1.4465 0.4953 -1.8050,
		 -0.0111 0.4953 -1.8050,
		 -1.4465 0.4953 -1.8050,
		 -0.0111 0.6223 -1.8050,
		 -0.0111 0.4953 -1.8050,
		 -1.4465 0.6223 -1.8050,
		 -0.0111 0.6223 -1.8050,
		 -1.4465 0.4953 -1.8050,
		 -0.0111 0.4953 -1.8050,
		 -0.0111 0.4953 -0.1016,
		 -0.0111 0.6223 -0.1017,
		 -0.0111 0.4953 -0.1017,
		 -0.0111 0.4953 -0.1016,
		 -0.0111 0.6223 -0.1016,
		 -0.0111 0.6223 -0.1016,
		 -0.0111 0.6223 -1.8050,
		 -0.0111 0.6223 -0.4937,
		 -0.0111 0.4953 -0.4937,
		 -0.0111 0.4953 -0.4532,
		 -0.0111 0.6223 -0.4532,
		 -0.0111 0.6223 -1.1426,
		 -0.0111 0.4953 -1.1426,
		 -0.0111 0.4953 -0.7641,
		 -0.0111 0.6223 -0.7641,
		 -0.0111 0.6223 -1.4130,
		 -0.0111 0.6223 -1.4536,
		 -0.0111 0.4953 -1.4536,
		 -0.0111 0.4953 -1.4130,
		 -0.0111 0.4953 -0.4532,
		 -0.0111 0.4953 -0.1828,
		 -0.0111 0.6223 -0.1828,
		 -0.0111 0.6223 -0.7641,
		 -0.0111 0.4953 -0.7641,
		 -0.0111 0.6223 -0.4937,
		 -0.0111 0.6223 -0.1828,
		 -0.0111 0.4953 -0.1828,
		 -0.0111 0.4953 -1.4130,
		 -0.0111 0.4953 -1.1426,
		 -0.0111 0.6223 -1.7240,
		 -0.0111 0.4953 -1.7240,
		 -0.0111 0.4953 -1.4536,
		 -0.0111 0.6223 -1.8051,
		 -0.0111 0.4953 -1.8051,
		 -0.0111 0.4953 -1.7239,
		 -0.0111 0.6223 -1.7239,
		 -0.0111 0.4953 -0.1016,
		 -0.0111 0.4953 -1.8050,
		 -0.0111 0.6223 -0.1016,
		 -0.0111 0.4953 -0.1016,
		 -0.0111 0.6223 -1.8050,
		 -0.0111 0.6223 -0.1016,
		 -0.0111 0.4953 -0.4532,
		 -0.0111 0.6223 -0.4937,
		 -0.0111 0.6223 -0.7641,
		 -0.0111 0.4953 -0.7641,
		 -0.0111 0.4953 -1.1426,
		 -0.0111 0.4953 -1.4130,
		 -0.0111 0.4953 -1.4536,
		 -1.4465 0.6223 -0.1016,
		 -0.0111 0.6223 -0.1016,
		 -1.4465 0.4953 -0.1016,
		 -1.4465 0.6223 -0.1016,
		 -0.1096 0.6223 -0.1016,
		 -0.1096 0.4953 -0.1016,
		 -0.0111 0.4953 -0.1016,
		 -1.4465 0.4953 -0.1016,
		 -0.0111 0.6223 -0.1016,
		 -0.0111 0.4953 -0.1016,
		 -0.0111 0.6223 -0.1016,
		 -1.4465 0.6223 -0.1016,
		 -1.4465 0.6223 -0.1016,
		 -1.4465 0.4953 -0.1016,
		 -1.4465 0.4953 -0.1016,
		 -0.0111 0.4953 -0.1016
		]
	} #Coordinate3
	Material {
		ambientColor      0.0696 0.0696 0.2500  #ambientColor
		diffuseColor      0.2784 0.2784 1.0000  #diffuseColor
		transparency      0.0000                #transparency
	} #Material

	IndexedFaceSet {
		coordIndex [ 
		 12, 0, 1, 13,-1,
		 14, 15, 16, 17,-1,
		 18, 8, 9, 19,-1,
		 20, 21, 19, 22,-1,
		]
	} #IndexedFaceSet
	Material {
		ambientColor      0.2500 0.2500 0.0000  #ambientColor
		diffuseColor      1.0000 1.0000 0.0000  #diffuseColor
		transparency      0.0000                #transparency
	} #Material

	IndexedFaceSet {
		coordIndex [ 
		 21, 20, 15, 14,-1,
		]
	} #IndexedFaceSet
	Material {
		ambientColor      0.0696 0.0696 0.2500  #ambientColor
		diffuseColor      0.2784 0.2784 1.0000  #diffuseColor
		transparency      0.0000                #transparency
	} #Material

	IndexedFaceSet {
		coordIndex [ 
		 23, 1, 0, 24,-1,
		 25, 26, 15, 14,-1,
		 27, 9, 8, 28,-1,
		 29, 27, 21, 20,-1,
		]
	} #IndexedFaceSet
	Material {
		ambientColor      0.2500 0.2500 0.0000  #ambientColor
		diffuseColor      1.0000 1.0000 0.0000  #diffuseColor
		transparency      0.0000                #transparency
	} #Material

	IndexedFaceSet {
		coordIndex [ 
		 14, 15, 20, 21,-1,
		]
	} #IndexedFaceSet
	Material {
		ambientColor      0.0696 0.0696 0.2500  #ambientColor
		diffuseColor      0.2784 0.2784 1.0000  #diffuseColor
		transparency      0.0000                #transparency
	} #Material

	IndexedFaceSet {
		coordIndex [ 
		 0, 9, 10, 4,-1,
		 4, 10, 9, 0,-1,
		 1, 0, 4, 5,-1,
		 5, 4, 0, 1,-1,
		 30, 1, 5, 31,-1,
		 32, 33, 34, 35,-1,
		 36, 11, 8, 37,-1,
		 38, 39, 40, 41,-1,
		 42, 43, 44, 45,-1,
		 46, 42, 45,-1,
		 47, 48, 49, 46,-1,
		]
	} #IndexedFaceSet
	Material {
		ambientColor      0.2500 0.2500 0.2500  #ambientColor
		diffuseColor      1.0000 1.0000 1.0000  #diffuseColor
		transparency      0.0000                #transparency
	} #Material

	IndexedFaceSet {
		coordIndex [ 
		 41, 50, 51, 52,-1,
		 53, 54, 39, 55,-1,
		]
	} #IndexedFaceSet
	Material {
		ambientColor      0.2500 0.2500 0.0000  #ambientColor
		diffuseColor      1.0000 1.0000 0.0000  #diffuseColor
		transparency      0.0000                #transparency
	} #Material

	IndexedFaceSet {
		coordIndex [ 
		 56, 57, 33, 32,-1,
		]
	} #IndexedFaceSet
	Material {
		ambientColor      0.2500 0.2500 0.2500  #ambientColor
		diffuseColor      1.0000 1.0000 1.0000  #diffuseColor
		transparency      0.0000                #transparency
	} #Material

	IndexedFaceSet {
		coordIndex [ 
		 46, 58, 59, 42,-1,
		 60, 61, 62, 47,-1,
		]
	} #IndexedFaceSet
	Material {
		ambientColor      0.2500 0.2500 0.0000  #ambientColor
		diffuseColor      1.0000 1.0000 0.0000  #diffuseColor
		transparency      0.0000                #transparency
	} #Material

	IndexedFaceSet {
		coordIndex [ 
		 63, 64, 65, 66,-1,
		]
	} #IndexedFaceSet
	Material {
		ambientColor      0.0696 0.0696 0.2500  #ambientColor
		diffuseColor      0.2784 0.2784 1.0000  #diffuseColor
		transparency      0.0000                #transparency
	} #Material

	IndexedFaceSet {
		coordIndex [ 
		 67, 5, 1, 68,-1,
		 69, 70, 33, 32,-1,
		 71, 8, 11, 72,-1,
		 41, 73, 39, 74,-1,
		 75, 76, 77, 42,-1,
		 75, 42, 46,-1,
		 46, 78, 79, 47,-1,
		]
	} #IndexedFaceSet
	Material {
		ambientColor      0.2500 0.2500 0.2500  #ambientColor
		diffuseColor      1.0000 1.0000 1.0000  #diffuseColor
		transparency      0.0000                #transparency
	} #Material

	IndexedFaceSet {
		coordIndex [ 
		 52, 51, 50, 41,-1,
		 55, 39, 54, 53,-1,
		]
	} #IndexedFaceSet
	Material {
		ambientColor      0.2500 0.2500 0.0000  #ambientColor
		diffuseColor      1.0000 1.0000 0.0000  #diffuseColor
		transparency      0.0000                #transparency
	} #Material

	IndexedFaceSet {
		coordIndex [ 
		 32, 33, 57, 56,-1,
		]
	} #IndexedFaceSet
	Material {
		ambientColor      0.2500 0.2500 0.2500  #ambientColor
		diffuseColor      1.0000 1.0000 1.0000  #diffuseColor
		transparency      0.0000                #transparency
	} #Material

	IndexedFaceSet {
		coordIndex [ 
		 42, 59, 58, 46,-1,
		 47, 62, 61, 60,-1,
		]
	} #IndexedFaceSet
	Material {
		ambientColor      0.2500 0.2500 0.0000  #ambientColor
		diffuseColor      1.0000 1.0000 0.0000  #diffuseColor
		transparency      0.0000                #transparency
	} #Material

	IndexedFaceSet {
		coordIndex [ 
		 66, 65, 64, 63,-1,
		]
	} #IndexedFaceSet
	Material {
		ambientColor      0.0696 0.0696 0.2500  #ambientColor
		diffuseColor      0.2784 0.2784 1.0000  #diffuseColor
		transparency      0.0000                #transparency
	} #Material

	IndexedFaceSet {
		coordIndex [ 
		 80, 10, 11, 81,-1,
		 82, 83, 84, 85,-1,
		 86, 5, 4, 87,-1,
		]
	} #IndexedFaceSet
	Material {
		ambientColor      0.2500 0.2500 0.0000  #ambientColor
		diffuseColor      1.0000 1.0000 0.0000  #diffuseColor
		transparency      0.0000                #transparency
	} #Material

	IndexedFaceSet {
		coordIndex [ 
		 88, 89, 85, 84,-1,
		]
	} #IndexedFaceSet
	Material {
		ambientColor      0.0696 0.0696 0.2500  #ambientColor
		diffuseColor      0.2784 0.2784 1.0000  #diffuseColor
		transparency      0.0000                #transparency
	} #Material

	IndexedFaceSet {
		coordIndex [ 
		 90, 11, 10, 91,-1,
		 85, 84, 92, 93,-1,
		 94, 4, 5, 95,-1,
		]
	} #IndexedFaceSet
	Material {
		ambientColor      0.2500 0.2500 0.0000  #ambientColor
		diffuseColor      1.0000 1.0000 0.0000  #diffuseColor
		transparency      0.0000                #transparency
	} #Material

	IndexedFaceSet {
		coordIndex [ 
		 84, 85, 89, 88,-1,
		]
	} #IndexedFaceSet
	Material {
		ambientColor      0.0696 0.0696 0.2500  #ambientColor
		diffuseColor      0.2784 0.2784 1.0000  #diffuseColor
		transparency      0.0000                #transparency
	} #Material

	IndexedFaceSet {
		coordIndex [ 
		 9, 8, 11, 10,-1,
		 10, 11, 8, 9,-1,
		]
	} #IndexedFaceSet
} #Polyhedron
Separator { #Polyhedron
	DEF COORD9 Coordinate3 {
		point [
		 -6.0904 0.3810 -1.8050,
		 -6.0904 0.2286 -1.8050,
		 -6.0060 0.2286 -1.8050,
		 -6.0060 0.3810 -1.8050,
		 -6.0904 0.3810 -0.1016,
		 -6.0904 0.2286 -0.1016,
		 -6.0060 0.2286 -0.1016,
		 -6.0060 0.3810 -0.1016
		]
	} #Coordinate3
	Material {
		ambientColor      0.2500 0.2500 0.2500  #ambientColor
		diffuseColor      1.0000 1.0000 1.0000  #diffuseColor
		transparency      0.0000                #transparency
	} #Material

	IndexedFaceSet {
		coordIndex [ 
		 0, 1, 2, 3,-1,
		 3, 2, 1, 0,-1,
		 0, 3, 7, 4,-1,
		 4, 7, 3, 0,-1,
		 1, 0, 4, 5,-1,
		 5, 4, 0, 1,-1,
		 2, 1, 5, 6,-1,
		 6, 5, 1, 2,-1,
		 3, 2, 6, 7,-1,
		 7, 6, 2, 3,-1,
		 7, 6, 5, 4,-1,
		 4, 5, 6, 7,-1,
		]
	} #IndexedFaceSet
} #Polyhedron
Separator { #Polyhedron
	DEF COORD10 Coordinate3 {
		point [
		 -0.0111 0.3810 -1.8050,
		 -0.0111 0.2286 -1.8050,
		 0.0733 0.2286 -1.8050,
		 0.0733 0.3810 -1.8050,
		 -0.0111 0.3810 -0.1016,
		 -0.0111 0.2286 -0.1016,
		 0.0733 0.2286 -0.1016,
		 0.0733 0.3810 -0.1016
		]
	} #Coordinate3
	Material {
		ambientColor      0.2500 0.2500 0.2500  #ambientColor
		diffuseColor      1.0000 1.0000 1.0000  #diffuseColor
		transparency      0.0000                #transparency
	} #Material

	IndexedFaceSet {
		coordIndex [ 
		 0, 1, 2, 3,-1,
		 3, 2, 1, 0,-1,
		 0, 3, 7, 4,-1,
		 4, 7, 3, 0,-1,
		 1, 0, 4, 5,-1,
		 5, 4, 0, 1,-1,
		 2, 1, 5, 6,-1,
		 6, 5, 1, 2,-1,
		 3, 2, 6, 7,-1,
		 7, 6, 2, 3,-1,
		 7, 6, 5, 4,-1,
		 4, 5, 6, 7,-1,
		]
	} #IndexedFaceSet
} #Polyhedron
Separator { #Polyhedron
	DEF COORD11 Coordinate3 {
		point [
		 -0.7709 0.0000 -0.1016,
		 -0.6093 0.0290 -0.1016,
		 -0.4724 0.1116 -0.1016,
		 -0.3809 0.2352 -0.1016,
		 -0.3487 0.3810 -0.1016,
		 -0.3809 0.5268 -0.1016,
		 -0.4724 0.6504 -0.1016,
		 -0.6093 0.7330 -0.1016,
		 -0.7709 0.7620 -0.1016,
		 -0.9325 0.7330 -0.1016,
		 -1.0694 0.6504 -0.1016,
		 -1.1610 0.5268 -0.1016,
		 -1.1931 0.3810 -0.1016,
		 -1.1610 0.2352 -0.1016,
		 -1.0694 0.1116 -0.1016,
		 -0.9325 0.0290 -0.1016,
		 -0.7709 0.0000 -0.0611,
		 -0.6093 0.0290 -0.0611,
		 -0.4724 0.1116 -0.0611,
		 -0.3809 0.2352 -0.0611,
		 -0.3487 0.3810 -0.0611,
		 -0.3809 0.5268 -0.0611,
		 -0.4724 0.6504 -0.0611,
		 -0.6093 0.7330 -0.0611,
		 -0.7709 0.7620 -0.0611,
		 -0.9325 0.7330 -0.0611,
		 -1.0694 0.6504 -0.0611,
		 -1.1610 0.5268 -0.0611,
		 -1.1931 0.3810 -0.0611,
		 -1.1610 0.2352 -0.0611,
		 -1.0694 0.1116 -0.0611,
		 -0.9325 0.0290 -0.0611,
		 -1.1185 0.5842 -0.0611,
		 -0.4233 0.5842 -0.0611,
		 -1.1263 0.5736 -0.0611,
		 -0.7569 0.5842 -0.0611,
		 -0.8441 0.5736 -0.0611,
		 -1.1559 0.5336 -0.0611,
		 -0.9202 0.5336 -0.0611,
		 -1.1734 0.4705 -0.0611,
		 -0.9736 0.4705 -0.0611,
		 -1.1903 0.3937 -0.0611,
		 -0.9961 0.3937 -0.0611,
		 -1.1785 0.3149 -0.0611,
		 -0.9843 0.3149 -0.0611,
		 -1.1634 0.2463 -0.0611,
		 -0.9401 0.2463 -0.0611,
		 -1.1335 0.1981 -0.0611,
		 -0.8701 0.1981 -0.0611,
		 -1.1185 0.1778 -0.0611,
		 -0.7850 0.1778 -0.0611,
		 -0.4234 0.1778 -0.0611,
		 -1.1185 0.1778 -0.0611,
		 -0.4155 0.1884 -0.0611,
		 -0.6977 0.1884 -0.0611,
		 -0.3859 0.2283 -0.0611,
		 -0.6216 0.2283 -0.0611,
		 -0.3685 0.2915 -0.0611,
		 -0.5683 0.2915 -0.0611,
		 -0.3515 0.3683 -0.0611,
		 -0.5457 0.3683 -0.0611,
		 -0.3633 0.4470 -0.0611,
		 -0.5575 0.4470 -0.0611,
		 -0.3784 0.5157 -0.0611,
		 -0.6018 0.5157 -0.0611,
		 -0.4083 0.5639 -0.0611,
		 -0.6718 0.5639 -0.0611,
		 -0.4233 0.5842 -0.0611,
		 -0.4233 0.5842 -0.0611,
		 -1.1185 0.5842 -0.0611,
		 -1.1263 0.5736 -0.0611,
		 -1.1559 0.5336 -0.0611,
		 -1.1734 0.4705 -0.0611,
		 -1.1903 0.3937 -0.0611,
		 -1.1785 0.3149 -0.0611,
		 -1.1634 0.2463 -0.0611,
		 -1.1335 0.1981 -0.0611,
		 -1.1185 0.1778 -0.0611,
		 -1.1185 0.1778 -0.0611,
		 -0.4234 0.1778 -0.0611,
		 -0.4155 0.1884 -0.0611,
		 -0.3859 0.2283 -0.0611,
		 -0.3685 0.2915 -0.0611,
		 -0.3515 0.3683 -0.0611,
		 -0.3633 0.4470 -0.0611,
		 -0.3784 0.5157 -0.0611,
		 -0.4083 0.5639 -0.0611,
		 -0.4233 0.5842 -0.0611
		]
	} #Coordinate3
	Material {
		ambientColor      0.0000 0.0000 0.0000  #ambientColor
		diffuseColor      0.0000 0.0000 0.0000  #diffuseColor
		transparency      0.0000                #transparency
	} #Material

	IndexedFaceSet {
		coordIndex [ 
		 0, 1, 2, 3, 4, 5, 6, 7, 8, 9, 10, 11, 12, 13, 14, 15,-1,
		 15, 14, 13, 12, 11, 10, 9, 8, 7, 6, 5, 4, 3, 2, 1, 0,-1,
		 0, 15, 31, 16,-1,
		 16, 31, 15, 0,-1,
		 1, 0, 16, 17,-1,
		 17, 16, 0, 1,-1,
		 2, 1, 17, 18,-1,
		 18, 17, 1, 2,-1,
		 3, 2, 18, 19,-1,
		 19, 18, 2, 3,-1,
		 4, 3, 19, 20,-1,
		 20, 19, 3, 4,-1,
		 5, 4, 20, 21,-1,
		 21, 20, 4, 5,-1,
		 6, 5, 21, 22,-1,
		 22, 21, 5, 6,-1,
		 7, 6, 22, 23,-1,
		 23, 22, 6, 7,-1,
		 8, 7, 23, 24,-1,
		 24, 23, 7, 8,-1,
		 9, 8, 24, 25,-1,
		 25, 24, 8, 9,-1,
		 10, 9, 25, 26,-1,
		 26, 25, 9, 10,-1,
		 11, 10, 26, 27,-1,
		 27, 26, 10, 11,-1,
		 12, 11, 27, 28,-1,
		 28, 27, 11, 12,-1,
		 13, 12, 28, 29,-1,
		 29, 28, 12, 13,-1,
		 14, 13, 29, 30,-1,
		 30, 29, 13, 14,-1,
		 15, 14, 30, 31,-1,
		 31, 30, 14, 15,-1,
		 32, 26, 25, 24, 23, 22, 33,-1,
		 34, 32, 35, 36,-1,
		 37, 34, 36, 38,-1,
		 39, 27, 37, 38, 40,-1,
		 41, 39, 40, 42,-1,
		 43, 28, 41, 42, 44,-1,
		 45, 43, 44, 46,-1,
		 47, 29, 45, 46, 48,-1,
		 49, 47, 48, 50,-1,
		 51, 18, 17, 16, 31, 30, 52,-1,
		 53, 51, 50, 54,-1,
		 55, 53, 54, 56,-1,
		 57, 19, 55, 56, 58,-1,
		 59, 57, 58, 60,-1,
		 61, 20, 59, 60, 62,-1,
		 63, 61, 62, 64,-1,
		 65, 21, 63, 64, 66,-1,
		 67, 65, 66, 35,-1,
		]
	} #IndexedFaceSet
	Material {
		ambientColor      0.2088 0.2088 0.2088  #ambientColor
		diffuseColor      0.8353 0.8353 0.8353  #diffuseColor
		transparency      0.0000                #transparency
	} #Material

	IndexedFaceSet {
		coordIndex [ 
		 60, 58, 56, 54, 50, 48, 46, 44, 42, 40, 38, 36, 35, 66, 64, 62,-1,
		]
	} #IndexedFaceSet
	Material {
		ambientColor      0.0000 0.0000 0.0000  #ambientColor
		diffuseColor      0.0000 0.0000 0.0000  #diffuseColor
		transparency      0.0000                #transparency
	} #Material

	IndexedFaceSet {
		coordIndex [ 
		 68, 22, 23, 24, 25, 26, 69,-1,
		 36, 35, 69, 70,-1,
		 38, 36, 70, 71,-1,
		 40, 38, 71, 27, 72,-1,
		 42, 40, 72, 73,-1,
		 44, 42, 73, 28, 74,-1,
		 46, 44, 74, 75,-1,
		 48, 46, 75, 29, 76,-1,
		 50, 48, 76, 77,-1,
		 78, 30, 31, 16, 17, 18, 79,-1,
		 54, 50, 79, 80,-1,
		 56, 54, 80, 81,-1,
		 58, 56, 81, 19, 82,-1,
		 60, 58, 82, 83,-1,
		 62, 60, 83, 20, 84,-1,
		 64, 62, 84, 85,-1,
		 66, 64, 85, 21, 86,-1,
		 35, 66, 86, 87,-1,
		]
	} #IndexedFaceSet
	Material {
		ambientColor      0.2088 0.2088 0.2088  #ambientColor
		diffuseColor      0.8353 0.8353 0.8353  #diffuseColor
		transparency      0.0000                #transparency
	} #Material

	IndexedFaceSet {
		coordIndex [ 
		 62, 64, 66, 35, 36, 38, 40, 42, 44, 46, 48, 50, 54, 56, 58, 60,-1,
		]
	} #IndexedFaceSet
} #Polyhedron
Separator { #Polyhedron
	DEF COORD12 Coordinate3 {
		point [
		 -0.7710 0.0000 -1.8050,
		 -0.9326 0.0290 -1.8050,
		 -1.0695 0.1116 -1.8050,
		 -1.1610 0.2352 -1.8050,
		 -1.1932 0.3810 -1.8050,
		 -1.1610 0.5268 -1.8050,
		 -1.0695 0.6504 -1.8050,
		 -0.9326 0.7330 -1.8050,
		 -0.7710 0.7620 -1.8050,
		 -0.6094 0.7330 -1.8050,
		 -0.4725 0.6504 -1.8050,
		 -0.3810 0.5268 -1.8050,
		 -0.3488 0.3810 -1.8050,
		 -0.3810 0.2352 -1.8050,
		 -0.4725 0.1116 -1.8050,
		 -0.6094 0.0290 -1.8050,
		 -0.7710 0.0000 -1.8455,
		 -0.9326 0.0290 -1.8455,
		 -1.0695 0.1116 -1.8455,
		 -1.1610 0.2352 -1.8455,
		 -1.1932 0.3810 -1.8455,
		 -1.1610 0.5268 -1.8455,
		 -1.0695 0.6504 -1.8455,
		 -0.9326 0.7330 -1.8455,
		 -0.7710 0.7620 -1.8455,
		 -0.6094 0.7330 -1.8455,
		 -0.4725 0.6504 -1.8455,
		 -0.3810 0.5268 -1.8455,
		 -0.3488 0.3810 -1.8455,
		 -0.3810 0.2352 -1.8455,
		 -0.4725 0.1116 -1.8455,
		 -0.6094 0.0290 -1.8455,
		 -1.1185 0.1778 -1.8455,
		 -0.4235 0.1778 -1.8455,
		 -0.6719 0.1981 -1.8455,
		 -0.7570 0.1778 -1.8455,
		 -0.4084 0.1981 -1.8455,
		 -0.6019 0.2463 -1.8455,
		 -0.3785 0.2463 -1.8455,
		 -0.5576 0.3149 -1.8455,
		 -0.3634 0.3149 -1.8455,
		 -0.5458 0.3937 -1.8455,
		 -0.3516 0.3937 -1.8455,
		 -0.5684 0.4705 -1.8455,
		 -0.3685 0.4705 -1.8455,
		 -0.6217 0.5336 -1.8455,
		 -0.3860 0.5336 -1.8455,
		 -0.6978 0.5736 -1.8455,
		 -0.4156 0.5736 -1.8455,
		 -0.7851 0.5842 -1.8455,
		 -0.4234 0.5842 -1.8455,
		 -0.4234 0.5842 -1.8455,
		 -1.1186 0.5842 -1.8455,
		 -0.8701 0.5639 -1.8455,
		 -1.1336 0.5639 -1.8455,
		 -0.9401 0.5157 -1.8455,
		 -1.1635 0.5157 -1.8455,
		 -0.9844 0.4470 -1.8455,
		 -1.1786 0.4470 -1.8455,
		 -0.9962 0.3683 -1.8455,
		 -1.1904 0.3683 -1.8455,
		 -0.9736 0.2915 -1.8455,
		 -1.1735 0.2915 -1.8455,
		 -0.9203 0.2283 -1.8455,
		 -1.1560 0.2283 -1.8455,
		 -0.8442 0.1884 -1.8455,
		 -1.1264 0.1884 -1.8455,
		 -1.1185 0.1778 -1.8455,
		 -0.4235 0.1778 -1.8455,
		 -1.1185 0.1778 -1.8455,
		 -0.4084 0.1981 -1.8455,
		 -0.3785 0.2463 -1.8455,
		 -0.3634 0.3149 -1.8455,
		 -0.3516 0.3937 -1.8455,
		 -0.3685 0.4705 -1.8455,
		 -0.3860 0.5336 -1.8455,
		 -0.4156 0.5736 -1.8455,
		 -0.4234 0.5842 -1.8455,
		 -1.1186 0.5842 -1.8455,
		 -0.4234 0.5842 -1.8455,
		 -1.1336 0.5639 -1.8455,
		 -1.1635 0.5157 -1.8455,
		 -1.1786 0.4470 -1.8455,
		 -1.1904 0.3683 -1.8455,
		 -1.1735 0.2915 -1.8455,
		 -1.1560 0.2283 -1.8455,
		 -1.1264 0.1884 -1.8455,
		 -1.1185 0.1778 -1.8455
		]
	} #Coordinate3
	Material {
		ambientColor      0.0000 0.0000 0.0000  #ambientColor
		diffuseColor      0.0000 0.0000 0.0000  #diffuseColor
		transparency      0.0000                #transparency
	} #Material

	IndexedFaceSet {
		coordIndex [ 
		 0, 1, 2, 3, 4, 5, 6, 7, 8, 9, 10, 11, 12, 13, 14, 15,-1,
		 15, 14, 13, 12, 11, 10, 9, 8, 7, 6, 5, 4, 3, 2, 1, 0,-1,
		 0, 15, 31, 16,-1,
		 16, 31, 15, 0,-1,
		 1, 0, 16, 17,-1,
		 17, 16, 0, 1,-1,
		 2, 1, 17, 18,-1,
		 18, 17, 1, 2,-1,
		 3, 2, 18, 19,-1,
		 19, 18, 2, 3,-1,
		 4, 3, 19, 20,-1,
		 20, 19, 3, 4,-1,
		 5, 4, 20, 21,-1,
		 21, 20, 4, 5,-1,
		 6, 5, 21, 22,-1,
		 22, 21, 5, 6,-1,
		 7, 6, 22, 23,-1,
		 23, 22, 6, 7,-1,
		 8, 7, 23, 24,-1,
		 24, 23, 7, 8,-1,
		 9, 8, 24, 25,-1,
		 25, 24, 8, 9,-1,
		 10, 9, 25, 26,-1,
		 26, 25, 9, 10,-1,
		 11, 10, 26, 27,-1,
		 27, 26, 10, 11,-1,
		 12, 11, 27, 28,-1,
		 28, 27, 11, 12,-1,
		 13, 12, 28, 29,-1,
		 29, 28, 12, 13,-1,
		 14, 13, 29, 30,-1,
		 30, 29, 13, 14,-1,
		 15, 14, 30, 31,-1,
		 31, 30, 14, 15,-1,
		 32, 18, 17, 16, 31, 30, 33,-1,
		 34, 35, 33, 36,-1,
		 37, 34, 36, 29, 38,-1,
		 39, 37, 38, 40,-1,
		 41, 39, 40, 28, 42,-1,
		 43, 41, 42, 44,-1,
		 45, 43, 44, 27, 46,-1,
		 47, 45, 46, 48,-1,
		 49, 47, 48, 50,-1,
		 51, 26, 25, 24, 23, 22, 52,-1,
		 53, 49, 52, 54,-1,
		 55, 53, 54, 21, 56,-1,
		 57, 55, 56, 58,-1,
		 59, 57, 58, 20, 60,-1,
		 61, 59, 60, 62,-1,
		 63, 61, 62, 19, 64,-1,
		 65, 63, 64, 66,-1,
		 35, 65, 66, 67,-1,
		]
	} #IndexedFaceSet
	Material {
		ambientColor      0.2088 0.2088 0.2088  #ambientColor
		diffuseColor      0.8353 0.8353 0.8353  #diffuseColor
		transparency      0.0000                #transparency
	} #Material

	IndexedFaceSet {
		coordIndex [ 
		 59, 61, 63, 65, 35, 34, 37, 39, 41, 43, 45, 47, 49, 53, 55, 57,-1,
		]
	} #IndexedFaceSet
	Material {
		ambientColor      0.0000 0.0000 0.0000  #ambientColor
		diffuseColor      0.0000 0.0000 0.0000  #diffuseColor
		transparency      0.0000                #transparency
	} #Material

	IndexedFaceSet {
		coordIndex [ 
		 68, 30, 31, 16, 17, 18, 69,-1,
		 70, 68, 35, 34,-1,
		 71, 29, 70, 34, 37,-1,
		 72, 71, 37, 39,-1,
		 73, 28, 72, 39, 41,-1,
		 74, 73, 41, 43,-1,
		 75, 27, 74, 43, 45,-1,
		 76, 75, 45, 47,-1,
		 77, 76, 47, 49,-1,
		 78, 22, 23, 24, 25, 26, 79,-1,
		 80, 78, 49, 53,-1,
		 81, 21, 80, 53, 55,-1,
		 82, 81, 55, 57,-1,
		 83, 20, 82, 57, 59,-1,
		 84, 83, 59, 61,-1,
		 85, 19, 84, 61, 63,-1,
		 86, 85, 63, 65,-1,
		 87, 86, 65, 35,-1,
		]
	} #IndexedFaceSet
	Material {
		ambientColor      0.2088 0.2088 0.2088  #ambientColor
		diffuseColor      0.8353 0.8353 0.8353  #diffuseColor
		transparency      0.0000                #transparency
	} #Material

	IndexedFaceSet {
		coordIndex [ 
		 57, 55, 53, 49, 47, 45, 43, 41, 39, 37, 34, 35, 65, 63, 61, 59,-1,
		]
	} #IndexedFaceSet
} #Polyhedron
Separator { #Polyhedron
	DEF COORD13 Coordinate3 {
		point [
		 -4.5707 0.0000 -1.8050,
		 -4.7322 0.0290 -1.8050,
		 -4.8692 0.1116 -1.8050,
		 -4.9607 0.2352 -1.8050,
		 -4.9928 0.3810 -1.8050,
		 -4.9607 0.5268 -1.8050,
		 -4.8692 0.6504 -1.8050,
		 -4.7322 0.7330 -1.8050,
		 -4.5707 0.7620 -1.8050,
		 -4.4091 0.7330 -1.8050,
		 -4.2721 0.6504 -1.8050,
		 -4.1806 0.5268 -1.8050,
		 -4.1485 0.3810 -1.8050,
		 -4.1806 0.2352 -1.8050,
		 -4.2721 0.1116 -1.8050,
		 -4.4091 0.0290 -1.8050,
		 -4.5707 0.0000 -1.8455,
		 -4.7322 0.0290 -1.8455,
		 -4.8692 0.1116 -1.8455,
		 -4.9607 0.2352 -1.8455,
		 -4.9928 0.3810 -1.8455,
		 -4.9607 0.5268 -1.8455,
		 -4.8692 0.6504 -1.8455,
		 -4.7322 0.7330 -1.8455,
		 -4.5707 0.7620 -1.8455,
		 -4.4091 0.7330 -1.8455,
		 -4.2721 0.6504 -1.8455,
		 -4.1806 0.5268 -1.8455,
		 -4.1485 0.3810 -1.8455,
		 -4.1806 0.2352 -1.8455,
		 -4.2721 0.1116 -1.8455,
		 -4.4091 0.0290 -1.8455,
		 -4.9182 0.1778 -1.8455,
		 -4.2231 0.1778 -1.8455,
		 -4.4715 0.1981 -1.8455,
		 -4.5566 0.1778 -1.8455,
		 -4.2081 0.1981 -1.8455,
		 -4.4015 0.2463 -1.8455,
		 -4.1782 0.2463 -1.8455,
		 -4.3573 0.3149 -1.8455,
		 -4.1630 0.3149 -1.8455,
		 -4.3455 0.3937 -1.8455,
		 -4.1513 0.3937 -1.8455,
		 -4.3680 0.4705 -1.8455,
		 -4.1682 0.4705 -1.8455,
		 -4.4214 0.5336 -1.8455,
		 -4.1857 0.5336 -1.8455,
		 -4.4975 0.5736 -1.8455,
		 -4.2152 0.5736 -1.8455,
		 -4.5847 0.5842 -1.8455,
		 -4.2231 0.5842 -1.8455,
		 -4.2231 0.5842 -1.8455,
		 -4.9182 0.5842 -1.8455,
		 -4.6698 0.5639 -1.8455,
		 -4.9333 0.5639 -1.8455,
		 -4.7398 0.5157 -1.8455,
		 -4.9631 0.5157 -1.8455,
		 -4.7841 0.4470 -1.8455,
		 -4.9783 0.4470 -1.8455,
		 -4.7958 0.3683 -1.8455,
		 -4.9900 0.3683 -1.8455,
		 -4.7733 0.2915 -1.8455,
		 -4.9731 0.2915 -1.8455,
		 -4.7199 0.2283 -1.8455,
		 -4.9556 0.2283 -1.8455,
		 -4.6438 0.1884 -1.8455,
		 -4.9261 0.1884 -1.8455,
		 -4.9182 0.1778 -1.8455,
		 -4.2231 0.1778 -1.8455,
		 -4.9182 0.1778 -1.8455,
		 -4.2081 0.1981 -1.8455,
		 -4.1782 0.2463 -1.8455,
		 -4.1630 0.3149 -1.8455,
		 -4.1513 0.3937 -1.8455,
		 -4.1682 0.4705 -1.8455,
		 -4.1857 0.5336 -1.8455,
		 -4.2152 0.5736 -1.8455,
		 -4.2231 0.5842 -1.8455,
		 -4.9182 0.5842 -1.8455,
		 -4.2231 0.5842 -1.8455,
		 -4.9333 0.5639 -1.8455,
		 -4.9631 0.5157 -1.8455,
		 -4.9783 0.4470 -1.8455,
		 -4.9900 0.3683 -1.8455,
		 -4.9731 0.2915 -1.8455,
		 -4.9556 0.2283 -1.8455,
		 -4.9261 0.1884 -1.8455,
		 -4.9182 0.1778 -1.8455
		]
	} #Coordinate3
	Material {
		ambientColor      0.0000 0.0000 0.0000  #ambientColor
		diffuseColor      0.0000 0.0000 0.0000  #diffuseColor
		transparency      0.0000                #transparency
	} #Material

	IndexedFaceSet {
		coordIndex [ 
		 0, 1, 2, 3, 4, 5, 6, 7, 8, 9, 10, 11, 12, 13, 14, 15,-1,
		 15, 14, 13, 12, 11, 10, 9, 8, 7, 6, 5, 4, 3, 2, 1, 0,-1,
		 0, 15, 31, 16,-1,
		 16, 31, 15, 0,-1,
		 1, 0, 16, 17,-1,
		 17, 16, 0, 1,-1,
		 2, 1, 17, 18,-1,
		 18, 17, 1, 2,-1,
		 3, 2, 18, 19,-1,
		 19, 18, 2, 3,-1,
		 4, 3, 19, 20,-1,
		 20, 19, 3, 4,-1,
		 5, 4, 20, 21,-1,
		 21, 20, 4, 5,-1,
		 6, 5, 21, 22,-1,
		 22, 21, 5, 6,-1,
		 7, 6, 22, 23,-1,
		 23, 22, 6, 7,-1,
		 8, 7, 23, 24,-1,
		 24, 23, 7, 8,-1,
		 9, 8, 24, 25,-1,
		 25, 24, 8, 9,-1,
		 10, 9, 25, 26,-1,
		 26, 25, 9, 10,-1,
		 11, 10, 26, 27,-1,
		 27, 26, 10, 11,-1,
		 12, 11, 27, 28,-1,
		 28, 27, 11, 12,-1,
		 13, 12, 28, 29,-1,
		 29, 28, 12, 13,-1,
		 14, 13, 29, 30,-1,
		 30, 29, 13, 14,-1,
		 15, 14, 30, 31,-1,
		 31, 30, 14, 15,-1,
		 32, 18, 17, 16, 31, 30, 33,-1,
		 34, 35, 33, 36,-1,
		 37, 34, 36, 29, 38,-1,
		 39, 37, 38, 40,-1,
		 41, 39, 40, 28, 42,-1,
		 43, 41, 42, 44,-1,
		 45, 43, 44, 27, 46,-1,
		 47, 45, 46, 48,-1,
		 49, 47, 48, 50,-1,
		 51, 26, 25, 24, 23, 22, 52,-1,
		 53, 49, 52, 54,-1,
		 55, 53, 54, 21, 56,-1,
		 57, 55, 56, 58,-1,
		 59, 57, 58, 20, 60,-1,
		 61, 59, 60, 62,-1,
		 63, 61, 62, 19, 64,-1,
		 65, 63, 64, 66,-1,
		 35, 65, 66, 67,-1,
		]
	} #IndexedFaceSet
	Material {
		ambientColor      0.2088 0.2088 0.2088  #ambientColor
		diffuseColor      0.8353 0.8353 0.8353  #diffuseColor
		transparency      0.0000                #transparency
	} #Material

	IndexedFaceSet {
		coordIndex [ 
		 59, 61, 63, 65, 35, 34, 37, 39, 41, 43, 45, 47, 49, 53, 55, 57,-1,
		]
	} #IndexedFaceSet
	Material {
		ambientColor      0.0000 0.0000 0.0000  #ambientColor
		diffuseColor      0.0000 0.0000 0.0000  #diffuseColor
		transparency      0.0000                #transparency
	} #Material

	IndexedFaceSet {
		coordIndex [ 
		 68, 30, 31, 16, 17, 18, 69,-1,
		 70, 68, 35, 34,-1,
		 71, 29, 70, 34, 37,-1,
		 72, 71, 37, 39,-1,
		 73, 28, 72, 39, 41,-1,
		 74, 73, 41, 43,-1,
		 75, 27, 74, 43, 45,-1,
		 76, 75, 45, 47,-1,
		 77, 76, 47, 49,-1,
		 78, 22, 23, 24, 25, 26, 79,-1,
		 80, 78, 49, 53,-1,
		 81, 21, 80, 53, 55,-1,
		 82, 81, 55, 57,-1,
		 83, 20, 82, 57, 59,-1,
		 84, 83, 59, 61,-1,
		 85, 19, 84, 61, 63,-1,
		 86, 85, 63, 65,-1,
		 87, 86, 65, 35,-1,
		]
	} #IndexedFaceSet
	Material {
		ambientColor      0.2088 0.2088 0.2088  #ambientColor
		diffuseColor      0.8353 0.8353 0.8353  #diffuseColor
		transparency      0.0000                #transparency
	} #Material

	IndexedFaceSet {
		coordIndex [ 
		 57, 55, 53, 49, 47, 45, 43, 41, 39, 37, 34, 35, 65, 63, 61, 59,-1,
		]
	} #IndexedFaceSet
} #Polyhedron
}
