#VRML V1.0 ascii

Separator {
	Info { string "Virtus 3D Website Builder 1.0
	VRML Export Filter
	Virtus Corporation
	114 MacKenan Drive, Suite 100
	Cary, NC 27511
	919-467-9700"}

	DEF BackgroundColor Info{  # Sky color
		string " 0.3 0.8 1.0 "
	}

	DirectionalLight {
		on         TRUE          # SFBool
		intensity  1.0           # SFFloat
		color      0.4 0.4 0.4   # SFColor
		direction  0 0 0   # SFVec3f
	}

	DirectionalLight {
		on         TRUE          # SFBool
		intensity  1.0           # SFFloat
		color      0.5 0.5 0.5   # SFColor
		direction  34 -247 -57   # SFVec3f
	}

	DirectionalLight {
		on         TRUE          # SFBool
		intensity  1.0           # SFFloat
		color      0.4 0.4 0.4   # SFColor
		direction  -209 -104 105   # SFVec3f
	}

	DirectionalLight {
		on         TRUE          # SFBool
		intensity  1.0           # SFFloat
		color      0.5 0.5 0.5   # SFColor
		direction  5 119 -226   # SFVec3f
	}

	PerspectiveCamera {
		position -6.9596 0.2032 9.0932          #SFVec3f 
		orientation 1 0 0  0.0982     #SFRotation 
		orientation 0 1 0  5.7450     #SFRotation 
		focalDistance  5            #SFFloat 
		heightAngle 2.1726 
	}

	ShapeHints {
		vertexOrdering	CLOCKWISE
		shapeType	SOLID
	}

	Transform {
		translation 0 0 0
		scaleFactor 1.0 1.0 1.0
	}

Separator { #Polyhedron
	DEF COORD0 Coordinate3 {
		point [
		 7.6200 4.5720 -7.6200,
		 7.6200 4.5720 7.6200,
		 -7.6200 4.5720 7.6200,
		 -7.6200 4.5720 -7.6200,
		 7.6200 -1.5240 -7.6200,
		 7.6200 -1.5240 7.6200,
		 -7.6200 -1.5240 7.6200,
		 -7.6200 -1.5240 -7.6200
		]
	} #Coordinate3
	Material {
		ambientColor      0.2500 0.2500 0.2500  #ambientColor
		diffuseColor      1.0000 1.0000 1.0000  #diffuseColor
		transparency      1.0000                #transparency
	} #Material

	IndexedFaceSet {
		coordIndex [ 
		 0, 1, 2, 3,-1,
		 3, 2, 1, 0,-1,
		]
	} #IndexedFaceSet
	Material {
		ambientColor      0.2500 0.2500 0.2500  #ambientColor
		diffuseColor      1.0000 1.0000 1.0000  #diffuseColor
		transparency      0.0000                #transparency
	} #Material

	IndexedFaceSet {
		coordIndex [ 
		 0, 3, 7, 4,-1,
		 4, 7, 3, 0,-1,
		]
	} #IndexedFaceSet
	Material {
		ambientColor      0.2500 0.2500 0.2500  #ambientColor
		diffuseColor      1.0000 1.0000 1.0000  #diffuseColor
		transparency      1.0000                #transparency
	} #Material

	IndexedFaceSet {
		coordIndex [ 
		 1, 0, 4, 5,-1,
		 5, 4, 0, 1,-1,
		 2, 1, 5, 6,-1,
		 6, 5, 1, 2,-1,
		 3, 2, 6, 7,-1,
		 7, 6, 2, 3,-1,
		]
	} #IndexedFaceSet
	Material {
		ambientColor      0.2500 0.2500 0.2500  #ambientColor
		diffuseColor      1.0000 1.0000 1.0000  #diffuseColor
		transparency      0.0000                #transparency
	} #Material

	IndexedFaceSet {
		coordIndex [ 
		 7, 6, 5, 4,-1,
		 4, 5, 6, 7,-1,
		]
	} #IndexedFaceSet
} #Polyhedron
Separator { #Polyhedron
	DEF COORD1 Coordinate3 {
		point [
		 -4.8768 0.0000 2.4384,
		 -4.8768 0.0000 -7.6200,
		 4.8768 0.0000 -7.6200,
		 4.8768 0.0000 2.4384,
		 -4.8768 -1.5240 2.4384,
		 -4.8768 -1.5240 -7.6200,
		 4.8768 -1.5240 -7.6200,
		 4.8768 -1.5240 2.4384
		]
	} #Coordinate3
	Material {
		ambientColor      0.2500 0.2500 0.2500  #ambientColor
		diffuseColor      1.0000 1.0000 1.0000  #diffuseColor
		transparency      0.0000                #transparency
	} #Material

	IndexedFaceSet {
		coordIndex [ 
		 0, 1, 2, 3,-1,
		 3, 2, 1, 0,-1,
		 0, 3, 7, 4,-1,
		 4, 7, 3, 0,-1,
		 1, 0, 4, 5,-1,
		 5, 4, 0, 1,-1,
		 2, 1, 5, 6,-1,
		 6, 5, 1, 2,-1,
		 3, 2, 6, 7,-1,
		 7, 6, 2, 3,-1,
		 7, 6, 5, 4,-1,
		 4, 5, 6, 7,-1,
		]
	} #IndexedFaceSet
} #Polyhedron
Separator { #Polyhedron
	DEF COORD2 Coordinate3 {
		point [
		 4.5720 -1.2192 2.4384,
		 4.5720 -1.2192 5.4864,
		 -4.5720 -1.2192 5.4864,
		 -4.5720 -1.2192 2.4384,
		 4.5720 -1.5240 2.4384,
		 4.5720 -1.5240 5.4864,
		 -4.5720 -1.5240 5.4864,
		 -4.5720 -1.5240 2.4384
		]
	} #Coordinate3
	Material {
		ambientColor      0.2500 0.2500 0.2500  #ambientColor
		diffuseColor      1.0000 1.0000 1.0000  #diffuseColor
		transparency      0.0000                #transparency
	} #Material

	IndexedFaceSet {
		coordIndex [ 
		 0, 1, 2, 3,-1,
		 3, 2, 1, 0,-1,
		 0, 3, 7, 4,-1,
		 4, 7, 3, 0,-1,
		 1, 0, 4, 5,-1,
		 5, 4, 0, 1,-1,
		 2, 1, 5, 6,-1,
		 6, 5, 1, 2,-1,
		 3, 2, 6, 7,-1,
		 7, 6, 2, 3,-1,
		 7, 6, 5, 4,-1,
		 4, 5, 6, 7,-1,
		]
	} #IndexedFaceSet
} #Polyhedron
Separator { #Polyhedron
	DEF COORD3 Coordinate3 {
		point [
		 3.3528 -0.9144 2.4384,
		 3.3528 -0.9144 4.5720,
		 -3.3528 -0.9144 4.5720,
		 -3.3528 -0.9144 2.4384,
		 3.3528 -1.2192 2.4384,
		 3.3528 -1.2192 4.5720,
		 -3.3528 -1.2192 4.5720,
		 -3.3528 -1.2192 2.4384
		]
	} #Coordinate3
	Material {
		ambientColor      0.2500 0.2500 0.2500  #ambientColor
		diffuseColor      1.0000 1.0000 1.0000  #diffuseColor
		transparency      0.0000                #transparency
	} #Material

	IndexedFaceSet {
		coordIndex [ 
		 0, 1, 2, 3,-1,
		 3, 2, 1, 0,-1,
		 0, 3, 7, 4,-1,
		 4, 7, 3, 0,-1,
		 1, 0, 4, 5,-1,
		 5, 4, 0, 1,-1,
		 2, 1, 5, 6,-1,
		 6, 5, 1, 2,-1,
		 3, 2, 6, 7,-1,
		 7, 6, 2, 3,-1,
		 7, 6, 5, 4,-1,
		 4, 5, 6, 7,-1,
		]
	} #IndexedFaceSet
} #Polyhedron
Separator { #Polyhedron
	DEF COORD4 Coordinate3 {
		point [
		 2.7432 -0.6096 2.4384,
		 2.7432 -0.6096 3.9624,
		 -2.7432 -0.6096 3.9624,
		 -2.7432 -0.6096 2.4384,
		 2.7432 -0.9144 2.4384,
		 2.7432 -0.9144 3.9624,
		 -2.7432 -0.9144 3.9624,
		 -2.7432 -0.9144 2.4384
		]
	} #Coordinate3
	Material {
		ambientColor      0.2500 0.2500 0.2500  #ambientColor
		diffuseColor      1.0000 1.0000 1.0000  #diffuseColor
		transparency      0.0000                #transparency
	} #Material

	IndexedFaceSet {
		coordIndex [ 
		 0, 1, 2, 3,-1,
		 3, 2, 1, 0,-1,
		 0, 3, 7, 4,-1,
		 4, 7, 3, 0,-1,
		 1, 0, 4, 5,-1,
		 5, 4, 0, 1,-1,
		 2, 1, 5, 6,-1,
		 6, 5, 1, 2,-1,
		 3, 2, 6, 7,-1,
		 7, 6, 2, 3,-1,
		 7, 6, 5, 4,-1,
		 4, 5, 6, 7,-1,
		]
	} #IndexedFaceSet
} #Polyhedron
Separator { #Polyhedron
	DEF COORD5 Coordinate3 {
		point [
		 2.4384 -0.3048 2.4384,
		 2.4384 -0.3048 3.3528,
		 -2.4384 -0.3048 3.3528,
		 -2.4384 -0.3048 2.4384,
		 2.4384 -0.6096 2.4384,
		 2.4384 -0.6096 3.3528,
		 -2.4384 -0.6096 3.3528,
		 -2.4384 -0.6096 2.4384
		]
	} #Coordinate3
	Material {
		ambientColor      0.2500 0.2500 0.2500  #ambientColor
		diffuseColor      1.0000 1.0000 1.0000  #diffuseColor
		transparency      0.0000                #transparency
	} #Material

	IndexedFaceSet {
		coordIndex [ 
		 0, 1, 2, 3,-1,
		 3, 2, 1, 0,-1,
		 0, 3, 7, 4,-1,
		 4, 7, 3, 0,-1,
		 1, 0, 4, 5,-1,
		 5, 4, 0, 1,-1,
		 2, 1, 5, 6,-1,
		 6, 5, 1, 2,-1,
		 3, 2, 6, 7,-1,
		 7, 6, 2, 3,-1,
		 7, 6, 5, 4,-1,
		 4, 5, 6, 7,-1,
		]
	} #IndexedFaceSet
} #Polyhedron
Separator { #Polyhedron
	DEF COORD6 Coordinate3 {
		point [
		 2.1336 0.0000 2.4384,
		 2.1336 0.0000 3.0480,
		 -2.1336 0.0000 3.0480,
		 -2.1336 0.0000 2.4384,
		 2.1336 -0.3048 2.4384,
		 2.1336 -0.3048 3.0480,
		 -2.1336 -0.3048 3.0480,
		 -2.1336 -0.3048 2.4384
		]
	} #Coordinate3
	Material {
		ambientColor      0.2500 0.2500 0.2500  #ambientColor
		diffuseColor      1.0000 1.0000 1.0000  #diffuseColor
		transparency      0.0000                #transparency
	} #Material

	IndexedFaceSet {
		coordIndex [ 
		 0, 1, 2, 3,-1,
		 3, 2, 1, 0,-1,
		 0, 3, 7, 4,-1,
		 4, 7, 3, 0,-1,
		 1, 0, 4, 5,-1,
		 5, 4, 0, 1,-1,
		 2, 1, 5, 6,-1,
		 6, 5, 1, 2,-1,
		 3, 2, 6, 7,-1,
		 7, 6, 2, 3,-1,
		 7, 6, 5, 4,-1,
		 4, 5, 6, 7,-1,
		]
	} #IndexedFaceSet
} #Polyhedron
Separator { #Polyhedron
	DEF COORD7 Coordinate3 {
		point [
		 -4.8768 0.0000 -7.6200,
		 -4.8768 0.0000 1.5240,
		 -5.7912 0.0000 1.5240,
		 -5.7912 0.0000 -7.6200,
		 -4.8768 -1.5240 -7.6200,
		 -4.8768 -1.5240 1.5240,
		 -5.7912 -1.5240 1.5240,
		 -5.7912 -1.5240 -7.6200
		]
	} #Coordinate3
	Material {
		ambientColor      0.2500 0.2500 0.2500  #ambientColor
		diffuseColor      1.0000 1.0000 1.0000  #diffuseColor
		transparency      0.0000                #transparency
	} #Material

	IndexedFaceSet {
		coordIndex [ 
		 0, 1, 2, 3,-1,
		 3, 2, 1, 0,-1,
		 0, 3, 7, 4,-1,
		 4, 7, 3, 0,-1,
		 1, 0, 4, 5,-1,
		 5, 4, 0, 1,-1,
		 2, 1, 5, 6,-1,
		 6, 5, 1, 2,-1,
		 3, 2, 6, 7,-1,
		 7, 6, 2, 3,-1,
		 7, 6, 5, 4,-1,
		 4, 5, 6, 7,-1,
		]
	} #IndexedFaceSet
} #Polyhedron
Separator { #Polyhedron
	DEF COORD8 Coordinate3 {
		point [
		 4.8768 0.0000 1.5240,
		 4.8768 0.0000 -7.6200,
		 5.7912 0.0000 -7.6200,
		 5.7912 0.0000 1.5240,
		 4.8768 -1.5240 1.5240,
		 4.8768 -1.5240 -7.6200,
		 5.7912 -1.5240 -7.6200,
		 5.7912 -1.5240 1.5240
		]
	} #Coordinate3
	Material {
		ambientColor      0.2500 0.2500 0.2500  #ambientColor
		diffuseColor      1.0000 1.0000 1.0000  #diffuseColor
		transparency      0.0000                #transparency
	} #Material

	IndexedFaceSet {
		coordIndex [ 
		 0, 1, 2, 3,-1,
		 3, 2, 1, 0,-1,
		 0, 3, 7, 4,-1,
		 4, 7, 3, 0,-1,
		 1, 0, 4, 5,-1,
		 5, 4, 0, 1,-1,
		 2, 1, 5, 6,-1,
		 6, 5, 1, 2,-1,
		 3, 2, 6, 7,-1,
		 7, 6, 2, 3,-1,
		 7, 6, 5, 4,-1,
		 4, 5, 6, 7,-1,
		]
	} #IndexedFaceSet
} #Polyhedron
Separator { #Polyhedron
	DEF COORD9 Coordinate3 {
		point [
		 5.4864 -0.6096 1.5240,
		 5.4864 -0.6096 2.1336,
		 4.8768 -0.6096 2.1336,
		 4.8768 -0.6096 1.5240,
		 5.4864 -1.5240 1.5240,
		 5.4864 -1.5240 2.1336,
		 4.8768 -1.5240 2.1336,
		 4.8768 -1.5240 1.5240
		]
	} #Coordinate3
	Material {
		ambientColor      0.2500 0.2500 0.2500  #ambientColor
		diffuseColor      1.0000 1.0000 1.0000  #diffuseColor
		transparency      0.0000                #transparency
	} #Material

	IndexedFaceSet {
		coordIndex [ 
		 0, 1, 2, 3,-1,
		 3, 2, 1, 0,-1,
		 0, 3, 7, 4,-1,
		 4, 7, 3, 0,-1,
		 1, 0, 4, 5,-1,
		 5, 4, 0, 1,-1,
		 2, 1, 5, 6,-1,
		 6, 5, 1, 2,-1,
		 3, 2, 6, 7,-1,
		 7, 6, 2, 3,-1,
		 7, 6, 5, 4,-1,
		 4, 5, 6, 7,-1,
		]
	} #IndexedFaceSet
} #Polyhedron
Separator { #Polyhedron
	DEF COORD10 Coordinate3 {
		point [
		 -4.8768 -0.6096 1.5240,
		 -4.8768 -0.6096 2.1336,
		 -5.4864 -0.6096 2.1336,
		 -5.4864 -0.6096 1.5240,
		 -4.8768 -1.5240 1.5240,
		 -4.8768 -1.5240 2.1336,
		 -5.4864 -1.5240 2.1336,
		 -5.4864 -1.5240 1.5240
		]
	} #Coordinate3
	Material {
		ambientColor      0.2500 0.2500 0.2500  #ambientColor
		diffuseColor      1.0000 1.0000 1.0000  #diffuseColor
		transparency      0.0000                #transparency
	} #Material

	IndexedFaceSet {
		coordIndex [ 
		 0, 1, 2, 3,-1,
		 3, 2, 1, 0,-1,
		 0, 3, 7, 4,-1,
		 4, 7, 3, 0,-1,
		 1, 0, 4, 5,-1,
		 5, 4, 0, 1,-1,
		 2, 1, 5, 6,-1,
		 6, 5, 1, 2,-1,
		 3, 2, 6, 7,-1,
		 7, 6, 2, 3,-1,
		 7, 6, 5, 4,-1,
		 4, 5, 6, 7,-1,
		]
	} #IndexedFaceSet
} #Polyhedron
Separator { #Polyhedron
	DEF COORD11 Coordinate3 {
		point [
		 -2.8147 4.5720 -7.5736,
		 -2.6170 4.5720 -7.4415,
		 -2.4848 4.5720 -7.2437,
		 -2.4384 4.5720 -7.0104,
		 -2.4848 4.5720 -6.7771,
		 -2.6170 4.5720 -6.5794,
		 -2.8147 4.5720 -6.4472,
		 -3.0480 4.5720 -6.4008,
		 -3.2813 4.5720 -6.4472,
		 -3.4791 4.5720 -6.5794,
		 -3.6112 4.5720 -6.7771,
		 -3.6576 4.5720 -7.0104,
		 -3.6112 4.5720 -7.2437,
		 -3.4791 4.5720 -7.4415,
		 -3.2813 4.5720 -7.5736,
		 -3.0480 4.5720 -7.6200,
		 -2.8147 0.0000 -7.5736,
		 -2.6170 0.0000 -7.4415,
		 -2.4848 0.0000 -7.2437,
		 -2.4384 0.0000 -7.0104,
		 -2.4848 0.0000 -6.7771,
		 -2.6170 0.0000 -6.5794,
		 -2.8147 0.0000 -6.4472,
		 -3.0480 0.0000 -6.4008,
		 -3.2813 0.0000 -6.4472,
		 -3.4791 0.0000 -6.5794,
		 -3.6112 0.0000 -6.7771,
		 -3.6576 0.0000 -7.0104,
		 -3.6112 0.0000 -7.2437,
		 -3.4791 0.0000 -7.4415,
		 -3.2813 0.0000 -7.5736,
		 -3.0480 0.0000 -7.6200
		]
	} #Coordinate3
	Material {
		ambientColor      0.2500 0.2500 0.2500  #ambientColor
		diffuseColor      1.0000 1.0000 1.0000  #diffuseColor
		transparency      0.0000                #transparency
	} #Material

	IndexedFaceSet {
		coordIndex [ 
		 0, 1, 2, 3, 4, 5, 6, 7, 8, 9, 10, 11, 12, 13, 14, 15,-1,
		 15, 14, 13, 12, 11, 10, 9, 8, 7, 6, 5, 4, 3, 2, 1, 0,-1,
		 0, 15, 31, 16,-1,
		 16, 31, 15, 0,-1,
		 1, 0, 16, 17,-1,
		 17, 16, 0, 1,-1,
		 2, 1, 17, 18,-1,
		 18, 17, 1, 2,-1,
		 3, 2, 18, 19,-1,
		 19, 18, 2, 3,-1,
		 4, 3, 19, 20,-1,
		 20, 19, 3, 4,-1,
		 5, 4, 20, 21,-1,
		 21, 20, 4, 5,-1,
		 6, 5, 21, 22,-1,
		 22, 21, 5, 6,-1,
		 7, 6, 22, 23,-1,
		 23, 22, 6, 7,-1,
		 8, 7, 23, 24,-1,
		 24, 23, 7, 8,-1,
		 9, 8, 24, 25,-1,
		 25, 24, 8, 9,-1,
		 10, 9, 25, 26,-1,
		 26, 25, 9, 10,-1,
		 11, 10, 26, 27,-1,
		 27, 26, 10, 11,-1,
		 12, 11, 27, 28,-1,
		 28, 27, 11, 12,-1,
		 13, 12, 28, 29,-1,
		 29, 28, 12, 13,-1,
		 14, 13, 29, 30,-1,
		 30, 29, 13, 14,-1,
		 15, 14, 30, 31,-1,
		 31, 30, 14, 15,-1,
		 31, 30, 29, 28, 27, 26, 25, 24, 23, 22, 21, 20, 19, 18, 17, 16,-1,
		 16, 17, 18, 19, 20, 21, 22, 23, 24, 25, 26, 27, 28, 29, 30, 31,-1,
		]
	} #IndexedFaceSet
} #Polyhedron
Separator { #Polyhedron
	DEF COORD12 Coordinate3 {
		point [
		 3.2813 4.5720 -7.5736,
		 3.4791 4.5720 -7.4415,
		 3.6112 4.5720 -7.2437,
		 3.6576 4.5720 -7.0104,
		 3.6112 4.5720 -6.7771,
		 3.4791 4.5720 -6.5794,
		 3.2813 4.5720 -6.4472,
		 3.0480 4.5720 -6.4008,
		 2.8147 4.5720 -6.4472,
		 2.6170 4.5720 -6.5794,
		 2.4848 4.5720 -6.7771,
		 2.4384 4.5720 -7.0104,
		 2.4848 4.5720 -7.2437,
		 2.6170 4.5720 -7.4415,
		 2.8147 4.5720 -7.5736,
		 3.0480 4.5720 -7.6200,
		 3.2813 0.0000 -7.5736,
		 3.4791 0.0000 -7.4415,
		 3.6112 0.0000 -7.2437,
		 3.6576 0.0000 -7.0104,
		 3.6112 0.0000 -6.7771,
		 3.4791 0.0000 -6.5794,
		 3.2813 0.0000 -6.4472,
		 3.0480 0.0000 -6.4008,
		 2.8147 0.0000 -6.4472,
		 2.6170 0.0000 -6.5794,
		 2.4848 0.0000 -6.7771,
		 2.4384 0.0000 -7.0104,
		 2.4848 0.0000 -7.2437,
		 2.6170 0.0000 -7.4415,
		 2.8147 0.0000 -7.5736,
		 3.0480 0.0000 -7.6200
		]
	} #Coordinate3
	Material {
		ambientColor      0.2500 0.2500 0.2500  #ambientColor
		diffuseColor      1.0000 1.0000 1.0000  #diffuseColor
		transparency      0.0000                #transparency
	} #Material

	IndexedFaceSet {
		coordIndex [ 
		 0, 1, 2, 3, 4, 5, 6, 7, 8, 9, 10, 11, 12, 13, 14, 15,-1,
		 15, 14, 13, 12, 11, 10, 9, 8, 7, 6, 5, 4, 3, 2, 1, 0,-1,
		 0, 15, 31, 16,-1,
		 16, 31, 15, 0,-1,
		 1, 0, 16, 17,-1,
		 17, 16, 0, 1,-1,
		 2, 1, 17, 18,-1,
		 18, 17, 1, 2,-1,
		 3, 2, 18, 19,-1,
		 19, 18, 2, 3,-1,
		 4, 3, 19, 20,-1,
		 20, 19, 3, 4,-1,
		 5, 4, 20, 21,-1,
		 21, 20, 4, 5,-1,
		 6, 5, 21, 22,-1,
		 22, 21, 5, 6,-1,
		 7, 6, 22, 23,-1,
		 23, 22, 6, 7,-1,
		 8, 7, 23, 24,-1,
		 24, 23, 7, 8,-1,
		 9, 8, 24, 25,-1,
		 25, 24, 8, 9,-1,
		 10, 9, 25, 26,-1,
		 26, 25, 9, 10,-1,
		 11, 10, 26, 27,-1,
		 27, 26, 10, 11,-1,
		 12, 11, 27, 28,-1,
		 28, 27, 11, 12,-1,
		 13, 12, 28, 29,-1,
		 29, 28, 12, 13,-1,
		 14, 13, 29, 30,-1,
		 30, 29, 13, 14,-1,
		 15, 14, 30, 31,-1,
		 31, 30, 14, 15,-1,
		 31, 30, 29, 28, 27, 26, 25, 24, 23, 22, 21, 20, 19, 18, 17, 16,-1,
		 16, 17, 18, 19, 20, 21, 22, 23, 24, 25, 26, 27, 28, 29, 30, 31,-1,
		]
	} #IndexedFaceSet
} #Polyhedron
Separator { #Polyhedron
	DEF COORD13 Coordinate3 {
		point [
		 -4.6435 4.5720 -7.5736,
		 -4.4458 4.5720 -7.4415,
		 -4.3136 4.5720 -7.2437,
		 -4.2672 4.5720 -7.0104,
		 -4.3136 4.5720 -6.7771,
		 -4.4458 4.5720 -6.5794,
		 -4.6435 4.5720 -6.4472,
		 -4.8768 4.5720 -6.4008,
		 -5.1101 4.5720 -6.4472,
		 -5.3079 4.5720 -6.5794,
		 -5.4400 4.5720 -6.7771,
		 -5.4864 4.5720 -7.0104,
		 -5.4400 4.5720 -7.2437,
		 -5.3079 4.5720 -7.4415,
		 -5.1101 4.5720 -7.5736,
		 -4.8768 4.5720 -7.6200,
		 -4.6435 0.0000 -7.5736,
		 -4.4458 0.0000 -7.4415,
		 -4.3136 0.0000 -7.2437,
		 -4.2672 0.0000 -7.0104,
		 -4.3136 0.0000 -6.7771,
		 -4.4458 0.0000 -6.5794,
		 -4.6435 0.0000 -6.4472,
		 -4.8768 0.0000 -6.4008,
		 -5.1101 0.0000 -6.4472,
		 -5.3079 0.0000 -6.5794,
		 -5.4400 0.0000 -6.7771,
		 -5.4864 0.0000 -7.0104,
		 -5.4400 0.0000 -7.2437,
		 -5.3079 0.0000 -7.4415,
		 -5.1101 0.0000 -7.5736,
		 -4.8768 0.0000 -7.6200
		]
	} #Coordinate3
	Material {
		ambientColor      0.2500 0.2500 0.2500  #ambientColor
		diffuseColor      1.0000 1.0000 1.0000  #diffuseColor
		transparency      0.0000                #transparency
	} #Material

	IndexedFaceSet {
		coordIndex [ 
		 0, 1, 2, 3, 4, 5, 6, 7, 8, 9, 10, 11, 12, 13, 14, 15,-1,
		 15, 14, 13, 12, 11, 10, 9, 8, 7, 6, 5, 4, 3, 2, 1, 0,-1,
		 0, 15, 31, 16,-1,
		 16, 31, 15, 0,-1,
		 1, 0, 16, 17,-1,
		 17, 16, 0, 1,-1,
		 2, 1, 17, 18,-1,
		 18, 17, 1, 2,-1,
		 3, 2, 18, 19,-1,
		 19, 18, 2, 3,-1,
		 4, 3, 19, 20,-1,
		 20, 19, 3, 4,-1,
		 5, 4, 20, 21,-1,
		 21, 20, 4, 5,-1,
		 6, 5, 21, 22,-1,
		 22, 21, 5, 6,-1,
		 7, 6, 22, 23,-1,
		 23, 22, 6, 7,-1,
		 8, 7, 23, 24,-1,
		 24, 23, 7, 8,-1,
		 9, 8, 24, 25,-1,
		 25, 24, 8, 9,-1,
		 10, 9, 25, 26,-1,
		 26, 25, 9, 10,-1,
		 11, 10, 26, 27,-1,
		 27, 26, 10, 11,-1,
		 12, 11, 27, 28,-1,
		 28, 27, 11, 12,-1,
		 13, 12, 28, 29,-1,
		 29, 28, 12, 13,-1,
		 14, 13, 29, 30,-1,
		 30, 29, 13, 14,-1,
		 15, 14, 30, 31,-1,
		 31, 30, 14, 15,-1,
		 31, 30, 29, 28, 27, 26, 25, 24, 23, 22, 21, 20, 19, 18, 17, 16,-1,
		 16, 17, 18, 19, 20, 21, 22, 23, 24, 25, 26, 27, 28, 29, 30, 31,-1,
		]
	} #IndexedFaceSet
} #Polyhedron
Separator { #Polyhedron
	DEF COORD14 Coordinate3 {
		point [
		 5.1101 4.5720 -7.5736,
		 5.3079 4.5720 -7.4415,
		 5.4400 4.5720 -7.2437,
		 5.4864 4.5720 -7.0104,
		 5.4400 4.5720 -6.7771,
		 5.3079 4.5720 -6.5794,
		 5.1101 4.5720 -6.4472,
		 4.8768 4.5720 -6.4008,
		 4.6435 4.5720 -6.4472,
		 4.4458 4.5720 -6.5794,
		 4.3136 4.5720 -6.7771,
		 4.2672 4.5720 -7.0104,
		 4.3136 4.5720 -7.2437,
		 4.4458 4.5720 -7.4415,
		 4.6435 4.5720 -7.5736,
		 4.8768 4.5720 -7.6200,
		 5.1101 0.0000 -7.5736,
		 5.3079 0.0000 -7.4415,
		 5.4400 0.0000 -7.2437,
		 5.4864 0.0000 -7.0104,
		 5.4400 0.0000 -6.7771,
		 5.3079 0.0000 -6.5794,
		 5.1101 0.0000 -6.4472,
		 4.8768 0.0000 -6.4008,
		 4.6435 0.0000 -6.4472,
		 4.4458 0.0000 -6.5794,
		 4.3136 0.0000 -6.7771,
		 4.2672 0.0000 -7.0104,
		 4.3136 0.0000 -7.2437,
		 4.4458 0.0000 -7.4415,
		 4.6435 0.0000 -7.5736,
		 4.8768 0.0000 -7.6200
		]
	} #Coordinate3
	Material {
		ambientColor      0.2500 0.2500 0.2500  #ambientColor
		diffuseColor      1.0000 1.0000 1.0000  #diffuseColor
		transparency      0.0000                #transparency
	} #Material

	IndexedFaceSet {
		coordIndex [ 
		 0, 1, 2, 3, 4, 5, 6, 7, 8, 9, 10, 11, 12, 13, 14, 15,-1,
		 15, 14, 13, 12, 11, 10, 9, 8, 7, 6, 5, 4, 3, 2, 1, 0,-1,
		 0, 15, 31, 16,-1,
		 16, 31, 15, 0,-1,
		 1, 0, 16, 17,-1,
		 17, 16, 0, 1,-1,
		 2, 1, 17, 18,-1,
		 18, 17, 1, 2,-1,
		 3, 2, 18, 19,-1,
		 19, 18, 2, 3,-1,
		 4, 3, 19, 20,-1,
		 20, 19, 3, 4,-1,
		 5, 4, 20, 21,-1,
		 21, 20, 4, 5,-1,
		 6, 5, 21, 22,-1,
		 22, 21, 5, 6,-1,
		 7, 6, 22, 23,-1,
		 23, 22, 6, 7,-1,
		 8, 7, 23, 24,-1,
		 24, 23, 7, 8,-1,
		 9, 8, 24, 25,-1,
		 25, 24, 8, 9,-1,
		 10, 9, 25, 26,-1,
		 26, 25, 9, 10,-1,
		 11, 10, 26, 27,-1,
		 27, 26, 10, 11,-1,
		 12, 11, 27, 28,-1,
		 28, 27, 11, 12,-1,
		 13, 12, 28, 29,-1,
		 29, 28, 12, 13,-1,
		 14, 13, 29, 30,-1,
		 30, 29, 13, 14,-1,
		 15, 14, 30, 31,-1,
		 31, 30, 14, 15,-1,
		 31, 30, 29, 28, 27, 26, 25, 24, 23, 22, 21, 20, 19, 18, 17, 16,-1,
		 16, 17, 18, 19, 20, 21, 22, 23, 24, 25, 26, 27, 28, 29, 30, 31,-1,
		]
	} #IndexedFaceSet
} #Polyhedron
Separator { #Polyhedron
	DEF COORD15 Coordinate3 {
		point [
		 -1.3085 4.5720 -7.5307,
		 -1.2192 4.5720 -7.3152,
		 -1.3085 4.5720 -7.0997,
		 -1.5240 4.5720 -7.0104,
		 -1.7395 4.5720 -7.0997,
		 -1.8288 4.5720 -7.3152,
		 -1.7395 4.5720 -7.5307,
		 -1.5240 4.5720 -7.6200,
		 -1.3085 0.0000 -7.5307,
		 -1.2192 0.0000 -7.3152,
		 -1.3085 0.0000 -7.0997,
		 -1.5240 0.0000 -7.0104,
		 -1.7395 0.0000 -7.0997,
		 -1.8288 0.0000 -7.3152,
		 -1.7395 0.0000 -7.5307,
		 -1.5240 0.0000 -7.6200
		]
	} #Coordinate3
	Material {
		ambientColor      0.2500 0.2500 0.2500  #ambientColor
		diffuseColor      1.0000 1.0000 1.0000  #diffuseColor
		transparency      0.0000                #transparency
	} #Material

	IndexedFaceSet {
		coordIndex [ 
		 0, 1, 2, 3, 4, 5, 6, 7,-1,
		 7, 6, 5, 4, 3, 2, 1, 0,-1,
		 0, 7, 15, 8,-1,
		 8, 15, 7, 0,-1,
		 1, 0, 8, 9,-1,
		 9, 8, 0, 1,-1,
		 2, 1, 9, 10,-1,
		 10, 9, 1, 2,-1,
		 3, 2, 10, 11,-1,
		 11, 10, 2, 3,-1,
		 4, 3, 11, 12,-1,
		 12, 11, 3, 4,-1,
		 5, 4, 12, 13,-1,
		 13, 12, 4, 5,-1,
		 6, 5, 13, 14,-1,
		 14, 13, 5, 6,-1,
		 7, 6, 14, 15,-1,
		 15, 14, 6, 7,-1,
		 15, 14, 13, 12, 11, 10, 9, 8,-1,
		 8, 9, 10, 11, 12, 13, 14, 15,-1,
		]
	} #IndexedFaceSet
} #Polyhedron
Separator { #Polyhedron
	DEF COORD16 Coordinate3 {
		point [
		 2.0443 4.5720 -7.5307,
		 2.1336 4.5720 -7.3152,
		 2.0443 4.5720 -7.0997,
		 1.8288 4.5720 -7.0104,
		 1.6133 4.5720 -7.0997,
		 1.5240 4.5720 -7.3152,
		 1.6133 4.5720 -7.5307,
		 1.8288 4.5720 -7.6200,
		 2.0443 0.0000 -7.5307,
		 2.1336 0.0000 -7.3152,
		 2.0443 0.0000 -7.0997,
		 1.8288 0.0000 -7.0104,
		 1.6133 0.0000 -7.0997,
		 1.5240 0.0000 -7.3152,
		 1.6133 0.0000 -7.5307,
		 1.8288 0.0000 -7.6200
		]
	} #Coordinate3
	Material {
		ambientColor      0.2500 0.2500 0.2500  #ambientColor
		diffuseColor      1.0000 1.0000 1.0000  #diffuseColor
		transparency      0.0000                #transparency
	} #Material

	IndexedFaceSet {
		coordIndex [ 
		 0, 1, 2, 3, 4, 5, 6, 7,-1,
		 7, 6, 5, 4, 3, 2, 1, 0,-1,
		 0, 7, 15, 8,-1,
		 8, 15, 7, 0,-1,
		 1, 0, 8, 9,-1,
		 9, 8, 0, 1,-1,
		 2, 1, 9, 10,-1,
		 10, 9, 1, 2,-1,
		 3, 2, 10, 11,-1,
		 11, 10, 2, 3,-1,
		 4, 3, 11, 12,-1,
		 12, 11, 3, 4,-1,
		 5, 4, 12, 13,-1,
		 13, 12, 4, 5,-1,
		 6, 5, 13, 14,-1,
		 14, 13, 5, 6,-1,
		 7, 6, 14, 15,-1,
		 15, 14, 6, 7,-1,
		 15, 14, 13, 12, 11, 10, 9, 8,-1,
		 8, 9, 10, 11, 12, 13, 14, 15,-1,
		]
	} #IndexedFaceSet
} #Polyhedron
Separator { #Polyhedron
	DEF COORD17 Coordinate3 {
		point [
		 1.2192 3.6576 -7.6200,
		 1.2192 3.6576 -7.4676,
		 -0.9144 3.6576 -7.4676,
		 -0.9144 3.6576 -7.6200,
		 1.2192 0.0000 -7.6200,
		 1.2192 0.0000 -7.4676,
		 -0.9144 0.0000 -7.4676,
		 -0.9144 0.0000 -7.6200
		]
	} #Coordinate3
	Material {
		ambientColor      0.2500 0.2500 0.2500  #ambientColor
		diffuseColor      1.0000 1.0000 1.0000  #diffuseColor
		transparency      0.0000                #transparency
	} #Material

	IndexedFaceSet {
		coordIndex [ 
		 0, 1, 2, 3,-1,
		 3, 2, 1, 0,-1,
		 0, 3, 7, 4,-1,
		 4, 7, 3, 0,-1,
		 1, 0, 4, 5,-1,
		 5, 4, 0, 1,-1,
		 2, 1, 5, 6,-1,
		 6, 5, 1, 2,-1,
		 3, 2, 6, 7,-1,
		 7, 6, 2, 3,-1,
		 7, 6, 5, 4,-1,
		 4, 5, 6, 7,-1,
		]
	} #IndexedFaceSet
} #Polyhedron
Separator { #Polyhedron
	DEF COORD18 Coordinate3 {
		point [
		 -0.9144 3.6576 -7.4676,
		 -0.9144 0.0000 -7.4676,
		 -0.7620 0.0000 -7.4676,
		 -0.7620 3.6576 -7.4676,
		 -0.9144 3.6576 -7.4168,
		 -0.9144 0.0000 -7.4168,
		 -0.7620 0.0000 -7.4168,
		 -0.7620 3.6576 -7.4168
		]
	} #Coordinate3
	Material {
		ambientColor      0.2500 0.2500 0.2500  #ambientColor
		diffuseColor      1.0000 1.0000 1.0000  #diffuseColor
		transparency      0.0000                #transparency
	} #Material

	IndexedFaceSet {
		coordIndex [ 
		 0, 1, 2, 3,-1,
		 3, 2, 1, 0,-1,
		 0, 3, 7, 4,-1,
		 4, 7, 3, 0,-1,
		 1, 0, 4, 5,-1,
		 5, 4, 0, 1,-1,
		 2, 1, 5, 6,-1,
		 6, 5, 1, 2,-1,
		 3, 2, 6, 7,-1,
		 7, 6, 2, 3,-1,
		 7, 6, 5, 4,-1,
		 4, 5, 6, 7,-1,
		]
	} #IndexedFaceSet
} #Polyhedron
Separator { #Polyhedron
	DEF COORD19 Coordinate3 {
		point [
		 -0.7620 0.1524 -7.4676,
		 -0.7620 0.0000 -7.4676,
		 1.0668 0.0000 -7.4676,
		 1.0668 0.1524 -7.4676,
		 -0.7620 0.1524 -7.4168,
		 -0.7620 0.0000 -7.4168,
		 1.0668 0.0000 -7.4168,
		 1.0668 0.1524 -7.4168
		]
	} #Coordinate3
	Material {
		ambientColor      0.2500 0.2500 0.2500  #ambientColor
		diffuseColor      1.0000 1.0000 1.0000  #diffuseColor
		transparency      0.0000                #transparency
	} #Material

	IndexedFaceSet {
		coordIndex [ 
		 0, 1, 2, 3,-1,
		 3, 2, 1, 0,-1,
		 0, 3, 7, 4,-1,
		 4, 7, 3, 0,-1,
		 1, 0, 4, 5,-1,
		 5, 4, 0, 1,-1,
		 2, 1, 5, 6,-1,
		 6, 5, 1, 2,-1,
		 3, 2, 6, 7,-1,
		 7, 6, 2, 3,-1,
		 7, 6, 5, 4,-1,
		 4, 5, 6, 7,-1,
		]
	} #IndexedFaceSet
} #Polyhedron
Separator { #Polyhedron
	DEF COORD20 Coordinate3 {
		point [
		 1.2192 0.0000 -7.4676,
		 1.2192 3.6576 -7.4676,
		 1.0668 3.6576 -7.4676,
		 1.0668 0.0000 -7.4676,
		 1.2192 0.0000 -7.4168,
		 1.2192 3.6576 -7.4168,
		 1.0668 3.6576 -7.4168,
		 1.0668 0.0000 -7.4168
		]
	} #Coordinate3
	Material {
		ambientColor      0.2500 0.2500 0.2500  #ambientColor
		diffuseColor      1.0000 1.0000 1.0000  #diffuseColor
		transparency      0.0000                #transparency
	} #Material

	IndexedFaceSet {
		coordIndex [ 
		 0, 1, 2, 3,-1,
		 3, 2, 1, 0,-1,
		 0, 3, 7, 4,-1,
		 4, 7, 3, 0,-1,
		 1, 0, 4, 5,-1,
		 5, 4, 0, 1,-1,
		 2, 1, 5, 6,-1,
		 6, 5, 1, 2,-1,
		 3, 2, 6, 7,-1,
		 7, 6, 2, 3,-1,
		 7, 6, 5, 4,-1,
		 4, 5, 6, 7,-1,
		]
	} #IndexedFaceSet
} #Polyhedron
Separator { #Polyhedron
	DEF COORD21 Coordinate3 {
		point [
		 -0.7620 3.6576 -7.4676,
		 -0.7620 3.5052 -7.4676,
		 1.0668 3.5052 -7.4676,
		 1.0668 3.6576 -7.4676,
		 -0.7620 3.6576 -7.4168,
		 -0.7620 3.5052 -7.4168,
		 1.0668 3.5052 -7.4168,
		 1.0668 3.6576 -7.4168
		]
	} #Coordinate3
	Material {
		ambientColor      0.2500 0.2500 0.2500  #ambientColor
		diffuseColor      1.0000 1.0000 1.0000  #diffuseColor
		transparency      0.0000                #transparency
	} #Material

	IndexedFaceSet {
		coordIndex [ 
		 0, 1, 2, 3,-1,
		 3, 2, 1, 0,-1,
		 0, 3, 7, 4,-1,
		 4, 7, 3, 0,-1,
		 1, 0, 4, 5,-1,
		 5, 4, 0, 1,-1,
		 2, 1, 5, 6,-1,
		 6, 5, 1, 2,-1,
		 3, 2, 6, 7,-1,
		 7, 6, 2, 3,-1,
		 7, 6, 5, 4,-1,
		 4, 5, 6, 7,-1,
		]
	} #IndexedFaceSet
} #Polyhedron
Separator { #Polyhedron
	DEF COORD22 Coordinate3 {
		point [
		 -0.4572 3.2004 -7.4676,
		 -0.4572 2.1336 -7.4676,
		 0.0000 2.1336 -7.4676,
		 0.0000 3.2004 -7.4676,
		 -0.2286 2.6670 -7.4168
		]
	} #Coordinate3
	Material {
		ambientColor      0.2500 0.2500 0.2500  #ambientColor
		diffuseColor      1.0000 1.0000 1.0000  #diffuseColor
		transparency      0.0000                #transparency
	} #Material

	IndexedFaceSet {
		coordIndex [ 
		 0, 1, 2, 3,-1,
		 3, 2, 1, 0,-1,
		 0, 3, 4,-1,
		 4, 3, 0,-1,
		 1, 0, 4,-1,
		 4, 0, 1,-1,
		 2, 1, 4,-1,
		 4, 1, 2,-1,
		 3, 2, 4,-1,
		 4, 2, 3,-1,
		]
	} #IndexedFaceSet
} #Polyhedron
Separator { #Polyhedron
	DEF COORD23 Coordinate3 {
		point [
		 0.3048 3.2004 -7.4676,
		 0.3048 2.1336 -7.4676,
		 0.7620 2.1336 -7.4676,
		 0.7620 3.2004 -7.4676,
		 0.5334 2.6670 -7.4168
		]
	} #Coordinate3
	Material {
		ambientColor      0.2500 0.2500 0.2500  #ambientColor
		diffuseColor      1.0000 1.0000 1.0000  #diffuseColor
		transparency      0.0000                #transparency
	} #Material

	IndexedFaceSet {
		coordIndex [ 
		 0, 1, 2, 3,-1,
		 3, 2, 1, 0,-1,
		 0, 3, 4,-1,
		 4, 3, 0,-1,
		 1, 0, 4,-1,
		 4, 0, 1,-1,
		 2, 1, 4,-1,
		 4, 1, 2,-1,
		 3, 2, 4,-1,
		 4, 2, 3,-1,
		]
	} #IndexedFaceSet
} #Polyhedron
Separator { #Polyhedron
	DEF COORD24 Coordinate3 {
		point [
		 0.3048 1.8288 -7.4676,
		 0.3048 0.3048 -7.4676,
		 0.7620 0.3048 -7.4676,
		 0.7620 1.8288 -7.4676,
		 0.6096 1.0668 -7.4168
		]
	} #Coordinate3
	Material {
		ambientColor      0.2500 0.2500 0.2500  #ambientColor
		diffuseColor      1.0000 1.0000 1.0000  #diffuseColor
		transparency      0.0000                #transparency
	} #Material

	IndexedFaceSet {
		coordIndex [ 
		 0, 1, 2, 3,-1,
		 3, 2, 1, 0,-1,
		 0, 3, 4,-1,
		 4, 3, 0,-1,
		 1, 0, 4,-1,
		 4, 0, 1,-1,
		 2, 1, 4,-1,
		 4, 1, 2,-1,
		 3, 2, 4,-1,
		 4, 2, 3,-1,
		]
	} #IndexedFaceSet
} #Polyhedron
Separator { #Polyhedron
	DEF COORD25 Coordinate3 {
		point [
		 -0.4572 1.8288 -7.4676,
		 -0.4572 0.3048 -7.4676,
		 0.0000 0.3048 -7.4676,
		 0.0000 1.8288 -7.4676,
		 -0.2286 1.0668 -7.4168
		]
	} #Coordinate3
	Material {
		ambientColor      0.2500 0.2500 0.2500  #ambientColor
		diffuseColor      1.0000 1.0000 1.0000  #diffuseColor
		transparency      0.0000                #transparency
	} #Material

	IndexedFaceSet {
		coordIndex [ 
		 0, 1, 2, 3,-1,
		 3, 2, 1, 0,-1,
		 0, 3, 4,-1,
		 4, 3, 0,-1,
		 1, 0, 4,-1,
		 4, 0, 1,-1,
		 2, 1, 4,-1,
		 4, 1, 2,-1,
		 3, 2, 4,-1,
		 4, 2, 3,-1,
		]
	} #IndexedFaceSet
} #Polyhedron
}
