#VRML V1.0 ascii

Separator {
	Info { string "Virtus 3D Website Builder 1.0
	VRML Export Filter
	Virtus Corporation
	114 MacKenan Drive, Suite 100
	Cary, NC 27511
	919-467-9700"}

	DEF BackgroundColor Info{  # Sky color
		string " 0.3 0.8 1.0 "
	}

	DirectionalLight {
		on         TRUE          # SFBool
		intensity  1.0           # SFFloat
		color      0.4 0.4 0.4   # SFColor
		direction  0 0 0   # SFVec3f
	}

	DirectionalLight {
		on         TRUE          # SFBool
		intensity  1.0           # SFFloat
		color      0.5 0.5 0.5   # SFColor
		direction  34 -247 -57   # SFVec3f
	}

	DirectionalLight {
		on         TRUE          # SFBool
		intensity  1.0           # SFFloat
		color      0.4 0.4 0.4   # SFColor
		direction  -209 -104 105   # SFVec3f
	}

	DirectionalLight {
		on         TRUE          # SFBool
		intensity  1.0           # SFFloat
		color      0.5 0.5 0.5   # SFColor
		direction  5 119 -226   # SFVec3f
	}

	PerspectiveCamera {
		position 2.7178 0.9144 -10.0076          #SFVec3f 
		orientation 0 1 0  4.9594     #SFRotation 
		focalDistance  5            #SFFloat 
		heightAngle 2.6979 
	}

	ShapeHints {
		vertexOrdering	CLOCKWISE
		shapeType	SOLID
	}

	Transform {
		translation 0 0 0
		scaleFactor 1.0 1.0 1.0
	}

Separator { #Polyhedron
	DEF COORD0 Coordinate3 {
		point [
		 -0.9398 0.0000 -29.2355,
		 17.0427 0.0000 -24.1857,
		 26.1875 0.0000 -7.8994,
		 21.1377 0.0000 10.0831,
		 4.8514 0.0000 19.2278,
		 -13.1311 0.0000 14.1781,
		 -22.2758 0.0000 -2.1082,
		 -17.2261 0.0000 -20.0907,
		 -0.9398 -2.4384 -29.2355,
		 17.0427 -2.4384 -24.1857,
		 26.1875 -2.4384 -7.8994,
		 21.1377 -2.4384 10.0831,
		 4.8514 -2.4384 19.2278,
		 -13.1311 -2.4384 14.1781,
		 -22.2758 -2.4384 -2.1082,
		 -17.2261 -2.4384 -20.0907,
		 24.0548 0.0000 -0.3048,
		 -21.2632 0.0000 -0.3048,
		 0.2159 0.0000 -0.4572,
		 0.2159 0.0000 -0.3048,
		 -21.2632 0.0000 -0.3048,
		 -21.3488 0.0000 -0.4572,
		 -21.3488 0.0000 -0.4572,
		 -21.1560 0.0000 -6.0960,
		 25.6810 0.0000 -6.0960,
		 24.0976 0.0000 -0.4572,
		 0.3683 0.0000 -0.3048,
		 0.3683 0.0000 -0.4572,
		 24.0548 0.0000 -0.3048,
		 -3.0480 0.0000 -6.2484,
		 -3.0480 0.0000 -6.0960,
		 -21.1560 0.0000 -6.0960,
		 -21.1132 0.0000 -6.2484,
		 4.5720 0.0000 -6.0960,
		 4.5720 0.0000 -6.2484,
		 25.7238 0.0000 -6.2484,
		 25.6810 0.0000 -6.0960,
		 -3.0480 0.0000 -6.7056,
		 -3.0480 0.0000 -6.2484,
		 -20.9848 0.0000 -6.7056,
		 -3.0480 0.0000 -12.1920,
		 -3.0480 0.0000 -6.7056,
		 -20.9848 0.0000 -6.7056,
		 -19.4441 0.0000 -12.1920,
		 -19.4441 0.0000 -12.1920,
		 23.7771 0.0000 -12.1920,
		 25.4886 0.0000 -9.1440,
		 25.8522 0.0000 -6.7056,
		 4.5720 0.0000 -6.7056,
		 4.5720 0.0000 -9.1440,
		 7.9248 0.0000 -9.1440,
		 7.9248 0.0000 -12.1920,
		 25.4886 0.0000 -9.1440,
		 4.5720 0.0000 -6.2484,
		 4.5720 0.0000 -6.7056,
		 25.8522 0.0000 -6.7056,
		 25.7238 0.0000 -6.2484
		]
	} #Coordinate3
	Material {
		ambientColor      0.0000 0.1000 0.0500  #ambientColor
		diffuseColor      0.0000 0.4000 0.2000  #diffuseColor
		transparency      0.0000                #transparency
	} #Material

	IndexedFaceSet {
		coordIndex [ 
		 16, 3, 4, 5, 17,-1,
		 18, 19, 20, 21,-1,
		 22, 6, 23, 24, 25,-1,
		 26, 27, 25, 28,-1,
		 29, 30, 31, 32,-1,
		 33, 34, 35, 36,-1,
		 37, 38, 32, 39,-1,
		 40, 41, 42, 43,-1,
		 44, 7, 0, 1, 45,-1,
		 46, 2, 47, 48, 49,-1,
		 50, 51, 45, 52,-1,
		 53, 54, 55, 56,-1,
		 7, 6, 5, 4, 3, 2, 1, 0,-1,
		 0, 7, 15, 8,-1,
		 8, 15, 7, 0,-1,
		 1, 0, 8, 9,-1,
		 9, 8, 0, 1,-1,
		 2, 1, 9, 10,-1,
		 10, 9, 1, 2,-1,
		 3, 2, 10, 11,-1,
		 11, 10, 2, 3,-1,
		 4, 3, 11, 12,-1,
		 12, 11, 3, 4,-1,
		 5, 4, 12, 13,-1,
		 13, 12, 4, 5,-1,
		 6, 5, 13, 14,-1,
		 14, 13, 5, 6,-1,
		 7, 6, 14, 15,-1,
		 15, 14, 6, 7,-1,
		 15, 14, 13, 12, 11, 10, 9, 8,-1,
		 8, 9, 10, 11, 12, 13, 14, 15,-1,
		]
	} #IndexedFaceSet
} #Polyhedron
Separator { #Polyhedron
	DEF COORD1 Coordinate3 {
		point [
		 4.5720 2.4384 -12.1920,
		 4.5720 2.4384 -6.0960,
		 -3.0480 2.4384 -6.0960,
		 -3.0480 2.4384 -12.1920,
		 4.5720 0.0000 -12.1920,
		 4.5720 0.0000 -6.0960,
		 -3.0480 0.0000 -6.0960,
		 -3.0480 0.0000 -12.1920,
		 4.5720 0.9144 -12.1920,
		 -3.0480 0.9144 -12.1920,
		 4.5720 2.1336 -12.1920,
		 4.5720 0.9144 -12.1920,
		 1.5240 0.9144 -12.1920,
		 1.5240 2.1336 -12.1920,
		 -3.0480 2.1336 -12.1920,
		 4.5720 2.1336 -12.1920,
		 -3.0480 0.9144 -12.1920,
		 -3.0480 2.1336 -12.1920,
		 -0.9144 2.1336 -12.1920,
		 -0.9144 0.9144 -12.1920,
		 4.5720 2.4384 -9.1440,
		 4.5720 0.0000 -9.1440,
		 4.5720 0.0000 -6.0960,
		 4.5720 0.0002 -6.0960,
		 4.5720 0.0002 -12.1920,
		 4.5720 1.9941 -6.0960,
		 4.5720 0.0002 -10.0837,
		 4.5720 1.9941 -10.0837,
		 4.5720 1.9941 -12.1920,
		 4.5720 1.9941 -6.0960,
		 4.5720 0.0002 -12.1920,
		 4.5720 1.9941 -12.1920,
		 4.5720 1.9941 -11.3157,
		 4.5720 0.0002 -11.3157,
		 -3.0480 1.8289 -6.0960,
		 4.5720 1.8289 -6.0960,
		 -3.0480 0.0001 -6.0960,
		 0.7620 1.8289 -6.0960,
		 0.7620 0.0001 -6.0960,
		 4.5720 0.0001 -6.0960,
		 -3.0480 0.0001 -6.0960,
		 1.5240 1.8034 -6.0960,
		 1.5240 1.8289 -6.0960,
		 4.5720 1.8289 -6.0960,
		 4.5720 1.8034 -6.0960,
		 1.5240 0.3303 -6.0960,
		 1.5240 1.8034 -6.0960,
		 2.1082 1.8034 -6.0960,
		 2.1082 0.3303 -6.0960,
		 4.5720 0.3303 -6.0960,
		 4.5720 0.0001 -6.0960,
		 1.5240 0.0001 -6.0960,
		 1.5240 0.3303 -6.0960,
		 4.5720 1.8034 -6.0960,
		 3.6703 0.3303 -6.0960,
		 3.6703 1.8034 -6.0960,
		 2.1082 1.7019 -6.0960,
		 3.6703 1.7019 -6.0960,
		 2.1082 0.4319 -6.0960,
		 2.1082 1.7019 -6.0960,
		 2.2098 1.7019 -6.0960,
		 2.2098 0.4319 -6.0960,
		 3.6703 0.4319 -6.0960,
		 2.1082 0.4319 -6.0960,
		 3.6703 1.7019 -6.0960,
		 3.5687 0.4319 -6.0960,
		 3.5687 1.7019 -6.0960,
		 2.2098 1.7018 -6.0960,
		 3.5687 1.7018 -6.0960,
		 2.2098 1.4732 -6.0960,
		 2.2098 1.7018 -6.0960,
		 2.4003 1.7018 -6.0960,
		 2.4003 1.4732 -6.0960,
		 2.2098 1.2192 -6.0960,
		 2.2098 1.4224 -6.0960,
		 2.4003 1.4224 -6.0960,
		 2.4003 1.2192 -6.0960,
		 2.2098 0.9652 -6.0960,
		 2.2098 1.1684 -6.0960,
		 2.4003 1.1684 -6.0960,
		 2.4003 0.9652 -6.0960,
		 2.2098 0.7113 -6.0960,
		 2.2098 0.9144 -6.0960,
		 2.4003 0.9144 -6.0960,
		 2.4003 0.7113 -6.0960,
		 2.4003 0.6605 -6.0960,
		 2.4003 0.4319 -6.0960,
		 2.2098 0.6605 -6.0960,
		 2.4511 1.4732 -6.0960,
		 2.4511 1.7018 -6.0960,
		 2.6289 1.7018 -6.0960,
		 2.6289 1.4732 -6.0960,
		 2.4511 1.2192 -6.0960,
		 2.4511 1.4224 -6.0960,
		 2.6289 1.4224 -6.0960,
		 2.6289 1.2192 -6.0960,
		 2.4511 0.9652 -6.0960,
		 2.4511 1.1684 -6.0960,
		 2.6289 1.1684 -6.0960,
		 2.6289 0.9652 -6.0960,
		 2.4511 0.7113 -6.0960,
		 2.4511 0.9144 -6.0960,
		 2.6289 0.9144 -6.0960,
		 2.6289 0.7113 -6.0960,
		 2.6289 0.6605 -6.0960,
		 2.6289 0.4319 -6.0960,
		 2.4511 0.4319 -6.0960,
		 2.4511 0.6605 -6.0960,
		 2.6797 1.4732 -6.0960,
		 2.6797 1.7018 -6.0960,
		 2.8575 1.7018 -6.0960,
		 2.8575 1.4732 -6.0960,
		 2.6797 1.2192 -6.0960,
		 2.6797 1.4224 -6.0960,
		 2.8575 1.4224 -6.0960,
		 2.8575 1.2192 -6.0960,
		 2.6797 0.9652 -6.0960,
		 2.6797 1.1684 -6.0960,
		 2.8575 1.1684 -6.0960,
		 2.8575 0.9652 -6.0960,
		 2.6797 0.7113 -6.0960,
		 2.6797 0.9144 -6.0960,
		 2.8575 0.9144 -6.0960,
		 2.8575 0.7113 -6.0960,
		 2.8575 0.6605 -6.0960,
		 2.8575 0.4319 -6.0960,
		 2.6797 0.4319 -6.0960,
		 2.6797 0.6605 -6.0960,
		 2.9083 1.4732 -6.0960,
		 2.9083 1.7018 -6.0960,
		 3.0861 1.7018 -6.0960,
		 3.0861 1.4732 -6.0960,
		 2.9083 1.2192 -6.0960,
		 2.9083 1.4224 -6.0960,
		 3.0861 1.4224 -6.0960,
		 3.0861 1.2192 -6.0960,
		 2.9083 0.9652 -6.0960,
		 2.9083 1.1684 -6.0960,
		 3.0861 1.1684 -6.0960,
		 3.0861 0.9652 -6.0960,
		 2.9083 0.7113 -6.0960,
		 2.9083 0.9144 -6.0960,
		 3.0861 0.9144 -6.0960,
		 3.0861 0.7113 -6.0960,
		 3.0861 0.6605 -6.0960,
		 3.0861 0.4319 -6.0960,
		 2.9083 0.4319 -6.0960,
		 2.9083 0.6605 -6.0960,
		 3.1369 1.4732 -6.0960,
		 3.1369 1.7018 -6.0960,
		 3.3147 1.7018 -6.0960,
		 3.3147 1.4732 -6.0960,
		 3.1369 1.2192 -6.0960,
		 3.1369 1.4224 -6.0960,
		 3.3147 1.4224 -6.0960,
		 3.3147 1.2192 -6.0960,
		 3.1369 0.9652 -6.0960,
		 3.1369 1.1684 -6.0960,
		 3.3147 1.1684 -6.0960,
		 3.3147 0.9652 -6.0960,
		 3.1369 0.7113 -6.0960,
		 3.1369 0.9144 -6.0960,
		 3.3147 0.9144 -6.0960,
		 3.3147 0.7113 -6.0960,
		 3.3147 0.6605 -6.0960,
		 3.3147 0.4319 -6.0960,
		 3.1369 0.4319 -6.0960,
		 3.1369 0.6605 -6.0960,
		 3.3655 1.4732 -6.0960,
		 3.3655 1.7018 -6.0960,
		 3.5687 1.7018 -6.0960,
		 3.5687 1.4732 -6.0960,
		 3.3655 1.2192 -6.0960,
		 3.3655 1.4224 -6.0960,
		 3.5687 1.4224 -6.0960,
		 3.5687 1.2192 -6.0960,
		 3.3655 0.9652 -6.0960,
		 3.3655 1.1684 -6.0960,
		 3.5687 1.1684 -6.0960,
		 3.5687 0.9652 -6.0960,
		 3.3655 0.7113 -6.0960,
		 3.3655 0.9144 -6.0960,
		 3.5687 0.9144 -6.0960,
		 3.5687 0.7113 -6.0960,
		 3.5687 0.6605 -6.0960,
		 3.3655 0.4319 -6.0960,
		 3.3655 0.6605 -6.0960,
		 2.4003 1.4732 -6.0960,
		 2.4511 1.7018 -6.0960,
		 2.4511 1.4732 -6.0960,
		 2.4003 1.2192 -6.0960,
		 2.4003 1.4224 -6.0960,
		 2.4511 1.4224 -6.0960,
		 2.4511 1.2192 -6.0960,
		 2.4003 0.9652 -6.0960,
		 2.4003 1.1684 -6.0960,
		 2.4511 1.1684 -6.0960,
		 2.4511 0.9652 -6.0960,
		 2.4003 0.7113 -6.0960,
		 2.4003 0.9144 -6.0960,
		 2.4511 0.9144 -6.0960,
		 2.4511 0.7113 -6.0960,
		 2.4511 0.6605 -6.0960,
		 2.4003 0.6605 -6.0960,
		 2.6289 1.4732 -6.0960,
		 2.6289 1.7018 -6.0960,
		 2.6797 1.7018 -6.0960,
		 2.6797 1.4732 -6.0960,
		 2.6289 1.2192 -6.0960,
		 2.6289 1.4224 -6.0960,
		 2.6797 1.4224 -6.0960,
		 2.6797 1.2192 -6.0960,
		 2.6289 0.9652 -6.0960,
		 2.6289 1.1684 -6.0960,
		 2.6797 1.1684 -6.0960,
		 2.6797 0.9652 -6.0960,
		 2.6289 0.7113 -6.0960,
		 2.6289 0.9144 -6.0960,
		 2.6797 0.9144 -6.0960,
		 2.6797 0.7113 -6.0960,
		 2.6797 0.6605 -6.0960,
		 2.6289 0.6605 -6.0960,
		 2.8575 1.4732 -6.0960,
		 2.8575 1.7018 -6.0960,
		 2.9083 1.7018 -6.0960,
		 2.9083 1.4732 -6.0960,
		 2.8575 1.2192 -6.0960,
		 2.8575 1.4224 -6.0960,
		 2.9083 1.4224 -6.0960,
		 2.9083 1.2192 -6.0960,
		 2.8575 0.9652 -6.0960,
		 2.8575 1.1684 -6.0960,
		 2.9083 1.1684 -6.0960,
		 2.9083 0.9652 -6.0960,
		 2.8575 0.7113 -6.0960,
		 2.8575 0.9144 -6.0960,
		 2.9083 0.9144 -6.0960,
		 2.9083 0.7113 -6.0960,
		 2.9083 0.6605 -6.0960,
		 2.8575 0.6605 -6.0960,
		 3.0861 1.4732 -6.0960,
		 3.0861 1.7018 -6.0960,
		 3.1369 1.7018 -6.0960,
		 3.1369 1.4732 -6.0960,
		 3.0861 1.2192 -6.0960,
		 3.0861 1.4224 -6.0960,
		 3.1369 1.4224 -6.0960,
		 3.1369 1.2192 -6.0960,
		 3.0861 0.9652 -6.0960,
		 3.0861 1.1684 -6.0960,
		 3.1369 1.1684 -6.0960,
		 3.1369 0.9652 -6.0960,
		 3.0861 0.7113 -6.0960,
		 3.0861 0.9144 -6.0960,
		 3.1369 0.9144 -6.0960,
		 3.1369 0.7113 -6.0960,
		 3.1369 0.6605 -6.0960,
		 3.0861 0.6605 -6.0960,
		 3.3147 1.4732 -6.0960,
		 3.3147 1.7018 -6.0960,
		 3.3655 1.7018 -6.0960,
		 3.3655 1.4732 -6.0960,
		 3.3147 1.2192 -6.0960,
		 3.3147 1.4224 -6.0960,
		 3.3655 1.4224 -6.0960,
		 3.3655 1.2192 -6.0960,
		 3.3147 0.9652 -6.0960,
		 3.3147 1.1684 -6.0960,
		 3.3655 1.1684 -6.0960,
		 3.3655 0.9652 -6.0960,
		 3.3147 0.7113 -6.0960,
		 3.3147 0.9144 -6.0960,
		 3.3655 0.9144 -6.0960,
		 3.3655 0.7113 -6.0960,
		 3.3655 0.6605 -6.0960,
		 3.3147 0.6605 -6.0960,
		 2.2098 1.4732 -6.0960,
		 3.5687 1.4732 -6.0960,
		 3.5687 1.4224 -6.0960,
		 2.2098 1.4224 -6.0960,
		 2.2098 1.2192 -6.0960,
		 3.5687 1.2192 -6.0960,
		 3.5687 1.1684 -6.0960,
		 2.2098 1.1684 -6.0960,
		 2.2098 0.9652 -6.0960,
		 3.5687 0.9652 -6.0960,
		 3.5687 0.9144 -6.0960,
		 2.2098 0.9144 -6.0960,
		 2.2098 0.7113 -6.0960,
		 3.5687 0.7113 -6.0960,
		 3.5687 0.6605 -6.0960,
		 2.2098 0.6605 -6.0960,
		 4.5720 1.8289 -6.0960,
		 -3.0480 1.8289 -6.0960,
		 -3.0480 0.0001 -6.0960,
		 -3.0480 0.0001 -6.0960,
		 4.5720 0.0001 -6.0960,
		 4.5720 1.8034 -6.0960,
		 4.5720 1.8289 -6.0960,
		 1.5240 1.8034 -6.0960,
		 1.5240 1.8034 -6.0960,
		 1.5240 0.3303 -6.0960,
		 1.5240 0.3303 -6.0960,
		 4.5720 0.0001 -6.0960,
		 4.5720 0.3303 -6.0960,
		 4.5720 1.8034 -6.0960,
		 3.6703 1.7019 -6.0960,
		 2.1082 1.7019 -6.0960,
		 2.1082 1.7019 -6.0960,
		 2.1082 0.4319 -6.0960,
		 2.1082 0.4319 -6.0960,
		 3.6703 0.4319 -6.0960,
		 3.6703 1.7019 -6.0960,
		 3.5687 1.7018 -6.0960,
		 2.2098 1.7018 -6.0960,
		 2.4003 1.4732 -6.0960,
		 2.2098 1.7018 -6.0960,
		 2.2098 1.4732 -6.0960,
		 2.4003 1.2192 -6.0960,
		 2.4003 1.4224 -6.0960,
		 2.2098 1.4224 -6.0960,
		 2.2098 1.2192 -6.0960,
		 2.4003 0.9652 -6.0960,
		 2.4003 1.1684 -6.0960,
		 2.2098 1.1684 -6.0960,
		 2.2098 0.9652 -6.0960,
		 2.4003 0.7113 -6.0960,
		 2.4003 0.9144 -6.0960,
		 2.2098 0.9144 -6.0960,
		 2.2098 0.7113 -6.0960,
		 2.2098 0.6605 -6.0960,
		 2.4003 0.6605 -6.0960,
		 2.6289 1.4732 -6.0960,
		 2.6289 1.7018 -6.0960,
		 2.4511 1.7018 -6.0960,
		 2.4511 1.4732 -6.0960,
		 2.6289 1.2192 -6.0960,
		 2.6289 1.4224 -6.0960,
		 2.4511 1.4224 -6.0960,
		 2.4511 1.2192 -6.0960,
		 2.6289 0.9652 -6.0960,
		 2.6289 1.1684 -6.0960,
		 2.4511 1.1684 -6.0960,
		 2.4511 0.9652 -6.0960,
		 2.6289 0.7113 -6.0960,
		 2.6289 0.9144 -6.0960,
		 2.4511 0.9144 -6.0960,
		 2.4511 0.7113 -6.0960,
		 2.4511 0.6605 -6.0960,
		 2.6289 0.6605 -6.0960,
		 2.8575 1.4732 -6.0960,
		 2.8575 1.7018 -6.0960,
		 2.6797 1.7018 -6.0960,
		 2.6797 1.4732 -6.0960,
		 2.8575 1.2192 -6.0960,
		 2.8575 1.4224 -6.0960,
		 2.6797 1.4224 -6.0960,
		 2.6797 1.2192 -6.0960,
		 2.8575 0.9652 -6.0960,
		 2.8575 1.1684 -6.0960,
		 2.6797 1.1684 -6.0960,
		 2.6797 0.9652 -6.0960,
		 2.8575 0.7113 -6.0960,
		 2.8575 0.9144 -6.0960,
		 2.6797 0.9144 -6.0960,
		 2.6797 0.7113 -6.0960,
		 2.6797 0.6605 -6.0960,
		 2.8575 0.6605 -6.0960,
		 3.0861 1.4732 -6.0960,
		 3.0861 1.7018 -6.0960,
		 2.9083 1.7018 -6.0960,
		 2.9083 1.4732 -6.0960,
		 3.0861 1.2192 -6.0960,
		 3.0861 1.4224 -6.0960,
		 2.9083 1.4224 -6.0960,
		 2.9083 1.2192 -6.0960,
		 3.0861 0.9652 -6.0960,
		 3.0861 1.1684 -6.0960,
		 2.9083 1.1684 -6.0960,
		 2.9083 0.9652 -6.0960,
		 3.0861 0.7113 -6.0960,
		 3.0861 0.9144 -6.0960,
		 2.9083 0.9144 -6.0960,
		 2.9083 0.7113 -6.0960,
		 2.9083 0.6605 -6.0960,
		 3.0861 0.6605 -6.0960,
		 3.3147 1.4732 -6.0960,
		 3.3147 1.7018 -6.0960,
		 3.1369 1.7018 -6.0960,
		 3.1369 1.4732 -6.0960,
		 3.3147 1.2192 -6.0960,
		 3.3147 1.4224 -6.0960,
		 3.1369 1.4224 -6.0960,
		 3.1369 1.2192 -6.0960,
		 3.3147 0.9652 -6.0960,
		 3.3147 1.1684 -6.0960,
		 3.1369 1.1684 -6.0960,
		 3.1369 0.9652 -6.0960,
		 3.3147 0.7113 -6.0960,
		 3.3147 0.9144 -6.0960,
		 3.1369 0.9144 -6.0960,
		 3.1369 0.7113 -6.0960,
		 3.1369 0.6605 -6.0960,
		 3.3147 0.6605 -6.0960,
		 3.5687 1.4732 -6.0960,
		 3.5687 1.7018 -6.0960,
		 3.3655 1.7018 -6.0960,
		 3.3655 1.4732 -6.0960,
		 3.5687 1.2192 -6.0960,
		 3.5687 1.4224 -6.0960,
		 3.3655 1.4224 -6.0960,
		 3.3655 1.2192 -6.0960,
		 3.5687 0.9652 -6.0960,
		 3.5687 1.1684 -6.0960,
		 3.3655 1.1684 -6.0960,
		 3.3655 0.9652 -6.0960,
		 3.5687 0.7113 -6.0960,
		 3.5687 0.9144 -6.0960,
		 3.3655 0.9144 -6.0960,
		 3.3655 0.7113 -6.0960,
		 3.3655 0.6605 -6.0960,
		 3.5687 0.6605 -6.0960,
		 2.4511 1.4732 -6.0960,
		 2.4003 1.4732 -6.0960,
		 2.4511 1.2192 -6.0960,
		 2.4511 1.4224 -6.0960,
		 2.4003 1.4224 -6.0960,
		 2.4003 1.2192 -6.0960,
		 2.4511 0.9652 -6.0960,
		 2.4511 1.1684 -6.0960,
		 2.4003 1.1684 -6.0960,
		 2.4003 0.9652 -6.0960,
		 2.4511 0.7113 -6.0960,
		 2.4511 0.9144 -6.0960,
		 2.4003 0.9144 -6.0960,
		 2.4003 0.7113 -6.0960,
		 2.4003 0.6605 -6.0960,
		 2.4511 0.6605 -6.0960,
		 2.6797 1.4732 -6.0960,
		 2.6289 1.4732 -6.0960,
		 2.6797 1.2192 -6.0960,
		 2.6797 1.4224 -6.0960,
		 2.6289 1.4224 -6.0960,
		 2.6289 1.2192 -6.0960,
		 2.6797 0.9652 -6.0960,
		 2.6797 1.1684 -6.0960,
		 2.6289 1.1684 -6.0960,
		 2.6289 0.9652 -6.0960,
		 2.6797 0.7113 -6.0960,
		 2.6797 0.9144 -6.0960,
		 2.6289 0.9144 -6.0960,
		 2.6289 0.7113 -6.0960,
		 2.6289 0.6605 -6.0960,
		 2.6797 0.6605 -6.0960,
		 2.9083 1.4732 -6.0960,
		 2.8575 1.4732 -6.0960,
		 2.9083 1.2192 -6.0960,
		 2.9083 1.4224 -6.0960,
		 2.8575 1.4224 -6.0960,
		 2.8575 1.2192 -6.0960,
		 2.9083 0.9652 -6.0960,
		 2.9083 1.1684 -6.0960,
		 2.8575 1.1684 -6.0960,
		 2.8575 0.9652 -6.0960,
		 2.9083 0.7113 -6.0960,
		 2.9083 0.9144 -6.0960,
		 2.8575 0.9144 -6.0960,
		 2.8575 0.7113 -6.0960,
		 2.8575 0.6605 -6.0960,
		 2.9083 0.6605 -6.0960,
		 3.1369 1.4732 -6.0960,
		 3.0861 1.4732 -6.0960,
		 3.1369 1.2192 -6.0960,
		 3.1369 1.4224 -6.0960,
		 3.0861 1.4224 -6.0960,
		 3.0861 1.2192 -6.0960,
		 3.1369 0.9652 -6.0960,
		 3.1369 1.1684 -6.0960,
		 3.0861 1.1684 -6.0960,
		 3.0861 0.9652 -6.0960,
		 3.1369 0.7113 -6.0960,
		 3.1369 0.9144 -6.0960,
		 3.0861 0.9144 -6.0960,
		 3.0861 0.7113 -6.0960,
		 3.0861 0.6605 -6.0960,
		 3.1369 0.6605 -6.0960,
		 3.3655 1.4732 -6.0960,
		 3.3147 1.4732 -6.0960,
		 3.3655 1.2192 -6.0960,
		 3.3655 1.4224 -6.0960,
		 3.3147 1.4224 -6.0960,
		 3.3147 1.2192 -6.0960,
		 3.3655 0.9652 -6.0960,
		 3.3655 1.1684 -6.0960,
		 3.3147 1.1684 -6.0960,
		 3.3147 0.9652 -6.0960,
		 3.3655 0.7113 -6.0960,
		 3.3655 0.9144 -6.0960,
		 3.3147 0.9144 -6.0960,
		 3.3147 0.7113 -6.0960,
		 3.3147 0.6605 -6.0960,
		 3.3655 0.6605 -6.0960,
		 -3.0480 1.8798 -6.0960,
		 -3.0480 1.8798 -12.1920,
		 -3.0480 0.0001 -10.7188,
		 -3.0480 1.8798 -10.7188,
		 -3.0480 0.0001 -12.1920,
		 -3.0480 0.0001 -12.1920,
		 -3.0480 0.0001 -6.0960,
		 -3.0480 1.8798 -9.7536,
		 -3.0480 0.0001 -9.7536,
		 -3.0480 0.0001 -6.0960,
		 -3.0480 1.8798 -6.0960,
		 -3.0480 0.0000 -6.7056,
		 4.5720 0.0000 -6.7056,
		 -0.0000 0.0000 -6.2484,
		 -0.0000 0.0000 -6.7056,
		 4.5720 0.0000 -6.2484,
		 4.5720 0.0000 -6.2484,
		 -3.0480 0.0000 -6.2484,
		 -1.5240 0.0000 -6.7056,
		 -1.5240 0.0000 -6.2484,
		 -3.0480 0.0000 -6.2484,
		 -3.0480 0.0000 -6.7056
		]
	} #Coordinate3
	Material {
		ambientColor      0.2500 0.2500 0.2500  #ambientColor
		diffuseColor      1.0000 1.0000 1.0000  #diffuseColor
		transparency      0.0000                #transparency
	} #Material

	IndexedFaceSet {
		coordIndex [ 
		 3, 2, 1, 0,-1,
		 0, 3, 7, 4,-1,
		 8, 4, 7, 9,-1,
		 10, 11, 12, 13,-1,
		 14, 3, 0, 15,-1,
		 16, 17, 18, 19,-1,
		 20, 21, 22, 1,-1,
		 23, 5, 4, 24,-1,
		 25, 23, 26, 27,-1,
		 28, 0, 1, 29,-1,
		 30, 31, 32, 33,-1,
		 34, 2, 1, 35,-1,
		 36, 34, 37, 38,-1,
		 39, 5, 6, 40,-1,
		 41, 42, 43, 44,-1,
		 45, 46, 47, 48,-1,
		 49, 50, 51, 52,-1,
		 53, 49, 54, 55,-1,
		]
	} #IndexedFaceSet
	Material {
		ambientColor      0.1735 0.1735 0.1735  #ambientColor
		diffuseColor      0.6941 0.6941 0.6941  #diffuseColor
		transparency      0.0000                #transparency
	} #Material

	IndexedFaceSet {
		coordIndex [ 
		 56, 47, 55, 57,-1,
		 58, 59, 60, 61,-1,
		 62, 54, 48, 63,-1,
		 64, 62, 65, 66,-1,
		 187, 71, 188, 189,-1,
		 190, 191, 192, 193,-1,
		 194, 195, 196, 197,-1,
		 198, 199, 200, 201,-1,
		 202, 106, 86, 203,-1,
		 204, 205, 206, 207,-1,
		 208, 209, 210, 211,-1,
		 212, 213, 214, 215,-1,
		 216, 217, 218, 219,-1,
		 220, 126, 105, 221,-1,
		 222, 223, 224, 225,-1,
		 226, 227, 228, 229,-1,
		 230, 231, 232, 233,-1,
		 234, 235, 236, 237,-1,
		 238, 146, 125, 239,-1,
		 240, 241, 242, 243,-1,
		 244, 245, 246, 247,-1,
		 248, 249, 250, 251,-1,
		 252, 253, 254, 255,-1,
		 256, 166, 145, 257,-1,
		 258, 259, 260, 261,-1,
		 262, 263, 264, 265,-1,
		 266, 267, 268, 269,-1,
		 270, 271, 272, 273,-1,
		 274, 185, 165, 275,-1,
		 276, 277, 278, 279,-1,
		 280, 281, 282, 283,-1,
		 284, 285, 286, 287,-1,
		 288, 289, 290, 291,-1,
		]
	} #IndexedFaceSet
	Material {
		ambientColor      0.2500 0.2500 0.2500  #ambientColor
		diffuseColor      1.0000 1.0000 1.0000  #diffuseColor
		transparency      0.0000                #transparency
	} #Material

	IndexedFaceSet {
		coordIndex [ 
		 292, 1, 2, 293,-1,
		 38, 37, 293, 294,-1,
		 295, 6, 5, 296,-1,
		 297, 298, 42, 299,-1,
		 48, 47, 300, 301,-1,
		 302, 51, 303, 304,-1,
		 55, 54, 304, 305,-1,
		]
	} #IndexedFaceSet
	Material {
		ambientColor      0.1735 0.1735 0.1735  #ambientColor
		diffuseColor      0.6941 0.6941 0.6941  #diffuseColor
		transparency      0.0000                #transparency
	} #Material

	IndexedFaceSet {
		coordIndex [ 
		 306, 55, 47, 307,-1,
		 61, 60, 308, 309,-1,
		 310, 48, 54, 311,-1,
		 66, 65, 311, 312,-1,
		 422, 188, 71, 423,-1,
		 424, 425, 426, 427,-1,
		 428, 429, 430, 431,-1,
		 432, 433, 434, 435,-1,
		 436, 86, 106, 437,-1,
		 438, 206, 205, 439,-1,
		 440, 441, 442, 443,-1,
		 444, 445, 446, 447,-1,
		 448, 449, 450, 451,-1,
		 452, 105, 126, 453,-1,
		 454, 224, 223, 455,-1,
		 456, 457, 458, 459,-1,
		 460, 461, 462, 463,-1,
		 464, 465, 466, 467,-1,
		 468, 125, 146, 469,-1,
		 470, 242, 241, 471,-1,
		 472, 473, 474, 475,-1,
		 476, 477, 478, 479,-1,
		 480, 481, 482, 483,-1,
		 484, 145, 166, 485,-1,
		 486, 260, 259, 487,-1,
		 488, 489, 490, 491,-1,
		 492, 493, 494, 495,-1,
		 496, 497, 498, 499,-1,
		 500, 165, 185, 501,-1,
		 279, 278, 277, 276,-1,
		 283, 282, 281, 280,-1,
		 287, 286, 285, 284,-1,
		 291, 290, 289, 288,-1,
		]
	} #IndexedFaceSet
	Material {
		ambientColor      0.2500 0.2500 0.2500  #ambientColor
		diffuseColor      1.0000 1.0000 1.0000  #diffuseColor
		transparency      0.0000                #transparency
	} #Material

	IndexedFaceSet {
		coordIndex [ 
		 3, 2, 6, 7,-1,
		 502, 2, 3, 503,-1,
		 504, 505, 503, 506,-1,
		 507, 7, 6, 508,-1,
		 509, 510, 511, 512,-1,
		]
	} #IndexedFaceSet
	Texture2 {
		filename "TXTR0004.JPG"  #filename
		wrapS REPEAT 
		wrapT REPEAT 
	} #Texture2

	IndexedFaceSet {
		coordIndex [ 
		 513, 7, 4, 514,-1,
		 515, 516, 514, 517,-1,
		 518, 5, 6, 519,-1,
		 520, 521, 522, 523,-1,
		]
	} #IndexedFaceSet
	Separator { #Polyhedron
		WWWAnchor {
			name "http://www.pella.com/"
			map NONE
			USE COORD1
			Material {
				ambientColor      0.0833 0.0833 0.2500  #ambientColor
				diffuseColor      0.3333 0.3333 1.0000  #diffuseColor
				transparency      0.4980                #transparency
			} #Material

			Texture2 {
				filename ""  #filename
				wrapS REPEAT 
				wrapT REPEAT 
			} #Texture2

			IndexedFaceSet {
				coordIndex [ 
				 67, 60, 66, 68,-1,
				 69, 70, 71, 72,-1,
				 73, 74, 75, 76,-1,
				 77, 78, 79, 80,-1,
				 81, 82, 83, 84,-1,
				 85, 86, 61, 87,-1,
				 88, 89, 90, 91,-1,
				 92, 93, 94, 95,-1,
				 96, 97, 98, 99,-1,
				 100, 101, 102, 103,-1,
				 104, 105, 106, 107,-1,
				 108, 109, 110, 111,-1,
				 112, 113, 114, 115,-1,
				 116, 117, 118, 119,-1,
				 120, 121, 122, 123,-1,
				 124, 125, 126, 127,-1,
				 128, 129, 130, 131,-1,
				 132, 133, 134, 135,-1,
				 136, 137, 138, 139,-1,
				 140, 141, 142, 143,-1,
				 144, 145, 146, 147,-1,
				 148, 149, 150, 151,-1,
				 152, 153, 154, 155,-1,
				 156, 157, 158, 159,-1,
				 160, 161, 162, 163,-1,
				 164, 165, 166, 167,-1,
				 168, 169, 170, 171,-1,
				 172, 173, 174, 175,-1,
				 176, 177, 178, 179,-1,
				 180, 181, 182, 183,-1,
				 184, 65, 185, 186,-1,
				 313, 66, 60, 314,-1,
				 315, 71, 316, 317,-1,
				 318, 319, 320, 321,-1,
				 322, 323, 324, 325,-1,
				 326, 327, 328, 329,-1,
				 330, 61, 86, 331,-1,
				 332, 333, 334, 335,-1,
				 336, 337, 338, 339,-1,
				 340, 341, 342, 343,-1,
				 344, 345, 346, 347,-1,
				 348, 106, 105, 349,-1,
				 350, 351, 352, 353,-1,
				 354, 355, 356, 357,-1,
				 358, 359, 360, 361,-1,
				 362, 363, 364, 365,-1,
				 366, 126, 125, 367,-1,
				 368, 369, 370, 371,-1,
				 372, 373, 374, 375,-1,
				 376, 377, 378, 379,-1,
				 380, 381, 382, 383,-1,
				 384, 146, 145, 385,-1,
				 386, 387, 388, 389,-1,
				 390, 391, 392, 393,-1,
				 394, 395, 396, 397,-1,
				 398, 399, 400, 401,-1,
				 402, 166, 165, 403,-1,
				 404, 405, 406, 407,-1,
				 408, 409, 410, 411,-1,
				 412, 413, 414, 415,-1,
				 416, 417, 418, 419,-1,
				 420, 185, 65, 421,-1,
				]
			} #IndexedFaceSet
		} #WWWAnchor
	} #Polyhedron
	Separator { #Polyhedron
		WWWAnchor {
			name "kitchen.wrl"
			map NONE
			USE COORD1
			Material {
				ambientColor      0.2500 0.1500 0.0500  #ambientColor
				diffuseColor      1.0000 0.6000 0.2000  #diffuseColor
				transparency      0.0000                #transparency
			} #Material

			IndexedFaceSet {
				coordIndex [ 
				 510, 509, 505, 504,-1,
				]
			} #IndexedFaceSet
		} #WWWAnchor
	} #Polyhedron
} #Polyhedron
Separator { #Polyhedron
	DEF COORD2 Coordinate3 {
		point [
		 0.4482 2.2098 -8.9184,
		 0.5498 2.2098 -8.9565,
		 0.8128 2.2098 -8.5090,
		 0.6096 2.2098 -8.4328,
		 0.4482 2.1844 -8.9184,
		 0.5498 2.1844 -8.9565,
		 0.8128 2.1844 -8.5090,
		 0.6096 2.1844 -8.4328
		]
	} #Coordinate3
	Material {
		ambientColor      0.2000 0.0500 0.0000  #ambientColor
		diffuseColor      0.8000 0.2000 0.0000  #diffuseColor
		transparency      0.0000                #transparency
	} #Material

	Texture2 {
		filename ""  #filename
		wrapS REPEAT 
		wrapT REPEAT 
	} #Texture2

	IndexedFaceSet {
		coordIndex [ 
		 0, 1, 2, 3,-1,
		 3, 2, 1, 0,-1,
		 0, 3, 7, 4,-1,
		 4, 7, 3, 0,-1,
		 1, 0, 4, 5,-1,
		 5, 4, 0, 1,-1,
		 2, 1, 5, 6,-1,
		 6, 5, 1, 2,-1,
		 3, 2, 6, 7,-1,
		 7, 6, 2, 3,-1,
		 7, 6, 5, 4,-1,
		 4, 5, 6, 7,-1,
		]
	} #IndexedFaceSet
} #Polyhedron
Separator { #Polyhedron
	DEF COORD3 Coordinate3 {
		point [
		 0.5104 2.3723 -9.2829,
		 0.5770 2.3723 -9.2384,
		 0.6215 2.3723 -9.1718,
		 0.6371 2.3723 -9.0932,
		 0.6215 2.3723 -9.0147,
		 0.5770 2.3723 -8.9480,
		 0.5104 2.3723 -8.9035,
		 0.4318 2.3723 -8.8879,
		 0.3532 2.3723 -8.9035,
		 0.2866 2.3723 -8.9480,
		 0.2421 2.3723 -9.0147,
		 0.2265 2.3723 -9.0932,
		 0.2421 2.3723 -9.1718,
		 0.2866 2.3723 -9.2384,
		 0.3532 2.3723 -9.2829,
		 0.4318 2.3723 -9.2985,
		 0.4318 1.0668 -9.0932,
		 0.4318 2.2179 -9.2743,
		 0.5011 2.2179 -9.2605,
		 0.5598 2.2179 -9.2212,
		 0.5991 2.2179 -9.1625,
		 0.6128 2.2179 -9.0932,
		 0.5991 2.2179 -9.0239,
		 0.5598 2.2179 -8.9652,
		 0.5011 2.2179 -8.9260,
		 0.4318 2.2179 -8.9122,
		 0.3625 2.2179 -8.9260,
		 0.3038 2.2179 -8.9652,
		 0.2645 2.2179 -9.0239,
		 0.2508 2.2179 -9.0932,
		 0.2645 2.2179 -9.1625,
		 0.3038 2.2179 -9.2212,
		 0.3625 2.2179 -9.2605
		]
	} #Coordinate3
	Material {
		ambientColor      0.1392 0.1392 0.1392  #ambientColor
		diffuseColor      0.5569 0.5569 0.5569  #diffuseColor
		transparency      0.0000                #transparency
	} #Material

	IndexedFaceSet {
		coordIndex [ 
		 0, 1, 2, 3, 4, 5, 6, 7, 8, 9, 10, 11, 12, 13, 14, 15,-1,
		 15, 14, 13, 12, 11, 10, 9, 8, 7, 6, 5, 4, 3, 2, 1, 0,-1,
		 0, 15, 17, 18,-1,
		 18, 17, 15, 0,-1,
		 1, 0, 18, 19,-1,
		 19, 18, 0, 1,-1,
		 2, 1, 19, 20,-1,
		 20, 19, 1, 2,-1,
		 3, 2, 20, 21,-1,
		 21, 20, 2, 3,-1,
		 4, 3, 21, 22,-1,
		 22, 21, 3, 4,-1,
		 5, 4, 22, 23,-1,
		 23, 22, 4, 5,-1,
		 6, 5, 23, 24,-1,
		 24, 23, 5, 6,-1,
		 7, 6, 24, 25,-1,
		 25, 24, 6, 7,-1,
		 8, 7, 25, 26,-1,
		 26, 25, 7, 8,-1,
		 9, 8, 26, 27,-1,
		 27, 26, 8, 9,-1,
		 10, 9, 27, 28,-1,
		 28, 27, 9, 10,-1,
		 11, 10, 28, 29,-1,
		 29, 28, 10, 11,-1,
		 12, 11, 29, 30,-1,
		 30, 29, 11, 12,-1,
		 13, 12, 30, 31,-1,
		 31, 30, 12, 13,-1,
		 14, 13, 31, 32,-1,
		 32, 31, 13, 14,-1,
		 15, 14, 32, 17,-1,
		 17, 32, 14, 15,-1,
		 18, 17, 32, 31, 30, 29, 28, 27, 26, 25, 24, 23, 22, 21, 20, 19,-1,
		 19, 20, 21, 22, 23, 24, 25, 26, 27, 28, 29, 30, 31, 32, 17, 18,-1,
		]
	} #IndexedFaceSet
} #Polyhedron
Separator { #Polyhedron
	DEF COORD4 Coordinate3 {
		point [
		 0.4615 2.2025 -9.1649,
		 0.4867 2.2025 -9.1481,
		 0.5035 2.2025 -9.1229,
		 0.5094 2.2025 -9.0932,
		 0.5035 2.2025 -9.0635,
		 0.4867 2.2025 -9.0384,
		 0.4615 2.2025 -9.0215,
		 0.4318 2.2025 -9.0156,
		 0.4021 2.2025 -9.0215,
		 0.3769 2.2025 -9.0384,
		 0.3601 2.2025 -9.0635,
		 0.3542 2.2025 -9.0932,
		 0.3601 2.2025 -9.1229,
		 0.3769 2.2025 -9.1481,
		 0.4021 2.2025 -9.1649,
		 0.4318 2.2025 -9.1708,
		 0.4615 2.1637 -9.1649,
		 0.4867 2.1637 -9.1481,
		 0.5035 2.1637 -9.1229,
		 0.5094 2.1637 -9.0932,
		 0.5035 2.1637 -9.0635,
		 0.4867 2.1637 -9.0384,
		 0.4615 2.1637 -9.0215,
		 0.4318 2.1637 -9.0156,
		 0.4021 2.1637 -9.0215,
		 0.3769 2.1637 -9.0384,
		 0.3601 2.1637 -9.0635,
		 0.3542 2.1637 -9.0932,
		 0.3601 2.1637 -9.1229,
		 0.3769 2.1637 -9.1481,
		 0.4021 2.1637 -9.1649,
		 0.4318 2.1637 -9.1708
		]
	} #Coordinate3
	Material {
		ambientColor      0.1392 0.1392 0.1392  #ambientColor
		diffuseColor      0.5569 0.5569 0.5569  #diffuseColor
		transparency      0.0000                #transparency
	} #Material

	IndexedFaceSet {
		coordIndex [ 
		 0, 1, 2, 3, 4, 5, 6, 7, 8, 9, 10, 11, 12, 13, 14, 15,-1,
		 15, 14, 13, 12, 11, 10, 9, 8, 7, 6, 5, 4, 3, 2, 1, 0,-1,
		 0, 15, 31, 16,-1,
		 16, 31, 15, 0,-1,
		 1, 0, 16, 17,-1,
		 17, 16, 0, 1,-1,
		 2, 1, 17, 18,-1,
		 18, 17, 1, 2,-1,
		 3, 2, 18, 19,-1,
		 19, 18, 2, 3,-1,
		 4, 3, 19, 20,-1,
		 20, 19, 3, 4,-1,
		 5, 4, 20, 21,-1,
		 21, 20, 4, 5,-1,
		 6, 5, 21, 22,-1,
		 22, 21, 5, 6,-1,
		 7, 6, 22, 23,-1,
		 23, 22, 6, 7,-1,
		 8, 7, 23, 24,-1,
		 24, 23, 7, 8,-1,
		 9, 8, 24, 25,-1,
		 25, 24, 8, 9,-1,
		 10, 9, 25, 26,-1,
		 26, 25, 9, 10,-1,
		 11, 10, 26, 27,-1,
		 27, 26, 10, 11,-1,
		 12, 11, 27, 28,-1,
		 28, 27, 11, 12,-1,
		 13, 12, 28, 29,-1,
		 29, 28, 12, 13,-1,
		 14, 13, 29, 30,-1,
		 30, 29, 13, 14,-1,
		 15, 14, 30, 31,-1,
		 31, 30, 14, 15,-1,
		 31, 30, 29, 28, 27, 26, 25, 24, 23, 22, 21, 20, 19, 18, 17, 16,-1,
		 16, 17, 18, 19, 20, 21, 22, 23, 24, 25, 26, 27, 28, 29, 30, 31,-1,
		]
	} #IndexedFaceSet
} #Polyhedron
Separator { #Polyhedron
	DEF COORD5 Coordinate3 {
		point [
		 0.4318 2.1946 -9.0932,
		 0.5138 2.1476 -9.1719,
		 0.5454 2.1476 -9.0909,
		 0.5105 2.1476 -9.0112,
		 0.4294 2.1476 -8.9796,
		 0.3498 2.1476 -9.0146,
		 0.3182 2.1476 -9.0956,
		 0.3532 2.1476 -9.1752,
		 0.4342 2.1476 -9.2068,
		 0.5355 2.1005 -9.1927,
		 0.5755 2.1005 -9.0902,
		 0.5313 2.1005 -8.9895,
		 0.4288 2.1005 -8.9495,
		 0.3281 2.1005 -8.9937,
		 0.2881 2.1005 -9.0962,
		 0.3323 2.1005 -9.1969,
		 0.4348 2.1005 -9.2369,
		 0.5418 2.0534 -9.1987,
		 0.5842 2.0534 -9.0900,
		 0.5373 2.0534 -8.9832,
		 0.4286 2.0534 -8.9408,
		 0.3218 2.0534 -8.9877,
		 0.2794 2.0534 -9.0964,
		 0.3263 2.0534 -9.2032,
		 0.4350 2.0534 -9.2456,
		 0.5355 2.0063 -9.1927,
		 0.5755 2.0063 -9.0902,
		 0.5313 2.0063 -8.9895,
		 0.4288 2.0063 -8.9495,
		 0.3281 2.0063 -8.9937,
		 0.2881 2.0063 -9.0962,
		 0.3323 2.0063 -9.1969,
		 0.4348 2.0063 -9.2369,
		 0.5138 1.9593 -9.1719,
		 0.5454 1.9593 -9.0909,
		 0.5105 1.9593 -9.0112,
		 0.4294 1.9593 -8.9796,
		 0.3498 1.9593 -9.0146,
		 0.3182 1.9593 -9.0956,
		 0.3532 1.9593 -9.1752,
		 0.4342 1.9593 -9.2068,
		 0.4318 1.9122 -9.0932,
		 0.4340 2.1518 -9.1965,
		 0.5063 2.1518 -9.1647,
		 0.5351 2.1518 -9.0911,
		 0.5033 2.1518 -9.0187,
		 0.4296 2.1518 -8.9899,
		 0.3573 2.1518 -9.0217,
		 0.3285 2.1518 -9.0954,
		 0.3603 2.1518 -9.1678
		]
	} #Coordinate3
	Material {
		ambientColor      0.2500 0.2500 0.0412  #ambientColor
		diffuseColor      1.0000 1.0000 0.1647  #diffuseColor
		transparency      0.0000                #transparency
	} #Material

	IndexedFaceSet {
		coordIndex [ 
		 42, 8, 1, 43,-1,
		 43, 1, 8, 42,-1,
		 43, 1, 2, 44,-1,
		 44, 2, 1, 43,-1,
		 44, 2, 3, 45,-1,
		 45, 3, 2, 44,-1,
		 45, 3, 4, 46,-1,
		 46, 4, 3, 45,-1,
		 46, 4, 5, 47,-1,
		 47, 5, 4, 46,-1,
		 47, 5, 6, 48,-1,
		 48, 6, 5, 47,-1,
		 48, 6, 7, 49,-1,
		 49, 7, 6, 48,-1,
		 49, 7, 8, 42,-1,
		 42, 8, 7, 49,-1,
		 1, 8, 16, 9,-1,
		 9, 16, 8, 1,-1,
		 2, 1, 9, 10,-1,
		 10, 9, 1, 2,-1,
		 3, 2, 10, 11,-1,
		 11, 10, 2, 3,-1,
		 4, 3, 11, 12,-1,
		 12, 11, 3, 4,-1,
		 5, 4, 12, 13,-1,
		 13, 12, 4, 5,-1,
		 6, 5, 13, 14,-1,
		 14, 13, 5, 6,-1,
		 7, 6, 14, 15,-1,
		 15, 14, 6, 7,-1,
		 8, 7, 15, 16,-1,
		 16, 15, 7, 8,-1,
		 9, 16, 24, 17,-1,
		 17, 24, 16, 9,-1,
		 10, 9, 17, 18,-1,
		 18, 17, 9, 10,-1,
		 11, 10, 18, 19,-1,
		 19, 18, 10, 11,-1,
		 12, 11, 19, 20,-1,
		 20, 19, 11, 12,-1,
		 13, 12, 20, 21,-1,
		 21, 20, 12, 13,-1,
		 14, 13, 21, 22,-1,
		 22, 21, 13, 14,-1,
		 15, 14, 22, 23,-1,
		 23, 22, 14, 15,-1,
		 16, 15, 23, 24,-1,
		 24, 23, 15, 16,-1,
		 17, 24, 32, 25,-1,
		 25, 32, 24, 17,-1,
		 18, 17, 25, 26,-1,
		 26, 25, 17, 18,-1,
		 19, 18, 26, 27,-1,
		 27, 26, 18, 19,-1,
		 20, 19, 27, 28,-1,
		 28, 27, 19, 20,-1,
		 21, 20, 28, 29,-1,
		 29, 28, 20, 21,-1,
		 22, 21, 29, 30,-1,
		 30, 29, 21, 22,-1,
		 23, 22, 30, 31,-1,
		 31, 30, 22, 23,-1,
		 24, 23, 31, 32,-1,
		 32, 31, 23, 24,-1,
		 25, 32, 40, 33,-1,
		 33, 40, 32, 25,-1,
		 26, 25, 33, 34,-1,
		 34, 33, 25, 26,-1,
		 27, 26, 34, 35,-1,
		 35, 34, 26, 27,-1,
		 28, 27, 35, 36,-1,
		 36, 35, 27, 28,-1,
		 29, 28, 36, 37,-1,
		 37, 36, 28, 29,-1,
		 30, 29, 37, 38,-1,
		 38, 37, 29, 30,-1,
		 31, 30, 38, 39,-1,
		 39, 38, 30, 31,-1,
		 32, 31, 39, 40,-1,
		 40, 39, 31, 32,-1,
		 33, 40, 41,-1,
		 41, 40, 33,-1,
		 34, 33, 41,-1,
		 41, 33, 34,-1,
		 35, 34, 41,-1,
		 41, 34, 35,-1,
		 36, 35, 41,-1,
		 41, 35, 36,-1,
		 37, 36, 41,-1,
		 41, 36, 37,-1,
		 38, 37, 41,-1,
		 41, 37, 38,-1,
		 39, 38, 41,-1,
		 41, 38, 39,-1,
		 40, 39, 41,-1,
		 41, 39, 40,-1,
		 42, 43, 44, 45, 46, 47, 48, 49,-1,
		 49, 48, 47, 46, 45, 44, 43, 42,-1,
		]
	} #IndexedFaceSet
} #Polyhedron
Separator { #Polyhedron
	DEF COORD6 Coordinate3 {
		point [
		 0.4154 2.2098 -9.2681,
		 0.3138 2.2098 -9.2300,
		 0.0508 2.2098 -9.6774,
		 0.2540 2.2098 -9.7536,
		 0.4154 2.1844 -9.2681,
		 0.3138 2.1844 -9.2300,
		 0.0508 2.1844 -9.6774,
		 0.2540 2.1844 -9.7536
		]
	} #Coordinate3
	Material {
		ambientColor      0.2000 0.0500 0.0000  #ambientColor
		diffuseColor      0.8000 0.2000 0.0000  #diffuseColor
		transparency      0.0000                #transparency
	} #Material

	IndexedFaceSet {
		coordIndex [ 
		 0, 1, 2, 3,-1,
		 3, 2, 1, 0,-1,
		 0, 3, 7, 4,-1,
		 4, 7, 3, 0,-1,
		 1, 0, 4, 5,-1,
		 5, 4, 0, 1,-1,
		 2, 1, 5, 6,-1,
		 6, 5, 1, 2,-1,
		 3, 2, 6, 7,-1,
		 7, 6, 2, 3,-1,
		 7, 6, 5, 4,-1,
		 4, 5, 6, 7,-1,
		]
	} #IndexedFaceSet
} #Polyhedron
Separator { #Polyhedron
	DEF COORD7 Coordinate3 {
		point [
		 0.6066 2.2098 -9.1096,
		 0.5685 2.2098 -9.2112,
		 1.0160 2.2098 -9.4742,
		 1.0922 2.2098 -9.2710,
		 0.6066 2.1844 -9.1096,
		 0.5685 2.1844 -9.2112,
		 1.0160 2.1844 -9.4742,
		 1.0922 2.1844 -9.2710
		]
	} #Coordinate3
	Material {
		ambientColor      0.2000 0.0500 0.0000  #ambientColor
		diffuseColor      0.8000 0.2000 0.0000  #diffuseColor
		transparency      0.0000                #transparency
	} #Material

	IndexedFaceSet {
		coordIndex [ 
		 0, 1, 2, 3,-1,
		 3, 2, 1, 0,-1,
		 0, 3, 7, 4,-1,
		 4, 7, 3, 0,-1,
		 1, 0, 4, 5,-1,
		 5, 4, 0, 1,-1,
		 2, 1, 5, 6,-1,
		 6, 5, 1, 2,-1,
		 3, 2, 6, 7,-1,
		 7, 6, 2, 3,-1,
		 7, 6, 5, 4,-1,
		 4, 5, 6, 7,-1,
		]
	} #IndexedFaceSet
} #Polyhedron
Separator { #Polyhedron
	DEF COORD8 Coordinate3 {
		point [
		 0.2570 2.2098 -9.0769,
		 0.2951 2.2098 -8.9753,
		 -0.1524 2.2098 -8.7122,
		 -0.2286 2.2098 -8.9154,
		 0.2570 2.1844 -9.0769,
		 0.2951 2.1844 -8.9753,
		 -0.1524 2.1844 -8.7122,
		 -0.2286 2.1844 -8.9154
		]
	} #Coordinate3
	Material {
		ambientColor      0.2000 0.0500 0.0000  #ambientColor
		diffuseColor      0.8000 0.2000 0.0000  #diffuseColor
		transparency      0.0000                #transparency
	} #Material

	IndexedFaceSet {
		coordIndex [ 
		 0, 1, 2, 3,-1,
		 3, 2, 1, 0,-1,
		 0, 3, 7, 4,-1,
		 4, 7, 3, 0,-1,
		 1, 0, 4, 5,-1,
		 5, 4, 0, 1,-1,
		 2, 1, 5, 6,-1,
		 6, 5, 1, 2,-1,
		 3, 2, 6, 7,-1,
		 7, 6, 2, 3,-1,
		 7, 6, 5, 4,-1,
		 4, 5, 6, 7,-1,
		]
	} #IndexedFaceSet
} #Polyhedron
Separator { #Polyhedron
	DEF COORD9 Coordinate3 {
		point [
		 2.1971 0.6985 -11.8364,
		 2.0689 0.6985 -11.7508,
		 1.9177 0.6985 -11.7207,
		 1.7665 0.6985 -11.7508,
		 1.6383 0.6985 -11.8332,
		 1.5621 0.6985 -11.9253,
		 1.5240 0.6985 -11.9793,
		 1.5240 0.6985 -12.0142,
		 2.3114 0.6985 -12.0142,
		 2.3114 0.6985 -11.9793,
		 2.2733 0.6985 -11.9253,
		 2.1971 0.5588 -11.8364,
		 2.0689 0.5588 -11.7508,
		 1.9177 0.5588 -11.7207,
		 1.7665 0.5588 -11.7508,
		 1.6383 0.5588 -11.8332,
		 1.5621 0.5588 -11.9253,
		 1.5240 0.5588 -11.9793,
		 1.5240 0.5588 -12.0142,
		 2.3114 0.5588 -12.0142,
		 2.3114 0.5588 -11.9793,
		 2.2733 0.5588 -11.9253
		]
	} #Coordinate3
	Material {
		ambientColor      0.1000 0.0500 0.0000  #ambientColor
		diffuseColor      0.4000 0.2000 0.0000  #diffuseColor
		transparency      0.0000                #transparency
	} #Material

	IndexedFaceSet {
		coordIndex [ 
		 0, 1, 2, 3, 4, 5, 6, 7, 8, 9, 10,-1,
		 10, 9, 8, 7, 6, 5, 4, 3, 2, 1, 0,-1,
		 0, 10, 21, 11,-1,
		 11, 21, 10, 0,-1,
		 1, 0, 11, 12,-1,
		 12, 11, 0, 1,-1,
		 2, 1, 12, 13,-1,
		 13, 12, 1, 2,-1,
		 3, 2, 13, 14,-1,
		 14, 13, 2, 3,-1,
		 4, 3, 14, 15,-1,
		 15, 14, 3, 4,-1,
		 5, 4, 15, 16,-1,
		 16, 15, 4, 5,-1,
		 6, 5, 16, 17,-1,
		 17, 16, 5, 6,-1,
		 7, 6, 17, 18,-1,
		 18, 17, 6, 7,-1,
		 8, 7, 18, 19,-1,
		 19, 18, 7, 8,-1,
		 9, 8, 19, 20,-1,
		 20, 19, 8, 9,-1,
		 10, 9, 20, 21,-1,
		 21, 20, 9, 10,-1,
		 21, 20, 19, 18, 17, 16, 15, 14, 13, 12, 11,-1,
		 11, 12, 13, 14, 15, 16, 17, 18, 19, 20, 21,-1,
		]
	} #IndexedFaceSet
} #Polyhedron
Separator { #Polyhedron
	DEF COORD10 Coordinate3 {
		point [
		 1.5589 0.5588 -12.0142,
		 1.5589 0.5588 -11.9793,
		 1.5240 0.5588 -11.9793,
		 1.5240 0.5588 -12.0142,
		 1.5589 0.0000 -12.0142,
		 1.5589 0.0000 -11.9793,
		 1.5240 0.0000 -11.9793,
		 1.5240 0.0000 -12.0142
		]
	} #Coordinate3
	Material {
		ambientColor      0.1000 0.0500 0.0000  #ambientColor
		diffuseColor      0.4000 0.2000 0.0000  #diffuseColor
		transparency      0.0000                #transparency
	} #Material

	IndexedFaceSet {
		coordIndex [ 
		 0, 1, 2, 3,-1,
		 3, 2, 1, 0,-1,
		 0, 3, 7, 4,-1,
		 4, 7, 3, 0,-1,
		 1, 0, 4, 5,-1,
		 5, 4, 0, 1,-1,
		 2, 1, 5, 6,-1,
		 6, 5, 1, 2,-1,
		 3, 2, 6, 7,-1,
		 7, 6, 2, 3,-1,
		 7, 6, 5, 4,-1,
		 4, 5, 6, 7,-1,
		]
	} #IndexedFaceSet
} #Polyhedron
Separator { #Polyhedron
	DEF COORD11 Coordinate3 {
		point [
		 2.3114 0.5588 -12.0142,
		 2.3114 0.5588 -11.9793,
		 2.2765 0.5588 -11.9793,
		 2.2765 0.5588 -12.0142,
		 2.3114 0.0000 -12.0142,
		 2.3114 0.0000 -11.9793,
		 2.2765 0.0000 -11.9793,
		 2.2765 0.0000 -12.0142
		]
	} #Coordinate3
	Material {
		ambientColor      0.1000 0.0500 0.0000  #ambientColor
		diffuseColor      0.4000 0.2000 0.0000  #diffuseColor
		transparency      0.0000                #transparency
	} #Material

	IndexedFaceSet {
		coordIndex [ 
		 0, 1, 2, 3,-1,
		 3, 2, 1, 0,-1,
		 0, 3, 7, 4,-1,
		 4, 7, 3, 0,-1,
		 1, 0, 4, 5,-1,
		 5, 4, 0, 1,-1,
		 2, 1, 5, 6,-1,
		 6, 5, 1, 2,-1,
		 3, 2, 6, 7,-1,
		 7, 6, 2, 3,-1,
		 7, 6, 5, 4,-1,
		 4, 5, 6, 7,-1,
		]
	} #IndexedFaceSet
} #Polyhedron
Separator { #Polyhedron
	DEF COORD12 Coordinate3 {
		point [
		 1.6980 0.5588 -11.8446,
		 1.6805 0.5588 -11.8143,
		 1.6503 0.5588 -11.8318,
		 1.6677 0.5588 -11.8620,
		 1.6980 0.0000 -11.8446,
		 1.6805 0.0000 -11.8143,
		 1.6503 0.0000 -11.8318,
		 1.6677 0.0000 -11.8620
		]
	} #Coordinate3
	Material {
		ambientColor      0.1000 0.0500 0.0000  #ambientColor
		diffuseColor      0.4000 0.2000 0.0000  #diffuseColor
		transparency      0.0000                #transparency
	} #Material

	IndexedFaceSet {
		coordIndex [ 
		 0, 1, 2, 3,-1,
		 3, 2, 1, 0,-1,
		 0, 3, 7, 4,-1,
		 4, 7, 3, 0,-1,
		 1, 0, 4, 5,-1,
		 5, 4, 0, 1,-1,
		 2, 1, 5, 6,-1,
		 6, 5, 1, 2,-1,
		 3, 2, 6, 7,-1,
		 7, 6, 2, 3,-1,
		 7, 6, 5, 4,-1,
		 4, 5, 6, 7,-1,
		]
	} #IndexedFaceSet
} #Polyhedron
Separator { #Polyhedron
	DEF COORD13 Coordinate3 {
		point [
		 2.1564 0.5588 -11.8157,
		 2.1390 0.5588 -11.8459,
		 2.1692 0.5588 -11.8634,
		 2.1867 0.5588 -11.8331,
		 2.1564 0.0000 -11.8157,
		 2.1390 0.0000 -11.8459,
		 2.1692 0.0000 -11.8634,
		 2.1867 0.0000 -11.8331
		]
	} #Coordinate3
	Material {
		ambientColor      0.1000 0.0500 0.0000  #ambientColor
		diffuseColor      0.4000 0.2000 0.0000  #diffuseColor
		transparency      0.0000                #transparency
	} #Material

	IndexedFaceSet {
		coordIndex [ 
		 0, 1, 2, 3,-1,
		 3, 2, 1, 0,-1,
		 0, 3, 7, 4,-1,
		 4, 7, 3, 0,-1,
		 1, 0, 4, 5,-1,
		 5, 4, 0, 1,-1,
		 2, 1, 5, 6,-1,
		 6, 5, 1, 2,-1,
		 3, 2, 6, 7,-1,
		 7, 6, 2, 3,-1,
		 7, 6, 5, 4,-1,
		 4, 5, 6, 7,-1,
		]
	} #IndexedFaceSet
} #Polyhedron
Separator { #Polyhedron
	DEF COORD14 Coordinate3 {
		point [
		 2.2062 0.7243 -11.8356,
		 2.0740 0.7243 -11.7473,
		 1.9181 0.7243 -11.7163,
		 1.7622 0.7243 -11.7473,
		 1.6300 0.7243 -11.8324,
		 1.5514 0.7243 -11.9273,
		 1.5121 0.7243 -11.9830,
		 1.5121 0.7243 -12.0190,
		 2.3241 0.7243 -12.0190,
		 2.3241 0.7243 -11.9830,
		 2.2848 0.7243 -11.9273,
		 2.2062 0.6981 -11.8356,
		 2.0740 0.6981 -11.7473,
		 1.9181 0.6981 -11.7163,
		 1.7622 0.6981 -11.7473,
		 1.6300 0.6981 -11.8324,
		 1.5514 0.6981 -11.9273,
		 1.5121 0.6981 -11.9830,
		 1.5121 0.6981 -12.0190,
		 2.3241 0.6981 -12.0190,
		 2.3241 0.6981 -11.9830,
		 2.2848 0.6981 -11.9273
		]
	} #Coordinate3
	Material {
		ambientColor      0.1000 0.0500 0.0000  #ambientColor
		diffuseColor      0.4000 0.2000 0.0000  #diffuseColor
		transparency      0.0000                #transparency
	} #Material

	IndexedFaceSet {
		coordIndex [ 
		 0, 1, 2, 3, 4, 5, 6, 7, 8, 9, 10,-1,
		 10, 9, 8, 7, 6, 5, 4, 3, 2, 1, 0,-1,
		 0, 10, 21, 11,-1,
		 11, 21, 10, 0,-1,
		 1, 0, 11, 12,-1,
		 12, 11, 0, 1,-1,
		 2, 1, 12, 13,-1,
		 13, 12, 1, 2,-1,
		 3, 2, 13, 14,-1,
		 14, 13, 2, 3,-1,
		 4, 3, 14, 15,-1,
		 15, 14, 3, 4,-1,
		 5, 4, 15, 16,-1,
		 16, 15, 4, 5,-1,
		 6, 5, 16, 17,-1,
		 17, 16, 5, 6,-1,
		 7, 6, 17, 18,-1,
		 18, 17, 6, 7,-1,
		 8, 7, 18, 19,-1,
		 19, 18, 7, 8,-1,
		 9, 8, 19, 20,-1,
		 20, 19, 8, 9,-1,
		 10, 9, 20, 21,-1,
		 21, 20, 9, 10,-1,
		 21, 20, 19, 18, 17, 16, 15, 14, 13, 12, 11,-1,
		 11, 12, 13, 14, 15, 16, 17, 18, 19, 20, 21,-1,
		]
	} #IndexedFaceSet
} #Polyhedron
Separator { #Polyhedron
	DEF COORD15 Coordinate3 {
		point [
		 -2.2860 0.7620 -8.3820,
		 -2.8956 0.7620 -8.3820,
		 -2.8956 0.7620 -9.7536,
		 -2.2860 0.7620 -9.7536,
		 -2.2860 0.7366 -8.3820,
		 -2.8956 0.7366 -8.3820,
		 -2.8956 0.7366 -9.7536,
		 -2.2860 0.7366 -9.7536
		]
	} #Coordinate3
	Material {
		ambientColor      0.1000 0.0500 0.0000  #ambientColor
		diffuseColor      0.4000 0.2000 0.0000  #diffuseColor
		transparency      0.0000                #transparency
	} #Material

	IndexedFaceSet {
		coordIndex [ 
		 0, 1, 2, 3,-1,
		 3, 2, 1, 0,-1,
		 0, 3, 7, 4,-1,
		 4, 7, 3, 0,-1,
		 1, 0, 4, 5,-1,
		 5, 4, 0, 1,-1,
		 2, 1, 5, 6,-1,
		 6, 5, 1, 2,-1,
		 3, 2, 6, 7,-1,
		 7, 6, 2, 3,-1,
		 7, 6, 5, 4,-1,
		 4, 5, 6, 7,-1,
		]
	} #IndexedFaceSet
} #Polyhedron
Separator { #Polyhedron
	DEF COORD16 Coordinate3 {
		point [
		 -2.8702 0.7366 -8.7884,
		 -2.3114 0.7366 -8.7884,
		 -2.3114 0.7366 -8.4582,
		 -2.8702 0.7366 -8.4582,
		 -2.8702 0.4064 -8.7884,
		 -2.3114 0.4064 -8.7884,
		 -2.3114 0.4064 -8.4582,
		 -2.8702 0.4064 -8.4582,
		 -2.3114 0.4191 -8.7884,
		 -2.3114 0.4191 -8.4582,
		 -2.3114 0.5969 -8.4836,
		 -2.3114 0.4191 -8.4836,
		 -2.3114 0.4191 -8.4582,
		 -2.3114 0.5969 -8.4582,
		 -2.3114 0.5969 -8.4582,
		 -2.3114 0.6096 -8.4582,
		 -2.3114 0.6096 -8.7884,
		 -2.3114 0.5969 -8.7884,
		 -2.3114 0.4191 -8.7630,
		 -2.3114 0.5969 -8.7630,
		 -2.3114 0.4191 -8.7884,
		 -2.3114 0.7112 -8.4836,
		 -2.3114 0.6096 -8.4836,
		 -2.3114 0.6096 -8.4582,
		 -2.3114 0.7112 -8.4582,
		 -2.3114 0.7112 -8.4582,
		 -2.3114 0.7112 -8.7884,
		 -2.3114 0.6096 -8.7630,
		 -2.3114 0.7112 -8.7630,
		 -2.3114 0.6096 -8.7884
		]
	} #Coordinate3
	Material {
		ambientColor      0.1000 0.0500 0.0000  #ambientColor
		diffuseColor      0.4000 0.2000 0.0000  #diffuseColor
		transparency      0.0000                #transparency
	} #Material

	IndexedFaceSet {
		coordIndex [ 
		 0, 1, 2, 3,-1,
		 3, 2, 1, 0,-1,
		 0, 3, 7, 4,-1,
		 4, 7, 3, 0,-1,
		 1, 0, 4, 5,-1,
		 5, 4, 0, 1,-1,
		 8, 5, 6, 9,-1,
		 10, 11, 12, 13,-1,
		 14, 15, 16, 17,-1,
		 18, 19, 17, 20,-1,
		 21, 22, 23, 24,-1,
		 25, 2, 1, 26,-1,
		 27, 28, 26, 29,-1,
		]
	} #IndexedFaceSet
	Material {
		ambientColor      0.1157 0.0569 0.0000  #ambientColor
		diffuseColor      0.4627 0.2275 0.0000  #diffuseColor
		transparency      0.0000                #transparency
	} #Material

	IndexedFaceSet {
		coordIndex [ 
		 28, 27, 22, 21,-1,
		 19, 18, 11, 10,-1,
		]
	} #IndexedFaceSet
	Material {
		ambientColor      0.1000 0.0500 0.0000  #ambientColor
		diffuseColor      0.4000 0.2000 0.0000  #diffuseColor
		transparency      0.0000                #transparency
	} #Material

	IndexedFaceSet {
		coordIndex [ 
		 6, 5, 1, 2,-1,
		 3, 2, 6, 7,-1,
		 7, 6, 2, 3,-1,
		 7, 6, 5, 4,-1,
		 4, 5, 6, 7,-1,
		]
	} #IndexedFaceSet
} #Polyhedron
Separator { #Polyhedron
	DEF COORD17 Coordinate3 {
		point [
		 -2.8702 0.7366 -9.7028,
		 -2.3114 0.7366 -9.7028,
		 -2.3114 0.7366 -9.3472,
		 -2.8702 0.7366 -9.3472,
		 -2.8702 0.4064 -9.7028,
		 -2.3114 0.4064 -9.7028,
		 -2.3114 0.4064 -9.3472,
		 -2.8702 0.4064 -9.3472,
		 -2.3114 0.4191 -9.7028,
		 -2.3114 0.4191 -9.3472,
		 -2.3114 0.5969 -9.3853,
		 -2.3114 0.4191 -9.3853,
		 -2.3114 0.4191 -9.3472,
		 -2.3114 0.5969 -9.3472,
		 -2.3114 0.6096 -9.7028,
		 -2.3114 0.5969 -9.7028,
		 -2.3114 0.5969 -9.3472,
		 -2.3114 0.6096 -9.3472,
		 -2.3114 0.7112 -9.3853,
		 -2.3114 0.6096 -9.3853,
		 -2.3114 0.6096 -9.3472,
		 -2.3114 0.7112 -9.3472,
		 -2.3114 0.7112 -9.3472,
		 -2.3114 0.7112 -9.7028,
		 -2.3114 0.6096 -9.6647,
		 -2.3114 0.7112 -9.6647,
		 -2.3114 0.6096 -9.7028,
		 -2.3114 0.4191 -9.6647,
		 -2.3114 0.5969 -9.6647,
		 -2.3114 0.4191 -9.7028
		]
	} #Coordinate3
	Material {
		ambientColor      0.1000 0.0500 0.0000  #ambientColor
		diffuseColor      0.4000 0.2000 0.0000  #diffuseColor
		transparency      0.0000                #transparency
	} #Material

	IndexedFaceSet {
		coordIndex [ 
		 0, 1, 2, 3,-1,
		 3, 2, 1, 0,-1,
		 0, 3, 7, 4,-1,
		 4, 7, 3, 0,-1,
		 1, 0, 4, 5,-1,
		 5, 4, 0, 1,-1,
		 8, 5, 6, 9,-1,
		 10, 11, 12, 13,-1,
		 14, 15, 16, 17,-1,
		 18, 19, 20, 21,-1,
		 22, 2, 1, 23,-1,
		 24, 25, 23, 26,-1,
		 27, 28, 15, 29,-1,
		]
	} #IndexedFaceSet
	Material {
		ambientColor      0.1157 0.0569 0.0000  #ambientColor
		diffuseColor      0.4627 0.2275 0.0000  #diffuseColor
		transparency      0.0000                #transparency
	} #Material

	IndexedFaceSet {
		coordIndex [ 
		 28, 27, 11, 10,-1,
		 25, 24, 19, 18,-1,
		]
	} #IndexedFaceSet
	Material {
		ambientColor      0.1000 0.0500 0.0000  #ambientColor
		diffuseColor      0.4000 0.2000 0.0000  #diffuseColor
		transparency      0.0000                #transparency
	} #Material

	IndexedFaceSet {
		coordIndex [ 
		 6, 5, 1, 2,-1,
		 3, 2, 6, 7,-1,
		 7, 6, 2, 3,-1,
		 7, 6, 5, 4,-1,
		 4, 5, 6, 7,-1,
		]
	} #IndexedFaceSet
} #Polyhedron
Separator { #Polyhedron
	DEF COORD18 Coordinate3 {
		point [
		 -2.3114 0.7366 -9.7028,
		 -2.3622 0.7366 -9.7028,
		 -2.3622 0.7366 -9.7536,
		 -2.3114 0.7366 -9.7536,
		 -2.3114 0.0000 -9.7028,
		 -2.3622 0.0000 -9.7028,
		 -2.3622 0.0000 -9.7536,
		 -2.3114 0.0000 -9.7536
		]
	} #Coordinate3
	Material {
		ambientColor      0.1000 0.0500 0.0000  #ambientColor
		diffuseColor      0.4000 0.2000 0.0000  #diffuseColor
		transparency      0.0000                #transparency
	} #Material

	IndexedFaceSet {
		coordIndex [ 
		 0, 1, 2, 3,-1,
		 3, 2, 1, 0,-1,
		 0, 3, 7, 4,-1,
		 4, 7, 3, 0,-1,
		 1, 0, 4, 5,-1,
		 5, 4, 0, 1,-1,
		 2, 1, 5, 6,-1,
		 6, 5, 1, 2,-1,
		 3, 2, 6, 7,-1,
		 7, 6, 2, 3,-1,
		 7, 6, 5, 4,-1,
		 4, 5, 6, 7,-1,
		]
	} #IndexedFaceSet
} #Polyhedron
Separator { #Polyhedron
	DEF COORD19 Coordinate3 {
		point [
		 -2.8194 0.7366 -9.7028,
		 -2.8702 0.7366 -9.7028,
		 -2.8702 0.7366 -9.7536,
		 -2.8194 0.7366 -9.7536,
		 -2.8194 0.0000 -9.7028,
		 -2.8702 0.0000 -9.7028,
		 -2.8702 0.0000 -9.7536,
		 -2.8194 0.0000 -9.7536
		]
	} #Coordinate3
	Material {
		ambientColor      0.1000 0.0500 0.0000  #ambientColor
		diffuseColor      0.4000 0.2000 0.0000  #diffuseColor
		transparency      0.0000                #transparency
	} #Material

	IndexedFaceSet {
		coordIndex [ 
		 0, 1, 2, 3,-1,
		 3, 2, 1, 0,-1,
		 0, 3, 7, 4,-1,
		 4, 7, 3, 0,-1,
		 1, 0, 4, 5,-1,
		 5, 4, 0, 1,-1,
		 2, 1, 5, 6,-1,
		 6, 5, 1, 2,-1,
		 3, 2, 6, 7,-1,
		 7, 6, 2, 3,-1,
		 7, 6, 5, 4,-1,
		 4, 5, 6, 7,-1,
		]
	} #IndexedFaceSet
} #Polyhedron
Separator { #Polyhedron
	DEF COORD20 Coordinate3 {
		point [
		 -2.3114 0.7366 -8.4074,
		 -2.3622 0.7366 -8.4074,
		 -2.3622 0.7366 -8.4582,
		 -2.3114 0.7366 -8.4582,
		 -2.3114 0.0000 -8.4074,
		 -2.3622 0.0000 -8.4074,
		 -2.3622 0.0000 -8.4582,
		 -2.3114 0.0000 -8.4582
		]
	} #Coordinate3
	Material {
		ambientColor      0.1000 0.0500 0.0000  #ambientColor
		diffuseColor      0.4000 0.2000 0.0000  #diffuseColor
		transparency      0.0000                #transparency
	} #Material

	IndexedFaceSet {
		coordIndex [ 
		 0, 1, 2, 3,-1,
		 3, 2, 1, 0,-1,
		 0, 3, 7, 4,-1,
		 4, 7, 3, 0,-1,
		 1, 0, 4, 5,-1,
		 5, 4, 0, 1,-1,
		 2, 1, 5, 6,-1,
		 6, 5, 1, 2,-1,
		 3, 2, 6, 7,-1,
		 7, 6, 2, 3,-1,
		 7, 6, 5, 4,-1,
		 4, 5, 6, 7,-1,
		]
	} #IndexedFaceSet
} #Polyhedron
Separator { #Polyhedron
	DEF COORD21 Coordinate3 {
		point [
		 -2.8194 0.7366 -8.4074,
		 -2.8702 0.7366 -8.4074,
		 -2.8702 0.7366 -8.4582,
		 -2.8194 0.7366 -8.4582,
		 -2.8194 0.0000 -8.4074,
		 -2.8702 0.0000 -8.4074,
		 -2.8702 0.0000 -8.4582,
		 -2.8194 0.0000 -8.4582
		]
	} #Coordinate3
	Material {
		ambientColor      0.1000 0.0500 0.0000  #ambientColor
		diffuseColor      0.4000 0.2000 0.0000  #diffuseColor
		transparency      0.0000                #transparency
	} #Material

	IndexedFaceSet {
		coordIndex [ 
		 0, 1, 2, 3,-1,
		 3, 2, 1, 0,-1,
		 0, 3, 7, 4,-1,
		 4, 7, 3, 0,-1,
		 1, 0, 4, 5,-1,
		 5, 4, 0, 1,-1,
		 2, 1, 5, 6,-1,
		 6, 5, 1, 2,-1,
		 3, 2, 6, 7,-1,
		 7, 6, 2, 3,-1,
		 7, 6, 5, 4,-1,
		 4, 5, 6, 7,-1,
		]
	} #IndexedFaceSet
} #Polyhedron
Separator { #Polyhedron
	DEF COORD22 Coordinate3 {
		point [
		 -2.8194 0.7366 -8.4582,
		 -2.3622 0.7366 -8.4582,
		 -2.3622 0.7366 -8.4074,
		 -2.8194 0.7366 -8.4074,
		 -2.8194 0.4064 -8.4582,
		 -2.3622 0.4064 -8.4582,
		 -2.3622 0.4064 -8.4074,
		 -2.8194 0.4064 -8.4074
		]
	} #Coordinate3
	Material {
		ambientColor      0.1000 0.0500 0.0000  #ambientColor
		diffuseColor      0.4000 0.2000 0.0000  #diffuseColor
		transparency      0.0000                #transparency
	} #Material

	IndexedFaceSet {
		coordIndex [ 
		 0, 1, 2, 3,-1,
		 3, 2, 1, 0,-1,
		 0, 3, 7, 4,-1,
		 4, 7, 3, 0,-1,
		 1, 0, 4, 5,-1,
		 5, 4, 0, 1,-1,
		 2, 1, 5, 6,-1,
		 6, 5, 1, 2,-1,
		 3, 2, 6, 7,-1,
		 7, 6, 2, 3,-1,
		 7, 6, 5, 4,-1,
		 4, 5, 6, 7,-1,
		]
	} #IndexedFaceSet
} #Polyhedron
Separator { #Polyhedron
	DEF COORD23 Coordinate3 {
		point [
		 -2.8194 0.7366 -9.7536,
		 -2.3622 0.7366 -9.7536,
		 -2.3622 0.7366 -9.7028,
		 -2.8194 0.7366 -9.7028,
		 -2.8194 0.4064 -9.7536,
		 -2.3622 0.4064 -9.7536,
		 -2.3622 0.4064 -9.7028,
		 -2.8194 0.4064 -9.7028
		]
	} #Coordinate3
	Material {
		ambientColor      0.1000 0.0500 0.0000  #ambientColor
		diffuseColor      0.4000 0.2000 0.0000  #diffuseColor
		transparency      0.0000                #transparency
	} #Material

	IndexedFaceSet {
		coordIndex [ 
		 0, 1, 2, 3,-1,
		 3, 2, 1, 0,-1,
		 0, 3, 7, 4,-1,
		 4, 7, 3, 0,-1,
		 1, 0, 4, 5,-1,
		 5, 4, 0, 1,-1,
		 2, 1, 5, 6,-1,
		 6, 5, 1, 2,-1,
		 3, 2, 6, 7,-1,
		 7, 6, 2, 3,-1,
		 7, 6, 5, 4,-1,
		 4, 5, 6, 7,-1,
		]
	} #IndexedFaceSet
} #Polyhedron
Separator { #Polyhedron
	DEF COORD24 Coordinate3 {
		point [
		 -2.6162 0.7366 -8.7884,
		 -2.6162 0.6477 -8.7884,
		 -2.6162 0.6731 -8.8138,
		 -2.6162 0.7366 -8.8138,
		 -2.1463 0.7366 -8.7884,
		 -2.1463 0.6477 -8.7884,
		 -2.1463 0.6731 -8.8138,
		 -2.1463 0.7366 -8.8138
		]
	} #Coordinate3
	Material {
		ambientColor      0.1000 0.0500 0.0000  #ambientColor
		diffuseColor      0.4000 0.2000 0.0000  #diffuseColor
		transparency      0.0000                #transparency
	} #Material

	IndexedFaceSet {
		coordIndex [ 
		 0, 1, 2, 3,-1,
		 3, 2, 1, 0,-1,
		 0, 3, 7, 4,-1,
		 4, 7, 3, 0,-1,
		 1, 0, 4, 5,-1,
		 5, 4, 0, 1,-1,
		 3, 2, 6, 7,-1,
		 7, 6, 2, 3,-1,
		 7, 6, 5, 4,-1,
		 4, 5, 6, 7,-1,
		]
	} #IndexedFaceSet
} #Polyhedron
Separator { #Polyhedron
	DEF COORD25 Coordinate3 {
		point [
		 -2.6162 0.7366 -9.3218,
		 -2.6162 0.6731 -9.3218,
		 -2.6162 0.6477 -9.3472,
		 -2.6162 0.7366 -9.3472,
		 -2.1463 0.7366 -9.3218,
		 -2.1463 0.6731 -9.3218,
		 -2.1463 0.6477 -9.3472,
		 -2.1463 0.7366 -9.3472
		]
	} #Coordinate3
	Material {
		ambientColor      0.1000 0.0500 0.0000  #ambientColor
		diffuseColor      0.4000 0.2000 0.0000  #diffuseColor
		transparency      0.0000                #transparency
	} #Material

	IndexedFaceSet {
		coordIndex [ 
		 0, 1, 2, 3,-1,
		 3, 2, 1, 0,-1,
		 0, 3, 7, 4,-1,
		 4, 7, 3, 0,-1,
		 1, 0, 4, 5,-1,
		 5, 4, 0, 1,-1,
		 2, 1, 5, 6,-1,
		 6, 5, 1, 2,-1,
		 3, 2, 6, 7,-1,
		 7, 6, 2, 3,-1,
		 7, 6, 5, 4,-1,
		 4, 5, 6, 7,-1,
		]
	} #IndexedFaceSet
} #Polyhedron
Separator { #Polyhedron
	DEF COORD26 Coordinate3 {
		point [
		 -2.6162 0.6731 -8.8138,
		 -2.6162 0.6477 -8.7884,
		 -2.6162 0.6477 -9.3472,
		 -2.6162 0.6731 -9.3218,
		 -2.1463 0.6731 -8.8138,
		 -2.1463 0.6477 -8.7884,
		 -2.1463 0.6477 -9.3472,
		 -2.1463 0.6731 -9.3218
		]
	} #Coordinate3
	Material {
		ambientColor      0.1000 0.0500 0.0000  #ambientColor
		diffuseColor      0.4000 0.2000 0.0000  #diffuseColor
		transparency      0.0000                #transparency
	} #Material

	IndexedFaceSet {
		coordIndex [ 
		 0, 1, 2, 3,-1,
		 3, 2, 1, 0,-1,
		 0, 3, 7, 4,-1,
		 4, 7, 3, 0,-1,
		 1, 0, 4, 5,-1,
		 5, 4, 0, 1,-1,
		 2, 1, 5, 6,-1,
		 6, 5, 1, 2,-1,
		 7, 6, 5, 4,-1,
		 4, 5, 6, 7,-1,
		]
	} #IndexedFaceSet
} #Polyhedron
Separator { #Polyhedron
	DEF COORD27 Coordinate3 {
		point [
		 -2.1463 0.6731 -9.3726,
		 -2.0574 0.6731 -9.3726,
		 -2.0574 0.6731 -8.7630,
		 -2.1463 0.6731 -8.7630,
		 -2.1463 0.6477 -9.3726,
		 -2.0574 0.6477 -9.3726,
		 -2.0574 0.6477 -8.7630,
		 -2.1463 0.6477 -8.7630
		]
	} #Coordinate3
	Material {
		ambientColor      0.1000 0.0500 0.0000  #ambientColor
		diffuseColor      0.4000 0.2000 0.0000  #diffuseColor
		transparency      0.0000                #transparency
	} #Material

	IndexedFaceSet {
		coordIndex [ 
		 0, 1, 2, 3,-1,
		 3, 2, 1, 0,-1,
		 0, 3, 7, 4,-1,
		 4, 7, 3, 0,-1,
		 1, 0, 4, 5,-1,
		 5, 4, 0, 1,-1,
		 2, 1, 5, 6,-1,
		 6, 5, 1, 2,-1,
		 3, 2, 6, 7,-1,
		 7, 6, 2, 3,-1,
		 7, 6, 5, 4,-1,
		 4, 5, 6, 7,-1,
		]
	} #IndexedFaceSet
} #Polyhedron
Separator { #Polyhedron
	DEF COORD28 Coordinate3 {
		point [
		 -1.2192 1.8034 -12.0650,
		 -1.2192 1.8288 -12.0650,
		 -1.9812 1.8288 -12.0650,
		 -1.9812 1.8034 -12.0650,
		 -1.2192 1.8034 -11.7348,
		 -1.2192 1.8288 -11.7348,
		 -1.9812 1.8288 -11.7348,
		 -1.9812 1.8034 -11.7348
		]
	} #Coordinate3
	Material {
		ambientColor      0.2000 0.1500 0.0500  #ambientColor
		diffuseColor      0.8000 0.6000 0.2000  #diffuseColor
		transparency      0.0000                #transparency
	} #Material

	IndexedFaceSet {
		coordIndex [ 
		 0, 1, 2, 3,-1,
		 3, 2, 1, 0,-1,
		 0, 3, 7, 4,-1,
		 4, 7, 3, 0,-1,
		 1, 0, 4, 5,-1,
		 5, 4, 0, 1,-1,
		 2, 1, 5, 6,-1,
		 6, 5, 1, 2,-1,
		 3, 2, 6, 7,-1,
		 7, 6, 2, 3,-1,
		 7, 6, 5, 4,-1,
		 4, 5, 6, 7,-1,
		]
	} #IndexedFaceSet
} #Polyhedron
Separator { #Polyhedron
	DEF COORD29 Coordinate3 {
		point [
		 -1.9812 1.8034 -12.0396,
		 -1.9812 0.0508 -12.0396,
		 -1.9304 0.0508 -12.0396,
		 -1.9304 1.8034 -12.0396,
		 -1.9812 1.8034 -11.7348,
		 -1.9812 0.0508 -11.7348,
		 -1.9304 0.0508 -11.7348,
		 -1.9304 1.8034 -11.7348
		]
	} #Coordinate3
	Material {
		ambientColor      0.2000 0.1500 0.0500  #ambientColor
		diffuseColor      0.8000 0.6000 0.2000  #diffuseColor
		transparency      0.0000                #transparency
	} #Material

	IndexedFaceSet {
		coordIndex [ 
		 0, 1, 2, 3,-1,
		 3, 2, 1, 0,-1,
		 0, 3, 7, 4,-1,
		 4, 7, 3, 0,-1,
		 1, 0, 4, 5,-1,
		 5, 4, 0, 1,-1,
		 2, 1, 5, 6,-1,
		 6, 5, 1, 2,-1,
		 3, 2, 6, 7,-1,
		 7, 6, 2, 3,-1,
		 7, 6, 5, 4,-1,
		 4, 5, 6, 7,-1,
		]
	} #IndexedFaceSet
} #Polyhedron
Separator { #Polyhedron
	DEF COORD30 Coordinate3 {
		point [
		 -1.2192 1.8034 -12.0650,
		 -1.2192 1.8034 -12.0396,
		 -1.9812 1.8034 -12.0396,
		 -1.9812 1.8034 -12.0650,
		 -1.2192 0.0508 -12.0650,
		 -1.2192 0.0508 -12.0396,
		 -1.9812 0.0508 -12.0396,
		 -1.9812 0.0508 -12.0650
		]
	} #Coordinate3
	Material {
		ambientColor      0.2000 0.1500 0.0500  #ambientColor
		diffuseColor      0.8000 0.6000 0.2000  #diffuseColor
		transparency      0.0000                #transparency
	} #Material

	IndexedFaceSet {
		coordIndex [ 
		 0, 1, 2, 3,-1,
		 3, 2, 1, 0,-1,
		 0, 3, 7, 4,-1,
		 4, 7, 3, 0,-1,
		 1, 0, 4, 5,-1,
		 5, 4, 0, 1,-1,
		 2, 1, 5, 6,-1,
		 6, 5, 1, 2,-1,
		 3, 2, 6, 7,-1,
		 7, 6, 2, 3,-1,
		 7, 6, 5, 4,-1,
		 4, 5, 6, 7,-1,
		]
	} #IndexedFaceSet
} #Polyhedron
Separator { #Polyhedron
	DEF COORD31 Coordinate3 {
		point [
		 -1.9812 0.0508 -12.0650,
		 -1.9812 0.0000 -12.0650,
		 -1.2192 0.0000 -12.0650,
		 -1.2192 0.0508 -12.0650,
		 -1.9812 0.0508 -11.7348,
		 -1.9812 0.0000 -11.7348,
		 -1.2192 0.0000 -11.7348,
		 -1.2192 0.0508 -11.7348
		]
	} #Coordinate3
	Material {
		ambientColor      0.2000 0.1500 0.0500  #ambientColor
		diffuseColor      0.8000 0.6000 0.2000  #diffuseColor
		transparency      0.0000                #transparency
	} #Material

	IndexedFaceSet {
		coordIndex [ 
		 0, 1, 2, 3,-1,
		 3, 2, 1, 0,-1,
		 0, 3, 7, 4,-1,
		 4, 7, 3, 0,-1,
		 1, 0, 4, 5,-1,
		 5, 4, 0, 1,-1,
		 2, 1, 5, 6,-1,
		 6, 5, 1, 2,-1,
		 3, 2, 6, 7,-1,
		 7, 6, 2, 3,-1,
		 7, 6, 5, 4,-1,
		 4, 5, 6, 7,-1,
		]
	} #IndexedFaceSet
} #Polyhedron
Separator { #Polyhedron
	DEF COORD32 Coordinate3 {
		point [
		 -1.2700 1.8034 -12.0396,
		 -1.2700 0.0508 -12.0396,
		 -1.2192 0.0508 -12.0396,
		 -1.2192 1.8034 -12.0396,
		 -1.2700 1.8034 -11.7348,
		 -1.2700 0.0508 -11.7348,
		 -1.2192 0.0508 -11.7348,
		 -1.2192 1.8034 -11.7348
		]
	} #Coordinate3
	Material {
		ambientColor      0.2000 0.1500 0.0500  #ambientColor
		diffuseColor      0.8000 0.6000 0.2000  #diffuseColor
		transparency      0.0000                #transparency
	} #Material

	IndexedFaceSet {
		coordIndex [ 
		 0, 1, 2, 3,-1,
		 3, 2, 1, 0,-1,
		 0, 3, 7, 4,-1,
		 4, 7, 3, 0,-1,
		 1, 0, 4, 5,-1,
		 5, 4, 0, 1,-1,
		 2, 1, 5, 6,-1,
		 6, 5, 1, 2,-1,
		 3, 2, 6, 7,-1,
		 7, 6, 2, 3,-1,
		 7, 6, 5, 4,-1,
		 4, 5, 6, 7,-1,
		]
	} #IndexedFaceSet
} #Polyhedron
Separator { #Polyhedron
	DEF COORD33 Coordinate3 {
		point [
		 -1.9304 1.8034 -11.7602,
		 -1.9304 1.7526 -11.7602,
		 -1.2700 1.7526 -11.7602,
		 -1.2700 1.8034 -11.7602,
		 -1.9304 1.8034 -11.7348,
		 -1.9304 1.7526 -11.7348,
		 -1.2700 1.7526 -11.7348,
		 -1.2700 1.8034 -11.7348
		]
	} #Coordinate3
	Material {
		ambientColor      0.2000 0.1500 0.0500  #ambientColor
		diffuseColor      0.8000 0.6000 0.2000  #diffuseColor
		transparency      0.0000                #transparency
	} #Material

	IndexedFaceSet {
		coordIndex [ 
		 0, 1, 2, 3,-1,
		 3, 2, 1, 0,-1,
		 0, 3, 7, 4,-1,
		 4, 7, 3, 0,-1,
		 1, 0, 4, 5,-1,
		 5, 4, 0, 1,-1,
		 2, 1, 5, 6,-1,
		 6, 5, 1, 2,-1,
		 3, 2, 6, 7,-1,
		 7, 6, 2, 3,-1,
		 7, 6, 5, 4,-1,
		 4, 5, 6, 7,-1,
		]
	} #IndexedFaceSet
} #Polyhedron
Separator { #Polyhedron
	DEF COORD34 Coordinate3 {
		point [
		 -1.9304 1.7526 -11.7602,
		 -1.9304 1.7018 -11.7602,
		 -1.8034 1.7526 -11.7602,
		 -1.9304 1.7526 -11.7348,
		 -1.9304 1.7018 -11.7348,
		 -1.8034 1.7526 -11.7348
		]
	} #Coordinate3
	Material {
		ambientColor      0.2000 0.1500 0.0500  #ambientColor
		diffuseColor      0.8000 0.6000 0.2000  #diffuseColor
		transparency      0.0000                #transparency
	} #Material

	IndexedFaceSet {
		coordIndex [ 
		 0, 1, 2,-1,
		 2, 1, 0,-1,
		 0, 2, 5, 3,-1,
		 3, 5, 2, 0,-1,
		 1, 0, 3, 4,-1,
		 4, 3, 0, 1,-1,
		 2, 1, 4, 5,-1,
		 5, 4, 1, 2,-1,
		 5, 4, 3,-1,
		 3, 4, 5,-1,
		]
	} #IndexedFaceSet
} #Polyhedron
Separator { #Polyhedron
	DEF COORD35 Coordinate3 {
		point [
		 -1.3970 1.7526 -11.7602,
		 -1.2700 1.7018 -11.7602,
		 -1.2700 1.7526 -11.7602,
		 -1.3970 1.7526 -11.7348,
		 -1.2700 1.7018 -11.7348,
		 -1.2700 1.7526 -11.7348
		]
	} #Coordinate3
	Material {
		ambientColor      0.2000 0.1500 0.0500  #ambientColor
		diffuseColor      0.8000 0.6000 0.2000  #diffuseColor
		transparency      0.0000                #transparency
	} #Material

	IndexedFaceSet {
		coordIndex [ 
		 0, 1, 2,-1,
		 2, 1, 0,-1,
		 0, 2, 5, 3,-1,
		 3, 5, 2, 0,-1,
		 1, 0, 3, 4,-1,
		 4, 3, 0, 1,-1,
		 2, 1, 4, 5,-1,
		 5, 4, 1, 2,-1,
		 5, 4, 3,-1,
		 3, 4, 5,-1,
		]
	} #IndexedFaceSet
} #Polyhedron
Separator { #Polyhedron
	DEF COORD36 Coordinate3 {
		point [
		 -1.2700 0.9906 -12.0396,
		 -1.2700 1.0414 -12.0396,
		 -1.9304 1.0414 -12.0396,
		 -1.9304 0.9906 -12.0396,
		 -1.2700 0.9906 -11.7348,
		 -1.2700 1.0414 -11.7348,
		 -1.9304 1.0414 -11.7348,
		 -1.9304 0.9906 -11.7348
		]
	} #Coordinate3
	Material {
		ambientColor      0.2000 0.1500 0.0500  #ambientColor
		diffuseColor      0.8000 0.6000 0.2000  #diffuseColor
		transparency      0.0000                #transparency
	} #Material

	IndexedFaceSet {
		coordIndex [ 
		 0, 1, 2, 3,-1,
		 3, 2, 1, 0,-1,
		 0, 3, 7, 4,-1,
		 4, 7, 3, 0,-1,
		 1, 0, 4, 5,-1,
		 5, 4, 0, 1,-1,
		 2, 1, 5, 6,-1,
		 6, 5, 1, 2,-1,
		 3, 2, 6, 7,-1,
		 7, 6, 2, 3,-1,
		 7, 6, 5, 4,-1,
		 4, 5, 6, 7,-1,
		]
	} #IndexedFaceSet
} #Polyhedron
Separator { #Polyhedron
	DEF COORD37 Coordinate3 {
		point [
		 -1.9304 1.3716 -12.0396,
		 -1.9304 1.3208 -12.0396,
		 -1.2700 1.3208 -12.0396,
		 -1.2700 1.3716 -12.0396,
		 -1.9304 1.3716 -11.7348,
		 -1.9304 1.3208 -11.7348,
		 -1.2700 1.3208 -11.7348,
		 -1.2700 1.3716 -11.7348
		]
	} #Coordinate3
	Material {
		ambientColor      0.2000 0.1500 0.0500  #ambientColor
		diffuseColor      0.8000 0.6000 0.2000  #diffuseColor
		transparency      0.0000                #transparency
	} #Material

	IndexedFaceSet {
		coordIndex [ 
		 0, 1, 2, 3,-1,
		 3, 2, 1, 0,-1,
		 0, 3, 7, 4,-1,
		 4, 7, 3, 0,-1,
		 1, 0, 4, 5,-1,
		 5, 4, 0, 1,-1,
		 2, 1, 5, 6,-1,
		 6, 5, 1, 2,-1,
		 3, 2, 6, 7,-1,
		 7, 6, 2, 3,-1,
		 7, 6, 5, 4,-1,
		 4, 5, 6, 7,-1,
		]
	} #IndexedFaceSet
} #Polyhedron
Separator { #Polyhedron
	DEF COORD38 Coordinate3 {
		point [
		 -1.2700 0.0508 -12.0396,
		 -1.2700 0.7112 -12.0396,
		 -1.9304 0.7112 -12.0396,
		 -1.9304 0.0508 -12.0396,
		 -1.2700 0.0508 -11.7348,
		 -1.2700 0.7112 -11.7348,
		 -1.9304 0.7112 -11.7348,
		 -1.9304 0.0508 -11.7348,
		 -1.9304 0.6604 -11.7348,
		 -1.2700 0.6604 -11.7348,
		 -1.9304 0.6096 -11.7348,
		 -1.9304 0.6604 -11.7348,
		 -1.6002 0.6604 -11.7348,
		 -1.6002 0.6096 -11.7348,
		 -1.9304 0.1016 -11.7348,
		 -1.9304 0.6096 -11.7348,
		 -1.8796 0.6096 -11.7348,
		 -1.8796 0.1016 -11.7348,
		 -1.6002 0.1016 -11.7348,
		 -1.6002 0.0508 -11.7348,
		 -1.9304 0.0508 -11.7348,
		 -1.9304 0.1016 -11.7348,
		 -1.6002 0.6096 -11.7348,
		 -1.6510 0.1016 -11.7348,
		 -1.6510 0.6096 -11.7348,
		 -1.6002 0.6096 -11.7348,
		 -1.6002 0.6604 -11.7348,
		 -1.2700 0.6604 -11.7348,
		 -1.2700 0.6096 -11.7348,
		 -1.6002 0.1016 -11.7348,
		 -1.6002 0.6096 -11.7348,
		 -1.5494 0.6096 -11.7348,
		 -1.5494 0.1016 -11.7348,
		 -1.2700 0.1016 -11.7348,
		 -1.2700 0.0508 -11.7348,
		 -1.6002 0.0508 -11.7348,
		 -1.6002 0.1016 -11.7348,
		 -1.2700 0.6096 -11.7348,
		 -1.3208 0.1016 -11.7348,
		 -1.3208 0.6096 -11.7348,
		 -1.2700 0.6604 -11.7348,
		 -1.9304 0.6604 -11.7348,
		 -1.6002 0.6096 -11.7348,
		 -1.9304 0.6096 -11.7348,
		 -1.9304 0.6096 -11.7348,
		 -1.9304 0.1016 -11.7348,
		 -1.9304 0.1016 -11.7348,
		 -1.6002 0.1016 -11.7348,
		 -1.6002 0.6096 -11.7348,
		 -1.2700 0.6096 -11.7348,
		 -1.6002 0.6096 -11.7348,
		 -1.6002 0.6096 -11.7348,
		 -1.6002 0.1016 -11.7348,
		 -1.6002 0.1016 -11.7348,
		 -1.2700 0.1016 -11.7348,
		 -1.2700 0.6096 -11.7348
		]
	} #Coordinate3
	Material {
		ambientColor      0.2000 0.1500 0.0500  #ambientColor
		diffuseColor      0.8000 0.6000 0.2000  #diffuseColor
		transparency      0.0000                #transparency
	} #Material

	Texture2 {
		filename ""  #filename
		wrapS REPEAT 
		wrapT REPEAT 
	} #Texture2

	IndexedFaceSet {
		coordIndex [ 
		 0, 1, 2, 3,-1,
		 3, 2, 1, 0,-1,
		 0, 3, 7, 4,-1,
		 4, 7, 3, 0,-1,
		 1, 0, 4, 5,-1,
		 5, 4, 0, 1,-1,
		 2, 1, 5, 6,-1,
		 6, 5, 1, 2,-1,
		 3, 2, 6, 7,-1,
		 7, 6, 2, 3,-1,
		 8, 6, 5, 9,-1,
		 10, 11, 12, 13,-1,
		 14, 15, 16, 17,-1,
		 18, 19, 20, 21,-1,
		 22, 18, 23, 24,-1,
		 25, 26, 27, 28,-1,
		 29, 30, 31, 32,-1,
		 33, 34, 35, 36,-1,
		 37, 33, 38, 39,-1,
		 24, 23, 17, 16,-1,
		 39, 38, 32, 31,-1,
		 40, 5, 6, 41,-1,
		 42, 12, 11, 43,-1,
		 17, 16, 44, 45,-1,
		 46, 20, 19, 47,-1,
		 24, 23, 47, 48,-1,
		 49, 27, 26, 50,-1,
		 32, 31, 51, 52,-1,
		 53, 35, 34, 54,-1,
		 39, 38, 54, 55,-1,
		 16, 17, 23, 24,-1,
		 31, 32, 38, 39,-1,
		]
	} #IndexedFaceSet
} #Polyhedron
Separator { #Polyhedron
	DEF COORD39 Coordinate3 {
		point [
		 -2.5382 0.6096 -6.2081,
		 -2.5382 0.0762 -6.2081,
		 -2.5636 0.0762 -6.2521,
		 -2.5636 0.6096 -6.2521,
		 -2.2302 0.6096 -6.3859,
		 -2.2302 0.0762 -6.3859,
		 -2.2556 0.0762 -6.4299,
		 -2.2556 0.6096 -6.4299
		]
	} #Coordinate3
	Material {
		ambientColor      0.2000 0.1500 0.0500  #ambientColor
		diffuseColor      0.8000 0.6000 0.2000  #diffuseColor
		transparency      0.0000                #transparency
	} #Material

	IndexedFaceSet {
		coordIndex [ 
		 0, 1, 2, 3,-1,
		 3, 2, 1, 0,-1,
		 0, 3, 7, 4,-1,
		 4, 7, 3, 0,-1,
		 1, 0, 4, 5,-1,
		 5, 4, 0, 1,-1,
		 2, 1, 5, 6,-1,
		 6, 5, 1, 2,-1,
		 3, 2, 6, 7,-1,
		 7, 6, 2, 3,-1,
		 7, 6, 5, 4,-1,
		 4, 5, 6, 7,-1,
		]
	} #IndexedFaceSet
} #Polyhedron
Separator { #Polyhedron
	DEF COORD40 Coordinate3 {
		point [
		 -2.9031 0.6096 -6.7893,
		 -2.8811 0.6096 -6.8020,
		 -2.5382 0.6096 -6.2081,
		 -2.5602 0.6096 -6.1954,
		 -2.9031 0.0762 -6.7893,
		 -2.8811 0.0762 -6.8020,
		 -2.5382 0.0762 -6.2081,
		 -2.5602 0.0762 -6.1954
		]
	} #Coordinate3
	Material {
		ambientColor      0.2000 0.1500 0.0500  #ambientColor
		diffuseColor      0.8000 0.6000 0.2000  #diffuseColor
		transparency      0.0000                #transparency
	} #Material

	IndexedFaceSet {
		coordIndex [ 
		 0, 1, 2, 3,-1,
		 3, 2, 1, 0,-1,
		 0, 3, 7, 4,-1,
		 4, 7, 3, 0,-1,
		 1, 0, 4, 5,-1,
		 5, 4, 0, 1,-1,
		 2, 1, 5, 6,-1,
		 6, 5, 1, 2,-1,
		 3, 2, 6, 7,-1,
		 7, 6, 2, 3,-1,
		 7, 6, 5, 4,-1,
		 4, 5, 6, 7,-1,
		]
	} #IndexedFaceSet
} #Polyhedron
Separator { #Polyhedron
	DEF COORD41 Coordinate3 {
		point [
		 -2.5602 0.0762 -6.1954,
		 -2.5602 0.0254 -6.1954,
		 -2.9031 0.0254 -6.7893,
		 -2.9031 0.0762 -6.7893,
		 -2.2302 0.0762 -6.3859,
		 -2.2302 0.0254 -6.3859,
		 -2.5731 0.0254 -6.9798,
		 -2.5731 0.0762 -6.9798
		]
	} #Coordinate3
	Material {
		ambientColor      0.2000 0.1500 0.0500  #ambientColor
		diffuseColor      0.8000 0.6000 0.2000  #diffuseColor
		transparency      0.0000                #transparency
	} #Material

	IndexedFaceSet {
		coordIndex [ 
		 0, 1, 2, 3,-1,
		 3, 2, 1, 0,-1,
		 0, 3, 7, 4,-1,
		 4, 7, 3, 0,-1,
		 1, 0, 4, 5,-1,
		 5, 4, 0, 1,-1,
		 2, 1, 5, 6,-1,
		 6, 5, 1, 2,-1,
		 3, 2, 6, 7,-1,
		 7, 6, 2, 3,-1,
		 7, 6, 5, 4,-1,
		 4, 5, 6, 7,-1,
		]
	} #IndexedFaceSet
} #Polyhedron
Separator { #Polyhedron
	DEF COORD42 Coordinate3 {
		point [
		 -2.8557 0.6096 -6.7580,
		 -2.8557 0.0762 -6.7580,
		 -2.8811 0.0762 -6.8020,
		 -2.8811 0.6096 -6.8020,
		 -2.5477 0.6096 -6.9358,
		 -2.5477 0.0762 -6.9358,
		 -2.5731 0.0762 -6.9798,
		 -2.5731 0.6096 -6.9798
		]
	} #Coordinate3
	Material {
		ambientColor      0.2000 0.1500 0.0500  #ambientColor
		diffuseColor      0.8000 0.6000 0.2000  #diffuseColor
		transparency      0.0000                #transparency
	} #Material

	IndexedFaceSet {
		coordIndex [ 
		 0, 1, 2, 3,-1,
		 3, 2, 1, 0,-1,
		 0, 3, 7, 4,-1,
		 4, 7, 3, 0,-1,
		 1, 0, 4, 5,-1,
		 5, 4, 0, 1,-1,
		 2, 1, 5, 6,-1,
		 6, 5, 1, 2,-1,
		 3, 2, 6, 7,-1,
		 7, 6, 2, 3,-1,
		 7, 6, 5, 4,-1,
		 4, 5, 6, 7,-1,
		]
	} #IndexedFaceSet
} #Polyhedron
Separator { #Polyhedron
	DEF COORD43 Coordinate3 {
		point [
		 -2.8557 0.5588 -6.7580,
		 -2.8557 0.6096 -6.7580,
		 -2.5636 0.6096 -6.2521,
		 -2.5636 0.5588 -6.2521,
		 -2.5477 0.5588 -6.9358,
		 -2.5477 0.6096 -6.9358,
		 -2.2556 0.6096 -6.4299,
		 -2.2556 0.5588 -6.4299
		]
	} #Coordinate3
	Material {
		ambientColor      0.2000 0.1500 0.0500  #ambientColor
		diffuseColor      0.8000 0.6000 0.2000  #diffuseColor
		transparency      0.0000                #transparency
	} #Material

	IndexedFaceSet {
		coordIndex [ 
		 0, 1, 2, 3,-1,
		 3, 2, 1, 0,-1,
		 0, 3, 7, 4,-1,
		 4, 7, 3, 0,-1,
		 1, 0, 4, 5,-1,
		 5, 4, 0, 1,-1,
		 2, 1, 5, 6,-1,
		 6, 5, 1, 2,-1,
		 3, 2, 6, 7,-1,
		 7, 6, 2, 3,-1,
		 7, 6, 5, 4,-1,
		 4, 5, 6, 7,-1,
		]
	} #IndexedFaceSet
} #Polyhedron
Separator { #Polyhedron
	DEF COORD44 Coordinate3 {
		point [
		 -2.8557 0.0762 -6.7580,
		 -2.8557 0.3810 -6.7580,
		 -2.5636 0.3810 -6.2521,
		 -2.5636 0.0762 -6.2521,
		 -2.5477 0.0762 -6.9358,
		 -2.5477 0.3810 -6.9358,
		 -2.2556 0.3810 -6.4299,
		 -2.2556 0.0762 -6.4299,
		 -2.4017 0.3810 -6.6828,
		 -2.2556 0.3810 -6.4299,
		 -2.5477 0.1270 -6.9358,
		 -2.4017 0.0762 -6.6828,
		 -2.4017 0.1270 -6.6828,
		 -2.4271 0.3302 -6.7268,
		 -2.4271 0.1270 -6.7268,
		 -2.4017 0.1270 -6.6828,
		 -2.4017 0.3302 -6.6828,
		 -2.4017 0.3302 -6.6828,
		 -2.5477 0.3302 -6.9358,
		 -2.5223 0.1270 -6.8918,
		 -2.5223 0.3302 -6.8918,
		 -2.5477 0.1270 -6.9358,
		 -2.4017 0.1270 -6.6828,
		 -2.2556 0.0762 -6.4299,
		 -2.2556 0.1270 -6.4299,
		 -2.2810 0.3302 -6.4739,
		 -2.2810 0.1270 -6.4739,
		 -2.2556 0.1270 -6.4299,
		 -2.2556 0.3302 -6.4299,
		 -2.2556 0.3302 -6.4299,
		 -2.4017 0.3302 -6.6828,
		 -2.3763 0.1270 -6.6388,
		 -2.3763 0.3302 -6.6388,
		 -2.4017 0.1270 -6.6828,
		 -2.4017 0.1270 -6.6828,
		 -2.5477 0.1270 -6.9358,
		 -2.4017 0.3302 -6.6828,
		 -2.4017 0.1270 -6.6828,
		 -2.5477 0.3302 -6.9358,
		 -2.4017 0.3302 -6.6828,
		 -2.5477 0.1270 -6.9358,
		 -2.2556 0.1270 -6.4299,
		 -2.4017 0.1270 -6.6828,
		 -2.2556 0.3302 -6.4299,
		 -2.2556 0.1270 -6.4299,
		 -2.4017 0.3302 -6.6828,
		 -2.2556 0.3302 -6.4299,
		 -2.4017 0.1270 -6.6828
		]
	} #Coordinate3
	Material {
		ambientColor      0.2000 0.1500 0.0500  #ambientColor
		diffuseColor      0.8000 0.6000 0.2000  #diffuseColor
		transparency      0.0000                #transparency
	} #Material

	Texture2 {
		filename ""  #filename
		wrapS REPEAT 
		wrapT REPEAT 
	} #Texture2

	IndexedFaceSet {
		coordIndex [ 
		 0, 1, 2, 3,-1,
		 3, 2, 1, 0,-1,
		 0, 3, 7, 4,-1,
		 4, 7, 3, 0,-1,
		 1, 0, 4, 5,-1,
		 5, 4, 0, 1,-1,
		 2, 1, 5, 6,-1,
		 6, 5, 1, 2,-1,
		 3, 2, 6, 7,-1,
		 7, 6, 2, 3,-1,
		 8, 9, 6,-1,
		 10, 4, 11, 12,-1,
		 13, 14, 15, 16,-1,
		 17, 8, 5, 18,-1,
		 19, 20, 18, 21,-1,
		 22, 11, 23, 24,-1,
		 25, 26, 27, 28,-1,
		 29, 9, 8, 30,-1,
		 31, 32, 30, 33,-1,
		 20, 19, 14, 13,-1,
		 32, 31, 26, 25,-1,
		 6, 9, 8,-1,
		 34, 11, 4, 35,-1,
		 36, 37, 14, 13,-1,
		 38, 5, 8, 39,-1,
		 40, 38, 20, 19,-1,
		 41, 23, 11, 42,-1,
		 43, 44, 26, 25,-1,
		 45, 8, 9, 46,-1,
		 47, 45, 32, 31,-1,
		 13, 14, 19, 20,-1,
		 25, 26, 31, 32,-1,
		]
	} #IndexedFaceSet
} #Polyhedron
Separator { #Polyhedron
	DEF COORD45 Coordinate3 {
		point [
		 -2.9378 0.6350 -6.7986,
		 -2.5638 0.6350 -7.0145,
		 -2.1955 0.6350 -6.3766,
		 -2.5695 0.6350 -6.1607,
		 -2.9378 0.6096 -6.7986,
		 -2.5638 0.6096 -7.0145,
		 -2.1955 0.6096 -6.3766,
		 -2.5695 0.6096 -6.1607
		]
	} #Coordinate3
	Material {
		ambientColor      0.2000 0.1500 0.0500  #ambientColor
		diffuseColor      0.8000 0.6000 0.2000  #diffuseColor
		transparency      0.0000                #transparency
	} #Material

	IndexedFaceSet {
		coordIndex [ 
		 0, 1, 2, 3,-1,
		 3, 2, 1, 0,-1,
		 0, 3, 7, 4,-1,
		 4, 7, 3, 0,-1,
		 1, 0, 4, 5,-1,
		 5, 4, 0, 1,-1,
		 2, 1, 5, 6,-1,
		 6, 5, 1, 2,-1,
		 3, 2, 6, 7,-1,
		 7, 6, 2, 3,-1,
		 7, 6, 5, 4,-1,
		 4, 5, 6, 7,-1,
		]
	} #IndexedFaceSet
} #Polyhedron
Separator { #Polyhedron
	DEF COORD46 Coordinate3 {
		point [
		 -2.5670 0.0254 -6.3088,
		 -2.5230 0.0254 -6.3342,
		 -2.4976 0.0254 -6.2902,
		 -2.5416 0.0254 -6.2648,
		 -2.5670 0.0000 -6.3088,
		 -2.5230 0.0000 -6.3342,
		 -2.4976 0.0000 -6.2902,
		 -2.5416 0.0000 -6.2648
		]
	} #Coordinate3
	Material {
		ambientColor      0.0000 0.0000 0.0000  #ambientColor
		diffuseColor      0.0000 0.0000 0.0000  #diffuseColor
		transparency      0.0000                #transparency
	} #Material

	Texture2 {
		filename ""  #filename
		wrapS REPEAT 
		wrapT REPEAT 
	} #Texture2

	IndexedFaceSet {
		coordIndex [ 
		 0, 1, 2, 3,-1,
		 3, 2, 1, 0,-1,
		 0, 3, 7, 4,-1,
		 4, 7, 3, 0,-1,
		 1, 0, 4, 5,-1,
		 5, 4, 0, 1,-1,
		 2, 1, 5, 6,-1,
		 6, 5, 1, 2,-1,
		 3, 2, 6, 7,-1,
		 7, 6, 2, 3,-1,
		 7, 6, 5, 4,-1,
		 4, 5, 6, 7,-1,
		]
	} #IndexedFaceSet
} #Polyhedron
Separator { #Polyhedron
	DEF COORD47 Coordinate3 {
		point [
		 -2.2776 0.0254 -6.4172,
		 -2.3216 0.0254 -6.3918,
		 -2.3470 0.0254 -6.4358,
		 -2.3030 0.0254 -6.4612,
		 -2.2776 0.0000 -6.4172,
		 -2.3216 0.0000 -6.3918,
		 -2.3470 0.0000 -6.4358,
		 -2.3030 0.0000 -6.4612
		]
	} #Coordinate3
	Material {
		ambientColor      0.0000 0.0000 0.0000  #ambientColor
		diffuseColor      0.0000 0.0000 0.0000  #diffuseColor
		transparency      0.0000                #transparency
	} #Material

	IndexedFaceSet {
		coordIndex [ 
		 0, 1, 2, 3,-1,
		 3, 2, 1, 0,-1,
		 0, 3, 7, 4,-1,
		 4, 7, 3, 0,-1,
		 1, 0, 4, 5,-1,
		 5, 4, 0, 1,-1,
		 2, 1, 5, 6,-1,
		 6, 5, 1, 2,-1,
		 3, 2, 6, 7,-1,
		 7, 6, 2, 3,-1,
		 7, 6, 5, 4,-1,
		 4, 5, 6, 7,-1,
		]
	} #IndexedFaceSet
} #Polyhedron
Separator { #Polyhedron
	DEF COORD48 Coordinate3 {
		point [
		 -2.7545 0.3810 -6.6844,
		 -2.7545 0.4826 -6.6844,
		 -2.5767 0.4826 -6.3765,
		 -2.5767 0.3810 -6.3765,
		 -2.5566 0.3810 -6.7987,
		 -2.5566 0.4826 -6.7987,
		 -2.3788 0.4826 -6.4907,
		 -2.3788 0.3810 -6.4907,
		 -2.5566 0.4064 -6.7987,
		 -2.3788 0.4064 -6.4907,
		 -2.4931 0.4191 -6.6887,
		 -2.4931 0.4064 -6.6887,
		 -2.3788 0.4064 -6.4907,
		 -2.3788 0.4191 -6.4907,
		 -2.5439 0.4064 -6.7767,
		 -2.5439 0.4191 -6.7767,
		 -2.5566 0.4191 -6.7987,
		 -2.5566 0.4064 -6.7987,
		 -2.3915 0.4572 -6.5127,
		 -2.3915 0.4191 -6.5127,
		 -2.3788 0.4191 -6.4907,
		 -2.3788 0.4572 -6.4907,
		 -2.4931 0.4826 -6.6887,
		 -2.4931 0.4572 -6.6887,
		 -2.3788 0.4572 -6.4907,
		 -2.5439 0.4572 -6.7767,
		 -2.5439 0.4826 -6.7767,
		 -2.5566 0.4572 -6.7987,
		 -2.4931 0.4572 -6.6887,
		 -2.4931 0.4191 -6.6887,
		 -2.4804 0.4191 -6.6667,
		 -2.4804 0.4572 -6.6667,
		 -2.5439 0.4191 -6.7767,
		 -2.5439 0.4572 -6.7767,
		 -2.5566 0.4191 -6.7987,
		 -2.4804 0.4191 -6.6667,
		 -2.3788 0.4064 -6.4907,
		 -2.5566 0.4064 -6.7987,
		 -2.3788 0.4191 -6.4907,
		 -2.3788 0.4064 -6.4907,
		 -2.4931 0.4191 -6.6887,
		 -2.5566 0.4064 -6.7987,
		 -2.5566 0.4191 -6.7987,
		 -2.5439 0.4191 -6.7767,
		 -2.3788 0.4572 -6.4907,
		 -2.3788 0.4191 -6.4907,
		 -2.3788 0.4572 -6.4907,
		 -2.4931 0.4572 -6.6887,
		 -2.5566 0.4572 -6.7987,
		 -2.5439 0.4572 -6.7767,
		 -2.4804 0.4191 -6.6667,
		 -2.4931 0.4191 -6.6887,
		 -2.4931 0.4572 -6.6887,
		 -2.5566 0.4191 -6.7987,
		 -2.5439 0.4572 -6.7767,
		 -2.5439 0.4191 -6.7767
		]
	} #Coordinate3
	Material {
		ambientColor      0.0902 0.0902 0.0902  #ambientColor
		diffuseColor      0.3608 0.3608 0.3608  #diffuseColor
		transparency      0.0000                #transparency
	} #Material

	IndexedFaceSet {
		coordIndex [ 
		 0, 1, 2, 3,-1,
		 3, 2, 1, 0,-1,
		 0, 3, 7, 4,-1,
		 4, 7, 3, 0,-1,
		 1, 0, 4, 5,-1,
		 5, 4, 0, 1,-1,
		 2, 1, 5, 6,-1,
		 6, 5, 1, 2,-1,
		 3, 2, 6, 7,-1,
		 7, 6, 2, 3,-1,
		 8, 4, 7, 9,-1,
		 10, 11, 12, 13,-1,
		 14, 15, 16, 17,-1,
		 18, 19, 20, 21,-1,
		 22, 23, 24, 6,-1,
		 25, 26, 5, 27,-1,
		 28, 29, 30, 31,-1,
		 32, 33, 27, 34,-1,
		 31, 35, 19, 18,-1,
		]
	} #IndexedFaceSet
	Material {
		ambientColor      0.0000 0.0000 0.0000  #ambientColor
		diffuseColor      0.0000 0.0000 0.0000  #diffuseColor
		transparency      0.0000                #transparency
	} #Material

	IndexedFaceSet {
		coordIndex [ 
		 26, 14, 11, 22,-1,
		]
	} #IndexedFaceSet
	Material {
		ambientColor      0.0902 0.0902 0.0902  #ambientColor
		diffuseColor      0.3608 0.3608 0.3608  #diffuseColor
		transparency      0.0000                #transparency
	} #Material

	IndexedFaceSet {
		coordIndex [ 
		 36, 7, 4, 37,-1,
		 38, 39, 11, 40,-1,
		 41, 42, 43, 14,-1,
		 44, 45, 19, 18,-1,
		 6, 46, 47, 22,-1,
		 48, 5, 26, 49,-1,
		 31, 50, 51, 52,-1,
		 53, 48, 54, 55,-1,
		 18, 19, 35, 31,-1,
		]
	} #IndexedFaceSet
	Material {
		ambientColor      0.0000 0.0000 0.0000  #ambientColor
		diffuseColor      0.0000 0.0000 0.0000  #diffuseColor
		transparency      0.0000                #transparency
	} #Material

	IndexedFaceSet {
		coordIndex [ 
		 22, 11, 14, 26,-1,
		]
	} #IndexedFaceSet
} #Polyhedron
Separator { #Polyhedron
	DEF COORD49 Coordinate3 {
		point [
		 -2.2967 1.0668 -6.4502,
		 -2.6046 1.0668 -6.2724,
		 -2.8586 1.0668 -6.7123,
		 -2.5507 1.0668 -6.8901,
		 -2.2967 0.6350 -6.4502,
		 -2.6046 0.6350 -6.2724,
		 -2.8586 0.6350 -6.7123,
		 -2.5507 0.6350 -6.8901,
		 -2.5507 0.6731 -6.8901,
		 -2.2967 0.6731 -6.4502,
		 -2.3157 1.0287 -6.4831,
		 -2.3157 0.6731 -6.4831,
		 -2.2967 0.6731 -6.4502,
		 -2.2967 1.0287 -6.4502,
		 -2.2967 1.0287 -6.4502,
		 -2.5507 1.0287 -6.8901,
		 -2.5316 0.6731 -6.8571,
		 -2.5316 1.0287 -6.8571,
		 -2.5507 0.6731 -6.8901,
		 -2.5316 0.7366 -6.8571,
		 -2.3157 0.7366 -6.4831,
		 -2.3556 0.9652 -6.5523,
		 -2.4216 0.7366 -6.6666,
		 -2.3157 0.9652 -6.4831,
		 -2.3157 0.9652 -6.4831,
		 -2.5316 0.9652 -6.8571,
		 -2.4876 0.9652 -6.7809,
		 -2.5316 0.9652 -6.8571,
		 -2.5316 0.7366 -6.8571,
		 -2.4370 0.7899 -6.6932,
		 -2.4062 0.7899 -6.6399,
		 -2.3777 0.9450 -6.5904,
		 -2.4229 0.7899 -6.6687,
		 -2.3615 0.9450 -6.5624,
		 -2.4674 0.9457 -6.7459,
		 -2.3613 0.9457 -6.5620,
		 -2.3613 0.9457 -6.5620,
		 -2.4820 0.9457 -6.7711,
		 -2.4370 0.7899 -6.6932,
		 -2.4329 0.8251 -6.6862,
		 -2.4126 0.8251 -6.6509,
		 -2.3932 0.9390 -6.6174,
		 -2.4265 0.8251 -6.6751,
		 -2.3794 0.9390 -6.5934,
		 -2.4592 0.9397 -6.7317,
		 -2.3792 0.9397 -6.5931,
		 -2.3792 0.9397 -6.5931,
		 -2.4657 0.9397 -6.7430,
		 -2.4329 0.8251 -6.6862,
		 -2.2967 0.6731 -6.4502,
		 -2.5507 0.6731 -6.8901,
		 -2.2967 1.0287 -6.4502,
		 -2.2967 0.6731 -6.4502,
		 -2.5507 1.0287 -6.8901,
		 -2.2967 1.0287 -6.4502,
		 -2.5507 0.6731 -6.8901,
		 -2.3157 0.7366 -6.4831,
		 -2.5316 0.7366 -6.8571,
		 -2.3157 0.9652 -6.4831,
		 -2.5316 0.9652 -6.8571,
		 -2.3157 0.9652 -6.4831,
		 -2.5316 0.7366 -6.8571,
		 -2.5316 0.9652 -6.8571,
		 -2.4062 0.7899 -6.6399,
		 -2.4370 0.7899 -6.6932,
		 -2.3615 0.9450 -6.5624,
		 -2.3613 0.9457 -6.5620,
		 -2.4820 0.9457 -6.7711,
		 -2.3613 0.9457 -6.5620,
		 -2.4370 0.7899 -6.6932,
		 -2.4126 0.8251 -6.6509,
		 -2.4329 0.8251 -6.6862,
		 -2.3794 0.9390 -6.5934,
		 -2.3792 0.9397 -6.5931,
		 -2.4657 0.9397 -6.7430,
		 -2.3792 0.9397 -6.5931,
		 -2.4329 0.8251 -6.6862
		]
	} #Coordinate3
	Material {
		ambientColor      0.0000 0.0000 0.0000  #ambientColor
		diffuseColor      0.0000 0.0000 0.0000  #diffuseColor
		transparency      0.0000                #transparency
	} #Material

	Texture2 {
		filename ""  #filename
		wrapS REPEAT 
		wrapT REPEAT 
	} #Texture2

	IndexedFaceSet {
		coordIndex [ 
		 0, 1, 2, 3,-1,
		 3, 2, 1, 0,-1,
		]
	} #IndexedFaceSet
	Material {
		ambientColor      0.1392 0.1392 0.1392  #ambientColor
		diffuseColor      0.5569 0.5569 0.5569  #diffuseColor
		transparency      0.0000                #transparency
	} #Material

	IndexedFaceSet {
		coordIndex [ 
		 8, 7, 4, 9,-1,
		 10, 11, 12, 13,-1,
		 14, 0, 3, 15,-1,
		 16, 17, 15, 18,-1,
		]
	} #IndexedFaceSet
	Material {
		ambientColor      0.0000 0.0000 0.0833  #ambientColor
		diffuseColor      0.0000 0.0000 0.3333  #diffuseColor
		transparency      0.0000                #transparency
	} #Material

	IndexedFaceSet {
		coordIndex [ 
		 19, 16, 11, 20,-1,
		 21, 22, 20, 23,-1,
		 24, 10, 17, 25,-1,
		 22, 26, 27, 28,-1,
		]
	} #IndexedFaceSet
	Material {
		ambientColor      0.0000 0.1392 0.0000  #ambientColor
		diffuseColor      0.0000 0.5569 0.0000  #diffuseColor
		transparency      0.0000                #transparency
	} #Material

	IndexedFaceSet {
		coordIndex [ 
		 29, 22, 30,-1,
		 31, 32, 30, 33,-1,
		 34, 31, 33, 35,-1,
		 36, 21, 26, 37,-1,
		 32, 34, 37, 38,-1,
		]
	} #IndexedFaceSet
	Material {
		ambientColor      0.1245 0.2500 0.1245  #ambientColor
		diffuseColor      0.4980 1.0000 0.4980  #diffuseColor
		transparency      0.0000                #transparency
	} #Material

	IndexedFaceSet {
		coordIndex [ 
		 39, 32, 40,-1,
		 41, 42, 40, 43,-1,
		 44, 41, 43, 45,-1,
		 46, 31, 34, 47,-1,
		 42, 44, 47, 48,-1,
		]
	} #IndexedFaceSet
	Material {
		ambientColor      0.0000 0.0000 0.0833  #ambientColor
		diffuseColor      0.0000 0.0000 0.3333  #diffuseColor
		transparency      0.0000                #transparency
	} #Material

	IndexedFaceSet {
		coordIndex [ 
		 42, 41, 44,-1,
		]
	} #IndexedFaceSet
	Material {
		ambientColor      0.1392 0.1392 0.1392  #ambientColor
		diffuseColor      0.5569 0.5569 0.5569  #diffuseColor
		transparency      0.0000                #transparency
	} #Material

	IndexedFaceSet {
		coordIndex [ 
		 49, 4, 7, 50,-1,
		 51, 52, 11, 10,-1,
		 53, 3, 0, 54,-1,
		 55, 53, 17, 16,-1,
		]
	} #IndexedFaceSet
	Material {
		ambientColor      0.0000 0.0000 0.0833  #ambientColor
		diffuseColor      0.0000 0.0000 0.3333  #diffuseColor
		transparency      0.0000                #transparency
	} #Material

	IndexedFaceSet {
		coordIndex [ 
		 56, 11, 16, 57,-1,
		 58, 56, 22, 21,-1,
		 59, 17, 10, 60,-1,
		 61, 62, 26, 22,-1,
		]
	} #IndexedFaceSet
	Material {
		ambientColor      0.0000 0.1392 0.0000  #ambientColor
		diffuseColor      0.0000 0.5569 0.0000  #diffuseColor
		transparency      0.0000                #transparency
	} #Material

	IndexedFaceSet {
		coordIndex [ 
		 63, 22, 64,-1,
		 65, 63, 32, 31,-1,
		 66, 65, 31, 34,-1,
		 67, 26, 21, 68,-1,
		 69, 67, 34, 32,-1,
		]
	} #IndexedFaceSet
	Material {
		ambientColor      0.1245 0.2500 0.1245  #ambientColor
		diffuseColor      0.4980 1.0000 0.4980  #diffuseColor
		transparency      0.0000                #transparency
	} #Material

	IndexedFaceSet {
		coordIndex [ 
		 70, 32, 71,-1,
		 72, 70, 42, 41,-1,
		 73, 72, 41, 44,-1,
		 74, 34, 31, 75,-1,
		 76, 74, 44, 42,-1,
		]
	} #IndexedFaceSet
	Material {
		ambientColor      0.0000 0.0000 0.0833  #ambientColor
		diffuseColor      0.0000 0.0000 0.3333  #diffuseColor
		transparency      0.0000                #transparency
	} #Material

	IndexedFaceSet {
		coordIndex [ 
		 44, 41, 42,-1,
		]
	} #IndexedFaceSet
	Material {
		ambientColor      0.0000 0.0000 0.0000  #ambientColor
		diffuseColor      0.0000 0.0000 0.0000  #diffuseColor
		transparency      0.0000                #transparency
	} #Material

	IndexedFaceSet {
		coordIndex [ 
		 1, 0, 4, 5,-1,
		 5, 4, 0, 1,-1,
		 2, 1, 5, 6,-1,
		 6, 5, 1, 2,-1,
		 3, 2, 6, 7,-1,
		 7, 6, 2, 3,-1,
		 7, 6, 5, 4,-1,
		 4, 5, 6, 7,-1,
		]
	} #IndexedFaceSet
} #Polyhedron
Separator { #Polyhedron
	DEF COORD50 Coordinate3 {
		point [
		 -2.8337 0.0000 -6.7707,
		 -2.7897 0.0000 -6.7961,
		 -2.7643 0.0000 -6.7521,
		 -2.8083 0.0000 -6.7267,
		 -2.8337 0.0000 -6.7707,
		 -2.7897 0.0000 -6.7961,
		 -2.7643 0.0000 -6.7521,
		 -2.8083 0.0000 -6.7267
		]
	} #Coordinate3
	Material {
		ambientColor      0.0000 0.0000 0.0000  #ambientColor
		diffuseColor      0.0000 0.0000 0.0000  #diffuseColor
		transparency      0.0000                #transparency
	} #Material

	IndexedFaceSet {
		coordIndex [ 
		 0, 1, 2, 3,-1,
		 3, 2, 1, 0,-1,
		 7, 6, 5, 4,-1,
		 4, 5, 6, 7,-1,
		]
	} #IndexedFaceSet
} #Polyhedron
Separator { #Polyhedron
	DEF COORD51 Coordinate3 {
		point [
		 -2.5443 0.0254 -6.8791,
		 -2.5883 0.0254 -6.8537,
		 -2.6137 0.0254 -6.8977,
		 -2.5697 0.0254 -6.9231,
		 -2.5443 0.0000 -6.8791,
		 -2.5883 0.0000 -6.8537,
		 -2.6137 0.0000 -6.8977,
		 -2.5697 0.0000 -6.9231
		]
	} #Coordinate3
	Material {
		ambientColor      0.0000 0.0000 0.0000  #ambientColor
		diffuseColor      0.0000 0.0000 0.0000  #diffuseColor
		transparency      0.0000                #transparency
	} #Material

	IndexedFaceSet {
		coordIndex [ 
		 0, 1, 2, 3,-1,
		 3, 2, 1, 0,-1,
		 0, 3, 7, 4,-1,
		 4, 7, 3, 0,-1,
		 1, 0, 4, 5,-1,
		 5, 4, 0, 1,-1,
		 2, 1, 5, 6,-1,
		 6, 5, 1, 2,-1,
		 3, 2, 6, 7,-1,
		 7, 6, 2, 3,-1,
		 7, 6, 5, 4,-1,
		 4, 5, 6, 7,-1,
		]
	} #IndexedFaceSet
} #Polyhedron
Separator { #Polyhedron
	DEF COORD52 Coordinate3 {
		point [
		 -1.5240 0.6604 -6.2484,
		 -1.5240 0.6604 -6.7056,
		 -0.0000 0.6604 -6.7056,
		 -0.0000 0.6604 -6.2484,
		 -1.5240 0.0000 -6.2484,
		 -1.5240 0.0000 -6.7056,
		 -0.0000 0.0000 -6.7056,
		 -0.0000 0.0000 -6.2484,
		 -1.5240 0.0508 -6.7056,
		 -0.0000 0.0508 -6.7056,
		 -0.0508 0.2033 -6.7056,
		 -0.0508 0.0508 -6.7056,
		 -0.0000 0.2033 -6.7056,
		 -0.0000 0.2033 -6.7056,
		 -0.0000 0.2540 -6.7056,
		 -1.5240 0.2540 -6.7056,
		 -1.5240 0.2033 -6.7056,
		 -0.8636 0.2033 -6.7056,
		 -0.8636 0.0508 -6.7056,
		 -0.6604 0.0508 -6.7056,
		 -0.6604 0.2033 -6.7056,
		 -1.4732 0.0508 -6.7056,
		 -1.4732 0.2033 -6.7056,
		 -1.5240 0.2033 -6.7056,
		 -1.5240 0.0508 -6.7056,
		 -0.0508 0.4064 -6.7056,
		 -0.0508 0.2540 -6.7056,
		 -0.0000 0.4064 -6.7056,
		 -0.0000 0.4064 -6.7056,
		 -0.0000 0.4572 -6.7056,
		 -1.5240 0.4572 -6.7056,
		 -1.5240 0.4064 -6.7056,
		 -0.8636 0.4064 -6.7056,
		 -0.8636 0.2540 -6.7056,
		 -0.6604 0.2540 -6.7056,
		 -0.6604 0.4064 -6.7056,
		 -1.4732 0.2540 -6.7056,
		 -1.4732 0.4064 -6.7056,
		 -1.5240 0.4064 -6.7056,
		 -1.5240 0.2540 -6.7056,
		 -0.0508 0.6096 -6.7056,
		 -0.0508 0.4572 -6.7056,
		 -0.0000 0.6096 -6.7056,
		 -0.0000 0.6096 -6.7056,
		 -1.5240 0.6096 -6.7056,
		 -0.8636 0.6096 -6.7056,
		 -0.8636 0.4572 -6.7056,
		 -0.6604 0.4572 -6.7056,
		 -0.6604 0.6096 -6.7056,
		 -1.4732 0.4572 -6.7056,
		 -1.4732 0.6096 -6.7056,
		 -1.5240 0.6096 -6.7056,
		 -1.5240 0.4572 -6.7056,
		 -0.8636 0.6096 -6.7056,
		 -1.4732 0.6096 -6.7056,
		 -0.8636 0.4064 -6.7056,
		 -1.4732 0.4064 -6.7056,
		 -0.8636 0.2033 -6.7056,
		 -1.4732 0.2033 -6.7056
		]
	} #Coordinate3
	Material {
		ambientColor      0.1500 0.1000 0.0500  #ambientColor
		diffuseColor      0.6000 0.4000 0.2000  #diffuseColor
		transparency      0.0000                #transparency
	} #Material

	IndexedFaceSet {
		coordIndex [ 
		 0, 1, 2, 3,-1,
		 3, 2, 1, 0,-1,
		 0, 3, 7, 4,-1,
		 4, 7, 3, 0,-1,
		 1, 0, 4, 5,-1,
		 5, 4, 0, 1,-1,
		 8, 5, 6, 9,-1,
		 10, 11, 9, 12,-1,
		 13, 14, 15, 16,-1,
		 17, 18, 19, 20,-1,
		 21, 22, 23, 24,-1,
		 18, 21, 24, 19,-1,
		 25, 26, 14, 27,-1,
		 28, 29, 30, 31,-1,
		 32, 33, 34, 35,-1,
		 36, 37, 38, 39,-1,
		 33, 36, 39, 34,-1,
		 40, 41, 29, 42,-1,
		 43, 2, 1, 44,-1,
		 45, 46, 47, 48,-1,
		 49, 50, 51, 52,-1,
		 46, 49, 52, 47,-1,
		]
	} #IndexedFaceSet
	Material {
		ambientColor      0.2500 0.1000 0.0500  #ambientColor
		diffuseColor      1.0000 0.4000 0.2000  #diffuseColor
		transparency      0.0000                #transparency
	} #Material

	IndexedFaceSet {
		coordIndex [ 
		 41, 40, 48, 47,-1,
		 26, 25, 35, 34,-1,
		 11, 10, 20, 19,-1,
		 46, 53, 54, 49,-1,
		 33, 55, 56, 36,-1,
		 18, 57, 58, 21,-1,
		]
	} #IndexedFaceSet
	Material {
		ambientColor      0.1500 0.1000 0.0500  #ambientColor
		diffuseColor      0.6000 0.4000 0.2000  #diffuseColor
		transparency      0.0000                #transparency
	} #Material

	IndexedFaceSet {
		coordIndex [ 
		 6, 5, 1, 2,-1,
		 3, 2, 6, 7,-1,
		 7, 6, 2, 3,-1,
		 4, 5, 6, 7,-1,
		]
	} #IndexedFaceSet
} #Polyhedron
Separator { #Polyhedron
	DEF COORD53 Coordinate3 {
		point [
		 1.5240 2.1336 -12.1920,
		 1.5240 2.1336 -12.0904,
		 -0.9144 2.1336 -12.0904,
		 -0.9144 2.1336 -12.1920,
		 1.5240 0.9144 -12.1920,
		 1.5240 0.9144 -12.0904,
		 -0.9144 0.9144 -12.0904,
		 -0.9144 0.9144 -12.1920,
		 -0.9144 2.0575 -12.0904,
		 1.5240 2.0575 -12.0904,
		 -0.9144 0.9843 -12.0904,
		 -0.8255 2.0575 -12.0904,
		 -0.8255 0.9843 -12.0904,
		 1.5240 0.9843 -12.0904,
		 -0.9144 0.9843 -12.0904,
		 1.5240 2.0575 -12.0904,
		 1.5240 0.9843 -12.0904,
		 1.4542 0.9843 -12.0904,
		 1.4542 2.0575 -12.0904
		]
	} #Coordinate3
	Material {
		ambientColor      0.2500 0.2000 0.0000  #ambientColor
		diffuseColor      1.0000 0.8000 0.0000  #diffuseColor
		transparency      0.0000                #transparency
	} #Material

	Texture2 {
		filename ""  #filename
		wrapS REPEAT 
		wrapT REPEAT 
	} #Texture2

	IndexedFaceSet {
		coordIndex [ 
		 0, 1, 2, 3,-1,
		 3, 2, 1, 0,-1,
		 4, 7, 3, 0,-1,
		 1, 0, 4, 5,-1,
		 5, 4, 0, 1,-1,
		]
	} #IndexedFaceSet
	Material {
		ambientColor      0.2500 0.1500 0.0500  #ambientColor
		diffuseColor      1.0000 0.6000 0.2000  #diffuseColor
		transparency      0.0000                #transparency
	} #Material

	IndexedFaceSet {
		coordIndex [ 
		 8, 2, 1, 9,-1,
		 10, 8, 11, 12,-1,
		 13, 5, 6, 14,-1,
		 15, 16, 17, 18,-1,
		]
	} #IndexedFaceSet
	Material {
		ambientColor      0.0275 0.0275 0.2500  #ambientColor
		diffuseColor      0.1098 0.1098 1.0000  #diffuseColor
		transparency      0.0000                #transparency
	} #Material

	Texture2 {
		filename "TXTR0005.JPG"  #filename
		wrapS REPEAT 
		wrapT REPEAT 
	} #Texture2

	IndexedFaceSet {
		coordIndex [ 
		 12, 11, 18, 17,-1,
		]
	} #IndexedFaceSet
	Material {
		ambientColor      0.2500 0.2000 0.0000  #ambientColor
		diffuseColor      1.0000 0.8000 0.0000  #diffuseColor
		transparency      0.0000                #transparency
	} #Material

	Texture2 {
		filename ""  #filename
		wrapS REPEAT 
		wrapT REPEAT 
	} #Texture2

	IndexedFaceSet {
		coordIndex [ 
		 6, 5, 1, 2,-1,
		 3, 2, 6, 7,-1,
		 7, 6, 2, 3,-1,
		 7, 6, 5, 4,-1,
		 4, 5, 6, 7,-1,
		]
	} #IndexedFaceSet
} #Polyhedron
Separator { #Polyhedron
	DEF COORD54 Coordinate3 {
		point [
		 -0.1524 0.2286 -9.9162,
		 -0.1524 0.2286 -11.6332,
		 0.7620 0.2286 -11.6332,
		 0.7620 0.2286 -9.9162,
		 -0.1524 0.0000 -9.9162,
		 -0.1524 0.0000 -11.6332,
		 0.7620 0.0000 -11.6332,
		 0.7620 0.0000 -9.9162
		]
	} #Coordinate3
	Material {
		ambientColor      0.0480 0.0480 0.0480  #ambientColor
		diffuseColor      0.1922 0.1922 0.1922  #diffuseColor
		transparency      0.0000                #transparency
	} #Material

	IndexedFaceSet {
		coordIndex [ 
		 0, 1, 2, 3,-1,
		 3, 2, 1, 0,-1,
		 0, 3, 7, 4,-1,
		 4, 7, 3, 0,-1,
		 1, 0, 4, 5,-1,
		 5, 4, 0, 1,-1,
		 2, 1, 5, 6,-1,
		 6, 5, 1, 2,-1,
		 3, 2, 6, 7,-1,
		 7, 6, 2, 3,-1,
		 7, 6, 5, 4,-1,
		 4, 5, 6, 7,-1,
		]
	} #IndexedFaceSet
} #Polyhedron
Separator { #Polyhedron
	DEF COORD55 Coordinate3 {
		point [
		 -0.3962 0.2794 -9.7638,
		 -0.3962 0.2794 -11.6332,
		 0.9957 0.2794 -11.6332,
		 0.9957 0.2794 -9.7638,
		 -0.3962 0.2286 -9.7638,
		 -0.3962 0.2286 -11.6332,
		 0.9957 0.2286 -11.6332,
		 0.9957 0.2286 -9.7638
		]
	} #Coordinate3
	Material {
		ambientColor      0.0480 0.0480 0.0480  #ambientColor
		diffuseColor      0.1922 0.1922 0.1922  #diffuseColor
		transparency      0.0000                #transparency
	} #Material

	IndexedFaceSet {
		coordIndex [ 
		 0, 1, 2, 3,-1,
		 3, 2, 1, 0,-1,
		 0, 3, 7, 4,-1,
		 4, 7, 3, 0,-1,
		 1, 0, 4, 5,-1,
		 5, 4, 0, 1,-1,
		 2, 1, 5, 6,-1,
		 6, 5, 1, 2,-1,
		 3, 2, 6, 7,-1,
		 7, 6, 2, 3,-1,
		 7, 6, 5, 4,-1,
		 4, 5, 6, 7,-1,
		]
	} #IndexedFaceSet
} #Polyhedron
WWWAnchor {
	name "http://www.achilles.net/~bb"
	map NONE
	Separator { #Polyhedron
		DEF COORD56 Coordinate3 {
			point [
			-0.3658 0.4572 -9.7943,
			-0.3658 0.4572 -11.6332,
			0.9601 0.4572 -11.6332,
			0.9601 0.4572 -9.7943,
			-0.3658 0.2794 -9.7943,
			-0.3658 0.2794 -11.6332,
			0.9601 0.2794 -11.6332,
			0.9601 0.2794 -9.7943
			]
		} #Coordinate3
		Material {
			ambientColor      0.2363 0.2363 0.2363  #ambientColor
			diffuseColor      0.9451 0.9451 0.9451  #diffuseColor
			transparency      0.0000                #transparency
		} #Material

		IndexedFaceSet {
			coordIndex [ 
			 0, 1, 2, 3,-1,
			 3, 2, 1, 0,-1,
			 0, 3, 7, 4,-1,
			 4, 7, 3, 0,-1,
			 1, 0, 4, 5,-1,
			 5, 4, 0, 1,-1,
			 2, 1, 5, 6,-1,
			 6, 5, 1, 2,-1,
			 3, 2, 6, 7,-1,
			 7, 6, 2, 3,-1,
			 7, 6, 5, 4,-1,
			 4, 5, 6, 7,-1,
			]
		} #IndexedFaceSet
	} #Polyhedron
} #WWWAnchor
Separator { #Polyhedron
	DEF COORD57 Coordinate3 {
		point [
		 0.9957 0.7620 -11.9380,
		 0.9957 0.7620 -11.6332,
		 -0.3962 0.7620 -11.6332,
		 -0.3962 0.7620 -11.9380,
		 0.9957 0.0000 -11.9380,
		 0.9957 0.0000 -11.6332,
		 -0.3962 0.0000 -11.6332,
		 -0.3962 0.0000 -11.9380,
		 0.9957 0.7620 -11.7958,
		 -0.3962 0.7620 -11.7958,
		 0.9957 0.4623 -11.6332,
		 -0.3962 0.4623 -11.6332
		]
	} #Coordinate3
	Material {
		ambientColor      0.0480 0.0480 0.0480  #ambientColor
		diffuseColor      0.1922 0.1922 0.1922  #diffuseColor
		transparency      0.0000                #transparency
	} #Material

	IndexedFaceSet {
		coordIndex [ 
		 0, 8, 9, 3,-1,
		 3, 9, 8, 0,-1,
		 0, 3, 7, 4,-1,
		 4, 7, 3, 0,-1,
		 8, 0, 4, 5, 10,-1,
		 10, 5, 4, 0, 8,-1,
		 10, 5, 6, 11,-1,
		 11, 6, 5, 10,-1,
		 3, 9, 11, 6, 7,-1,
		 7, 6, 11, 9, 3,-1,
		 7, 6, 5, 4,-1,
		 4, 5, 6, 7,-1,
		 9, 8, 10, 11,-1,
		 11, 10, 8, 9,-1,
		]
	} #IndexedFaceSet
} #Polyhedron
Separator { #Polyhedron
	DEF COORD58 Coordinate3 {
		point [
		 7.9248 2.4384 -12.1920,
		 7.9248 2.4384 -9.1440,
		 4.5720 2.4384 -9.1440,
		 4.5720 2.4384 -12.1920,
		 7.9248 0.0000 -12.1920,
		 7.9248 0.0000 -9.1440,
		 4.5720 0.0000 -9.1440,
		 4.5720 0.0000 -12.1920,
		 4.5720 1.9941 -9.1440,
		 4.5720 1.9941 -12.1920,
		 4.5720 0.0002 -11.3157,
		 4.5720 1.9941 -11.3157,
		 4.5720 0.0002 -12.1920,
		 4.5720 0.0002 -12.1920,
		 4.5720 0.0002 -9.1440,
		 4.5720 1.9941 -10.0837,
		 4.5720 0.0002 -10.0837,
		 4.5720 0.0002 -9.1440,
		 4.5720 1.9941 -9.1440
		]
	} #Coordinate3
	Material {
		ambientColor      0.2500 0.2500 0.2500  #ambientColor
		diffuseColor      1.0000 1.0000 1.0000  #diffuseColor
		transparency      0.0000                #transparency
	} #Material

	IndexedFaceSet {
		coordIndex [ 
		 3, 2, 1, 0,-1,
		 1, 0, 4, 5,-1,
		]
	} #IndexedFaceSet
	Texture2 {
		filename "TXTR0006.JPG"  #filename
		wrapS REPEAT 
		wrapT REPEAT 
	} #Texture2

	IndexedFaceSet {
		coordIndex [ 
		 5, 4, 0, 1,-1,
		]
	} #IndexedFaceSet
	Texture2 {
		filename ""  #filename
		wrapS REPEAT 
		wrapT REPEAT 
	} #Texture2

	IndexedFaceSet {
		coordIndex [ 
		 2, 1, 5, 6,-1,
		]
	} #IndexedFaceSet
	Texture2 {
		filename "TXTR0006.JPG"  #filename
		wrapS REPEAT 
		wrapT REPEAT 
	} #Texture2

	IndexedFaceSet {
		coordIndex [ 
		 6, 5, 1, 2,-1,
		 8, 2, 3, 9,-1,
		 10, 11, 9, 12,-1,
		 13, 7, 6, 14,-1,
		 15, 16, 17, 18,-1,
		]
	} #IndexedFaceSet
	Texture2 {
		filename ""  #filename
		wrapS REPEAT 
		wrapT REPEAT 
	} #Texture2

	IndexedFaceSet {
		coordIndex [ 
		 4, 5, 6, 7,-1,
		]
	} #IndexedFaceSet
	Separator { #Polyhedron
		WWWAnchor {
			name "http://www.echelonco.com/bathroom.html"
			map NONE
			USE COORD58
			IndexedFaceSet {
				coordIndex [ 
				 0, 3, 7, 4,-1,
				]
			} #IndexedFaceSet
			Texture2 {
				filename "TXTR0006.JPG"  #filename
				wrapS REPEAT 
				wrapT REPEAT 
			} #Texture2

			IndexedFaceSet {
				coordIndex [ 
				 4, 7, 3, 0,-1,
				]
			} #IndexedFaceSet
		} #WWWAnchor
	} #Polyhedron
} #Polyhedron
Separator { #Polyhedron
	DEF COORD59 Coordinate3 {
		point [
		 4.5720 2.4384 -6.0960,
		 4.5720 4.2672 -9.1440,
		 4.5720 2.4384 -12.1920,
		 -3.0480 2.4384 -6.0960,
		 -3.0480 4.2672 -9.1440,
		 -3.0480 2.4384 -12.1920,
		 4.5720 4.2672 -9.1440,
		 4.5720 2.4384 -9.1440
		]
	} #Coordinate3
	Material {
		ambientColor      0.2500 0.0000 0.0000  #ambientColor
		diffuseColor      1.0000 0.0000 0.0000  #diffuseColor
		transparency      0.0000                #transparency
	} #Material

	IndexedFaceSet {
		coordIndex [ 
		 6, 7, 0,-1,
		 2, 1, 0,-1,
		 3, 5, 2, 0,-1,
		 1, 0, 3, 4,-1,
		 4, 3, 0, 1,-1,
		 2, 1, 4, 5,-1,
		 5, 4, 1, 2,-1,
		 5, 4, 3,-1,
		 3, 4, 5,-1,
		]
	} #IndexedFaceSet
} #Polyhedron
Separator { #Polyhedron
	DEF COORD60 Coordinate3 {
		point [
		 7.9248 2.4384 -9.1440,
		 7.9248 4.2672 -9.1440,
		 7.9248 2.4384 -12.1920,
		 4.5720 2.4384 -9.1440,
		 4.5720 4.2672 -9.1440,
		 4.5720 2.4384 -12.1920
		]
	} #Coordinate3
	Material {
		ambientColor      0.2500 0.0000 0.0000  #ambientColor
		diffuseColor      1.0000 0.0000 0.0000  #diffuseColor
		transparency      0.0000                #transparency
	} #Material

	IndexedFaceSet {
		coordIndex [ 
		 0, 1, 2,-1,
		 2, 1, 0,-1,
		 3, 5, 2, 0,-1,
		 1, 0, 3, 4,-1,
		 4, 3, 0, 1,-1,
		 2, 1, 4, 5,-1,
		 5, 4, 1, 2,-1,
		 3, 4, 5,-1,
		]
	} #IndexedFaceSet
} #Polyhedron
Separator { #Polyhedron
	DEF COORD61 Coordinate3 {
		point [
		 0.3683 0.6350 -0.4572,
		 0.3683 0.6350 -0.3048,
		 0.2159 0.6350 -0.3048,
		 0.2159 0.6350 -0.4572,
		 0.3683 0.0000 -0.4572,
		 0.3683 0.0000 -0.3048,
		 0.2159 0.0000 -0.3048,
		 0.2159 0.0000 -0.4572
		]
	} #Coordinate3
	Material {
		ambientColor      0.2500 0.2500 0.2500  #ambientColor
		diffuseColor      1.0000 1.0000 1.0000  #diffuseColor
		transparency      0.0000                #transparency
	} #Material

	IndexedFaceSet {
		coordIndex [ 
		 3, 2, 1, 0,-1,
		 0, 3, 7, 4,-1,
		 4, 7, 3, 0,-1,
		 1, 0, 4, 5,-1,
		 5, 4, 0, 1,-1,
		 2, 1, 5, 6,-1,
		 6, 5, 1, 2,-1,
		 3, 2, 6, 7,-1,
		 7, 6, 2, 3,-1,
		 4, 5, 6, 7,-1,
		]
	} #IndexedFaceSet
} #Polyhedron
Separator { #Polyhedron
	DEF COORD62 Coordinate3 {
		point [
		 0.1125 0.6323 -0.8375,
		 0.4717 0.6323 -0.8375,
		 0.5795 0.9556 -0.8375,
		 0.2921 1.1711 -0.8375,
		 0.0047 0.9556 -0.8375,
		 0.1125 0.6323 0.0246,
		 0.4717 0.6323 0.0246,
		 0.5795 0.9556 0.0246,
		 0.2921 1.1711 0.0246,
		 0.0047 0.9556 0.0246,
		 0.4717 0.6323 -0.4572,
		 0.1125 0.6323 -0.4572,
		 0.4717 0.6323 -0.3048,
		 0.4717 0.6323 -0.4572,
		 0.3683 0.6350 -0.4572,
		 0.3683 0.6350 -0.3048,
		 0.1125 0.6323 -0.3048,
		 0.4717 0.6323 -0.3048,
		 0.1125 0.6323 -0.4572,
		 0.2159 0.6350 -0.3048,
		 0.2159 0.6350 -0.4572
		]
	} #Coordinate3
	Material {
		ambientColor      0.0000 0.0000 0.2500  #ambientColor
		diffuseColor      0.0000 0.0000 1.0000  #diffuseColor
		transparency      0.0000                #transparency
	} #Material

	Texture2 {
		filename ""  #filename
		wrapS REPEAT 
		wrapT REPEAT 
	} #Texture2

	IndexedFaceSet {
		coordIndex [ 
		 0, 1, 2, 3, 4,-1,
		 4, 3, 2, 1, 0,-1,
		 0, 4, 9, 5,-1,
		 5, 9, 4, 0,-1,
		 10, 1, 0, 11,-1,
		 12, 13, 14, 15,-1,
		 16, 5, 6, 17,-1,
		 18, 16, 19, 20,-1,
		 6, 5, 0, 1,-1,
		 2, 1, 6, 7,-1,
		 7, 6, 1, 2,-1,
		 3, 2, 7, 8,-1,
		 8, 7, 2, 3,-1,
		 4, 3, 8, 9,-1,
		 9, 8, 3, 4,-1,
		 9, 8, 7, 6, 5,-1,
		 5, 6, 7, 8, 9,-1,
		]
	} #IndexedFaceSet
} #Polyhedron
}
