#VRML V1.0 ascii

Separator {
	Info { string "Virtus 3D Website Builder 1.0
	VRML Export Filter
	Virtus Corporation
	114 MacKenan Drive, Suite 100
	Cary, NC 27511
	919-467-9700"}

	DEF BackgroundColor Info{  # Sky color
		string " 0.3 0.8 1.0 "
	}

	DirectionalLight {
		on         TRUE          # SFBool
		intensity  1.0           # SFFloat
		color      0.4 0.4 0.4   # SFColor
		direction  0 0 0   # SFVec3f
	}

	DirectionalLight {
		on         TRUE          # SFBool
		intensity  1.0           # SFFloat
		color      0.5 0.5 0.5   # SFColor
		direction  34 -247 -57   # SFVec3f
	}

	DirectionalLight {
		on         TRUE          # SFBool
		intensity  1.0           # SFFloat
		color      0.4 0.4 0.4   # SFColor
		direction  -209 -104 105   # SFVec3f
	}

	DirectionalLight {
		on         TRUE          # SFBool
		intensity  1.0           # SFFloat
		color      0.5 0.5 0.5   # SFColor
		direction  5 119 -226   # SFVec3f
	}

	PerspectiveCamera {
		position 1.5494 -0.9652 21.1836          #SFVec3f 
		orientation 1 0 0  0.0491     #SFRotation 
		orientation 0 1 0  0.0982     #SFRotation 
		focalDistance  5            #SFFloat 
		heightAngle 2.1726 
	}

	ShapeHints {
		vertexOrdering	CLOCKWISE
		shapeType	SOLID
	}

	Transform {
		translation 0 0 0
		scaleFactor 1.0 1.0 1.0
	}

Separator { #Polyhedron
	DEF COORD0 Coordinate3 {
		point [
		 -0.1084 4.2687 0.1424,
		 4.2021 -1.8273 -4.1682,
		 5.9876 -1.8273 0.1424,
		 4.2021 -1.8273 4.4529,
		 -0.1084 -1.8273 6.2384,
		 -4.4190 -1.8273 4.4529,
		 -6.2044 -1.8273 0.1424,
		 -4.4190 -1.8273 -4.1682,
		 -0.1084 -1.8273 -5.9536,
		 -0.1084 -7.9233 0.1424
		]
	} #Coordinate3
	]
} #IndexedFaceSet
} #Polyhedron
Separator { #Polyhedron
DEF COORD1 Coordinate3 {
	point [
	 -2.1336 0.5369 -2.8006,
	 -2.1336 -1.8184 -3.4317,
	 1.8288 -1.8184 -3.4317,
	 1.8288 0.5369 -2.8006,
	 -2.1336 0.4580 -2.5062,
	 -2.1336 -1.8973 -3.1373,
	 1.8288 -1.8973 -3.1373,
	 1.8288 0.4580 -2.5062,
	 -2.1336 0.3108 -2.5457,
	 1.8288 0.3108 -2.5457,
	 -2.1336 -1.7500 -3.0978,
	 -2.1336 0.3108 -2.5457,
	 -1.9812 0.3108 -2.5457,
	 -1.9812 -1.7500 -3.0978,
	 1.8288 -1.7500 -3.0978,
	 -2.1336 -1.7500 -3.0978,
	 1.8288 0.3108 -2.5457,
	 1.6764 -1.7500 -3.0978,
	 1.6764 0.3108 -2.5457,
	 -1.9812 0.1636 -2.5851,
	 1.6764 0.1636 -2.5851,
	 -1.9812 -0.8668 -2.8612,
	 -1.9812 0.1636 -2.5851,
	 -1.8288 0.1636 -2.5851,
	 -1.8288 -0.8668 -2.8612,
	 -1.9812 -0.9650 -2.8875,
	 -1.9812 -0.8668 -2.8612,
	 1.6764 -0.8668 -2.8612,
	 1.6764 -0.9650 -2.8875,
	 -1.9812 -1.1122 -2.9269,
	 -1.9812 -0.9650 -2.8875,
	 -1.7272 -0.9650 -2.8875,
	 -1.7272 -1.1122 -2.9269,
	 -1.3208 -1.0140 -2.9006,
	 -1.3208 -0.9650 -2.8875,
	 -0.7620 -0.9650 -2.8875,
	 -0.7620 -1.0140 -2.9006,
	 -0.2032 -1.0140 -2.9006,
	 -0.2032 -0.9650 -2.8875,
	 0.4572 -0.9650 -2.8875,
	 0.4572 -1.0140 -2.9006,
	 0.8636 -1.0140 -2.9006,
	 0.8636 -0.9650 -2.8875,
	 1.4224 -0.9650 -2.8875,
	 1.4224 -1.0140 -2.9006,
	 1.6764 -0.9650 -2.8875,
	 1.6764 -1.0140 -2.9006,
	 1.5748 -1.0140 -2.9006,
	 1.5748 -0.9650 -2.8875,
	 -1.3208 -1.0631 -2.9138,
	 -1.3208 -1.0140 -2.9006,
	 -0.3556 -1.0140 -2.9006,
	 -0.3556 -1.0631 -2.9138,
	 -0.2032 -1.0631 -2.9138,
	 -0.2032 -1.0140 -2.9006,
	 0.0508 -1.0140 -2.9006,
	 0.0508 -1.0631 -2.9138,
	 0.4572 -1.0140 -2.9006,
	 0.4572 -1.0631 -2.9138,
	 0.3556 -1.0631 -2.9138,
	 0.3556 -1.0140 -2.9006,
	 0.8636 -1.0631 -2.9138,
	 0.8636 -1.0140 -2.9006,
	 0.9144 -1.0140 -2.9006,
	 0.9144 -1.0631 -2.9138,
	 1.1684 -1.0631 -2.9138,
	 1.1684 -1.0140 -2.9006,
	 1.4224 -1.0140 -2.9006,
	 1.4224 -1.0631 -2.9138,
	 1.6764 -1.0140 -2.9006,
	 1.6764 -1.0631 -2.9138,
	 1.5748 -1.0631 -2.9138,
	 1.5748 -1.0140 -2.9006,
	 -1.3208 -1.1122 -2.9269,
	 -0.8128 -1.0631 -2.9138,
	 -0.9354 -1.1122 -2.9269,
	 -0.6902 -1.1122 -2.9269,
	 -0.8128 -1.0631 -2.9138,
	 -0.3556 -1.0631 -2.9138,
	 -0.3556 -1.1122 -2.9269,
	 -0.2032 -1.1122 -2.9269,
	 -0.2032 -1.0631 -2.9138,
	 0.0508 -1.0631 -2.9138,
	 0.0508 -1.1122 -2.9269,
	 0.4572 -1.0631 -2.9138,
	 0.4572 -1.1122 -2.9269,
	 0.3556 -1.1122 -2.9269,
	 0.3556 -1.0631 -2.9138,
	 0.8636 -1.1122 -2.9269,
	 0.8636 -1.0631 -2.9138,
	 0.9144 -1.0631 -2.9138,
	 0.9144 -1.1122 -2.9269,
	 1.1684 -1.1122 -2.9269,
	 1.1684 -1.0631 -2.9138,
	 1.4224 -1.0631 -2.9138,
	 1.4224 -1.1122 -2.9269,
	 1.6764 -1.0631 -2.9138,
	 1.6764 -1.1122 -2.9269,
	 1.5748 -1.1122 -2.9269,
	 1.5748 -1.0631 -2.9138,
	 -1.9812 -1.4556 -3.0189,
	 -1.9812 -1.1122 -2.9269,
	 -1.8796 -1.1122 -2.9269,
	 -1.8796 -1.4556 -3.0189,
	 -1.9812 -1.6519 -3.0715,
	 -1.9812 -1.4556 -3.0189,
	 -1.7272 -1.4556 -3.0189,
	 -1.7272 -1.6519 -3.0715,
	 1.6764 -1.6519 -3.0715,
	 -1.9812 -1.6519 -3.0715,
	 -1.1684 -1.4819 -3.0260,
	 -1.1684 -1.4556 -3.0189,
	 -1.0037 -1.4556 -3.0189,
	 -0.9924 -1.4819 -3.0260,
	 -1.1684 -1.5538 -3.0452,
	 -0.8128 -1.5538 -3.0452,
	 -1.1684 -1.6519 -3.0715,
	 -1.1684 -1.5538 -3.0452,
	 -1.1176 -1.5538 -3.0452,
	 -1.1176 -1.6519 -3.0715,
	 -0.6096 -1.5538 -3.0452,
	 -0.6096 -1.6519 -3.0715,
	 -0.9652 -1.6519 -3.0715,
	 -0.9652 -1.5538 -3.0452,
	 0.1524 -1.6519 -3.0715,
	 0.1524 -1.5538 -3.0452,
	 0.2540 -1.5538 -3.0452,
	 0.2540 -1.6519 -3.0715,
	 0.9144 -1.5538 -3.0452,
	 0.9144 -1.6519 -3.0715,
	 0.4064 -1.6519 -3.0715,
	 0.4064 -1.5538 -3.0452,
	 1.6764 -1.5538 -3.0452,
	 1.5748 -1.6519 -3.0715,
	 1.5748 -1.5538 -3.0452,
	 -0.6332 -1.4819 -3.0260,
	 -0.3556 -1.4819 -3.0260,
	 -0.3556 -1.5538 -3.0452,
	 0.1524 -1.5538 -3.0452,
	 0.1524 -1.4819 -3.0260,
	 0.2540 -1.4819 -3.0260,
	 0.2540 -1.5538 -3.0452,
	 0.5080 -1.4819 -3.0260,
	 0.5080 -1.5538 -3.0452,
	 0.4064 -1.5538 -3.0452,
	 0.4064 -1.4819 -3.0260,
	 0.8636 -1.5538 -3.0452,
	 0.8636 -1.4819 -3.0260,
	 0.9144 -1.4819 -3.0260,
	 0.9144 -1.5538 -3.0452,
	 1.1684 -1.5538 -3.0452,
	 1.1684 -1.4819 -3.0260,
	 1.4224 -1.4819 -3.0260,
	 1.4224 -1.5538 -3.0452,
	 1.6764 -1.4819 -3.0260,
	 1.5748 -1.5538 -3.0452,
	 1.5748 -1.4819 -3.0260,
	 -0.6332 -1.4819 -3.0260,
	 -0.6219 -1.4556 -3.0189,
	 -0.3556 -1.4556 -3.0189,
	 -0.3556 -1.4819 -3.0260,
	 0.1524 -1.4819 -3.0260,
	 0.1524 -1.4556 -3.0189,
	 0.2540 -1.4556 -3.0189,
	 0.2540 -1.4819 -3.0260,
	 0.5080 -1.4556 -3.0189,
	 0.5080 -1.4819 -3.0260,
	 0.4064 -1.4819 -3.0260,
	 0.4064 -1.4556 -3.0189,
	 0.8636 -1.4819 -3.0260,
	 0.8636 -1.4556 -3.0189,
	 0.9144 -1.4556 -3.0189,
	 0.9144 -1.4819 -3.0260,
	 1.1684 -1.4819 -3.0260,
	 1.1684 -1.4556 -3.0189,
	 1.4224 -1.4556 -3.0189,
	 1.4224 -1.4819 -3.0260,
	 1.6764 -1.4556 -3.0189,
	 1.5748 -1.4819 -3.0260,
	 1.5748 -1.4556 -3.0189,
	 -1.4224 -1.1350 -2.9330,
	 -1.4224 -1.1122 -2.9269,
	 -1.2700 -1.1122 -2.9269,
	 -1.2700 -1.1350 -2.9330,
	 -0.9354 -1.1122 -2.9269,
	 -0.9924 -1.1350 -2.9330,
	 -1.1684 -1.1350 -2.9330,
	 -1.1684 -1.1122 -2.9269,
	 -1.4224 -1.3084 -2.9795,
	 -1.4224 -1.1350 -2.9330,
	 -1.2700 -1.1350 -2.9330,
	 -1.2700 -1.3084 -2.9795,
	 -1.0668 -1.3084 -2.9795,
	 -1.1684 -1.3084 -2.9795,
	 -1.1684 -1.1350 -2.9330,
	 -1.4224 -1.4556 -3.0189,
	 -1.0037 -1.4556 -3.0189,
	 -0.6219 -1.4556 -3.0189,
	 -0.5588 -1.3084 -2.9795,
	 -0.3556 -1.3084 -2.9795,
	 -0.3556 -1.4556 -3.0189,
	 0.1524 -1.4066 -3.0058,
	 0.1524 -1.3084 -2.9795,
	 0.9144 -1.3084 -2.9795,
	 0.9144 -1.4066 -3.0058,
	 1.1684 -1.4066 -3.0058,
	 1.1684 -1.3084 -2.9795,
	 1.2192 -1.3084 -2.9795,
	 1.2192 -1.4066 -3.0058,
	 1.6764 -1.3084 -2.9795,
	 1.6764 -1.4066 -3.0058,
	 1.5748 -1.4066 -3.0058,
	 1.5748 -1.3084 -2.9795,
	 0.1524 -1.4556 -3.0189,
	 0.1524 -1.4066 -3.0058,
	 0.5080 -1.4066 -3.0058,
	 0.5080 -1.4556 -3.0189,
	 0.8636 -1.4556 -3.0189,
	 0.8636 -1.4066 -3.0058,
	 0.9144 -1.4066 -3.0058,
	 0.9144 -1.4556 -3.0189,
	 1.1684 -1.4556 -3.0189,
	 1.1684 -1.4066 -3.0058,
	 1.4224 -1.4066 -3.0058,
	 1.4224 -1.4556 -3.0189,
	 1.6764 -1.4066 -3.0058,
	 1.5748 -1.4556 -3.0189,
	 1.5748 -1.4066 -3.0058,
	 -0.5588 -1.3084 -2.9795,
	 -0.6332 -1.1350 -2.9330,
	 -0.5080 -1.1350 -2.9330,
	 -0.5080 -1.3084 -2.9795,
	 -0.3556 -1.1350 -2.9330,
	 -0.3556 -1.3084 -2.9795,
	 -0.4064 -1.3084 -2.9795,
	 -0.4064 -1.1350 -2.9330,
	 -0.2032 -1.2103 -2.9532,
	 -0.2032 -1.1350 -2.9330,
	 0.0508 -1.1350 -2.9330,
	 0.0508 -1.2103 -2.9532,
	 0.9144 -1.1350 -2.9330,
	 0.9144 -1.2103 -2.9532,
	 0.3556 -1.2103 -2.9532,
	 0.3556 -1.1350 -2.9330,
	 1.1684 -1.2103 -2.9532,
	 1.1684 -1.1350 -2.9330,
	 1.4224 -1.1350 -2.9330,
	 1.4224 -1.2103 -2.9532,
	 1.6764 -1.1350 -2.9330,
	 1.6764 -1.2103 -2.9532,
	 1.5748 -1.2103 -2.9532,
	 1.5748 -1.1350 -2.9330,
	 -0.2032 -1.2594 -2.9663,
	 -0.2032 -1.2103 -2.9532,
	 0.0508 -1.2103 -2.9532,
	 0.0508 -1.2594 -2.9663,
	 0.4572 -1.2103 -2.9532,
	 0.4572 -1.2594 -2.9663,
	 0.3556 -1.2594 -2.9663,
	 0.3556 -1.2103 -2.9532,
	 0.8636 -1.2594 -2.9663,
	 0.8636 -1.2103 -2.9532,
	 0.9144 -1.2103 -2.9532,
	 0.9144 -1.2594 -2.9663,
	 1.1684 -1.2594 -2.9663,
	 1.1684 -1.2103 -2.9532,
	 1.4224 -1.2103 -2.9532,
	 1.4224 -1.2594 -2.9663,
	 1.6764 -1.2103 -2.9532,
	 1.6764 -1.2594 -2.9663,
	 1.5748 -1.2594 -2.9663,
	 1.5748 -1.2103 -2.9532,
	 0.1524 -1.3084 -2.9795,
	 0.1524 -1.2594 -2.9663,
	 0.4572 -1.2594 -2.9663,
	 0.4572 -1.3084 -2.9795,
	 0.8636 -1.3084 -2.9795,
	 0.8636 -1.2594 -2.9663,
	 0.9144 -1.2594 -2.9663,
	 0.9144 -1.3084 -2.9795,
	 1.1684 -1.3084 -2.9795,
	 1.1684 -1.2594 -2.9663,
	 1.2192 -1.2594 -2.9663,
	 1.2192 -1.3084 -2.9795,
	 1.6764 -1.2594 -2.9663,
	 1.5748 -1.3084 -2.9795,
	 1.5748 -1.2594 -2.9663,
	 -0.6332 -1.1350 -2.9330,
	 -0.6902 -1.1122 -2.9269,
	 -0.5080 -1.1122 -2.9269,
	 -0.5080 -1.1350 -2.9330,
	 -0.3556 -1.1122 -2.9269,
	 -0.3556 -1.1350 -2.9330,
	 -0.4064 -1.1350 -2.9330,
	 -0.4064 -1.1122 -2.9269,
	 -0.2032 -1.1350 -2.9330,
	 -0.2032 -1.1122 -2.9269,
	 0.0508 -1.1122 -2.9269,
	 0.0508 -1.1350 -2.9330,
	 0.9144 -1.1122 -2.9269,
	 0.9144 -1.1350 -2.9330,
	 0.3556 -1.1350 -2.9330,
	 0.3556 -1.1122 -2.9269,
	 1.1684 -1.1350 -2.9330,
	 1.1684 -1.1122 -2.9269,
	 1.4224 -1.1122 -2.9269,
	 1.4224 -1.1350 -2.9330,
	 1.6764 -1.1122 -2.9269,
	 1.5748 -1.1350 -2.9330,
	 1.5748 -1.1122 -2.9269,
	 -0.1524 0.0164 -2.6245,
	 -0.1524 0.1636 -2.5851,
	 0.0000 0.1636 -2.5851,
	 0.0000 0.0164 -2.6245,
	 -0.1524 -0.1308 -2.6640,
	 -0.1524 0.0164 -2.6245,
	 1.6764 0.0164 -2.6245,
	 1.6764 -0.1308 -2.6640,
	 -0.1524 -0.2780 -2.7034,
	 -0.1524 -0.1308 -2.6640,
	 0.0000 -0.1308 -2.6640,
	 0.0000 -0.2780 -2.7034,
	 -0.1524 -0.4252 -2.7429,
	 -0.1524 -0.2780 -2.7034,
	 1.6764 -0.2780 -2.7034,
	 1.6764 -0.4252 -2.7429,
	 -0.1524 -0.5724 -2.7823,
	 -0.1524 -0.4252 -2.7429,
	 0.0000 -0.4252 -2.7429,
	 0.0000 -0.5724 -2.7823,
	 -0.1524 -0.7196 -2.8217,
	 -0.1524 -0.5724 -2.7823,
	 1.6764 -0.5724 -2.7823,
	 1.6764 -0.7196 -2.8217,
	 -0.1524 -0.8668 -2.8612,
	 -0.1524 -0.7196 -2.8217,
	 0.0000 -0.7196 -2.8217,
	 0.0000 -0.8668 -2.8612,
	 0.4572 -0.8668 -2.8612,
	 0.4572 -0.7196 -2.8217,
	 0.6096 -0.7196 -2.8217,
	 0.6096 -0.8668 -2.8612,
	 1.6764 -0.7196 -2.8217,
	 1.5240 -0.8668 -2.8612,
	 1.5240 -0.7196 -2.8217,
	 1.2192 -0.5724 -2.7823,
	 1.2192 -0.4252 -2.7429,
	 1.3716 -0.4252 -2.7429,
	 1.3716 -0.5724 -2.7823,
	 1.6764 -0.4252 -2.7429,
	 1.5240 -0.5724 -2.7823,
	 1.5240 -0.4252 -2.7429,
	 0.6096 -0.2780 -2.7034,
	 0.6096 -0.1308 -2.6640,
	 0.9144 -0.1308 -2.6640,
	 0.9144 -0.2780 -2.7034,
	 1.6764 -0.1308 -2.6640,
	 1.5240 -0.2780 -2.7034,
	 1.5240 -0.1308 -2.6640,
	 1.6764 0.1636 -2.5851,
	 1.5240 0.0164 -2.6245,
	 1.5240 0.1636 -2.5851,
	 -1.8288 0.0164 -2.6245,
	 -0.1524 0.1636 -2.5851,
	 -0.1524 0.0164 -2.6245,
	 -1.8288 -0.7686 -2.8349,
	 -1.8288 0.0164 -2.6245,
	 -1.6764 0.0164 -2.6245,
	 -1.6764 -0.7686 -2.8349,
	 -1.8288 -0.7687 -2.8349,
	 -1.8288 -0.7686 -2.8349,
	 -0.6604 -0.7686 -2.8349,
	 -0.6604 -0.7687 -2.8349,
	 -0.1524 -0.7687 -2.8349,
	 -1.8288 -0.7687 -2.8349,
	 -0.1524 -0.7686 -2.8349,
	 -0.5588 -0.7687 -2.8349,
	 -0.5588 -0.7686 -2.8349,
	 -1.5240 -0.1308 -2.6640,
	 -1.5240 0.0164 -2.6245,
	 -0.1524 0.0164 -2.6245,
	 -0.1524 -0.1308 -2.6640,
	 -1.5240 -0.2780 -2.7034,
	 -1.5240 -0.1308 -2.6640,
	 -1.0668 -0.1308 -2.6640,
	 -1.0668 -0.2780 -2.7034,
	 -0.1524 -0.1308 -2.6640,
	 -0.1524 -0.2780 -2.7034,
	 -0.7620 -0.2780 -2.7034,
	 -0.7620 -0.1308 -2.6640,
	 -1.5240 -0.7686 -2.8349,
	 -1.5240 -0.2780 -2.7034,
	 -1.3716 -0.2780 -2.7034,
	 -1.3716 -0.7686 -2.8349,
	 -1.2192 -0.7686 -2.8349,
	 -1.2192 -0.2780 -2.7034,
	 -1.0668 -0.2780 -2.7034,
	 -1.0668 -0.7686 -2.8349,
	 -0.7620 -0.3271 -2.7166,
	 -0.7620 -0.2780 -2.7034,
	 -0.1524 -0.2780 -2.7034,
	 -0.1524 -0.3271 -2.7166,
	 -0.7620 -0.4252 -2.7429,
	 -0.7620 -0.3271 -2.7166,
	 -0.6604 -0.3271 -2.7166,
	 -0.6604 -0.4252 -2.7429,
	 -0.1524 -0.3271 -2.7166,
	 -0.1524 -0.4252 -2.7429,
	 -0.5588 -0.4252 -2.7429,
	 -0.5588 -0.3271 -2.7166,
	 -0.7620 -0.7686 -2.8349,
	 -0.7620 -0.4252 -2.7429,
	 -0.6604 -0.4252 -2.7429,
	 -0.6604 -0.7686 -2.8349,
	 -0.4572 -0.4252 -2.7429,
	 -0.4572 -0.7686 -2.8349,
	 -0.5588 -0.7686 -2.8349,
	 -0.5588 -0.4252 -2.7429,
	 -0.1524 -0.4252 -2.7429,
	 -0.3048 -0.7686 -2.8349,
	 -0.3048 -0.4252 -2.7429,
	 0.6096 -0.1308 -2.6640,
	 1.2192 -0.4252 -2.7429,
	 0.4572 -0.7196 -2.8217,
	 -1.2192 -0.2780 -2.7034,
	 -1.4224 -1.1122 -2.9269,
	 -1.3208 -0.9650 -2.8875,
	 -1.1684 -1.4556 -3.0189,
	 -0.2032 -1.0140 -2.9006,
	 -0.2032 -1.6519 -3.0715,
	 -0.3556 -1.6519 -3.0715,
	 0.1524 -1.2594 -2.9663,
	 -0.2032 -1.6519 -3.0715,
	 -0.2032 -1.2594 -2.9663,
	 -0.3556 -1.5538 -3.0452,
	 -0.3556 -1.6519 -3.0715,
	 -0.2032 -0.9650 -2.8875,
	 0.8636 -0.9650 -2.8875,
	 0.8636 -1.2103 -2.9532,
	 0.8636 -1.4066 -3.0058,
	 1.1684 -1.0140 -2.9006,
	 1.1684 -1.6519 -3.0715,
	 1.4224 -1.6519 -3.0715,
	 1.4224 -1.2594 -2.9663,
	 1.4224 -1.4066 -3.0058,
	 1.4224 -1.5538 -3.0452,
	 1.4224 -1.6519 -3.0715,
	 1.1684 -1.6519 -3.0715,
	 1.1684 -1.5538 -3.0452,
	 1.8288 0.3108 -2.5457,
	 -2.1336 0.3108 -2.5457,
	 -2.1336 0.3108 -2.5457,
	 -2.1336 -1.7500 -3.0978,
	 -2.1336 -1.7500 -3.0978,
	 1.8288 -1.7500 -3.0978,
	 1.8288 0.3108 -2.5457,
	 1.6764 0.1636 -2.5851,
	 -1.9812 0.1636 -2.5851,
	 -1.9812 0.1636 -2.5851,
	 -1.9812 -0.8668 -2.8612,
	 1.6764 -0.9650 -2.8875,
	 1.6764 -0.8668 -2.8612,
	 -1.9812 -0.8668 -2.8612,
	 -1.9812 -0.9650 -2.8875,
	 -1.9812 -0.9650 -2.8875,
	 -1.9812 -1.1122 -2.9269,
	 -1.3208 -0.9650 -2.8875,
	 -1.3208 -1.0140 -2.9006,
	 0.4572 -1.0140 -2.9006,
	 -0.2032 -0.9650 -2.8875,
	 1.4224 -1.0140 -2.9006,
	 0.8636 -0.9650 -2.8875,
	 0.8636 -1.0140 -2.9006,
	 1.5748 -1.0140 -2.9006,
	 1.6764 -1.0140 -2.9006,
	 1.6764 -0.9650 -2.8875,
	 -0.3556 -1.0631 -2.9138,
	 -1.3208 -1.0140 -2.9006,
	 -1.3208 -1.0631 -2.9138,
	 0.0508 -1.0631 -2.9138,
	 -0.2032 -1.0140 -2.9006,
	 -0.2032 -1.0631 -2.9138,
	 0.3556 -1.0631 -2.9138,
	 0.4572 -1.0631 -2.9138,
	 0.4572 -1.0140 -2.9006,
	 0.9144 -1.0631 -2.9138,
	 0.8636 -1.0140 -2.9006,
	 0.8636 -1.0631 -2.9138,
	 1.4224 -1.0631 -2.9138,
	 1.4224 -1.0140 -2.9006,
	 1.1684 -1.0140 -2.9006,
	 1.1684 -1.0631 -2.9138,
	 1.5748 -1.0140 -2.9006,
	 1.5748 -1.0631 -2.9138,
	 1.6764 -1.0631 -2.9138,
	 1.6764 -1.0140 -2.9006,
	 -0.9354 -1.1122 -2.9269,
	 -0.3556 -1.1122 -2.9269,
	 -0.3556 -1.0631 -2.9138,
	 -0.8128 -1.0631 -2.9138,
	 -0.6902 -1.1122 -2.9269,
	 0.0508 -1.1122 -2.9269,
	 0.0508 -1.0631 -2.9138,
	 -0.2032 -1.0631 -2.9138,
	 -0.2032 -1.1122 -2.9269,
	 0.3556 -1.0631 -2.9138,
	 0.3556 -1.1122 -2.9269,
	 0.4572 -1.0631 -2.9138,
	 0.9144 -1.1122 -2.9269,
	 0.9144 -1.0631 -2.9138,
	 0.8636 -1.0631 -2.9138,
	 1.4224 -1.1122 -2.9269,
	 1.4224 -1.0631 -2.9138,
	 1.1684 -1.0631 -2.9138,
	 1.1684 -1.1122 -2.9269,
	 1.5748 -1.0631 -2.9138,
	 1.5748 -1.1122 -2.9269,
	 1.6764 -1.1122 -2.9269,
	 1.6764 -1.0631 -2.9138,
	 -1.9812 -1.1122 -2.9269,
	 -1.9812 -1.4556 -3.0189,
	 -1.9812 -1.4556 -3.0189,
	 -1.9812 -1.6519 -3.0715,
	 -1.9812 -1.6519 -3.0715,
	 1.6764 -1.6519 -3.0715,
	 -1.0037 -1.4556 -3.0189,
	 -1.1684 -1.4556 -3.0189,
	 -1.1684 -1.4819 -3.0260,
	 -1.1684 -1.5538 -3.0452,
	 -1.1684 -1.5538 -3.0452,
	 0.2540 -1.5538 -3.0452,
	 0.1524 -1.5538 -3.0452,
	 0.4064 -1.5538 -3.0452,
	 0.9144 -1.5538 -3.0452,
	 1.5748 -1.5538 -3.0452,
	 1.6764 -1.5538 -3.0452,
	 -0.3556 -1.5538 -3.0452,
	 -0.3556 -1.4819 -3.0260,
	 -0.6332 -1.4819 -3.0260,
	 0.2540 -1.5538 -3.0452,
	 0.2540 -1.4819 -3.0260,
	 0.1524 -1.4819 -3.0260,
	 0.1524 -1.5538 -3.0452,
	 0.4064 -1.4819 -3.0260,
	 0.4064 -1.5538 -3.0452,
	 0.5080 -1.4819 -3.0260,
	 0.9144 -1.5538 -3.0452,
	 0.9144 -1.4819 -3.0260,
	 0.8636 -1.4819 -3.0260,
	 1.4224 -1.5538 -3.0452,
	 1.4224 -1.4819 -3.0260,
	 1.1684 -1.4819 -3.0260,
	 1.1684 -1.5538 -3.0452,
	 1.5748 -1.4819 -3.0260,
	 1.5748 -1.5538 -3.0452,
	 1.6764 -1.4819 -3.0260,
	 -0.3556 -1.4819 -3.0260,
	 -0.3556 -1.4556 -3.0189,
	 -0.6219 -1.4556 -3.0189,
	 0.2540 -1.4819 -3.0260,
	 0.1524 -1.4556 -3.0189,
	 0.1524 -1.4819 -3.0260,
	 0.4064 -1.4819 -3.0260,
	 0.5080 -1.4819 -3.0260,
	 0.5080 -1.4556 -3.0189,
	 0.9144 -1.4819 -3.0260,
	 0.9144 -1.4556 -3.0189,
	 0.8636 -1.4556 -3.0189,
	 0.8636 -1.4819 -3.0260,
	 1.4224 -1.4819 -3.0260,
	 1.4224 -1.4556 -3.0189,
	 1.1684 -1.4556 -3.0189,
	 1.1684 -1.4819 -3.0260,
	 1.5748 -1.4556 -3.0189,
	 1.5748 -1.4819 -3.0260,
	 1.6764 -1.4556 -3.0189,
	 -1.2700 -1.1350 -2.9330,
	 -1.4224 -1.1122 -2.9269,
	 -1.4224 -1.1350 -2.9330,
	 -1.1684 -1.1350 -2.9330,
	 -0.9354 -1.1122 -2.9269,
	 -1.2700 -1.1350 -2.9330,
	 -1.4224 -1.1350 -2.9330,
	 -1.4224 -1.3084 -2.9795,
	 -1.1684 -1.1350 -2.9330,
	 -1.0037 -1.4556 -3.0189,
	 -0.3556 -1.4556 -3.0189,
	 -0.3556 -1.3084 -2.9795,
	 -0.5588 -1.3084 -2.9795,
	 -0.6219 -1.4556 -3.0189,
	 0.9144 -1.4066 -3.0058,
	 0.9144 -1.3084 -2.9795,
	 0.1524 -1.3084 -2.9795,
	 0.1524 -1.4066 -3.0058,
	 1.2192 -1.3084 -2.9795,
	 1.1684 -1.3084 -2.9795,
	 1.1684 -1.4066 -3.0058,
	 1.5748 -1.3084 -2.9795,
	 1.5748 -1.4066 -3.0058,
	 1.6764 -1.4066 -3.0058,
	 1.6764 -1.3084 -2.9795,
	 0.5080 -1.4556 -3.0189,
	 0.1524 -1.4066 -3.0058,
	 0.1524 -1.4556 -3.0189,
	 0.9144 -1.4556 -3.0189,
	 0.9144 -1.4066 -3.0058,
	 0.8636 -1.4066 -3.0058,
	 0.8636 -1.4556 -3.0189,
	 1.4224 -1.4556 -3.0189,
	 1.4224 -1.4066 -3.0058,
	 1.1684 -1.4066 -3.0058,
	 1.1684 -1.4556 -3.0189,
	 1.5748 -1.4066 -3.0058,
	 1.5748 -1.4556 -3.0189,
	 1.6764 -1.4066 -3.0058,
	 -0.5080 -1.1350 -2.9330,
	 -0.6332 -1.1350 -2.9330,
	 -0.4064 -1.1350 -2.9330,
	 -0.3556 -1.3084 -2.9795,
	 -0.3556 -1.1350 -2.9330,
	 0.0508 -1.2103 -2.9532,
	 0.0508 -1.1350 -2.9330,
	 -0.2032 -1.1350 -2.9330,
	 -0.2032 -1.2103 -2.9532,
	 0.3556 -1.1350 -2.9330,
	 0.3556 -1.2103 -2.9532,
	 0.9144 -1.2103 -2.9532,
	 0.9144 -1.1350 -2.9330,
	 1.4224 -1.2103 -2.9532,
	 1.4224 -1.1350 -2.9330,
	 1.1684 -1.1350 -2.9330,
	 1.1684 -1.2103 -2.9532,
	 1.5748 -1.1350 -2.9330,
	 1.5748 -1.2103 -2.9532,
	 1.6764 -1.2103 -2.9532,
	 1.6764 -1.1350 -2.9330,
	 0.0508 -1.2103 -2.9532,
	 -0.2032 -1.2103 -2.9532,
	 -0.2032 -1.2594 -2.9663,
	 0.3556 -1.2103 -2.9532,
	 0.4572 -1.2594 -2.9663,
	 0.9144 -1.2594 -2.9663,
	 0.9144 -1.2103 -2.9532,
	 0.8636 -1.2103 -2.9532,
	 0.8636 -1.2594 -2.9663,
	 1.4224 -1.2594 -2.9663,
	 1.4224 -1.2103 -2.9532,
	 1.1684 -1.2103 -2.9532,
	 1.1684 -1.2594 -2.9663,
	 1.5748 -1.2103 -2.9532,
	 1.5748 -1.2594 -2.9663,
	 1.6764 -1.2594 -2.9663,
	 1.6764 -1.2103 -2.9532,
	 0.4572 -1.2594 -2.9663,
	 0.1524 -1.2594 -2.9663,
	 0.1524 -1.3084 -2.9795,
	 0.9144 -1.3084 -2.9795,
	 0.9144 -1.2594 -2.9663,
	 0.8636 -1.2594 -2.9663,
	 1.2192 -1.3084 -2.9795,
	 1.1684 -1.2594 -2.9663,
	 1.1684 -1.3084 -2.9795,
	 1.5748 -1.2594 -2.9663,
	 1.5748 -1.3084 -2.9795,
	 1.6764 -1.2594 -2.9663,
	 -0.5080 -1.1350 -2.9330,
	 -0.6902 -1.1122 -2.9269,
	 -0.4064 -1.1350 -2.9330,
	 -0.3556 -1.1350 -2.9330,
	 -0.3556 -1.1122 -2.9269,
	 0.0508 -1.1350 -2.9330,
	 0.0508 -1.1122 -2.9269,
	 -0.2032 -1.1122 -2.9269,
	 -0.2032 -1.1350 -2.9330,
	 0.3556 -1.1122 -2.9269,
	 0.3556 -1.1350 -2.9330,
	 0.9144 -1.1350 -2.9330,
	 0.9144 -1.1122 -2.9269,
	 1.4224 -1.1350 -2.9330,
	 1.4224 -1.1122 -2.9269,
	 1.1684 -1.1122 -2.9269,
	 1.1684 -1.1350 -2.9330,
	 1.5748 -1.1122 -2.9269,
	 1.5748 -1.1350 -2.9330,
	 1.6764 -1.1122 -2.9269,
	 -0.1524 0.1636 -2.5851,
	 -0.1524 0.0164 -2.6245,
	 1.6764 -0.1308 -2.6640,
	 1.6764 0.0164 -2.6245,
	 -0.1524 0.0164 -2.6245,
	 -0.1524 -0.1308 -2.6640,
	 -0.1524 -0.1308 -2.6640,
	 -0.1524 -0.2780 -2.7034,
	 1.6764 -0.4252 -2.7429,
	 1.6764 -0.2780 -2.7034,
	 -0.1524 -0.2780 -2.7034,
	 -0.1524 -0.4252 -2.7429,
	 -0.1524 -0.4252 -2.7429,
	 -0.1524 -0.5724 -2.7823,
	 1.6764 -0.7196 -2.8217,
	 1.6764 -0.5724 -2.7823,
	 -0.1524 -0.5724 -2.7823,
	 -0.1524 -0.7196 -2.8217,
	 -0.1524 -0.7196 -2.8217,
	 0.4572 -0.7196 -2.8217,
	 1.6764 -0.7196 -2.8217,
	 1.2192 -0.4252 -2.7429,
	 1.6764 -0.4252 -2.7429,
	 0.6096 -0.1308 -2.6640,
	 1.6764 -0.1308 -2.6640,
	 1.6764 0.1636 -2.5851,
	 -0.1524 0.0164 -2.6245,
	 -1.8288 0.0164 -2.6245,
	 -1.8288 0.0164 -2.6245,
	 -1.8288 -0.7686 -2.8349,
	 -0.6604 -0.7686 -2.8349,
	 -1.8288 -0.7686 -2.8349,
	 -1.8288 -0.7687 -2.8349,
	 -1.8288 -0.7687 -2.8349,
	 -0.1524 -0.7687 -2.8349,
	 -0.5588 -0.7686 -2.8349,
	 -0.1524 -0.7686 -2.8349,
	 -0.1524 -0.1308 -2.6640,
	 -0.1524 0.0164 -2.6245,
	 -1.5240 -0.1308 -2.6640,
	 -1.0668 -0.2780 -2.7034,
	 -1.5240 -0.1308 -2.6640,
	 -1.5240 -0.2780 -2.7034,
	 -0.7620 -0.2780 -2.7034,
	 -0.1524 -0.2780 -2.7034,
	 -0.1524 -0.1308 -2.6640,
	 -1.5240 -0.2780 -2.7034,
	 -1.0668 -0.2780 -2.7034,
	 -1.2192 -0.2780 -2.7034,
	 -0.1524 -0.3271 -2.7166,
	 -0.1524 -0.2780 -2.7034,
	 -0.7620 -0.2780 -2.7034,
	 -0.7620 -0.3271 -2.7166,
	 -0.6604 -0.4252 -2.7429,
	 -0.7620 -0.3271 -2.7166,
	 -0.7620 -0.4252 -2.7429,
	 -0.5588 -0.4252 -2.7429,
	 -0.1524 -0.4252 -2.7429,
	 -0.1524 -0.3271 -2.7166,
	 -0.6604 -0.7686 -2.8349,
	 -0.6604 -0.4252 -2.7429,
	 -0.7620 -0.4252 -2.7429,
	 -0.5588 -0.4252 -2.7429,
	 -0.5588 -0.7686 -2.8349,
	 -0.1524 -0.4252 -2.7429
	]
} #Coordinate3
Material {
	ambientColor      0.0275 0.0275 0.0275  #ambientColor
	diffuseColor      0.1098 0.1098 0.1098  #diffuseColor
	transparency      0.0000                #transparency
} #Material

Texture2 {
	filename ""  #filename
	wrapS REPEAT 
	wrapT REPEAT 
} #Texture2

IndexedFaceSet {
	coordIndex [ 
	 0, 1, 2, 3,-1,
	 3, 2, 1, 0,-1,
	 0, 3, 7, 4,-1,
	 4, 7, 3, 0,-1,
	 1, 0, 4, 5,-1,
	 5, 4, 0, 1,-1,
	 2, 1, 5, 6,-1,
	 6, 5, 1, 2,-1,
	 3, 2, 6, 7,-1,
	 7, 6, 2, 3,-1,
	 8, 4, 7, 9,-1,
	 10, 11, 12, 13,-1,
	 14, 6, 5, 15,-1,
	 16, 14, 17, 18,-1,
	]
} #IndexedFaceSet
Material {
	ambientColor      0.0000 0.2500 0.0000  #ambientColor
	diffuseColor      0.0000 1.0000 0.0000  #diffuseColor
	transparency      0.4980                #transparency
} #Material

IndexedFaceSet {
	coordIndex [ 
	 19, 12, 18, 20,-1,
	 21, 22, 23, 24,-1,
	 25, 26, 27, 28,-1,
	 29, 30, 31, 32,-1,
	 33, 34, 35, 36,-1,
	 37, 38, 39, 40,-1,
	 41, 42, 43, 44,-1,
	 45, 46, 47, 48,-1,
	 49, 50, 51, 52,-1,
	 53, 54, 55, 56,-1,
	 57, 58, 59, 60,-1,
	 61, 62, 63, 64,-1,
	 65, 66, 67, 68,-1,
	 69, 70, 71, 72,-1,
	 73, 49, 74, 75,-1,
	 76, 77, 78, 79,-1,
	 80, 81, 82, 83,-1,
	 84, 85, 86, 87,-1,
	 88, 89, 90, 91,-1,
	 92, 93, 94, 95,-1,
	 96, 97, 98, 99,-1,
	 100, 101, 102, 103,-1,
	 104, 105, 106, 107,-1,
	 108, 17, 13, 109,-1,
	 110, 111, 112, 113,-1,
	 114, 110, 113, 115,-1,
	 116, 117, 118, 119,-1,
	 120, 121, 122, 123,-1,
	 124, 125, 126, 127,-1,
	 128, 129, 130, 131,-1,
	 132, 108, 133, 134,-1,
	 115, 135, 136, 137,-1,
	 138, 139, 140, 141,-1,
	 142, 143, 144, 145,-1,
	 146, 147, 148, 149,-1,
	 150, 151, 152, 153,-1,
	 154, 132, 155, 156,-1,
	 157, 158, 159, 160,-1,
	 161, 162, 163, 164,-1,
	 165, 166, 167, 168,-1,
	 169, 170, 171, 172,-1,
	 173, 174, 175, 176,-1,
	 177, 154, 178, 179,-1,
	 180, 181, 182, 183,-1,
	 184, 185, 186, 187,-1,
	 188, 189, 190, 191,-1,
	 185, 192, 193, 194,-1,
	 195, 188, 192, 196,-1,
	 197, 198, 199, 200,-1,
	 201, 202, 203, 204,-1,
	 205, 206, 207, 208,-1,
	 209, 210, 211, 212,-1,
	 213, 214, 215, 216,-1,
	 217, 218, 219, 220,-1,
	 221, 222, 223, 224,-1,
	 225, 177, 226, 227,-1,
	 228, 229, 230, 231,-1,
	 232, 233, 234, 235,-1,
	 236, 237, 238, 239,-1,
	 240, 241, 242, 243,-1,
	 244, 245, 246, 247,-1,
	 248, 249, 250, 251,-1,
	 252, 253, 254, 255,-1,
	 256, 257, 258, 259,-1,
	 260, 261, 262, 263,-1,
	 264, 265, 266, 267,-1,
	 268, 269, 270, 271,-1,
	 272, 273, 274, 275,-1,
	 276, 277, 278, 279,-1,
	 280, 281, 282, 283,-1,
	 284, 209, 285, 286,-1,
	 287, 288, 289, 290,-1,
	 291, 292, 293, 294,-1,
	 295, 296, 297, 298,-1,
	 299, 300, 301, 302,-1,
	 303, 304, 305, 306,-1,
	 307, 248, 308, 309,-1,
	 310, 311, 312, 313,-1,
	 314, 315, 316, 317,-1,
	 318, 319, 320, 321,-1,
	 322, 323, 324, 325,-1,
	 326, 327, 328, 329,-1,
	 330, 331, 332, 333,-1,
	 334, 335, 336, 337,-1,
	 338, 339, 340, 341,-1,
	 342, 27, 343, 344,-1,
	 345, 346, 347, 348,-1,
	 349, 332, 350, 351,-1,
	 352, 353, 354, 355,-1,
	 356, 324, 357, 358,-1,
	 359, 316, 360, 361,-1,
	]
} #IndexedFaceSet
Material {
	ambientColor      0.0000 0.0000 0.2500  #ambientColor
	diffuseColor      0.0000 0.0000 1.0000  #diffuseColor
	transparency      0.0000                #transparency
} #Material

IndexedFaceSet {
	coordIndex [ 
	 362, 23, 363, 364,-1,
	 365, 366, 367, 368,-1,
	 369, 370, 371, 372,-1,
	 373, 334, 24, 374,-1,
	 375, 373, 376, 377,-1,
	 378, 379, 380, 381,-1,
	 382, 383, 384, 385,-1,
	 386, 387, 388, 389,-1,
	 390, 391, 392, 393,-1,
	 394, 395, 396, 397,-1,
	 398, 399, 400, 401,-1,
	 402, 403, 404, 405,-1,
	 406, 407, 408, 409,-1,
	 410, 411, 412, 413,-1,
	 414, 415, 416, 417,-1,
	 418, 375, 419, 420,-1,
	 361, 360, 313, 312,-1,
	 421, 352, 321, 320,-1,
	 358, 357, 355, 354,-1,
	 422, 345, 329, 328,-1,
	 351, 350, 348, 347,-1,
	 423, 338, 337, 336,-1,
	 344, 343, 341, 340,-1,
	]
} #IndexedFaceSet
Material {
	ambientColor      0.2500 0.0000 0.0000  #ambientColor
	diffuseColor      1.0000 0.0000 0.0000  #diffuseColor
	transparency      0.0000                #transparency
} #Material

IndexedFaceSet {
	coordIndex [ 
	 379, 390, 368, 367,-1,
	 424, 394, 393, 392,-1,
	 389, 410, 397, 384,-1,
	 420, 419, 415, 414,-1,
	 409, 376, 372, 404,-1,
	]
} #IndexedFaceSet
Material {
	ambientColor      0.1667 0.1667 0.0000  #ambientColor
	diffuseColor      0.6667 0.6667 0.0000  #diffuseColor
	transparency      0.0000                #transparency
} #Material

IndexedFaceSet {
	coordIndex [ 
	 425, 195, 103, 102,-1,
	 426, 73, 32, 31,-1,
	 427, 116, 107, 106,-1,
	 287, 228, 157, 115, 113, 192, 185, 74,-1,
	 187, 193, 191, 182,-1,
	 428, 429, 430, 51,-1,
	 431, 124, 432, 433,-1,
	 434, 435, 121, 120,-1,
	 436, 37, 36, 35,-1,
	 437, 88, 85, 39,-1,
	 438, 276, 275, 256,-1,
	 439, 146, 143, 215,-1,
	 440, 441, 129, 63,-1,
	 60, 258, 255, 55,-1,
	 168, 130, 127, 163,-1,
	 48, 133, 442, 43,-1,
	 443, 444, 208, 282,-1,
	 445, 446, 447, 448,-1,
	 123, 122, 119, 118,-1,
	 294, 234, 231, 289,-1,
	]
} #IndexedFaceSet
Material {
	ambientColor      0.0275 0.0275 0.0275  #ambientColor
	diffuseColor      0.1098 0.1098 0.1098  #diffuseColor
	transparency      0.0000                #transparency
} #Material

IndexedFaceSet {
	coordIndex [ 
	 449, 7, 4, 450,-1,
	 13, 12, 451, 452,-1,
	 453, 5, 6, 454,-1,
	 18, 17, 454, 455,-1,
	]
} #IndexedFaceSet
Material {
	ambientColor      0.0000 0.2500 0.0000  #ambientColor
	diffuseColor      0.0000 1.0000 0.0000  #diffuseColor
	transparency      0.4980                #transparency
} #Material

IndexedFaceSet {
	coordIndex [ 
	 456, 18, 12, 457,-1,
	 24, 23, 458, 459,-1,
	 460, 461, 462, 463,-1,
	 32, 31, 464, 465,-1,
	 36, 35, 466, 467,-1,
	 468, 39, 469, 37,-1,
	 470, 43, 471, 472,-1,
	 48, 473, 474, 475,-1,
	 476, 51, 477, 478,-1,
	 479, 55, 480, 481,-1,
	 60, 482, 483, 484,-1,
	 485, 63, 486, 487,-1,
	 488, 489, 490, 491,-1,
	 492, 493, 494, 495,-1,
	 496, 74, 478, 73,-1,
	 497, 498, 499, 500,-1,
	 501, 502, 503, 504,-1,
	 505, 506, 85, 507,-1,
	 508, 509, 510, 88,-1,
	 511, 512, 513, 514,-1,
	 515, 516, 517, 518,-1,
	 103, 102, 519, 520,-1,
	 107, 106, 521, 522,-1,
	 523, 13, 17, 524,-1,
	 113, 525, 526, 527,-1,
	 115, 113, 527, 528,-1,
	 119, 118, 529, 116,-1,
	 123, 122, 121, 120,-1,
	 127, 530, 531, 124,-1,
	 532, 130, 129, 533,-1,
	 534, 133, 524, 535,-1,
	 536, 537, 538, 115,-1,
	 539, 540, 541, 542,-1,
	 543, 544, 143, 545,-1,
	 546, 547, 548, 146,-1,
	 549, 550, 551, 552,-1,
	 553, 554, 535, 555,-1,
	 556, 557, 558, 157,-1,
	 559, 163, 560, 561,-1,
	 168, 562, 563, 564,-1,
	 565, 566, 567, 568,-1,
	 569, 570, 571, 572,-1,
	 573, 574, 555, 575,-1,
	 576, 182, 577, 578,-1,
	 187, 579, 185, 580,-1,
	 191, 581, 582, 583,-1,
	 584, 193, 192, 185,-1,
	 585, 192, 583, 195,-1,
	 586, 587, 588, 589,-1,
	 590, 591, 592, 593,-1,
	 208, 594, 595, 596,-1,
	 597, 598, 599, 600,-1,
	 601, 215, 602, 603,-1,
	 604, 605, 606, 607,-1,
	 608, 609, 610, 611,-1,
	 612, 613, 575, 614,-1,
	 231, 615, 616, 228,-1,
	 617, 234, 618, 619,-1,
	 620, 621, 622, 623,-1,
	 624, 625, 626, 627,-1,
	 628, 629, 630, 631,-1,
	 632, 633, 634, 635,-1,
	 255, 636, 637, 638,-1,
	 639, 258, 640, 256,-1,
	 641, 642, 643, 644,-1,
	 645, 646, 647, 648,-1,
	 649, 650, 651, 652,-1,
	 275, 653, 654, 655,-1,
	 656, 657, 658, 276,-1,
	 659, 282, 660, 661,-1,
	 662, 663, 600, 664,-1,
	 665, 289, 666, 287,-1,
	 294, 667, 668, 669,-1,
	 670, 671, 672, 673,-1,
	 674, 675, 676, 677,-1,
	 678, 679, 680, 681,-1,
	 682, 683, 635, 684,-1,
	 313, 312, 685, 686,-1,
	 687, 688, 689, 690,-1,
	 321, 320, 691, 692,-1,
	 693, 694, 695, 696,-1,
	 329, 328, 697, 698,-1,
	 699, 700, 701, 702,-1,
	 337, 336, 703, 334,-1,
	 341, 340, 704, 338,-1,
	 344, 343, 461, 705,-1,
	 348, 347, 706, 345,-1,
	 351, 350, 700, 707,-1,
	 355, 354, 708, 352,-1,
	 358, 357, 694, 709,-1,
	 361, 360, 688, 710,-1,
	]
} #IndexedFaceSet
Material {
	ambientColor      0.0000 0.0000 0.2500  #ambientColor
	diffuseColor      0.0000 0.0000 1.0000  #diffuseColor
	transparency      0.0000                #transparency
} #Material

IndexedFaceSet {
	coordIndex [ 
	 711, 363, 23, 712,-1,
	 368, 367, 713, 714,-1,
	 372, 715, 716, 717,-1,
	 718, 24, 334, 719,-1,
	 720, 376, 719, 721,-1,
	 722, 723, 379, 724,-1,
	 725, 384, 726, 727,-1,
	 389, 728, 729, 730,-1,
	 393, 392, 731, 390,-1,
	 397, 732, 733, 394,-1,
	 734, 735, 736, 737,-1,
	 738, 404, 739, 740,-1,
	 409, 741, 742, 743,-1,
	 744, 745, 746, 410,-1,
	 747, 748, 415, 414,-1,
	 420, 419, 721, 749,-1,
	 312, 313, 360, 361,-1,
	 320, 321, 352, 421,-1,
	 354, 355, 357, 358,-1,
	 328, 329, 345, 422,-1,
	 347, 348, 350, 351,-1,
	 336, 337, 338, 423,-1,
	 340, 341, 343, 344,-1,
	]
} #IndexedFaceSet
Material {
	ambientColor      0.2500 0.0000 0.0000  #ambientColor
	diffuseColor      1.0000 0.0000 0.0000  #diffuseColor
	transparency      0.0000                #transparency
} #Material

IndexedFaceSet {
	coordIndex [ 
	 367, 368, 390, 379,-1,
	 392, 393, 394, 424,-1,
	 384, 397, 410, 389,-1,
	 414, 415, 419, 420,-1,
	 404, 372, 376, 409,-1,
	]
} #IndexedFaceSet
Material {
	ambientColor      0.1667 0.1667 0.0000  #ambientColor
	diffuseColor      0.6667 0.6667 0.0000  #diffuseColor
	transparency      0.0000                #transparency
} #Material

IndexedFaceSet {
	coordIndex [ 
	 102, 103, 195, 425,-1,
	 31, 32, 73, 426,-1,
	 106, 107, 116, 427,-1,
	 74, 185, 192, 113, 115, 157, 228, 287,-1,
	 182, 191, 193, 187,-1,
	 51, 430, 429, 428,-1,
	 433, 432, 124, 431,-1,
	 120, 121, 435, 434,-1,
	 35, 36, 37, 436,-1,
	 39, 85, 88, 437,-1,
	 256, 275, 276, 438,-1,
	 215, 143, 146, 439,-1,
	 63, 129, 441, 440,-1,
	 55, 255, 258, 60,-1,
	 163, 127, 130, 168,-1,
	 43, 442, 133, 48,-1,
	 282, 208, 444, 443,-1,
	 448, 447, 446, 445,-1,
	 118, 119, 122, 123,-1,
	 289, 231, 234, 294,-1,
	]
} #IndexedFaceSet
} #Polyhedron
Separator { #Polyhedron
DEF COORD2 Coordinate3 {
	point [
	 -2.1336 -1.9812 -3.5052,
	 -2.7432 -2.5649 -3.0154,
	 -2.7432 -2.9152 -2.7215,
	 2.4384 -2.9152 -2.7215,
	 2.4384 -2.4482 -3.1134,
	 1.8288 -1.9812 -3.5052,
	 -2.1336 -1.7853 -3.2717,
	 -2.7432 -2.3690 -2.7819,
	 -2.7432 -2.7193 -2.4881,
	 2.4384 -2.7193 -2.4881,
	 2.4384 -2.2523 -2.8799,
	 1.8288 -1.7853 -3.2717,
	 -2.2555 -1.9020 -3.1738,
	 1.9812 -1.9020 -3.1738,
	 -2.2555 -1.9020 -3.1737,
	 -2.2555 -1.9020 -3.1738,
	 0.0508 -1.9020 -3.1738,
	 0.0508 -1.9020 -3.1737,
	 1.9812 -1.9020 -3.1738,
	 1.9812 -1.9020 -3.1737,
	 0.6096 -1.9020 -3.1737,
	 0.6096 -1.9020 -3.1738,
	 -2.2962 -1.9409 -3.1411,
	 -2.2555 -1.9020 -3.1737,
	 -0.5588 -1.9020 -3.1737,
	 -0.5588 -1.9409 -3.1411,
	 -0.2540 -1.9409 -3.1411,
	 -0.2540 -2.0188 -3.0758,
	 -2.3774 -2.0188 -3.0758,
	 -2.2962 -1.9409 -3.1411,
	 -0.2540 -1.9020 -3.1737,
	 -0.3556 -1.9409 -3.1411,
	 -0.3556 -1.9020 -3.1737,
	 -0.0508 -1.9799 -3.1084,
	 -0.0508 -1.9020 -3.1737,
	 0.0508 -1.9020 -3.1737,
	 0.0508 -1.9799 -3.1084,
	 0.7112 -1.9799 -3.1084,
	 0.7112 -2.0188 -3.0758,
	 -0.0508 -2.0188 -3.0758,
	 -0.0508 -1.9799 -3.1084,
	 0.7112 -1.9020 -3.1737,
	 0.6096 -1.9799 -3.1084,
	 0.6096 -1.9020 -3.1737,
	 0.9144 -1.9020 -3.1737,
	 0.9144 -2.0188 -3.0758,
	 0.8636 -2.0188 -3.0758,
	 0.8636 -1.9020 -3.1737,
	 1.3716 -2.0188 -3.0758,
	 1.3716 -1.9020 -3.1737,
	 1.4224 -1.9020 -3.1737,
	 1.4224 -2.0188 -3.0758,
	 1.5240 -1.9799 -3.1084,
	 1.6764 -1.9799 -3.1084,
	 1.6764 -2.0188 -3.0758,
	 2.0828 -1.9799 -3.1084,
	 2.1336 -2.0188 -3.0758,
	 1.8796 -2.0188 -3.0758,
	 1.8796 -1.9799 -3.1084,
	 1.5240 -1.9799 -3.1084,
	 1.5240 -1.9409 -3.1411,
	 1.6764 -1.9409 -3.1411,
	 1.6764 -1.9799 -3.1084,
	 2.0320 -1.9409 -3.1411,
	 1.8796 -1.9799 -3.1084,
	 1.8796 -1.9409 -3.1411,
	 1.9812 -1.9020 -3.1737,
	 1.5240 -1.9409 -3.1411,
	 -2.6213 -2.2523 -2.8799,
	 -2.3774 -2.0188 -3.0758,
	 -1.9812 -2.0188 -3.0758,
	 -1.9812 -2.2523 -2.8799,
	 -2.7432 -2.4857 -2.6840,
	 -2.7432 -2.3690 -2.7819,
	 -2.5908 -2.3690 -2.7819,
	 -2.5908 -2.4857 -2.6840,
	 -2.7432 -2.6025 -2.5860,
	 -2.7432 -2.4857 -2.6840,
	 -0.2032 -2.4857 -2.6840,
	 -0.2032 -2.6025 -2.5860,
	 0.0000 -2.6025 -2.5860,
	 0.0000 -2.4857 -2.6840,
	 0.5080 -2.4857 -2.6840,
	 0.5080 -2.6025 -2.5860,
	 0.9144 -2.4857 -2.6840,
	 0.9144 -2.6025 -2.5860,
	 0.8128 -2.6025 -2.5860,
	 0.8128 -2.4857 -2.6840,
	 2.4384 -2.6025 -2.5860,
	 -2.7432 -2.6025 -2.5860,
	 1.3716 -2.6025 -2.5860,
	 1.3716 -2.4857 -2.6840,
	 1.4224 -2.4857 -2.6840,
	 1.4224 -2.6025 -2.5860,
	 1.5240 -2.5636 -2.6187,
	 1.6764 -2.5636 -2.6187,
	 1.6764 -2.6025 -2.5860,
	 2.4384 -2.5636 -2.6187,
	 2.2860 -2.6025 -2.5860,
	 2.2860 -2.5636 -2.6187,
	 1.5240 -2.5636 -2.6187,
	 1.5240 -2.5247 -2.6513,
	 1.6764 -2.5247 -2.6513,
	 1.6764 -2.5636 -2.6187,
	 2.4384 -2.5247 -2.6513,
	 2.2860 -2.5636 -2.6187,
	 2.2860 -2.5247 -2.6513,
	 1.5240 -2.5247 -2.6513,
	 1.4224 -2.4857 -2.6840,
	 1.6764 -2.4857 -2.6840,
	 1.6764 -2.5247 -2.6513,
	 2.4384 -2.4857 -2.6840,
	 2.2860 -2.5247 -2.6513,
	 2.2860 -2.4857 -2.6840,
	 -0.3048 -2.0872 -3.0184,
	 -0.3048 -2.0188 -3.0758,
	 -0.2540 -2.0188 -3.0758,
	 -0.2540 -2.0872 -3.0184,
	 0.3048 -2.0188 -3.0758,
	 0.0893 -2.0872 -3.0184,
	 -0.0508 -2.0872 -3.0184,
	 -0.0508 -2.0188 -3.0758,
	 -0.3048 -2.0966 -3.0105,
	 -0.3048 -2.0872 -3.0184,
	 -0.2540 -2.0872 -3.0184,
	 -0.2540 -2.0966 -3.0105,
	 0.0842 -2.0966 -3.0105,
	 0.0000 -2.2523 -2.8799,
	 -0.3048 -2.2523 -2.8799,
	 -0.3048 -2.0966 -3.0105,
	 -0.0508 -2.0966 -3.0105,
	 -0.0508 -2.0872 -3.0184,
	 -0.3048 -2.4174 -2.7414,
	 0.0893 -2.4174 -2.7414,
	 -0.3048 -2.4468 -2.7166,
	 0.1822 -2.4468 -2.7166,
	 -0.3048 -2.4857 -2.6840,
	 -0.3048 -2.4468 -2.7166,
	 -0.2032 -2.4468 -2.7166,
	 -0.2032 -2.4857 -2.6840,
	 0.1822 -2.4468 -2.7166,
	 0.3048 -2.4857 -2.6840,
	 0.0000 -2.4857 -2.6840,
	 0.0000 -2.4468 -2.7166,
	 0.5203 -2.4174 -2.7414,
	 1.6764 -2.4174 -2.7414,
	 1.6764 -2.4857 -2.6840,
	 2.4384 -2.4174 -2.7414,
	 2.2860 -2.4857 -2.6840,
	 2.2860 -2.4174 -2.7414,
	 0.6096 -2.2523 -2.8799,
	 0.6096 -2.2523 -2.8799,
	 1.6764 -2.2523 -2.8799,
	 0.5886 -2.2912 -2.8472,
	 1.6764 -2.2912 -2.8472,
	 2.4384 -2.2912 -2.8472,
	 2.2860 -2.2912 -2.8472,
	 2.2860 -2.2523 -2.8799,
	 0.5254 -2.4079 -2.7493,
	 0.5886 -2.2912 -2.8472,
	 0.7112 -2.2912 -2.8472,
	 0.7112 -2.4079 -2.7493,
	 0.9144 -2.2912 -2.8472,
	 0.9144 -2.4079 -2.7493,
	 0.8636 -2.4079 -2.7493,
	 0.8636 -2.2912 -2.8472,
	 0.5203 -2.4174 -2.7414,
	 0.5254 -2.4079 -2.7493,
	 1.6764 -2.4079 -2.7493,
	 1.6764 -2.4174 -2.7414,
	 2.4384 -2.4079 -2.7493,
	 2.2860 -2.4174 -2.7414,
	 2.2860 -2.4079 -2.7493,
	 1.3716 -2.4079 -2.7493,
	 1.3716 -2.2912 -2.8472,
	 1.4224 -2.2912 -2.8472,
	 1.4224 -2.4079 -2.7493,
	 1.5240 -2.3690 -2.7819,
	 1.6764 -2.3690 -2.7819,
	 1.6764 -2.4079 -2.7493,
	 2.4384 -2.3690 -2.7819,
	 2.2860 -2.4079 -2.7493,
	 2.2860 -2.3690 -2.7819,
	 1.5240 -2.3690 -2.7819,
	 1.5240 -2.3301 -2.8146,
	 1.6764 -2.3301 -2.8146,
	 1.6764 -2.3690 -2.7819,
	 2.4384 -2.3301 -2.8146,
	 2.2860 -2.3690 -2.7819,
	 2.2860 -2.3301 -2.8146,
	 1.5240 -2.3301 -2.8146,
	 1.4224 -2.2912 -2.8472,
	 1.6764 -2.2912 -2.8472,
	 1.6764 -2.3301 -2.8146,
	 2.4384 -2.2912 -2.8472,
	 2.2860 -2.3301 -2.8146,
	 2.2860 -2.2912 -2.8472,
	 0.5254 -2.0966 -3.0105,
	 0.5203 -2.0872 -3.0184,
	 1.6764 -2.0872 -3.0184,
	 1.6764 -2.0966 -3.0105,
	 2.2229 -2.0872 -3.0184,
	 2.2352 -2.0966 -3.0105,
	 1.8796 -2.0966 -3.0105,
	 1.8796 -2.0872 -3.0184,
	 0.5886 -2.2133 -2.9125,
	 0.5254 -2.0966 -3.0105,
	 0.9144 -2.0966 -3.0105,
	 0.9144 -2.2133 -2.9125,
	 0.5886 -2.2133 -2.9125,
	 1.6764 -2.2133 -2.9125,
	 1.6764 -2.2523 -2.8799,
	 2.3876 -2.2133 -2.9125,
	 2.2860 -2.2523 -2.8799,
	 2.2860 -2.2133 -2.9125,
	 1.3716 -2.2133 -2.9125,
	 1.3716 -2.0966 -3.0105,
	 1.4224 -2.0966 -3.0105,
	 1.4224 -2.2133 -2.9125,
	 2.3368 -2.1744 -2.9452,
	 1.5240 -2.1744 -2.9452,
	 2.2860 -2.1355 -2.9778,
	 1.5240 -2.1355 -2.9778,
	 2.2352 -2.0966 -3.0105,
	 0.5203 -2.0872 -3.0184,
	 0.3048 -2.0188 -3.0758,
	 1.6764 -2.0188 -3.0758,
	 1.6764 -2.0872 -3.0184,
	 2.1336 -2.0188 -3.0758,
	 1.8796 -2.0872 -3.0184,
	 1.8796 -2.0188 -3.0758,
	 -0.3048 -2.0188 -3.0758,
	 -1.9812 -2.4857 -2.6840,
	 -1.9812 -2.2523 -2.8799,
	 -1.9812 -2.4857 -2.6840,
	 -2.2860 -2.4857 -2.6840,
	 -2.2860 -2.2523 -2.8799,
	 -2.2860 -2.3690 -2.7819,
	 -2.2860 -2.4857 -2.6840,
	 1.4224 -2.0966 -3.0105,
	 1.4224 -2.2912 -2.8472,
	 1.4224 -2.4857 -2.6840,
	 -0.0508 -1.9020 -3.1737,
	 2.2860 -2.6025 -2.5860,
	 1.6764 -2.6025 -2.5860,
	 1.9812 -1.9020 -3.1738,
	 -2.2555 -1.9020 -3.1738,
	 0.0508 -1.9020 -3.1737,
	 -2.2555 -1.9020 -3.1738,
	 -2.2555 -1.9020 -3.1737,
	 0.6096 -1.9020 -3.1737,
	 1.9812 -1.9020 -3.1737,
	 1.9812 -1.9020 -3.1738,
	 -2.2555 -1.9020 -3.1737,
	 -2.2962 -1.9409 -3.1411,
	 -2.2962 -1.9409 -3.1411,
	 -2.3774 -2.0188 -3.0758,
	 -0.2540 -2.0188 -3.0758,
	 -0.2540 -1.9409 -3.1411,
	 0.0508 -1.9020 -3.1737,
	 -0.0508 -1.9020 -3.1737,
	 -0.0508 -1.9799 -3.1084,
	 -0.0508 -1.9799 -3.1084,
	 -0.0508 -2.0188 -3.0758,
	 0.7112 -1.9799 -3.1084,
	 0.6096 -1.9020 -3.1737,
	 1.6764 -2.0188 -3.0758,
	 1.6764 -1.9799 -3.1084,
	 1.5240 -1.9799 -3.1084,
	 1.8796 -1.9799 -3.1084,
	 1.8796 -2.0188 -3.0758,
	 2.1336 -2.0188 -3.0758,
	 2.0828 -1.9799 -3.1084,
	 1.6764 -1.9799 -3.1084,
	 1.5240 -1.9409 -3.1411,
	 1.8796 -1.9799 -3.1084,
	 2.0320 -1.9409 -3.1411,
	 1.9812 -1.9020 -3.1737,
	 -1.9812 -2.2523 -2.8799,
	 -2.3774 -2.0188 -3.0758,
	 -2.6213 -2.2523 -2.8799,
	 -2.7432 -2.3690 -2.7819,
	 -2.7432 -2.4857 -2.6840,
	 -0.2032 -2.4857 -2.6840,
	 -2.7432 -2.4857 -2.6840,
	 -2.7432 -2.6025 -2.5860,
	 0.0000 -2.4857 -2.6840,
	 -2.7432 -2.6025 -2.5860,
	 2.4384 -2.6025 -2.5860,
	 1.4224 -2.4857 -2.6840,
	 1.6764 -2.6025 -2.5860,
	 1.6764 -2.5636 -2.6187,
	 1.5240 -2.5636 -2.6187,
	 2.2860 -2.5636 -2.6187,
	 2.2860 -2.6025 -2.5860,
	 2.4384 -2.5636 -2.6187,
	 1.6764 -2.5636 -2.6187,
	 1.6764 -2.5247 -2.6513,
	 1.5240 -2.5247 -2.6513,
	 2.2860 -2.5247 -2.6513,
	 2.2860 -2.5636 -2.6187,
	 2.4384 -2.5247 -2.6513,
	 1.6764 -2.5247 -2.6513,
	 1.6764 -2.4857 -2.6840,
	 1.4224 -2.4857 -2.6840,
	 2.2860 -2.4857 -2.6840,
	 2.2860 -2.5247 -2.6513,
	 2.4384 -2.4857 -2.6840,
	 -0.2540 -2.0872 -3.0184,
	 -0.2540 -2.0188 -3.0758,
	 -0.3048 -2.0188 -3.0758,
	 -0.3048 -2.0872 -3.0184,
	 -0.0508 -2.0188 -3.0758,
	 -0.0508 -2.0872 -3.0184,
	 -0.2540 -2.0872 -3.0184,
	 -0.3048 -2.0872 -3.0184,
	 -0.3048 -2.0966 -3.0105,
	 -0.3048 -2.0966 -3.0105,
	 -0.3048 -2.2523 -2.8799,
	 0.0842 -2.0966 -3.0105,
	 -0.0508 -2.0872 -3.0184,
	 -0.3048 -2.4174 -2.7414,
	 0.1822 -2.4468 -2.7166,
	 -0.3048 -2.4468 -2.7166,
	 -0.2032 -2.4857 -2.6840,
	 -0.3048 -2.4468 -2.7166,
	 0.0000 -2.4857 -2.6840,
	 0.1822 -2.4468 -2.7166,
	 1.6764 -2.4857 -2.6840,
	 1.6764 -2.4174 -2.7414,
	 0.5203 -2.4174 -2.7414,
	 2.2860 -2.4174 -2.7414,
	 2.2860 -2.4857 -2.6840,
	 2.4384 -2.4174 -2.7414,
	 1.6764 -2.2523 -2.8799,
	 0.6096 -2.2523 -2.8799,
	 1.6764 -2.2912 -2.8472,
	 0.5886 -2.2912 -2.8472,
	 2.2860 -2.2523 -2.8799,
	 2.2860 -2.2912 -2.8472,
	 2.4384 -2.2912 -2.8472,
	 0.5886 -2.2912 -2.8472,
	 0.5254 -2.4079 -2.7493,
	 1.6764 -2.4174 -2.7414,
	 1.6764 -2.4079 -2.7493,
	 0.5254 -2.4079 -2.7493,
	 2.2860 -2.4079 -2.7493,
	 2.2860 -2.4174 -2.7414,
	 2.4384 -2.4079 -2.7493,
	 1.4224 -2.2912 -2.8472,
	 1.6764 -2.4079 -2.7493,
	 1.6764 -2.3690 -2.7819,
	 1.5240 -2.3690 -2.7819,
	 2.2860 -2.3690 -2.7819,
	 2.2860 -2.4079 -2.7493,
	 2.4384 -2.3690 -2.7819,
	 1.6764 -2.3690 -2.7819,
	 1.6764 -2.3301 -2.8146,
	 1.5240 -2.3301 -2.8146,
	 2.2860 -2.3301 -2.8146,
	 2.2860 -2.3690 -2.7819,
	 2.4384 -2.3301 -2.8146,
	 1.6764 -2.3301 -2.8146,
	 1.6764 -2.2912 -2.8472,
	 1.4224 -2.2912 -2.8472,
	 2.2860 -2.2912 -2.8472,
	 2.2860 -2.3301 -2.8146,
	 2.4384 -2.2912 -2.8472,
	 1.6764 -2.0872 -3.0184,
	 0.5203 -2.0872 -3.0184,
	 0.5254 -2.0966 -3.0105,
	 1.8796 -2.0872 -3.0184,
	 2.2352 -2.0966 -3.0105,
	 2.2229 -2.0872 -3.0184,
	 0.5254 -2.0966 -3.0105,
	 0.5886 -2.2133 -2.9125,
	 1.6764 -2.2523 -2.8799,
	 0.5886 -2.2133 -2.9125,
	 2.2860 -2.2523 -2.8799,
	 2.3876 -2.2133 -2.9125,
	 1.4224 -2.0966 -3.0105,
	 2.3368 -2.1744 -2.9452,
	 2.2860 -2.1355 -2.9778,
	 2.2352 -2.0966 -3.0105,
	 1.6764 -2.0872 -3.0184,
	 1.6764 -2.0188 -3.0758,
	 0.3048 -2.0188 -3.0758,
	 1.8796 -2.0188 -3.0758,
	 1.8796 -2.0872 -3.0184,
	 2.1336 -2.0188 -3.0758
	]
} #Coordinate3
Material {
	ambientColor      0.0275 0.0275 0.0275  #ambientColor
	diffuseColor      0.1098 0.1098 0.1098  #diffuseColor
	transparency      0.0000                #transparency
} #Material

IndexedFaceSet {
	coordIndex [ 
	 0, 1, 2, 3, 4, 5,-1,
	 5, 4, 3, 2, 1, 0,-1,
	 0, 5, 11, 6,-1,
	 6, 11, 5, 0,-1,
	 1, 0, 6, 7,-1,
	 7, 6, 0, 1,-1,
	 2, 1, 7, 8,-1,
	 8, 7, 1, 2,-1,
	 3, 2, 8, 9,-1,
	 9, 8, 2, 3,-1,
	 4, 3, 9, 10,-1,
	 10, 9, 3, 4,-1,
	 5, 4, 10, 11,-1,
	 11, 10, 4, 5,-1,
	]
} #IndexedFaceSet
Material {
	ambientColor      0.0000 0.0000 0.0000  #ambientColor
	diffuseColor      0.0000 0.0000 0.0000  #diffuseColor
	transparency      0.0000                #transparency
} #Material

IndexedFaceSet {
	coordIndex [ 
	 12, 6, 11, 13,-1,
	 14, 15, 16, 17,-1,
	 18, 19, 20, 21,-1,
	 22, 23, 24, 25,-1,
	 26, 27, 28, 29,-1,
	 30, 26, 31, 32,-1,
	 33, 34, 35, 36,-1,
	 37, 38, 39, 40,-1,
	 41, 37, 42, 43,-1,
	 44, 45, 46, 47,-1,
	 48, 49, 50, 51,-1,
	 51, 52, 53, 54,-1,
	 55, 56, 57, 58,-1,
	 59, 60, 61, 62,-1,
	 63, 55, 64, 65,-1,
	 66, 63, 67, 50,-1,
	 68, 69, 70, 71,-1,
	 72, 73, 74, 75,-1,
	 76, 77, 78, 79,-1,
	 80, 81, 82, 83,-1,
	 84, 85, 86, 87,-1,
	 88, 9, 8, 89,-1,
	 90, 91, 92, 93,-1,
	 93, 94, 95, 96,-1,
	 97, 88, 98, 99,-1,
	 100, 101, 102, 103,-1,
	 104, 97, 105, 106,-1,
	 107, 108, 109, 110,-1,
	 111, 104, 112, 113,-1,
	 114, 115, 116, 117,-1,
	 118, 119, 120, 121,-1,
	 122, 123, 124, 125,-1,
	 126, 127, 128, 129,-1,
	 119, 126, 130, 131,-1,
	 132, 128, 127, 133,-1,
	 134, 132, 133, 135,-1,
	 136, 137, 138, 139,-1,
	 140, 141, 142, 143,-1,
	 141, 144, 145, 146,-1,
	 147, 111, 148, 149,-1,
	 150, 151, 152,-1,
	 153, 150, 152, 154,-1,
	 10, 155, 156, 157,-1,
	 158, 159, 160, 161,-1,
	 162, 163, 164, 165,-1,
	 166, 167, 168, 169,-1,
	 170, 147, 171, 172,-1,
	 173, 174, 175, 176,-1,
	 176, 177, 178, 179,-1,
	 180, 170, 181, 182,-1,
	 183, 184, 185, 186,-1,
	 187, 180, 188, 189,-1,
	 190, 191, 192, 193,-1,
	 194, 187, 195, 196,-1,
	 197, 198, 199, 200,-1,
	 201, 202, 203, 204,-1,
	 205, 206, 207, 208,-1,
	 151, 209, 210, 211,-1,
	 212, 10, 213, 214,-1,
	 215, 216, 217, 218,-1,
	 219, 212, 218, 220,-1,
	 221, 219, 220, 222,-1,
	 223, 221, 222, 217,-1,
	 224, 225, 226, 227,-1,
	 228, 201, 229, 230,-1,
	]
} #IndexedFaceSet
Material {
	ambientColor      0.1667 0.1667 0.0000  #ambientColor
	diffuseColor      0.6667 0.6667 0.0000  #diffuseColor
	transparency      0.0000                #transparency
} #Material

IndexedFaceSet {
	coordIndex [ 
	 231, 136, 232, 70,-1,
	 233, 234, 235, 236,-1,
	 237, 238, 75, 74,-1,
	 224, 151, 166, 141, 133, 127, 119, 118,-1,
	 49, 48, 45, 44,-1,
	 216, 215, 208, 207,-1,
	 174, 173, 163, 162,-1,
	 91, 90, 85, 84,-1,
	 67, 59, 51, 50,-1,
	 222, 220, 218, 239,-1,
	 190, 183, 176, 240,-1,
	 107, 100, 93, 241,-1,
	 47, 46, 38, 41,-1,
	 165, 164, 161, 160,-1,
	 143, 80, 79, 138,-1,
	 242, 130, 125, 30,-1,
	 32, 31, 25, 24,-1,
	 21, 42, 36, 16,-1,
	 87, 86, 83, 82,-1,
	 214, 243, 244, 210,-1,
	 65, 203, 200, 61,-1,
	]
} #IndexedFaceSet
Material {
	ambientColor      0.0000 0.0000 0.0000  #ambientColor
	diffuseColor      0.0000 0.0000 0.0000  #diffuseColor
	transparency      0.0000                #transparency
} #Material

IndexedFaceSet {
	coordIndex [ 
	 245, 11, 6, 246,-1,
	 247, 16, 248, 249,-1,
	 21, 250, 251, 252,-1,
	 25, 24, 253, 254,-1,
	 255, 256, 257, 258,-1,
	 32, 31, 258, 30,-1,
	 36, 259, 260, 261,-1,
	 262, 263, 38, 264,-1,
	 265, 42, 264, 41,-1,
	 47, 46, 45, 44,-1,
	 51, 50, 49, 48,-1,
	 266, 267, 268, 51,-1,
	 269, 270, 271, 272,-1,
	 273, 61, 274, 59,-1,
	 65, 275, 272, 276,-1,
	 50, 67, 276, 277,-1,
	 278, 70, 279, 280,-1,
	 75, 74, 281, 282,-1,
	 79, 283, 284, 285,-1,
	 83, 82, 286, 80,-1,
	 87, 86, 85, 84,-1,
	 287, 8, 9, 288,-1,
	 93, 289, 91, 90,-1,
	 290, 291, 292, 93,-1,
	 293, 294, 288, 295,-1,
	 296, 297, 298, 100,-1,
	 299, 300, 295, 301,-1,
	 302, 303, 304, 107,-1,
	 305, 306, 301, 307,-1,
	 308, 309, 310, 311,-1,
	 312, 313, 119, 118,-1,
	 125, 314, 315, 316,-1,
	 317, 318, 127, 319,-1,
	 320, 130, 319, 119,-1,
	 133, 127, 318, 321,-1,
	 322, 133, 321, 323,-1,
	 324, 138, 325, 136,-1,
	 143, 326, 141, 327,-1,
	 328, 329, 330, 141,-1,
	 331, 332, 307, 333,-1,
	 334, 151, 335,-1,
	 336, 334, 335, 337,-1,
	 338, 339, 340, 10,-1,
	 161, 160, 341, 342,-1,
	 165, 164, 163, 162,-1,
	 343, 344, 345, 166,-1,
	 346, 347, 333, 348,-1,
	 176, 349, 174, 173,-1,
	 350, 351, 352, 176,-1,
	 353, 354, 348, 355,-1,
	 356, 357, 358, 183,-1,
	 359, 360, 355, 361,-1,
	 362, 363, 364, 190,-1,
	 365, 366, 361, 367,-1,
	 200, 368, 369, 370,-1,
	 371, 203, 372, 373,-1,
	 208, 207, 374, 375,-1,
	 376, 210, 377, 151,-1,
	 214, 378, 10, 379,-1,
	 218, 380, 216, 215,-1,
	 220, 218, 379, 381,-1,
	 222, 220, 381, 382,-1,
	 380, 222, 382, 383,-1,
	 384, 385, 386, 224,-1,
	 387, 388, 373, 389,-1,
	]
} #IndexedFaceSet
Material {
	ambientColor      0.1667 0.1667 0.0000  #ambientColor
	diffuseColor      0.6667 0.6667 0.0000  #diffuseColor
	transparency      0.0000                #transparency
} #Material

IndexedFaceSet {
	coordIndex [ 
	 70, 232, 136, 231,-1,
	 236, 235, 234, 233,-1,
	 74, 75, 238, 237,-1,
	 118, 119, 127, 133, 141, 166, 151, 224,-1,
	 44, 45, 48, 49,-1,
	 207, 208, 215, 216,-1,
	 162, 163, 173, 174,-1,
	 84, 85, 90, 91,-1,
	 50, 51, 59, 67,-1,
	 239, 218, 220, 222,-1,
	 240, 176, 183, 190,-1,
	 241, 93, 100, 107,-1,
	 41, 38, 46, 47,-1,
	 160, 161, 164, 165,-1,
	 138, 79, 80, 143,-1,
	 30, 125, 130, 242,-1,
	 24, 25, 31, 32,-1,
	 16, 36, 42, 21,-1,
	 82, 83, 86, 87,-1,
	 210, 244, 243, 214,-1,
	 61, 200, 203, 65,-1,
	]
} #IndexedFaceSet
} #Polyhedron
Separator { #Polyhedron
DEF COORD3 Coordinate3 {
	point [
	 0.0000 -0.9144 10.3629,
	 -0.6466 -1.1822 10.3629,
	 -0.9144 -1.8288 10.3629,
	 -0.6466 -2.4754 10.3629,
	 0.0000 -2.7432 10.3629,
	 0.6466 -2.4754 10.3629,
	 0.9144 -1.8288 10.3629,
	 0.6466 -1.1822 10.3629,
	 0.0000 -0.9144 37.7949,
	 -0.6466 -1.1822 37.7949,
	 -0.9144 -1.8288 37.7949,
	 -0.6466 -2.4754 37.7949,
	 0.0000 -2.7432 37.7949,
	 0.6466 -2.4754 37.7949,
	 0.9144 -1.8288 37.7949,
	 0.6466 -1.1822 37.7949
	]
} #Coordinate3
Material {
	ambientColor      0.0000 0.2500 0.0000  #ambientColor
	diffuseColor      0.0000 1.0000 0.0000  #diffuseColor
	transparency      0.4980                #transparency
} #Material

IndexedFaceSet {
	coordIndex [ 
	 0, 1, 2, 3, 4, 5, 6, 7,-1,
	 7, 6, 5, 4, 3, 2, 1, 0,-1,
	 0, 7, 15, 8,-1,
	 8, 15, 7, 0,-1,
	 1, 0, 8, 9,-1,
	 9, 8, 0, 1,-1,
	 2, 1, 9, 10,-1,
	 10, 9, 1, 2,-1,
	 3, 2, 10, 11,-1,
	 11, 10, 2, 3,-1,
	 4, 3, 11, 12,-1,
	 12, 11, 3, 4,-1,
	 5, 4, 12, 13,-1,
	 13, 12, 4, 5,-1,
	 6, 5, 13, 14,-1,
	 14, 13, 5, 6,-1,
	 7, 6, 14, 15,-1,
	 15, 14, 6, 7,-1,
	 15, 14, 13, 12, 11, 10, 9, 8,-1,
	 8, 9, 10, 11, 12, 13, 14, 15,-1,
	]
} #IndexedFaceSet
} #Polyhedron
Separator { #Polyhedron
DEF COORD4 Coordinate3 {
	point [
	 -9.1440 3.0480 -4.8768,
	 -8.7130 2.7432 -5.3079,
	 -8.5344 2.7432 -4.8768,
	 -8.7130 2.7432 -4.4458,
	 -9.1440 2.7432 -4.2672,
	 -9.5751 2.7432 -4.4458,
	 -9.7536 2.7432 -4.8768,
	 -9.5751 2.7432 -5.3079,
	 -9.1440 2.7432 -5.4864,
	 -9.1440 2.4384 -4.8768
	]
} #Coordinate3
Material {
	ambientColor      0.1735 0.1735 0.1735  #ambientColor
	diffuseColor      0.6941 0.6941 0.6941  #diffuseColor
	transparency      0.0000                #transparency
} #Material

IndexedFaceSet {
	coordIndex [ 
	 0, 8, 1,-1,
	 1, 8, 0,-1,
	 0, 1, 2,-1,
	 2, 1, 0,-1,
	 0, 2, 3,-1,
	 3, 2, 0,-1,
	 0, 3, 4,-1,
	 4, 3, 0,-1,
	 0, 4, 5,-1,
	 5, 4, 0,-1,
	 0, 5, 6,-1,
	 6, 5, 0,-1,
	 0, 6, 7,-1,
	 7, 6, 0,-1,
	 0, 7, 8,-1,
	 8, 7, 0,-1,
	 1, 8, 9,-1,
	 9, 8, 1,-1,
	 2, 1, 9,-1,
	 9, 1, 2,-1,
	 3, 2, 9,-1,
	 9, 2, 3,-1,
	 4, 3, 9,-1,
	 9, 3, 4,-1,
	 5, 4, 9,-1,
	 9, 4, 5,-1,
	 6, 5, 9,-1,
	 9, 5, 6,-1,
	 7, 6, 9,-1,
	 9, 6, 7,-1,
	 8, 7, 9,-1,
	 9, 7, 8,-1,
	]
} #IndexedFaceSet
} #Polyhedron
Separator { #Polyhedron
DEF COORD5 Coordinate3 {
	point [
	 6.7056 3.0480 7.3152,
	 7.5677 2.4384 6.4531,
	 7.9248 2.4384 7.3152,
	 7.5677 2.4384 8.1773,
	 6.7056 2.4384 8.5344,
	 5.8435 2.4384 8.1773,
	 5.4864 2.4384 7.3152,
	 5.8435 2.4384 6.4531,
	 6.7056 2.4384 6.0960,
	 6.7056 1.8288 7.3152
	]
} #Coordinate3
Material {
	ambientColor      0.1735 0.1735 0.1735  #ambientColor
	diffuseColor      0.6941 0.6941 0.6941  #diffuseColor
	transparency      0.0000                #transparency
} #Material

IndexedFaceSet {
	coordIndex [ 
	 0, 8, 1,-1,
	 1, 8, 0,-1,
	 0, 1, 2,-1,
	 2, 1, 0,-1,
	 0, 2, 3,-1,
	 3, 2, 0,-1,
	 0, 3, 4,-1,
	 4, 3, 0,-1,
	 0, 4, 5,-1,
	 5, 4, 0,-1,
	 0, 5, 6,-1,
	 6, 5, 0,-1,
	 0, 6, 7,-1,
	 7, 6, 0,-1,
	 0, 7, 8,-1,
	 8, 7, 0,-1,
	 1, 8, 9,-1,
	 9, 8, 1,-1,
	 2, 1, 9,-1,
	 9, 1, 2,-1,
	 3, 2, 9,-1,
	 9, 2, 3,-1,
	 4, 3, 9,-1,
	 9, 3, 4,-1,
	 5, 4, 9,-1,
	 9, 4, 5,-1,
	 6, 5, 9,-1,
	 9, 5, 6,-1,
	 7, 6, 9,-1,
	 9, 6, 7,-1,
	 8, 7, 9,-1,
	 9, 7, 8,-1,
	]
} #IndexedFaceSet
} #Polyhedron
Separator { #Polyhedron
DEF COORD6 Coordinate3 {
	point [
	 -4.2672 7.9248 -0.0000,
	 -3.6576 7.3152 -0.6096,
	 -3.6576 7.3152 0.6096,
	 -4.8768 7.3152 0.6096,
	 -4.8768 7.3152 -0.6096,
	 -4.2672 6.7056 -0.0000
	]
} #Coordinate3
Material {
	ambientColor      0.1735 0.1735 0.1735  #ambientColor
	diffuseColor      0.6941 0.6941 0.6941  #diffuseColor
	transparency      0.0000                #transparency
} #Material

IndexedFaceSet {
	coordIndex [ 
	 1, 4, 5,-1,
	 5, 4, 1,-1,
	 2, 1, 5,-1,
	 5, 1, 2,-1,
	 3, 2, 5,-1,
	 5, 2, 3,-1,
	 4, 3, 5,-1,
	 5, 3, 4,-1,
	]
} #IndexedFaceSet
} #Polyhedron
Separator { #Polyhedron
DEF COORD7 Coordinate3 {
	point [
	 8.5344 -2.4384 -3.6576,
	 9.1440 -3.6576 -4.2672,
	 9.1440 -3.6576 -3.0480,
	 7.9248 -3.6576 -3.0480,
	 7.9248 -3.6576 -4.2672
	]
} #Coordinate3
Material {
	ambientColor      0.1735 0.1735 0.1735  #ambientColor
	diffuseColor      0.6941 0.6941 0.6941  #diffuseColor
	transparency      0.0000                #transparency
} #Material

IndexedFaceSet {
	coordIndex [ 
	 0, 4, 1,-1,
	 1, 4, 0,-1,
	 0, 1, 2,-1,
	 2, 1, 0,-1,
	 0, 2, 3,-1,
	 3, 2, 0,-1,
	 0, 3, 4,-1,
	 4, 3, 0,-1,
	 4, 3, 2, 1,-1,
	 1, 2, 3, 4,-1,
	]
} #IndexedFaceSet
} #Polyhedron
Separator { #Polyhedron
DEF COORD8 Coordinate3 {
	point [
	 -6.7056 -2.4384 3.6576,
	 -6.7056 -2.4384 4.2672,
	 -7.9248 -2.4384 4.2672,
	 -7.9248 -2.4384 3.6576,
	 -7.3152 -3.6576 3.9624
	]
} #Coordinate3
Material {
	ambientColor      0.1735 0.1735 0.1735  #ambientColor
	diffuseColor      0.6941 0.6941 0.6941  #diffuseColor
	transparency      0.0000                #transparency
} #Material

IndexedFaceSet {
	coordIndex [ 
	 0, 1, 2, 3,-1,
	 3, 2, 1, 0,-1,
	 0, 3, 4,-1,
	 4, 3, 0,-1,
	 1, 0, 4,-1,
	 4, 0, 1,-1,
	 2, 1, 4,-1,
	 4, 1, 2,-1,
	 3, 2, 4,-1,
	 4, 2, 3,-1,
	]
} #IndexedFaceSet
} #Polyhedron
Separator { #Polyhedron
DEF COORD9 Coordinate3 {
	point [
	 -3.6576 -5.4864 -7.3152,
	 -3.0480 -6.4008 -7.9248,
	 -3.0480 -6.4008 -6.7056,
	 -4.2672 -6.4008 -6.7056,
	 -4.2672 -6.4008 -7.9248,
	 -3.6576 -7.3152 -7.3152
	]
} #Coordinate3
Material {
	ambientColor      0.1735 0.1735 0.1735  #ambientColor
	diffuseColor      0.6941 0.6941 0.6941  #diffuseColor
	transparency      0.0000                #transparency
} #Material

IndexedFaceSet {
	coordIndex [ 
	 0, 4, 1,-1,
	 1, 4, 0,-1,
	 0, 1, 2,-1,
	 2, 1, 0,-1,
	 0, 2, 3,-1,
	 3, 2, 0,-1,
	 0, 3, 4,-1,
	 4, 3, 0,-1,
	 1, 4, 5,-1,
	 5, 4, 1,-1,
	 2, 1, 5,-1,
	 5, 1, 2,-1,
	 3, 2, 5,-1,
	 5, 2, 3,-1,
	 4, 3, 5,-1,
	 5, 3, 4,-1,
	]
} #IndexedFaceSet
} #Polyhedron
Separator { #Polyhedron
DEF COORD10 Coordinate3 {
	point [
	 -3.0480 -7.9248 7.9248,
	 -3.0480 -7.9248 9.1440,
	 -4.8768 -7.9248 9.1440,
	 -4.8768 -7.9248 7.9248,
	 -3.0480 -9.7536 7.9248,
	 -3.0480 -9.7536 9.1440,
	 -4.8768 -9.7536 9.1440,
	 -4.8768 -9.7536 7.9248
	]
} #Coordinate3
Material {
	ambientColor      0.1735 0.1735 0.1735  #ambientColor
	diffuseColor      0.6941 0.6941 0.6941  #diffuseColor
	transparency      0.0000                #transparency
} #Material

IndexedFaceSet {
	coordIndex [ 
	 0, 1, 2, 3,-1,
	 3, 2, 1, 0,-1,
	 0, 3, 7, 4,-1,
	 4, 7, 3, 0,-1,
	 1, 0, 4, 5,-1,
	 5, 4, 0, 1,-1,
	 2, 1, 5, 6,-1,
	 6, 5, 1, 2,-1,
	 3, 2, 6, 7,-1,
	 7, 6, 2, 3,-1,
	 7, 6, 5, 4,-1,
	 4, 5, 6, 7,-1,
	]
} #IndexedFaceSet
} #Polyhedron
}
