#VRML V1.0 ascii

Separator {
	Info { string "Virtus 3D Website Builder 1.0
	VRML Export Filter
	Virtus Corporation
	114 MacKenan Drive, Suite 100
	Cary, NC 27511
	919-467-9700"}

	DEF BackgroundColor Info{  # Sky color
		string " 0.3 0.8 1.0 "
	}

	DirectionalLight {
		on         TRUE          # SFBool
		intensity  1.0           # SFFloat
		color      0.4 0.4 0.4   # SFColor
		direction  0 0 0   # SFVec3f
	}

	DirectionalLight {
		on         TRUE          # SFBool
		intensity  1.0           # SFFloat
		color      0.5 0.5 0.5   # SFColor
		direction  34 -247 -57   # SFVec3f
	}

	DirectionalLight {
		on         TRUE          # SFBool
		intensity  1.0           # SFFloat
		color      0.4 0.4 0.4   # SFColor
		direction  -209 -104 105   # SFVec3f
	}

	DirectionalLight {
		on         TRUE          # SFBool
		intensity  1.0           # SFFloat
		color      0.5 0.5 0.5   # SFColor
		direction  5 119 -226   # SFVec3f
	}

	PerspectiveCamera {
		position -0.3048 3.0988 4.3688          #SFVec3f 
		orientation 1 0 0  6.1870     #SFRotation 
		orientation 0 1 0  0.0246     #SFRotation 
		focalDistance  5            #SFFloat 
		heightAngle 2.1726 
	}

	ShapeHints {
		vertexOrdering	CLOCKWISE
		shapeType	SOLID
	}

	Transform {
		translation 0 0 0
		scaleFactor 1.0 1.0 1.0
	}

Separator { #Polyhedron
	DEF COORD0 Coordinate3 {
		point [
		 0.0000 3.0480 3.2004,
		 -0.1166 3.0248 3.2004,
		 -0.2155 2.9587 3.2004,
		 -0.2816 2.8598 3.2004,
		 -0.3048 2.7432 3.2004,
		 -0.2816 2.6266 3.2004,
		 -0.2155 2.5277 3.2004,
		 -0.1166 2.4616 3.2004,
		 0.0000 2.4384 3.2004,
		 0.1166 2.4616 3.2004,
		 0.2155 2.5277 3.2004,
		 0.2816 2.6266 3.2004,
		 0.3048 2.7432 3.2004,
		 0.2816 2.8598 3.2004,
		 0.2155 2.9587 3.2004,
		 0.1166 3.0248 3.2004,
		 0.0000 3.0480 12.3444,
		 -0.1166 3.0248 12.3444,
		 -0.2155 2.9587 12.3444,
		 -0.2816 2.8598 12.3444,
		 -0.3048 2.7432 12.3444,
		 -0.2816 2.6266 12.3444,
		 -0.2155 2.5277 12.3444,
		 -0.1166 2.4616 12.3444,
		 0.0000 2.4384 12.3444,
		 0.1166 2.4616 12.3444,
		 0.2155 2.5277 12.3444,
		 0.2816 2.6266 12.3444,
		 0.3048 2.7432 12.3444,
		 0.2816 2.8598 12.3444,
		 0.2155 2.9587 12.3444,
		 0.1166 3.0248 12.3444
		]
	} #Coordinate3
	Material {
		ambientColor      0.0000 0.2500 0.0000  #ambientColor
		diffuseColor      0.0000 1.0000 0.0000  #diffuseColor
		transparency      0.4980                #transparency
	} #Material

	Texture2 {
		filename ""  #filename
		wrapS REPEAT 
		wrapT REPEAT 
	} #Texture2

	IndexedFaceSet {
		coordIndex [ 
		 0, 1, 2, 3, 4, 5, 6, 7, 8, 9, 10, 11, 12, 13, 14, 15,-1,
		 15, 14, 13, 12, 11, 10, 9, 8, 7, 6, 5, 4, 3, 2, 1, 0,-1,
		 0, 15, 31, 16,-1,
		 16, 31, 15, 0,-1,
		 1, 0, 16, 17,-1,
		 17, 16, 0, 1,-1,
		 2, 1, 17, 18,-1,
		 18, 17, 1, 2,-1,
		 3, 2, 18, 19,-1,
		 19, 18, 2, 3,-1,
		 4, 3, 19, 20,-1,
		 20, 19, 3, 4,-1,
		 5, 4, 20, 21,-1,
		 21, 20, 4, 5,-1,
		 6, 5, 21, 22,-1,
		 22, 21, 5, 6,-1,
		 7, 6, 22, 23,-1,
		 23, 22, 6, 7,-1,
		 8, 7, 23, 24,-1,
		 24, 23, 7, 8,-1,
		 9, 8, 24, 25,-1,
		 25, 24, 8, 9,-1,
		 10, 9, 25, 26,-1,
		 26, 25, 9, 10,-1,
		 11, 10, 26, 27,-1,
		 27, 26, 10, 11,-1,
		 12, 11, 27, 28,-1,
		 28, 27, 11, 12,-1,
		 13, 12, 28, 29,-1,
		 29, 28, 12, 13,-1,
		 14, 13, 29, 30,-1,
		 30, 29, 13, 14,-1,
		 15, 14, 30, 31,-1,
		 31, 30, 14, 15,-1,
		 31, 30, 29, 28, 27, 26, 25, 24, 23, 22, 21, 20, 19, 18, 17, 16,-1,
		 16, 17, 18, 19, 20, 21, 22, 23, 24, 25, 26, 27, 28, 29, 30, 31,-1,
		]
	} #IndexedFaceSet
} #Polyhedron
Separator { #Polyhedron
	DEF COORD1 Coordinate3 {
		point [
		 0.0000 3.0480 -19.5072,
		 -0.1166 3.0248 -19.5072,
		 -0.2155 2.9587 -19.5072,
		 -0.2816 2.8598 -19.5072,
		 -0.3048 2.7432 -19.5072,
		 -0.2816 2.6266 -19.5072,
		 -0.2155 2.5277 -19.5072,
		 -0.1166 2.4616 -19.5072,
		 0.0000 2.4384 -19.5072,
		 0.1166 2.4616 -19.5072,
		 0.2155 2.5277 -19.5072,
		 0.2816 2.6266 -19.5072,
		 0.3048 2.7432 -19.5072,
		 0.2816 2.8598 -19.5072,
		 0.2155 2.9587 -19.5072,
		 0.1166 3.0248 -19.5072,
		 0.0000 3.0480 -7.3152,
		 -0.1166 3.0248 -7.3152,
		 -0.2155 2.9587 -7.3152,
		 -0.2816 2.8598 -7.3152,
		 -0.3048 2.7432 -7.3152,
		 -0.2816 2.6266 -7.3152,
		 -0.2155 2.5277 -7.3152,
		 -0.1166 2.4616 -7.3152,
		 0.0000 2.4384 -7.3152,
		 0.1166 2.4616 -7.3152,
		 0.2155 2.5277 -7.3152,
		 0.2816 2.6266 -7.3152,
		 0.3048 2.7432 -7.3152,
		 0.2816 2.8598 -7.3152,
		 0.2155 2.9587 -7.3152,
		 0.1166 3.0248 -7.3152
		]
	} #Coordinate3
	Material {
		ambientColor      0.0000 0.2500 0.0000  #ambientColor
		diffuseColor      0.0000 1.0000 0.0000  #diffuseColor
		transparency      0.4980                #transparency
	} #Material

	IndexedFaceSet {
		coordIndex [ 
		 0, 1, 2, 3, 4, 5, 6, 7, 8, 9, 10, 11, 12, 13, 14, 15,-1,
		 15, 14, 13, 12, 11, 10, 9, 8, 7, 6, 5, 4, 3, 2, 1, 0,-1,
		 0, 15, 31, 16,-1,
		 16, 31, 15, 0,-1,
		 1, 0, 16, 17,-1,
		 17, 16, 0, 1,-1,
		 2, 1, 17, 18,-1,
		 18, 17, 1, 2,-1,
		 3, 2, 18, 19,-1,
		 19, 18, 2, 3,-1,
		 4, 3, 19, 20,-1,
		 20, 19, 3, 4,-1,
		 5, 4, 20, 21,-1,
		 21, 20, 4, 5,-1,
		 6, 5, 21, 22,-1,
		 22, 21, 5, 6,-1,
		 7, 6, 22, 23,-1,
		 23, 22, 6, 7,-1,
		 8, 7, 23, 24,-1,
		 24, 23, 7, 8,-1,
		 9, 8, 24, 25,-1,
		 25, 24, 8, 9,-1,
		 10, 9, 25, 26,-1,
		 26, 25, 9, 10,-1,
		 11, 10, 26, 27,-1,
		 27, 26, 10, 11,-1,
		 12, 11, 27, 28,-1,
		 28, 27, 11, 12,-1,
		 13, 12, 28, 29,-1,
		 29, 28, 12, 13,-1,
		 14, 13, 29, 30,-1,
		 30, 29, 13, 14,-1,
		 15, 14, 30, 31,-1,
		 31, 30, 14, 15,-1,
		 31, 30, 29, 28, 27, 26, 25, 24, 23, 22, 21, 20, 19, 18, 17, 16,-1,
		 16, 17, 18, 19, 20, 21, 22, 23, 24, 25, 26, 27, 28, 29, 30, 31,-1,
		]
	} #IndexedFaceSet
} #Polyhedron
Separator { #Polyhedron
	DEF COORD2 Coordinate3 {
		point [
		 -1.3158 3.5052 -6.6498,
		 -0.9552 -0.3048 -6.8172,
		 -1.4832 -0.3048 -6.2892,
		 -1.6764 -0.3048 -7.0104
		]
	} #Coordinate3
	Material {
		ambientColor      0.2500 0.0000 0.0000  #ambientColor
		diffuseColor      1.0000 0.0000 0.0000  #diffuseColor
		transparency      0.0000                #transparency
	} #Material

	IndexedFaceSet {
		coordIndex [ 
		 0, 3, 1,-1,
		 1, 3, 0,-1,
		 0, 2, 3,-1,
		 3, 2, 0,-1,
		 3, 2, 1,-1,
		 1, 2, 3,-1,
		]
	} #IndexedFaceSet
} #Polyhedron
Separator { #Polyhedron
	DEF COORD3 Coordinate3 {
		point [
		 1.4682 4.2672 -6.8022,
		 1.6356 0.4572 -6.4416,
		 1.1076 0.4572 -6.9696,
		 1.8288 0.4572 -7.1628
		]
	} #Coordinate3
	Material {
		ambientColor      0.2500 0.0000 0.0000  #ambientColor
		diffuseColor      1.0000 0.0000 0.0000  #diffuseColor
		transparency      0.0000                #transparency
	} #Material

	IndexedFaceSet {
		coordIndex [ 
		 0, 3, 1,-1,
		 1, 3, 0,-1,
		 0, 2, 3,-1,
		 3, 2, 0,-1,
		 3, 2, 1,-1,
		 1, 2, 3,-1,
		]
	} #IndexedFaceSet
} #Polyhedron
Separator { #Polyhedron
	DEF COORD4 Coordinate3 {
		point [
		 -0.4572 3.8100 -6.9696,
		 0.1524 0.0000 -6.8580,
		 -0.8586 0.0000 -6.4974,
		 -0.6654 0.0000 -7.5533
		]
	} #Coordinate3
	Material {
		ambientColor      0.2500 0.0000 0.0000  #ambientColor
		diffuseColor      1.0000 0.0000 0.0000  #diffuseColor
		transparency      0.0000                #transparency
	} #Material

	IndexedFaceSet {
		coordIndex [ 
		 0, 3, 1,-1,
		 1, 3, 0,-1,
		 0, 1, 2,-1,
		 2, 1, 0,-1,
		 0, 2, 3,-1,
		 3, 2, 0,-1,
		 3, 2, 1,-1,
		 1, 2, 3,-1,
		]
	} #IndexedFaceSet
} #Polyhedron
Separator { #Polyhedron
	DEF COORD5 Coordinate3 {
		point [
		 0.2490 4.1148 -5.8878,
		 0.4164 0.3048 -5.5272,
		 -0.1116 0.3048 -6.0552,
		 0.6096 0.3048 -6.2484
		]
	} #Coordinate3
	Material {
		ambientColor      0.2500 0.0000 0.0000  #ambientColor
		diffuseColor      1.0000 0.0000 0.0000  #diffuseColor
		transparency      0.0000                #transparency
	} #Material

	IndexedFaceSet {
		coordIndex [ 
		 0, 3, 1,-1,
		 1, 3, 0,-1,
		 0, 2, 3,-1,
		 3, 2, 0,-1,
		 3, 2, 1,-1,
		 1, 2, 3,-1,
		]
	} #IndexedFaceSet
} #Polyhedron
Separator { #Polyhedron
	DEF COORD6 Coordinate3 {
		point [
		 0.5538 3.8100 -6.6498,
		 0.7212 0.0000 -6.2892,
		 0.1932 0.0000 -6.8172,
		 0.9144 0.0000 -7.0104
		]
	} #Coordinate3
	Material {
		ambientColor      0.2088 0.2088 0.0000  #ambientColor
		diffuseColor      0.8353 0.8353 0.0000  #diffuseColor
		transparency      0.0000                #transparency
	} #Material

	IndexedFaceSet {
		coordIndex [ 
		 0, 3, 1,-1,
		 1, 3, 0,-1,
		 0, 2, 3,-1,
		 3, 2, 0,-1,
		 3, 2, 1,-1,
		 1, 2, 3,-1,
		]
	} #IndexedFaceSet
} #Polyhedron
Separator { #Polyhedron
	DEF COORD7 Coordinate3 {
		point [
		 -0.9144 4.2672 -6.1722,
		 -0.6504 0.4572 -5.9436,
		 -1.1784 0.4572 -5.9436,
		 -0.9144 0.4572 -6.4008
		]
	} #Coordinate3
	Material {
		ambientColor      0.2088 0.2088 0.0000  #ambientColor
		diffuseColor      0.8353 0.8353 0.0000  #diffuseColor
		transparency      0.0000                #transparency
	} #Material

	IndexedFaceSet {
		coordIndex [ 
		 0, 3, 1,-1,
		 1, 3, 0,-1,
		 0, 1, 2,-1,
		 2, 1, 0,-1,
		 0, 2, 3,-1,
		 3, 2, 0,-1,
		 3, 2, 1,-1,
		 1, 2, 3,-1,
		]
	} #IndexedFaceSet
} #Polyhedron
Separator { #Polyhedron
	DEF COORD8 Coordinate3 {
		point [
		 -0.3048 2.4384 -6.3246,
		 -0.0408 0.0000 -6.0960,
		 -0.5688 0.0000 -6.0960,
		 -0.3048 0.0000 -6.5532
		]
	} #Coordinate3
	Material {
		ambientColor      0.2500 0.2500 0.0000  #ambientColor
		diffuseColor      1.0000 1.0000 0.0000  #diffuseColor
		transparency      0.0000                #transparency
	} #Material

	IndexedFaceSet {
		coordIndex [ 
		 0, 3, 1,-1,
		 1, 3, 0,-1,
		 0, 1, 2,-1,
		 2, 1, 0,-1,
		 0, 2, 3,-1,
		 3, 2, 0,-1,
		 3, 2, 1,-1,
		 1, 2, 3,-1,
		]
	} #IndexedFaceSet
} #Polyhedron
Separator { #Polyhedron
	DEF COORD9 Coordinate3 {
		point [
		 0.8586 2.4384 -7.4118,
		 1.0260 0.0000 -7.0512,
		 0.4980 0.0000 -7.5792,
		 1.2192 0.0000 -7.7724
		]
	} #Coordinate3
	Material {
		ambientColor      0.2500 0.2500 0.0000  #ambientColor
		diffuseColor      1.0000 1.0000 0.0000  #diffuseColor
		transparency      0.0000                #transparency
	} #Material

	IndexedFaceSet {
		coordIndex [ 
		 0, 3, 1,-1,
		 1, 3, 0,-1,
		 0, 2, 3,-1,
		 3, 2, 0,-1,
		 3, 2, 1,-1,
		 1, 2, 3,-1,
		]
	} #IndexedFaceSet
} #Polyhedron
Separator { #Polyhedron
	DEF COORD10 Coordinate3 {
		point [
		 1.0668 2.1336 -6.0198,
		 1.3308 -0.3048 -5.7912,
		 0.8028 -0.3048 -5.7912,
		 1.0668 -0.3048 -6.2484
		]
	} #Coordinate3
	Material {
		ambientColor      0.2500 0.0000 0.0000  #ambientColor
		diffuseColor      1.0000 0.0000 0.0000  #diffuseColor
		transparency      0.0000                #transparency
	} #Material

	IndexedFaceSet {
		coordIndex [ 
		 0, 3, 1,-1,
		 1, 3, 0,-1,
		 0, 1, 2,-1,
		 2, 1, 0,-1,
		 0, 2, 3,-1,
		 3, 2, 0,-1,
		 3, 2, 1,-1,
		 1, 2, 3,-1,
		]
	} #IndexedFaceSet
} #Polyhedron
Separator { #Polyhedron
	DEF COORD11 Coordinate3 {
		point [
		 -1.9812 2.5908 -7.3914,
		 -1.7172 0.1524 -7.1628,
		 -2.2452 0.1524 -7.1628,
		 -1.9812 0.1524 -7.6200
		]
	} #Coordinate3
	Material {
		ambientColor      0.2500 0.0000 0.0000  #ambientColor
		diffuseColor      1.0000 0.0000 0.0000  #diffuseColor
		transparency      0.0000                #transparency
	} #Material

	IndexedFaceSet {
		coordIndex [ 
		 0, 3, 1,-1,
		 1, 3, 0,-1,
		 0, 1, 2,-1,
		 2, 1, 0,-1,
		 0, 2, 3,-1,
		 3, 2, 0,-1,
		 3, 2, 1,-1,
		 1, 2, 3,-1,
		]
	} #IndexedFaceSet
} #Polyhedron
Separator { #Polyhedron
	DEF COORD12 Coordinate3 {
		point [
		 1.7730 2.4384 -7.5642,
		 1.9404 0.0000 -7.2036,
		 1.4124 0.0000 -7.7316,
		 2.1336 0.0000 -7.9248
		]
	} #Coordinate3
	Material {
		ambientColor      0.2500 0.0000 0.0000  #ambientColor
		diffuseColor      1.0000 0.0000 0.0000  #diffuseColor
		transparency      0.0000                #transparency
	} #Material

	IndexedFaceSet {
		coordIndex [ 
		 0, 3, 1,-1,
		 1, 3, 0,-1,
		 0, 2, 3,-1,
		 3, 2, 0,-1,
		 3, 2, 1,-1,
		 1, 2, 3,-1,
		]
	} #IndexedFaceSet
} #Polyhedron
Separator { #Polyhedron
	DEF COORD13 Coordinate3 {
		point [
		 -3.3528 2.5908 -6.7818,
		 -3.0888 0.7620 -6.5532,
		 -3.6168 0.7620 -6.5532,
		 -3.3528 0.7620 -7.0104
		]
	} #Coordinate3
	Material {
		ambientColor      0.2500 0.0000 0.0000  #ambientColor
		diffuseColor      1.0000 0.0000 0.0000  #diffuseColor
		transparency      0.0000                #transparency
	} #Material

	IndexedFaceSet {
		coordIndex [ 
		 0, 3, 1,-1,
		 1, 3, 0,-1,
		 0, 1, 2,-1,
		 2, 1, 0,-1,
		 0, 2, 3,-1,
		 3, 2, 0,-1,
		 3, 2, 1,-1,
		 1, 2, 3,-1,
		]
	} #IndexedFaceSet
} #Polyhedron
Separator { #Polyhedron
	DEF COORD14 Coordinate3 {
		point [
		 2.6874 2.5908 -6.3450,
		 2.8548 0.7620 -5.9844,
		 2.3268 0.7620 -6.5124,
		 3.0480 0.7620 -6.7056
		]
	} #Coordinate3
	Material {
		ambientColor      0.2500 0.0000 0.0000  #ambientColor
		diffuseColor      1.0000 0.0000 0.0000  #diffuseColor
		transparency      0.0000                #transparency
	} #Material

	IndexedFaceSet {
		coordIndex [ 
		 0, 3, 1,-1,
		 1, 3, 0,-1,
		 0, 2, 3,-1,
		 3, 2, 0,-1,
		 3, 2, 1,-1,
		 1, 2, 3,-1,
		]
	} #IndexedFaceSet
} #Polyhedron
Separator { #Polyhedron
	DEF COORD15 Coordinate3 {
		point [
		 2.8194 2.5908 -7.6200,
		 2.5908 0.7620 -7.3561,
		 2.5908 0.7620 -7.8840,
		 3.0480 0.7620 -7.6200
		]
	} #Coordinate3
	Material {
		ambientColor      0.2500 0.0000 0.0000  #ambientColor
		diffuseColor      1.0000 0.0000 0.0000  #diffuseColor
		transparency      0.0000                #transparency
	} #Material

	IndexedFaceSet {
		coordIndex [ 
		 0, 3, 1,-1,
		 1, 3, 0,-1,
		 0, 1, 2,-1,
		 2, 1, 0,-1,
		 0, 2, 3,-1,
		 3, 2, 0,-1,
		 3, 2, 1,-1,
		 1, 2, 3,-1,
		]
	} #IndexedFaceSet
} #Polyhedron
Separator { #Polyhedron
	DEF COORD16 Coordinate3 {
		point [
		 -2.4384 2.5908 -8.3058,
		 -2.1744 0.7620 -8.0772,
		 -2.7024 0.7620 -8.0772,
		 -2.4384 0.7620 -8.5344
		]
	} #Coordinate3
	Material {
		ambientColor      0.2500 0.0000 0.0000  #ambientColor
		diffuseColor      1.0000 0.0000 0.0000  #diffuseColor
		transparency      0.0000                #transparency
	} #Material

	IndexedFaceSet {
		coordIndex [ 
		 0, 3, 1,-1,
		 1, 3, 0,-1,
		 0, 1, 2,-1,
		 2, 1, 0,-1,
		 0, 2, 3,-1,
		 3, 2, 0,-1,
		 3, 2, 1,-1,
		 1, 2, 3,-1,
		]
	} #IndexedFaceSet
} #Polyhedron
Separator { #Polyhedron
	DEF COORD17 Coordinate3 {
		point [
		 -1.8288 2.5908 -5.8674,
		 -1.5648 0.7620 -5.6388,
		 -2.0928 0.7620 -5.6388,
		 -1.8288 0.7620 -6.0960
		]
	} #Coordinate3
	Material {
		ambientColor      0.2500 0.2500 0.0000  #ambientColor
		diffuseColor      1.0000 1.0000 0.0000  #diffuseColor
		transparency      0.0000                #transparency
	} #Material

	IndexedFaceSet {
		coordIndex [ 
		 0, 3, 1,-1,
		 1, 3, 0,-1,
		 0, 1, 2,-1,
		 2, 1, 0,-1,
		 0, 2, 3,-1,
		 3, 2, 0,-1,
		 3, 2, 1,-1,
		 1, 2, 3,-1,
		]
	} #IndexedFaceSet
} #Polyhedron
Separator { #Polyhedron
	DEF COORD18 Coordinate3 {
		point [
		 -0.3048 2.1336 -5.5626,
		 -0.0408 0.3048 -5.3340,
		 -0.5688 0.3048 -5.3340,
		 -0.3048 0.3048 -5.7912
		]
	} #Coordinate3
	Material {
		ambientColor      0.2500 0.2500 0.0000  #ambientColor
		diffuseColor      1.0000 1.0000 0.0000  #diffuseColor
		transparency      0.0000                #transparency
	} #Material

	IndexedFaceSet {
		coordIndex [ 
		 0, 3, 1,-1,
		 1, 3, 0,-1,
		 0, 1, 2,-1,
		 2, 1, 0,-1,
		 0, 2, 3,-1,
		 3, 2, 0,-1,
		 3, 2, 1,-1,
		 1, 2, 3,-1,
		]
	} #IndexedFaceSet
} #Polyhedron
Separator { #Polyhedron
	DEF COORD19 Coordinate3 {
		point [
		 -2.4384 2.1336 -6.4770,
		 -2.1744 0.3048 -6.2484,
		 -2.7024 0.3048 -6.2484,
		 -2.4384 0.3048 -6.7056
		]
	} #Coordinate3
	Material {
		ambientColor      0.2500 0.2500 0.0000  #ambientColor
		diffuseColor      1.0000 1.0000 0.0000  #diffuseColor
		transparency      0.0000                #transparency
	} #Material

	Texture2 {
		filename ""  #filename
		wrapS REPEAT 
		wrapT REPEAT 
	} #Texture2

	IndexedFaceSet {
		coordIndex [ 
		 0, 3, 1,-1,
		 1, 3, 0,-1,
		 0, 1, 2,-1,
		 2, 1, 0,-1,
		 0, 2, 3,-1,
		 3, 2, 0,-1,
		 3, 2, 1,-1,
		 1, 2, 3,-1,
		]
	} #IndexedFaceSet
} #Polyhedron
Separator { #Polyhedron
	DEF COORD20 Coordinate3 {
		point [
		 -2.5939 1.9812 -5.3575,
		 -2.7411 1.8288 -5.3181,
		 -2.7411 1.2192 -5.3181,
		 -2.5939 1.0668 -5.3575,
		 -1.5634 1.0668 -5.6336,
		 -1.4162 1.2192 -5.6730,
		 -1.4162 1.8288 -5.6730,
		 -1.5634 1.9812 -5.6336,
		 -2.5150 1.9812 -5.0631,
		 -2.6622 1.8288 -5.0237,
		 -2.6622 1.2192 -5.0237,
		 -2.5150 1.0668 -5.0631,
		 -1.4846 1.0668 -5.3392,
		 -1.3373 1.2192 -5.3786,
		 -1.3373 1.8288 -5.3786,
		 -1.4846 1.9812 -5.3392,
		 -2.5641 1.9304 -5.0500,
		 -1.4355 1.9304 -5.3523,
		 -2.6622 1.7780 -5.0237,
		 -2.5641 1.9304 -5.0500,
		 -2.4659 1.9304 -5.0763,
		 -2.6131 1.7780 -5.0368,
		 -2.6622 1.2700 -5.0237,
		 -2.6131 1.2700 -5.0368,
		 -2.5641 1.1176 -5.0500,
		 -2.4659 1.1176 -5.0763,
		 -1.4355 1.1176 -5.3523,
		 -2.5641 1.1176 -5.0500,
		 -1.3373 1.2700 -5.3786,
		 -1.5336 1.1176 -5.3260,
		 -1.3864 1.2700 -5.3655,
		 -1.3373 1.7780 -5.3786,
		 -1.3864 1.7780 -5.3655,
		 -1.4355 1.9304 -5.3523,
		 -1.5336 1.9304 -5.3260,
		 -2.5641 1.8288 -5.0500,
		 -1.4355 1.8288 -5.3523,
		 -2.6131 1.5240 -5.0368,
		 -2.5641 1.8288 -5.0500,
		 -2.5150 1.8288 -5.0631,
		 -2.5150 1.5240 -5.0631,
		 -2.6131 1.4732 -5.0368,
		 -2.6131 1.5240 -5.0368,
		 -1.3864 1.5240 -5.3655,
		 -1.3864 1.4732 -5.3655,
		 -2.6131 1.3208 -5.0368,
		 -2.6131 1.4732 -5.0368,
		 -2.4659 1.4732 -5.0763,
		 -2.4659 1.3208 -5.0763,
		 -2.5641 1.2192 -5.0500,
		 -2.6131 1.2700 -5.0368,
		 -2.5150 1.2700 -5.0631,
		 -2.5150 1.2192 -5.0631,
		 -2.3678 1.2192 -5.1026,
		 -2.3678 1.1684 -5.1026,
		 -2.5150 1.1684 -5.0631,
		 -2.5641 1.2192 -5.0500,
		 -2.3678 1.2700 -5.1026,
		 -2.4169 1.2192 -5.0894,
		 -2.4169 1.2700 -5.0894,
		 -1.4846 1.1684 -5.3392,
		 -2.5150 1.1684 -5.0631,
		 -2.1225 1.1684 -5.1683,
		 -2.1225 1.2700 -5.1683,
		 -2.0734 1.2700 -5.1814,
		 -2.0734 1.1684 -5.1814,
		 -1.9752 1.1684 -5.2077,
		 -1.9752 1.2700 -5.2077,
		 -1.9262 1.2700 -5.2209,
		 -1.9262 1.1684 -5.2209,
		 -1.8280 1.2700 -5.2472,
		 -1.8280 1.1684 -5.2472,
		 -1.8771 1.1684 -5.2340,
		 -1.8771 1.2700 -5.2340,
		 -1.6318 1.2192 -5.2998,
		 -1.6318 1.2700 -5.2998,
		 -1.5336 1.2700 -5.3260,
		 -1.5336 1.2192 -5.3260,
		 -1.4355 1.2192 -5.3523,
		 -1.6318 1.1684 -5.2998,
		 -1.6318 1.2192 -5.2998,
		 -1.4846 1.2192 -5.3392,
		 -1.4846 1.2700 -5.3392,
		 -2.3678 1.4224 -5.1026,
		 -2.3678 1.4732 -5.1026,
		 -2.0734 1.4732 -5.1814,
		 -2.0734 1.4224 -5.1814,
		 -1.9262 1.4224 -5.2209,
		 -1.9262 1.4732 -5.2209,
		 -1.5827 1.4732 -5.3129,
		 -1.5827 1.4224 -5.3129,
		 -1.3864 1.4732 -5.3655,
		 -1.3864 1.4224 -5.3655,
		 -1.4846 1.4224 -5.3392,
		 -1.4846 1.4732 -5.3392,
		 -2.3678 1.3208 -5.1026,
		 -2.3678 1.4224 -5.1026,
		 -2.2697 1.4224 -5.1289,
		 -2.2697 1.3208 -5.1289,
		 -2.1225 1.3716 -5.1683,
		 -2.1225 1.4224 -5.1683,
		 -1.7790 1.4224 -5.2603,
		 -1.7790 1.3716 -5.2603,
		 -1.7299 1.3716 -5.2735,
		 -1.7299 1.4224 -5.2735,
		 -1.6808 1.4224 -5.2866,
		 -1.6808 1.3716 -5.2866,
		 -1.6318 1.3716 -5.2998,
		 -1.6318 1.4224 -5.2998,
		 -1.5827 1.4224 -5.3129,
		 -1.5827 1.3716 -5.3129,
		 -1.3864 1.4224 -5.3655,
		 -1.3864 1.3716 -5.3655,
		 -1.4846 1.3716 -5.3392,
		 -1.4846 1.4224 -5.3392,
		 -2.1225 1.3208 -5.1683,
		 -2.1225 1.3716 -5.1683,
		 -2.0734 1.3716 -5.1814,
		 -2.0734 1.3208 -5.1814,
		 -1.9262 1.3208 -5.2209,
		 -1.9262 1.3716 -5.2209,
		 -1.8280 1.3716 -5.2472,
		 -1.8280 1.3208 -5.2472,
		 -1.3864 1.3716 -5.3655,
		 -1.3864 1.3208 -5.3655,
		 -1.6318 1.3208 -5.2998,
		 -1.6318 1.3716 -5.2998,
		 -2.1715 1.7780 -5.1551,
		 -2.1715 1.8288 -5.1551,
		 -1.4355 1.8288 -5.3523,
		 -2.1715 1.7272 -5.1551,
		 -2.1715 1.7780 -5.1551,
		 -2.1225 1.7780 -5.1683,
		 -2.1225 1.7272 -5.1683,
		 -1.3864 1.7272 -5.3655,
		 -1.3864 1.6764 -5.3655,
		 -2.1715 1.6764 -5.1551,
		 -2.1715 1.7272 -5.1551,
		 -1.9262 1.7272 -5.2209,
		 -1.9262 1.7780 -5.2209,
		 -1.8771 1.7780 -5.2340,
		 -1.8771 1.7272 -5.2340,
		 -1.5827 1.7272 -5.3129,
		 -1.5827 1.7780 -5.3129,
		 -2.1715 1.6256 -5.1551,
		 -2.1715 1.6764 -5.1551,
		 -2.1225 1.6764 -5.1683,
		 -2.1225 1.6256 -5.1683,
		 -1.3864 1.6256 -5.3655,
		 -1.3864 1.5748 -5.3655,
		 -2.1715 1.5748 -5.1551,
		 -2.1715 1.6256 -5.1551,
		 -1.9262 1.6256 -5.2209,
		 -1.9262 1.6764 -5.2209,
		 -1.8771 1.6764 -5.2340,
		 -1.8771 1.6256 -5.2340,
		 -1.3864 1.6764 -5.3655,
		 -1.7299 1.6256 -5.2735,
		 -1.7299 1.6764 -5.2735,
		 -2.1715 1.5240 -5.1551,
		 -2.1715 1.5748 -5.1551,
		 -2.1225 1.5748 -5.1683,
		 -2.1225 1.5240 -5.1683,
		 -1.6563 1.5240 -5.2932,
		 -1.6563 1.5748 -5.2932,
		 -1.6072 1.5748 -5.3063,
		 -1.6072 1.5240 -5.3063,
		 -1.3864 1.5748 -5.3655,
		 -1.5582 1.5240 -5.3195,
		 -1.5582 1.5748 -5.3195,
		 -2.5150 1.7780 -5.0631,
		 -2.1715 1.7780 -5.1551,
		 -2.5150 1.7272 -5.0631,
		 -2.5150 1.7780 -5.0631,
		 -2.2697 1.7780 -5.1289,
		 -2.2697 1.7272 -5.1289,
		 -2.1715 1.7780 -5.1551,
		 -2.1715 1.7272 -5.1551,
		 -2.2206 1.7272 -5.1420,
		 -2.2206 1.7780 -5.1420,
		 -2.5150 1.5748 -5.0631,
		 -2.5150 1.7272 -5.0631,
		 -2.4659 1.7272 -5.0763,
		 -2.4659 1.5748 -5.0763,
		 -2.1715 1.5748 -5.1551,
		 -2.5150 1.5748 -5.0631,
		 -2.4169 1.6764 -5.0894,
		 -2.4169 1.7272 -5.0894,
		 -2.2697 1.7272 -5.1289,
		 -2.2697 1.6764 -5.1289,
		 -2.1715 1.7272 -5.1551,
		 -2.1715 1.6764 -5.1551,
		 -2.2206 1.6764 -5.1420,
		 -2.2206 1.7272 -5.1420,
		 -2.4169 1.5748 -5.0894,
		 -2.4169 1.6764 -5.0894,
		 -2.3678 1.6764 -5.1026,
		 -2.3678 1.5748 -5.1026,
		 -2.3187 1.5748 -5.1157,
		 -2.3187 1.6764 -5.1157,
		 -2.2697 1.6764 -5.1289,
		 -2.2697 1.5748 -5.1289,
		 -2.1715 1.6764 -5.1551,
		 -2.2206 1.5748 -5.1420,
		 -2.2206 1.6764 -5.1420,
		 -1.6563 1.5748 -5.2932,
		 -1.9262 1.6764 -5.2209,
		 -1.9262 1.7780 -5.2209,
		 -2.4169 1.7272 -5.0894,
		 -2.3187 1.6764 -5.1157,
		 -2.3678 1.4732 -5.1026,
		 -2.1225 1.2700 -5.1683,
		 -2.1225 1.4224 -5.1683,
		 -1.9262 1.4732 -5.2209,
		 -1.9262 1.3716 -5.2209,
		 -1.9752 1.2700 -5.2077,
		 -2.2206 1.3208 -5.1420,
		 -2.2206 1.2700 -5.1420,
		 -2.2697 1.2700 -5.1289,
		 -2.2697 1.3208 -5.1289,
		 -1.6808 1.3716 -5.2866,
		 -1.6808 1.1684 -5.2866,
		 -1.7299 1.4224 -5.2735,
		 -1.6318 1.4224 -5.2998,
		 -1.6808 1.1684 -5.2866,
		 -1.5827 1.7780 -5.3129,
		 -1.8771 1.7780 -5.2340,
		 -1.4355 1.9304 -5.3523,
		 -2.5641 1.9304 -5.0500,
		 -2.5641 1.9304 -5.0500,
		 -2.6622 1.7780 -5.0237,
		 -2.6622 1.2700 -5.0237,
		 -2.5641 1.1176 -5.0500,
		 -2.5641 1.1176 -5.0500,
		 -1.4355 1.1176 -5.3523,
		 -1.3373 1.2700 -5.3786,
		 -1.3373 1.7780 -5.3786,
		 -1.4355 1.9304 -5.3523,
		 -1.4355 1.8288 -5.3523,
		 -2.5641 1.8288 -5.0500,
		 -2.5641 1.8288 -5.0500,
		 -2.6131 1.5240 -5.0368,
		 -1.3864 1.4732 -5.3655,
		 -1.3864 1.5240 -5.3655,
		 -2.6131 1.5240 -5.0368,
		 -2.6131 1.4732 -5.0368,
		 -2.6131 1.4732 -5.0368,
		 -2.6131 1.3208 -5.0368,
		 -2.6131 1.2700 -5.0368,
		 -2.5641 1.2192 -5.0500,
		 -2.5641 1.2192 -5.0500,
		 -2.5150 1.1684 -5.0631,
		 -2.3678 1.2192 -5.1026,
		 -2.5150 1.1684 -5.0631,
		 -1.4846 1.1684 -5.3392,
		 -2.1225 1.2700 -5.1683,
		 -1.9752 1.2700 -5.2077,
		 -1.8280 1.2700 -5.2472,
		 -1.6318 1.2700 -5.2998,
		 -1.6318 1.2192 -5.2998,
		 -1.6318 1.2192 -5.2998,
		 -1.4355 1.2192 -5.3523,
		 -2.3678 1.4732 -5.1026,
		 -2.3678 1.4224 -5.1026,
		 -1.5827 1.4224 -5.3129,
		 -1.9262 1.4732 -5.2209,
		 -1.4846 1.4224 -5.3392,
		 -1.3864 1.4224 -5.3655,
		 -1.3864 1.4732 -5.3655,
		 -2.3678 1.4224 -5.1026,
		 -2.1225 1.4224 -5.1683,
		 -2.1225 1.3716 -5.1683,
		 -1.6808 1.3716 -5.2866,
		 -1.7299 1.4224 -5.2735,
		 -1.5827 1.4224 -5.3129,
		 -1.6318 1.4224 -5.2998,
		 -1.6318 1.3716 -5.2998,
		 -1.4846 1.4224 -5.3392,
		 -1.3864 1.3716 -5.3655,
		 -1.3864 1.4224 -5.3655,
		 -2.1225 1.3716 -5.1683,
		 -1.8280 1.3208 -5.2472,
		 -1.9262 1.3716 -5.2209,
		 -1.6318 1.3716 -5.2998,
		 -1.6318 1.3208 -5.2998,
		 -1.3864 1.3208 -5.3655,
		 -1.3864 1.3716 -5.3655,
		 -1.4355 1.8288 -5.3523,
		 -2.1715 1.7780 -5.1551,
		 -2.1715 1.7780 -5.1551,
		 -2.1715 1.7272 -5.1551,
		 -2.1715 1.7272 -5.1551,
		 -2.1715 1.6764 -5.1551,
		 -1.3864 1.6764 -5.3655,
		 -1.3864 1.7272 -5.3655,
		 -1.8771 1.7780 -5.2340,
		 -1.9262 1.7780 -5.2209,
		 -1.5827 1.7780 -5.3129,
		 -2.1715 1.6764 -5.1551,
		 -2.1715 1.6256 -5.1551,
		 -2.1715 1.6256 -5.1551,
		 -2.1715 1.5748 -5.1551,
		 -1.3864 1.5748 -5.3655,
		 -1.3864 1.6256 -5.3655,
		 -1.9262 1.6764 -5.2209,
		 -1.3864 1.6764 -5.3655,
		 -2.1715 1.5748 -5.1551,
		 -1.6563 1.5748 -5.2932,
		 -1.3864 1.5748 -5.3655,
		 -2.1715 1.7780 -5.1551,
		 -2.5150 1.7780 -5.0631,
		 -2.2697 1.7272 -5.1289,
		 -2.5150 1.7780 -5.0631,
		 -2.5150 1.7272 -5.0631,
		 -2.2206 1.7272 -5.1420,
		 -2.1715 1.7272 -5.1551,
		 -2.1715 1.7780 -5.1551,
		 -2.5150 1.7272 -5.0631,
		 -2.5150 1.5748 -5.0631,
		 -2.5150 1.5748 -5.0631,
		 -2.1715 1.5748 -5.1551,
		 -2.2697 1.6764 -5.1289,
		 -2.2697 1.7272 -5.1289,
		 -2.4169 1.7272 -5.0894,
		 -2.4169 1.6764 -5.0894,
		 -2.2206 1.7272 -5.1420,
		 -2.2206 1.6764 -5.1420,
		 -2.1715 1.6764 -5.1551,
		 -2.1715 1.7272 -5.1551,
		 -2.4169 1.6764 -5.0894,
		 -2.2697 1.6764 -5.1289,
		 -2.3187 1.6764 -5.1157,
		 -2.2206 1.6764 -5.1420,
		 -2.1715 1.6764 -5.1551
		]
	} #Coordinate3
	Material {
		ambientColor      0.0618 0.0618 0.0618  #ambientColor
		diffuseColor      0.2471 0.2471 0.2471  #diffuseColor
		transparency      0.0000                #transparency
	} #Material

	Texture2 {
		filename ""  #filename
		wrapS REPEAT 
		wrapT REPEAT 
	} #Texture2

	IndexedFaceSet {
		coordIndex [ 
		 0, 1, 2, 3, 4, 5, 6, 7,-1,
		 7, 6, 5, 4, 3, 2, 1, 0,-1,
		 0, 7, 15, 8,-1,
		 8, 15, 7, 0,-1,
		 1, 0, 8, 9,-1,
		 9, 8, 0, 1,-1,
		 2, 1, 9, 10,-1,
		 10, 9, 1, 2,-1,
		 3, 2, 10, 11,-1,
		 11, 10, 2, 3,-1,
		 4, 3, 11, 12,-1,
		 12, 11, 3, 4,-1,
		 5, 4, 12, 13,-1,
		 13, 12, 4, 5,-1,
		 6, 5, 13, 14,-1,
		 14, 13, 5, 6,-1,
		 7, 6, 14, 15,-1,
		 15, 14, 6, 7,-1,
		 16, 8, 15, 17,-1,
		 18, 9, 19, 20, 21,-1,
		 22, 18, 21, 23,-1,
		 24, 10, 22, 23, 25,-1,
		 26, 12, 11, 27,-1,
		 28, 13, 26, 29, 30,-1,
		 31, 28, 30, 32,-1,
		 33, 14, 31, 32, 34,-1,
		]
	} #IndexedFaceSet
	Material {
		ambientColor      0.0000 0.0000 0.0000  #ambientColor
		diffuseColor      0.0000 0.0000 0.0000  #diffuseColor
		transparency      0.0000                #transparency
	} #Material

	IndexedFaceSet {
		coordIndex [ 
		 35, 20, 34, 36,-1,
		 37, 21, 38, 39, 40,-1,
		 41, 42, 43, 44,-1,
		 45, 46, 47, 48,-1,
		 49, 50, 51, 52,-1,
		 53, 54, 55, 56,-1,
		 57, 53, 58, 59,-1,
		 60, 29, 25, 61,-1,
		 62, 63, 64, 65,-1,
		 66, 67, 68, 69,-1,
		 70, 71, 72, 73,-1,
		 74, 75, 76, 77,-1,
		 78, 60, 79, 80,-1,
		 30, 78, 81, 82,-1,
		 83, 84, 85, 86,-1,
		 87, 88, 89, 90,-1,
		 91, 92, 93, 94,-1,
		 95, 96, 97, 98,-1,
		 99, 100, 101, 102,-1,
		 103, 104, 105, 106,-1,
		 107, 108, 109, 110,-1,
		 111, 112, 113, 114,-1,
		 115, 116, 117, 118,-1,
		 119, 120, 121, 122,-1,
		 123, 124, 125, 126,-1,
		 127, 128, 129, 32,-1,
		 130, 131, 132, 133,-1,
		 134, 135, 136, 137,-1,
		 138, 139, 140, 141,-1,
		 32, 134, 142, 143,-1,
		 144, 145, 146, 147,-1,
		 148, 149, 150, 151,-1,
		 152, 153, 154, 155,-1,
		 156, 148, 157, 158,-1,
		 159, 160, 161, 162,-1,
		 163, 164, 165, 166,-1,
		 167, 43, 168, 169,-1,
		]
	} #IndexedFaceSet
	Material {
		ambientColor      0.0000 0.0000 0.2500  #ambientColor
		diffuseColor      0.0000 0.0000 1.0000  #diffuseColor
		transparency      0.0000                #transparency
	} #Material

	IndexedFaceSet {
		coordIndex [ 
		 170, 39, 128, 171,-1,
		 172, 173, 174, 175,-1,
		 176, 177, 178, 179,-1,
		 180, 181, 182, 183,-1,
		 184, 159, 40, 185,-1,
		 186, 187, 188, 189,-1,
		 190, 191, 192, 193,-1,
		 194, 195, 196, 197,-1,
		 198, 199, 200, 201,-1,
		 202, 184, 203, 204,-1,
		 205, 163, 162, 161,-1,
		 206, 152, 147, 146,-1,
		 158, 157, 155, 154,-1,
		 207, 138, 133, 132,-1,
		 169, 168, 166, 165,-1,
		]
	} #IndexedFaceSet
	Material {
		ambientColor      0.2500 0.0000 0.0000  #ambientColor
		diffuseColor      1.0000 0.0000 0.0000  #diffuseColor
		transparency      0.0000                #transparency
	} #Material

	IndexedFaceSet {
		coordIndex [ 
		 208, 194, 183, 182,-1,
		 209, 198, 197, 196,-1,
		 179, 203, 201, 174,-1,
		]
	} #IndexedFaceSet
	Material {
		ambientColor      0.2088 0.2088 0.0000  #ambientColor
		diffuseColor      0.8353 0.8353 0.0000  #diffuseColor
		transparency      0.0000                #transparency
	} #Material

	IndexedFaceSet {
		coordIndex [ 
		 210, 95, 48, 47,-1,
		 211, 62, 54, 57,-1,
		 212, 115, 98, 97,-1,
		 213, 87, 86, 85,-1,
		 214, 119, 118, 117,-1,
		 215, 66, 65, 64,-1,
		 216, 217, 218, 219,-1,
		 220, 221, 71, 121,-1,
		 222, 103, 102, 101,-1,
		 223, 79, 224, 105,-1,
		 94, 113, 110, 89,-1,
		 73, 72, 69, 68,-1,
		 82, 81, 77, 76,-1,
		 59, 58, 52, 51,-1,
		]
	} #IndexedFaceSet
	Material {
		ambientColor      0.0000 0.0000 0.2500  #ambientColor
		diffuseColor      0.0000 0.0000 1.0000  #diffuseColor
		transparency      0.0000                #transparency
	} #Material

	IndexedFaceSet {
		coordIndex [ 
		 225, 142, 141, 226,-1,
		]
	} #IndexedFaceSet
	Material {
		ambientColor      0.0618 0.0618 0.0618  #ambientColor
		diffuseColor      0.2471 0.2471 0.2471  #diffuseColor
		transparency      0.0000                #transparency
	} #Material

	IndexedFaceSet {
		coordIndex [ 
		 227, 15, 8, 228,-1,
		 21, 20, 229, 9, 230,-1,
		 23, 21, 230, 231,-1,
		 25, 23, 231, 10, 232,-1,
		 233, 11, 12, 234,-1,
		 30, 29, 234, 13, 235,-1,
		 32, 30, 235, 236,-1,
		 34, 32, 236, 14, 237,-1,
		]
	} #IndexedFaceSet
	Material {
		ambientColor      0.0000 0.0000 0.0000  #ambientColor
		diffuseColor      0.0000 0.0000 0.0000  #diffuseColor
		transparency      0.0000                #transparency
	} #Material

	IndexedFaceSet {
		coordIndex [ 
		 238, 34, 20, 239,-1,
		 40, 39, 240, 21, 241,-1,
		 242, 243, 244, 245,-1,
		 48, 47, 246, 247,-1,
		 52, 51, 248, 249,-1,
		 250, 251, 54, 252,-1,
		 59, 58, 252, 57,-1,
		 253, 25, 29, 254,-1,
		 65, 64, 255, 62,-1,
		 69, 68, 256, 66,-1,
		 73, 72, 71, 257,-1,
		 77, 76, 258, 259,-1,
		 260, 79, 254, 261,-1,
		 82, 81, 261, 30,-1,
		 86, 85, 262, 263,-1,
		 264, 89, 265, 87,-1,
		 94, 266, 267, 268,-1,
		 98, 97, 269, 95,-1,
		 102, 101, 270, 271,-1,
		 272, 105, 273, 103,-1,
		 110, 274, 275, 276,-1,
		 277, 113, 278, 279,-1,
		 118, 117, 280, 115,-1,
		 281, 121, 282, 119,-1,
		 283, 284, 285, 286,-1,
		 32, 287, 128, 288,-1,
		 133, 132, 289, 290,-1,
		 291, 292, 293, 294,-1,
		 141, 295, 296, 138,-1,
		 297, 142, 294, 32,-1,
		 147, 146, 298, 299,-1,
		 300, 301, 302, 303,-1,
		 155, 154, 304, 152,-1,
		 158, 157, 303, 305,-1,
		 162, 161, 306, 159,-1,
		 166, 165, 307, 163,-1,
		 169, 168, 243, 308,-1,
		]
	} #IndexedFaceSet
	Material {
		ambientColor      0.0000 0.0000 0.2500  #ambientColor
		diffuseColor      0.0000 0.0000 1.0000  #diffuseColor
		transparency      0.0000                #transparency
	} #Material

	IndexedFaceSet {
		coordIndex [ 
		 309, 128, 39, 310,-1,
		 311, 174, 312, 313,-1,
		 179, 314, 315, 316,-1,
		 183, 182, 317, 318,-1,
		 319, 40, 159, 320,-1,
		 321, 322, 323, 324,-1,
		 325, 326, 327, 328,-1,
		 197, 196, 329, 194,-1,
		 201, 330, 331, 198,-1,
		 332, 203, 320, 333,-1,
		 161, 162, 163, 205,-1,
		 146, 147, 152, 206,-1,
		 154, 155, 157, 158,-1,
		 132, 133, 138, 207,-1,
		 165, 166, 168, 169,-1,
		]
	} #IndexedFaceSet
	Material {
		ambientColor      0.2500 0.0000 0.0000  #ambientColor
		diffuseColor      1.0000 0.0000 0.0000  #diffuseColor
		transparency      0.0000                #transparency
	} #Material

	IndexedFaceSet {
		coordIndex [ 
		 182, 183, 194, 208,-1,
		 196, 197, 198, 209,-1,
		 174, 201, 203, 179,-1,
		]
	} #IndexedFaceSet
	Material {
		ambientColor      0.2088 0.2088 0.0000  #ambientColor
		diffuseColor      0.8353 0.8353 0.0000  #diffuseColor
		transparency      0.0000                #transparency
	} #Material

	IndexedFaceSet {
		coordIndex [ 
		 47, 48, 95, 210,-1,
		 57, 54, 62, 211,-1,
		 97, 98, 115, 212,-1,
		 85, 86, 87, 213,-1,
		 117, 118, 119, 214,-1,
		 64, 65, 66, 215,-1,
		 219, 218, 217, 216,-1,
		 121, 71, 221, 220,-1,
		 101, 102, 103, 222,-1,
		 105, 224, 79, 223,-1,
		 89, 110, 113, 94,-1,
		 68, 69, 72, 73,-1,
		 76, 77, 81, 82,-1,
		 51, 52, 58, 59,-1,
		]
	} #IndexedFaceSet
	Material {
		ambientColor      0.0000 0.0000 0.2500  #ambientColor
		diffuseColor      0.0000 0.0000 1.0000  #diffuseColor
		transparency      0.0000                #transparency
	} #Material

	IndexedFaceSet {
		coordIndex [ 
		 226, 141, 142, 225,-1,
		]
	} #IndexedFaceSet
} #Polyhedron
}
