#VRML V1.0 ascii

Separator {
	Info { string "Virtus 3D Website Builder 1.0
	VRML Export Filter
	Virtus Corporation
	114 MacKenan Drive, Suite 100
	Cary, NC 27511
	919-467-9700"}

	DEF BackgroundColor Info{  # Sky color
		string " 0.3 0.8 1.0 "
	}

	DirectionalLight {
		on         TRUE          # SFBool
		intensity  1.0           # SFFloat
		color      0.4 0.4 0.4   # SFColor
		direction  0 0 0   # SFVec3f
	}

	DirectionalLight {
		on         TRUE          # SFBool
		intensity  1.0           # SFFloat
		color      0.5 0.5 0.5   # SFColor
		direction  34 -247 -57   # SFVec3f
	}

	DirectionalLight {
		on         TRUE          # SFBool
		intensity  1.0           # SFFloat
		color      0.4 0.4 0.4   # SFColor
		direction  -209 -104 105   # SFVec3f
	}

	DirectionalLight {
		on         TRUE          # SFBool
		intensity  1.0           # SFFloat
		color      0.5 0.5 0.5   # SFColor
		direction  5 119 -226   # SFVec3f
	}

	PerspectiveCamera {
		position 6.8580 2.4892 2.1082          #SFVec3f 
		orientation 0 1 0  1.2276     #SFRotation 
		focalDistance  5            #SFFloat 
		heightAngle 2.1726 
	}

	ShapeHints {
		vertexOrdering	CLOCKWISE
		shapeType	SOLID
	}

	Transform {
		translation 0 0 0
		scaleFactor 1.0 1.0 1.0
	}

Separator { #Polyhedron
	DEF COORD0 Coordinate3 {
		point [
		 3.2329 0.0000 -3.6640,
		 4.8768 0.0000 -0.3048,
		 3.6640 0.0000 3.2329,
		 0.3048 0.0000 4.8768,
		 -3.2329 0.0000 3.6640,
		 -4.8768 0.0000 0.3048,
		 -3.6640 0.0000 -3.2329,
		 -0.3048 0.0000 -4.8768,
		 3.2329 -0.3048 -3.6640,
		 4.8768 -0.3048 -0.3048,
		 3.6640 -0.3048 3.2329,
		 0.3048 -0.3048 4.8768,
		 -3.2329 -0.3048 3.6640,
		 -4.8768 -0.3048 0.3048,
		 -3.6640 -0.3048 -3.2329,
		 -0.3048 -0.3048 -4.8768
		]
	} #Coordinate3
	Material {
		ambientColor      0.2500 0.2500 0.2500  #ambientColor
		diffuseColor      1.0000 1.0000 1.0000  #diffuseColor
		transparency      0.0000                #transparency
	} #Material

	IndexedFaceSet {
		coordIndex [ 
		 0, 1, 2, 3, 4, 5, 6, 7,-1,
		 7, 6, 5, 4, 3, 2, 1, 0,-1,
		 0, 7, 15, 8,-1,
		 8, 15, 7, 0,-1,
		 1, 0, 8, 9,-1,
		 9, 8, 0, 1,-1,
		 2, 1, 9, 10,-1,
		 10, 9, 1, 2,-1,
		 3, 2, 10, 11,-1,
		 11, 10, 2, 3,-1,
		 4, 3, 11, 12,-1,
		 12, 11, 3, 4,-1,
		 5, 4, 12, 13,-1,
		 13, 12, 4, 5,-1,
		 6, 5, 13, 14,-1,
		 14, 13, 5, 6,-1,
		 7, 6, 14, 15,-1,
		 15, 14, 6, 7,-1,
		 15, 14, 13, 12, 11, 10, 9, 8,-1,
		 8, 9, 10, 11, 12, 13, 14, 15,-1,
		]
	} #IndexedFaceSet
} #Polyhedron
Separator { #Polyhedron
	DEF COORD1 Coordinate3 {
		point [
		 -2.7432 0.7620 -2.8956,
		 -2.7879 0.7620 -2.7878,
		 -2.8956 0.7620 -2.7432,
		 -3.0034 0.7620 -2.7878,
		 -3.0480 0.7620 -2.8956,
		 -3.0034 0.7620 -3.0034,
		 -2.8956 0.7620 -3.0480,
		 -2.7879 0.7620 -3.0034,
		 -2.7432 0.0000 -2.8956,
		 -2.7879 0.0000 -2.7878,
		 -2.8956 0.0000 -2.7432,
		 -3.0034 0.0000 -2.7878,
		 -3.0480 0.0000 -2.8956,
		 -3.0034 0.0000 -3.0034,
		 -2.8956 0.0000 -3.0480,
		 -2.7879 0.0000 -3.0034
		]
	} #Coordinate3
	Material {
		ambientColor      0.1461 0.1461 0.1461  #ambientColor
		diffuseColor      0.5843 0.5843 0.5843  #diffuseColor
		transparency      0.0000                #transparency
	} #Material

	IndexedFaceSet {
		coordIndex [ 
		 0, 1, 2, 3, 4, 5, 6, 7,-1,
		 7, 6, 5, 4, 3, 2, 1, 0,-1,
		 0, 7, 15, 8,-1,
		 8, 15, 7, 0,-1,
		 1, 0, 8, 9,-1,
		 9, 8, 0, 1,-1,
		 2, 1, 9, 10,-1,
		 10, 9, 1, 2,-1,
		 3, 2, 10, 11,-1,
		 11, 10, 2, 3,-1,
		 4, 3, 11, 12,-1,
		 12, 11, 3, 4,-1,
		 5, 4, 12, 13,-1,
		 13, 12, 4, 5,-1,
		 6, 5, 13, 14,-1,
		 14, 13, 5, 6,-1,
		 7, 6, 14, 15,-1,
		 15, 14, 6, 7,-1,
		 15, 14, 13, 12, 11, 10, 9, 8,-1,
		 8, 9, 10, 11, 12, 13, 14, 15,-1,
		]
	} #IndexedFaceSet
} #Polyhedron
Separator { #Polyhedron
	DEF COORD2 Coordinate3 {
		point [
		 -2.2175 0.8066 -2.0651,
		 -2.2490 0.9144 -2.0335,
		 -2.2175 1.0222 -2.0651,
		 -2.1413 1.0668 -2.1413,
		 -2.0651 1.0222 -2.2175,
		 -2.0335 0.9144 -2.2490,
		 -2.0651 0.8066 -2.2175,
		 -2.1413 0.7620 -2.1413,
		 -2.8641 0.8066 -2.7116,
		 -2.8956 0.9144 -2.6801,
		 -2.8641 1.0222 -2.7116,
		 -2.7879 1.0668 -2.7878,
		 -2.7117 1.0222 -2.8640,
		 -2.6801 0.9144 -2.8956,
		 -2.7117 0.8066 -2.8640,
		 -2.7879 0.7620 -2.7878
		]
	} #Coordinate3
	Material {
		ambientColor      0.1461 0.1461 0.1461  #ambientColor
		diffuseColor      0.5843 0.5843 0.5843  #diffuseColor
		transparency      0.0000                #transparency
	} #Material

	IndexedFaceSet {
		coordIndex [ 
		 0, 7, 15, 8,-1,
		 8, 15, 7, 0,-1,
		 1, 0, 8, 9,-1,
		 9, 8, 0, 1,-1,
		 3, 2, 10, 11,-1,
		 11, 10, 2, 3,-1,
		 4, 3, 11, 12,-1,
		 12, 11, 3, 4,-1,
		 5, 4, 12, 13,-1,
		 13, 12, 4, 5,-1,
		 7, 6, 14, 15,-1,
		 15, 14, 6, 7,-1,
		]
	} #IndexedFaceSet
} #Polyhedron
Separator { #Polyhedron
	DEF COORD3 Coordinate3 {
		point [
		 -2.6801 1.0668 -2.8956,
		 -2.6801 0.7620 -2.8956,
		 -2.8956 0.7620 -2.6801,
		 -2.8956 1.0668 -2.6801,
		 -2.8956 1.0668 -3.1111,
		 -2.8956 0.7620 -3.1111,
		 -3.1111 0.7620 -2.8956,
		 -3.1111 1.0668 -2.8956
		]
	} #Coordinate3
	Material {
		ambientColor      0.1461 0.1461 0.1461  #ambientColor
		diffuseColor      0.5843 0.5843 0.5843  #diffuseColor
		transparency      0.0000                #transparency
	} #Material

	IndexedFaceSet {
		coordIndex [ 
		 0, 3, 7, 4,-1,
		 4, 7, 3, 0,-1,
		 2, 1, 5, 6,-1,
		 6, 5, 1, 2,-1,
		]
	} #IndexedFaceSet
} #Polyhedron
Separator { #Polyhedron
	DEF COORD4 Coordinate3 {
		point [
		 -1.7250 2.0051 -2.9463,
		 -1.4184 1.7288 -3.0707,
		 -1.1451 0.9001 -2.7975,
		 -1.2696 0.6239 -2.4909,
		 -2.4549 0.6239 -1.3055,
		 -2.7615 0.9001 -1.1810,
		 -3.0348 1.7288 -1.4543,
		 -2.9103 2.0051 -1.7609,
		 -1.8226 1.9407 -3.0439,
		 -1.5160 1.6644 -3.1684,
		 -1.2428 0.8357 -2.8951,
		 -1.3672 0.5595 -2.5885,
		 -2.5526 0.5595 -1.4032,
		 -2.8592 0.8357 -1.2787,
		 -3.1324 1.6644 -1.5519,
		 -3.0080 1.9407 -1.8585,
		 -1.6217 1.0383 -2.4120,
		 -1.5762 0.9002 -2.3664,
		 -1.6840 0.9002 -2.2587,
		 -1.7295 1.0383 -2.3042
		]
	} #Coordinate3
	Material {
		ambientColor      0.2088 0.2088 0.0000  #ambientColor
		diffuseColor      0.8353 0.8353 0.0000  #diffuseColor
		transparency      0.0000                #transparency
	} #Material

	IndexedFaceSet {
		coordIndex [ 
		 16, 17, 18, 19,-1,
		 19, 18, 17, 16,-1,
		]
	} #IndexedFaceSet
	Material {
		ambientColor      0.0275 0.0275 0.0275  #ambientColor
		diffuseColor      0.1098 0.1098 0.1098  #diffuseColor
		transparency      0.0000                #transparency
	} #Material

	IndexedFaceSet {
		coordIndex [ 
		 0, 7, 15, 8,-1,
		 8, 15, 7, 0,-1,
		 1, 0, 8, 9,-1,
		 9, 8, 0, 1,-1,
		 2, 1, 9, 10,-1,
		 10, 9, 1, 2,-1,
		 3, 2, 10, 11,-1,
		 11, 10, 2, 3,-1,
		 4, 3, 11, 12,-1,
		 12, 11, 3, 4,-1,
		 5, 4, 12, 13,-1,
		 13, 12, 4, 5,-1,
		 6, 5, 13, 14,-1,
		 14, 13, 5, 6,-1,
		 7, 6, 14, 15,-1,
		 15, 14, 6, 7,-1,
		 15, 14, 13, 12, 11, 10, 9, 8,-1,
		 8, 9, 10, 11, 12, 13, 14, 15,-1,
		]
	} #IndexedFaceSet
} #Polyhedron
Separator { #Polyhedron
	DEF COORD5 Coordinate3 {
		point [
		 -4.1021 2.4384 0.3192,
		 -4.0161 2.4384 0.3980,
		 -4.0111 2.4384 0.5145,
		 -4.0899 2.4384 0.6005,
		 -4.2064 2.4384 0.6056,
		 -4.2924 2.4384 0.5268,
		 -4.2975 2.4384 0.4103,
		 -4.2187 2.4384 0.3243,
		 -4.1021 0.0000 0.3192,
		 -4.0161 0.0000 0.3980,
		 -4.0111 0.0000 0.5145,
		 -4.0899 0.0000 0.6005,
		 -4.2064 0.0000 0.6056,
		 -4.2924 0.0000 0.5268,
		 -4.2975 0.0000 0.4103,
		 -4.2187 0.0000 0.3243
		]
	} #Coordinate3
	Material {
		ambientColor      0.1461 0.1461 0.1461  #ambientColor
		diffuseColor      0.5843 0.5843 0.5843  #diffuseColor
		transparency      0.0000                #transparency
	} #Material

	IndexedFaceSet {
		coordIndex [ 
		 0, 1, 2, 3, 4, 5, 6, 7,-1,
		 7, 6, 5, 4, 3, 2, 1, 0,-1,
		 0, 7, 15, 8,-1,
		 8, 15, 7, 0,-1,
		 1, 0, 8, 9,-1,
		 9, 8, 0, 1,-1,
		 2, 1, 9, 10,-1,
		 10, 9, 1, 2,-1,
		 3, 2, 10, 11,-1,
		 11, 10, 2, 3,-1,
		 4, 3, 11, 12,-1,
		 12, 11, 3, 4,-1,
		 5, 4, 12, 13,-1,
		 13, 12, 4, 5,-1,
		 6, 5, 13, 14,-1,
		 14, 13, 5, 6,-1,
		 7, 6, 14, 15,-1,
		 15, 14, 6, 7,-1,
		 15, 14, 13, 12, 11, 10, 9, 8,-1,
		 8, 9, 10, 11, 12, 13, 14, 15,-1,
		]
	} #IndexedFaceSet
} #Polyhedron
Separator { #Polyhedron
	DEF COORD6 Coordinate3 {
		point [
		 -4.0805 2.7432 0.2599,
		 -3.9517 2.7432 0.5361,
		 -4.2280 2.7432 0.6649,
		 -4.3568 2.7432 0.3887,
		 -4.0805 2.4384 0.2599,
		 -3.9517 2.4384 0.5361,
		 -4.2280 2.4384 0.6649,
		 -4.3568 2.4384 0.3887
		]
	} #Coordinate3
	Material {
		ambientColor      0.1461 0.1461 0.1461  #ambientColor
		diffuseColor      0.5843 0.5843 0.5843  #diffuseColor
		transparency      0.0000                #transparency
	} #Material

	IndexedFaceSet {
		coordIndex [ 
		 0, 1, 2, 3,-1,
		 3, 2, 1, 0,-1,
		 0, 3, 7, 4,-1,
		 4, 7, 3, 0,-1,
		 1, 0, 4, 5,-1,
		 5, 4, 0, 1,-1,
		 2, 1, 5, 6,-1,
		 6, 5, 1, 2,-1,
		 3, 2, 6, 7,-1,
		 7, 6, 2, 3,-1,
		 7, 6, 5, 4,-1,
		 4, 5, 6, 7,-1,
		]
	} #IndexedFaceSet
} #Polyhedron
Separator { #Polyhedron
	DEF COORD7 Coordinate3 {
		point [
		 -2.6804 2.6986 -0.3437,
		 -2.6993 2.5908 -0.3841,
		 -2.6804 2.4830 -0.3437,
		 -2.6349 2.4384 -0.2460,
		 -2.5894 2.4830 -0.1483,
		 -2.5705 2.5908 -0.1079,
		 -2.5894 2.6986 -0.1483,
		 -2.6349 2.7432 -0.2460,
		 -4.3379 2.6986 0.4291,
		 -4.3568 2.5908 0.3887,
		 -4.3379 2.4830 0.4291,
		 -4.2924 2.4384 0.5268,
		 -4.2469 2.4830 0.6245,
		 -4.2280 2.5908 0.6649,
		 -4.2469 2.6986 0.6245,
		 -4.2924 2.7432 0.5268
		]
	} #Coordinate3
	Material {
		ambientColor      0.1461 0.1461 0.1461  #ambientColor
		diffuseColor      0.5843 0.5843 0.5843  #diffuseColor
		transparency      0.0000                #transparency
	} #Material

	IndexedFaceSet {
		coordIndex [ 
		 0, 1, 2, 3, 4, 5, 6, 7,-1,
		 7, 6, 5, 4, 3, 2, 1, 0,-1,
		 0, 7, 15, 8,-1,
		 8, 15, 7, 0,-1,
		 1, 0, 8, 9,-1,
		 9, 8, 0, 1,-1,
		 2, 1, 9, 10,-1,
		 10, 9, 1, 2,-1,
		 3, 2, 10, 11,-1,
		 11, 10, 2, 3,-1,
		 4, 3, 11, 12,-1,
		 12, 11, 3, 4,-1,
		 5, 4, 12, 13,-1,
		 13, 12, 4, 5,-1,
		 6, 5, 13, 14,-1,
		 14, 13, 5, 6,-1,
		 7, 6, 14, 15,-1,
		 15, 14, 6, 7,-1,
		 15, 14, 13, 12, 11, 10, 9, 8,-1,
		 8, 9, 10, 11, 12, 13, 14, 15,-1,
		]
	} #IndexedFaceSet
} #Polyhedron
Separator { #Polyhedron
	DEF COORD8 Coordinate3 {
		point [
		 -1.8574 2.6466 0.5685,
		 -2.7589 2.6466 -1.3652,
		 -2.9615 2.3826 -1.4390,
		 -3.3758 1.5907 -1.2458,
		 -2.3454 1.5907 0.9642,
		 -1.9311 2.3826 0.7710,
		 -1.9770 2.7228 0.6242,
		 -2.8786 2.7228 -1.3095,
		 -3.0811 2.4588 -1.3832,
		 -3.4954 1.6669 -1.1900,
		 -2.4650 1.6669 1.0200,
		 -2.0507 2.4588 0.8268,
		 -3.3067 1.7228 -1.2780,
		 -2.2763 1.7228 0.9320,
		 -2.0645 2.2507 0.6651,
		 -2.3407 1.7228 0.7938,
		 -2.2763 1.7228 0.9320,
		 -2.0001 2.2507 0.8032,
		 -1.9908 2.5146 0.4626,
		 -1.8942 2.5146 0.6697,
		 -2.2484 2.5146 -0.0899,
		 -1.8942 2.5146 0.6697,
		 -1.8942 2.5146 0.6697,
		 -2.8602 2.5146 -1.4021,
		 -3.2423 1.7228 -1.1399,
		 -2.6627 1.7228 0.1033,
		 -2.6627 1.7228 0.1033,
		 -2.4509 2.2507 -0.1636,
		 -2.7271 1.7228 -0.0348,
		 -2.6627 1.7228 0.1033,
		 -2.3865 2.2507 -0.0255,
		 -2.5750 2.3826 -0.6102,
		 -2.6441 2.2507 -0.5780,
		 -2.3865 2.2507 -0.0255,
		 -2.3174 2.3826 -0.0577,
		 -2.3128 2.5146 -0.2280,
		 -2.3818 2.3826 -0.1958,
		 -2.3174 2.3826 -0.0577,
		 -2.5106 2.3826 -0.4720,
		 -2.4416 2.5146 -0.5042,
		 -2.5060 2.5146 -0.6424,
		 -2.5750 2.3826 -0.6102,
		 -2.8559 1.7228 -0.3111,
		 -2.5797 2.2507 -0.4399,
		 -2.9203 1.7228 -0.4492,
		 -2.9661 2.2507 -1.2685,
		 -2.7636 2.5146 -1.1948,
		 -3.0305 2.2507 -1.4068,
		 -3.3067 1.7228 -1.2780,
		 -2.6397 1.7668 0.0925,
		 -2.3177 1.7668 0.7831,
		 -2.2578 1.9427 0.6711,
		 -2.3499 1.7668 0.7141,
		 -2.3177 1.7668 0.7831,
		 -2.2256 1.9427 0.7402,
		 -2.2333 2.0307 0.6036,
		 -2.2793 1.9427 0.6251,
		 -2.2256 1.9427 0.7402,
		 -2.1796 2.0307 0.7187,
		 -2.2754 2.0527 0.4832,
		 -2.2869 2.0307 0.4885,
		 -2.1796 2.0307 0.7187,
		 -2.1681 2.0527 0.7134,
		 -2.1681 2.0527 0.7134,
		 -2.1450 2.0968 0.7026,
		 -2.4670 2.0968 0.0120,
		 -2.4901 2.0527 0.0228,
		 -2.3084 2.0307 0.4425,
		 -2.2969 2.0527 0.4371,
		 -2.5016 2.0307 0.0282,
		 -2.2984 2.0087 0.4939,
		 -2.3330 1.9427 0.5100,
		 -2.3115 1.9427 0.5560,
		 -2.2770 2.0087 0.5399,
		 -2.3544 1.9427 0.4640,
		 -2.3199 2.0087 0.4479,
		 -2.3414 2.0087 0.4018,
		 -2.3759 1.9427 0.4179,
		 -2.2869 2.0307 0.4885,
		 -2.2984 2.0087 0.4939,
		 -2.2770 2.0087 0.5399,
		 -2.2655 2.0307 0.5346,
		 -2.3199 2.0087 0.4479,
		 -2.3084 2.0307 0.4425,
		 -2.5131 2.0087 0.0335,
		 -2.5154 1.9427 0.1187,
		 -2.4809 2.0087 0.1026,
		 -2.5476 1.9427 0.0496,
		 -2.3568 1.8767 0.5491,
		 -2.4143 1.7668 0.5759,
		 -2.4036 1.7668 0.5990,
		 -2.3460 1.8767 0.5721,
		 -2.5591 1.9207 0.0550,
		 -2.5821 1.8767 0.0657,
		 -2.3460 1.8767 0.5721,
		 -2.3230 1.9207 0.5614,
		 -2.3330 1.9427 0.5100,
		 -2.3445 1.9207 0.5154,
		 -2.3230 1.9207 0.5614,
		 -2.3115 1.9427 0.5560,
		 -2.3659 1.9207 0.4693,
		 -2.3544 1.9427 0.4640,
		 -2.3759 1.9427 0.4179,
		 -2.3874 1.9207 0.4233,
		 -2.5269 1.9207 0.1240,
		 -2.5154 1.9427 0.1187,
		 -2.5591 1.9207 0.0550,
		 -2.5070 1.8767 0.2268,
		 -2.5646 1.7668 0.2537,
		 -2.5324 1.7668 0.3227,
		 -2.4748 1.8767 0.2959,
		 -2.6075 1.7668 0.1616,
		 -2.5499 1.8767 0.1348,
		 -2.6397 1.7668 0.0925,
		 -2.0967 2.2507 0.5960,
		 -2.1772 2.0967 0.6335,
		 -2.1450 2.0967 0.7026,
		 -2.0645 2.2507 0.6650,
		 -2.0468 2.4487 0.4326,
		 -2.0092 2.4487 0.5131,
		 -2.2507 2.4487 -0.0048,
		 -2.0092 2.4487 0.5131,
		 -2.0092 2.4487 0.5131,
		 -2.2829 2.4487 -0.0738,
		 -2.4348 2.0968 0.0810,
		 -2.4670 2.0968 0.0120,
		 -3.2193 1.7668 -1.1506,
		 -2.8973 1.7668 -0.4600,
		 -2.8136 2.0087 -0.6110,
		 -2.9402 1.7668 -0.5520,
		 -2.8973 1.7668 -0.4600,
		 -2.7707 2.0087 -0.5190,
		 -2.9202 2.0307 -0.8696,
		 -2.9440 2.0087 -0.8908,
		 -2.7707 2.0087 -0.5190,
		 -2.7592 2.0307 -0.5243,
		 -2.7717 2.0683 -0.6025,
		 -2.7914 2.0307 -0.5934,
		 -2.7592 2.0307 -0.5243,
		 -2.7395 2.0683 -0.5335,
		 -2.8880 2.0307 -0.8005,
		 -2.8683 2.0683 -0.8097,
		 -2.8992 2.0683 -0.8760,
		 -2.7568 2.0967 -0.6095,
		 -2.7717 2.0683 -0.6025,
		 -2.7395 2.0683 -0.5335,
		 -2.7247 2.0967 -0.5404,
		 -2.8683 2.0683 -0.8097,
		 -2.8534 2.0967 -0.8166,
		 -2.8964 2.0967 -0.9087,
		 -2.9401 2.0747 -0.9724,
		 -2.9162 2.0967 -0.9512,
		 -2.9500 2.0967 -1.0238,
		 -2.9615 2.0747 -1.0184,
		 -2.9610 2.0371 -0.9660,
		 -2.9812 2.0371 -1.0093,
		 -2.9639 2.0087 -0.9333,
		 -2.9961 2.0087 -1.0023,
		 -2.9133 2.0994 -0.9487,
		 -2.8964 2.0967 -0.9087,
		 -2.7247 2.0967 -0.5404,
		 -2.7233 2.0994 -0.5411,
		 -3.0236 2.1407 -1.2417,
		 -3.0452 2.0994 -1.2317,
		 -2.7233 2.0994 -0.5411,
		 -2.7016 2.1407 -0.5512,
		 -2.9584 2.1627 -1.1320,
		 -2.9699 2.1407 -1.1266,
		 -2.7016 2.1407 -0.5512,
		 -2.6901 2.1627 -0.5565,
		 -3.0021 2.1407 -1.1957,
		 -2.9906 2.1627 -1.2010,
		 -3.0121 2.1627 -1.2471,
		 -3.0236 2.1407 -1.2417,
		 -2.5505 2.4706 -0.6777,
		 -2.7116 2.1627 -0.6025,
		 -2.6901 2.1627 -0.5565,
		 -2.5290 2.4706 -0.6316,
		 -2.7759 2.4706 -1.1611,
		 -2.5290 2.4706 -0.6316,
		 -2.5290 2.4706 -0.6316,
		 -2.5060 2.5146 -0.6424,
		 -2.7636 2.5146 -1.1948,
		 -2.7973 2.4706 -1.2071,
		 -2.9009 2.2727 -1.1588,
		 -2.9584 2.1627 -1.1320,
		 -2.9370 2.1627 -1.0859,
		 -2.8794 2.2727 -1.1128,
		 -2.8794 2.2727 -1.1128,
		 -2.9492 2.2727 -1.2624,
		 -2.9906 2.1627 -1.2010,
		 -2.9331 2.2727 -1.2279,
		 -3.0121 2.1627 -1.2471,
		 -2.9162 2.0967 -0.9512,
		 -3.0466 2.0967 -1.2310,
		 -3.0712 2.0087 -1.1636,
		 -3.0252 2.0967 -1.1851,
		 -3.0927 2.0087 -1.2096,
		 -2.9884 1.9207 -0.8658,
		 -3.0690 1.7668 -0.8282,
		 -3.0368 1.7668 -0.7592,
		 -2.9562 1.9207 -0.7967,
		 -3.0620 1.9647 -1.0837,
		 -3.0850 1.9207 -1.0730,
		 -2.9562 1.9207 -0.7967,
		 -2.9332 1.9647 -0.8075,
		 -3.1172 1.9207 -1.1420,
		 -3.0942 1.9647 -1.1527,
		 -3.1157 1.9647 -1.1988,
		 -3.1387 1.9207 -1.1881,
		 -2.9975 2.0060 -1.0017,
		 -3.0191 1.9647 -0.9916,
		 -2.9332 1.9647 -0.8075,
		 -2.9116 2.0060 -0.8175,
		 -2.9440 2.0087 -0.8908,
		 -2.9469 2.0060 -0.8933,
		 -2.9102 2.0087 -0.8182,
		 -2.9639 2.0087 -0.9333,
		 -2.9961 2.0087 -1.0023,
		 -2.9975 2.0060 -1.0017,
		 -3.0943 1.9647 -1.1529,
		 -3.0712 2.0087 -1.1636,
		 -3.1157 1.9647 -1.1988,
		 -3.0850 1.9207 -1.0730,
		 -3.1656 1.7668 -1.0354,
		 -3.1441 1.7668 -0.9894,
		 -3.0636 1.9207 -1.0269,
		 -3.1978 1.7668 -1.1045,
		 -3.1172 1.9207 -1.1420,
		 -3.2193 1.7668 -1.1506,
		 -2.8559 1.7228 -0.3111,
		 -2.7271 1.7228 -0.0348,
		 -2.4416 2.5146 -0.5042,
		 -2.3128 2.5146 -0.2280,
		 -2.4119 2.1407 0.0703,
		 -2.1543 2.1407 0.6228,
		 -2.1404 2.2287 0.5323,
		 -2.1865 2.1407 0.5538,
		 -2.1543 2.1407 0.6228,
		 -2.1082 2.2287 0.6014,
		 -2.0913 2.4046 0.3973,
		 -2.1834 2.2287 0.4402,
		 -2.1082 2.2287 0.6014,
		 -2.0579 2.4046 0.4690,
		 -2.0579 2.4046 0.4690,
		 -2.2738 2.4046 0.0059,
		 -2.1918 2.2946 0.3321,
		 -2.2263 2.2287 0.3482,
		 -2.2048 2.2287 0.3942,
		 -2.1703 2.2946 0.3781,
		 -2.1664 2.4046 0.2362,
		 -2.2240 2.2946 0.2630,
		 -2.1703 2.2946 0.3781,
		 -2.1127 2.4046 0.3513,
		 -2.2454 2.2946 0.2170,
		 -2.1879 2.4046 0.1901,
		 -2.3313 2.2946 0.0328,
		 -2.2240 2.2946 0.2630,
		 -2.2585 2.2287 0.2791,
		 -2.2370 2.2287 0.3251,
		 -2.2025 2.2946 0.3090,
		 -2.2669 2.2946 0.1709,
		 -2.3014 2.2287 0.1870,
		 -2.2799 2.2287 0.2331,
		 -2.2454 2.2946 0.2170,
		 -2.3336 2.2287 0.1180,
		 -2.2991 2.2946 0.1019,
		 -2.3658 2.2287 0.0489,
		 -2.1834 2.2287 0.4402,
		 -2.2294 2.1407 0.4617,
		 -2.2079 2.1407 0.5077,
		 -2.1619 2.2287 0.4863,
		 -2.2263 2.2287 0.3482,
		 -2.2723 2.1407 0.3696,
		 -2.2508 2.1407 0.4157,
		 -2.2048 2.2287 0.3942,
		 -2.3474 2.1407 0.2085,
		 -2.3474 2.1407 0.2085,
		 -2.2830 2.1407 0.3466,
		 -2.2830 2.1407 0.3466,
		 -2.3796 2.1407 0.1394,
		 -2.3796 2.1407 0.1394,
		 -2.4118 2.1407 0.0703,
		 -2.4119 2.1407 0.0703,
		 -2.2585 2.2287 0.2791,
		 -2.3045 2.1407 0.3006,
		 -2.2830 2.1407 0.3466,
		 -2.2370 2.2287 0.3251,
		 -2.3014 2.2287 0.1870,
		 -2.3474 2.1407 0.2085,
		 -2.3259 2.1407 0.2545,
		 -2.2799 2.2287 0.2331,
		 -2.3796 2.1407 0.1394,
		 -2.3336 2.2287 0.1180,
		 -2.4118 2.1407 0.0703,
		 -2.2079 2.1407 0.5077,
		 -2.2508 2.1407 0.4157,
		 -2.2830 2.1407 0.3466,
		 -2.1879 2.4046 0.1901,
		 -2.3259 2.1407 0.2545,
		 -2.1664 2.4046 0.2362,
		 -2.2991 2.2946 0.1019,
		 -2.2669 2.2946 0.1709,
		 -2.4036 1.7668 0.5990,
		 -2.3115 1.9427 0.5560,
		 -2.2793 1.9427 0.6251,
		 -2.5324 1.7668 0.3227,
		 -2.3659 1.9207 0.4693,
		 -2.3445 1.9207 0.5154,
		 -2.5646 1.7668 0.2537,
		 -3.0368 1.7668 -0.7592,
		 -3.1441 1.7668 -0.9894,
		 -3.0690 1.7668 -0.8282,
		 -3.0620 1.9648 -1.0837,
		 -3.0620 1.9647 -1.0837,
		 -3.0191 1.9647 -0.9916,
		 -3.0191 1.9648 -0.9916,
		 -3.0191 1.9648 -0.9916,
		 -3.0942 1.9648 -1.1529,
		 -3.0942 1.9648 -1.1528,
		 -2.8534 2.0967 -0.8166,
		 -2.7914 2.0307 -0.5934,
		 -2.9140 2.2067 -1.0967,
		 -2.9370 2.1627 -1.0859,
		 -2.6886 2.2067 -0.6133,
		 -2.6180 2.3826 -0.7022,
		 -2.7100 2.2067 -0.6593,
		 -2.6886 2.2067 -0.6133,
		 -2.5965 2.3826 -0.6562,
		 -2.6601 2.4046 -0.8227,
		 -2.6716 2.3826 -0.8173,
		 -2.5965 2.3826 -0.6562,
		 -2.5850 2.4046 -0.6616,
		 -2.6693 2.4486 -0.9025,
		 -2.6923 2.4046 -0.8918,
		 -2.5850 2.4046 -0.6616,
		 -2.5620 2.4486 -0.6723,
		 -2.5620 2.4486 -0.6723,
		 -2.7874 2.4486 -1.1557,
		 -2.7138 2.4046 -0.9378,
		 -2.6908 2.4486 -0.9485,
		 -2.8104 2.4046 -1.1450,
		 -2.6923 2.4046 -0.8918,
		 -2.7038 2.3826 -0.8864,
		 -2.6824 2.3826 -0.8404,
		 -2.6709 2.4046 -0.8457,
		 -2.7782 2.4046 -1.0759,
		 -2.7897 2.3826 -1.0705,
		 -2.7253 2.3826 -0.9324,
		 -2.7138 2.4046 -0.9378,
		 -2.8004 2.3826 -1.0936,
		 -2.7889 2.4046 -1.0989,
		 -2.8219 2.3826 -1.1396,
		 -2.6716 2.3826 -0.8173,
		 -2.7637 2.2067 -0.7744,
		 -2.7422 2.2067 -0.7284,
		 -2.6502 2.3826 -0.7713,
		 -2.7038 2.3826 -0.8864,
		 -2.7959 2.2067 -0.8435,
		 -2.7744 2.2067 -0.7974,
		 -2.6824 2.3826 -0.8404,
		 -2.7698 2.3386 -0.9677,
		 -2.8388 2.2067 -0.9355,
		 -2.8174 2.2067 -0.8895,
		 -2.7483 2.3386 -0.9217,
		 -2.7897 2.3826 -1.0705,
		 -2.8127 2.3386 -1.0598,
		 -2.7483 2.3386 -0.9217,
		 -2.7253 2.3826 -0.9324,
		 -2.8234 2.3386 -1.0828,
		 -2.8004 2.3826 -1.0936,
		 -2.8449 2.3386 -1.1289,
		 -2.8127 2.3386 -1.0598,
		 -2.8818 2.2067 -1.0276,
		 -2.8603 2.2067 -0.9816,
		 -2.7912 2.3386 -1.0138,
		 -2.8925 2.2067 -1.0506,
		 -2.8234 2.3386 -1.0828,
		 -2.9140 2.2067 -1.0967,
		 -2.7422 2.2067 -0.7284,
		 -2.7744 2.2067 -0.7974,
		 -2.8174 2.2067 -0.8895,
		 -2.8603 2.2067 -0.9816,
		 -2.8388 2.2067 -0.9355,
		 -2.7889 2.4046 -1.0989,
		 -2.7782 2.4046 -1.0759,
		 -2.2763 1.7228 0.9320,
		 -3.3067 1.7228 -1.2780,
		 -2.0001 2.2507 0.8032,
		 -2.2763 1.7228 0.9320,
		 -1.8942 2.5146 0.6697,
		 -1.8942 2.5146 0.6697,
		 -2.8602 2.5146 -1.4021,
		 -1.8942 2.5146 0.6697,
		 -2.6627 1.7228 0.1033,
		 -2.3865 2.2507 -0.0255,
		 -2.6627 1.7228 0.1033,
		 -2.7271 1.7228 -0.0348,
		 -2.3174 2.3826 -0.0577,
		 -2.3865 2.2507 -0.0255,
		 -2.6441 2.2507 -0.5780,
		 -2.5750 2.3826 -0.6102,
		 -2.3174 2.3826 -0.0577,
		 -2.3128 2.5146 -0.2280,
		 -2.5750 2.3826 -0.6102,
		 -2.5060 2.5146 -0.6424,
		 -2.4416 2.5146 -0.5042,
		 -2.8559 1.7228 -0.3111,
		 -3.0305 2.2507 -1.4068,
		 -2.7636 2.5146 -1.1948,
		 -3.3067 1.7228 -1.2780,
		 -2.3177 1.7668 0.7831,
		 -2.6397 1.7668 0.0925,
		 -2.2256 1.9427 0.7402,
		 -2.3177 1.7668 0.7831,
		 -2.1796 2.0307 0.7187,
		 -2.2256 1.9427 0.7402,
		 -2.2793 1.9427 0.6251,
		 -2.1681 2.0527 0.7134,
		 -2.1796 2.0307 0.7187,
		 -2.2869 2.0307 0.4885,
		 -2.4901 2.0527 0.0228,
		 -2.4670 2.0968 0.0120,
		 -2.1450 2.0968 0.7026,
		 -2.1681 2.0527 0.7134,
		 -2.5016 2.0307 0.0282,
		 -2.3084 2.0307 0.4425,
		 -2.2770 2.0087 0.5399,
		 -2.3115 1.9427 0.5560,
		 -2.3330 1.9427 0.5100,
		 -2.2984 2.0087 0.4939,
		 -2.3759 1.9427 0.4179,
		 -2.3199 2.0087 0.4479,
		 -2.3544 1.9427 0.4640,
		 -2.2770 2.0087 0.5399,
		 -2.2984 2.0087 0.4939,
		 -2.2869 2.0307 0.4885,
		 -2.5131 2.0087 0.0335,
		 -2.3084 2.0307 0.4425,
		 -2.3199 2.0087 0.4479,
		 -2.5476 1.9427 0.0496,
		 -2.5154 1.9427 0.1187,
		 -2.3460 1.8767 0.5721,
		 -2.4036 1.7668 0.5990,
		 -2.3230 1.9207 0.5614,
		 -2.3460 1.8767 0.5721,
		 -2.5821 1.8767 0.0657,
		 -2.5591 1.9207 0.0550,
		 -2.3230 1.9207 0.5614,
		 -2.3445 1.9207 0.5154,
		 -2.3330 1.9427 0.5100,
		 -2.3759 1.9427 0.4179,
		 -2.3544 1.9427 0.4640,
		 -2.3659 1.9207 0.4693,
		 -2.5591 1.9207 0.0550,
		 -2.5154 1.9427 0.1187,
		 -2.5324 1.7668 0.3227,
		 -2.5646 1.7668 0.2537,
		 -2.6397 1.7668 0.0925,
		 -2.0645 2.2507 0.6650,
		 -2.1450 2.0967 0.7026,
		 -2.0092 2.4487 0.5131,
		 -2.0092 2.4487 0.5131,
		 -2.2829 2.4487 -0.0738,
		 -2.0092 2.4487 0.5131,
		 -2.4670 2.0968 0.0120,
		 -2.8973 1.7668 -0.4600,
		 -3.2193 1.7668 -1.1506,
		 -2.7707 2.0087 -0.5190,
		 -2.8973 1.7668 -0.4600,
		 -2.7592 2.0307 -0.5243,
		 -2.7707 2.0087 -0.5190,
		 -2.9440 2.0087 -0.8908,
		 -2.7395 2.0683 -0.5335,
		 -2.7592 2.0307 -0.5243,
		 -2.7914 2.0307 -0.5934,
		 -2.7717 2.0683 -0.6025,
		 -2.8683 2.0683 -0.8097,
		 -2.7247 2.0967 -0.5404,
		 -2.7395 2.0683 -0.5335,
		 -2.7717 2.0683 -0.6025,
		 -2.8534 2.0967 -0.8166,
		 -2.8683 2.0683 -0.8097,
		 -2.9615 2.0747 -1.0184,
		 -2.9162 2.0967 -0.9512,
		 -2.9812 2.0371 -1.0093,
		 -2.9961 2.0087 -1.0023,
		 -2.7233 2.0994 -0.5411,
		 -2.7247 2.0967 -0.5404,
		 -2.8964 2.0967 -0.9087,
		 -2.7016 2.1407 -0.5512,
		 -2.7233 2.0994 -0.5411,
		 -3.0452 2.0994 -1.2317,
		 -3.0236 2.1407 -1.2417,
		 -2.6901 2.1627 -0.5565,
		 -2.7016 2.1407 -0.5512,
		 -2.9584 2.1627 -1.1320,
		 -3.0236 2.1407 -1.2417,
		 -3.0121 2.1627 -1.2471,
		 -2.9906 2.1627 -1.2010,
		 -2.5290 2.4706 -0.6316,
		 -2.6901 2.1627 -0.5565,
		 -2.5290 2.4706 -0.6316,
		 -2.7973 2.4706 -1.2071,
		 -2.5290 2.4706 -0.6316,
		 -2.8794 2.2727 -1.1128,
		 -2.9370 2.1627 -1.0859,
		 -2.9584 2.1627 -1.1320,
		 -2.9492 2.2727 -1.2624,
		 -2.8794 2.2727 -1.1128,
		 -3.0121 2.1627 -1.2471,
		 -2.9906 2.1627 -1.2010,
		 -3.0466 2.0967 -1.2310,
		 -2.9162 2.0967 -0.9512,
		 -3.0927 2.0087 -1.2096,
		 -3.0712 2.0087 -1.1636,
		 -2.9562 1.9207 -0.7967,
		 -3.0368 1.7668 -0.7592,
		 -3.0690 1.7668 -0.8282,
		 -2.9332 1.9647 -0.8075,
		 -2.9562 1.9207 -0.7967,
		 -3.0850 1.9207 -1.0730,
		 -3.0620 1.9647 -1.0837,
		 -3.1387 1.9207 -1.1881,
		 -3.1157 1.9647 -1.1988,
		 -3.0942 1.9647 -1.1527,
		 -3.1172 1.9207 -1.1420,
		 -2.9116 2.0060 -0.8175,
		 -2.9332 1.9647 -0.8075,
		 -2.9975 2.0060 -1.0017,
		 -2.9440 2.0087 -0.8908,
		 -2.9975 2.0060 -1.0017,
		 -2.9961 2.0087 -1.0023,
		 -2.9639 2.0087 -0.9333,
		 -3.1157 1.9647 -1.1988,
		 -3.0712 2.0087 -1.1636,
		 -3.1441 1.7668 -0.9894,
		 -3.0850 1.9207 -1.0730,
		 -3.2193 1.7668 -1.1506,
		 -3.1172 1.9207 -1.1420,
		 -2.1543 2.1407 0.6228,
		 -2.4119 2.1407 0.0703,
		 -2.1082 2.2287 0.6014,
		 -2.1543 2.1407 0.6228,
		 -2.0579 2.4046 0.4690,
		 -2.1082 2.2287 0.6014,
		 -2.1834 2.2287 0.4402,
		 -2.2738 2.4046 0.0059,
		 -2.0579 2.4046 0.4690,
		 -2.1703 2.2946 0.3781,
		 -2.2048 2.2287 0.3942,
		 -2.2263 2.2287 0.3482,
		 -2.1703 2.2946 0.3781,
		 -2.2240 2.2946 0.2630,
		 -2.1664 2.4046 0.2362,
		 -2.3313 2.2946 0.0328,
		 -2.1879 2.4046 0.1901,
		 -2.2454 2.2946 0.2170,
		 -2.2370 2.2287 0.3251,
		 -2.2585 2.2287 0.2791,
		 -2.2240 2.2946 0.2630,
		 -2.2454 2.2946 0.2170,
		 -2.2799 2.2287 0.2331,
		 -2.3014 2.2287 0.1870,
		 -2.2669 2.2946 0.1709,
		 -2.3658 2.2287 0.0489,
		 -2.2991 2.2946 0.1019,
		 -2.3336 2.2287 0.1180,
		 -2.2079 2.1407 0.5077,
		 -2.1834 2.2287 0.4402,
		 -2.2048 2.2287 0.3942,
		 -2.2508 2.1407 0.4157,
		 -2.2263 2.2287 0.3482,
		 -2.2830 2.1407 0.3466,
		 -2.2830 2.1407 0.3466,
		 -2.3474 2.1407 0.2085,
		 -2.4119 2.1407 0.0703,
		 -2.4118 2.1407 0.0703,
		 -2.3796 2.1407 0.1394,
		 -2.2370 2.2287 0.3251,
		 -2.2830 2.1407 0.3466,
		 -2.2585 2.2287 0.2791,
		 -2.2799 2.2287 0.2331,
		 -2.3259 2.1407 0.2545,
		 -2.3474 2.1407 0.2085,
		 -2.3014 2.2287 0.1870,
		 -2.4118 2.1407 0.0703,
		 -2.3336 2.2287 0.1180,
		 -2.3796 2.1407 0.1394,
		 -3.0191 1.9648 -0.9916,
		 -3.0191 1.9647 -0.9916,
		 -3.0620 1.9647 -1.0837,
		 -3.0942 1.9648 -1.1529,
		 -3.0191 1.9648 -0.9916,
		 -2.6886 2.2067 -0.6133,
		 -2.9140 2.2067 -1.0967,
		 -2.5965 2.3826 -0.6562,
		 -2.6886 2.2067 -0.6133,
		 -2.5850 2.4046 -0.6616,
		 -2.5965 2.3826 -0.6562,
		 -2.6716 2.3826 -0.8173,
		 -2.5620 2.4486 -0.6723,
		 -2.5850 2.4046 -0.6616,
		 -2.6923 2.4046 -0.8918,
		 -2.7874 2.4486 -1.1557,
		 -2.5620 2.4486 -0.6723,
		 -2.8104 2.4046 -1.1450,
		 -2.7138 2.4046 -0.9378,
		 -2.6824 2.3826 -0.8404,
		 -2.7038 2.3826 -0.8864,
		 -2.6923 2.4046 -0.8918,
		 -2.7138 2.4046 -0.9378,
		 -2.7253 2.3826 -0.9324,
		 -2.7897 2.3826 -1.0705,
		 -2.7782 2.4046 -1.0759,
		 -2.8219 2.3826 -1.1396,
		 -2.7889 2.4046 -1.0989,
		 -2.8004 2.3826 -1.0936,
		 -2.7422 2.2067 -0.7284,
		 -2.6716 2.3826 -0.8173,
		 -2.6824 2.3826 -0.8404,
		 -2.7744 2.2067 -0.7974,
		 -2.7038 2.3826 -0.8864,
		 -2.7483 2.3386 -0.9217,
		 -2.8174 2.2067 -0.8895,
		 -2.8388 2.2067 -0.9355,
		 -2.7253 2.3826 -0.9324,
		 -2.7483 2.3386 -0.9217,
		 -2.8127 2.3386 -1.0598,
		 -2.7897 2.3826 -1.0705,
		 -2.8449 2.3386 -1.1289,
		 -2.8004 2.3826 -1.0936,
		 -2.8234 2.3386 -1.0828,
		 -2.8603 2.2067 -0.9816,
		 -2.8127 2.3386 -1.0598,
		 -2.9140 2.2067 -1.0967,
		 -2.8234 2.3386 -1.0828
		]
	} #Coordinate3
	Material {
		ambientColor      0.0275 0.0275 0.0275  #ambientColor
		diffuseColor      0.1098 0.1098 0.1098  #diffuseColor
		transparency      0.0000                #transparency
	} #Material

	IndexedFaceSet {
		coordIndex [ 
		 12, 3, 4, 13,-1,
		 14, 15, 16, 17,-1,
		 18, 14, 17, 5, 19,-1,
		 20, 18, 19, 21,-1,
		 22, 0, 1, 23,-1,
		 24, 25, 26,-1,
		 27, 28, 29, 30,-1,
		 31, 32, 33, 34,-1,
		 35, 36, 37, 20,-1,
		 38, 39, 40, 41,-1,
		 42, 43, 32, 44,-1,
		 45, 46, 23, 2, 47,-1,
		 24, 45, 47, 48,-1,
		]
	} #IndexedFaceSet
	Material {
		ambientColor      0.0000 0.2500 0.0000  #ambientColor
		diffuseColor      0.0000 1.0000 0.0000  #diffuseColor
		transparency      0.4980                #transparency
	} #Material

	IndexedFaceSet {
		coordIndex [ 
		 49, 25, 15, 50,-1,
		 51, 52, 53, 54,-1,
		 55, 56, 57, 58,-1,
		 59, 60, 61, 62,-1,
		 63, 64, 65, 66,-1,
		 67, 68, 66, 69,-1,
		 70, 71, 72, 73,-1,
		 74, 75, 76, 77,-1,
		 78, 79, 80, 81,-1,
		 82, 83, 69, 84,-1,
		 85, 86, 84, 87,-1,
		 88, 89, 90, 91,-1,
		 92, 93, 94, 95,-1,
		 96, 97, 98, 99,-1,
		 100, 101, 102, 103,-1,
		 104, 105, 87, 106,-1,
		 107, 108, 109, 110,-1,
		 111, 112, 93, 113,-1,
		 114, 115, 116, 14, 117,-1,
		 118, 114, 117, 119,-1,
		 120, 118, 119, 121,-1,
		 122, 18, 20, 123,-1,
		 124, 120, 123, 125,-1,
		 126, 24, 44, 127,-1,
		 128, 129, 130, 131,-1,
		 132, 133, 134, 135,-1,
		 136, 137, 138, 139,-1,
		 140, 141, 142, 132,-1,
		 143, 144, 145, 146,-1,
		 147, 148, 149, 142,-1,
		 150, 151, 152, 153,-1,
		 154, 150, 153, 155,-1,
		 156, 154, 155, 157,-1,
		 158, 159, 160, 161,-1,
		 162, 163, 164, 165,-1,
		 166, 167, 168, 169,-1,
		 170, 171, 172, 173,-1,
		 174, 175, 176, 177,-1,
		 178, 174, 177, 179,-1,
		 180, 181, 182, 183,-1,
		 184, 185, 186, 187,-1,
		 188, 178, 183, 189,-1,
		 190, 191, 189, 45, 192,-1,
		 193, 158, 163, 194,-1,
		 195, 196, 194, 197,-1,
		 198, 199, 200, 201,-1,
		 202, 203, 204, 205,-1,
		 206, 207, 208, 209,-1,
		 210, 211, 212, 213,-1,
		 214, 215, 213, 216,-1,
		 215, 217, 218, 219,-1,
		 220, 221, 197, 222,-1,
		 223, 224, 225, 226,-1,
		 227, 228, 209, 229,-1,
		]
	} #IndexedFaceSet
	Material {
		ambientColor      0.0000 0.0000 0.2500  #ambientColor
		diffuseColor      0.0000 0.0000 1.0000  #diffuseColor
		transparency      0.4980                #transparency
	} #Material

	IndexedFaceSet {
		coordIndex [ 
		 43, 230, 231, 27,-1,
		]
	} #IndexedFaceSet
	Material {
		ambientColor      0.0000 0.0000 0.2500  #ambientColor
		diffuseColor      0.0000 0.0000 1.0000  #diffuseColor
		transparency      0.0000                #transparency
	} #Material

	IndexedFaceSet {
		coordIndex [ 
		 232, 38, 36, 233,-1,
		 234, 124, 115, 235,-1,
		 236, 237, 238, 239,-1,
		 240, 241, 242, 114, 243,-1,
		 244, 118, 120, 245,-1,
		 246, 247, 248, 249,-1,
		 250, 251, 252, 253,-1,
		 254, 255, 245, 256,-1,
		 257, 258, 259, 260,-1,
		 261, 262, 263, 264,-1,
		 265, 266, 256, 267,-1,
		 268, 269, 270, 271,-1,
		 272, 273, 274, 275,-1,
		 276, 277, 278, 279,-1,
		 280, 281, 282, 283,-1,
		 284, 285, 286, 287,-1,
		 288, 289, 290, 291,-1,
		 292, 293, 267, 294,-1,
		]
	} #IndexedFaceSet
	Material {
		ambientColor      0.2500 0.0000 0.0000  #ambientColor
		diffuseColor      1.0000 0.0000 0.0000  #diffuseColor
		transparency      0.0000                #transparency
	} #Material

	IndexedFaceSet {
		coordIndex [ 
		 271, 295, 237, 236,-1,
		 253, 296, 269, 240,-1,
		 260, 297, 273, 246,-1,
		 298, 299, 285, 300,-1,
		 301, 280, 277, 302,-1,
		]
	} #IndexedFaceSet
	Material {
		ambientColor      0.2088 0.2088 0.0000  #ambientColor
		diffuseColor      0.8353 0.8353 0.0000  #diffuseColor
		transparency      0.0000                #transparency
	} #Material

	IndexedFaceSet {
		coordIndex [ 
		 99, 303, 52, 51,-1,
		 81, 304, 305, 55,-1,
		 110, 306, 89, 88,-1,
		 86, 104, 103, 76,-1,
		 68, 307, 308, 59,-1,
		 112, 111, 309, 107,-1,
		 216, 310, 129, 128,-1,
		 226, 311, 312, 198,-1,
		 313, 314, 315, 316,-1,
		 317, 152, 196, 318,-1,
		 319, 227, 224, 313,-1,
		 158, 150, 154, 156, 215, 132, 142, 149,-1,
		 320, 140, 321, 143,-1,
		]
	} #IndexedFaceSet
	Material {
		ambientColor      0.0000 0.0000 0.2500  #ambientColor
		diffuseColor      0.0000 0.0000 1.0000  #diffuseColor
		transparency      0.0000                #transparency
	} #Material

	IndexedFaceSet {
		coordIndex [ 
		 322, 323, 175, 324,-1,
		 325, 326, 327, 328,-1,
		 329, 330, 331, 332,-1,
		 333, 334, 335, 336,-1,
		 337, 174, 178, 338,-1,
		 339, 340, 338, 341,-1,
		 342, 343, 344, 345,-1,
		 346, 347, 348, 349,-1,
		 350, 351, 341, 352,-1,
		 353, 354, 355, 356,-1,
		 357, 358, 359, 360,-1,
		 361, 362, 363, 364,-1,
		 365, 366, 367, 368,-1,
		 369, 370, 352, 371,-1,
		 372, 373, 374, 375,-1,
		 376, 377, 371, 378,-1,
		]
	} #IndexedFaceSet
	Material {
		ambientColor      0.2088 0.2088 0.0000  #ambientColor
		diffuseColor      0.8353 0.8353 0.0000  #diffuseColor
		transparency      0.0000                #transparency
	} #Material

	IndexedFaceSet {
		coordIndex [ 
		 191, 170, 167, 184,-1,
		]
	} #IndexedFaceSet
	Material {
		ambientColor      0.2500 0.0000 0.0000  #ambientColor
		diffuseColor      1.0000 0.0000 0.0000  #diffuseColor
		transparency      0.0000                #transparency
	} #Material

	IndexedFaceSet {
		coordIndex [ 
		 356, 379, 326, 325,-1,
		 345, 380, 354, 329,-1,
		 340, 381, 358, 333,-1,
		 375, 382, 383, 361,-1,
		 384, 376, 373, 385,-1,
		]
	} #IndexedFaceSet
	Material {
		ambientColor      0.0275 0.0275 0.0275  #ambientColor
		diffuseColor      0.1098 0.1098 0.1098  #diffuseColor
		transparency      0.0000                #transparency
	} #Material

	IndexedFaceSet {
		coordIndex [ 
		 386, 4, 3, 387,-1,
		 388, 389, 15, 14,-1,
		 390, 5, 388, 14, 18,-1,
		 391, 390, 18, 20,-1,
		 392, 1, 0, 393,-1,
		 394, 25, 24,-1,
		 395, 396, 397, 27,-1,
		 398, 399, 400, 401,-1,
		 20, 402, 36, 403,-1,
		 404, 405, 406, 38,-1,
		 44, 400, 43, 407,-1,
		 408, 2, 392, 409, 45,-1,
		 410, 408, 45, 24,-1,
		]
	} #IndexedFaceSet
	Material {
		ambientColor      0.0000 0.2500 0.0000  #ambientColor
		diffuseColor      0.0000 1.0000 0.0000  #diffuseColor
		transparency      0.4980                #transparency
	} #Material

	IndexedFaceSet {
		coordIndex [ 
		 411, 15, 25, 412,-1,
		 413, 414, 52, 51,-1,
		 415, 416, 417, 55,-1,
		 418, 419, 420, 59,-1,
		 421, 422, 423, 424,-1,
		 425, 421, 68, 426,-1,
		 427, 428, 429, 430,-1,
		 431, 76, 432, 433,-1,
		 81, 434, 435, 436,-1,
		 437, 425, 438, 439,-1,
		 440, 437, 86, 441,-1,
		 442, 443, 89, 88,-1,
		 444, 445, 446, 447,-1,
		 99, 448, 449, 450,-1,
		 103, 451, 452, 453,-1,
		 454, 440, 455, 104,-1,
		 110, 456, 457, 107,-1,
		 458, 446, 112, 111,-1,
		 459, 14, 460, 115, 114,-1,
		 461, 459, 114, 118,-1,
		 462, 461, 118, 120,-1,
		 463, 20, 18, 464,-1,
		 465, 463, 120, 124,-1,
		 466, 44, 24, 467,-1,
		 468, 469, 129, 128,-1,
		 470, 471, 472, 132,-1,
		 473, 474, 475, 476,-1,
		 132, 142, 477, 140,-1,
		 478, 479, 480, 143,-1,
		 142, 149, 481, 482,-1,
		 483, 152, 484, 150,-1,
		 485, 483, 150, 154,-1,
		 486, 485, 154, 156,-1,
		 487, 488, 489, 158,-1,
		 490, 491, 492, 493,-1,
		 494, 495, 167, 496,-1,
		 497, 498, 499, 170,-1,
		 500, 501, 175, 174,-1,
		 502, 500, 174, 178,-1,
		 503, 182, 181, 504,-1,
		 505, 506, 507, 184,-1,
		 508, 503, 178, 509,-1,
		 510, 45, 508, 191, 511,-1,
		 512, 492, 158, 513,-1,
		 514, 512, 196, 515,-1,
		 516, 517, 518, 198,-1,
		 519, 520, 521, 522,-1,
		 523, 524, 525, 526,-1,
		 527, 528, 211, 529,-1,
		 216, 527, 215, 530,-1,
		 531, 532, 533, 215,-1,
		 534, 514, 535, 220,-1,
		 226, 536, 224, 537,-1,
		 538, 523, 539, 227,-1,
		]
	} #IndexedFaceSet
	Material {
		ambientColor      0.0000 0.0000 0.2500  #ambientColor
		diffuseColor      0.0000 0.0000 1.0000  #diffuseColor
		transparency      0.4980                #transparency
	} #Material

	IndexedFaceSet {
		coordIndex [ 
		 27, 231, 230, 43,-1,
		]
	} #IndexedFaceSet
	Material {
		ambientColor      0.0000 0.0000 0.2500  #ambientColor
		diffuseColor      0.0000 0.0000 1.0000  #diffuseColor
		transparency      0.0000                #transparency
	} #Material

	IndexedFaceSet {
		coordIndex [ 
		 233, 36, 38, 232,-1,
		 540, 115, 124, 541,-1,
		 542, 543, 237, 236,-1,
		 544, 114, 545, 546, 240,-1,
		 547, 120, 118, 548,-1,
		 549, 550, 551, 246,-1,
		 253, 552, 553, 554,-1,
		 555, 547, 556, 557,-1,
		 260, 558, 559, 560,-1,
		 561, 562, 563, 564,-1,
		 565, 555, 566, 567,-1,
		 271, 568, 269, 569,-1,
		 570, 571, 273, 572,-1,
		 573, 574, 277, 575,-1,
		 576, 577, 578, 280,-1,
		 579, 580, 285, 581,-1,
		 582, 583, 584, 585,-1,
		 586, 565, 587, 588,-1,
		]
	} #IndexedFaceSet
	Material {
		ambientColor      0.2500 0.0000 0.0000  #ambientColor
		diffuseColor      1.0000 0.0000 0.0000  #diffuseColor
		transparency      0.0000                #transparency
	} #Material

	IndexedFaceSet {
		coordIndex [ 
		 236, 237, 295, 271,-1,
		 240, 269, 296, 253,-1,
		 246, 273, 297, 260,-1,
		 300, 285, 299, 298,-1,
		 302, 277, 280, 301,-1,
		]
	} #IndexedFaceSet
	Material {
		ambientColor      0.2088 0.2088 0.0000  #ambientColor
		diffuseColor      0.8353 0.8353 0.0000  #diffuseColor
		transparency      0.0000                #transparency
	} #Material

	IndexedFaceSet {
		coordIndex [ 
		 51, 52, 303, 99,-1,
		 55, 305, 304, 81,-1,
		 88, 89, 306, 110,-1,
		 76, 103, 104, 86,-1,
		 59, 308, 307, 68,-1,
		 107, 309, 111, 112,-1,
		 128, 129, 310, 216,-1,
		 198, 312, 311, 226,-1,
		 589, 590, 591, 313,-1,
		 592, 196, 152, 593,-1,
		 313, 224, 227, 319,-1,
		 149, 142, 132, 215, 156, 154, 150, 158,-1,
		 143, 321, 140, 320,-1,
		]
	} #IndexedFaceSet
	Material {
		ambientColor      0.0000 0.0000 0.2500  #ambientColor
		diffuseColor      0.0000 0.0000 1.0000  #diffuseColor
		transparency      0.0000                #transparency
	} #Material

	IndexedFaceSet {
		coordIndex [ 
		 594, 175, 323, 595,-1,
		 596, 597, 326, 325,-1,
		 598, 599, 600, 329,-1,
		 601, 602, 603, 333,-1,
		 604, 178, 174, 605,-1,
		 606, 604, 340, 607,-1,
		 345, 608, 609, 610,-1,
		 611, 612, 613, 614,-1,
		 615, 606, 616, 617,-1,
		 356, 618, 354, 619,-1,
		 620, 621, 358, 622,-1,
		 623, 624, 625, 361,-1,
		 626, 627, 628, 629,-1,
		 630, 615, 631, 632,-1,
		 375, 633, 373, 634,-1,
		 635, 630, 636, 376,-1,
		]
	} #IndexedFaceSet
	Material {
		ambientColor      0.2088 0.2088 0.0000  #ambientColor
		diffuseColor      0.8353 0.8353 0.0000  #diffuseColor
		transparency      0.0000                #transparency
	} #Material

	IndexedFaceSet {
		coordIndex [ 
		 184, 167, 170, 191,-1,
		]
	} #IndexedFaceSet
	Material {
		ambientColor      0.2500 0.0000 0.0000  #ambientColor
		diffuseColor      1.0000 0.0000 0.0000  #diffuseColor
		transparency      0.0000                #transparency
	} #Material

	IndexedFaceSet {
		coordIndex [ 
		 325, 326, 379, 356,-1,
		 329, 354, 380, 345,-1,
		 333, 358, 381, 340,-1,
		 361, 383, 382, 375,-1,
		 385, 373, 376, 384,-1,
		]
	} #IndexedFaceSet
	Material {
		ambientColor      0.0275 0.0275 0.0275  #ambientColor
		diffuseColor      0.1098 0.1098 0.1098  #diffuseColor
		transparency      0.0000                #transparency
	} #Material

	IndexedFaceSet {
		coordIndex [ 
		 0, 5, 11, 6,-1,
		 6, 11, 5, 0,-1,
		 1, 0, 6, 7,-1,
		 7, 6, 0, 1,-1,
		 2, 1, 7, 8,-1,
		 8, 7, 1, 2,-1,
		 3, 2, 8, 9,-1,
		 9, 8, 2, 3,-1,
		 4, 3, 9, 10,-1,
		 10, 9, 3, 4,-1,
		 5, 4, 10, 11,-1,
		 11, 10, 4, 5,-1,
		 11, 10, 9, 8, 7, 6,-1,
		 6, 7, 8, 9, 10, 11,-1,
		]
	} #IndexedFaceSet
} #Polyhedron
Separator { #Polyhedron
	DEF COORD9 Coordinate3 {
		point [
		 -0.9144 0.7620 2.1336,
		 -0.9144 0.7620 3.6576,
		 -2.5908 0.7620 3.6576,
		 -2.5908 0.7620 2.1336,
		 -0.9144 0.0000 2.1336,
		 -0.9144 0.0000 3.6576,
		 -2.5908 0.0000 3.6576,
		 -2.5908 0.0000 2.1336
		]
	} #Coordinate3
	Material {
		ambientColor      0.1804 0.1804 0.1804  #ambientColor
		diffuseColor      0.7216 0.7216 0.7216  #diffuseColor
		transparency      0.0000                #transparency
	} #Material

	Texture2 {
		filename ""  #filename
		wrapS REPEAT 
		wrapT REPEAT 
	} #Texture2

	IndexedFaceSet {
		coordIndex [ 
		 0, 1, 2, 3,-1,
		 3, 2, 1, 0,-1,
		 0, 3, 7, 4,-1,
		 4, 7, 3, 0,-1,
		 1, 0, 4, 5,-1,
		 5, 4, 0, 1,-1,
		 2, 1, 5, 6,-1,
		 6, 5, 1, 2,-1,
		 3, 2, 6, 7,-1,
		 7, 6, 2, 3,-1,
		 7, 6, 5, 4,-1,
		 4, 5, 6, 7,-1,
		]
	} #IndexedFaceSet
} #Polyhedron
Separator { #Polyhedron
	DEF COORD10 Coordinate3 {
		point [
		 0.6096 0.4572 2.8956,
		 0.6096 0.4572 4.2672,
		 -0.9144 0.4572 4.2672,
		 -0.9144 0.4572 2.8956,
		 0.6096 0.0000 2.8956,
		 0.6096 0.0000 4.2672,
		 -0.9144 0.0000 4.2672,
		 -0.9144 0.0000 2.8956
		]
	} #Coordinate3
	Material {
		ambientColor      0.1804 0.1804 0.1804  #ambientColor
		diffuseColor      0.7216 0.7216 0.7216  #diffuseColor
		transparency      0.0000                #transparency
	} #Material

	IndexedFaceSet {
		coordIndex [ 
		 0, 1, 2, 3,-1,
		 3, 2, 1, 0,-1,
		 0, 3, 7, 4,-1,
		 4, 7, 3, 0,-1,
		 1, 0, 4, 5,-1,
		 5, 4, 0, 1,-1,
		 2, 1, 5, 6,-1,
		 6, 5, 1, 2,-1,
		 3, 2, 6, 7,-1,
		 7, 6, 2, 3,-1,
		 7, 6, 5, 4,-1,
		 4, 5, 6, 7,-1,
		]
	} #IndexedFaceSet
} #Polyhedron
Separator { #Polyhedron
	DEF COORD11 Coordinate3 {
		point [
		 -0.3048 0.4572 1.8288,
		 -0.3048 0.4572 2.7432,
		 -0.9144 0.4572 2.7432,
		 -0.9144 0.4572 1.8288,
		 -0.3048 0.0000 1.8288,
		 -0.3048 0.0000 2.7432,
		 -0.9144 0.0000 2.7432,
		 -0.9144 0.0000 1.8288
		]
	} #Coordinate3
	Material {
		ambientColor      0.2157 0.2157 0.2157  #ambientColor
		diffuseColor      0.8627 0.8627 0.8627  #diffuseColor
		transparency      0.0000                #transparency
	} #Material

	IndexedFaceSet {
		coordIndex [ 
		 0, 1, 2, 3,-1,
		 3, 2, 1, 0,-1,
		 0, 3, 7, 4,-1,
		 4, 7, 3, 0,-1,
		 1, 0, 4, 5,-1,
		 5, 4, 0, 1,-1,
		 2, 1, 5, 6,-1,
		 6, 5, 1, 2,-1,
		 3, 2, 6, 7,-1,
		 7, 6, 2, 3,-1,
		 7, 6, 5, 4,-1,
		 4, 5, 6, 7,-1,
		]
	} #IndexedFaceSet
} #Polyhedron
Separator { #Polyhedron
	DEF COORD12 Coordinate3 {
		point [
		 0.0000 1.3716 3.3528,
		 0.0000 1.3716 4.1148,
		 -0.7620 1.3716 4.1148,
		 -0.7620 1.3716 3.3528,
		 0.0000 0.4572 3.3528,
		 0.0000 0.4572 4.1148,
		 -0.7620 0.4572 4.1148,
		 -0.7620 0.4572 3.3528
		]
	} #Coordinate3
	Material {
		ambientColor      0.2157 0.2157 0.2157  #ambientColor
		diffuseColor      0.8627 0.8627 0.8627  #diffuseColor
		transparency      0.0000                #transparency
	} #Material

	IndexedFaceSet {
		coordIndex [ 
		 0, 1, 2, 3,-1,
		 3, 2, 1, 0,-1,
		 0, 3, 7, 4,-1,
		 4, 7, 3, 0,-1,
		 1, 0, 4, 5,-1,
		 5, 4, 0, 1,-1,
		 2, 1, 5, 6,-1,
		 6, 5, 1, 2,-1,
		 3, 2, 6, 7,-1,
		 7, 6, 2, 3,-1,
		 7, 6, 5, 4,-1,
		 4, 5, 6, 7,-1,
		]
	} #IndexedFaceSet
} #Polyhedron
Separator { #Polyhedron
	DEF COORD13 Coordinate3 {
		point [
		 -1.0668 1.2192 2.4384,
		 -1.0668 1.2192 3.3528,
		 -2.1336 1.2192 3.3528,
		 -2.1336 1.2192 2.4384,
		 -1.0668 0.7620 2.4384,
		 -1.0668 0.7620 3.3528,
		 -2.1336 0.7620 3.3528,
		 -2.1336 0.7620 2.4384
		]
	} #Coordinate3
	Material {
		ambientColor      0.2157 0.2157 0.2157  #ambientColor
		diffuseColor      0.8627 0.8627 0.8627  #diffuseColor
		transparency      0.0000                #transparency
	} #Material

	IndexedFaceSet {
		coordIndex [ 
		 0, 1, 2, 3,-1,
		 3, 2, 1, 0,-1,
		 0, 3, 7, 4,-1,
		 4, 7, 3, 0,-1,
		 1, 0, 4, 5,-1,
		 5, 4, 0, 1,-1,
		 2, 1, 5, 6,-1,
		 6, 5, 1, 2,-1,
		 3, 2, 6, 7,-1,
		 7, 6, 2, 3,-1,
		 7, 6, 5, 4,-1,
		 4, 5, 6, 7,-1,
		]
	} #IndexedFaceSet
} #Polyhedron
Separator { #Polyhedron
	DEF COORD14 Coordinate3 {
		point [
		 20.1273 2.9445 3.5761,
		 20.1351 2.7133 3.5460,
		 20.1273 2.5281 3.6876,
		 20.1085 2.4974 3.9181,
		 20.0897 2.6392 4.1024,
		 20.0820 2.8704 4.1325,
		 20.0897 3.0556 3.9909,
		 20.1085 3.0863 3.7604,
		 4.9454 2.6010 2.2939,
		 4.9532 2.3698 2.2638,
		 4.9454 2.1846 2.4055,
		 4.9266 2.1539 2.6360,
		 4.9079 2.2957 2.8203,
		 4.9001 2.5269 2.8504,
		 4.9079 2.7121 2.7087,
		 4.9266 2.7428 2.4782
		]
	} #Coordinate3
	Material {
		ambientColor      0.0000 0.2500 0.0000  #ambientColor
		diffuseColor      0.0000 1.0000 0.0000  #diffuseColor
		transparency      0.4980                #transparency
	} #Material

	IndexedFaceSet {
		coordIndex [ 
		 0, 1, 2, 3, 4, 5, 6, 7,-1,
		 7, 6, 5, 4, 3, 2, 1, 0,-1,
		 0, 7, 15, 8,-1,
		 8, 15, 7, 0,-1,
		 1, 0, 8, 9,-1,
		 9, 8, 0, 1,-1,
		 2, 1, 9, 10,-1,
		 10, 9, 1, 2,-1,
		 3, 2, 10, 11,-1,
		 11, 10, 2, 3,-1,
		 4, 3, 11, 12,-1,
		 12, 11, 3, 4,-1,
		 5, 4, 12, 13,-1,
		 13, 12, 4, 5,-1,
		 6, 5, 13, 14,-1,
		 14, 13, 5, 6,-1,
		 7, 6, 14, 15,-1,
		 15, 14, 6, 7,-1,
		 15, 14, 13, 12, 11, 10, 9, 8,-1,
		 8, 9, 10, 11, 12, 13, 14, 15,-1,
		]
	} #IndexedFaceSet
} #Polyhedron
}
