#VRML V1.0 ascii

Separator {
	Info { string "Virtus 3D Website Builder 1.0
	VRML Export Filter
	Virtus Corporation
	114 MacKenan Drive, Suite 100
	Cary, NC 27511
	919-467-9700"}

	DEF BackgroundColor Info{  # Sky color
		string " 0.3 0.8 1.0 "
	}

	DirectionalLight {
		on         TRUE          # SFBool
		intensity  1.0           # SFFloat
		color      0.4 0.4 0.4   # SFColor
		direction  0 0 0   # SFVec3f
	}

	DirectionalLight {
		on         TRUE          # SFBool
		intensity  1.0           # SFFloat
		color      0.5 0.5 0.5   # SFColor
		direction  34 -247 -57   # SFVec3f
	}

	DirectionalLight {
		on         TRUE          # SFBool
		intensity  1.0           # SFFloat
		color      0.4 0.4 0.4   # SFColor
		direction  -209 -104 105   # SFVec3f
	}

	DirectionalLight {
		on         TRUE          # SFBool
		intensity  1.0           # SFFloat
		color      0.5 0.5 0.5   # SFColor
		direction  5 119 -226   # SFVec3f
	}

	PerspectiveCamera {
		position 2.4130 6.7056 8.4074          #SFVec3f 
		orientation 1 0 0  5.9169     #SFRotation 
		orientation 0 1 0  0.2455     #SFRotation 
		focalDistance  5            #SFFloat 
		heightAngle 2.1726 
	}

	ShapeHints {
		vertexOrdering	CLOCKWISE
		shapeType	SOLID
	}

	Transform {
		translation 0 0 0
		scaleFactor 1.0 1.0 1.0
	}

Separator { #Polyhedron
	DEF COORD0 Coordinate3 {
		point [
		 5.1726 0.0000 -0.4311,
		 3.9624 0.0000 3.3528,
		 0.4311 0.0000 5.1726,
		 -3.3528 0.0000 3.9624,
		 -5.1726 0.0000 0.4311,
		 -3.9624 0.0000 -3.3528,
		 -0.4311 0.0000 -5.1726,
		 3.3528 0.0000 -3.9624,
		 5.1726 -0.3048 -0.4311,
		 3.9624 -0.3048 3.3528,
		 0.4311 -0.3048 5.1726,
		 -3.3528 -0.3048 3.9624,
		 -5.1726 -0.3048 0.4311,
		 -3.9624 -0.3048 -3.3528,
		 -0.4311 -0.3048 -5.1726,
		 3.3528 -0.3048 -3.9624
		]
	} #Coordinate3
	Material {
		ambientColor      0.2500 0.2500 0.2500  #ambientColor
		diffuseColor      1.0000 1.0000 1.0000  #diffuseColor
		transparency      0.0000                #transparency
	} #Material

	IndexedFaceSet {
		coordIndex [ 
		 0, 1, 2, 3, 4, 5, 6, 7,-1,
		 7, 6, 5, 4, 3, 2, 1, 0,-1,
		 0, 7, 15, 8,-1,
		 8, 15, 7, 0,-1,
		 1, 0, 8, 9,-1,
		 9, 8, 0, 1,-1,
		 2, 1, 9, 10,-1,
		 10, 9, 1, 2,-1,
		 3, 2, 10, 11,-1,
		 11, 10, 2, 3,-1,
		 4, 3, 11, 12,-1,
		 12, 11, 3, 4,-1,
		 5, 4, 12, 13,-1,
		 13, 12, 4, 5,-1,
		 6, 5, 13, 14,-1,
		 14, 13, 5, 6,-1,
		 7, 6, 14, 15,-1,
		 15, 14, 6, 7,-1,
		 15, 14, 13, 12, 11, 10, 9, 8,-1,
		 8, 9, 10, 11, 12, 13, 14, 15,-1,
		]
	} #IndexedFaceSet
} #Polyhedron
Separator { #Polyhedron
	DEF COORD1 Coordinate3 {
		point [
		 3.1483 3.0480 -3.3620,
		 -0.7184 3.0480 -4.7693,
		 -0.6662 3.0480 -4.9125,
		 3.2004 3.0480 -3.5052,
		 3.1483 0.7620 -3.3620,
		 -0.7184 0.7620 -4.7693,
		 -0.6662 0.7620 -4.9125,
		 3.2004 0.7620 -3.5052
		]
	} #Coordinate3
	Material {
		ambientColor      0.1735 0.1735 0.1735  #ambientColor
		diffuseColor      0.6941 0.6941 0.6941  #diffuseColor
		transparency      0.0000                #transparency
	} #Material

	IndexedFaceSet {
		coordIndex [ 
		 0, 1, 2, 3,-1,
		 3, 2, 1, 0,-1,
		 0, 3, 7, 4,-1,
		 4, 7, 3, 0,-1,
		 1, 0, 4, 5,-1,
		 5, 4, 0, 1,-1,
		 2, 1, 5, 6,-1,
		 6, 5, 1, 2,-1,
		 3, 2, 6, 7,-1,
		 7, 6, 2, 3,-1,
		 7, 6, 5, 4,-1,
		 4, 5, 6, 7,-1,
		]
	} #IndexedFaceSet
} #Polyhedron
Separator { #Polyhedron
	DEF COORD2 Coordinate3 {
		point [
		 2.7708 1.9812 -3.6616,
		 2.7708 1.2192 -3.6616,
		 2.7534 1.2192 -3.6139,
		 2.7534 1.9812 -3.6139,
		 -0.5230 1.9812 -4.8603,
		 -0.5230 1.2192 -4.8603,
		 -0.5404 1.2192 -4.8126,
		 -0.5404 1.9812 -4.8126
		]
	} #Coordinate3
	Material {
		ambientColor      0.2500 0.2500 0.2500  #ambientColor
		diffuseColor      1.0000 1.0000 1.0000  #diffuseColor
		transparency      0.0000                #transparency
	} #Material

	IndexedFaceSet {
		coordIndex [ 
		 0, 1, 2, 3,-1,
		 3, 2, 1, 0,-1,
		 0, 3, 7, 4,-1,
		 4, 7, 3, 0,-1,
		 1, 0, 4, 5,-1,
		 5, 4, 0, 1,-1,
		 2, 1, 5, 6,-1,
		 6, 5, 1, 2,-1,
		 3, 2, 6, 7,-1,
		 7, 6, 2, 3,-1,
		 7, 6, 5, 4,-1,
		 4, 5, 6, 7,-1,
		]
	} #IndexedFaceSet
} #Polyhedron
Separator { #Polyhedron
	DEF COORD3 Coordinate3 {
		point [
		 2.7534 1.9812 -3.6139,
		 2.7187 2.7432 -3.5184,
		 2.7708 2.8956 -3.6616,
		 2.7708 1.9812 -3.6616,
		 -0.5404 1.9812 -4.8126,
		 -0.5751 2.7432 -4.7171,
		 -0.5230 2.8956 -4.8603,
		 -0.5230 1.9812 -4.8603
		]
	} #Coordinate3
	Material {
		ambientColor      0.2500 0.2500 0.2500  #ambientColor
		diffuseColor      1.0000 1.0000 1.0000  #diffuseColor
		transparency      0.0000                #transparency
	} #Material

	IndexedFaceSet {
		coordIndex [ 
		 0, 1, 2, 3,-1,
		 3, 2, 1, 0,-1,
		 0, 3, 7, 4,-1,
		 4, 7, 3, 0,-1,
		 1, 0, 4, 5,-1,
		 5, 4, 0, 1,-1,
		 2, 1, 5, 6,-1,
		 6, 5, 1, 2,-1,
		 3, 2, 6, 7,-1,
		 7, 6, 2, 3,-1,
		 7, 6, 5, 4,-1,
		 4, 5, 6, 7,-1,
		]
	} #IndexedFaceSet
} #Polyhedron
Separator { #Polyhedron
	DEF COORD4 Coordinate3 {
		point [
		 2.8619 0.9144 -3.4663,
		 2.5492 0.9144 -2.6070,
		 2.5492 1.0668 -2.6070,
		 2.8445 1.2192 -3.4185,
		 2.8619 1.2192 -3.4663,
		 -0.4319 0.9144 -4.6650,
		 -0.7447 0.9144 -3.8058,
		 -0.7447 1.0668 -3.8058,
		 -0.4493 1.2192 -4.6173,
		 -0.4319 1.2192 -4.6650,
		 2.6194 1.1030 -2.8000,
		 2.0189 1.0668 -2.8000,
		 2.1708 1.0946 -2.9042,
		 2.4572 1.0946 -2.8000,
		 1.7325 1.0668 -2.9042,
		 2.2277 1.1237 -3.0606,
		 1.3029 1.0668 -3.0606,
		 1.4968 1.0946 -3.1495,
		 1.7412 1.0946 -3.0606,
		 1.0585 1.0668 -3.1495,
		 1.7735 1.1111 -3.1495,
		 2.2600 1.1402 -3.1495,
		 2.2277 1.1237 -3.0606,
		 2.5599 1.1470 -3.0821,
		 2.3746 1.1470 -3.1495,
		 2.7466 1.1687 -3.1495,
		 2.7221 1.1560 -3.0821,
		 2.6194 1.1030 -2.8000,
		 1.4547 1.0946 -3.1648,
		 1.4968 1.0946 -3.1495,
		 1.0585 1.0668 -3.1495,
		 1.0165 1.0668 -3.1648,
		 1.4737 1.1043 -3.2169,
		 0.8733 1.0668 -3.2169,
		 1.7735 1.1111 -3.1495,
		 1.7925 1.1208 -3.2017,
		 1.9357 1.1208 -3.1495,
		 2.2734 1.1470 -3.1864,
		 2.2600 1.1402 -3.1495,
		 1.9491 1.1277 -3.1864,
		 2.1894 1.1470 -3.2169,
		 2.2734 1.1470 -3.1864,
		 1.9491 1.1277 -3.1864,
		 1.9602 1.1333 -3.2169,
		 2.2846 1.1527 -3.2169,
		 2.7711 1.1813 -3.2169,
		 2.7600 1.1756 -3.1864,
		 2.3746 1.1470 -3.1495,
		 2.7466 1.1687 -3.1495,
		 1.0251 1.0946 -3.3212,
		 1.3115 1.0946 -3.2169,
		 0.5869 1.0668 -3.3212,
		 1.0631 1.1140 -3.4254,
		 0.3005 1.0668 -3.4254,
		 1.7118 1.1527 -3.4254,
		 1.6872 1.1402 -3.3580,
		 1.3629 1.1208 -3.3580,
		 1.1777 1.1208 -3.4254,
		 2.1983 1.1817 -3.4254,
		 2.1737 1.1692 -3.3580,
		 2.0116 1.1595 -3.3580,
		 2.0361 1.1721 -3.4254,
		 2.5193 1.1994 -3.4164,
		 2.4981 1.1886 -3.3580,
		 2.3359 1.1789 -3.3580,
		 2.3572 1.1897 -3.4164,
		 2.3572 1.1897 -3.4164,
		 2.3604 1.1914 -3.4254,
		 2.8256 1.2192 -3.4254,
		 2.8437 1.2188 -3.4164,
		 2.6625 1.1994 -3.3643,
		 2.8248 1.2090 -3.3643,
		 2.6603 1.1983 -3.3580,
		 2.8225 1.2078 -3.3580,
		 1.4871 1.1111 -3.2538,
		 1.4737 1.1043 -3.2169,
		 1.3115 1.0946 -3.2169,
		 1.3249 1.1015 -3.2538,
		 1.5061 1.1208 -3.3059,
		 1.4871 1.1111 -3.2538,
		 1.3439 1.1111 -3.3059,
		 1.3439 1.1111 -3.3059,
		 1.3629 1.1208 -3.3580,
		 1.6872 1.1402 -3.3580,
		 1.6683 1.1305 -3.3059,
		 1.6493 1.1208 -3.2538,
		 2.1302 1.1470 -3.2385,
		 2.1894 1.1470 -3.2169,
		 1.9602 1.1333 -3.2169,
		 1.9681 1.1373 -3.2385,
		 2.1737 1.1692 -3.3580,
		 2.0116 1.1595 -3.3580,
		 2.7734 1.1825 -3.2232,
		 2.7711 1.1813 -3.2169,
		 2.2846 1.1527 -3.2169,
		 2.2868 1.1539 -3.2232,
		 2.4680 1.1732 -3.2753,
		 2.6112 1.1732 -3.2232,
		 2.3058 1.1635 -3.2753,
		 2.4981 1.1886 -3.3580,
		 2.3359 1.1789 -3.3580,
		 2.6603 1.1983 -3.3580,
		 2.7734 1.1825 -3.2232,
		 0.4943 1.0946 -3.5144,
		 0.7387 1.0946 -3.4254,
		 0.0561 1.0668 -3.5144,
		 1.0765 1.1208 -3.4622,
		 1.0631 1.1140 -3.4254,
		 0.7521 1.1015 -3.4622,
		 1.7386 1.1664 -3.4991,
		 1.7252 1.1595 -3.4622,
		 0.7521 1.1015 -3.4622,
		 0.7655 1.1083 -3.4991,
		 2.2251 1.1954 -3.4991,
		 2.2117 1.1886 -3.4622,
		 2.0495 1.1789 -3.4622,
		 2.0629 1.1857 -3.4991,
		 2.3761 1.1994 -3.4685,
		 2.2921 1.1994 -3.4991,
		 2.6232 1.2192 -3.4991,
		 2.7073 1.2192 -3.4685,
		 2.3738 1.1983 -3.4622,
		 2.7244 1.2192 -3.4622,
		 1.7252 1.1595 -3.4622,
		 1.7118 1.1527 -3.4254,
		 1.1777 1.1208 -3.4254,
		 2.2117 1.1886 -3.4622,
		 2.1983 1.1817 -3.4254,
		 2.0361 1.1721 -3.4254,
		 2.0495 1.1789 -3.4622,
		 2.3604 1.1914 -3.4254,
		 2.3738 1.1983 -3.4622,
		 2.8256 1.2192 -3.4254,
		 1.3722 1.1470 -3.5144,
		 1.4142 1.1470 -3.4991,
		 0.7711 1.1111 -3.5144,
		 1.7441 1.1692 -3.5144,
		 1.7386 1.1664 -3.4991,
		 1.4142 1.1470 -3.4991,
		 1.4198 1.1499 -3.5144,
		 2.2306 1.1983 -3.5144,
		 2.2251 1.1954 -3.4991,
		 2.0629 1.1857 -3.4991,
		 2.0685 1.1886 -3.5144,
		 2.2921 1.1994 -3.4991,
		 2.2501 1.1994 -3.5144,
		 2.5812 1.2192 -3.5144,
		 2.6232 1.2192 -3.4991,
		 0.3091 1.0946 -3.5818,
		 0.4943 1.0946 -3.5144,
		 0.0561 1.0668 -3.5144,
		 -0.1291 1.0668 -3.5818,
		 0.3225 1.1015 -3.6186,
		 -0.2303 1.0668 -3.6186,
		 0.7711 1.1111 -3.5144,
		 0.7901 1.1208 -3.5665,
		 0.9333 1.1208 -3.5144,
		 0.3415 1.1111 -3.6707,
		 0.3225 1.1015 -3.6186,
		 -0.3735 1.0668 -3.6707,
		 0.6469 1.1208 -3.6186,
		 0.5037 1.1208 -3.6707,
		 0.6658 1.1305 -3.6707,
		 1.2710 1.1470 -3.5512,
		 1.3722 1.1470 -3.5144,
		 0.9333 1.1208 -3.5144,
		 0.9467 1.1277 -3.5512,
		 1.3145 1.1692 -3.6707,
		 0.9902 1.1499 -3.6707,
		 1.8010 1.1983 -3.6707,
		 1.7899 1.1926 -3.6401,
		 1.4656 1.1732 -3.6401,
		 1.3815 1.1732 -3.6707,
		 1.9045 1.1994 -3.6401,
		 1.8205 1.1994 -3.6707,
		 2.1516 1.2192 -3.6707,
		 2.2356 1.2192 -3.6401,
		 1.7899 1.1926 -3.6401,
		 1.7441 1.1692 -3.5144,
		 1.4198 1.1499 -3.5144,
		 2.0897 1.1994 -3.5727,
		 1.9045 1.1994 -3.6401,
		 2.2356 1.2192 -3.6401,
		 2.4209 1.2192 -3.5727,
		 2.2329 1.1994 -3.5206,
		 2.2306 1.1983 -3.5144,
		 2.0685 1.1886 -3.5144,
		 2.0707 1.1897 -3.5206,
		 2.0707 1.1897 -3.5206,
		 2.5641 1.2192 -3.5206,
		 2.2501 1.1994 -3.5144,
		 2.5812 1.2192 -3.5144,
		 0.3471 1.1140 -3.6860,
		 0.3415 1.1111 -3.6707,
		 -0.4156 1.0668 -3.6860,
		 0.6714 1.1333 -3.6860,
		 0.6658 1.1305 -3.6707,
		 0.5037 1.1208 -3.6707,
		 0.5092 1.1237 -3.6860,
		 1.3201 1.1721 -3.6860,
		 1.3145 1.1692 -3.6707,
		 0.9902 1.1499 -3.6707,
		 0.9957 1.1527 -3.6860,
		 1.8033 1.1994 -3.6770,
		 1.8010 1.1983 -3.6707,
		 1.3815 1.1732 -3.6707,
		 1.3644 1.1732 -3.6770,
		 1.3644 1.1732 -3.6770,
		 1.3395 1.1732 -3.6860,
		 2.1096 1.2192 -3.6860,
		 2.1344 1.2192 -3.6770,
		 1.8205 1.1994 -3.6707,
		 2.1516 1.2192 -3.6707,
		 -0.1205 1.0946 -3.7381,
		 0.0227 1.0946 -3.6860,
		 -0.5588 1.0668 -3.7381,
		 -0.1015 1.1043 -3.7902,
		 -0.7020 1.0668 -3.7902,
		 0.3605 1.1208 -3.7228,
		 0.3471 1.1140 -3.6860,
		 0.0227 1.0946 -3.6860,
		 0.0361 1.1015 -3.7228,
		 0.0361 1.1015 -3.7228,
		 0.0551 1.1111 -3.7749,
		 0.2173 1.1208 -3.7749,
		 0.3605 1.1208 -3.7228,
		 0.2228 1.1237 -3.7902,
		 0.0606 1.1140 -3.7902,
		 0.7093 1.1527 -3.7902,
		 0.6714 1.1333 -3.6860,
		 0.5092 1.1237 -3.6860,
		 0.5472 1.1430 -3.7902,
		 1.3224 1.1732 -3.6923,
		 1.3201 1.1721 -3.6860,
		 0.9957 1.1527 -3.6860,
		 0.9980 1.1539 -3.6923,
		 1.9492 1.2192 -3.7444,
		 2.0924 1.2192 -3.6923,
		 0.9980 1.1539 -3.6923,
		 1.0170 1.1635 -3.7444,
		 1.0531 1.1732 -3.7902,
		 1.1792 1.1732 -3.7444,
		 1.0337 1.1721 -3.7902,
		 1.1958 1.1817 -3.7902,
		 1.8232 1.2192 -3.7902,
		 1.9492 1.2192 -3.7444,
		 1.3395 1.1732 -3.6860,
		 2.1096 1.2192 -3.6860,
		 -0.5501 1.0946 -3.8945,
		 -0.2637 1.0946 -3.7902,
		 -0.7124 1.0835 -3.8945,
		 -0.5233 1.1083 -3.9681,
		 -0.6856 1.0973 -3.9681,
		 0.2876 1.1567 -3.9681,
		 0.2742 1.1499 -3.9313,
		 -0.2124 1.1208 -3.9313,
		 -0.3135 1.1208 -3.9681,
		 0.7741 1.1857 -3.9681,
		 0.7685 1.1829 -3.9528,
		 0.6063 1.1732 -3.9528,
		 0.5643 1.1732 -3.9681,
		 1.0453 1.1994 -3.9528,
		 1.0033 1.1994 -3.9681,
		 1.3344 1.2192 -3.9681,
		 1.3764 1.2192 -3.9528,
		 0.7685 1.1829 -3.9528,
		 0.7607 1.1789 -3.9313,
		 0.5985 1.1692 -3.9313,
		 1.1045 1.1994 -3.9313,
		 1.0453 1.1994 -3.9528,
		 1.3764 1.2192 -3.9528,
		 1.4356 1.2192 -3.9313,
		 -0.0692 1.1208 -3.8792,
		 -0.1015 1.1043 -3.7902,
		 -0.2637 1.0946 -3.7902,
		 -0.2313 1.1111 -3.8792,
		 0.2742 1.1499 -3.9313,
		 0.2552 1.1402 -3.8792,
		 -0.2313 1.1111 -3.8792,
		 -0.2124 1.1208 -3.9313,
		 0.7495 1.1732 -3.9007,
		 0.7417 1.1692 -3.8792,
		 0.5795 1.1595 -3.8792,
		 0.5874 1.1635 -3.9007,
		 0.7607 1.1789 -3.9313,
		 0.7495 1.1732 -3.9007,
		 0.5874 1.1635 -3.9007,
		 0.5985 1.1692 -3.9313,
		 1.1885 1.1994 -3.9007,
		 1.1045 1.1994 -3.9313,
		 1.4356 1.2192 -3.9313,
		 1.5196 1.2192 -3.9007,
		 1.2305 1.1994 -3.8854,
		 1.1885 1.1994 -3.9007,
		 1.5196 1.2192 -3.9007,
		 1.5616 1.2192 -3.8854,
		 1.2282 1.1983 -3.8792,
		 1.5788 1.2192 -3.8792,
		 0.2552 1.1402 -3.8792,
		 0.2362 1.1305 -3.8271,
		 0.0741 1.1208 -3.8271,
		 0.7417 1.1692 -3.8792,
		 0.7227 1.1595 -3.8271,
		 0.5606 1.1499 -3.8271,
		 0.5795 1.1595 -3.8792,
		 1.2093 1.1886 -3.8271,
		 1.2282 1.1983 -3.8792,
		 1.5788 1.2192 -3.8792,
		 1.7220 1.2192 -3.8271,
		 0.2362 1.1305 -3.8271,
		 0.2228 1.1237 -3.7902,
		 0.0606 1.1140 -3.7902,
		 0.0741 1.1208 -3.8271,
		 0.7227 1.1595 -3.8271,
		 0.7093 1.1527 -3.7902,
		 0.5472 1.1430 -3.7902,
		 0.5606 1.1499 -3.8271,
		 1.1981 1.1829 -3.7965,
		 1.2093 1.1886 -3.8271,
		 1.7220 1.2192 -3.8271,
		 1.8060 1.2192 -3.7965,
		 1.0360 1.1732 -3.7965,
		 1.0531 1.1732 -3.7902,
		 1.0337 1.1721 -3.7902,
		 1.1958 1.1817 -3.7902,
		 1.1981 1.1829 -3.7965,
		 1.8232 1.2192 -3.7902,
		 -0.4988 1.1208 -4.0355,
		 -0.5233 1.1083 -3.9681,
		 -0.6610 1.1099 -4.0355,
		 -0.6610 1.1099 -4.0355,
		 -0.6097 1.1364 -4.1766,
		 -0.4474 1.1470 -4.1766,
		 -0.0598 1.1470 -4.0355,
		 -0.3135 1.1208 -3.9681,
		 0.1254 1.1470 -3.9681,
		 -0.3447 1.1994 -4.4587,
		 -0.5070 1.1894 -4.4587,
		 -0.5070 1.1894 -4.4587,
		 -0.0136 1.2192 -4.4587,
		 0.2281 1.1994 -4.2503,
		 0.5592 1.2192 -4.2503,
		 0.3199 1.1732 -4.0571,
		 0.2876 1.1567 -3.9681,
		 0.1578 1.1635 -4.0571,
		 0.1767 1.1732 -4.1092,
		 0.3199 1.1732 -4.0571,
		 0.1578 1.1635 -4.0571,
		 0.3713 1.1994 -4.1981,
		 0.2281 1.1994 -4.2503,
		 0.7024 1.2192 -4.1981,
		 1.0900 1.2192 -4.0571,
		 0.8009 1.1994 -4.0418,
		 0.7741 1.1857 -3.9681,
		 0.5643 1.1732 -3.9681,
		 0.3619 1.1732 -4.0418,
		 0.3619 1.1732 -4.0418,
		 1.1320 1.2192 -4.0418,
		 1.0033 1.1994 -3.9681,
		 1.3344 1.2192 -3.9681,
		 0.5037 1.1208 -3.6707,
		 1.0360 1.1732 -3.7965,
		 0.6469 1.1208 -3.6186,
		 0.7495 1.1732 -3.9007,
		 0.1767 1.1732 -4.1092,
		 0.2281 1.1994 -4.2503,
		 1.6493 1.1208 -3.2538,
		 2.0189 1.0668 -2.8000,
		 2.6194 1.1030 -2.8000,
		 1.7325 1.0668 -2.9042,
		 1.3029 1.0668 -3.0606,
		 2.2277 1.1237 -3.0606,
		 1.0585 1.0668 -3.1495,
		 1.4968 1.0946 -3.1495,
		 2.2277 1.1237 -3.0606,
		 2.2600 1.1402 -3.1495,
		 1.7735 1.1111 -3.1495,
		 2.7221 1.1560 -3.0821,
		 2.7466 1.1687 -3.1495,
		 2.3746 1.1470 -3.1495,
		 2.6194 1.1030 -2.8000,
		 1.0165 1.0668 -3.1648,
		 1.0585 1.0668 -3.1495,
		 1.4968 1.0946 -3.1495,
		 0.8733 1.0668 -3.2169,
		 1.4737 1.1043 -3.2169,
		 1.7735 1.1111 -3.1495,
		 1.9491 1.1277 -3.1864,
		 2.2600 1.1402 -3.1495,
		 1.9602 1.1333 -3.2169,
		 1.9491 1.1277 -3.1864,
		 2.1894 1.1470 -3.2169,
		 2.7600 1.1756 -3.1864,
		 2.7711 1.1813 -3.2169,
		 2.2846 1.1527 -3.2169,
		 2.7466 1.1687 -3.1495,
		 2.3746 1.1470 -3.1495,
		 0.5869 1.0668 -3.3212,
		 0.3005 1.0668 -3.4254,
		 1.0631 1.1140 -3.4254,
		 1.1777 1.1208 -3.4254,
		 1.3629 1.1208 -3.3580,
		 1.6872 1.1402 -3.3580,
		 1.7118 1.1527 -3.4254,
		 2.0361 1.1721 -3.4254,
		 2.0116 1.1595 -3.3580,
		 2.1737 1.1692 -3.3580,
		 2.1983 1.1817 -3.4254,
		 2.3572 1.1897 -3.4164,
		 2.3359 1.1789 -3.3580,
		 2.4981 1.1886 -3.3580,
		 2.8437 1.2188 -3.4164,
		 2.8256 1.2192 -3.4254,
		 2.3604 1.1914 -3.4254,
		 2.3572 1.1897 -3.4164,
		 2.8248 1.2090 -3.3643,
		 2.8225 1.2078 -3.3580,
		 2.6603 1.1983 -3.3580,
		 1.3249 1.1015 -3.2538,
		 1.3115 1.0946 -3.2169,
		 1.4737 1.1043 -3.2169,
		 1.4871 1.1111 -3.2538,
		 1.3439 1.1111 -3.3059,
		 1.4871 1.1111 -3.2538,
		 1.6683 1.1305 -3.3059,
		 1.6872 1.1402 -3.3580,
		 1.3439 1.1111 -3.3059,
		 1.6493 1.1208 -3.2538,
		 1.9681 1.1373 -3.2385,
		 1.9602 1.1333 -3.2169,
		 2.1894 1.1470 -3.2169,
		 2.0116 1.1595 -3.3580,
		 2.1737 1.1692 -3.3580,
		 2.2868 1.1539 -3.2232,
		 2.2846 1.1527 -3.2169,
		 2.7711 1.1813 -3.2169,
		 2.7734 1.1825 -3.2232,
		 2.3058 1.1635 -3.2753,
		 2.3359 1.1789 -3.3580,
		 2.4981 1.1886 -3.3580,
		 2.7734 1.1825 -3.2232,
		 2.6603 1.1983 -3.3580,
		 0.0561 1.0668 -3.5144,
		 0.4943 1.0946 -3.5144,
		 0.7521 1.1015 -3.4622,
		 1.0631 1.1140 -3.4254,
		 0.7655 1.1083 -3.4991,
		 0.7521 1.1015 -3.4622,
		 1.7252 1.1595 -3.4622,
		 1.7386 1.1664 -3.4991,
		 2.0629 1.1857 -3.4991,
		 2.0495 1.1789 -3.4622,
		 2.2117 1.1886 -3.4622,
		 2.2251 1.1954 -3.4991,
		 2.7073 1.2192 -3.4685,
		 2.6232 1.2192 -3.4991,
		 2.2921 1.1994 -3.4991,
		 2.7244 1.2192 -3.4622,
		 2.3738 1.1983 -3.4622,
		 1.1777 1.1208 -3.4254,
		 1.7118 1.1527 -3.4254,
		 1.7252 1.1595 -3.4622,
		 2.0495 1.1789 -3.4622,
		 2.0361 1.1721 -3.4254,
		 2.1983 1.1817 -3.4254,
		 2.2117 1.1886 -3.4622,
		 2.8256 1.2192 -3.4254,
		 2.3738 1.1983 -3.4622,
		 2.3604 1.1914 -3.4254,
		 0.7711 1.1111 -3.5144,
		 1.3722 1.1470 -3.5144,
		 1.4198 1.1499 -3.5144,
		 1.4142 1.1470 -3.4991,
		 1.7386 1.1664 -3.4991,
		 1.7441 1.1692 -3.5144,
		 2.0685 1.1886 -3.5144,
		 2.0629 1.1857 -3.4991,
		 2.2251 1.1954 -3.4991,
		 2.2306 1.1983 -3.5144,
		 2.6232 1.2192 -3.4991,
		 2.5812 1.2192 -3.5144,
		 2.2501 1.1994 -3.5144,
		 2.2921 1.1994 -3.4991,
		 -0.1291 1.0668 -3.5818,
		 0.0561 1.0668 -3.5144,
		 0.4943 1.0946 -3.5144,
		 -0.2303 1.0668 -3.6186,
		 0.3225 1.1015 -3.6186,
		 0.7711 1.1111 -3.5144,
		 -0.3735 1.0668 -3.6707,
		 0.3225 1.1015 -3.6186,
		 0.3415 1.1111 -3.6707,
		 0.6658 1.1305 -3.6707,
		 0.5037 1.1208 -3.6707,
		 0.6469 1.1208 -3.6186,
		 0.9467 1.1277 -3.5512,
		 0.9333 1.1208 -3.5144,
		 1.3722 1.1470 -3.5144,
		 0.9902 1.1499 -3.6707,
		 1.3145 1.1692 -3.6707,
		 1.3815 1.1732 -3.6707,
		 1.7899 1.1926 -3.6401,
		 1.8010 1.1983 -3.6707,
		 2.2356 1.2192 -3.6401,
		 2.1516 1.2192 -3.6707,
		 1.8205 1.1994 -3.6707,
		 1.9045 1.1994 -3.6401,
		 1.4198 1.1499 -3.5144,
		 1.7441 1.1692 -3.5144,
		 1.7899 1.1926 -3.6401,
		 2.4209 1.2192 -3.5727,
		 2.2356 1.2192 -3.6401,
		 1.9045 1.1994 -3.6401,
		 2.0707 1.1897 -3.5206,
		 2.0685 1.1886 -3.5144,
		 2.2306 1.1983 -3.5144,
		 2.5641 1.2192 -3.5206,
		 2.0707 1.1897 -3.5206,
		 2.5812 1.2192 -3.5144,
		 2.2501 1.1994 -3.5144,
		 -0.4156 1.0668 -3.6860,
		 0.3415 1.1111 -3.6707,
		 0.3471 1.1140 -3.6860,
		 0.5092 1.1237 -3.6860,
		 0.5037 1.1208 -3.6707,
		 0.6658 1.1305 -3.6707,
		 0.6714 1.1333 -3.6860,
		 0.9957 1.1527 -3.6860,
		 0.9902 1.1499 -3.6707,
		 1.3145 1.1692 -3.6707,
		 1.3201 1.1721 -3.6860,
		 1.3644 1.1732 -3.6770,
		 1.3815 1.1732 -3.6707,
		 1.8010 1.1983 -3.6707,
		 2.1344 1.2192 -3.6770,
		 2.1096 1.2192 -3.6860,
		 1.3395 1.1732 -3.6860,
		 1.3644 1.1732 -3.6770,
		 2.1516 1.2192 -3.6707,
		 1.8205 1.1994 -3.6707,
		 -0.5588 1.0668 -3.7381,
		 -0.7020 1.0668 -3.7902,
		 -0.1015 1.1043 -3.7902,
		 0.0361 1.1015 -3.7228,
		 0.0227 1.0946 -3.6860,
		 0.3471 1.1140 -3.6860,
		 0.3605 1.1208 -3.7228,
		 0.0551 1.1111 -3.7749,
		 0.0361 1.1015 -3.7228,
		 0.0606 1.1140 -3.7902,
		 0.2228 1.1237 -3.7902,
		 0.5472 1.1430 -3.7902,
		 0.5092 1.1237 -3.6860,
		 0.6714 1.1333 -3.6860,
		 0.7093 1.1527 -3.7902,
		 0.9980 1.1539 -3.6923,
		 0.9957 1.1527 -3.6860,
		 1.3201 1.1721 -3.6860,
		 1.0170 1.1635 -3.7444,
		 0.9980 1.1539 -3.6923,
		 2.0924 1.2192 -3.6923,
		 1.9492 1.2192 -3.7444,
		 1.0337 1.1721 -3.7902,
		 1.0531 1.1732 -3.7902,
		 1.9492 1.2192 -3.7444,
		 1.8232 1.2192 -3.7902,
		 1.1958 1.1817 -3.7902,
		 2.1096 1.2192 -3.6860,
		 1.3395 1.1732 -3.6860,
		 -0.7124 1.0835 -3.8945,
		 -0.6856 1.0973 -3.9681,
		 -0.5233 1.1083 -3.9681,
		 -0.3135 1.1208 -3.9681,
		 -0.2124 1.1208 -3.9313,
		 0.2742 1.1499 -3.9313,
		 0.2876 1.1567 -3.9681,
		 0.5643 1.1732 -3.9681,
		 0.7685 1.1829 -3.9528,
		 0.7741 1.1857 -3.9681,
		 1.3764 1.2192 -3.9528,
		 1.3344 1.2192 -3.9681,
		 1.0033 1.1994 -3.9681,
		 1.0453 1.1994 -3.9528,
		 0.5985 1.1692 -3.9313,
		 0.7607 1.1789 -3.9313,
		 0.7685 1.1829 -3.9528,
		 1.4356 1.2192 -3.9313,
		 1.3764 1.2192 -3.9528,
		 1.0453 1.1994 -3.9528,
		 1.1045 1.1994 -3.9313,
		 -0.2313 1.1111 -3.8792,
		 -0.2637 1.0946 -3.7902,
		 -0.1015 1.1043 -3.7902,
		 -0.2313 1.1111 -3.8792,
		 0.2552 1.1402 -3.8792,
		 0.2742 1.1499 -3.9313,
		 0.5874 1.1635 -3.9007,
		 0.5795 1.1595 -3.8792,
		 0.7417 1.1692 -3.8792,
		 0.5985 1.1692 -3.9313,
		 0.5874 1.1635 -3.9007,
		 0.7495 1.1732 -3.9007,
		 0.7607 1.1789 -3.9313,
		 1.5196 1.2192 -3.9007,
		 1.4356 1.2192 -3.9313,
		 1.1045 1.1994 -3.9313,
		 1.1885 1.1994 -3.9007,
		 1.5616 1.2192 -3.8854,
		 1.5196 1.2192 -3.9007,
		 1.1885 1.1994 -3.9007,
		 1.5788 1.2192 -3.8792,
		 1.2282 1.1983 -3.8792,
		 0.0741 1.1208 -3.8271,
		 0.2362 1.1305 -3.8271,
		 0.2552 1.1402 -3.8792,
		 0.5795 1.1595 -3.8792,
		 0.5606 1.1499 -3.8271,
		 0.7227 1.1595 -3.8271,
		 0.7417 1.1692 -3.8792,
		 1.7220 1.2192 -3.8271,
		 1.5788 1.2192 -3.8792,
		 1.2282 1.1983 -3.8792,
		 1.2093 1.1886 -3.8271,
		 0.0606 1.1140 -3.7902,
		 0.2228 1.1237 -3.7902,
		 0.2362 1.1305 -3.8271,
		 0.5606 1.1499 -3.8271,
		 0.5472 1.1430 -3.7902,
		 0.7093 1.1527 -3.7902,
		 0.7227 1.1595 -3.8271,
		 1.8060 1.2192 -3.7965,
		 1.7220 1.2192 -3.8271,
		 1.2093 1.1886 -3.8271,
		 1.1981 1.1829 -3.7965,
		 1.0337 1.1721 -3.7902,
		 1.0531 1.1732 -3.7902,
		 1.0360 1.1732 -3.7965,
		 1.8232 1.2192 -3.7902,
		 1.1981 1.1829 -3.7965,
		 1.1958 1.1817 -3.7902,
		 -0.6610 1.1099 -4.0355,
		 -0.5233 1.1083 -3.9681,
		 -0.0598 1.1470 -4.0355,
		 -0.6097 1.1364 -4.1766,
		 -0.6610 1.1099 -4.0355,
		 -0.3135 1.1208 -3.9681,
		 -0.5070 1.1894 -4.4587,
		 -0.0136 1.2192 -4.4587,
		 -0.5070 1.1894 -4.4587,
		 0.5592 1.2192 -4.2503,
		 0.1578 1.1635 -4.0571,
		 0.2876 1.1567 -3.9681,
		 0.1578 1.1635 -4.0571,
		 0.1767 1.1732 -4.1092,
		 0.7024 1.2192 -4.1981,
		 0.2281 1.1994 -4.2503,
		 1.0900 1.2192 -4.0571,
		 0.3619 1.1732 -4.0418,
		 0.5643 1.1732 -3.9681,
		 0.7741 1.1857 -3.9681,
		 1.1320 1.2192 -4.0418,
		 0.3619 1.1732 -4.0418,
		 1.3344 1.2192 -3.9681,
		 1.0033 1.1994 -3.9681
		]
	} #Coordinate3
	Material {
		ambientColor      0.0000 0.0000 0.0000  #ambientColor
		diffuseColor      0.0000 0.0000 0.0000  #diffuseColor
		transparency      0.0000                #transparency
	} #Material

	Texture2 {
		filename ""  #filename
		wrapS REPEAT 
		wrapT REPEAT 
	} #Texture2

	IndexedFaceSet {
		coordIndex [ 
		 0, 1, 2, 3, 4,-1,
		 4, 3, 2, 1, 0,-1,
		 0, 4, 9, 5,-1,
		 5, 9, 4, 0,-1,
		 1, 0, 5, 6,-1,
		 6, 5, 0, 1,-1,
		 2, 1, 6, 7,-1,
		 7, 6, 1, 2,-1,
		 10, 2, 11,-1,
		 12, 13, 11, 14,-1,
		 15, 12, 14, 16,-1,
		 17, 18, 16, 19,-1,
		 18, 20, 21, 22,-1,
		 23, 24, 25, 26,-1,
		 13, 23, 26, 27,-1,
		 28, 29, 30, 31,-1,
		 32, 28, 31, 33,-1,
		 34, 35, 36,-1,
		 37, 38, 36, 39,-1,
		 40, 41, 42, 43,-1,
		 41, 44, 45, 46,-1,
		 47, 37, 46, 48,-1,
		 49, 50, 33, 51,-1,
		 52, 49, 51, 53,-1,
		 54, 55, 56, 57,-1,
		 58, 59, 60, 61,-1,
		 62, 63, 64, 65,-1,
		 66, 67, 68, 3, 69,-1,
		 70, 62, 69, 71,-1,
		 72, 70, 71, 73,-1,
		 74, 75, 76, 77,-1,
		 78, 79, 77, 80,-1,
		 81, 82, 83, 84,-1,
		 85, 78, 84,-1,
		 86, 87, 88, 89,-1,
		 90, 86, 89, 91,-1,
		 92, 93, 94, 95,-1,
		 96, 97, 95, 98,-1,
		 99, 96, 98, 100,-1,
		 97, 101, 73, 102,-1,
		 103, 104, 53, 105,-1,
		 106, 107, 104, 108,-1,
		 109, 110, 111, 112,-1,
		 113, 114, 115, 116,-1,
		 117, 118, 119, 120,-1,
		 121, 117, 120, 122,-1,
		 123, 124, 125, 106,-1,
		 126, 127, 128, 129,-1,
		 130, 131, 122, 132,-1,
		 133, 134, 112, 135,-1,
		 136, 137, 138, 139,-1,
		 140, 141, 142, 143,-1,
		 144, 145, 146, 147,-1,
		 148, 149, 150, 151,-1,
		 152, 148, 151, 153,-1,
		 154, 155, 156,-1,
		 157, 158, 153, 159,-1,
		 160, 161, 162,-1,
		 163, 164, 165, 166,-1,
		 167, 163, 166, 168,-1,
		 169, 170, 171, 172,-1,
		 173, 174, 175, 176,-1,
		 177, 178, 179, 171,-1,
		 180, 181, 182, 183,-1,
		 184, 185, 186, 187,-1,
		 188, 180, 183, 189,-1,
		 190, 184, 189, 191,-1,
		 192, 193, 159, 194,-1,
		 195, 196, 197, 198,-1,
		 199, 200, 201, 202,-1,
		 203, 204, 205, 206,-1,
		 207, 208, 209, 210,-1,
		 211, 203, 210, 212,-1,
		 213, 214, 194, 215,-1,
		 216, 213, 215, 217,-1,
		 218, 219, 220, 221,-1,
		 222, 223, 224, 225,-1,
		 226, 224, 223, 227,-1,
		 228, 229, 230, 231,-1,
		 232, 233, 234, 235,-1,
		 236, 237, 238, 239,-1,
		 240, 241, 239, 242,-1,
		 241, 243, 244, 245,-1,
		 246, 232, 237, 247,-1,
		 248, 249, 217, 7, 250,-1,
		 251, 248, 250, 252,-1,
		 253, 254, 255, 256,-1,
		 257, 258, 259, 260,-1,
		 261, 262, 263, 264,-1,
		 265, 266, 267, 259,-1,
		 268, 269, 270, 271,-1,
		 272, 273, 274, 275,-1,
		 276, 277, 278, 279,-1,
		 280, 281, 282, 283,-1,
		 284, 285, 286, 287,-1,
		 288, 289, 290, 291,-1,
		 292, 293, 294, 295,-1,
		 296, 292, 295, 297,-1,
		 298, 299, 300, 272,-1,
		 301, 302, 303, 304,-1,
		 305, 306, 307, 308,-1,
		 309, 310, 311, 312,-1,
		 313, 314, 315, 316,-1,
		 317, 318, 319, 320,-1,
		 321, 322, 323,-1,
		 324, 325, 320, 326,-1,
		 327, 328, 252, 329,-1,
		 330, 331, 332, 333,-1,
		 334, 327, 333, 335,-1,
		 336, 332, 331, 337,-1,
		 338, 8, 339,-1,
		 340, 336, 339, 341,-1,
		 342, 343, 335, 344,-1,
		 345, 346, 347,-1,
		 348, 349, 341, 350,-1,
		 346, 348, 350, 351,-1,
		 352, 353, 354, 355,-1,
		 356, 342, 351, 357,-1,
		 358, 352, 357, 359,-1,
		]
	} #IndexedFaceSet
	Material {
		ambientColor      0.1667 0.1667 0.0000  #ambientColor
		diffuseColor      0.6667 0.6667 0.0000  #diffuseColor
		transparency      0.0000                #transparency
	} #Material

	IndexedFaceSet {
		coordIndex [ 
		 340, 335, 332, 336,-1,
		 279, 249, 248, 327,-1,
		 312, 214, 213, 272,-1,
		 259, 360, 224, 342,-1,
		 361, 156, 362, 280,-1,
		 148, 218, 155, 104,-1,
		 171, 134, 163, 232,-1,
		 82, 50, 49, 106,-1,
		 292, 241, 363, 352,-1,
		 348, 346, 364, 365,-1,
		 180, 36, 366, 203,-1,
		 23, 13, 12, 37,-1,
		 117, 41, 86, 184,-1,
		 70, 97, 96, 62,-1,
		 35, 18, 28, 78,-1,
		]
	} #IndexedFaceSet
	Material {
		ambientColor      0.0000 0.0000 0.0000  #ambientColor
		diffuseColor      0.0000 0.0000 0.0000  #diffuseColor
		transparency      0.0000                #transparency
	} #Material

	IndexedFaceSet {
		coordIndex [ 
		 367, 2, 368,-1,
		 369, 367, 13, 12,-1,
		 370, 369, 12, 371,-1,
		 372, 370, 18, 373,-1,
		 374, 375, 376, 18,-1,
		 377, 378, 379, 23,-1,
		 380, 377, 23, 13,-1,
		 381, 382, 383, 28,-1,
		 384, 381, 28, 385,-1,
		 36, 35, 386,-1,
		 387, 36, 388, 37,-1,
		 389, 390, 41, 391,-1,
		 392, 393, 394, 41,-1,
		 395, 392, 37, 396,-1,
		 397, 384, 50, 49,-1,
		 398, 397, 49, 399,-1,
		 400, 401, 402, 403,-1,
		 404, 405, 406, 407,-1,
		 408, 409, 410, 62,-1,
		 411, 3, 412, 413, 414,-1,
		 415, 411, 62, 70,-1,
		 416, 415, 70, 417,-1,
		 418, 419, 420, 421,-1,
		 422, 418, 423, 78,-1,
		 424, 425, 82, 426,-1,
		 424, 78, 427,-1,
		 428, 429, 430, 86,-1,
		 431, 428, 86, 432,-1,
		 433, 434, 435, 436,-1,
		 437, 433, 97, 96,-1,
		 438, 437, 96, 439,-1,
		 440, 416, 441, 97,-1,
		 442, 398, 104, 443,-1,
		 444, 104, 445, 106,-1,
		 446, 447, 448, 449,-1,
		 450, 451, 452, 453,-1,
		 454, 455, 456, 117,-1,
		 457, 454, 117, 458,-1,
		 106, 459, 460, 461,-1,
		 462, 463, 464, 465,-1,
		 466, 457, 467, 468,-1,
		 469, 446, 134, 470,-1,
		 471, 472, 473, 474,-1,
		 475, 476, 477, 478,-1,
		 479, 480, 481, 482,-1,
		 483, 484, 485, 148,-1,
		 486, 483, 148, 487,-1,
		 156, 155, 488,-1,
		 489, 486, 490, 491,-1,
		 492, 493, 494,-1,
		 495, 496, 497, 163,-1,
		 498, 495, 163, 499,-1,
		 500, 171, 501, 502,-1,
		 503, 504, 505, 506,-1,
		 171, 507, 508, 509,-1,
		 510, 511, 512, 180,-1,
		 513, 514, 515, 184,-1,
		 516, 510, 180, 517,-1,
		 518, 516, 184, 519,-1,
		 520, 489, 521, 522,-1,
		 523, 524, 525, 526,-1,
		 527, 528, 529, 530,-1,
		 531, 532, 533, 203,-1,
		 534, 535, 536, 537,-1,
		 538, 534, 203, 539,-1,
		 540, 520, 214, 213,-1,
		 541, 540, 213, 542,-1,
		 543, 544, 545, 218,-1,
		 546, 224, 547, 548,-1,
		 549, 547, 224, 550,-1,
		 551, 552, 553, 554,-1,
		 555, 556, 557, 232,-1,
		 558, 559, 560, 561,-1,
		 562, 558, 241, 563,-1,
		 564, 565, 566, 241,-1,
		 567, 560, 232, 568,-1,
		 569, 7, 541, 249, 248,-1,
		 570, 569, 248, 571,-1,
		 572, 573, 574, 575,-1,
		 576, 259, 577, 578,-1,
		 579, 580, 581, 582,-1,
		 259, 583, 584, 585,-1,
		 586, 587, 588, 589,-1,
		 590, 591, 592, 272,-1,
		 279, 593, 594, 595,-1,
		 596, 597, 598, 280,-1,
		 599, 600, 601, 602,-1,
		 603, 604, 605, 606,-1,
		 607, 608, 609, 292,-1,
		 610, 607, 292, 611,-1,
		 272, 612, 613, 614,-1,
		 615, 616, 617, 618,-1,
		 619, 620, 621, 622,-1,
		 312, 623, 624, 625,-1,
		 626, 627, 628, 629,-1,
		 630, 631, 632, 633,-1,
		 634, 635, 636,-1,
		 637, 630, 638, 639,-1,
		 640, 570, 641, 327,-1,
		 642, 332, 643, 644,-1,
		 335, 642, 327, 645,-1,
		 646, 643, 332, 336,-1,
		 647, 8, 648,-1,
		 649, 647, 336, 340,-1,
		 650, 335, 651, 342,-1,
		 652, 346, 653,-1,
		 654, 649, 655, 348,-1,
		 656, 654, 348, 346,-1,
		 657, 658, 659, 352,-1,
		 660, 656, 342, 661,-1,
		 662, 660, 352, 663,-1,
		]
	} #IndexedFaceSet
	Material {
		ambientColor      0.1667 0.1667 0.0000  #ambientColor
		diffuseColor      0.6667 0.6667 0.0000  #diffuseColor
		transparency      0.0000                #transparency
	} #Material

	IndexedFaceSet {
		coordIndex [ 
		 336, 332, 335, 340,-1,
		 327, 248, 249, 279,-1,
		 272, 213, 214, 312,-1,
		 342, 224, 360, 259,-1,
		 280, 362, 156, 361,-1,
		 104, 155, 218, 148,-1,
		 232, 163, 134, 171,-1,
		 106, 49, 50, 82,-1,
		 352, 363, 241, 292,-1,
		 365, 364, 346, 348,-1,
		 203, 366, 36, 180,-1,
		 37, 12, 13, 23,-1,
		 184, 86, 41, 117,-1,
		 62, 96, 97, 70,-1,
		 78, 28, 18, 35,-1,
		]
	} #IndexedFaceSet
	Material {
		ambientColor      0.0000 0.0000 0.0000  #ambientColor
		diffuseColor      0.0000 0.0000 0.0000  #diffuseColor
		transparency      0.0000                #transparency
	} #Material

	IndexedFaceSet {
		coordIndex [ 
		 4, 3, 8, 9,-1,
		 9, 8, 3, 4,-1,
		 9, 8, 7, 6, 5,-1,
		 5, 6, 7, 8, 9,-1,
		]
	} #IndexedFaceSet
} #Polyhedron
Separator { #Polyhedron
	DEF COORD5 Coordinate3 {
		point [
		 2.8445 1.9812 -3.4185,
		 2.8098 2.7432 -3.3231,
		 2.8619 2.8956 -3.4663,
		 2.8619 1.9812 -3.4663,
		 -0.4493 1.9812 -4.6173,
		 -0.4841 2.7432 -4.5218,
		 -0.4319 2.8956 -4.6650,
		 -0.4319 1.9812 -4.6650,
		 -0.4792 2.6358 -4.5353,
		 2.8147 2.6358 -3.3365,
		 -0.4539 2.0817 -4.6047,
		 -0.4792 2.6358 -4.5353,
		 -0.3837 2.6358 -4.5002,
		 -0.3590 2.0817 -4.5682,
		 2.8399 2.0817 -3.4059,
		 -0.4539 2.0817 -4.6047,
		 0.3801 2.6358 -4.2223,
		 0.3801 2.6358 -4.2223,
		 2.8147 2.6358 -3.3365,
		 2.8147 2.6358 -3.3365,
		 0.4048 2.0817 -4.2902,
		 0.3801 2.6358 -4.2223,
		 0.4755 2.6358 -4.1875,
		 0.5003 2.0817 -4.2554,
		 0.7389 2.0817 -4.1686,
		 0.7277 2.3335 -4.1377,
		 0.7142 2.6358 -4.1007,
		 0.8097 2.6358 -4.0659,
		 0.8232 2.3335 -4.1030,
		 0.7322 2.2328 -4.1501,
		 0.7277 2.3335 -4.1377,
		 2.8285 2.3335 -3.3744,
		 2.8330 2.2328 -3.3870,
		 0.7322 2.2328 -4.1501,
		 0.8276 2.2328 -4.1153,
		 0.8344 2.0817 -4.1338,
		 2.2664 2.0817 -3.6127,
		 2.2597 2.2328 -3.5941,
		 2.3074 2.2328 -3.5768,
		 2.3142 2.0817 -3.5953,
		 2.8330 2.2328 -3.3870,
		 2.7438 2.0817 -3.4389,
		 2.7370 2.2328 -3.4204,
		 1.3482 2.3335 -3.9119,
		 1.3348 2.6358 -3.8748,
		 1.4302 2.6358 -3.8401,
		 1.4437 2.3335 -3.8771,
		 1.5665 2.4343 -3.8184,
		 1.8121 2.6358 -3.7011,
		 1.9076 2.6358 -3.6663,
		 1.9166 2.4343 -3.6910,
		 2.8147 2.6358 -3.3365,
		 2.8239 2.4343 -3.3618,
		 2.7280 2.4343 -3.3957,
		 2.7191 2.6358 -3.3710,
		 1.5665 2.4343 -3.8184,
		 1.6779 2.4343 -3.7779,
		 1.6824 2.3335 -3.7903,
		 1.8256 2.3335 -3.7381,
		 1.8211 2.4343 -3.7258,
		 1.9166 2.4343 -3.6910,
		 1.9210 2.3335 -3.7034,
		 2.8239 2.4343 -3.3618,
		 2.7325 2.3335 -3.4081,
		 2.7280 2.4343 -3.3957,
		 0.7142 2.6358 -4.1007,
		 2.2597 2.2328 -3.5941,
		 1.8121 2.6358 -3.7011,
		 1.8211 2.4343 -3.7258,
		 2.8147 2.6358 -3.3365,
		 -0.4792 2.6358 -4.5353,
		 -0.4792 2.6358 -4.5353,
		 -0.4539 2.0817 -4.6047,
		 -0.4539 2.0817 -4.6047,
		 2.8399 2.0817 -3.4059,
		 2.8147 2.6358 -3.3365,
		 2.8147 2.6358 -3.3365,
		 0.3801 2.6358 -4.2223,
		 0.3801 2.6358 -4.2223,
		 0.7142 2.6358 -4.1007,
		 0.7277 2.3335 -4.1377,
		 2.8330 2.2328 -3.3870,
		 2.8285 2.3335 -3.3744,
		 0.7277 2.3335 -4.1377,
		 0.7322 2.2328 -4.1501,
		 0.7322 2.2328 -4.1501,
		 2.2597 2.2328 -3.5941,
		 2.8330 2.2328 -3.3870,
		 1.9166 2.4343 -3.6910,
		 1.8121 2.6358 -3.7011,
		 1.5665 2.4343 -3.8184,
		 2.7280 2.4343 -3.3957,
		 2.8239 2.4343 -3.3618,
		 2.8147 2.6358 -3.3365,
		 1.5665 2.4343 -3.8184,
		 1.9166 2.4343 -3.6910,
		 1.8211 2.4343 -3.7258,
		 2.7280 2.4343 -3.3957,
		 2.8239 2.4343 -3.3618
		]
	} #Coordinate3
	Material {
		ambientColor      0.0000 0.0000 0.0000  #ambientColor
		diffuseColor      0.0000 0.0000 0.0000  #diffuseColor
		transparency      0.0000                #transparency
	} #Material

	Texture2 {
		filename ""  #filename
		wrapS REPEAT 
		wrapT REPEAT 
	} #Texture2

	IndexedFaceSet {
		coordIndex [ 
		 0, 1, 2, 3,-1,
		 3, 2, 1, 0,-1,
		]
	} #IndexedFaceSet
	Material {
		ambientColor      0.2500 0.2500 0.2500  #ambientColor
		diffuseColor      1.0000 1.0000 1.0000  #diffuseColor
		transparency      0.0000                #transparency
	} #Material

	IndexedFaceSet {
		coordIndex [ 
		 0, 3, 7, 4,-1,
		 4, 7, 3, 0,-1,
		]
	} #IndexedFaceSet
	Material {
		ambientColor      0.0000 0.0000 0.0000  #ambientColor
		diffuseColor      0.0000 0.0000 0.0000  #diffuseColor
		transparency      0.0000                #transparency
	} #Material

	IndexedFaceSet {
		coordIndex [ 
		 8, 5, 1, 9,-1,
		 10, 11, 12, 13,-1,
		 14, 0, 4, 15,-1,
		 16, 17, 18, 19,-1,
		 20, 21, 22, 23,-1,
		 14, 20, 23, 24,-1,
		 25, 26, 27, 28,-1,
		 29, 30, 31, 32,-1,
		 24, 33, 34, 35,-1,
		 14, 24, 36,-1,
		 36, 37, 38, 39,-1,
		 40, 14, 41, 42,-1,
		 43, 44, 45, 46,-1,
		 47, 48, 49, 50,-1,
		 51, 52, 53, 54,-1,
		 46, 55, 56, 57,-1,
		 58, 59, 60, 61,-1,
		 62, 31, 63, 64,-1,
		]
	} #IndexedFaceSet
	Material {
		ambientColor      0.0549 0.0549 0.2500  #ambientColor
		diffuseColor      0.2196 0.2196 1.0000  #diffuseColor
		transparency      0.0000                #transparency
	} #Material

	IndexedFaceSet {
		coordIndex [ 
		 17, 20, 13, 12,-1,
		 65, 24, 23, 22,-1,
		 44, 43, 28, 27,-1,
		 66, 36, 35, 34,-1,
		 46, 45, 67,-1,
		 68, 58, 57, 56,-1,
		 54, 63, 61, 49,-1,
		 42, 41, 39, 38,-1,
		]
	} #IndexedFaceSet
	Material {
		ambientColor      0.0000 0.0000 0.0000  #ambientColor
		diffuseColor      0.0000 0.0000 0.0000  #diffuseColor
		transparency      0.0000                #transparency
	} #Material

	IndexedFaceSet {
		coordIndex [ 
		 69, 1, 5, 70,-1,
		 13, 12, 71, 72,-1,
		 73, 4, 0, 74,-1,
		 75, 76, 17, 77,-1,
		 23, 22, 78, 20,-1,
		 24, 23, 20, 74,-1,
		 28, 27, 79, 80,-1,
		 81, 82, 83, 84,-1,
		 35, 34, 85, 24,-1,
		 36, 24, 74,-1,
		 39, 38, 86, 36,-1,
		 42, 41, 74, 87,-1,
		 46, 45, 44, 43,-1,
		 88, 49, 89, 90,-1,
		 54, 91, 92, 93,-1,
		 57, 56, 94, 46,-1,
		 61, 95, 96, 58,-1,
		 97, 63, 82, 98,-1,
		]
	} #IndexedFaceSet
	Material {
		ambientColor      0.0549 0.0549 0.2500  #ambientColor
		diffuseColor      0.2196 0.2196 1.0000  #diffuseColor
		transparency      0.0000                #transparency
	} #Material

	IndexedFaceSet {
		coordIndex [ 
		 12, 13, 20, 17,-1,
		 22, 23, 24, 65,-1,
		 27, 28, 43, 44,-1,
		 34, 35, 36, 66,-1,
		 67, 45, 46,-1,
		 56, 57, 58, 68,-1,
		 49, 61, 63, 54,-1,
		 38, 39, 41, 42,-1,
		]
	} #IndexedFaceSet
	Material {
		ambientColor      0.0000 0.0000 0.0000  #ambientColor
		diffuseColor      0.0000 0.0000 0.0000  #diffuseColor
		transparency      0.0000                #transparency
	} #Material

	IndexedFaceSet {
		coordIndex [ 
		 2, 1, 5, 6,-1,
		 6, 5, 1, 2,-1,
		]
	} #IndexedFaceSet
	Material {
		ambientColor      0.2500 0.2500 0.2500  #ambientColor
		diffuseColor      1.0000 1.0000 1.0000  #diffuseColor
		transparency      0.0000                #transparency
	} #Material

	IndexedFaceSet {
		coordIndex [ 
		 3, 2, 6, 7,-1,
		 7, 6, 2, 3,-1,
		]
	} #IndexedFaceSet
	Material {
		ambientColor      0.0000 0.0000 0.0000  #ambientColor
		diffuseColor      0.0000 0.0000 0.0000  #diffuseColor
		transparency      0.0000                #transparency
	} #Material

	IndexedFaceSet {
		coordIndex [ 
		 7, 6, 5, 4,-1,
		 4, 5, 6, 7,-1,
		]
	} #IndexedFaceSet
} #Polyhedron
Separator { #Polyhedron
	DEF COORD6 Coordinate3 {
		point [
		 0.1750 6.2484 -0.5748,
		 0.3233 6.2484 -0.4757,
		 0.4224 6.2484 -0.3274,
		 0.4572 6.2484 -0.1524,
		 0.4224 6.2484 0.0226,
		 0.3233 6.2484 0.1709,
		 0.1750 6.2484 0.2700,
		 0.0000 6.2484 0.3048,
		 -0.1750 6.2484 0.2700,
		 -0.3233 6.2484 0.1709,
		 -0.4224 6.2484 0.0226,
		 -0.4572 6.2484 -0.1524,
		 -0.4224 6.2484 -0.3274,
		 -0.3233 6.2484 -0.4757,
		 -0.1750 6.2484 -0.5748,
		 0.0000 6.2484 -0.6096,
		 0.1750 1.6764 -0.5748,
		 0.3233 1.6764 -0.4757,
		 0.4224 1.6764 -0.3274,
		 0.4572 1.6764 -0.1524,
		 0.4224 1.6764 0.0226,
		 0.3233 1.6764 0.1709,
		 0.1750 1.6764 0.2700,
		 0.0000 1.6764 0.3048,
		 -0.1750 1.6764 0.2700,
		 -0.3233 1.6764 0.1709,
		 -0.4224 1.6764 0.0226,
		 -0.4572 1.6764 -0.1524,
		 -0.4224 1.6764 -0.3274,
		 -0.3233 1.6764 -0.4757,
		 -0.1750 1.6764 -0.5748,
		 0.0000 1.6764 -0.6096
		]
	} #Coordinate3
	Material {
		ambientColor      0.1176 0.1176 0.1176  #ambientColor
		diffuseColor      0.4706 0.4706 0.4706  #diffuseColor
		transparency      0.0000                #transparency
	} #Material

	IndexedFaceSet {
		coordIndex [ 
		 0, 1, 2, 3, 4, 5, 6, 7, 8, 9, 10, 11, 12, 13, 14, 15,-1,
		 15, 14, 13, 12, 11, 10, 9, 8, 7, 6, 5, 4, 3, 2, 1, 0,-1,
		 0, 15, 31, 16,-1,
		 16, 31, 15, 0,-1,
		 1, 0, 16, 17,-1,
		 17, 16, 0, 1,-1,
		 2, 1, 17, 18,-1,
		 18, 17, 1, 2,-1,
		 3, 2, 18, 19,-1,
		 19, 18, 2, 3,-1,
		 4, 3, 19, 20,-1,
		 20, 19, 3, 4,-1,
		 5, 4, 20, 21,-1,
		 21, 20, 4, 5,-1,
		 6, 5, 21, 22,-1,
		 22, 21, 5, 6,-1,
		 7, 6, 22, 23,-1,
		 23, 22, 6, 7,-1,
		 8, 7, 23, 24,-1,
		 24, 23, 7, 8,-1,
		 9, 8, 24, 25,-1,
		 25, 24, 8, 9,-1,
		 10, 9, 25, 26,-1,
		 26, 25, 9, 10,-1,
		 11, 10, 26, 27,-1,
		 27, 26, 10, 11,-1,
		 12, 11, 27, 28,-1,
		 28, 27, 11, 12,-1,
		 13, 12, 28, 29,-1,
		 29, 28, 12, 13,-1,
		 14, 13, 29, 30,-1,
		 30, 29, 13, 14,-1,
		 15, 14, 30, 31,-1,
		 31, 30, 14, 15,-1,
		 31, 30, 29, 28, 27, 26, 25, 24, 23, 22, 21, 20, 19, 18, 17, 16,-1,
		 16, 17, 18, 19, 20, 21, 22, 23, 24, 25, 26, 27, 28, 29, 30, 31,-1,
		]
	} #IndexedFaceSet
} #Polyhedron
Separator { #Polyhedron
	DEF COORD7 Coordinate3 {
		point [
		 0.0000 1.6764 -1.2192,
		 0.0000 1.6764 1.0668,
		 -1.2192 1.6764 1.0668,
		 -1.2192 1.6764 -1.2192,
		 0.0000 0.0000 -1.2192,
		 0.0000 0.0000 1.0668,
		 -1.2192 0.0000 1.0668,
		 -1.2192 0.0000 -1.2192
		]
	} #Coordinate3
	Material {
		ambientColor      0.1176 0.1176 0.1176  #ambientColor
		diffuseColor      0.4706 0.4706 0.4706  #diffuseColor
		transparency      0.0000                #transparency
	} #Material

	IndexedFaceSet {
		coordIndex [ 
		 0, 1, 2, 3,-1,
		 3, 2, 1, 0,-1,
		 0, 3, 7, 4,-1,
		 4, 7, 3, 0,-1,
		 1, 0, 4, 5,-1,
		 5, 4, 0, 1,-1,
		 2, 1, 5, 6,-1,
		 6, 5, 1, 2,-1,
		 3, 2, 6, 7,-1,
		 7, 6, 2, 3,-1,
		 7, 6, 5, 4,-1,
		 4, 5, 6, 7,-1,
		]
	} #IndexedFaceSet
} #Polyhedron
Separator { #Polyhedron
	DEF COORD8 Coordinate3 {
		point [
		 0.7620 1.6764 -1.6764,
		 0.7620 1.6764 0.1524,
		 0.0000 1.6764 0.1524,
		 0.0000 1.6764 -1.6764,
		 0.7620 0.0000 -1.6764,
		 0.7620 0.0000 0.1524,
		 0.0000 0.0000 0.1524,
		 0.0000 0.0000 -1.6764
		]
	} #Coordinate3
	Material {
		ambientColor      0.1176 0.1176 0.1176  #ambientColor
		diffuseColor      0.4706 0.4706 0.4706  #diffuseColor
		transparency      0.0000                #transparency
	} #Material

	Texture2 {
		filename ""  #filename
		wrapS REPEAT 
		wrapT REPEAT 
	} #Texture2

	IndexedFaceSet {
		coordIndex [ 
		 0, 1, 2, 3,-1,
		 3, 2, 1, 0,-1,
		 0, 3, 7, 4,-1,
		 4, 7, 3, 0,-1,
		 1, 0, 4, 5,-1,
		 5, 4, 0, 1,-1,
		 2, 1, 5, 6,-1,
		 6, 5, 1, 2,-1,
		 3, 2, 6, 7,-1,
		 7, 6, 2, 3,-1,
		 7, 6, 5, 4,-1,
		 4, 5, 6, 7,-1,
		]
	} #IndexedFaceSet
} #Polyhedron
Separator { #Polyhedron
	DEF COORD9 Coordinate3 {
		point [
		 1.2192 1.6764 0.1524,
		 1.2192 1.6764 1.3716,
		 0.0000 1.6764 1.3716,
		 0.0000 1.6764 0.1524,
		 1.2192 0.0000 0.1524,
		 1.2192 0.0000 1.3716,
		 0.0000 0.0000 1.3716,
		 0.0000 0.0000 0.1524
		]
	} #Coordinate3
	Material {
		ambientColor      0.1176 0.1176 0.1176  #ambientColor
		diffuseColor      0.4706 0.4706 0.4706  #diffuseColor
		transparency      0.0000                #transparency
	} #Material

	IndexedFaceSet {
		coordIndex [ 
		 0, 1, 2, 3,-1,
		 3, 2, 1, 0,-1,
		 0, 3, 7, 4,-1,
		 4, 7, 3, 0,-1,
		 1, 0, 4, 5,-1,
		 5, 4, 0, 1,-1,
		 2, 1, 5, 6,-1,
		 6, 5, 1, 2,-1,
		 3, 2, 6, 7,-1,
		 7, 6, 2, 3,-1,
		 7, 6, 5, 4,-1,
		 4, 5, 6, 7,-1,
		]
	} #IndexedFaceSet
} #Polyhedron
Separator { #Polyhedron
	DEF COORD10 Coordinate3 {
		point [
		 0.0000 0.7620 1.0668,
		 0.0000 0.7620 1.9812,
		 -0.7620 0.7620 1.9812,
		 -0.7620 0.7620 1.0668,
		 0.0000 0.0000 1.0668,
		 0.0000 0.0000 1.9812,
		 -0.7620 0.0000 1.9812,
		 -0.7620 0.0000 1.0668
		]
	} #Coordinate3
	Material {
		ambientColor      0.1735 0.1735 0.1735  #ambientColor
		diffuseColor      0.6941 0.6941 0.6941  #diffuseColor
		transparency      0.0000                #transparency
	} #Material

	IndexedFaceSet {
		coordIndex [ 
		 0, 1, 2, 3,-1,
		 3, 2, 1, 0,-1,
		 0, 3, 7, 4,-1,
		 4, 7, 3, 0,-1,
		 1, 0, 4, 5,-1,
		 5, 4, 0, 1,-1,
		 2, 1, 5, 6,-1,
		 6, 5, 1, 2,-1,
		 3, 2, 6, 7,-1,
		 7, 6, 2, 3,-1,
		 7, 6, 5, 4,-1,
		 4, 5, 6, 7,-1,
		]
	} #IndexedFaceSet
} #Polyhedron
Separator { #Polyhedron
	DEF COORD11 Coordinate3 {
		point [
		 0.0000 0.7620 -1.6764,
		 0.0000 0.7620 -1.2192,
		 -0.9144 0.7620 -1.2192,
		 -0.9144 0.7620 -1.6764,
		 0.0000 0.0000 -1.6764,
		 0.0000 0.0000 -1.2192,
		 -0.9144 0.0000 -1.2192,
		 -0.9144 0.0000 -1.6764
		]
	} #Coordinate3
	Material {
		ambientColor      0.1735 0.1735 0.1735  #ambientColor
		diffuseColor      0.6941 0.6941 0.6941  #diffuseColor
		transparency      0.0000                #transparency
	} #Material

	IndexedFaceSet {
		coordIndex [ 
		 0, 1, 2, 3,-1,
		 3, 2, 1, 0,-1,
		 0, 3, 7, 4,-1,
		 4, 7, 3, 0,-1,
		 1, 0, 4, 5,-1,
		 5, 4, 0, 1,-1,
		 2, 1, 5, 6,-1,
		 6, 5, 1, 2,-1,
		 3, 2, 6, 7,-1,
		 7, 6, 2, 3,-1,
		 7, 6, 5, 4,-1,
		 4, 5, 6, 7,-1,
		]
	} #IndexedFaceSet
} #Polyhedron
Separator { #Polyhedron
	DEF COORD12 Coordinate3 {
		point [
		 1.5240 0.7620 -0.4572,
		 1.5240 0.7620 0.1524,
		 0.7620 0.7620 0.1524,
		 0.7620 0.7620 -0.4572,
		 1.5240 0.0000 -0.4572,
		 1.5240 0.0000 0.1524,
		 0.7620 0.0000 0.1524,
		 0.7620 0.0000 -0.4572
		]
	} #Coordinate3
	Material {
		ambientColor      0.1735 0.1735 0.1735  #ambientColor
		diffuseColor      0.6941 0.6941 0.6941  #diffuseColor
		transparency      0.0000                #transparency
	} #Material

	IndexedFaceSet {
		coordIndex [ 
		 0, 1, 2, 3,-1,
		 3, 2, 1, 0,-1,
		 0, 3, 7, 4,-1,
		 4, 7, 3, 0,-1,
		 1, 0, 4, 5,-1,
		 5, 4, 0, 1,-1,
		 2, 1, 5, 6,-1,
		 6, 5, 1, 2,-1,
		 3, 2, 6, 7,-1,
		 7, 6, 2, 3,-1,
		 7, 6, 5, 4,-1,
		 4, 5, 6, 7,-1,
		]
	} #IndexedFaceSet
} #Polyhedron
Separator { #Polyhedron
	DEF COORD13 Coordinate3 {
		point [
		 1.5240 1.0668 -0.3048,
		 1.5240 1.0668 -0.0000,
		 1.2192 1.0668 -0.0000,
		 1.2192 1.0668 -0.3048,
		 1.5240 0.7620 -0.3048,
		 1.5240 0.7620 -0.0000,
		 1.2192 0.7620 -0.0000,
		 1.2192 0.7620 -0.3048
		]
	} #Coordinate3
	Material {
		ambientColor      0.1735 0.1735 0.1735  #ambientColor
		diffuseColor      0.6941 0.6941 0.6941  #diffuseColor
		transparency      0.0000                #transparency
	} #Material

	IndexedFaceSet {
		coordIndex [ 
		 0, 1, 2, 3,-1,
		 3, 2, 1, 0,-1,
		 0, 3, 7, 4,-1,
		 4, 7, 3, 0,-1,
		 1, 0, 4, 5,-1,
		 5, 4, 0, 1,-1,
		 2, 1, 5, 6,-1,
		 6, 5, 1, 2,-1,
		 3, 2, 6, 7,-1,
		 7, 6, 2, 3,-1,
		 7, 6, 5, 4,-1,
		 4, 5, 6, 7,-1,
		]
	} #IndexedFaceSet
} #Polyhedron
Separator { #Polyhedron
	DEF COORD14 Coordinate3 {
		point [
		 -0.3048 2.2860 0.1524,
		 -0.3048 2.2860 0.9144,
		 -0.9144 2.2860 0.9144,
		 -0.9144 2.2860 0.1524,
		 -0.3048 1.6764 0.1524,
		 -0.3048 1.6764 0.9144,
		 -0.9144 1.6764 0.9144,
		 -0.9144 1.6764 0.1524
		]
	} #Coordinate3
	Material {
		ambientColor      0.1735 0.1735 0.1735  #ambientColor
		diffuseColor      0.6941 0.6941 0.6941  #diffuseColor
		transparency      0.0000                #transparency
	} #Material

	IndexedFaceSet {
		coordIndex [ 
		 0, 1, 2, 3,-1,
		 3, 2, 1, 0,-1,
		 0, 3, 7, 4,-1,
		 4, 7, 3, 0,-1,
		 1, 0, 4, 5,-1,
		 5, 4, 0, 1,-1,
		 2, 1, 5, 6,-1,
		 6, 5, 1, 2,-1,
		 3, 2, 6, 7,-1,
		 7, 6, 2, 3,-1,
		 7, 6, 5, 4,-1,
		 4, 5, 6, 7,-1,
		]
	} #IndexedFaceSet
} #Polyhedron
Separator { #Polyhedron
	DEF COORD15 Coordinate3 {
		point [
		 0.3048 2.2860 -1.0668,
		 0.3048 2.2860 -0.7620,
		 -0.3048 2.2860 -0.7620,
		 -0.3048 2.2860 -1.0668,
		 0.3048 1.6764 -1.0668,
		 0.3048 1.6764 -0.7620,
		 -0.3048 1.6764 -0.7620,
		 -0.3048 1.6764 -1.0668
		]
	} #Coordinate3
	Material {
		ambientColor      0.1735 0.1735 0.1735  #ambientColor
		diffuseColor      0.6941 0.6941 0.6941  #diffuseColor
		transparency      0.0000                #transparency
	} #Material

	Texture2 {
		filename ""  #filename
		wrapS REPEAT 
		wrapT REPEAT 
	} #Texture2

	IndexedFaceSet {
		coordIndex [ 
		 0, 1, 2, 3,-1,
		 3, 2, 1, 0,-1,
		 0, 3, 7, 4,-1,
		 4, 7, 3, 0,-1,
		 1, 0, 4, 5,-1,
		 5, 4, 0, 1,-1,
		 2, 1, 5, 6,-1,
		 6, 5, 1, 2,-1,
		 3, 2, 6, 7,-1,
		 7, 6, 2, 3,-1,
		 7, 6, 5, 4,-1,
		 4, 5, 6, 7,-1,
		]
	} #IndexedFaceSet
} #Polyhedron
Separator { #Polyhedron
	DEF COORD16 Coordinate3 {
		point [
		 0.9144 2.7432 0.6096,
		 0.9144 2.7432 1.0668,
		 0.4572 2.7432 1.0668,
		 0.4572 2.7432 0.6096,
		 0.9144 1.6764 0.6096,
		 0.9144 1.6764 1.0668,
		 0.4572 1.6764 1.0668,
		 0.4572 1.6764 0.6096
		]
	} #Coordinate3
	Material {
		ambientColor      0.1735 0.1735 0.1735  #ambientColor
		diffuseColor      0.6941 0.6941 0.6941  #diffuseColor
		transparency      0.0000                #transparency
	} #Material

	IndexedFaceSet {
		coordIndex [ 
		 0, 1, 2, 3,-1,
		 3, 2, 1, 0,-1,
		 0, 3, 7, 4,-1,
		 4, 7, 3, 0,-1,
		 1, 0, 4, 5,-1,
		 5, 4, 0, 1,-1,
		 2, 1, 5, 6,-1,
		 6, 5, 1, 2,-1,
		 3, 2, 6, 7,-1,
		 7, 6, 2, 3,-1,
		 7, 6, 5, 4,-1,
		 4, 5, 6, 7,-1,
		]
	} #IndexedFaceSet
} #Polyhedron
Separator { #Polyhedron
	DEF COORD17 Coordinate3 {
		point [
		 -3.4138 5.7912 -9.0978,
		 -3.4577 5.7213 -9.0818,
		 -3.4731 5.6388 -9.0762,
		 -3.4577 5.5563 -9.0818,
		 -3.4138 5.4864 -9.0978,
		 -3.3481 5.4397 -9.1217,
		 -3.2706 5.4233 -9.1499,
		 -3.1931 5.4397 -9.1782,
		 -3.1274 5.4864 -9.2021,
		 -3.0834 5.5563 -9.2180,
		 -3.0680 5.6388 -9.2237,
		 -3.0834 5.7213 -9.2180,
		 -3.1274 5.7912 -9.2021,
		 -3.1931 5.8379 -9.1782,
		 -3.2706 5.8543 -9.1499,
		 -3.3481 5.8379 -9.1217,
		 -0.2864 5.7912 -0.5054,
		 -0.3303 5.7213 -0.4894,
		 -0.3457 5.6388 -0.4838,
		 -0.3303 5.5563 -0.4894,
		 -0.2864 5.4864 -0.5054,
		 -0.2207 5.4397 -0.5293,
		 -0.1432 5.4233 -0.5575,
		 -0.0657 5.4397 -0.5857,
		 0.0000 5.4864 -0.6096,
		 0.0439 5.5563 -0.6256,
		 0.0593 5.6388 -0.6312,
		 0.0439 5.7213 -0.6256,
		 -0.0000 5.7912 -0.6096,
		 -0.0657 5.8379 -0.5857,
		 -0.1432 5.8543 -0.5575,
		 -0.2207 5.8379 -0.5293
		]
	} #Coordinate3
	Material {
		ambientColor      0.0000 0.2500 0.0000  #ambientColor
		diffuseColor      0.0000 1.0000 0.0000  #diffuseColor
		transparency      0.0000                #transparency
	} #Material

	IndexedFaceSet {
		coordIndex [ 
		 0, 1, 2, 3, 4, 5, 6, 7, 8, 9, 10, 11, 12, 13, 14, 15,-1,
		 15, 14, 13, 12, 11, 10, 9, 8, 7, 6, 5, 4, 3, 2, 1, 0,-1,
		 0, 15, 31, 16,-1,
		 16, 31, 15, 0,-1,
		 1, 0, 16, 17,-1,
		 17, 16, 0, 1,-1,
		 2, 1, 17, 18,-1,
		 18, 17, 1, 2,-1,
		 3, 2, 18, 19,-1,
		 19, 18, 2, 3,-1,
		 4, 3, 19, 20,-1,
		 20, 19, 3, 4,-1,
		 5, 4, 20, 21,-1,
		 21, 20, 4, 5,-1,
		 6, 5, 21, 22,-1,
		 22, 21, 5, 6,-1,
		 7, 6, 22, 23,-1,
		 23, 22, 6, 7,-1,
		 8, 7, 23, 24,-1,
		 24, 23, 7, 8,-1,
		 9, 8, 24, 25,-1,
		 25, 24, 8, 9,-1,
		 10, 9, 25, 26,-1,
		 26, 25, 9, 10,-1,
		 11, 10, 26, 27,-1,
		 27, 26, 10, 11,-1,
		 12, 11, 27, 28,-1,
		 28, 27, 11, 12,-1,
		 13, 12, 28, 29,-1,
		 29, 28, 12, 13,-1,
		 14, 13, 29, 30,-1,
		 30, 29, 13, 14,-1,
		 15, 14, 30, 31,-1,
		 31, 30, 14, 15,-1,
		 31, 30, 29, 28, 27, 26, 25, 24, 23, 22, 21, 20, 19, 18, 17, 16,-1,
		 16, 17, 18, 19, 20, 21, 22, 23, 24, 25, 26, 27, 28, 29, 30, 31,-1,
		]
	} #IndexedFaceSet
} #Polyhedron
Separator { #Polyhedron
	DEF COORD18 Coordinate3 {
		point [
		 9.9060 5.1700 -0.2107,
		 9.9060 5.1370 -0.2602,
		 9.9060 5.0875 -0.2932,
		 9.9060 5.0292 -0.3048,
		 9.9060 4.9709 -0.2932,
		 9.9060 4.9214 -0.2602,
		 9.9060 4.8884 -0.2107,
		 9.9060 4.8768 -0.1524,
		 9.9060 4.8884 -0.0941,
		 9.9060 4.9214 -0.0446,
		 9.9060 4.9709 -0.0116,
		 9.9060 5.0292 -0.0000,
		 9.9060 5.0875 -0.0116,
		 9.9060 5.1370 -0.0446,
		 9.9060 5.1700 -0.0941,
		 9.9060 5.1816 -0.1524,
		 0.4572 5.1700 -0.2107,
		 0.4572 5.1370 -0.2602,
		 0.4572 5.0875 -0.2932,
		 0.4572 5.0292 -0.3048,
		 0.4572 4.9709 -0.2932,
		 0.4572 4.9214 -0.2602,
		 0.4572 4.8884 -0.2107,
		 0.4572 4.8768 -0.1524,
		 0.4572 4.8884 -0.0941,
		 0.4572 4.9214 -0.0446,
		 0.4572 4.9709 -0.0116,
		 0.4572 5.0292 -0.0000,
		 0.4572 5.0875 -0.0116,
		 0.4572 5.1370 -0.0446,
		 0.4572 5.1700 -0.0941,
		 0.4572 5.1816 -0.1524
		]
	} #Coordinate3
	Material {
		ambientColor      0.0000 0.2500 0.0000  #ambientColor
		diffuseColor      0.0000 1.0000 0.0000  #diffuseColor
		transparency      0.0000                #transparency
	} #Material

	IndexedFaceSet {
		coordIndex [ 
		 0, 1, 2, 3, 4, 5, 6, 7, 8, 9, 10, 11, 12, 13, 14, 15,-1,
		 15, 14, 13, 12, 11, 10, 9, 8, 7, 6, 5, 4, 3, 2, 1, 0,-1,
		 0, 15, 31, 16,-1,
		 16, 31, 15, 0,-1,
		 1, 0, 16, 17,-1,
		 17, 16, 0, 1,-1,
		 2, 1, 17, 18,-1,
		 18, 17, 1, 2,-1,
		 3, 2, 18, 19,-1,
		 19, 18, 2, 3,-1,
		 4, 3, 19, 20,-1,
		 20, 19, 3, 4,-1,
		 5, 4, 20, 21,-1,
		 21, 20, 4, 5,-1,
		 6, 5, 21, 22,-1,
		 22, 21, 5, 6,-1,
		 7, 6, 22, 23,-1,
		 23, 22, 6, 7,-1,
		 8, 7, 23, 24,-1,
		 24, 23, 7, 8,-1,
		 9, 8, 24, 25,-1,
		 25, 24, 8, 9,-1,
		 10, 9, 25, 26,-1,
		 26, 25, 9, 10,-1,
		 11, 10, 26, 27,-1,
		 27, 26, 10, 11,-1,
		 12, 11, 27, 28,-1,
		 28, 27, 11, 12,-1,
		 13, 12, 28, 29,-1,
		 29, 28, 12, 13,-1,
		 14, 13, 29, 30,-1,
		 30, 29, 13, 14,-1,
		 15, 14, 30, 31,-1,
		 31, 30, 14, 15,-1,
		 31, 30, 29, 28, 27, 26, 25, 24, 23, 22, 21, 20, 19, 18, 17, 16,-1,
		 16, 17, 18, 19, 20, 21, 22, 23, 24, 25, 26, 27, 28, 29, 30, 31,-1,
		]
	} #IndexedFaceSet
} #Polyhedron
Separator { #Polyhedron
	DEF COORD19 Coordinate3 {
		point [
		 2.0572 5.7213 9.6047,
		 2.0734 5.6388 9.6018,
		 2.0572 5.5563 9.6047,
		 2.0112 5.4864 9.6128,
		 1.9423 5.4397 9.6249,
		 1.8611 5.4233 9.6393,
		 1.7799 5.4397 9.6536,
		 1.7110 5.4864 9.6657,
		 1.6650 5.5563 9.6738,
		 1.6489 5.6388 9.6767,
		 1.6650 5.7213 9.6738,
		 1.7110 5.7912 9.6657,
		 1.7799 5.8379 9.6536,
		 1.8611 5.8543 9.6393,
		 1.9423 5.8379 9.6249,
		 2.0112 5.7912 9.6128,
		 0.4165 5.7213 0.2995,
		 0.4326 5.6388 0.2966,
		 0.4165 5.5563 0.2995,
		 0.3704 5.4864 0.3076,
		 0.3016 5.4397 0.3197,
		 0.2204 5.4233 0.3340,
		 0.1391 5.4397 0.3484,
		 0.0703 5.4864 0.3605,
		 0.0243 5.5563 0.3686,
		 0.0081 5.6388 0.3715,
		 0.0243 5.7213 0.3686,
		 0.0703 5.7912 0.3605,
		 0.1391 5.8379 0.3484,
		 0.2204 5.8543 0.3340,
		 0.3016 5.8379 0.3197,
		 0.3704 5.7912 0.3076
		]
	} #Coordinate3
	Material {
		ambientColor      0.0000 0.2500 0.0000  #ambientColor
		diffuseColor      0.0000 1.0000 0.0000  #diffuseColor
		transparency      0.0000                #transparency
	} #Material

	IndexedFaceSet {
		coordIndex [ 
		 0, 1, 2, 3, 4, 5, 6, 7, 8, 9, 10, 11, 12, 13, 14, 15,-1,
		 15, 14, 13, 12, 11, 10, 9, 8, 7, 6, 5, 4, 3, 2, 1, 0,-1,
		 0, 15, 31, 16,-1,
		 16, 31, 15, 0,-1,
		 1, 0, 16, 17,-1,
		 17, 16, 0, 1,-1,
		 2, 1, 17, 18,-1,
		 18, 17, 1, 2,-1,
		 3, 2, 18, 19,-1,
		 19, 18, 2, 3,-1,
		 4, 3, 19, 20,-1,
		 20, 19, 3, 4,-1,
		 5, 4, 20, 21,-1,
		 21, 20, 4, 5,-1,
		 6, 5, 21, 22,-1,
		 22, 21, 5, 6,-1,
		 7, 6, 22, 23,-1,
		 23, 22, 6, 7,-1,
		 8, 7, 23, 24,-1,
		 24, 23, 7, 8,-1,
		 9, 8, 24, 25,-1,
		 25, 24, 8, 9,-1,
		 10, 9, 25, 26,-1,
		 26, 25, 9, 10,-1,
		 11, 10, 26, 27,-1,
		 27, 26, 10, 11,-1,
		 12, 11, 27, 28,-1,
		 28, 27, 11, 12,-1,
		 13, 12, 28, 29,-1,
		 29, 28, 12, 13,-1,
		 14, 13, 29, 30,-1,
		 30, 29, 13, 14,-1,
		 15, 14, 30, 31,-1,
		 31, 30, 14, 15,-1,
		 31, 30, 29, 28, 27, 26, 25, 24, 23, 22, 21, 20, 19, 18, 17, 16,-1,
		 16, 17, 18, 19, 20, 21, 22, 23, 24, 25, 26, 27, 28, 29, 30, 31,-1,
		]
	} #IndexedFaceSet
} #Polyhedron
Separator { #Polyhedron
	DEF COORD20 Coordinate3 {
		point [
		 -1.0668 5.9436 -0.1524,
		 -0.9144 5.7912 -0.3048,
		 -0.9144 5.7912 -0.0000,
		 -1.2192 5.7912 -0.0000,
		 -1.2192 5.7912 -0.3048,
		 -1.0668 5.6388 -0.1524
		]
	} #Coordinate3
	Material {
		ambientColor      0.1735 0.1735 0.1735  #ambientColor
		diffuseColor      0.6941 0.6941 0.6941  #diffuseColor
		transparency      0.0000                #transparency
	} #Material

	IndexedFaceSet {
		coordIndex [ 
		 0, 4, 1,-1,
		 1, 4, 0,-1,
		 1, 4, 5,-1,
		 5, 4, 1,-1,
		]
	} #IndexedFaceSet
} #Polyhedron
Separator { #Polyhedron
	DEF COORD21 Coordinate3 {
		point [
		 0.5334 5.9436 -1.1430,
		 0.7620 5.7912 -1.3716,
		 0.7620 5.7912 -0.9144,
		 0.3048 5.7912 -0.9144,
		 0.3048 5.7912 -1.3716,
		 0.5334 5.6388 -1.1430
		]
	} #Coordinate3
	Material {
		ambientColor      0.2500 0.2500 0.2500  #ambientColor
		diffuseColor      1.0000 1.0000 1.0000  #diffuseColor
		transparency      0.0000                #transparency
	} #Material

	IndexedFaceSet {
		coordIndex [ 
		 0, 4, 1,-1,
		 1, 4, 0,-1,
		 0, 1, 2,-1,
		 2, 1, 0,-1,
		 0, 2, 3,-1,
		 3, 2, 0,-1,
		 0, 3, 4,-1,
		 4, 3, 0,-1,
		 1, 4, 5,-1,
		 5, 4, 1,-1,
		 2, 1, 5,-1,
		 5, 1, 2,-1,
		 3, 2, 5,-1,
		 5, 2, 3,-1,
		 4, 3, 5,-1,
		 5, 3, 4,-1,
		]
	} #IndexedFaceSet
} #Polyhedron
Separator { #Polyhedron
	DEF COORD22 Coordinate3 {
		point [
		 1.0668 5.9436 0.3048,
		 1.0668 5.9436 0.6096,
		 0.7620 5.9436 0.6096,
		 0.7620 5.9436 0.3048,
		 1.0668 5.6388 0.3048,
		 1.0668 5.6388 0.6096,
		 0.7620 5.6388 0.6096,
		 0.7620 5.6388 0.3048
		]
	} #Coordinate3
	Material {
		ambientColor      0.2500 0.2500 0.2500  #ambientColor
		diffuseColor      1.0000 1.0000 1.0000  #diffuseColor
		transparency      0.0000                #transparency
	} #Material

	IndexedFaceSet {
		coordIndex [ 
		 0, 1, 2, 3,-1,
		 3, 2, 1, 0,-1,
		 0, 3, 7, 4,-1,
		 4, 7, 3, 0,-1,
		 1, 0, 4, 5,-1,
		 5, 4, 0, 1,-1,
		 2, 1, 5, 6,-1,
		 6, 5, 1, 2,-1,
		 3, 2, 6, 7,-1,
		 7, 6, 2, 3,-1,
		 7, 6, 5, 4,-1,
		 4, 5, 6, 7,-1,
		]
	} #IndexedFaceSet
} #Polyhedron
Separator { #Polyhedron
	DEF COORD23 Coordinate3 {
		point [
		 -0.6096 6.2484 -1.3716,
		 -0.6096 6.2484 -1.0668,
		 -0.9144 6.2484 -1.0668,
		 -0.9144 6.2484 -1.3716,
		 -0.6096 6.0960 -1.3716,
		 -0.6096 6.0960 -1.0668,
		 -0.9144 6.0960 -1.0668,
		 -0.9144 6.0960 -1.3716
		]
	} #Coordinate3
	Material {
		ambientColor      0.2500 0.2500 0.2500  #ambientColor
		diffuseColor      1.0000 1.0000 1.0000  #diffuseColor
		transparency      0.0000                #transparency
	} #Material

	IndexedFaceSet {
		coordIndex [ 
		 0, 1, 2, 3,-1,
		 3, 2, 1, 0,-1,
		 0, 3, 7, 4,-1,
		 4, 7, 3, 0,-1,
		 1, 0, 4, 5,-1,
		 5, 4, 0, 1,-1,
		 2, 1, 5, 6,-1,
		 6, 5, 1, 2,-1,
		 3, 2, 6, 7,-1,
		 7, 6, 2, 3,-1,
		 7, 6, 5, 4,-1,
		 4, 5, 6, 7,-1,
		]
	} #IndexedFaceSet
} #Polyhedron
Separator { #Polyhedron
	DEF COORD24 Coordinate3 {
		point [
		 1.2954 6.2484 -0.3810,
		 1.3716 6.1722 -0.4572,
		 1.3716 6.1722 -0.3048,
		 1.2192 6.1722 -0.3048,
		 1.2192 6.1722 -0.4572,
		 1.2954 6.0960 -0.3810
		]
	} #Coordinate3
	Material {
		ambientColor      0.1735 0.1735 0.1735  #ambientColor
		diffuseColor      0.6941 0.6941 0.6941  #diffuseColor
		transparency      0.0000                #transparency
	} #Material

	IndexedFaceSet {
		coordIndex [ 
		 1, 4, 5,-1,
		 5, 4, 1,-1,
		 2, 1, 5,-1,
		 5, 1, 2,-1,
		 3, 2, 5,-1,
		 5, 2, 3,-1,
		 4, 3, 5,-1,
		 5, 3, 4,-1,
		]
	} #IndexedFaceSet
} #Polyhedron
Separator { #Polyhedron
	DEF COORD25 Coordinate3 {
		point [
		 0.0000 6.2484 0.7620,
		 0.0000 6.2484 0.9144,
		 -0.3048 6.2484 0.9144,
		 -0.3048 6.2484 0.7620,
		 0.0000 6.0960 0.7620,
		 0.0000 6.0960 0.9144,
		 -0.3048 6.0960 0.9144,
		 -0.3048 6.0960 0.7620
		]
	} #Coordinate3
	Material {
		ambientColor      0.1735 0.1735 0.1735  #ambientColor
		diffuseColor      0.6941 0.6941 0.6941  #diffuseColor
		transparency      0.0000                #transparency
	} #Material

	IndexedFaceSet {
		coordIndex [ 
		 0, 1, 2, 3,-1,
		 3, 2, 1, 0,-1,
		 0, 3, 7, 4,-1,
		 4, 7, 3, 0,-1,
		 1, 0, 4, 5,-1,
		 5, 4, 0, 1,-1,
		 2, 1, 5, 6,-1,
		 6, 5, 1, 2,-1,
		 3, 2, 6, 7,-1,
		 7, 6, 2, 3,-1,
		 7, 6, 5, 4,-1,
		 4, 5, 6, 7,-1,
		]
	} #IndexedFaceSet
} #Polyhedron
Separator { #Polyhedron
	DEF COORD26 Coordinate3 {
		point [
		 -0.8382 5.0292 -0.3810,
		 -0.7620 4.9530 -0.4572,
		 -0.7620 4.9530 -0.3048,
		 -0.9144 4.9530 -0.3048,
		 -0.9144 4.9530 -0.4572,
		 -0.8382 4.8768 -0.3810
		]
	} #Coordinate3
	Material {
		ambientColor      0.1735 0.1735 0.1735  #ambientColor
		diffuseColor      0.6941 0.6941 0.6941  #diffuseColor
		transparency      0.0000                #transparency
	} #Material

	IndexedFaceSet {
		coordIndex [ 
		 1, 4, 5,-1,
		 5, 4, 1,-1,
		 2, 1, 5,-1,
		 5, 1, 2,-1,
		 3, 2, 5,-1,
		 5, 2, 3,-1,
		 4, 3, 5,-1,
		 5, 3, 4,-1,
		]
	} #IndexedFaceSet
} #Polyhedron
Separator { #Polyhedron
	DEF COORD27 Coordinate3 {
		point [
		 0.6096 5.0292 -0.6096,
		 0.6096 5.0292 -0.4572,
		 0.4572 5.0292 -0.4572,
		 0.4572 5.0292 -0.6096,
		 0.6096 4.8768 -0.6096,
		 0.6096 4.8768 -0.4572,
		 0.4572 4.8768 -0.4572,
		 0.4572 4.8768 -0.6096
		]
	} #Coordinate3
	Material {
		ambientColor      0.1735 0.1735 0.1735  #ambientColor
		diffuseColor      0.6941 0.6941 0.6941  #diffuseColor
		transparency      0.0000                #transparency
	} #Material

	IndexedFaceSet {
		coordIndex [ 
		 0, 1, 2, 3,-1,
		 3, 2, 1, 0,-1,
		 0, 3, 7, 4,-1,
		 4, 7, 3, 0,-1,
		 1, 0, 4, 5,-1,
		 5, 4, 0, 1,-1,
		 2, 1, 5, 6,-1,
		 6, 5, 1, 2,-1,
		 3, 2, 6, 7,-1,
		 7, 6, 2, 3,-1,
		 7, 6, 5, 4,-1,
		 4, 5, 6, 7,-1,
		]
	} #IndexedFaceSet
} #Polyhedron
Separator { #Polyhedron
	DEF COORD28 Coordinate3 {
		point [
		 0.9144 5.1816 0.1524,
		 0.9144 5.1816 0.3048,
		 0.7620 5.1816 0.3048,
		 0.7620 5.1816 0.1524,
		 0.9144 5.0292 0.1524,
		 0.9144 5.0292 0.3048,
		 0.7620 5.0292 0.3048,
		 0.7620 5.0292 0.1524
		]
	} #Coordinate3
	Material {
		ambientColor      0.1735 0.1735 0.1735  #ambientColor
		diffuseColor      0.6941 0.6941 0.6941  #diffuseColor
		transparency      0.0000                #transparency
	} #Material

	IndexedFaceSet {
		coordIndex [ 
		 0, 1, 2, 3,-1,
		 3, 2, 1, 0,-1,
		 0, 3, 7, 4,-1,
		 4, 7, 3, 0,-1,
		 1, 0, 4, 5,-1,
		 5, 4, 0, 1,-1,
		 2, 1, 5, 6,-1,
		 6, 5, 1, 2,-1,
		 3, 2, 6, 7,-1,
		 7, 6, 2, 3,-1,
		 7, 6, 5, 4,-1,
		 4, 5, 6, 7,-1,
		]
	} #IndexedFaceSet
} #Polyhedron
Separator { #Polyhedron
	DEF COORD29 Coordinate3 {
		point [
		 -0.3048 5.1816 0.4572,
		 -0.3048 5.1816 0.6096,
		 -0.4572 5.1816 0.6096,
		 -0.4572 5.1816 0.4572,
		 -0.3048 5.0292 0.4572,
		 -0.3048 5.0292 0.6096,
		 -0.4572 5.0292 0.6096,
		 -0.4572 5.0292 0.4572
		]
	} #Coordinate3
	Material {
		ambientColor      0.1735 0.1735 0.1735  #ambientColor
		diffuseColor      0.6941 0.6941 0.6941  #diffuseColor
		transparency      0.0000                #transparency
	} #Material

	IndexedFaceSet {
		coordIndex [ 
		 0, 1, 2, 3,-1,
		 3, 2, 1, 0,-1,
		 0, 3, 7, 4,-1,
		 4, 7, 3, 0,-1,
		 1, 0, 4, 5,-1,
		 5, 4, 0, 1,-1,
		 2, 1, 5, 6,-1,
		 6, 5, 1, 2,-1,
		 3, 2, 6, 7,-1,
		 7, 6, 2, 3,-1,
		 7, 6, 5, 4,-1,
		 4, 5, 6, 7,-1,
		]
	} #IndexedFaceSet
} #Polyhedron
Separator { #Polyhedron
	DEF COORD30 Coordinate3 {
		point [
		 -0.5221 5.1919 -0.0746,
		 -0.5250 5.1594 -0.1243,
		 -0.5223 5.1107 -0.1583,
		 -0.5144 5.0532 -0.1715,
		 -0.5024 4.9958 -0.1618,
		 -0.4882 4.9471 -0.1308,
		 -0.4740 4.9146 -0.0831,
		 -0.4618 4.9032 -0.0260,
		 -0.4537 4.9146 0.0318,
		 -0.4508 4.9471 0.0815,
		 -0.4535 4.9958 0.1155,
		 -0.4614 5.0532 0.1287,
		 -0.4734 5.1107 0.1190,
		 -0.4876 5.1594 0.0880,
		 -0.5019 5.1919 0.0403,
		 -0.5140 5.2033 -0.0168,
		 -9.6858 3.5514 1.5411,
		 -9.6887 3.5189 1.4914,
		 -9.6860 3.4702 1.4574,
		 -9.6781 3.4127 1.4442,
		 -9.6661 3.3553 1.4538,
		 -9.6519 3.3066 1.4849,
		 -9.6377 3.2741 1.5326,
		 -9.6256 3.2626 1.5897,
		 -9.6174 3.2741 1.6474,
		 -9.6145 3.3066 1.6971,
		 -9.6172 3.3553 1.7312,
		 -9.6252 3.4127 1.7443,
		 -9.6371 3.4702 1.7347,
		 -9.6513 3.5189 1.7036,
		 -9.6656 3.5514 1.6559,
		 -9.6777 3.5628 1.5988
		]
	} #Coordinate3
	Material {
		ambientColor      0.0000 0.2500 0.0000  #ambientColor
		diffuseColor      0.0000 1.0000 0.0000  #diffuseColor
		transparency      0.0000                #transparency
	} #Material

	IndexedFaceSet {
		coordIndex [ 
		 0, 1, 2, 3, 4, 5, 6, 7, 8, 9, 10, 11, 12, 13, 14, 15,-1,
		 15, 14, 13, 12, 11, 10, 9, 8, 7, 6, 5, 4, 3, 2, 1, 0,-1,
		 0, 15, 31, 16,-1,
		 16, 31, 15, 0,-1,
		 1, 0, 16, 17,-1,
		 17, 16, 0, 1,-1,
		 2, 1, 17, 18,-1,
		 18, 17, 1, 2,-1,
		 3, 2, 18, 19,-1,
		 19, 18, 2, 3,-1,
		 4, 3, 19, 20,-1,
		 20, 19, 3, 4,-1,
		 5, 4, 20, 21,-1,
		 21, 20, 4, 5,-1,
		 6, 5, 21, 22,-1,
		 22, 21, 5, 6,-1,
		 7, 6, 22, 23,-1,
		 23, 22, 6, 7,-1,
		 8, 7, 23, 24,-1,
		 24, 23, 7, 8,-1,
		 9, 8, 24, 25,-1,
		 25, 24, 8, 9,-1,
		 10, 9, 25, 26,-1,
		 26, 25, 9, 10,-1,
		 11, 10, 26, 27,-1,
		 27, 26, 10, 11,-1,
		 12, 11, 27, 28,-1,
		 28, 27, 11, 12,-1,
		 13, 12, 28, 29,-1,
		 29, 28, 12, 13,-1,
		 14, 13, 29, 30,-1,
		 30, 29, 13, 14,-1,
		 15, 14, 30, 31,-1,
		 31, 30, 14, 15,-1,
		 31, 30, 29, 28, 27, 26, 25, 24, 23, 22, 21, 20, 19, 18, 17, 16,-1,
		 16, 17, 18, 19, 20, 21, 22, 23, 24, 25, 26, 27, 28, 29, 30, 31,-1,
		]
	} #IndexedFaceSet
} #Polyhedron
Separator { #Polyhedron
	DEF COORD31 Coordinate3 {
		point [
		 0.9144 5.7912 1.8288,
		 0.9144 5.7912 1.5240,
		 1.2192 5.7912 1.5240,
		 1.2192 5.7912 1.8288,
		 0.9144 5.6388 1.8288,
		 0.9144 5.6388 1.5240,
		 1.2192 5.6388 1.5240,
		 1.2192 5.6388 1.8288
		]
	} #Coordinate3
	Material {
		ambientColor      0.1735 0.1735 0.1735  #ambientColor
		diffuseColor      0.6941 0.6941 0.6941  #diffuseColor
		transparency      0.0000                #transparency
	} #Material

	IndexedFaceSet {
		coordIndex [ 
		 0, 1, 2, 3,-1,
		 3, 2, 1, 0,-1,
		 0, 3, 7, 4,-1,
		 4, 7, 3, 0,-1,
		 1, 0, 4, 5,-1,
		 5, 4, 0, 1,-1,
		 2, 1, 5, 6,-1,
		 6, 5, 1, 2,-1,
		 3, 2, 6, 7,-1,
		 7, 6, 2, 3,-1,
		 7, 6, 5, 4,-1,
		 4, 5, 6, 7,-1,
		]
	} #IndexedFaceSet
} #Polyhedron
Separator { #Polyhedron
	DEF COORD32 Coordinate3 {
		point [
		 2.8619 1.9812 -3.4409,
		 2.8619 1.2192 -3.4409,
		 2.8445 1.2192 -3.3932,
		 2.8445 1.9812 -3.3932,
		 -0.4319 1.9812 -4.6396,
		 -0.4319 1.2192 -4.6396,
		 -0.4493 1.2192 -4.5919,
		 -0.4493 1.9812 -4.5919,
		 -0.4493 1.9305 -4.5919,
		 2.8445 1.9305 -3.3932,
		 -0.4493 1.2701 -4.5919,
		 -0.4493 1.9305 -4.5919,
		 -0.4015 1.9305 -4.5745,
		 -0.4015 1.2701 -4.5745,
		 2.8445 1.2701 -3.3932,
		 -0.4493 1.2701 -4.5919,
		 2.8445 1.9305 -3.3932,
		 2.7969 1.2701 -3.4105,
		 2.7969 1.9305 -3.4105,
		 -0.4015 1.8288 -4.5745,
		 2.7969 1.8288 -3.4105,
		 -0.4015 1.3716 -4.5745,
		 -0.4015 1.8288 -4.5745,
		 -0.3060 1.8288 -4.5397,
		 -0.3060 1.3716 -4.5397,
		 -0.4015 1.3208 -4.5745,
		 -0.4015 1.3716 -4.5745,
		 1.6511 1.3716 -3.8275,
		 1.6511 1.3208 -3.8275,
		 2.1284 1.3716 -3.6538,
		 2.1284 1.3208 -3.6538,
		 1.9375 1.3208 -3.7232,
		 1.9375 1.3716 -3.7232,
		 2.7969 1.3208 -3.4105,
		 -0.4015 1.3208 -4.5745,
		 2.7969 1.3716 -3.4105,
		 2.7969 1.3208 -3.4105,
		 2.6058 1.3208 -3.4800,
		 2.6058 1.3716 -3.4800,
		 0.4100 1.7780 -4.2791,
		 0.4100 1.8288 -4.2791,
		 1.6988 1.8288 -3.8101,
		 1.6988 1.7780 -3.8101,
		 2.0807 1.8288 -3.6711,
		 2.0807 1.7780 -3.6711,
		 1.9375 1.7780 -3.7232,
		 1.9375 1.8288 -3.7232,
		 2.7969 1.8288 -3.4105,
		 2.7969 1.7780 -3.4105,
		 2.6535 1.7780 -3.4627,
		 2.6535 1.8288 -3.4627,
		 0.4100 1.7272 -4.2791,
		 0.4100 1.7780 -4.2791,
		 0.6487 1.7780 -4.1923,
		 0.6487 1.7272 -4.1923,
		 1.1738 1.7780 -4.0012,
		 1.1738 1.7272 -4.0012,
		 1.0306 1.7272 -4.0533,
		 1.0306 1.7780 -4.0533,
		 0.4100 1.6764 -4.2791,
		 0.4100 1.7272 -4.2791,
		 2.1284 1.7272 -3.6538,
		 2.1284 1.6764 -3.6538,
		 2.7969 1.6764 -3.4105,
		 2.7969 1.6256 -3.4105,
		 0.4100 1.6256 -4.2791,
		 0.4100 1.6764 -4.2791,
		 2.7969 1.7272 -3.4105,
		 2.6535 1.6764 -3.4627,
		 2.6535 1.7272 -3.4627,
		 2.7969 1.7780 -3.4105,
		 1.6034 1.7272 -3.8448,
		 1.6034 1.7780 -3.8448,
		 0.4100 1.5748 -4.2791,
		 0.4100 1.6256 -4.2791,
		 0.5055 1.6256 -4.2444,
		 0.5055 1.5748 -4.2444,
		 0.4100 1.4732 -4.2791,
		 0.4100 1.5748 -4.2791,
		 2.7969 1.5748 -3.4105,
		 2.7969 1.4732 -3.4105,
		 0.4100 1.4224 -4.2791,
		 0.4100 1.4732 -4.2791,
		 0.5055 1.4732 -4.2444,
		 0.5055 1.4224 -4.2444,
		 2.7969 1.4224 -3.4105,
		 0.4100 1.3716 -4.2791,
		 0.4100 1.4224 -4.2791,
		 1.5556 1.4224 -3.8622,
		 1.5556 1.4732 -3.8622,
		 1.9852 1.4732 -3.7059,
		 1.9852 1.4224 -3.7059,
		 2.3194 1.4224 -3.5843,
		 2.3194 1.4732 -3.5843,
		 2.4626 1.4732 -3.5322,
		 2.4626 1.4224 -3.5322,
		 2.7969 1.4732 -3.4105,
		 2.6535 1.4224 -3.4627,
		 2.6535 1.4732 -3.4627,
		 1.3170 1.5748 -3.9491,
		 1.3170 1.6256 -3.9491,
		 1.5079 1.6256 -3.8796,
		 1.5079 1.5748 -3.8796,
		 1.9852 1.6256 -3.7059,
		 1.9852 1.5748 -3.7059,
		 1.8420 1.5748 -3.7580,
		 1.8420 1.6256 -3.7580,
		 2.4626 1.5748 -3.5322,
		 2.4626 1.6256 -3.5322,
		 2.5103 1.6256 -3.5148,
		 2.5103 1.5748 -3.5148,
		 2.7969 1.6256 -3.4105,
		 2.6535 1.5748 -3.4627,
		 2.6535 1.6256 -3.4627,
		 -0.3060 1.7780 -4.5397,
		 0.4100 1.8288 -4.2791,
		 0.4100 1.7780 -4.2791,
		 -0.3060 1.4224 -4.5397,
		 -0.3060 1.7780 -4.5397,
		 -0.2583 1.7780 -4.5223,
		 -0.2583 1.4224 -4.5223,
		 0.4100 1.4224 -4.2791,
		 -0.3060 1.4224 -4.5397,
		 -0.2105 1.7272 -4.5050,
		 -0.2105 1.7780 -4.5050,
		 0.3145 1.7780 -4.3139,
		 0.3145 1.7272 -4.3139,
		 0.4100 1.7780 -4.2791,
		 0.4100 1.7272 -4.2791,
		 0.3623 1.7272 -4.2965,
		 0.3623 1.7780 -4.2965,
		 -0.2105 1.6256 -4.5050,
		 -0.2105 1.7272 -4.5050,
		 0.0281 1.7272 -4.4181,
		 0.0281 1.6256 -4.4181,
		 0.1236 1.6764 -4.3834,
		 0.1236 1.7272 -4.3834,
		 0.3145 1.7272 -4.3139,
		 0.3145 1.6764 -4.3139,
		 0.4100 1.6764 -4.2791,
		 0.4100 1.6256 -4.2791,
		 0.1236 1.6256 -4.3834,
		 0.1236 1.6764 -4.3834,
		 0.4100 1.7272 -4.2791,
		 0.3623 1.6764 -4.2965,
		 0.3623 1.7272 -4.2965,
		 -0.2105 1.4224 -4.5050,
		 -0.2105 1.6256 -4.5050,
		 -0.1151 1.6256 -4.4702,
		 -0.1151 1.4224 -4.4702,
		 -0.0673 1.4224 -4.4529,
		 -0.0673 1.6256 -4.4529,
		 0.0281 1.6256 -4.4181,
		 0.0281 1.4224 -4.4181,
		 0.1236 1.5748 -4.3834,
		 0.1236 1.6256 -4.3834,
		 0.4100 1.6256 -4.2791,
		 0.4100 1.5748 -4.2791,
		 0.1236 1.4224 -4.3834,
		 0.1236 1.5748 -4.3834,
		 0.1713 1.5748 -4.3660,
		 0.1713 1.4224 -4.3660,
		 0.4100 1.5748 -4.2791,
		 0.2668 1.4224 -4.3313,
		 0.2668 1.5748 -4.3313,
		 -0.2105 1.7780 -4.5050,
		 -0.0673 1.6256 -4.4529,
		 0.1236 1.7272 -4.3834,
		 1.3170 1.6256 -3.9491,
		 1.5556 1.4732 -3.8622,
		 2.4626 1.6256 -3.5322,
		 2.3194 1.4732 -3.5843,
		 2.8445 1.9305 -3.3932,
		 -0.4493 1.9305 -4.5919,
		 -0.4493 1.9305 -4.5919,
		 -0.4493 1.2701 -4.5919,
		 -0.4493 1.2701 -4.5919,
		 2.8445 1.2701 -3.3932,
		 2.8445 1.9305 -3.3932,
		 2.7969 1.8288 -3.4105,
		 -0.4015 1.8288 -4.5745,
		 -0.4015 1.8288 -4.5745,
		 -0.4015 1.3716 -4.5745,
		 -0.4015 1.3716 -4.5745,
		 -0.4015 1.3208 -4.5745,
		 -0.4015 1.3208 -4.5745,
		 2.7969 1.3208 -3.4105,
		 2.7969 1.3208 -3.4105,
		 2.7969 1.3716 -3.4105,
		 0.4100 1.8288 -4.2791,
		 0.4100 1.7780 -4.2791,
		 2.7969 1.7780 -3.4105,
		 2.7969 1.8288 -3.4105,
		 0.4100 1.7780 -4.2791,
		 0.4100 1.7272 -4.2791,
		 0.4100 1.7272 -4.2791,
		 0.4100 1.6764 -4.2791,
		 0.4100 1.6764 -4.2791,
		 0.4100 1.6256 -4.2791,
		 2.7969 1.6256 -3.4105,
		 2.7969 1.6764 -3.4105,
		 2.7969 1.7272 -3.4105,
		 2.7969 1.7780 -3.4105,
		 0.4100 1.6256 -4.2791,
		 0.4100 1.5748 -4.2791,
		 2.7969 1.4732 -3.4105,
		 2.7969 1.5748 -3.4105,
		 0.4100 1.5748 -4.2791,
		 0.4100 1.4732 -4.2791,
		 0.4100 1.4732 -4.2791,
		 0.4100 1.4224 -4.2791,
		 0.4100 1.4224 -4.2791,
		 2.7969 1.4224 -3.4105,
		 1.5556 1.4732 -3.8622,
		 2.3194 1.4732 -3.5843,
		 2.7969 1.4732 -3.4105,
		 1.3170 1.6256 -3.9491,
		 2.4626 1.6256 -3.5322,
		 2.7969 1.6256 -3.4105,
		 0.4100 1.7780 -4.2791,
		 -0.3060 1.7780 -4.5397,
		 -0.3060 1.7780 -4.5397,
		 -0.3060 1.4224 -4.5397,
		 -0.3060 1.4224 -4.5397,
		 0.4100 1.4224 -4.2791,
		 0.3145 1.7272 -4.3139,
		 -0.2105 1.7780 -4.5050,
		 -0.2105 1.7272 -4.5050,
		 0.3623 1.7272 -4.2965,
		 0.4100 1.7272 -4.2791,
		 0.4100 1.7780 -4.2791,
		 0.0281 1.6256 -4.4181,
		 -0.2105 1.7272 -4.5050,
		 -0.2105 1.6256 -4.5050,
		 0.3145 1.7272 -4.3139,
		 0.1236 1.7272 -4.3834,
		 0.1236 1.6764 -4.3834,
		 0.1236 1.6764 -4.3834,
		 0.1236 1.6256 -4.3834,
		 0.4100 1.6256 -4.2791,
		 0.4100 1.6764 -4.2791,
		 0.3623 1.7272 -4.2965,
		 0.4100 1.7272 -4.2791,
		 -0.2105 1.6256 -4.5050,
		 0.0281 1.6256 -4.4181,
		 -0.0673 1.6256 -4.4529,
		 0.4100 1.5748 -4.2791,
		 0.4100 1.6256 -4.2791,
		 0.1236 1.6256 -4.3834,
		 0.1236 1.5748 -4.3834,
		 0.1236 1.5748 -4.3834,
		 0.4100 1.5748 -4.2791
		]
	} #Coordinate3
	Material {
		ambientColor      0.0000 0.0000 0.0000  #ambientColor
		diffuseColor      0.0000 0.0000 0.0000  #diffuseColor
		transparency      0.0000                #transparency
	} #Material

	IndexedFaceSet {
		coordIndex [ 
		 0, 1, 2, 3,-1,
		 3, 2, 1, 0,-1,
		]
	} #IndexedFaceSet
	Material {
		ambientColor      0.2500 0.2500 0.2500  #ambientColor
		diffuseColor      1.0000 1.0000 1.0000  #diffuseColor
		transparency      0.0000                #transparency
	} #Material

	IndexedFaceSet {
		coordIndex [ 
		 0, 3, 7, 4,-1,
		 4, 7, 3, 0,-1,
		 1, 0, 4, 5,-1,
		 5, 4, 0, 1,-1,
		 2, 1, 5, 6,-1,
		 6, 5, 1, 2,-1,
		]
	} #IndexedFaceSet
	Material {
		ambientColor      0.0000 0.0000 0.0000  #ambientColor
		diffuseColor      0.0000 0.0000 0.0000  #diffuseColor
		transparency      0.0000                #transparency
	} #Material

	IndexedFaceSet {
		coordIndex [ 
		 8, 7, 3, 9,-1,
		 10, 11, 12, 13,-1,
		 14, 2, 6, 15,-1,
		 16, 14, 17, 18,-1,
		]
	} #IndexedFaceSet
	Material {
		ambientColor      0.0000 0.2500 0.0000  #ambientColor
		diffuseColor      0.0000 1.0000 0.0000  #diffuseColor
		transparency      0.4980                #transparency
	} #Material

	IndexedFaceSet {
		coordIndex [ 
		 19, 12, 18, 20,-1,
		 21, 22, 23, 24,-1,
		 25, 26, 27, 28,-1,
		 29, 30, 31, 32,-1,
		 33, 17, 13, 34,-1,
		 35, 36, 37, 38,-1,
		 39, 40, 41, 42,-1,
		 43, 44, 45, 46,-1,
		 47, 48, 49, 50,-1,
		 51, 52, 53, 54,-1,
		 55, 56, 57, 58,-1,
		 59, 60, 61, 62,-1,
		 63, 64, 65, 66,-1,
		 67, 63, 68, 69,-1,
		 70, 67, 71, 72,-1,
		 73, 74, 75, 76,-1,
		 77, 78, 79, 80,-1,
		 81, 82, 83, 84,-1,
		 85, 35, 86, 87,-1,
		 88, 89, 90, 91,-1,
		 92, 93, 94, 95,-1,
		 96, 85, 97, 98,-1,
		 99, 100, 101, 102,-1,
		 103, 104, 105, 106,-1,
		 107, 108, 109, 110,-1,
		 111, 79, 112, 113,-1,
		]
	} #IndexedFaceSet
	Material {
		ambientColor      0.0549 0.0549 0.2500  #ambientColor
		diffuseColor      0.2196 0.2196 1.0000  #diffuseColor
		transparency      0.0000                #transparency
	} #Material

	IndexedFaceSet {
		coordIndex [ 
		 114, 23, 115, 116,-1,
		 117, 118, 119, 120,-1,
		 121, 86, 24, 122,-1,
		 123, 124, 125, 126,-1,
		 127, 128, 129, 130,-1,
		 131, 132, 133, 134,-1,
		 135, 136, 137, 138,-1,
		 139, 140, 141, 142,-1,
		 143, 139, 144, 145,-1,
		 146, 147, 148, 149,-1,
		 150, 151, 152, 153,-1,
		 154, 155, 156, 157,-1,
		 158, 159, 160, 161,-1,
		 162, 121, 163, 164,-1,
		]
	} #IndexedFaceSet
	Material {
		ambientColor      0.2500 0.0000 0.0000  #ambientColor
		diffuseColor      1.0000 0.0000 0.0000  #diffuseColor
		transparency      0.0000                #transparency
	} #Material

	IndexedFaceSet {
		coordIndex [ 
		 165, 146, 120, 119,-1,
		 166, 150, 149, 148,-1,
		 167, 158, 153, 133,-1,
		 164, 163, 161, 160,-1,
		 130, 144, 138, 125,-1,
		]
	} #IndexedFaceSet
	Material {
		ambientColor      0.0000 0.0000 0.1500  #ambientColor
		diffuseColor      0.0000 0.0000 0.6000  #diffuseColor
		transparency      0.0000                #transparency
	} #Material

	IndexedFaceSet {
		coordIndex [ 
		 168, 99, 76, 75,-1,
		 169, 88, 84, 83,-1,
		 72, 71, 56, 55,-1,
		 58, 57, 54, 53,-1,
		 50, 49, 44, 43,-1,
		 69, 68, 62, 61,-1,
		 170, 107, 104, 103,-1,
		 113, 112, 110, 109,-1,
		 171, 92, 91, 90,-1,
		 98, 97, 95, 94,-1,
		 30, 29, 38, 37,-1,
		 106, 105, 102, 101,-1,
		 46, 45, 42, 41,-1,
		 32, 31, 28, 27,-1,
		]
	} #IndexedFaceSet
	Material {
		ambientColor      0.0000 0.0000 0.0000  #ambientColor
		diffuseColor      0.0000 0.0000 0.0000  #diffuseColor
		transparency      0.0000                #transparency
	} #Material

	IndexedFaceSet {
		coordIndex [ 
		 172, 3, 7, 173,-1,
		 13, 12, 174, 175,-1,
		 176, 6, 2, 177,-1,
		 18, 17, 177, 178,-1,
		]
	} #IndexedFaceSet
	Material {
		ambientColor      0.0000 0.2500 0.0000  #ambientColor
		diffuseColor      0.0000 1.0000 0.0000  #diffuseColor
		transparency      0.4980                #transparency
	} #Material

	IndexedFaceSet {
		coordIndex [ 
		 179, 18, 12, 180,-1,
		 24, 23, 181, 182,-1,
		 28, 27, 183, 184,-1,
		 32, 31, 30, 29,-1,
		 185, 13, 17, 186,-1,
		 38, 37, 187, 188,-1,
		 42, 41, 189, 190,-1,
		 46, 45, 44, 43,-1,
		 50, 49, 191, 192,-1,
		 54, 53, 193, 194,-1,
		 58, 57, 56, 55,-1,
		 62, 61, 195, 196,-1,
		 197, 198, 199, 200,-1,
		 69, 68, 200, 201,-1,
		 72, 71, 201, 202,-1,
		 76, 75, 203, 204,-1,
		 205, 206, 207, 208,-1,
		 84, 83, 209, 210,-1,
		 211, 86, 188, 212,-1,
		 91, 90, 213, 88,-1,
		 95, 94, 214, 92,-1,
		 98, 97, 212, 215,-1,
		 102, 101, 216, 99,-1,
		 106, 105, 104, 103,-1,
		 110, 109, 217, 107,-1,
		 113, 112, 206, 218,-1,
		]
	} #IndexedFaceSet
	Material {
		ambientColor      0.0549 0.0549 0.2500  #ambientColor
		diffuseColor      0.2196 0.2196 1.0000  #diffuseColor
		transparency      0.0000                #transparency
	} #Material

	IndexedFaceSet {
		coordIndex [ 
		 219, 115, 23, 220,-1,
		 120, 119, 221, 222,-1,
		 223, 24, 86, 224,-1,
		 225, 125, 226, 227,-1,
		 130, 228, 229, 230,-1,
		 231, 133, 232, 233,-1,
		 138, 234, 235, 236,-1,
		 237, 238, 239, 240,-1,
		 241, 144, 240, 242,-1,
		 149, 148, 243, 146,-1,
		 153, 244, 245, 150,-1,
		 246, 247, 248, 249,-1,
		 161, 160, 250, 158,-1,
		 164, 163, 224, 251,-1,
		]
	} #IndexedFaceSet
	Material {
		ambientColor      0.2500 0.0000 0.0000  #ambientColor
		diffuseColor      1.0000 0.0000 0.0000  #diffuseColor
		transparency      0.0000                #transparency
	} #Material

	IndexedFaceSet {
		coordIndex [ 
		 119, 120, 146, 165,-1,
		 148, 149, 150, 166,-1,
		 133, 153, 158, 167,-1,
		 160, 161, 163, 164,-1,
		 125, 138, 144, 130,-1,
		]
	} #IndexedFaceSet
	Material {
		ambientColor      0.0000 0.0000 0.1500  #ambientColor
		diffuseColor      0.0000 0.0000 0.6000  #diffuseColor
		transparency      0.0000                #transparency
	} #Material

	IndexedFaceSet {
		coordIndex [ 
		 75, 76, 99, 168,-1,
		 83, 84, 88, 169,-1,
		 55, 56, 71, 72,-1,
		 53, 54, 57, 58,-1,
		 43, 44, 49, 50,-1,
		 61, 62, 68, 69,-1,
		 103, 104, 107, 170,-1,
		 109, 110, 112, 113,-1,
		 90, 91, 92, 171,-1,
		 94, 95, 97, 98,-1,
		 37, 38, 29, 30,-1,
		 101, 102, 105, 106,-1,
		 41, 42, 45, 46,-1,
		 27, 28, 31, 32,-1,
		]
	} #IndexedFaceSet
	Material {
		ambientColor      0.0000 0.0000 0.0000  #ambientColor
		diffuseColor      0.0000 0.0000 0.0000  #diffuseColor
		transparency      0.0000                #transparency
	} #Material

	IndexedFaceSet {
		coordIndex [ 
		 7, 6, 5, 4,-1,
		 4, 5, 6, 7,-1,
		]
	} #IndexedFaceSet
} #Polyhedron
}
