#VRML V1.0 ascii

Separator {
	Info { string "Virtus 3D Website Builder 1.0
	VRML Export Filter
	Virtus Corporation
	114 MacKenan Drive, Suite 100
	Cary, NC 27511
	919-467-9700"}

	DEF BackgroundColor Info{  # Sky color
		string " 0.3 0.8 1.0 "
	}

	DirectionalLight {
		on         TRUE          # SFBool
		intensity  1.0           # SFFloat
		color      0.4 0.4 0.4   # SFColor
		direction  0 0 0   # SFVec3f
	}

	DirectionalLight {
		on         TRUE          # SFBool
		intensity  1.0           # SFFloat
		color      0.5 0.5 0.5   # SFColor
		direction  34 -247 -57   # SFVec3f
	}

	DirectionalLight {
		on         TRUE          # SFBool
		intensity  1.0           # SFFloat
		color      0.4 0.4 0.4   # SFColor
		direction  -209 -104 105   # SFVec3f
	}

	DirectionalLight {
		on         TRUE          # SFBool
		intensity  1.0           # SFFloat
		color      0.5 0.5 0.5   # SFColor
		direction  5 119 -226   # SFVec3f
	}

	PerspectiveCamera {
		position 0.0000 1.6764 2.4384          #SFVec3f 
		focalDistance  5            #SFFloat 
		heightAngle 1.9201 
	}

	ShapeHints {
		vertexOrdering	CLOCKWISE
		shapeType	SOLID
	}

	Transform {
		translation 0 0 0
		scaleFactor 1.0 1.0 1.0
	}

Separator { #Polyhedron
	DEF COORD0 Coordinate3 {
		point [
		 -3.8100 3.6576 3.0480,
		 -3.8100 3.6576 -12.1920,
		 3.8100 3.6576 -12.1920,
		 3.8100 3.6576 3.0480,
		 -3.8100 0.0000 3.0480,
		 -3.8100 0.0000 -12.1920,
		 3.8100 0.0000 -12.1920,
		 3.8100 0.0000 3.0480,
		 -3.8100 3.6576 -10.6680,
		 -3.8100 0.0000 -10.6680,
		 -3.8100 0.0000 -5.7912,
		 -3.8100 3.6576 -5.7912,
		 3.8100 3.6576 -5.7912,
		 3.8100 0.0000 -5.7912,
		 3.8100 0.0000 3.0480,
		 3.8100 0.0000 -10.6680,
		 3.8100 3.6576 -10.6680,
		 3.8100 3.6576 -12.1920,
		 3.8100 0.0000 3.0480,
		 3.8100 3.6576 -12.1920
		]
	} #Coordinate3
	Material {
		ambientColor      0.2500 0.2500 0.2500  #ambientColor
		diffuseColor      1.0000 1.0000 1.0000  #diffuseColor
		transparency      0.0000                #transparency
	} #Material

	IndexedFaceSet {
		coordIndex [ 
		 0, 1, 2, 3,-1,
		 3, 2, 1, 0,-1,
		]
	} #IndexedFaceSet
	DEF TEXCOORD30 TextureCoordinate2 {
		point [
		0.0000 5.9999,
		12.5000 5.9999,
		12.5000 0.0000,
		0.0000 0.0000,
		0.0000 0.0000,
		12.5000 0.0000,
		12.5000 5.9999,
		0.0000 5.9999,
		0.9000 0.0000,
		0.9000 1.0000,
		1.0000 1.0000,
		1.0000 0.0000,
		0.5800 1.0000,
		0.5800 0.0000,
		0.0000 0.0000,
		0.0000 1.0000,
		1.0000 0.0000,
		1.0000 1.0000,
		0.9000 1.0000,
		0.9000 0.0000,
		0.0000 1.0000,
		0.0000 0.0000,
		0.5800 0.0000,
		0.5800 1.0000,
		0.0000 5.9998,
		12.4998 5.9998,
		12.4998 0.0000,
		0.0000 0.0000,
		0.0000 0.0000,
		12.4998 0.0000,
		12.4998 5.9998,
		0.0000 5.9998,
		0.0000 0.0000,
		0.0000 1.0000,
		0.5800 1.0000,
		0.5800 0.0000,
		1.0000 1.0000,
		1.0000 0.0000,
		0.9000 0.0000,
		0.9000 1.0000,
		0.5800 0.0000,
		0.5800 1.0000,
		0.0000 1.0000,
		0.0000 0.0000,
		0.9000 1.0000,
		0.9000 0.0000,
		1.0000 0.0000,
		1.0000 1.0000
		]
	} #TextureCoordinate2
	Texture2 {
		filename "TXTR0001.JPG"  #filename
		wrapS REPEAT 
		wrapT REPEAT 
	} #Texture2

	IndexedFaceSet {
		coordIndex [ 
		 0, 3, 7, 4,-1,
		 4, 7, 3, 0,-1,
		 5, 1, 8, 9,-1,
		 0, 4, 10, 11,-1,
		 9, 8, 1, 5,-1,
		 11, 10, 4, 0,-1,
		 2, 1, 5, 6,-1,
		 6, 5, 1, 2,-1,
		 12, 13, 14, 3,-1,
		 15, 16, 17, 6,-1,
		 3, 18, 13, 12,-1,
		 6, 19, 16, 15,-1,
		]
		textureCoordIndex [
		 0, 1, 2, 3,-1,
		 4, 5, 6, 7,-1,
		 8, 9, 10, 11,-1,
		 12, 13, 14, 15,-1,
		 16, 17, 18, 19,-1,
		 20, 21, 22, 23,-1,
		 24, 25, 26, 27,-1,
		 28, 29, 30, 31,-1,
		 32, 33, 34, 35,-1,
		 36, 37, 38, 39,-1,
		 40, 41, 42, 43,-1,
		 44, 45, 46, 47,-1,
		]
	} #IndexedFaceSet
	DEF TEXCOORD31 TextureCoordinate2 {
		point [
		0.0000 0.0000,
		0.0000 25.0000,
		12.4998 25.0000,
		12.4998 0.0000,
		12.4998 0.0000,
		12.4998 25.0000,
		0.0000 25.0000,
		0.0000 0.0000
		]
	} #TextureCoordinate2
	Texture2 {
		filename "TXTR0002.JPG"  #filename
		wrapS REPEAT 
		wrapT REPEAT 
	} #Texture2

	IndexedFaceSet {
		coordIndex [ 
		 7, 6, 5, 4,-1,
		 4, 5, 6, 7,-1,
		]
		textureCoordIndex [
		 0, 1, 2, 3,-1,
		 4, 5, 6, 7,-1,
		]
	} #IndexedFaceSet
} #Polyhedron
Separator { #Polyhedron
	DEF COORD1 Coordinate3 {
		point [
		 -1.2192 1.0668 -10.6680,
		 1.2192 1.0668 -10.6680,
		 1.5240 1.0668 -9.9060,
		 -1.5240 1.0668 -9.9060,
		 -1.2192 0.0000 -10.6680,
		 1.2192 0.0000 -10.6680,
		 1.5240 0.0000 -9.9060,
		 -1.5240 0.0000 -9.9060,
		 -1.2192 1.0668 -10.6680,
		 -1.5240 1.0668 -9.9060,
		 -1.5240 1.0668 -9.9060,
		 1.5240 1.0668 -9.9060,
		 1.2192 1.0668 -10.6680,
		 1.2192 1.0668 -10.6680,
		 -1.5240 1.0668 -9.9060,
		 1.2192 1.0668 -10.6680,
		 1.2192 1.0668 -10.6680,
		 -1.2192 0.0001 -10.6680,
		 1.2192 0.0001 -10.6680,
		 -1.2191 0.0001 -10.6680,
		 -1.2191 1.0668 -10.6680,
		 -1.2192 0.0001 -10.6680,
		 1.2192 0.0001 -10.6680,
		 -1.2192 0.0001 -10.6680,
		 -1.2192 0.0001 -10.6680,
		 -1.2191 1.0668 -10.6680,
		 1.5240 0.0000 -9.9060,
		 -1.5240 0.0000 -9.9060,
		 1.5240 0.0000 -9.9060,
		 1.5240 1.0668 -9.9060,
		 -1.5240 0.0000 -9.9060,
		 1.5240 0.0000 -9.9060
		]
	} #Coordinate3
	Material {
		ambientColor      0.1255 0.0627 0.0000  #ambientColor
		diffuseColor      0.5020 0.2510 0.0000  #diffuseColor
		transparency      0.0000                #transparency
	} #Material

	IndexedFaceSet {
		coordIndex [ 
		 8, 9, 10, 0,-1,
		 11, 12, 13, 2,-1,
		 0, 14, 9, 8,-1,
		 2, 15, 16, 11,-1,
		 0, 3, 7, 4,-1,
		 4, 7, 3, 0,-1,
		 17, 4, 5, 18,-1,
		 19, 20, 0, 21,-1,
		 22, 5, 4, 23,-1,
		 24, 0, 25, 19,-1,
		 2, 1, 5, 6,-1,
		 6, 5, 1, 2,-1,
		]
	} #IndexedFaceSet
	DEF TEXCOORD32 TextureCoordinate2 {
		point [
		13.7500 0.0001,
		13.7500 0.0000,
		0.0000 0.0000,
		0.0000 0.0001,
		13.7500 4.8124,
		13.7500 0.0001,
		13.7499 0.0001,
		13.7499 4.8124,
		0.0000 0.0001,
		0.0000 0.0000,
		13.7500 0.0000,
		13.7500 0.0001,
		13.7499 4.8124,
		13.7499 0.0001,
		13.7500 0.0001,
		13.7500 4.8124
		]
	} #TextureCoordinate2
	Texture2 {
		filename "TXTR0003.JPG"  #filename
		wrapS REPEAT 
		wrapT REPEAT 
	} #Texture2

	IndexedFaceSet {
		coordIndex [ 
		 26, 6, 7, 27,-1,
		 2, 26, 28, 29,-1,
		 30, 7, 6, 31,-1,
		 29, 28, 31, 2,-1,
		]
		textureCoordIndex [
		 0, 1, 2, 3,-1,
		 4, 5, 6, 7,-1,
		 8, 9, 10, 11,-1,
		 12, 13, 14, 15,-1,
		]
	} #IndexedFaceSet
	Texture2 {
		filename ""  #filename
		wrapS REPEAT 
		wrapT REPEAT 
	} #Texture2

	IndexedFaceSet {
		coordIndex [ 
		 7, 6, 5, 4,-1,
		 4, 5, 6, 7,-1,
		]
	} #IndexedFaceSet
} #Polyhedron
Separator { #Polyhedron
	DEF COORD2 Coordinate3 {
		point [
		 2.7432 1.0668 -12.1920,
		 3.8100 1.0668 -12.1920,
		 1.5240 1.0668 -9.9060,
		 1.2192 1.0668 -10.6680,
		 2.7432 0.0000 -12.1920,
		 3.8100 0.0000 -12.1920,
		 1.5240 0.0000 -9.9060,
		 1.2192 0.0000 -10.6680,
		 1.2192 1.0668 -10.6680,
		 1.5240 1.0668 -9.9060,
		 3.8100 1.0668 -12.1920,
		 2.7432 1.0668 -12.1920,
		 1.5240 1.0668 -9.9060
		]
	} #Coordinate3
	Material {
		ambientColor      0.1255 0.0627 0.0000  #ambientColor
		diffuseColor      0.5020 0.2510 0.0000  #diffuseColor
		transparency      0.0000                #transparency
	} #Material

	IndexedFaceSet {
		coordIndex [ 
		 8, 9, 2, 3,-1,
		 10, 11, 0,-1,
		 3, 2, 12, 8,-1,
		 0, 11, 10,-1,
		 1, 0, 4, 5,-1,
		 5, 4, 0, 1,-1,
		 3, 2, 6, 7,-1,
		 7, 6, 2, 3,-1,
		 7, 6, 5, 4,-1,
		 4, 5, 6, 7,-1,
		]
	} #IndexedFaceSet
} #Polyhedron
Separator { #Polyhedron
	DEF COORD3 Coordinate3 {
		point [
		 -2.7432 1.0668 -12.1920,
		 -1.2192 1.0668 -10.6680,
		 -1.5240 1.0668 -9.9060,
		 -3.8100 1.0668 -12.1920,
		 -2.7432 0.0000 -12.1920,
		 -1.2192 0.0000 -10.6680,
		 -1.5240 0.0000 -9.9060,
		 -3.8100 0.0000 -12.1920,
		 -1.5240 1.0668 -9.9060,
		 -1.2192 1.0668 -10.6680,
		 -1.2192 1.0668 -10.6680,
		 -2.7432 0.0001 -12.1920,
		 -1.2192 0.0001 -10.6680,
		 -1.2192 0.0001 -10.6680,
		 -2.7432 0.0001 -12.1920
		]
	} #Coordinate3
	Material {
		ambientColor      0.1255 0.0627 0.0000  #ambientColor
		diffuseColor      0.5020 0.2510 0.0000  #diffuseColor
		transparency      0.0000                #transparency
	} #Material

	IndexedFaceSet {
		coordIndex [ 
		 8, 9, 1,-1,
		 1, 10, 8,-1,
		 0, 3, 7, 4,-1,
		 4, 7, 3, 0,-1,
		 11, 4, 5, 12,-1,
		 13, 5, 4, 14,-1,
		 2, 1, 5, 6,-1,
		 6, 5, 1, 2,-1,
		 7, 6, 5, 4,-1,
		 4, 5, 6, 7,-1,
		]
	} #IndexedFaceSet
} #Polyhedron
Separator { #Polyhedron
	DEF COORD4 Coordinate3 {
		point [
		 -1.0160 3.0480 -10.7696,
		 -1.0160 2.2225 -10.7696,
		 1.0160 2.2225 -10.7696,
		 1.0160 3.0480 -10.7696,
		 -1.0160 3.0480 -10.6680,
		 -1.0160 2.2225 -10.6680,
		 1.0160 2.2225 -10.6680,
		 1.0160 3.0480 -10.6680
		]
	} #Coordinate3
	Material {
		ambientColor      0.0000 0.0000 0.0000  #ambientColor
		diffuseColor      0.0000 0.0000 0.0000  #diffuseColor
		transparency      0.0000                #transparency
	} #Material

	IndexedFaceSet {
		coordIndex [ 
		 0, 1, 2, 3,-1,
		 3, 2, 1, 0,-1,
		 0, 3, 7, 4,-1,
		 4, 7, 3, 0,-1,
		 1, 0, 4, 5,-1,
		 5, 4, 0, 1,-1,
		 2, 1, 5, 6,-1,
		 6, 5, 1, 2,-1,
		 3, 2, 6, 7,-1,
		 7, 6, 2, 3,-1,
		]
	} #IndexedFaceSet
	DEF TEXCOORD33 TextureCoordinate2 {
		point [
		1.0000 1.0000,
		1.0000 0.0000,
		0.0000 0.0000,
		0.0000 1.0000,
		0.0000 1.0000,
		0.0000 0.0000,
		1.0000 0.0000,
		1.0000 1.0000
		]
	} #TextureCoordinate2
	Texture2 {
		filename "TXTR0004.JPG"  #filename
		wrapS REPEAT 
		wrapT REPEAT 
	} #Texture2

	IndexedFaceSet {
		coordIndex [ 
		 7, 6, 5, 4,-1,
		 4, 5, 6, 7,-1,
		]
		textureCoordIndex [
		 0, 1, 2, 3,-1,
		 4, 5, 6, 7,-1,
		]
	} #IndexedFaceSet
} #Polyhedron
Separator { #Polyhedron
	DEF COORD5 Coordinate3 {
		point [
		 -0.3683 3.0480 2.9464,
		 -0.3683 2.8512 2.9464,
		 0.3683 2.8512 2.9464,
		 0.3683 3.0480 2.9464,
		 -0.3683 3.0480 3.0480,
		 -0.3683 2.8512 3.0480,
		 0.3683 2.8512 3.0480,
		 0.3683 3.0480 3.0480
		]
	} #Coordinate3
	Material {
		ambientColor      0.2500 0.2500 0.2500  #ambientColor
		diffuseColor      1.0000 1.0000 1.0000  #diffuseColor
		transparency      0.0000                #transparency
	} #Material

	DEF TEXCOORD34 TextureCoordinate2 {
		point [
		0.0000 0.0000,
		0.0000 1.0000,
		1.0000 1.0000,
		1.0000 0.0000,
		1.0000 0.0000,
		1.0000 1.0000,
		0.0000 1.0000,
		0.0000 0.0000
		]
	} #TextureCoordinate2
	Texture2 {
		filename "TXTR0005.JPG"  #filename
		wrapS REPEAT 
		wrapT REPEAT 
	} #Texture2

	IndexedFaceSet {
		coordIndex [ 
		 0, 1, 2, 3,-1,
		 3, 2, 1, 0,-1,
		]
		textureCoordIndex [
		 0, 1, 2, 3,-1,
		 4, 5, 6, 7,-1,
		]
	} #IndexedFaceSet
	Texture2 {
		filename ""  #filename
		wrapS REPEAT 
		wrapT REPEAT 
	} #Texture2

	IndexedFaceSet {
		coordIndex [ 
		 0, 3, 7, 4,-1,
		 4, 7, 3, 0,-1,
		 1, 0, 4, 5,-1,
		 5, 4, 0, 1,-1,
		 2, 1, 5, 6,-1,
		 6, 5, 1, 2,-1,
		 3, 2, 6, 7,-1,
		 7, 6, 2, 3,-1,
		 7, 6, 5, 4,-1,
		 4, 5, 6, 7,-1,
		]
	} #IndexedFaceSet
} #Polyhedron
Separator { #Polyhedron
	DEF COORD6 Coordinate3 {
		point [
		 1.8288 3.6576 -7.6200,
		 1.2932 3.6576 -6.3269,
		 0.0000 3.6576 -5.7912,
		 -1.2932 3.6576 -6.3269,
		 -1.8288 3.6576 -7.6200,
		 -1.2932 3.6576 -8.9132,
		 0.0000 3.6576 -9.4488,
		 1.2932 3.6576 -8.9132,
		 1.8288 3.3528 -7.6200,
		 1.2932 3.3528 -6.3269,
		 0.0000 3.3528 -5.7912,
		 -1.2932 3.3528 -6.3269,
		 -1.8288 3.3528 -7.6200,
		 -1.2932 3.3528 -8.9132,
		 0.0000 3.3528 -9.4488,
		 1.2932 3.3528 -8.9132
		]
	} #Coordinate3
	Material {
		ambientColor      0.2500 0.2500 0.2500  #ambientColor
		diffuseColor      1.0000 1.0000 1.0000  #diffuseColor
		transparency      0.0000                #transparency
	} #Material

	IndexedFaceSet {
		coordIndex [ 
		 0, 1, 2, 3, 4, 5, 6, 7,-1,
		 7, 6, 5, 4, 3, 2, 1, 0,-1,
		 0, 7, 15, 8,-1,
		 8, 15, 7, 0,-1,
		 1, 0, 8, 9,-1,
		 9, 8, 0, 1,-1,
		 2, 1, 9, 10,-1,
		 10, 9, 1, 2,-1,
		 3, 2, 10, 11,-1,
		 11, 10, 2, 3,-1,
		 4, 3, 11, 12,-1,
		 12, 11, 3, 4,-1,
		 5, 4, 12, 13,-1,
		 13, 12, 4, 5,-1,
		 6, 5, 13, 14,-1,
		 14, 13, 5, 6,-1,
		 7, 6, 14, 15,-1,
		 15, 14, 6, 7,-1,
		]
	} #IndexedFaceSet
	Material {
		ambientColor      0.2500 0.2500 0.0000  #ambientColor
		diffuseColor      1.0000 1.0000 0.0000  #diffuseColor
		transparency      0.0000                #transparency
	} #Material

	IndexedFaceSet {
		coordIndex [ 
		 15, 14, 13, 12, 11, 10, 9, 8,-1,
		 8, 9, 10, 11, 12, 13, 14, 15,-1,
		]
	} #IndexedFaceSet
} #Polyhedron
Separator { #Polyhedron
	DEF COORD7 Coordinate3 {
		point [
		 -0.1651 0.8636 -10.9982,
		 -0.1905 0.8890 -10.9982,
		 -0.2159 0.8890 -10.9982,
		 -0.2159 0.7366 -10.9982,
		 -0.1905 0.7366 -10.9982,
		 -0.1651 0.8636 -10.9474,
		 -0.1905 0.8890 -10.9474,
		 -0.2159 0.8890 -10.9474,
		 -0.2159 0.7366 -10.9474,
		 -0.1905 0.7366 -10.9474
		]
	} #Coordinate3
	Material {
		ambientColor      0.2500 0.2196 0.1882  #ambientColor
		diffuseColor      1.0000 0.8784 0.7529  #diffuseColor
		transparency      0.0000                #transparency
	} #Material

	Texture2 {
		filename ""  #filename
		wrapS REPEAT 
		wrapT REPEAT 
	} #Texture2

	IndexedFaceSet {
		coordIndex [ 
		 0, 1, 2, 3, 4,-1,
		 4, 3, 2, 1, 0,-1,
		 0, 4, 9, 5,-1,
		 5, 9, 4, 0,-1,
		 1, 0, 5, 6,-1,
		 6, 5, 0, 1,-1,
		 2, 1, 6, 7,-1,
		 7, 6, 1, 2,-1,
		 3, 2, 7, 8,-1,
		 8, 7, 2, 3,-1,
		 4, 3, 8, 9,-1,
		 9, 8, 3, 4,-1,
		 9, 8, 7, 6, 5,-1,
		 5, 6, 7, 8, 9,-1,
		]
	} #IndexedFaceSet
} #Polyhedron
Separator { #Polyhedron
	DEF COORD8 Coordinate3 {
		point [
		 0.2159 0.7366 -10.9982,
		 0.2159 0.8890 -10.9982,
		 0.1905 0.8890 -10.9982,
		 0.1651 0.8636 -10.9982,
		 0.1905 0.7366 -10.9982,
		 0.2159 0.7366 -10.9474,
		 0.2159 0.8890 -10.9474,
		 0.1905 0.8890 -10.9474,
		 0.1651 0.8636 -10.9474,
		 0.1905 0.7366 -10.9474
		]
	} #Coordinate3
	Material {
		ambientColor      0.2500 0.2196 0.1882  #ambientColor
		diffuseColor      1.0000 0.8784 0.7529  #diffuseColor
		transparency      0.0000                #transparency
	} #Material

	IndexedFaceSet {
		coordIndex [ 
		 0, 1, 2, 3, 4,-1,
		 4, 3, 2, 1, 0,-1,
		 0, 4, 9, 5,-1,
		 5, 9, 4, 0,-1,
		 1, 0, 5, 6,-1,
		 6, 5, 0, 1,-1,
		 2, 1, 6, 7,-1,
		 7, 6, 1, 2,-1,
		 3, 2, 7, 8,-1,
		 8, 7, 2, 3,-1,
		 4, 3, 8, 9,-1,
		 9, 8, 3, 4,-1,
		 9, 8, 7, 6, 5,-1,
		 5, 6, 7, 8, 9,-1,
		]
	} #IndexedFaceSet
} #Polyhedron
Separator { #Polyhedron
	DEF COORD9 Coordinate3 {
		point [
		 0.1524 0.0508 -11.0236,
		 0.1365 0.6096 -11.0236,
		 0.0286 0.6096 -11.0236,
		 0.1016 0.0508 -11.0236,
		 0.1524 0.0508 -10.9220,
		 0.1365 0.6096 -10.9220,
		 0.0286 0.6096 -10.9220,
		 0.1016 0.0508 -10.9220
		]
	} #Coordinate3
	Material {
		ambientColor      0.2500 0.2196 0.1882  #ambientColor
		diffuseColor      1.0000 0.8784 0.7529  #diffuseColor
		transparency      0.0000                #transparency
	} #Material

	IndexedFaceSet {
		coordIndex [ 
		 0, 1, 2, 3,-1,
		 3, 2, 1, 0,-1,
		 0, 3, 7, 4,-1,
		 4, 7, 3, 0,-1,
		 1, 0, 4, 5,-1,
		 5, 4, 0, 1,-1,
		 2, 1, 5, 6,-1,
		 6, 5, 1, 2,-1,
		 3, 2, 6, 7,-1,
		 7, 6, 2, 3,-1,
		 7, 6, 5, 4,-1,
		 4, 5, 6, 7,-1,
		]
	} #IndexedFaceSet
} #Polyhedron
Separator { #Polyhedron
	DEF COORD10 Coordinate3 {
		point [
		 -0.1365 0.6096 -11.0236,
		 -0.1524 0.0508 -11.0236,
		 -0.1016 0.0508 -11.0236,
		 -0.0286 0.6096 -11.0236,
		 -0.1365 0.6096 -10.9220,
		 -0.1524 0.0508 -10.9220,
		 -0.1016 0.0508 -10.9220,
		 -0.0286 0.6096 -10.9220
		]
	} #Coordinate3
	Material {
		ambientColor      0.2500 0.2196 0.1882  #ambientColor
		diffuseColor      1.0000 0.8784 0.7529  #diffuseColor
		transparency      0.0000                #transparency
	} #Material

	IndexedFaceSet {
		coordIndex [ 
		 0, 1, 2, 3,-1,
		 3, 2, 1, 0,-1,
		 0, 3, 7, 4,-1,
		 4, 7, 3, 0,-1,
		 1, 0, 4, 5,-1,
		 5, 4, 0, 1,-1,
		 2, 1, 5, 6,-1,
		 6, 5, 1, 2,-1,
		 3, 2, 6, 7,-1,
		 7, 6, 2, 3,-1,
		 7, 6, 5, 4,-1,
		 4, 5, 6, 7,-1,
		]
	} #IndexedFaceSet
} #Polyhedron
Separator { #Polyhedron
	DEF COORD11 Coordinate3 {
		point [
		 0.2159 0.8890 -11.0236,
		 0.1778 1.3208 -11.0236,
		 0.1270 1.3970 -11.0236,
		 0.1270 1.2573 -11.0236,
		 0.1905 0.8890 -11.0236,
		 0.2159 0.8890 -10.9220,
		 0.1778 1.3208 -10.9220,
		 0.1270 1.3970 -10.9220,
		 0.1270 1.2573 -10.9220,
		 0.1905 0.8890 -10.9220
		]
	} #Coordinate3
	Material {
		ambientColor      0.2480 0.0020 0.0824  #ambientColor
		diffuseColor      0.9922 0.0078 0.3294  #diffuseColor
		transparency      0.0000                #transparency
	} #Material

	IndexedFaceSet {
		coordIndex [ 
		 0, 1, 2, 3, 4,-1,
		 4, 3, 2, 1, 0,-1,
		 0, 4, 9, 5,-1,
		 5, 9, 4, 0,-1,
		 1, 0, 5, 6,-1,
		 6, 5, 0, 1,-1,
		 2, 1, 6, 7,-1,
		 7, 6, 1, 2,-1,
		 3, 2, 7, 8,-1,
		 8, 7, 2, 3,-1,
		 4, 3, 8, 9,-1,
		 9, 8, 3, 4,-1,
		 9, 8, 7, 6, 5,-1,
		 5, 6, 7, 8, 9,-1,
		]
	} #IndexedFaceSet
} #Polyhedron
Separator { #Polyhedron
	DEF COORD12 Coordinate3 {
		point [
		 -0.1270 1.3970 -11.0236,
		 -0.1778 1.3208 -11.0236,
		 -0.2159 0.8890 -11.0236,
		 -0.1905 0.8890 -11.0236,
		 -0.1270 1.2573 -11.0236,
		 -0.1270 1.3970 -10.9220,
		 -0.1778 1.3208 -10.9220,
		 -0.2159 0.8890 -10.9220,
		 -0.1905 0.8890 -10.9220,
		 -0.1270 1.2573 -10.9220
		]
	} #Coordinate3
	Material {
		ambientColor      0.2480 0.0020 0.0824  #ambientColor
		diffuseColor      0.9922 0.0078 0.3294  #diffuseColor
		transparency      0.0000                #transparency
	} #Material

	IndexedFaceSet {
		coordIndex [ 
		 0, 1, 2, 3, 4,-1,
		 4, 3, 2, 1, 0,-1,
		 0, 4, 9, 5,-1,
		 5, 9, 4, 0,-1,
		 1, 0, 5, 6,-1,
		 6, 5, 0, 1,-1,
		 2, 1, 6, 7,-1,
		 7, 6, 1, 2,-1,
		 3, 2, 7, 8,-1,
		 8, 7, 2, 3,-1,
		 4, 3, 8, 9,-1,
		 9, 8, 3, 4,-1,
		 9, 8, 7, 6, 5,-1,
		 5, 6, 7, 8, 9,-1,
		]
	} #IndexedFaceSet
} #Polyhedron
Separator { #Polyhedron
	DEF COORD13 Coordinate3 {
		point [
		 0.1270 1.3970 -11.0236,
		 0.0508 1.4478 -11.0236,
		 -0.0508 1.4478 -11.0236,
		 -0.1270 1.3970 -11.0236,
		 -0.1270 1.2573 -11.0236,
		 -0.0762 1.1049 -11.0236,
		 0.0762 1.1049 -11.0236,
		 0.1143 1.2573 -11.0236,
		 0.1270 1.3970 -10.8585,
		 0.0508 1.4478 -10.8585,
		 -0.0508 1.4478 -10.8585,
		 -0.1270 1.3970 -10.8585,
		 -0.1270 1.2573 -10.8585,
		 -0.0762 1.1049 -10.8585,
		 0.0762 1.1049 -10.8585,
		 0.1143 1.2573 -10.8585,
		 0.1201 1.3207 -10.8585,
		 0.1270 1.3970 -10.8966,
		 0.0508 1.4478 -10.9220,
		 -0.0508 1.4478 -10.9220,
		 -0.1270 1.3970 -10.8966,
		 -0.1270 1.3207 -10.8585,
		 0.1143 1.2573 -10.8585,
		 0.1143 1.2573 -10.8585,
		 -0.1270 1.2573 -10.8585,
		 -0.1270 1.2573 -10.8585,
		 -0.0762 1.1049 -10.9220,
		 0.0762 1.1049 -10.9220
		]
	} #Coordinate3
	Material {
		ambientColor      0.2480 0.0020 0.0824  #ambientColor
		diffuseColor      0.9922 0.0078 0.3294  #diffuseColor
		transparency      0.0000                #transparency
	} #Material

	IndexedFaceSet {
		coordIndex [ 
		 0, 1, 2, 3, 4, 5, 6, 7,-1,
		 7, 6, 5, 4, 3, 2, 1, 0,-1,
		 0, 7, 22, 23, 16, 17,-1,
		 17, 16, 23, 22, 7, 0,-1,
		 1, 0, 17, 18,-1,
		 18, 17, 0, 1,-1,
		 2, 1, 18, 19,-1,
		 19, 18, 1, 2,-1,
		 3, 2, 19, 20,-1,
		 20, 19, 2, 3,-1,
		 4, 3, 20, 21, 24, 25,-1,
		 25, 24, 21, 20, 3, 4,-1,
		 5, 4, 25, 26,-1,
		 26, 25, 4, 5,-1,
		 6, 5, 26, 27,-1,
		 27, 26, 5, 6,-1,
		 7, 6, 27, 22,-1,
		 22, 27, 6, 7,-1,
		 24, 21, 16, 23,-1,
		 23, 16, 21, 24,-1,
		 17, 16, 21, 20, 19, 18,-1,
		 18, 19, 20, 21, 16, 17,-1,
		 23, 22, 27, 26, 25, 24,-1,
		 24, 25, 26, 27, 22, 23,-1,
		]
	} #IndexedFaceSet
} #Polyhedron
Separator { #Polyhedron
	DEF COORD14 Coordinate3 {
		point [
		 0.1016 0.0508 -11.0236,
		 0.1016 0.0000 -11.0236,
		 0.1651 0.0000 -11.0236,
		 0.1524 0.0508 -11.0236,
		 0.1016 0.0508 -10.8077,
		 0.1016 0.0000 -10.8077,
		 0.1651 0.0000 -10.8077,
		 0.1524 0.0508 -10.8077,
		 0.1524 0.0508 -10.9157,
		 0.1016 0.0508 -10.9157,
		 0.1016 0.0127 -10.8077,
		 0.1619 0.0127 -10.8077
		]
	} #Coordinate3
	Material {
		ambientColor      0.2500 0.2196 0.1882  #ambientColor
		diffuseColor      1.0000 0.8784 0.7529  #diffuseColor
		transparency      0.0000                #transparency
	} #Material

	IndexedFaceSet {
		coordIndex [ 
		 0, 1, 2, 3,-1,
		 3, 2, 1, 0,-1,
		 0, 3, 8, 9,-1,
		 9, 8, 3, 0,-1,
		 1, 0, 9, 10, 5,-1,
		 5, 10, 9, 0, 1,-1,
		 2, 1, 5, 6,-1,
		 6, 5, 1, 2,-1,
		 3, 2, 6, 11, 8,-1,
		 8, 11, 6, 2, 3,-1,
		 11, 6, 5, 10,-1,
		 10, 5, 6, 11,-1,
		 9, 8, 11, 10,-1,
		 10, 11, 8, 9,-1,
		]
	} #IndexedFaceSet
} #Polyhedron
Separator { #Polyhedron
	DEF COORD15 Coordinate3 {
		point [
		 -0.1524 0.0508 -11.0236,
		 -0.1651 0.0000 -11.0236,
		 -0.1016 0.0000 -11.0236,
		 -0.1016 0.0508 -11.0236,
		 -0.1524 0.0508 -10.8077,
		 -0.1651 0.0000 -10.8077,
		 -0.1016 0.0000 -10.8077,
		 -0.1016 0.0508 -10.8077,
		 -0.1016 0.0508 -10.9157,
		 -0.1524 0.0508 -10.9157,
		 -0.1619 0.0127 -10.8077,
		 -0.1016 0.0127 -10.8077
		]
	} #Coordinate3
	Material {
		ambientColor      0.2500 0.2196 0.1882  #ambientColor
		diffuseColor      1.0000 0.8784 0.7529  #diffuseColor
		transparency      0.0000                #transparency
	} #Material

	IndexedFaceSet {
		coordIndex [ 
		 0, 1, 2, 3,-1,
		 3, 2, 1, 0,-1,
		 0, 3, 8, 9,-1,
		 9, 8, 3, 0,-1,
		 1, 0, 9, 10, 5,-1,
		 5, 10, 9, 0, 1,-1,
		 2, 1, 5, 6,-1,
		 6, 5, 1, 2,-1,
		 3, 2, 6, 11, 8,-1,
		 8, 11, 6, 2, 3,-1,
		 11, 6, 5, 10,-1,
		 10, 5, 6, 11,-1,
		 9, 8, 11, 10,-1,
		 10, 11, 8, 9,-1,
		]
	} #IndexedFaceSet
} #Polyhedron
Separator { #Polyhedron
	DEF COORD16 Coordinate3 {
		point [
		 -0.1270 0.9779 -11.0617,
		 -0.1524 0.6096 -11.0617,
		 0.1524 0.6096 -11.0617,
		 0.1270 0.9779 -11.0617,
		 0.0762 1.1049 -11.0617,
		 -0.0762 1.1049 -11.0617,
		 -0.1270 0.9779 -10.9220,
		 -0.1524 0.6096 -10.9220,
		 0.1524 0.6096 -10.9220,
		 0.1270 0.9779 -10.9220,
		 0.0762 1.1049 -10.9220,
		 -0.0762 1.1049 -10.9220,
		 -0.1270 0.9779 -11.0617,
		 0.1270 0.9779 -11.0617,
		 -0.0762 1.1049 -11.0236,
		 -0.1270 0.9779 -11.0617,
		 0.1270 0.9779 -11.0617,
		 0.0762 1.1049 -11.0236
		]
	} #Coordinate3
	Material {
		ambientColor      0.2500 0.2500 0.0000  #ambientColor
		diffuseColor      1.0000 1.0000 0.0000  #diffuseColor
		transparency      0.0000                #transparency
	} #Material

	IndexedFaceSet {
		coordIndex [ 
		 12, 1, 2, 13,-1,
		 13, 2, 1, 12,-1,
		 14, 11, 6, 15,-1,
		 15, 6, 11, 14,-1,
		 1, 12, 15, 6, 7,-1,
		 7, 6, 15, 12, 1,-1,
		 2, 1, 7, 8,-1,
		 8, 7, 1, 2,-1,
		 13, 2, 8, 9, 16,-1,
		 16, 9, 8, 2, 13,-1,
		 16, 9, 10, 17,-1,
		 17, 10, 9, 16,-1,
		 17, 10, 11, 14,-1,
		 14, 11, 10, 17,-1,
		 11, 10, 9, 8, 7, 6,-1,
		 6, 7, 8, 9, 10, 11,-1,
		 12, 13, 16, 17, 14, 15,-1,
		 15, 14, 17, 16, 13, 12,-1,
		]
	} #IndexedFaceSet
} #Polyhedron
Separator { #Polyhedron
	DEF COORD17 Coordinate3 {
		point [
		 0.1524 1.5875 -10.9411,
		 0.0762 1.4732 -11.0071,
		 0.0762 1.4732 -10.8751,
		 0.0762 1.5875 -10.8091,
		 0.0762 1.7018 -10.8751,
		 0.0762 1.7018 -11.0071,
		 0.0762 1.5875 -11.0731,
		 0.0000 1.4555 -11.0173,
		 0.0000 1.4555 -10.8649,
		 0.0000 1.5875 -10.7887,
		 0.0000 1.7195 -10.8649,
		 0.0000 1.7195 -11.0173,
		 0.0000 1.5875 -11.0935,
		 -0.0762 1.4732 -11.0071,
		 -0.0762 1.4732 -10.8751,
		 -0.0762 1.5875 -10.8091,
		 -0.0762 1.7018 -10.8751,
		 -0.0762 1.7018 -11.0071,
		 -0.0762 1.5875 -11.0731,
		 -0.1524 1.5875 -10.9411,
		 0.1016 1.5875 -11.0291,
		 0.1016 1.5113 -10.9851,
		 0.1016 1.5113 -10.8971,
		 0.1016 1.5875 -10.8531,
		 0.1016 1.6637 -10.8971,
		 0.1016 1.6637 -10.9851,
		 -0.1016 1.5875 -11.0291,
		 -0.1016 1.5113 -10.9851,
		 -0.1016 1.5113 -10.8971,
		 -0.1016 1.5875 -10.8531,
		 -0.1016 1.6637 -10.8971,
		 -0.1016 1.6637 -10.9851,
		 0.0762 1.4732 -10.9241,
		 0.1016 1.5113 -10.9072,
		 0.0762 1.6504 -10.8454,
		 0.1016 1.6073 -10.8645,
		 0.0000 1.4555 -10.9320,
		 0.0000 1.6704 -10.8365,
		 -0.0762 1.4732 -10.9241,
		 -0.0762 1.6504 -10.8454,
		 -0.1016 1.5113 -10.9072,
		 -0.1016 1.6073 -10.8645
		]
	} #Coordinate3
	Material {
		ambientColor      0.2500 0.2196 0.1882  #ambientColor
		diffuseColor      1.0000 0.8784 0.7529  #diffuseColor
		transparency      0.0000                #transparency
	} #Material

	Texture2 {
		filename ""  #filename
		wrapS REPEAT 
		wrapT REPEAT 
	} #Texture2

	IndexedFaceSet {
		coordIndex [ 
		 32, 2, 22, 33,-1,
		 33, 22, 2, 32,-1,
		 22, 2, 3, 23,-1,
		 23, 3, 2, 22,-1,
		 23, 3, 34, 35,-1,
		 35, 34, 3, 23,-1,
		 2, 32, 36, 8,-1,
		 8, 36, 32, 2,-1,
		 3, 2, 8, 9,-1,
		 9, 8, 2, 3,-1,
		 34, 3, 9, 37,-1,
		 37, 9, 3, 34,-1,
		 8, 36, 38, 14,-1,
		 14, 38, 36, 8,-1,
		 9, 8, 14, 15,-1,
		 15, 14, 8, 9,-1,
		 37, 9, 15, 39,-1,
		 39, 15, 9, 37,-1,
		 14, 38, 40, 28,-1,
		 28, 40, 38, 14,-1,
		 15, 14, 28, 29,-1,
		 29, 28, 14, 15,-1,
		 39, 15, 29, 41,-1,
		 41, 29, 15, 39,-1,
		 33, 22, 23, 35,-1,
		 35, 23, 22, 33,-1,
		 41, 29, 28, 40,-1,
		 40, 28, 29, 41,-1,
		 32, 33, 35, 34, 37, 39, 41, 40, 38, 36,-1,
		 36, 38, 40, 41, 39, 37, 34, 35, 33, 32,-1,
		]
	} #IndexedFaceSet
} #Polyhedron
Separator { #Polyhedron
	DEF COORD18 Coordinate3 {
		point [
		 0.1778 1.5875 -10.9474,
		 0.0889 1.4542 -11.0244,
		 0.0889 1.4542 -10.8704,
		 0.0889 1.5875 -10.7934,
		 0.0889 1.7209 -10.8704,
		 0.0889 1.7209 -11.0244,
		 0.0889 1.5875 -11.1014,
		 0.0000 1.4335 -11.0363,
		 0.0000 1.4335 -10.8585,
		 0.0000 1.5875 -10.7696,
		 0.0000 1.7415 -10.8585,
		 0.0000 1.7415 -11.0363,
		 0.0000 1.5875 -11.1252,
		 -0.0889 1.4542 -11.0244,
		 -0.0889 1.4542 -10.8704,
		 -0.0889 1.5875 -10.7934,
		 -0.0889 1.7209 -10.8704,
		 -0.0889 1.7209 -11.0244,
		 -0.0889 1.5875 -11.1014,
		 -0.1778 1.5875 -10.9474,
		 0.0889 1.4542 -10.9390,
		 0.1336 1.5212 -10.9092,
		 0.1387 1.5875 -10.8797,
		 0.0889 1.6719 -10.8422,
		 0.0000 1.4335 -10.9481,
		 0.0000 1.6952 -10.8318,
		 -0.0889 1.4542 -10.9390,
		 -0.0889 1.6719 -10.8422,
		 -0.1336 1.5212 -10.9092,
		 -0.1387 1.5875 -10.8797,
		 0.1397 1.5875 -11.0134,
		 0.1397 1.5304 -10.9804,
		 0.1397 1.5304 -10.9144,
		 0.1397 1.5875 -10.8814,
		 0.1397 1.6447 -10.9144,
		 0.1397 1.6447 -10.9804,
		 -0.1397 1.5875 -11.0134,
		 -0.1397 1.5304 -10.9804,
		 -0.1397 1.5304 -10.9144,
		 -0.1397 1.5875 -10.8814,
		 -0.1397 1.6447 -10.9144,
		 -0.1397 1.6447 -10.9804,
		 0.0889 1.4573 -11.0262,
		 0.0910 1.4573 -11.0226,
		 0.0910 1.4573 -10.9375,
		 0.0000 1.4573 -11.0501,
		 -0.0889 1.4573 -11.0262,
		 -0.0910 1.4573 -11.0226,
		 -0.0910 1.4573 -10.9375
		]
	} #Coordinate3
	Material {
		ambientColor      0.0000 0.0000 0.0000  #ambientColor
		diffuseColor      0.0000 0.0000 0.0000  #diffuseColor
		transparency      0.0000                #transparency
	} #Material

	IndexedFaceSet {
		coordIndex [ 
		 30, 6, 42, 43, 31,-1,
		 31, 43, 42, 6, 30,-1,
		 31, 43, 44, 21, 32,-1,
		 32, 21, 44, 43, 31,-1,
		 32, 21, 22, 33,-1,
		 33, 22, 21, 32,-1,
		 33, 22, 23, 4, 34,-1,
		 34, 4, 23, 22, 33,-1,
		 34, 4, 5, 35,-1,
		 35, 5, 4, 34,-1,
		 35, 5, 6, 30,-1,
		 30, 6, 5, 35,-1,
		 42, 6, 12, 45,-1,
		 45, 12, 6, 42,-1,
		 4, 23, 25, 10,-1,
		 10, 25, 23, 4,-1,
		 5, 4, 10, 11,-1,
		 11, 10, 4, 5,-1,
		 6, 5, 11, 12,-1,
		 12, 11, 5, 6,-1,
		 45, 12, 18, 46,-1,
		 46, 18, 12, 45,-1,
		 10, 25, 27, 16,-1,
		 16, 27, 25, 10,-1,
		 11, 10, 16, 17,-1,
		 17, 16, 10, 11,-1,
		 12, 11, 17, 18,-1,
		 18, 17, 11, 12,-1,
		 46, 18, 36, 37, 47,-1,
		 47, 37, 36, 18, 46,-1,
		 47, 37, 38, 28, 48,-1,
		 48, 28, 38, 37, 47,-1,
		 28, 38, 39, 29,-1,
		 29, 39, 38, 28,-1,
		 16, 27, 29, 39, 40,-1,
		 40, 39, 29, 27, 16,-1,
		 17, 16, 40, 41,-1,
		 41, 40, 16, 17,-1,
		 18, 17, 41, 36,-1,
		 36, 41, 17, 18,-1,
		 21, 44, 48, 28, 29, 27, 25, 23, 22,-1,
		 22, 23, 25, 27, 29, 28, 48, 44, 21,-1,
		 30, 31, 32, 33, 34, 35,-1,
		 35, 34, 33, 32, 31, 30,-1,
		 37, 36, 41, 40, 39, 38,-1,
		 38, 39, 40, 41, 36, 37,-1,
		 43, 42, 45, 46, 47, 48, 44,-1,
		 44, 48, 47, 46, 45, 42, 43,-1,
		]
	} #IndexedFaceSet
} #Polyhedron
Separator { #Polyhedron
	DEF COORD19 Coordinate3 {
		point [
		 0.0381 1.5589 -10.7823,
		 0.0730 1.5875 -10.7823,
		 0.0127 1.5875 -10.7823,
		 0.0381 1.5589 -10.7760,
		 0.0730 1.5875 -10.7760,
		 0.0127 1.5875 -10.7760
		]
	} #Coordinate3
	Material {
		ambientColor      0.0000 0.0000 0.0000  #ambientColor
		diffuseColor      0.0000 0.0000 0.0000  #diffuseColor
		transparency      0.0000                #transparency
	} #Material

	IndexedFaceSet {
		coordIndex [ 
		 0, 1, 2,-1,
		 2, 1, 0,-1,
		 0, 2, 5, 3,-1,
		 3, 5, 2, 0,-1,
		 1, 0, 3, 4,-1,
		 4, 3, 0, 1,-1,
		 2, 1, 4, 5,-1,
		 5, 4, 1, 2,-1,
		 5, 4, 3,-1,
		 3, 4, 5,-1,
		]
	} #IndexedFaceSet
} #Polyhedron
Separator { #Polyhedron
	DEF COORD20 Coordinate3 {
		point [
		 -0.0730 1.5875 -10.7823,
		 -0.0381 1.5589 -10.7823,
		 -0.0127 1.5875 -10.7823,
		 -0.0730 1.5875 -10.7760,
		 -0.0381 1.5589 -10.7760,
		 -0.0127 1.5875 -10.7760
		]
	} #Coordinate3
	Material {
		ambientColor      0.0000 0.0000 0.0000  #ambientColor
		diffuseColor      0.0000 0.0000 0.0000  #diffuseColor
		transparency      0.0000                #transparency
	} #Material

	IndexedFaceSet {
		coordIndex [ 
		 0, 1, 2,-1,
		 2, 1, 0,-1,
		 0, 2, 5, 3,-1,
		 3, 5, 2, 0,-1,
		 1, 0, 3, 4,-1,
		 4, 3, 0, 1,-1,
		 2, 1, 4, 5,-1,
		 5, 4, 1, 2,-1,
		 5, 4, 3,-1,
		 3, 4, 5,-1,
		]
	} #IndexedFaceSet
} #Polyhedron
Separator { #Polyhedron
	DEF COORD21 Coordinate3 {
		point [
		 3.8100 3.6576 -10.6680,
		 4.4196 3.6576 -11.2776,
		 6.8580 3.6576 -8.8392,
		 3.8100 3.6576 -5.7912,
		 3.8100 0.0000 -10.6680,
		 4.4196 0.0000 -11.2776,
		 6.8580 0.0000 -8.8392,
		 3.8100 0.0000 -5.7912
		]
	} #Coordinate3
	Material {
		ambientColor      0.2500 0.2500 0.2500  #ambientColor
		diffuseColor      1.0000 1.0000 1.0000  #diffuseColor
		transparency      0.0000                #transparency
	} #Material

	Texture2 {
		filename ""  #filename
		wrapS REPEAT 
		wrapT REPEAT 
	} #Texture2

	IndexedFaceSet {
		coordIndex [ 
		 0, 1, 2, 3,-1,
		 3, 2, 1, 0,-1,
		]
	} #IndexedFaceSet
	Material {
		ambientColor      0.2500 0.2500 0.2500  #ambientColor
		diffuseColor      1.0000 1.0000 1.0000  #diffuseColor
		transparency      1.0000                #transparency
	} #Material

	IndexedFaceSet {
		coordIndex [ 
		 4, 7, 3, 0,-1,
		]
	} #IndexedFaceSet
	Material {
		ambientColor      0.2500 0.2500 0.2500  #ambientColor
		diffuseColor      1.0000 1.0000 1.0000  #diffuseColor
		transparency      0.0000                #transparency
	} #Material

	DEF TEXCOORD35 TextureCoordinate2 {
		point [
		0.0000 5.9998,
		1.4142 5.9998,
		1.4142 0.0000,
		0.0000 0.0000,
		0.0000 0.0000,
		1.4142 0.0000,
		1.4142 5.9998,
		0.0000 5.9998
		]
	} #TextureCoordinate2
	Texture2 {
		filename "TXTR0001.JPG"  #filename
		wrapS REPEAT 
		wrapT REPEAT 
	} #Texture2

	IndexedFaceSet {
		coordIndex [ 
		 1, 0, 4, 5,-1,
		 5, 4, 0, 1,-1,
		]
		textureCoordIndex [
		 0, 1, 2, 3,-1,
		 4, 5, 6, 7,-1,
		]
	} #IndexedFaceSet
	DEF TEXCOORD36 TextureCoordinate2 {
		point [
		4.9999 0.0000,
		0.0000 5.0000,
		3.9999 9.0000,
		4.9999 8.0000,
		4.9999 8.0000,
		3.9999 9.0000,
		0.0000 5.0000,
		4.9999 0.0000
		]
	} #TextureCoordinate2
	Texture2 {
		filename "TXTR0002.JPG"  #filename
		wrapS REPEAT 
		wrapT REPEAT 
	} #Texture2

	IndexedFaceSet {
		coordIndex [ 
		 7, 6, 5, 4,-1,
		 4, 5, 6, 7,-1,
		]
		textureCoordIndex [
		 0, 1, 2, 3,-1,
		 4, 5, 6, 7,-1,
		]
	} #IndexedFaceSet
	Separator { #Polyhedron
		WWWAnchor {
			name "nonfict.wrl"
			map NONE
			USE COORD21
	} #WWWAnchor
} #Polyhedron
} #Polyhedron
WWWAnchor {
name "nonfict.wrl"
map NONE
Separator { #Polyhedron
	DEF COORD22 Coordinate3 {
		point [
		4.1025 2.0320 -9.1266,
		4.1025 1.3208 -9.1266,
		4.6054 1.3208 -8.6237,
		4.6054 2.0320 -8.6237,
		4.0306 2.0320 -9.0547,
		4.0306 1.3208 -9.0547,
		4.5335 1.3208 -8.5518,
		4.5335 2.0320 -8.5518
		]
	} #Coordinate3
	Material {
		ambientColor      0.2176 0.1902 0.0010  #ambientColor
		diffuseColor      0.8706 0.7608 0.0039  #diffuseColor
		transparency      0.0000                #transparency
	} #Material

	Texture2 {
		filename ""  #filename
		wrapS REPEAT 
		wrapT REPEAT 
	} #Texture2

	IndexedFaceSet {
		coordIndex [ 
		 0, 3, 7, 4,-1,
		 4, 7, 3, 0,-1,
		 2, 1, 5, 6,-1,
		 6, 5, 1, 2,-1,
		]
	} #IndexedFaceSet
} #Polyhedron
} #WWWAnchor
Separator { #Polyhedron
DEF COORD23 Coordinate3 {
	point [
	 4.2462 1.3208 -8.8392,
	 4.3180 1.3208 -8.9111,
	 4.3899 1.3208 -8.8392,
	 4.3180 1.3208 -8.7674,
	 4.2462 0.1524 -8.8392,
	 4.3180 0.1524 -8.9111,
	 4.3899 0.1524 -8.8392,
	 4.3180 0.1524 -8.7674
	]
} #Coordinate3
Material {
	ambientColor      0.2176 0.1902 0.0010  #ambientColor
	diffuseColor      0.8706 0.7608 0.0039  #diffuseColor
	transparency      0.0000                #transparency
} #Material

Texture2 {
	filename ""  #filename
	wrapS REPEAT 
	wrapT REPEAT 
} #Texture2

IndexedFaceSet {
	coordIndex [ 
	 0, 1, 2, 3,-1,
	 3, 2, 1, 0,-1,
	 7, 6, 5, 4,-1,
	 4, 5, 6, 7,-1,
	]
} #IndexedFaceSet
} #Polyhedron
Separator { #Polyhedron
DEF COORD24 Coordinate3 {
	point [
	 4.3180 0.1715 -8.8392,
	 4.6413 0.0000 -8.5159,
	 4.3180 0.0000 -8.3820,
	 3.9947 0.0000 -8.5159,
	 3.8608 0.0000 -8.8392,
	 3.9947 0.0000 -9.1625,
	 4.3180 0.0000 -9.2964,
	 4.6413 0.0000 -9.1625,
	 4.7752 0.0000 -8.8392,
	 4.3688 0.1524 -8.8392,
	 4.3539 0.1524 -8.8033,
	 4.3180 0.1524 -8.7884,
	 4.2821 0.1524 -8.8033,
	 4.2672 0.1524 -8.8392,
	 4.2821 0.1524 -8.8751,
	 4.3180 0.1524 -8.8900,
	 4.3539 0.1524 -8.8751
	]
} #Coordinate3
Material {
	ambientColor      0.2176 0.1902 0.0010  #ambientColor
	diffuseColor      0.8706 0.7608 0.0039  #diffuseColor
	transparency      0.0000                #transparency
} #Material

IndexedFaceSet {
	coordIndex [ 
	 9, 8, 1, 10,-1,
	 10, 1, 8, 9,-1,
	 10, 1, 2, 11,-1,
	 11, 2, 1, 10,-1,
	 11, 2, 3, 12,-1,
	 12, 3, 2, 11,-1,
	 12, 3, 4, 13,-1,
	 13, 4, 3, 12,-1,
	 13, 4, 5, 14,-1,
	 14, 5, 4, 13,-1,
	 14, 5, 6, 15,-1,
	 15, 6, 5, 14,-1,
	 15, 6, 7, 16,-1,
	 16, 7, 6, 15,-1,
	 16, 7, 8, 9,-1,
	 9, 8, 7, 16,-1,
	 8, 7, 6, 5, 4, 3, 2, 1,-1,
	 1, 2, 3, 4, 5, 6, 7, 8,-1,
	 9, 10, 11, 12, 13, 14, 15, 16,-1,
	 16, 15, 14, 13, 12, 11, 10, 9,-1,
	]
} #IndexedFaceSet
} #Polyhedron
Separator { #Polyhedron
DEF COORD25 Coordinate3 {
	point [
	 -4.4200 3.6576 -11.2780,
	 -3.8100 3.6576 -10.6680,
	 -3.8100 3.6576 -5.7912,
	 -6.8580 3.6576 -8.8392,
	 -4.4200 0.0000 -11.2780,
	 -3.8100 0.0000 -10.6680,
	 -3.8100 0.0000 -5.7912,
	 -6.8580 0.0000 -8.8392
	]
} #Coordinate3
Material {
	ambientColor      0.2500 0.2500 0.2500  #ambientColor
	diffuseColor      1.0000 1.0000 1.0000  #diffuseColor
	transparency      0.0000                #transparency
} #Material

Texture2 {
	filename ""  #filename
	wrapS REPEAT 
	wrapT REPEAT 
} #Texture2

IndexedFaceSet {
	coordIndex [ 
	 0, 1, 2, 3,-1,
	 3, 2, 1, 0,-1,
	]
} #IndexedFaceSet
Material {
	ambientColor      0.2500 0.2500 0.2500  #ambientColor
	diffuseColor      1.0000 1.0000 1.0000  #diffuseColor
	transparency      1.0000                #transparency
} #Material

IndexedFaceSet {
	coordIndex [ 
	 6, 5, 1, 2,-1,
	]
} #IndexedFaceSet
Material {
	ambientColor      0.2500 0.2500 0.2500  #ambientColor
	diffuseColor      1.0000 1.0000 1.0000  #diffuseColor
	transparency      0.0000                #transparency
} #Material

DEF TEXCOORD37 TextureCoordinate2 {
	point [
	4.9999 5.0000,
	0.0000 0.0000,
	0.0000 8.0000,
	1.0005 9.0006,
	1.0005 9.0006,
	0.0000 8.0000,
	0.0000 0.0000,
	4.9999 5.0000
	]
} #TextureCoordinate2
Texture2 {
	filename "TXTR0002.JPG"  #filename
	wrapS REPEAT 
	wrapT REPEAT 
} #Texture2

IndexedFaceSet {
	coordIndex [ 
	 7, 6, 5, 4,-1,
	 4, 5, 6, 7,-1,
	]
	textureCoordIndex [
	 0, 1, 2, 3,-1,
	 4, 5, 6, 7,-1,
	]
} #IndexedFaceSet
Separator { #Polyhedron
	WWWAnchor {
		name "fiction.wrl"
		map NONE
		USE COORD25
		]
	} #IndexedFaceSet
	Texture2 {
		filename ""  #filename
		wrapS REPEAT 
		wrapT REPEAT 
	} #Texture2

	IndexedFaceSet {
		coordIndex [ 
		 0, 3, 7, 4,-1,
		]
	} #IndexedFaceSet
	Texture2 {
		filename "TXTR0006.JPG"  #filename
		wrapS REPEAT 
		wrapT REPEAT 
	} #Texture2

	IndexedFaceSet {
		coordIndex [ 
		 4, 7, 3, 0,-1,
		]
	} #IndexedFaceSet
} #WWWAnchor
} #Polyhedron
} #Polyhedron
WWWAnchor {
name "fiction.wrl"
map NONE
Separator { #Polyhedron
DEF COORD26 Coordinate3 {
	point [
	-4.6054 2.0320 -8.6237,
	-4.6054 1.3208 -8.6237,
	-4.1025 1.3208 -9.1266,
	-4.1025 2.0320 -9.1266,
	-4.5335 2.0320 -8.5519,
	-4.5335 1.3208 -8.5519,
	-4.0306 1.3208 -9.0547,
	-4.0306 2.0320 -9.0547
	]
} #Coordinate3
Material {
	ambientColor      0.2176 0.1902 0.0010  #ambientColor
	diffuseColor      0.8706 0.7608 0.0039  #diffuseColor
	transparency      0.0000                #transparency
} #Material

IndexedFaceSet {
	coordIndex [ 
	 0, 3, 7, 4,-1,
	 4, 7, 3, 0,-1,
	 2, 1, 5, 6,-1,
	 6, 5, 1, 2,-1,
	]
} #IndexedFaceSet
} #Polyhedron
} #WWWAnchor
Separator { #Polyhedron
DEF COORD27 Coordinate3 {
point [
 -4.3180 1.3208 -8.7674,
 -4.3899 1.3208 -8.8392,
 -4.3180 1.3208 -8.9111,
 -4.2462 1.3208 -8.8392,
 -4.3180 0.1524 -8.7674,
 -4.3899 0.1524 -8.8392,
 -4.3180 0.1524 -8.9111,
 -4.2462 0.1524 -8.8392
]
} #Coordinate3
Material {
ambientColor      0.2176 0.1902 0.0010  #ambientColor
diffuseColor      0.8706 0.7608 0.0039  #diffuseColor
transparency      0.0000                #transparency
} #Material

Texture2 {
filename ""  #filename
wrapS REPEAT 
wrapT REPEAT 
} #Texture2

IndexedFaceSet {
coordIndex [ 
 0, 1, 2, 3,-1,
 3, 2, 1, 0,-1,
 7, 6, 5, 4,-1,
 4, 5, 6, 7,-1,
]
} #IndexedFaceSet
} #Polyhedron
Separator { #Polyhedron
DEF COORD28 Coordinate3 {
point [
 -4.3180 0.1715 -8.8392,
 -3.9947 0.0000 -9.1625,
 -3.8608 0.0000 -8.8392,
 -3.9947 0.0000 -8.5159,
 -4.3180 0.0000 -8.3820,
 -4.6413 0.0000 -8.5159,
 -4.7752 0.0000 -8.8392,
 -4.6413 0.0000 -9.1625,
 -4.3180 0.0000 -9.2964,
 -4.3180 0.1524 -8.8900,
 -4.2821 0.1524 -8.8751,
 -4.2672 0.1524 -8.8392,
 -4.2821 0.1524 -8.8033,
 -4.3180 0.1524 -8.7884,
 -4.3539 0.1524 -8.8033,
 -4.3688 0.1524 -8.8392,
 -4.3539 0.1524 -8.8751
]
} #Coordinate3
Material {
ambientColor      0.2176 0.1902 0.0010  #ambientColor
diffuseColor      0.8706 0.7608 0.0039  #diffuseColor
transparency      0.0000                #transparency
} #Material

IndexedFaceSet {
coordIndex [ 
 9, 8, 1, 10,-1,
 10, 1, 8, 9,-1,
 10, 1, 2, 11,-1,
 11, 2, 1, 10,-1,
 11, 2, 3, 12,-1,
 12, 3, 2, 11,-1,
 12, 3, 4, 13,-1,
 13, 4, 3, 12,-1,
 13, 4, 5, 14,-1,
 14, 5, 4, 13,-1,
 14, 5, 6, 15,-1,
 15, 6, 5, 14,-1,
 15, 6, 7, 16,-1,
 16, 7, 6, 15,-1,
 16, 7, 8, 9,-1,
 9, 8, 7, 16,-1,
 8, 7, 6, 5, 4, 3, 2, 1,-1,
 1, 2, 3, 4, 5, 6, 7, 8,-1,
 9, 10, 11, 12, 13, 14, 15, 16,-1,
 16, 15, 14, 13, 12, 11, 10, 9,-1,
]
} #IndexedFaceSet
} #Polyhedron
}
