#VRML V1.0 ascii

Separator {
	Info { string "Virtus 3D Website Builder 1.0
	VRML Export Filter
	Virtus Corporation
	114 MacKenan Drive, Suite 100
	Cary, NC 27511
	919-467-9700"}

	DEF BackgroundColor Info{  # Sky color
		string " 0.3 0.8 1.0 "
	}

	DirectionalLight {
		on         TRUE          # SFBool
		intensity  1.0           # SFFloat
		color      0.4 0.4 0.4   # SFColor
		direction  0 0 0   # SFVec3f
	}

	DirectionalLight {
		on         TRUE          # SFBool
		intensity  1.0           # SFFloat
		color      0.5 0.5 0.5   # SFColor
		direction  34 -247 -57   # SFVec3f
	}

	DirectionalLight {
		on         TRUE          # SFBool
		intensity  1.0           # SFFloat
		color      0.4 0.4 0.4   # SFColor
		direction  -209 -104 105   # SFVec3f
	}

	DirectionalLight {
		on         TRUE          # SFBool
		intensity  1.0           # SFFloat
		color      0.5 0.5 0.5   # SFColor
		direction  5 119 -226   # SFVec3f
	}

	PerspectiveCamera {
		position 1.0160 3.7084 9.9568          #SFVec3f 
		orientation 0 1 0  6.0887     #SFRotation 
		focalDistance  5            #SFFloat 
		heightAngle 2.1726 
	}

	ShapeHints {
		vertexOrdering	CLOCKWISE
		shapeType	SOLID
	}

	Transform {
		translation 0 0 0
		scaleFactor 1.0 1.0 1.0
	}

Separator { #Polyhedron
	DEF COORD0 Coordinate3 {
		point [
		 -0.1248 7.3152 -0.0874,
		 -0.1497 1.2192 -0.8490,
		 0.5993 1.2192 -0.3245,
		 -0.1000 1.2192 0.6742,
		 -0.8490 1.2192 0.1497
		]
	} #Coordinate3
	Material {
		ambientColor      0.1324 0.1324 0.1324  #ambientColor
		diffuseColor      0.5294 0.5294 0.5294  #diffuseColor
		transparency      0.0000                #transparency
	} #Material

	IndexedFaceSet {
		coordIndex [ 
		 0, 4, 1,-1,
		 1, 4, 0,-1,
		 0, 1, 2,-1,
		 2, 1, 0,-1,
		 0, 2, 3,-1,
		 3, 2, 0,-1,
		 0, 3, 4,-1,
		 4, 3, 0,-1,
		 4, 3, 2, 1,-1,
		 1, 2, 3, 4,-1,
		]
	} #IndexedFaceSet
} #Polyhedron
Separator { #Polyhedron
	DEF COORD1 Coordinate3 {
		point [
		 5.6216 7.2881 -0.0085,
		 6.3458 1.2192 0.2286,
		 5.5968 1.2192 0.7531,
		 4.8975 1.2192 -0.2456,
		 5.6465 1.2192 -0.7701
		]
	} #Coordinate3
	Material {
		ambientColor      0.1324 0.1324 0.1324  #ambientColor
		diffuseColor      0.5294 0.5294 0.5294  #diffuseColor
		transparency      0.0000                #transparency
	} #Material

	IndexedFaceSet {
		coordIndex [ 
		 0, 4, 1,-1,
		 1, 4, 0,-1,
		 0, 1, 2,-1,
		 2, 1, 0,-1,
		 0, 2, 3,-1,
		 3, 2, 0,-1,
		 0, 3, 4,-1,
		 4, 3, 0,-1,
		 4, 3, 2, 1,-1,
		 1, 2, 3, 4,-1,
		]
	} #IndexedFaceSet
} #Polyhedron
Separator { #Polyhedron
	DEF COORD2 Coordinate3 {
		point [
		 5.1816 3.6576 -0.9144,
		 4.9960 4.5907 -0.9144,
		 4.4674 5.3818 -0.9144,
		 3.6763 5.9104 -0.9144,
		 2.7432 6.0960 -0.9144,
		 1.8101 5.9104 -0.9144,
		 1.0190 5.3818 -0.9144,
		 0.4904 4.5907 -0.9144,
		 0.3048 3.6576 -0.9144,
		 0.4904 2.7245 -0.9144,
		 1.0190 1.9334 -0.9144,
		 1.8101 1.4048 -0.9144,
		 2.7432 1.2192 -0.9144,
		 3.6763 1.4048 -0.9144,
		 4.4674 1.9334 -0.9144,
		 4.9960 2.7245 -0.9144,
		 5.1816 3.6576 -0.6096,
		 4.9960 4.5907 -0.6096,
		 4.4674 5.3818 -0.6096,
		 3.6763 5.9104 -0.6096,
		 2.7432 6.0960 -0.6096,
		 1.8101 5.9104 -0.6096,
		 1.0190 5.3818 -0.6096,
		 0.4904 4.5907 -0.6096,
		 0.3048 3.6576 -0.6096,
		 0.4904 2.7245 -0.6096,
		 1.0190 1.9334 -0.6096,
		 1.8101 1.4048 -0.6096,
		 2.7432 1.2192 -0.6096,
		 3.6763 1.4048 -0.6096,
		 4.4674 1.9334 -0.6096,
		 4.9960 2.7245 -0.6096
		]
	} #Coordinate3
	Material {
		ambientColor      0.2500 0.2500 0.2500  #ambientColor
		diffuseColor      1.0000 1.0000 1.0000  #diffuseColor
		transparency      0.4980                #transparency
	} #Material

	IndexedFaceSet {
		coordIndex [ 
		 0, 1, 2, 3, 4, 5, 6, 7, 8, 9, 10, 11, 12, 13, 14, 15,-1,
		 15, 14, 13, 12, 11, 10, 9, 8, 7, 6, 5, 4, 3, 2, 1, 0,-1,
		 0, 15, 31, 16,-1,
		 16, 31, 15, 0,-1,
		 1, 0, 16, 17,-1,
		 17, 16, 0, 1,-1,
		 2, 1, 17, 18,-1,
		 18, 17, 1, 2,-1,
		 3, 2, 18, 19,-1,
		 19, 18, 2, 3,-1,
		 4, 3, 19, 20,-1,
		 20, 19, 3, 4,-1,
		 5, 4, 20, 21,-1,
		 21, 20, 4, 5,-1,
		 6, 5, 21, 22,-1,
		 22, 21, 5, 6,-1,
		 7, 6, 22, 23,-1,
		 23, 22, 6, 7,-1,
		 8, 7, 23, 24,-1,
		 24, 23, 7, 8,-1,
		 9, 8, 24, 25,-1,
		 25, 24, 8, 9,-1,
		 10, 9, 25, 26,-1,
		 26, 25, 9, 10,-1,
		 11, 10, 26, 27,-1,
		 27, 26, 10, 11,-1,
		 12, 11, 27, 28,-1,
		 28, 27, 11, 12,-1,
		 13, 12, 28, 29,-1,
		 29, 28, 12, 13,-1,
		 14, 13, 29, 30,-1,
		 30, 29, 13, 14,-1,
		 15, 14, 30, 31,-1,
		 31, 30, 14, 15,-1,
		 31, 30, 29, 28, 27, 26, 25, 24, 23, 22, 21, 20, 19, 18, 17, 16,-1,
		 16, 17, 18, 19, 20, 21, 22, 23, 24, 25, 26, 27, 28, 29, 30, 31,-1,
		]
	} #IndexedFaceSet
} #Polyhedron
Separator { #Polyhedron
	DEF COORD3 Coordinate3 {
		point [
		 4.4245 1.2192 -3.2625,
		 5.5451 1.2192 -2.3708,
		 6.2390 1.2192 -1.1181,
		 6.4008 1.2192 0.3048,
		 6.0058 1.2192 1.6813,
		 5.1140 1.2192 2.8018,
		 3.8613 1.2192 3.4958,
		 2.4384 1.2192 3.6576,
		 1.0619 1.2192 3.2625,
		 -0.0586 1.2192 2.3708,
		 -0.7526 1.2192 1.1181,
		 -0.9144 1.2192 -0.3048,
		 -0.5193 1.2192 -1.6813,
		 0.3724 1.2192 -2.8018,
		 1.6251 1.2192 -3.4958,
		 3.0480 1.2192 -3.6576,
		 4.4245 0.9144 -3.2625,
		 5.5451 0.9144 -2.3708,
		 6.2390 0.9144 -1.1181,
		 6.4008 0.9144 0.3048,
		 6.0058 0.9144 1.6813,
		 5.1140 0.9144 2.8018,
		 3.8613 0.9144 3.4958,
		 2.4384 0.9144 3.6576,
		 1.0619 0.9144 3.2625,
		 -0.0586 0.9144 2.3708,
		 -0.7526 0.9144 1.1181,
		 -0.9144 0.9144 -0.3048,
		 -0.5193 0.9144 -1.6813,
		 0.3724 0.9144 -2.8018,
		 1.6251 0.9144 -3.4958,
		 3.0480 0.9144 -3.6576
		]
	} #Coordinate3
	Material {
		ambientColor      0.2500 0.2500 0.2500  #ambientColor
		diffuseColor      1.0000 1.0000 1.0000  #diffuseColor
		transparency      0.0000                #transparency
	} #Material

	IndexedFaceSet {
		coordIndex [ 
		 0, 1, 2, 3, 4, 5, 6, 7, 8, 9, 10, 11, 12, 13, 14, 15,-1,
		 15, 14, 13, 12, 11, 10, 9, 8, 7, 6, 5, 4, 3, 2, 1, 0,-1,
		 0, 15, 31, 16,-1,
		 16, 31, 15, 0,-1,
		 1, 0, 16, 17,-1,
		 17, 16, 0, 1,-1,
		 2, 1, 17, 18,-1,
		 18, 17, 1, 2,-1,
		 3, 2, 18, 19,-1,
		 19, 18, 2, 3,-1,
		 4, 3, 19, 20,-1,
		 20, 19, 3, 4,-1,
		 5, 4, 20, 21,-1,
		 21, 20, 4, 5,-1,
		 6, 5, 21, 22,-1,
		 22, 21, 5, 6,-1,
		 7, 6, 22, 23,-1,
		 23, 22, 6, 7,-1,
		 8, 7, 23, 24,-1,
		 24, 23, 7, 8,-1,
		 9, 8, 24, 25,-1,
		 25, 24, 8, 9,-1,
		 10, 9, 25, 26,-1,
		 26, 25, 9, 10,-1,
		 11, 10, 26, 27,-1,
		 27, 26, 10, 11,-1,
		 12, 11, 27, 28,-1,
		 28, 27, 11, 12,-1,
		 13, 12, 28, 29,-1,
		 29, 28, 12, 13,-1,
		 14, 13, 29, 30,-1,
		 30, 29, 13, 14,-1,
		 15, 14, 30, 31,-1,
		 31, 30, 14, 15,-1,
		 31, 30, 29, 28, 27, 26, 25, 24, 23, 22, 21, 20, 19, 18, 17, 16,-1,
		 16, 17, 18, 19, 20, 21, 22, 23, 24, 25, 26, 27, 28, 29, 30, 31,-1,
		]
	} #IndexedFaceSet
} #Polyhedron
Separator { #Polyhedron
	DEF COORD4 Coordinate3 {
		point [
		 0.5222 6.1111 1.6488,
		 0.0650 1.2192 1.0393,
		 0.9144 1.2192 1.0393,
		 0.9144 1.2192 2.1336,
		 0.0650 1.2192 2.1336
		]
	} #Coordinate3
	Material {
		ambientColor      0.1324 0.1324 0.1324  #ambientColor
		diffuseColor      0.5294 0.5294 0.5294  #diffuseColor
		transparency      0.0000                #transparency
	} #Material

	IndexedFaceSet {
		coordIndex [ 
		 0, 4, 1,-1,
		 1, 4, 0,-1,
		 0, 1, 2,-1,
		 2, 1, 0,-1,
		 0, 2, 3,-1,
		 3, 2, 0,-1,
		 0, 3, 4,-1,
		 4, 3, 0,-1,
		 4, 3, 2, 1,-1,
		 1, 2, 3, 4,-1,
		]
	} #IndexedFaceSet
} #Polyhedron
Separator { #Polyhedron
	DEF COORD5 Coordinate3 {
		point [
		 5.0635 6.1048 1.7293,
		 4.5720 1.2192 1.1197,
		 5.5207 1.2192 1.1197,
		 5.5207 1.2192 2.1336,
		 4.5720 1.2192 2.1336
		]
	} #Coordinate3
	Material {
		ambientColor      0.1324 0.1324 0.1324  #ambientColor
		diffuseColor      0.5294 0.5294 0.5294  #diffuseColor
		transparency      0.0000                #transparency
	} #Material

	IndexedFaceSet {
		coordIndex [ 
		 0, 4, 1,-1,
		 1, 4, 0,-1,
		 0, 1, 2,-1,
		 2, 1, 0,-1,
		 0, 2, 3,-1,
		 3, 2, 0,-1,
		 0, 3, 4,-1,
		 4, 3, 0,-1,
		 4, 3, 2, 1,-1,
		 1, 2, 3, 4,-1,
		]
	} #IndexedFaceSet
} #Polyhedron
Separator { #Polyhedron
	DEF COORD6 Coordinate3 {
		point [
		 5.5451 0.9144 -1.0776,
		 5.4864 0.9144 1.2192,
		 3.8208 0.9144 2.8018,
		 1.5240 0.9144 2.7432,
		 -0.0586 0.9144 1.0776,
		 0.0000 0.9144 -1.2192,
		 1.6656 0.9144 -2.8018,
		 3.9624 0.9144 -2.7432,
		 5.4884 0.7315 -1.0558,
		 5.4309 0.7315 1.1946,
		 3.7991 0.7315 2.7452,
		 1.5487 0.7315 2.6877,
		 -0.0020 0.7315 1.0558,
		 0.0555 0.7315 -1.1946,
		 1.6874 0.7315 -2.7452,
		 3.9378 0.7315 -2.6877,
		 5.3111 0.5486 -0.9877,
		 5.2574 0.5486 1.1174,
		 3.7309 0.5486 2.5679,
		 1.6258 0.5486 2.5142,
		 0.1753 0.5486 0.9877,
		 0.2290 0.5486 -1.1174,
		 1.7556 0.5486 -2.5679,
		 3.8606 0.5486 -2.5142,
		 4.9847 0.3658 -0.8621,
		 4.9378 0.3658 0.9754,
		 3.6053 0.3658 2.2415,
		 1.7678 0.3658 2.1946,
		 0.5017 0.3658 0.8621,
		 0.5486 0.3658 -0.9754,
		 1.8811 0.3658 -2.2415,
		 3.7186 0.3658 -2.1946,
		 4.4243 0.1829 -0.6466,
		 4.3891 0.1829 0.7315,
		 3.3898 0.1829 1.6811,
		 2.0117 0.1829 1.6459,
		 1.0621 0.1829 0.6466,
		 1.0973 0.1829 -0.7315,
		 2.0966 0.1829 -1.6811,
		 3.4747 0.1829 -1.6459,
		 2.7432 0.0000 -0.0000
		]
	} #Coordinate3
	Material {
		ambientColor      0.0549 0.0549 0.2500  #ambientColor
		diffuseColor      0.2196 0.2196 1.0000  #diffuseColor
		transparency      0.0000                #transparency
	} #Material

	IndexedFaceSet {
		coordIndex [ 
		 0, 1, 2, 3, 4, 5, 6, 7,-1,
		 7, 6, 5, 4, 3, 2, 1, 0,-1,
		 0, 7, 15, 8,-1,
		 8, 15, 7, 0,-1,
		 1, 0, 8, 9,-1,
		 9, 8, 0, 1,-1,
		 2, 1, 9, 10,-1,
		 10, 9, 1, 2,-1,
		 3, 2, 10, 11,-1,
		 11, 10, 2, 3,-1,
		 4, 3, 11, 12,-1,
		 12, 11, 3, 4,-1,
		 5, 4, 12, 13,-1,
		 13, 12, 4, 5,-1,
		 6, 5, 13, 14,-1,
		 14, 13, 5, 6,-1,
		 7, 6, 14, 15,-1,
		 15, 14, 6, 7,-1,
		 8, 15, 23, 16,-1,
		 16, 23, 15, 8,-1,
		 9, 8, 16, 17,-1,
		 17, 16, 8, 9,-1,
		 10, 9, 17, 18,-1,
		 18, 17, 9, 10,-1,
		 11, 10, 18, 19,-1,
		 19, 18, 10, 11,-1,
		 12, 11, 19, 20,-1,
		 20, 19, 11, 12,-1,
		 13, 12, 20, 21,-1,
		 21, 20, 12, 13,-1,
		 14, 13, 21, 22,-1,
		 22, 21, 13, 14,-1,
		 15, 14, 22, 23,-1,
		 23, 22, 14, 15,-1,
		 16, 23, 31, 24,-1,
		 24, 31, 23, 16,-1,
		 17, 16, 24, 25,-1,
		 25, 24, 16, 17,-1,
		 18, 17, 25, 26,-1,
		 26, 25, 17, 18,-1,
		 19, 18, 26, 27,-1,
		 27, 26, 18, 19,-1,
		 20, 19, 27, 28,-1,
		 28, 27, 19, 20,-1,
		 21, 20, 28, 29,-1,
		 29, 28, 20, 21,-1,
		 22, 21, 29, 30,-1,
		 30, 29, 21, 22,-1,
		 23, 22, 30, 31,-1,
		 31, 30, 22, 23,-1,
		 24, 31, 39, 32,-1,
		 32, 39, 31, 24,-1,
		 25, 24, 32, 33,-1,
		 33, 32, 24, 25,-1,
		 26, 25, 33, 34,-1,
		 34, 33, 25, 26,-1,
		 27, 26, 34, 35,-1,
		 35, 34, 26, 27,-1,
		 28, 27, 35, 36,-1,
		 36, 35, 27, 28,-1,
		 29, 28, 36, 37,-1,
		 37, 36, 28, 29,-1,
		 30, 29, 37, 38,-1,
		 38, 37, 29, 30,-1,
		 31, 30, 38, 39,-1,
		 39, 38, 30, 31,-1,
		 32, 39, 40,-1,
		 40, 39, 32,-1,
		 33, 32, 40,-1,
		 40, 32, 33,-1,
		 34, 33, 40,-1,
		 40, 33, 34,-1,
		 35, 34, 40,-1,
		 40, 34, 35,-1,
		 36, 35, 40,-1,
		 40, 35, 36,-1,
		 37, 36, 40,-1,
		 40, 36, 37,-1,
		 38, 37, 40,-1,
		 40, 37, 38,-1,
		 39, 38, 40,-1,
		 40, 38, 39,-1,
		]
	} #IndexedFaceSet
} #Polyhedron
Separator { #Polyhedron
	DEF COORD7 Coordinate3 {
		point [
		 2.1336 5.6388 -0.6096,
		 2.1336 4.5720 -0.6096,
		 3.3528 4.5720 -0.6096,
		 3.3528 5.6388 -0.6096,
		 2.1336 5.6388 -0.0000,
		 2.1336 4.5720 -0.0000,
		 3.3528 4.5720 -0.0000,
		 3.3528 5.6388 -0.0000
		]
	} #Coordinate3
	Material {
		ambientColor      0.1108 0.1108 0.1108  #ambientColor
		diffuseColor      0.4431 0.4431 0.4431  #diffuseColor
		transparency      0.0000                #transparency
	} #Material

	IndexedFaceSet {
		coordIndex [ 
		 0, 1, 2, 3,-1,
		 3, 2, 1, 0,-1,
		 0, 3, 7, 4,-1,
		 4, 7, 3, 0,-1,
		 1, 0, 4, 5,-1,
		 5, 4, 0, 1,-1,
		 2, 1, 5, 6,-1,
		 6, 5, 1, 2,-1,
		 3, 2, 6, 7,-1,
		 7, 6, 2, 3,-1,
		 7, 6, 5, 4,-1,
		 4, 5, 6, 7,-1,
		]
	} #IndexedFaceSet
} #Polyhedron
Separator { #Polyhedron
	DEF COORD8 Coordinate3 {
		point [
		 1.0668 4.7244 -0.6096,
		 1.0668 2.4384 -0.6096,
		 1.5240 2.4384 -0.6096,
		 1.5240 4.7244 -0.6096,
		 1.0668 4.7244 -0.0000,
		 1.0668 2.4384 -0.0000,
		 1.5240 2.4384 -0.0000,
		 1.5240 4.7244 -0.0000
		]
	} #Coordinate3
	Material {
		ambientColor      0.1108 0.1108 0.1108  #ambientColor
		diffuseColor      0.4431 0.4431 0.4431  #diffuseColor
		transparency      0.0000                #transparency
	} #Material

	IndexedFaceSet {
		coordIndex [ 
		 0, 1, 2, 3,-1,
		 3, 2, 1, 0,-1,
		 0, 3, 7, 4,-1,
		 4, 7, 3, 0,-1,
		 1, 0, 4, 5,-1,
		 5, 4, 0, 1,-1,
		 2, 1, 5, 6,-1,
		 6, 5, 1, 2,-1,
		 3, 2, 6, 7,-1,
		 7, 6, 2, 3,-1,
		 7, 6, 5, 4,-1,
		 4, 5, 6, 7,-1,
		]
	} #IndexedFaceSet
} #Polyhedron
Separator { #Polyhedron
	DEF COORD9 Coordinate3 {
		point [
		 3.9624 4.7244 -0.6096,
		 3.9624 2.4384 -0.6096,
		 4.4196 2.4384 -0.6096,
		 4.4196 4.7244 -0.6096,
		 3.9624 4.7244 -0.0000,
		 3.9624 2.4384 -0.0000,
		 4.4196 2.4384 -0.0000,
		 4.4196 4.7244 -0.0000
		]
	} #Coordinate3
	Material {
		ambientColor      0.1108 0.1108 0.1108  #ambientColor
		diffuseColor      0.4431 0.4431 0.4431  #diffuseColor
		transparency      0.0000                #transparency
	} #Material

	IndexedFaceSet {
		coordIndex [ 
		 0, 1, 2, 3,-1,
		 3, 2, 1, 0,-1,
		 0, 3, 7, 4,-1,
		 4, 7, 3, 0,-1,
		 1, 0, 4, 5,-1,
		 5, 4, 0, 1,-1,
		 2, 1, 5, 6,-1,
		 6, 5, 1, 2,-1,
		 3, 2, 6, 7,-1,
		 7, 6, 2, 3,-1,
		 7, 6, 5, 4,-1,
		 4, 5, 6, 7,-1,
		]
	} #IndexedFaceSet
} #Polyhedron
Separator { #Polyhedron
	DEF COORD10 Coordinate3 {
		point [
		 2.1336 4.2672 -0.6096,
		 2.1336 3.6576 -0.6096,
		 2.5908 3.6576 -0.6096,
		 2.5908 4.2672 -0.6096,
		 2.1336 4.2672 -0.4572,
		 2.1336 3.6576 -0.4572,
		 2.5908 3.6576 -0.4572,
		 2.5908 4.2672 -0.4572
		]
	} #Coordinate3
	Material {
		ambientColor      0.1108 0.1108 0.1108  #ambientColor
		diffuseColor      0.4431 0.4431 0.4431  #diffuseColor
		transparency      0.0000                #transparency
	} #Material

	IndexedFaceSet {
		coordIndex [ 
		 0, 1, 2, 3,-1,
		 3, 2, 1, 0,-1,
		 0, 3, 7, 4,-1,
		 4, 7, 3, 0,-1,
		 1, 0, 4, 5,-1,
		 5, 4, 0, 1,-1,
		 2, 1, 5, 6,-1,
		 6, 5, 1, 2,-1,
		 3, 2, 6, 7,-1,
		 7, 6, 2, 3,-1,
		 7, 6, 5, 4,-1,
		 4, 5, 6, 7,-1,
		]
	} #IndexedFaceSet
} #Polyhedron
Separator { #Polyhedron
	DEF COORD11 Coordinate3 {
		point [
		 2.1336 3.3528 -0.6096,
		 2.1336 2.8956 -0.6096,
		 2.4384 2.8956 -0.6096,
		 2.4384 3.3528 -0.6096,
		 2.1336 3.3528 -0.4572,
		 2.1336 2.8956 -0.4572,
		 2.4384 2.8956 -0.4572,
		 2.4384 3.3528 -0.4572
		]
	} #Coordinate3
	Material {
		ambientColor      0.1108 0.1108 0.1108  #ambientColor
		diffuseColor      0.4431 0.4431 0.4431  #diffuseColor
		transparency      0.0000                #transparency
	} #Material

	IndexedFaceSet {
		coordIndex [ 
		 0, 1, 2, 3,-1,
		 3, 2, 1, 0,-1,
		 0, 3, 7, 4,-1,
		 4, 7, 3, 0,-1,
		 1, 0, 4, 5,-1,
		 5, 4, 0, 1,-1,
		 2, 1, 5, 6,-1,
		 6, 5, 1, 2,-1,
		 3, 2, 6, 7,-1,
		 7, 6, 2, 3,-1,
		 7, 6, 5, 4,-1,
		 4, 5, 6, 7,-1,
		]
	} #IndexedFaceSet
} #Polyhedron
Separator { #Polyhedron
	DEF COORD12 Coordinate3 {
		point [
		 2.5908 3.3528 -0.6096,
		 2.5908 2.8956 -0.6096,
		 3.2004 2.8956 -0.6096,
		 3.2004 3.3528 -0.6096,
		 2.5908 3.3528 -0.4572,
		 2.5908 2.8956 -0.4572,
		 3.2004 2.8956 -0.4572,
		 3.2004 3.3528 -0.4572
		]
	} #Coordinate3
	Material {
		ambientColor      0.1108 0.1108 0.1108  #ambientColor
		diffuseColor      0.4431 0.4431 0.4431  #diffuseColor
		transparency      0.0000                #transparency
	} #Material

	IndexedFaceSet {
		coordIndex [ 
		 0, 1, 2, 3,-1,
		 3, 2, 1, 0,-1,
		 0, 3, 7, 4,-1,
		 4, 7, 3, 0,-1,
		 1, 0, 4, 5,-1,
		 5, 4, 0, 1,-1,
		 2, 1, 5, 6,-1,
		 6, 5, 1, 2,-1,
		 3, 2, 6, 7,-1,
		 7, 6, 2, 3,-1,
		 7, 6, 5, 4,-1,
		 4, 5, 6, 7,-1,
		]
	} #IndexedFaceSet
} #Polyhedron
Separator { #Polyhedron
	DEF COORD13 Coordinate3 {
		point [
		 2.7432 4.2672 -0.6096,
		 2.7432 3.5052 -0.6096,
		 3.3528 3.5052 -0.6096,
		 3.3528 4.2672 -0.6096,
		 2.7432 4.2672 -0.4572,
		 2.7432 3.5052 -0.4572,
		 3.3528 3.5052 -0.4572,
		 3.3528 4.2672 -0.4572
		]
	} #Coordinate3
	Material {
		ambientColor      0.1108 0.1108 0.1108  #ambientColor
		diffuseColor      0.4431 0.4431 0.4431  #diffuseColor
		transparency      0.0000                #transparency
	} #Material

	IndexedFaceSet {
		coordIndex [ 
		 0, 1, 2, 3,-1,
		 3, 2, 1, 0,-1,
		 0, 3, 7, 4,-1,
		 4, 7, 3, 0,-1,
		 1, 0, 4, 5,-1,
		 5, 4, 0, 1,-1,
		 2, 1, 5, 6,-1,
		 6, 5, 1, 2,-1,
		 3, 2, 6, 7,-1,
		 7, 6, 2, 3,-1,
		 7, 6, 5, 4,-1,
		 4, 5, 6, 7,-1,
		]
	} #IndexedFaceSet
} #Polyhedron
Separator { #Polyhedron
	DEF COORD14 Coordinate3 {
		point [
		 2.1336 2.7432 -0.6096,
		 2.1336 1.6764 -0.6096,
		 3.3528 1.6764 -0.6096,
		 3.3528 2.7432 -0.6096,
		 2.1336 2.7432 -0.0000,
		 2.1336 1.6764 -0.0000,
		 3.3528 1.6764 -0.0000,
		 3.3528 2.7432 -0.0000
		]
	} #Coordinate3
	Material {
		ambientColor      0.1108 0.1108 0.1108  #ambientColor
		diffuseColor      0.4431 0.4431 0.4431  #diffuseColor
		transparency      0.0000                #transparency
	} #Material

	IndexedFaceSet {
		coordIndex [ 
		 0, 1, 2, 3,-1,
		 3, 2, 1, 0,-1,
		 0, 3, 7, 4,-1,
		 4, 7, 3, 0,-1,
		 1, 0, 4, 5,-1,
		 5, 4, 0, 1,-1,
		 2, 1, 5, 6,-1,
		 6, 5, 1, 2,-1,
		 3, 2, 6, 7,-1,
		 7, 6, 2, 3,-1,
		 7, 6, 5, 4,-1,
		 4, 5, 6, 7,-1,
		]
	} #IndexedFaceSet
} #Polyhedron
Separator { #Polyhedron
	DEF COORD15 Coordinate3 {
		point [
		 0.4933 3.6576 -14.8058,
		 0.2635 3.6112 -14.7653,
		 0.0688 3.4791 -14.7310,
		 -0.0614 3.2813 -14.7080,
		 -0.1071 3.0480 -14.6999,
		 -0.0614 2.8147 -14.7080,
		 0.0688 2.6170 -14.7310,
		 0.2635 2.4848 -14.7653,
		 0.4933 2.4384 -14.8058,
		 0.7230 2.4848 -14.8463,
		 0.9178 2.6170 -14.8807,
		 1.0479 2.8147 -14.9036,
		 1.0936 3.0480 -14.9117,
		 1.0479 3.2813 -14.9036,
		 0.9178 3.4791 -14.8807,
		 0.7230 3.6112 -14.8463,
		 2.3311 3.6576 -4.3830,
		 2.1013 3.6112 -4.3425,
		 1.9066 3.4791 -4.3081,
		 1.7764 3.2813 -4.2852,
		 1.7307 3.0480 -4.2771,
		 1.7764 2.8147 -4.2852,
		 1.9066 2.6170 -4.3081,
		 2.1013 2.4848 -4.3425,
		 2.3311 2.4384 -4.3830,
		 2.5608 2.4848 -4.4235,
		 2.7556 2.6170 -4.4578,
		 2.8857 2.8147 -4.4808,
		 2.9314 3.0480 -4.4889,
		 2.8857 3.2813 -4.4808,
		 2.7556 3.4791 -4.4578,
		 2.5608 3.6112 -4.4235
		]
	} #Coordinate3
	Material {
		ambientColor      0.0500 0.2500 0.0500  #ambientColor
		diffuseColor      0.2000 1.0000 0.2000  #diffuseColor
		transparency      0.4980                #transparency
	} #Material

	IndexedFaceSet {
		coordIndex [ 
		 0, 1, 2, 3, 4, 5, 6, 7, 8, 9, 10, 11, 12, 13, 14, 15,-1,
		 15, 14, 13, 12, 11, 10, 9, 8, 7, 6, 5, 4, 3, 2, 1, 0,-1,
		 0, 15, 31, 16,-1,
		 16, 31, 15, 0,-1,
		 1, 0, 16, 17,-1,
		 17, 16, 0, 1,-1,
		 2, 1, 17, 18,-1,
		 18, 17, 1, 2,-1,
		 3, 2, 18, 19,-1,
		 19, 18, 2, 3,-1,
		 4, 3, 19, 20,-1,
		 20, 19, 3, 4,-1,
		 5, 4, 20, 21,-1,
		 21, 20, 4, 5,-1,
		 6, 5, 21, 22,-1,
		 22, 21, 5, 6,-1,
		 7, 6, 22, 23,-1,
		 23, 22, 6, 7,-1,
		 8, 7, 23, 24,-1,
		 24, 23, 7, 8,-1,
		 9, 8, 24, 25,-1,
		 25, 24, 8, 9,-1,
		 10, 9, 25, 26,-1,
		 26, 25, 9, 10,-1,
		 11, 10, 26, 27,-1,
		 27, 26, 10, 11,-1,
		 12, 11, 27, 28,-1,
		 28, 27, 11, 12,-1,
		 13, 12, 28, 29,-1,
		 29, 28, 12, 13,-1,
		 14, 13, 29, 30,-1,
		 30, 29, 13, 14,-1,
		 15, 14, 30, 31,-1,
		 31, 30, 14, 15,-1,
		 31, 30, 29, 28, 27, 26, 25, 24, 23, 22, 21, 20, 19, 18, 17, 16,-1,
		 16, 17, 18, 19, 20, 21, 22, 23, 24, 25, 26, 27, 28, 29, 30, 31,-1,
		]
	} #IndexedFaceSet
} #Polyhedron
}
